G04 Layer_Color=128*
%FSLAX25Y25*%
%MOIN*%
G70*
G01*
G75*
%ADD41R,0.05000X0.02500*%
%ADD42R,0.02500X0.05000*%
D41*
X71976Y215200D02*
D03*
Y212000D02*
D03*
Y208800D02*
D03*
X50976Y215200D02*
D03*
Y212000D02*
D03*
Y208800D02*
D03*
X62976Y215200D02*
D03*
Y212000D02*
D03*
Y208800D02*
D03*
X41976Y215000D02*
D03*
Y211800D02*
D03*
Y208600D02*
D03*
X117976Y215200D02*
D03*
Y212000D02*
D03*
Y208800D02*
D03*
X108976Y215200D02*
D03*
Y212000D02*
D03*
Y208800D02*
D03*
X96976Y215200D02*
D03*
Y212000D02*
D03*
Y208800D02*
D03*
X87976Y215000D02*
D03*
Y211800D02*
D03*
Y208600D02*
D03*
X164024Y215200D02*
D03*
Y212000D02*
D03*
Y208800D02*
D03*
X155024Y215200D02*
D03*
Y212000D02*
D03*
Y208800D02*
D03*
X143024Y215200D02*
D03*
Y212000D02*
D03*
Y208800D02*
D03*
X134024Y215000D02*
D03*
Y211800D02*
D03*
Y208600D02*
D03*
X210024Y215200D02*
D03*
Y212000D02*
D03*
Y208800D02*
D03*
X201024Y215200D02*
D03*
Y212000D02*
D03*
Y208800D02*
D03*
X189024Y215200D02*
D03*
Y212000D02*
D03*
Y208800D02*
D03*
X180024Y215000D02*
D03*
Y211800D02*
D03*
Y208600D02*
D03*
X255976Y215200D02*
D03*
Y212000D02*
D03*
Y208800D02*
D03*
X246976Y215200D02*
D03*
Y212000D02*
D03*
Y208800D02*
D03*
X234976Y215200D02*
D03*
Y212000D02*
D03*
Y208800D02*
D03*
X225976Y215000D02*
D03*
Y211800D02*
D03*
Y208600D02*
D03*
X302024Y215200D02*
D03*
Y212000D02*
D03*
Y208800D02*
D03*
X293024Y215200D02*
D03*
Y212000D02*
D03*
Y208800D02*
D03*
X281024Y215200D02*
D03*
Y212000D02*
D03*
Y208800D02*
D03*
X272024Y215000D02*
D03*
Y211800D02*
D03*
Y208600D02*
D03*
X348024Y215200D02*
D03*
Y212000D02*
D03*
Y208800D02*
D03*
X339024Y215200D02*
D03*
Y212000D02*
D03*
Y208800D02*
D03*
X327024Y215200D02*
D03*
Y212000D02*
D03*
Y208800D02*
D03*
X318024Y215000D02*
D03*
Y211800D02*
D03*
Y208600D02*
D03*
X42100Y60200D02*
D03*
Y63400D02*
D03*
Y66600D02*
D03*
X51100Y60200D02*
D03*
Y63400D02*
D03*
Y66600D02*
D03*
X63100Y60200D02*
D03*
Y63400D02*
D03*
Y66600D02*
D03*
X72100Y60400D02*
D03*
Y63600D02*
D03*
Y66800D02*
D03*
X88100Y60200D02*
D03*
Y63400D02*
D03*
Y66600D02*
D03*
X97100Y60200D02*
D03*
Y63400D02*
D03*
Y66600D02*
D03*
X109100Y60200D02*
D03*
Y63400D02*
D03*
Y66600D02*
D03*
X118100Y60400D02*
D03*
Y63600D02*
D03*
Y66800D02*
D03*
X134000Y60300D02*
D03*
Y63500D02*
D03*
Y66700D02*
D03*
X143000Y60300D02*
D03*
Y63500D02*
D03*
Y66700D02*
D03*
X155000Y60300D02*
D03*
Y63500D02*
D03*
Y66700D02*
D03*
X164000Y60500D02*
D03*
Y63700D02*
D03*
Y66900D02*
D03*
X179900Y60100D02*
D03*
Y63300D02*
D03*
Y66500D02*
D03*
X188900Y60100D02*
D03*
Y63300D02*
D03*
Y66500D02*
D03*
X200900Y60100D02*
D03*
Y63300D02*
D03*
Y66500D02*
D03*
X209900Y60300D02*
D03*
Y63500D02*
D03*
Y66700D02*
D03*
X226000Y60200D02*
D03*
Y63400D02*
D03*
Y66600D02*
D03*
X235000Y60200D02*
D03*
Y63400D02*
D03*
Y66600D02*
D03*
X247000Y60200D02*
D03*
Y63400D02*
D03*
Y66600D02*
D03*
X256000Y60400D02*
D03*
Y63600D02*
D03*
Y66800D02*
D03*
X272500Y60100D02*
D03*
Y63300D02*
D03*
Y66500D02*
D03*
X281500Y60100D02*
D03*
Y63300D02*
D03*
Y66500D02*
D03*
X293500Y60100D02*
D03*
Y63300D02*
D03*
Y66500D02*
D03*
X302500Y60300D02*
D03*
Y63500D02*
D03*
Y66700D02*
D03*
X318100Y60200D02*
D03*
Y63400D02*
D03*
Y66600D02*
D03*
X327100Y60200D02*
D03*
Y63400D02*
D03*
Y66600D02*
D03*
X339100Y60200D02*
D03*
Y63400D02*
D03*
Y66600D02*
D03*
X348100Y60400D02*
D03*
Y63600D02*
D03*
Y66800D02*
D03*
D42*
X42228Y154000D02*
D03*
X45772D02*
D03*
Y142000D02*
D03*
X42228D02*
D03*
Y166000D02*
D03*
X45772D02*
D03*
X42228Y130000D02*
D03*
X45772D02*
D03*
X42228Y118000D02*
D03*
X45772D02*
D03*
X42228Y106000D02*
D03*
X45772D02*
D03*
M02*
