G04 Layer_Color=8388736*
%FSLAX25Y25*%
%MOIN*%
G70*
G01*
G75*
%ADD50R,0.03400X0.08800*%
%ADD51R,0.09600X0.05600*%
%ADD52R,0.09461X0.14973*%
%ADD53R,0.06312X0.05524*%
%ADD54R,0.06312X0.05524*%
%ADD55R,0.12611X0.06312*%
%ADD56R,0.03950X0.05524*%
%ADD57R,0.05524X0.03950*%
G04:AMPARAMS|DCode=58|XSize=70.99mil|YSize=94.22mil|CornerRadius=19.75mil|HoleSize=0mil|Usage=FLASHONLY|Rotation=90.000|XOffset=0mil|YOffset=0mil|HoleType=Round|Shape=RoundedRectangle|*
%AMROUNDEDRECTD58*
21,1,0.07099,0.05472,0,0,90.0*
21,1,0.03150,0.09422,0,0,90.0*
1,1,0.03950,0.02736,0.01575*
1,1,0.03950,0.02736,-0.01575*
1,1,0.03950,-0.02736,-0.01575*
1,1,0.03950,-0.02736,0.01575*
%
%ADD58ROUNDEDRECTD58*%
%ADD59O,0.09461X0.03162*%
%ADD60O,0.09855X0.03162*%
%ADD61R,0.05524X0.06312*%
%ADD62R,0.07887X0.13398*%
G04:AMPARAMS|DCode=63|XSize=29.65mil|YSize=72.96mil|CornerRadius=0mil|HoleSize=0mil|Usage=FLASHONLY|Rotation=135.000|XOffset=0mil|YOffset=0mil|HoleType=Round|Shape=Round|*
%AMOVALD63*
21,1,0.04331,0.02965,0.00000,0.00000,225.0*
1,1,0.02965,0.01531,0.01531*
1,1,0.02965,-0.01531,-0.01531*
%
%ADD63OVALD63*%

G04:AMPARAMS|DCode=64|XSize=29.65mil|YSize=72.96mil|CornerRadius=0mil|HoleSize=0mil|Usage=FLASHONLY|Rotation=45.000|XOffset=0mil|YOffset=0mil|HoleType=Round|Shape=Round|*
%AMOVALD64*
21,1,0.04331,0.02965,0.00000,0.00000,135.0*
1,1,0.02965,0.01531,-0.01531*
1,1,0.02965,-0.01531,0.01531*
%
%ADD64OVALD64*%

%ADD65R,0.04540X0.04343*%
%ADD66C,0.09658*%
%ADD67C,0.06706*%
%ADD68R,0.06706X0.06706*%
%ADD69C,0.16548*%
%ADD70C,0.08674*%
%ADD71C,0.24422*%
%ADD72R,0.06706X0.06706*%
%ADD73O,0.32296X0.20485*%
%ADD74C,0.03162*%
D50*
X49476Y199700D02*
D03*
Y223900D02*
D03*
X54476Y199700D02*
D03*
X59476D02*
D03*
X54476Y223900D02*
D03*
X59476D02*
D03*
X64476Y199700D02*
D03*
Y223900D02*
D03*
X95476Y199700D02*
D03*
Y223900D02*
D03*
X100476Y199700D02*
D03*
X105476D02*
D03*
X100476Y223900D02*
D03*
X105476D02*
D03*
X110476Y199700D02*
D03*
Y223900D02*
D03*
X141524Y199700D02*
D03*
Y223900D02*
D03*
X146524Y199700D02*
D03*
X151524D02*
D03*
X146524Y223900D02*
D03*
X151524D02*
D03*
X156524Y199700D02*
D03*
Y223900D02*
D03*
X187524Y199700D02*
D03*
Y223900D02*
D03*
X192524Y199700D02*
D03*
X197524D02*
D03*
X192524Y223900D02*
D03*
X197524D02*
D03*
X202524Y199700D02*
D03*
Y223900D02*
D03*
X233476Y199700D02*
D03*
Y223900D02*
D03*
X238476Y199700D02*
D03*
X243476D02*
D03*
X238476Y223900D02*
D03*
X243476D02*
D03*
X248476Y199700D02*
D03*
Y223900D02*
D03*
X279524Y199700D02*
D03*
Y223900D02*
D03*
X284524Y199700D02*
D03*
X289524D02*
D03*
X284524Y223900D02*
D03*
X289524D02*
D03*
X294524Y199700D02*
D03*
Y223900D02*
D03*
X325524Y199700D02*
D03*
Y223900D02*
D03*
X330524Y199700D02*
D03*
X335524D02*
D03*
X330524Y223900D02*
D03*
X335524D02*
D03*
X340524Y199700D02*
D03*
Y223900D02*
D03*
X64600Y75700D02*
D03*
Y51500D02*
D03*
X59600Y75700D02*
D03*
X54600D02*
D03*
X59600Y51500D02*
D03*
X54600D02*
D03*
X49600Y75700D02*
D03*
Y51500D02*
D03*
X110600Y75700D02*
D03*
Y51500D02*
D03*
X105600Y75700D02*
D03*
X100600D02*
D03*
X105600Y51500D02*
D03*
X100600D02*
D03*
X95600Y75700D02*
D03*
Y51500D02*
D03*
X156500Y75800D02*
D03*
Y51600D02*
D03*
X151500Y75800D02*
D03*
X146500D02*
D03*
X151500Y51600D02*
D03*
X146500D02*
D03*
X141500Y75800D02*
D03*
Y51600D02*
D03*
X202400Y75600D02*
D03*
Y51400D02*
D03*
X197400Y75600D02*
D03*
X192400D02*
D03*
X197400Y51400D02*
D03*
X192400D02*
D03*
X187400Y75600D02*
D03*
Y51400D02*
D03*
X248500Y75700D02*
D03*
Y51500D02*
D03*
X243500Y75700D02*
D03*
X238500D02*
D03*
X243500Y51500D02*
D03*
X238500D02*
D03*
X233500Y75700D02*
D03*
Y51500D02*
D03*
X295000Y75600D02*
D03*
Y51400D02*
D03*
X290000Y75600D02*
D03*
X285000D02*
D03*
X290000Y51400D02*
D03*
X285000D02*
D03*
X280000Y75600D02*
D03*
Y51400D02*
D03*
X340600Y75700D02*
D03*
Y51500D02*
D03*
X335600Y75700D02*
D03*
X330600D02*
D03*
X335600Y51500D02*
D03*
X330600D02*
D03*
X325600Y75700D02*
D03*
Y51500D02*
D03*
D51*
X82800Y147100D02*
D03*
Y128900D02*
D03*
Y138000D02*
D03*
D52*
X107201D02*
D03*
D53*
X167669Y106850D02*
D03*
Y113150D02*
D03*
X176331Y106850D02*
D03*
Y113150D02*
D03*
X248669Y101850D02*
D03*
Y108150D02*
D03*
X257331Y101850D02*
D03*
Y108150D02*
D03*
D54*
X148244Y139725D02*
D03*
Y127913D02*
D03*
D55*
X104449Y111000D02*
D03*
X85551D02*
D03*
X104449Y165000D02*
D03*
X85551D02*
D03*
D56*
X71543Y167000D02*
D03*
X64457D02*
D03*
X71543Y159000D02*
D03*
X64457D02*
D03*
X189457Y178000D02*
D03*
X196543D02*
D03*
X219543D02*
D03*
X212457D02*
D03*
X285043Y188500D02*
D03*
X277957D02*
D03*
X71543Y180000D02*
D03*
X64457D02*
D03*
X212457Y170000D02*
D03*
X219543D02*
D03*
D57*
X148000Y114457D02*
D03*
Y121543D02*
D03*
X156000Y158543D02*
D03*
Y151457D02*
D03*
X148000Y158543D02*
D03*
Y151457D02*
D03*
X185000Y106457D02*
D03*
Y113543D02*
D03*
X159000D02*
D03*
Y106457D02*
D03*
X253000Y139457D02*
D03*
Y146543D02*
D03*
X301000Y101957D02*
D03*
Y109043D02*
D03*
X134638Y151276D02*
D03*
Y158362D02*
D03*
X126638Y151276D02*
D03*
Y158362D02*
D03*
X118638Y151276D02*
D03*
Y158362D02*
D03*
X71976Y220257D02*
D03*
Y227343D02*
D03*
X117976Y220257D02*
D03*
Y227343D02*
D03*
X164024Y220257D02*
D03*
Y227343D02*
D03*
X210024Y220257D02*
D03*
Y227343D02*
D03*
X255976Y220257D02*
D03*
Y227343D02*
D03*
X302024Y220257D02*
D03*
Y227343D02*
D03*
X318000Y218457D02*
D03*
Y225543D02*
D03*
X42100Y55143D02*
D03*
Y48057D02*
D03*
X88100Y55143D02*
D03*
Y48057D02*
D03*
X134000Y55243D02*
D03*
Y48157D02*
D03*
X179900Y55043D02*
D03*
Y47957D02*
D03*
X226000Y55143D02*
D03*
Y48057D02*
D03*
X272500Y55043D02*
D03*
Y47957D02*
D03*
X318100Y55143D02*
D03*
Y48057D02*
D03*
X301000Y125543D02*
D03*
Y118457D02*
D03*
X258000Y123543D02*
D03*
Y116457D02*
D03*
X249000Y123543D02*
D03*
Y116457D02*
D03*
X292500Y101957D02*
D03*
Y109043D02*
D03*
D58*
X172091Y177000D02*
D03*
X135909D02*
D03*
D59*
X271551Y130500D02*
D03*
Y125500D02*
D03*
Y120500D02*
D03*
Y115500D02*
D03*
X290449Y130500D02*
D03*
Y125500D02*
D03*
Y120500D02*
D03*
Y115500D02*
D03*
D60*
X299413Y140000D02*
D03*
Y145000D02*
D03*
Y150000D02*
D03*
Y155000D02*
D03*
Y160000D02*
D03*
Y165000D02*
D03*
Y170000D02*
D03*
Y175000D02*
D03*
Y180000D02*
D03*
X263587Y140000D02*
D03*
Y145000D02*
D03*
Y150000D02*
D03*
Y155000D02*
D03*
Y160000D02*
D03*
Y165000D02*
D03*
Y170000D02*
D03*
Y175000D02*
D03*
Y180000D02*
D03*
D61*
X44094D02*
D03*
X55906D02*
D03*
D62*
X47952Y242000D02*
D03*
X70000D02*
D03*
X93952D02*
D03*
X116000D02*
D03*
X140000D02*
D03*
X162048D02*
D03*
X186000D02*
D03*
X208048D02*
D03*
X231952D02*
D03*
X254000D02*
D03*
X278000D02*
D03*
X300048D02*
D03*
X324000D02*
D03*
X346048D02*
D03*
X66124Y33400D02*
D03*
X44076D02*
D03*
X112124D02*
D03*
X90076D02*
D03*
X158024Y33500D02*
D03*
X135976D02*
D03*
X203924Y33300D02*
D03*
X181876D02*
D03*
X250024Y33400D02*
D03*
X227976D02*
D03*
X296524Y33300D02*
D03*
X274476D02*
D03*
X342124Y33400D02*
D03*
X320076D02*
D03*
D63*
X173513Y140103D02*
D03*
X175740Y137875D02*
D03*
X177967Y135648D02*
D03*
X180194Y133421D02*
D03*
X182421Y131194D02*
D03*
X184648Y128967D02*
D03*
X186875Y126740D02*
D03*
X189103Y124513D02*
D03*
X212487Y147897D02*
D03*
X210260Y150125D02*
D03*
X208033Y152352D02*
D03*
X205806Y154579D02*
D03*
X203579Y156806D02*
D03*
X201352Y159033D02*
D03*
X199125Y161260D02*
D03*
X196897Y163487D02*
D03*
D64*
Y124513D02*
D03*
X199125Y126740D02*
D03*
X201352Y128967D02*
D03*
X203579Y131194D02*
D03*
X205806Y133421D02*
D03*
X208033Y135648D02*
D03*
X210260Y137875D02*
D03*
X212487Y140103D02*
D03*
X189103Y163487D02*
D03*
X186875Y161260D02*
D03*
X184648Y159033D02*
D03*
X182421Y156806D02*
D03*
X180194Y154579D02*
D03*
X177967Y152352D02*
D03*
X175740Y150125D02*
D03*
X173513Y147897D02*
D03*
D65*
X71000Y131799D02*
D03*
Y144201D02*
D03*
D66*
X63500Y13000D02*
D03*
X48500D02*
D03*
X109500D02*
D03*
X94500D02*
D03*
X155500D02*
D03*
X140500D02*
D03*
X201500D02*
D03*
X186500D02*
D03*
X247500D02*
D03*
X232500D02*
D03*
X293500D02*
D03*
X278500D02*
D03*
X339500D02*
D03*
X324500D02*
D03*
Y263000D02*
D03*
X339500D02*
D03*
X278500D02*
D03*
X293500D02*
D03*
X232500D02*
D03*
X247500D02*
D03*
X186500D02*
D03*
X201500D02*
D03*
X140500D02*
D03*
X155500D02*
D03*
X94500D02*
D03*
X109500D02*
D03*
X48500D02*
D03*
X63500D02*
D03*
D67*
X224000Y115000D02*
D03*
Y105000D02*
D03*
X214000Y115000D02*
D03*
Y105000D02*
D03*
X204000Y115000D02*
D03*
X234000Y177000D02*
D03*
Y167000D02*
D03*
Y157000D02*
D03*
Y147000D02*
D03*
Y137000D02*
D03*
X22000Y192000D02*
D03*
X12000Y182000D02*
D03*
X22000D02*
D03*
X12000Y172000D02*
D03*
X22000D02*
D03*
X12000Y162000D02*
D03*
X22000D02*
D03*
Y118000D02*
D03*
X12000Y108000D02*
D03*
X22000D02*
D03*
X12000Y98000D02*
D03*
X22000D02*
D03*
X12000Y88000D02*
D03*
X22000D02*
D03*
X67000Y103000D02*
D03*
D68*
X204000Y105000D02*
D03*
D69*
X32000Y80000D02*
D03*
X80000D02*
D03*
X124000D02*
D03*
X170000D02*
D03*
X80000Y196000D02*
D03*
X126000D02*
D03*
X172000D02*
D03*
X218000Y80000D02*
D03*
X264000D02*
D03*
X310000D02*
D03*
X218000Y196000D02*
D03*
X264000D02*
D03*
X310000D02*
D03*
X355002Y45974D02*
D03*
X341002Y135974D02*
D03*
X351002Y191974D02*
D03*
Y225974D02*
D03*
D70*
X310000Y232000D02*
D03*
X336000Y234000D02*
D03*
D71*
X374016Y224409D02*
D03*
X15748Y55118D02*
D03*
Y224409D02*
D03*
X374016Y55118D02*
D03*
D72*
X234000Y127000D02*
D03*
X12000Y192000D02*
D03*
Y118000D02*
D03*
X67000Y113000D02*
D03*
D73*
X364000Y155402D02*
D03*
Y118000D02*
D03*
D74*
X328063Y193739D02*
D03*
X288301Y216877D02*
D03*
X288563Y207200D02*
D03*
X130263Y51000D02*
D03*
X239000Y43000D02*
D03*
X238000Y90000D02*
D03*
X284894D02*
D03*
X277000Y69000D02*
D03*
X286000Y60780D02*
D03*
X138000Y107000D02*
D03*
X144263Y106177D02*
D03*
X332713Y63000D02*
D03*
X333963Y59477D02*
D03*
X285000Y42577D02*
D03*
X280000Y56377D02*
D03*
X308863Y153877D02*
D03*
X289563Y240477D02*
D03*
X36000Y243000D02*
D03*
X116863Y57577D02*
D03*
X287383Y99977D02*
D03*
X195763Y157477D02*
D03*
X92563Y208677D02*
D03*
X113063Y205677D02*
D03*
X330600Y82877D02*
D03*
X46363Y196677D02*
D03*
X129763Y69177D02*
D03*
X114263Y55077D02*
D03*
X207163Y89377D02*
D03*
X205563Y65100D02*
D03*
X186263Y69777D02*
D03*
X206163Y48477D02*
D03*
X328263Y205977D02*
D03*
X240563Y66600D02*
D03*
X148963Y211177D02*
D03*
X156524Y183077D02*
D03*
X248476D02*
D03*
X340600Y69877D02*
D03*
X59063Y63277D02*
D03*
X230463Y208077D02*
D03*
X196963Y212000D02*
D03*
X147663Y215200D02*
D03*
X101063Y58577D02*
D03*
X239063Y60200D02*
D03*
X243476Y237664D02*
D03*
X151524Y217939D02*
D03*
X242763Y215200D02*
D03*
X205363Y218277D02*
D03*
X180263Y218177D02*
D03*
X296363Y109043D02*
D03*
X315363Y51577D02*
D03*
X46420Y48057D02*
D03*
X287913Y136227D02*
D03*
X63070Y229884D02*
D03*
X183141Y147177D02*
D03*
X46363Y202177D02*
D03*
X64476Y186977D02*
D03*
X151063Y181477D02*
D03*
X276863Y208677D02*
D03*
X113863Y209577D02*
D03*
X103063Y186177D02*
D03*
X184363Y215177D02*
D03*
X160363Y144177D02*
D03*
X160263Y133277D02*
D03*
X276963Y64077D02*
D03*
X195963Y62598D02*
D03*
X148963Y66577D02*
D03*
X58963Y212177D02*
D03*
X58363Y208577D02*
D03*
X272263Y146977D02*
D03*
X258663Y57677D02*
D03*
X271163Y217777D02*
D03*
X269463Y105177D02*
D03*
X290763Y139077D02*
D03*
X92063Y68277D02*
D03*
X197263Y206238D02*
D03*
X179163Y51400D02*
D03*
X247063Y148477D02*
D03*
X216093Y142177D02*
D03*
X223363Y52077D02*
D03*
X103765Y63400D02*
D03*
X101486Y69077D02*
D03*
X148563Y61900D02*
D03*
X241949Y63400D02*
D03*
X143163Y69977D02*
D03*
X138063Y66700D02*
D03*
X297740Y58377D02*
D03*
X304263Y93277D02*
D03*
X286863Y66500D02*
D03*
X73963Y230489D02*
D03*
X286283Y209798D02*
D03*
X276140Y217777D02*
D03*
X106263Y217926D02*
D03*
X230121Y218077D02*
D03*
X248476Y218277D02*
D03*
X59476Y218377D02*
D03*
X184363Y210277D02*
D03*
X205763Y207577D02*
D03*
X150263Y207672D02*
D03*
X101263Y209177D02*
D03*
X276663Y212777D02*
D03*
X120663Y223277D02*
D03*
X117663Y224277D02*
D03*
X88063Y51777D02*
D03*
X241863Y211077D02*
D03*
X172263Y166964D02*
D03*
X100476Y205299D02*
D03*
X55063Y157177D02*
D03*
X334963Y212000D02*
D03*
X159163Y60877D02*
D03*
X194298Y59235D02*
D03*
X251963Y64477D02*
D03*
X332963Y66577D02*
D03*
X292563Y218477D02*
D03*
X251263Y68477D02*
D03*
X193063Y212000D02*
D03*
X325363Y44277D02*
D03*
X305063Y39577D02*
D03*
X194563Y66400D02*
D03*
X296663Y205977D02*
D03*
X55063Y207200D02*
D03*
X322763Y213277D02*
D03*
X341663Y205977D02*
D03*
X55323Y63400D02*
D03*
X114063Y63577D02*
D03*
X298363Y63500D02*
D03*
X231186Y57677D02*
D03*
X105476Y238777D02*
D03*
X333763Y144237D02*
D03*
X42063Y51677D02*
D03*
X321963Y222777D02*
D03*
X338863Y218377D02*
D03*
X318363Y221577D02*
D03*
X102570Y29977D02*
D03*
X197563Y245977D02*
D03*
X289000Y30000D02*
D03*
M02*
