G04 Layer_Color=32896*
%FSLAX25Y25*%
%MOIN*%
G70*
G01*
G75*
%ADD26C,0.01000*%
%ADD48C,0.00800*%
%ADD49C,0.00600*%
D26*
X40040Y237376D02*
Y238688D01*
Y238032D01*
X43320D01*
X43976Y238688D01*
Y239344D01*
X43320Y240000D01*
X43976Y236064D02*
X40040D01*
Y234096D01*
X40696Y233440D01*
X42008D01*
X42664Y234096D01*
Y236064D01*
X43976Y232129D02*
Y230817D01*
Y231473D01*
X40040D01*
X40696Y232129D01*
X44632Y228849D02*
Y226225D01*
X40696Y222289D02*
X40040Y222945D01*
Y224257D01*
X40696Y224913D01*
X41352D01*
X42008Y224257D01*
Y222945D01*
X42664Y222289D01*
X43320D01*
X43976Y222945D01*
Y224257D01*
X43320Y224913D01*
X43976Y220977D02*
Y219665D01*
Y220321D01*
X40040D01*
X40696Y220977D01*
X86040Y238688D02*
Y240000D01*
Y239344D01*
X89320D01*
X89976Y240000D01*
Y240656D01*
X89320Y241312D01*
X89976Y237376D02*
X86040D01*
Y235408D01*
X86696Y234752D01*
X88008D01*
X88664Y235408D01*
Y237376D01*
X89976Y233440D02*
Y232129D01*
Y232785D01*
X86040D01*
X86696Y233440D01*
X90632Y230161D02*
Y227537D01*
X86696Y223601D02*
X86040Y224257D01*
Y225569D01*
X86696Y226225D01*
X87352D01*
X88008Y225569D01*
Y224257D01*
X88664Y223601D01*
X89320D01*
X89976Y224257D01*
Y225569D01*
X89320Y226225D01*
X89976Y219665D02*
Y222289D01*
X87352Y219665D01*
X86696D01*
X86040Y220321D01*
Y221633D01*
X86696Y222289D01*
X132088Y238688D02*
Y240000D01*
Y239344D01*
X135368D01*
X136024Y240000D01*
Y240656D01*
X135368Y241312D01*
X136024Y237376D02*
X132088D01*
Y235408D01*
X132744Y234752D01*
X134056D01*
X134712Y235408D01*
Y237376D01*
X136024Y233440D02*
Y232129D01*
Y232785D01*
X132088D01*
X132744Y233440D01*
X136680Y230161D02*
Y227537D01*
X132744Y223601D02*
X132088Y224257D01*
Y225569D01*
X132744Y226225D01*
X133400D01*
X134056Y225569D01*
Y224257D01*
X134712Y223601D01*
X135368D01*
X136024Y224257D01*
Y225569D01*
X135368Y226225D01*
X132744Y222289D02*
X132088Y221633D01*
Y220321D01*
X132744Y219665D01*
X133400D01*
X134056Y220321D01*
Y220977D01*
Y220321D01*
X134712Y219665D01*
X135368D01*
X136024Y220321D01*
Y221633D01*
X135368Y222289D01*
X178088Y238688D02*
Y240000D01*
Y239344D01*
X181368D01*
X182024Y240000D01*
Y240656D01*
X181368Y241312D01*
X182024Y237376D02*
X178088D01*
Y235408D01*
X178744Y234752D01*
X180056D01*
X180712Y235408D01*
Y237376D01*
X182024Y233440D02*
Y232129D01*
Y232785D01*
X178088D01*
X178744Y233440D01*
X182680Y230161D02*
Y227537D01*
X178744Y223601D02*
X178088Y224257D01*
Y225569D01*
X178744Y226225D01*
X179400D01*
X180056Y225569D01*
Y224257D01*
X180712Y223601D01*
X181368D01*
X182024Y224257D01*
Y225569D01*
X181368Y226225D01*
X182024Y220321D02*
X178088D01*
X180056Y222289D01*
Y219665D01*
X224040Y238688D02*
Y240000D01*
Y239344D01*
X227320D01*
X227976Y240000D01*
Y240656D01*
X227320Y241312D01*
X227976Y237376D02*
X224040D01*
Y235408D01*
X224696Y234752D01*
X226008D01*
X226664Y235408D01*
Y237376D01*
X227976Y233440D02*
Y232129D01*
Y232785D01*
X224040D01*
X224696Y233440D01*
X228632Y230161D02*
Y227537D01*
X224696Y223601D02*
X224040Y224257D01*
Y225569D01*
X224696Y226225D01*
X225352D01*
X226008Y225569D01*
Y224257D01*
X226664Y223601D01*
X227320D01*
X227976Y224257D01*
Y225569D01*
X227320Y226225D01*
X224040Y219665D02*
Y222289D01*
X226008D01*
X225352Y220977D01*
Y220321D01*
X226008Y219665D01*
X227320D01*
X227976Y220321D01*
Y221633D01*
X227320Y222289D01*
X270088Y238688D02*
Y240000D01*
Y239344D01*
X273368D01*
X274024Y240000D01*
Y240656D01*
X273368Y241312D01*
X274024Y237376D02*
X270088D01*
Y235408D01*
X270744Y234752D01*
X272056D01*
X272712Y235408D01*
Y237376D01*
X274024Y233440D02*
Y232129D01*
Y232785D01*
X270088D01*
X270744Y233440D01*
X274680Y230161D02*
Y227537D01*
X270744Y223601D02*
X270088Y224257D01*
Y225569D01*
X270744Y226225D01*
X271400D01*
X272056Y225569D01*
Y224257D01*
X272712Y223601D01*
X273368D01*
X274024Y224257D01*
Y225569D01*
X273368Y226225D01*
X270088Y219665D02*
X270744Y220977D01*
X272056Y222289D01*
X273368D01*
X274024Y221633D01*
Y220321D01*
X273368Y219665D01*
X272712D01*
X272056Y220321D01*
Y222289D01*
X316088Y238688D02*
Y240000D01*
Y239344D01*
X319368D01*
X320024Y240000D01*
Y240656D01*
X319368Y241312D01*
X320024Y237376D02*
X316088D01*
Y235408D01*
X316744Y234752D01*
X318056D01*
X318712Y235408D01*
Y237376D01*
X320024Y233440D02*
Y232129D01*
Y232785D01*
X316088D01*
X316744Y233440D01*
X320680Y230161D02*
Y227537D01*
X316744Y223601D02*
X316088Y224257D01*
Y225569D01*
X316744Y226225D01*
X317400D01*
X318056Y225569D01*
Y224257D01*
X318712Y223601D01*
X319368D01*
X320024Y224257D01*
Y225569D01*
X319368Y226225D01*
X316088Y222289D02*
Y219665D01*
X316744D01*
X319368Y222289D01*
X320024D01*
X74036Y36712D02*
Y35400D01*
Y36056D01*
X70756D01*
X70100Y35400D01*
Y34744D01*
X70756Y34088D01*
X70100Y38024D02*
X74036D01*
Y39992D01*
X73380Y40648D01*
X72068D01*
X71412Y39992D01*
Y38024D01*
X70100Y41960D02*
Y43271D01*
Y42616D01*
X74036D01*
X73380Y41960D01*
X69444Y45239D02*
Y47863D01*
X73380Y51799D02*
X74036Y51143D01*
Y49831D01*
X73380Y49175D01*
X72724D01*
X72068Y49831D01*
Y51143D01*
X71412Y51799D01*
X70756D01*
X70100Y51143D01*
Y49831D01*
X70756Y49175D01*
X73380Y53111D02*
X74036Y53767D01*
Y55079D01*
X73380Y55735D01*
X72724D01*
X72068Y55079D01*
X71412Y55735D01*
X70756D01*
X70100Y55079D01*
Y53767D01*
X70756Y53111D01*
X71412D01*
X72068Y53767D01*
X72724Y53111D01*
X73380D01*
X72068Y53767D02*
Y55079D01*
X120036Y36712D02*
Y35400D01*
Y36056D01*
X116756D01*
X116100Y35400D01*
Y34744D01*
X116756Y34088D01*
X116100Y38024D02*
X120036D01*
Y39992D01*
X119380Y40648D01*
X118068D01*
X117412Y39992D01*
Y38024D01*
X116100Y41960D02*
Y43271D01*
Y42616D01*
X120036D01*
X119380Y41960D01*
X115444Y45239D02*
Y47863D01*
X119380Y51799D02*
X120036Y51143D01*
Y49831D01*
X119380Y49175D01*
X118724D01*
X118068Y49831D01*
Y51143D01*
X117412Y51799D01*
X116756D01*
X116100Y51143D01*
Y49831D01*
X116756Y49175D01*
Y53111D02*
X116100Y53767D01*
Y55079D01*
X116756Y55735D01*
X119380D01*
X120036Y55079D01*
Y53767D01*
X119380Y53111D01*
X118724D01*
X118068Y53767D01*
Y55735D01*
X165936Y33532D02*
Y32220D01*
Y32876D01*
X162656D01*
X162000Y32220D01*
Y31564D01*
X162656Y30908D01*
X162000Y34844D02*
X165936D01*
Y36812D01*
X165280Y37468D01*
X163968D01*
X163312Y36812D01*
Y34844D01*
X162000Y38780D02*
Y40092D01*
Y39436D01*
X165936D01*
X165280Y38780D01*
X161344Y42060D02*
Y44683D01*
X165280Y48619D02*
X165936Y47963D01*
Y46651D01*
X165280Y45995D01*
X164624D01*
X163968Y46651D01*
Y47963D01*
X163312Y48619D01*
X162656D01*
X162000Y47963D01*
Y46651D01*
X162656Y45995D01*
X162000Y49931D02*
Y51243D01*
Y50587D01*
X165936D01*
X165280Y49931D01*
Y53211D02*
X165936Y53867D01*
Y55179D01*
X165280Y55835D01*
X162656D01*
X162000Y55179D01*
Y53867D01*
X162656Y53211D01*
X165280D01*
X211836Y34644D02*
Y33332D01*
Y33988D01*
X208556D01*
X207900Y33332D01*
Y32676D01*
X208556Y32020D01*
X207900Y35956D02*
X211836D01*
Y37924D01*
X211180Y38580D01*
X209868D01*
X209212Y37924D01*
Y35956D01*
X207900Y39892D02*
Y41204D01*
Y40548D01*
X211836D01*
X211180Y39892D01*
X207244Y43172D02*
Y45795D01*
X211180Y49731D02*
X211836Y49075D01*
Y47763D01*
X211180Y47107D01*
X210524D01*
X209868Y47763D01*
Y49075D01*
X209212Y49731D01*
X208556D01*
X207900Y49075D01*
Y47763D01*
X208556Y47107D01*
X207900Y51043D02*
Y52355D01*
Y51699D01*
X211836D01*
X211180Y51043D01*
X207900Y54323D02*
Y55635D01*
Y54979D01*
X211836D01*
X211180Y54323D01*
X257936Y33432D02*
Y32120D01*
Y32776D01*
X254656D01*
X254000Y32120D01*
Y31464D01*
X254656Y30808D01*
X254000Y34744D02*
X257936D01*
Y36712D01*
X257280Y37368D01*
X255968D01*
X255312Y36712D01*
Y34744D01*
X254000Y38680D02*
Y39992D01*
Y39336D01*
X257936D01*
X257280Y38680D01*
X253344Y41960D02*
Y44583D01*
X257280Y48519D02*
X257936Y47863D01*
Y46551D01*
X257280Y45895D01*
X256624D01*
X255968Y46551D01*
Y47863D01*
X255312Y48519D01*
X254656D01*
X254000Y47863D01*
Y46551D01*
X254656Y45895D01*
X254000Y49831D02*
Y51143D01*
Y50487D01*
X257936D01*
X257280Y49831D01*
X254000Y55735D02*
Y53111D01*
X256624Y55735D01*
X257280D01*
X257936Y55079D01*
Y53767D01*
X257280Y53111D01*
X304436Y33332D02*
Y32020D01*
Y32676D01*
X301156D01*
X300500Y32020D01*
Y31364D01*
X301156Y30708D01*
X300500Y34644D02*
X304436D01*
Y36612D01*
X303780Y37268D01*
X302468D01*
X301812Y36612D01*
Y34644D01*
X300500Y38580D02*
Y39892D01*
Y39236D01*
X304436D01*
X303780Y38580D01*
X299844Y41860D02*
Y44483D01*
X303780Y48419D02*
X304436Y47763D01*
Y46451D01*
X303780Y45795D01*
X303124D01*
X302468Y46451D01*
Y47763D01*
X301812Y48419D01*
X301156D01*
X300500Y47763D01*
Y46451D01*
X301156Y45795D01*
X300500Y49731D02*
Y51043D01*
Y50387D01*
X304436D01*
X303780Y49731D01*
Y53011D02*
X304436Y53667D01*
Y54979D01*
X303780Y55635D01*
X303124D01*
X302468Y54979D01*
Y54323D01*
Y54979D01*
X301812Y55635D01*
X301156D01*
X300500Y54979D01*
Y53667D01*
X301156Y53011D01*
X350036Y33432D02*
Y32120D01*
Y32776D01*
X346756D01*
X346100Y32120D01*
Y31464D01*
X346756Y30808D01*
X346100Y34744D02*
X350036D01*
Y36712D01*
X349380Y37368D01*
X348068D01*
X347412Y36712D01*
Y34744D01*
X346100Y38680D02*
Y39992D01*
Y39336D01*
X350036D01*
X349380Y38680D01*
X345444Y41960D02*
Y44583D01*
X349380Y48519D02*
X350036Y47863D01*
Y46551D01*
X349380Y45895D01*
X348724D01*
X348068Y46551D01*
Y47863D01*
X347412Y48519D01*
X346756D01*
X346100Y47863D01*
Y46551D01*
X346756Y45895D01*
X346100Y49831D02*
Y51143D01*
Y50487D01*
X350036D01*
X349380Y49831D01*
X346100Y55079D02*
X350036D01*
X348068Y53111D01*
Y55735D01*
X49140Y237576D02*
Y238888D01*
Y238232D01*
X52420D01*
X53076Y238888D01*
Y239544D01*
X52420Y240200D01*
X53076Y236264D02*
X49140D01*
Y234296D01*
X49796Y233640D01*
X51108D01*
X51764Y234296D01*
Y236264D01*
X53076Y229705D02*
Y232329D01*
X50452Y229705D01*
X49796D01*
X49140Y230361D01*
Y231673D01*
X49796Y232329D01*
X53732Y228393D02*
Y225769D01*
X49796Y221833D02*
X49140Y222489D01*
Y223801D01*
X49796Y224457D01*
X50452D01*
X51108Y223801D01*
Y222489D01*
X51764Y221833D01*
X52420D01*
X53076Y222489D01*
Y223801D01*
X52420Y224457D01*
X53076Y220521D02*
Y219209D01*
Y219865D01*
X49140D01*
X49796Y220521D01*
X95140Y238888D02*
Y240200D01*
Y239544D01*
X98420D01*
X99076Y240200D01*
Y240856D01*
X98420Y241512D01*
X99076Y237576D02*
X95140D01*
Y235608D01*
X95796Y234952D01*
X97108D01*
X97764Y235608D01*
Y237576D01*
X99076Y231017D02*
Y233640D01*
X96452Y231017D01*
X95796D01*
X95140Y231673D01*
Y232984D01*
X95796Y233640D01*
X99732Y229705D02*
Y227081D01*
X95796Y223145D02*
X95140Y223801D01*
Y225113D01*
X95796Y225769D01*
X96452D01*
X97108Y225113D01*
Y223801D01*
X97764Y223145D01*
X98420D01*
X99076Y223801D01*
Y225113D01*
X98420Y225769D01*
X99076Y219209D02*
Y221833D01*
X96452Y219209D01*
X95796D01*
X95140Y219865D01*
Y221177D01*
X95796Y221833D01*
X141188Y238888D02*
Y240200D01*
Y239544D01*
X144468D01*
X145124Y240200D01*
Y240856D01*
X144468Y241512D01*
X145124Y237576D02*
X141188D01*
Y235608D01*
X141844Y234952D01*
X143156D01*
X143812Y235608D01*
Y237576D01*
X145124Y231017D02*
Y233640D01*
X142500Y231017D01*
X141844D01*
X141188Y231673D01*
Y232984D01*
X141844Y233640D01*
X145780Y229705D02*
Y227081D01*
X141844Y223145D02*
X141188Y223801D01*
Y225113D01*
X141844Y225769D01*
X142500D01*
X143156Y225113D01*
Y223801D01*
X143812Y223145D01*
X144468D01*
X145124Y223801D01*
Y225113D01*
X144468Y225769D01*
X141844Y221833D02*
X141188Y221177D01*
Y219865D01*
X141844Y219209D01*
X142500D01*
X143156Y219865D01*
Y220521D01*
Y219865D01*
X143812Y219209D01*
X144468D01*
X145124Y219865D01*
Y221177D01*
X144468Y221833D01*
X187188Y238888D02*
Y240200D01*
Y239544D01*
X190468D01*
X191124Y240200D01*
Y240856D01*
X190468Y241512D01*
X191124Y237576D02*
X187188D01*
Y235608D01*
X187844Y234952D01*
X189156D01*
X189812Y235608D01*
Y237576D01*
X191124Y231017D02*
Y233640D01*
X188500Y231017D01*
X187844D01*
X187188Y231673D01*
Y232984D01*
X187844Y233640D01*
X191780Y229705D02*
Y227081D01*
X187844Y223145D02*
X187188Y223801D01*
Y225113D01*
X187844Y225769D01*
X188500D01*
X189156Y225113D01*
Y223801D01*
X189812Y223145D01*
X190468D01*
X191124Y223801D01*
Y225113D01*
X190468Y225769D01*
X191124Y219865D02*
X187188D01*
X189156Y221833D01*
Y219209D01*
X233140Y238888D02*
Y240200D01*
Y239544D01*
X236420D01*
X237076Y240200D01*
Y240856D01*
X236420Y241512D01*
X237076Y237576D02*
X233140D01*
Y235608D01*
X233796Y234952D01*
X235108D01*
X235764Y235608D01*
Y237576D01*
X237076Y231017D02*
Y233640D01*
X234452Y231017D01*
X233796D01*
X233140Y231673D01*
Y232984D01*
X233796Y233640D01*
X237732Y229705D02*
Y227081D01*
X233796Y223145D02*
X233140Y223801D01*
Y225113D01*
X233796Y225769D01*
X234452D01*
X235108Y225113D01*
Y223801D01*
X235764Y223145D01*
X236420D01*
X237076Y223801D01*
Y225113D01*
X236420Y225769D01*
X233140Y219209D02*
Y221833D01*
X235108D01*
X234452Y220521D01*
Y219865D01*
X235108Y219209D01*
X236420D01*
X237076Y219865D01*
Y221177D01*
X236420Y221833D01*
X279188Y238888D02*
Y240200D01*
Y239544D01*
X282468D01*
X283124Y240200D01*
Y240856D01*
X282468Y241512D01*
X283124Y237576D02*
X279188D01*
Y235608D01*
X279844Y234952D01*
X281156D01*
X281812Y235608D01*
Y237576D01*
X283124Y231017D02*
Y233640D01*
X280500Y231017D01*
X279844D01*
X279188Y231673D01*
Y232984D01*
X279844Y233640D01*
X283780Y229705D02*
Y227081D01*
X279844Y223145D02*
X279188Y223801D01*
Y225113D01*
X279844Y225769D01*
X280500D01*
X281156Y225113D01*
Y223801D01*
X281812Y223145D01*
X282468D01*
X283124Y223801D01*
Y225113D01*
X282468Y225769D01*
X279188Y219209D02*
X279844Y220521D01*
X281156Y221833D01*
X282468D01*
X283124Y221177D01*
Y219865D01*
X282468Y219209D01*
X281812D01*
X281156Y219865D01*
Y221833D01*
X325188Y238888D02*
Y240200D01*
Y239544D01*
X328468D01*
X329124Y240200D01*
Y240856D01*
X328468Y241512D01*
X329124Y237576D02*
X325188D01*
Y235608D01*
X325844Y234952D01*
X327156D01*
X327812Y235608D01*
Y237576D01*
X329124Y231017D02*
Y233640D01*
X326500Y231017D01*
X325844D01*
X325188Y231673D01*
Y232984D01*
X325844Y233640D01*
X329780Y229705D02*
Y227081D01*
X325844Y223145D02*
X325188Y223801D01*
Y225113D01*
X325844Y225769D01*
X326500D01*
X327156Y225113D01*
Y223801D01*
X327812Y223145D01*
X328468D01*
X329124Y223801D01*
Y225113D01*
X328468Y225769D01*
X325188Y221833D02*
Y219209D01*
X325844D01*
X328468Y221833D01*
X329124D01*
X64936Y36512D02*
Y35200D01*
Y35856D01*
X61656D01*
X61000Y35200D01*
Y34544D01*
X61656Y33888D01*
X61000Y37824D02*
X64936D01*
Y39792D01*
X64280Y40448D01*
X62968D01*
X62312Y39792D01*
Y37824D01*
X61000Y44383D02*
Y41760D01*
X63624Y44383D01*
X64280D01*
X64936Y43727D01*
Y42415D01*
X64280Y41760D01*
X60344Y45695D02*
Y48319D01*
X64280Y52255D02*
X64936Y51599D01*
Y50287D01*
X64280Y49631D01*
X63624D01*
X62968Y50287D01*
Y51599D01*
X62312Y52255D01*
X61656D01*
X61000Y51599D01*
Y50287D01*
X61656Y49631D01*
X64280Y53567D02*
X64936Y54223D01*
Y55535D01*
X64280Y56191D01*
X63624D01*
X62968Y55535D01*
X62312Y56191D01*
X61656D01*
X61000Y55535D01*
Y54223D01*
X61656Y53567D01*
X62312D01*
X62968Y54223D01*
X63624Y53567D01*
X64280D01*
X62968Y54223D02*
Y55535D01*
X110936Y36512D02*
Y35200D01*
Y35856D01*
X107656D01*
X107000Y35200D01*
Y34544D01*
X107656Y33888D01*
X107000Y37824D02*
X110936D01*
Y39792D01*
X110280Y40448D01*
X108968D01*
X108312Y39792D01*
Y37824D01*
X107000Y44383D02*
Y41760D01*
X109624Y44383D01*
X110280D01*
X110936Y43727D01*
Y42415D01*
X110280Y41760D01*
X106344Y45695D02*
Y48319D01*
X110280Y52255D02*
X110936Y51599D01*
Y50287D01*
X110280Y49631D01*
X109624D01*
X108968Y50287D01*
Y51599D01*
X108312Y52255D01*
X107656D01*
X107000Y51599D01*
Y50287D01*
X107656Y49631D01*
Y53567D02*
X107000Y54223D01*
Y55535D01*
X107656Y56191D01*
X110280D01*
X110936Y55535D01*
Y54223D01*
X110280Y53567D01*
X109624D01*
X108968Y54223D01*
Y56191D01*
X156836Y33332D02*
Y32020D01*
Y32676D01*
X153556D01*
X152900Y32020D01*
Y31364D01*
X153556Y30708D01*
X152900Y34644D02*
X156836D01*
Y36612D01*
X156180Y37268D01*
X154868D01*
X154212Y36612D01*
Y34644D01*
X152900Y41204D02*
Y38580D01*
X155524Y41204D01*
X156180D01*
X156836Y40548D01*
Y39236D01*
X156180Y38580D01*
X152244Y42516D02*
Y45139D01*
X156180Y49075D02*
X156836Y48419D01*
Y47107D01*
X156180Y46451D01*
X155524D01*
X154868Y47107D01*
Y48419D01*
X154212Y49075D01*
X153556D01*
X152900Y48419D01*
Y47107D01*
X153556Y46451D01*
X152900Y50387D02*
Y51699D01*
Y51043D01*
X156836D01*
X156180Y50387D01*
Y53667D02*
X156836Y54323D01*
Y55635D01*
X156180Y56291D01*
X153556D01*
X152900Y55635D01*
Y54323D01*
X153556Y53667D01*
X156180D01*
X202736Y34444D02*
Y33132D01*
Y33788D01*
X199456D01*
X198800Y33132D01*
Y32476D01*
X199456Y31820D01*
X198800Y35756D02*
X202736D01*
Y37724D01*
X202080Y38380D01*
X200768D01*
X200112Y37724D01*
Y35756D01*
X198800Y42316D02*
Y39692D01*
X201424Y42316D01*
X202080D01*
X202736Y41660D01*
Y40348D01*
X202080Y39692D01*
X198144Y43627D02*
Y46251D01*
X202080Y50187D02*
X202736Y49531D01*
Y48219D01*
X202080Y47563D01*
X201424D01*
X200768Y48219D01*
Y49531D01*
X200112Y50187D01*
X199456D01*
X198800Y49531D01*
Y48219D01*
X199456Y47563D01*
X198800Y51499D02*
Y52811D01*
Y52155D01*
X202736D01*
X202080Y51499D01*
X198800Y54779D02*
Y56091D01*
Y55435D01*
X202736D01*
X202080Y54779D01*
X248836Y33232D02*
Y31920D01*
Y32576D01*
X245556D01*
X244900Y31920D01*
Y31264D01*
X245556Y30608D01*
X244900Y34544D02*
X248836D01*
Y36512D01*
X248180Y37168D01*
X246868D01*
X246212Y36512D01*
Y34544D01*
X244900Y41104D02*
Y38480D01*
X247524Y41104D01*
X248180D01*
X248836Y40448D01*
Y39136D01*
X248180Y38480D01*
X244244Y42415D02*
Y45039D01*
X248180Y48975D02*
X248836Y48319D01*
Y47007D01*
X248180Y46351D01*
X247524D01*
X246868Y47007D01*
Y48319D01*
X246212Y48975D01*
X245556D01*
X244900Y48319D01*
Y47007D01*
X245556Y46351D01*
X244900Y50287D02*
Y51599D01*
Y50943D01*
X248836D01*
X248180Y50287D01*
X244900Y56191D02*
Y53567D01*
X247524Y56191D01*
X248180D01*
X248836Y55535D01*
Y54223D01*
X248180Y53567D01*
X295336Y33132D02*
Y31820D01*
Y32476D01*
X292056D01*
X291400Y31820D01*
Y31164D01*
X292056Y30508D01*
X291400Y34444D02*
X295336D01*
Y36412D01*
X294680Y37068D01*
X293368D01*
X292712Y36412D01*
Y34444D01*
X291400Y41004D02*
Y38380D01*
X294024Y41004D01*
X294680D01*
X295336Y40348D01*
Y39036D01*
X294680Y38380D01*
X290744Y42316D02*
Y44939D01*
X294680Y48875D02*
X295336Y48219D01*
Y46907D01*
X294680Y46251D01*
X294024D01*
X293368Y46907D01*
Y48219D01*
X292712Y48875D01*
X292056D01*
X291400Y48219D01*
Y46907D01*
X292056Y46251D01*
X291400Y50187D02*
Y51499D01*
Y50843D01*
X295336D01*
X294680Y50187D01*
Y53467D02*
X295336Y54123D01*
Y55435D01*
X294680Y56091D01*
X294024D01*
X293368Y55435D01*
Y54779D01*
Y55435D01*
X292712Y56091D01*
X292056D01*
X291400Y55435D01*
Y54123D01*
X292056Y53467D01*
X340936Y33232D02*
Y31920D01*
Y32576D01*
X337656D01*
X337000Y31920D01*
Y31264D01*
X337656Y30608D01*
X337000Y34544D02*
X340936D01*
Y36512D01*
X340280Y37168D01*
X338968D01*
X338312Y36512D01*
Y34544D01*
X337000Y41104D02*
Y38480D01*
X339624Y41104D01*
X340280D01*
X340936Y40448D01*
Y39136D01*
X340280Y38480D01*
X336344Y42415D02*
Y45039D01*
X340280Y48975D02*
X340936Y48319D01*
Y47007D01*
X340280Y46351D01*
X339624D01*
X338968Y47007D01*
Y48319D01*
X338312Y48975D01*
X337656D01*
X337000Y48319D01*
Y47007D01*
X337656Y46351D01*
X337000Y50287D02*
Y51599D01*
Y50943D01*
X340936D01*
X340280Y50287D01*
X337000Y55535D02*
X340936D01*
X338968Y53567D01*
Y56191D01*
X61040Y237576D02*
Y238888D01*
Y238232D01*
X64320D01*
X64976Y238888D01*
Y239544D01*
X64320Y240200D01*
X64976Y236264D02*
X61040D01*
Y234296D01*
X61696Y233640D01*
X63008D01*
X63664Y234296D01*
Y236264D01*
X61696Y232329D02*
X61040Y231673D01*
Y230361D01*
X61696Y229705D01*
X62352D01*
X63008Y230361D01*
Y231017D01*
Y230361D01*
X63664Y229705D01*
X64320D01*
X64976Y230361D01*
Y231673D01*
X64320Y232329D01*
X65632Y228393D02*
Y225769D01*
X61696Y221833D02*
X61040Y222489D01*
Y223801D01*
X61696Y224457D01*
X62352D01*
X63008Y223801D01*
Y222489D01*
X63664Y221833D01*
X64320D01*
X64976Y222489D01*
Y223801D01*
X64320Y224457D01*
X64976Y220521D02*
Y219209D01*
Y219865D01*
X61040D01*
X61696Y220521D01*
X107040Y238888D02*
Y240200D01*
Y239544D01*
X110320D01*
X110976Y240200D01*
Y240856D01*
X110320Y241512D01*
X110976Y237576D02*
X107040D01*
Y235608D01*
X107696Y234952D01*
X109008D01*
X109664Y235608D01*
Y237576D01*
X107696Y233640D02*
X107040Y232984D01*
Y231673D01*
X107696Y231017D01*
X108352D01*
X109008Y231673D01*
Y232329D01*
Y231673D01*
X109664Y231017D01*
X110320D01*
X110976Y231673D01*
Y232984D01*
X110320Y233640D01*
X111632Y229705D02*
Y227081D01*
X107696Y223145D02*
X107040Y223801D01*
Y225113D01*
X107696Y225769D01*
X108352D01*
X109008Y225113D01*
Y223801D01*
X109664Y223145D01*
X110320D01*
X110976Y223801D01*
Y225113D01*
X110320Y225769D01*
X110976Y219209D02*
Y221833D01*
X108352Y219209D01*
X107696D01*
X107040Y219865D01*
Y221177D01*
X107696Y221833D01*
X153088Y238888D02*
Y240200D01*
Y239544D01*
X156368D01*
X157024Y240200D01*
Y240856D01*
X156368Y241512D01*
X157024Y237576D02*
X153088D01*
Y235608D01*
X153744Y234952D01*
X155056D01*
X155712Y235608D01*
Y237576D01*
X153744Y233640D02*
X153088Y232984D01*
Y231673D01*
X153744Y231017D01*
X154400D01*
X155056Y231673D01*
Y232329D01*
Y231673D01*
X155712Y231017D01*
X156368D01*
X157024Y231673D01*
Y232984D01*
X156368Y233640D01*
X157680Y229705D02*
Y227081D01*
X153744Y223145D02*
X153088Y223801D01*
Y225113D01*
X153744Y225769D01*
X154400D01*
X155056Y225113D01*
Y223801D01*
X155712Y223145D01*
X156368D01*
X157024Y223801D01*
Y225113D01*
X156368Y225769D01*
X153744Y221833D02*
X153088Y221177D01*
Y219865D01*
X153744Y219209D01*
X154400D01*
X155056Y219865D01*
Y220521D01*
Y219865D01*
X155712Y219209D01*
X156368D01*
X157024Y219865D01*
Y221177D01*
X156368Y221833D01*
X199088Y238888D02*
Y240200D01*
Y239544D01*
X202368D01*
X203024Y240200D01*
Y240856D01*
X202368Y241512D01*
X203024Y237576D02*
X199088D01*
Y235608D01*
X199744Y234952D01*
X201056D01*
X201712Y235608D01*
Y237576D01*
X199744Y233640D02*
X199088Y232984D01*
Y231673D01*
X199744Y231017D01*
X200400D01*
X201056Y231673D01*
Y232329D01*
Y231673D01*
X201712Y231017D01*
X202368D01*
X203024Y231673D01*
Y232984D01*
X202368Y233640D01*
X203680Y229705D02*
Y227081D01*
X199744Y223145D02*
X199088Y223801D01*
Y225113D01*
X199744Y225769D01*
X200400D01*
X201056Y225113D01*
Y223801D01*
X201712Y223145D01*
X202368D01*
X203024Y223801D01*
Y225113D01*
X202368Y225769D01*
X203024Y219865D02*
X199088D01*
X201056Y221833D01*
Y219209D01*
X245040Y238888D02*
Y240200D01*
Y239544D01*
X248320D01*
X248976Y240200D01*
Y240856D01*
X248320Y241512D01*
X248976Y237576D02*
X245040D01*
Y235608D01*
X245696Y234952D01*
X247008D01*
X247664Y235608D01*
Y237576D01*
X245696Y233640D02*
X245040Y232984D01*
Y231673D01*
X245696Y231017D01*
X246352D01*
X247008Y231673D01*
Y232329D01*
Y231673D01*
X247664Y231017D01*
X248320D01*
X248976Y231673D01*
Y232984D01*
X248320Y233640D01*
X249632Y229705D02*
Y227081D01*
X245696Y223145D02*
X245040Y223801D01*
Y225113D01*
X245696Y225769D01*
X246352D01*
X247008Y225113D01*
Y223801D01*
X247664Y223145D01*
X248320D01*
X248976Y223801D01*
Y225113D01*
X248320Y225769D01*
X245040Y219209D02*
Y221833D01*
X247008D01*
X246352Y220521D01*
Y219865D01*
X247008Y219209D01*
X248320D01*
X248976Y219865D01*
Y221177D01*
X248320Y221833D01*
X291088Y238888D02*
Y240200D01*
Y239544D01*
X294368D01*
X295024Y240200D01*
Y240856D01*
X294368Y241512D01*
X295024Y237576D02*
X291088D01*
Y235608D01*
X291744Y234952D01*
X293056D01*
X293712Y235608D01*
Y237576D01*
X291744Y233640D02*
X291088Y232984D01*
Y231673D01*
X291744Y231017D01*
X292400D01*
X293056Y231673D01*
Y232329D01*
Y231673D01*
X293712Y231017D01*
X294368D01*
X295024Y231673D01*
Y232984D01*
X294368Y233640D01*
X295680Y229705D02*
Y227081D01*
X291744Y223145D02*
X291088Y223801D01*
Y225113D01*
X291744Y225769D01*
X292400D01*
X293056Y225113D01*
Y223801D01*
X293712Y223145D01*
X294368D01*
X295024Y223801D01*
Y225113D01*
X294368Y225769D01*
X291088Y219209D02*
X291744Y220521D01*
X293056Y221833D01*
X294368D01*
X295024Y221177D01*
Y219865D01*
X294368Y219209D01*
X293712D01*
X293056Y219865D01*
Y221833D01*
X337088Y238888D02*
Y240200D01*
Y239544D01*
X340368D01*
X341024Y240200D01*
Y240856D01*
X340368Y241512D01*
X341024Y237576D02*
X337088D01*
Y235608D01*
X337744Y234952D01*
X339056D01*
X339712Y235608D01*
Y237576D01*
X337744Y233640D02*
X337088Y232984D01*
Y231673D01*
X337744Y231017D01*
X338400D01*
X339056Y231673D01*
Y232329D01*
Y231673D01*
X339712Y231017D01*
X340368D01*
X341024Y231673D01*
Y232984D01*
X340368Y233640D01*
X341680Y229705D02*
Y227081D01*
X337744Y223145D02*
X337088Y223801D01*
Y225113D01*
X337744Y225769D01*
X338400D01*
X339056Y225113D01*
Y223801D01*
X339712Y223145D01*
X340368D01*
X341024Y223801D01*
Y225113D01*
X340368Y225769D01*
X337088Y221833D02*
Y219209D01*
X337744D01*
X340368Y221833D01*
X341024D01*
X53036Y36512D02*
Y35200D01*
Y35856D01*
X49756D01*
X49100Y35200D01*
Y34544D01*
X49756Y33888D01*
X49100Y37824D02*
X53036D01*
Y39792D01*
X52380Y40448D01*
X51068D01*
X50412Y39792D01*
Y37824D01*
X52380Y41760D02*
X53036Y42415D01*
Y43727D01*
X52380Y44383D01*
X51724D01*
X51068Y43727D01*
Y43071D01*
Y43727D01*
X50412Y44383D01*
X49756D01*
X49100Y43727D01*
Y42415D01*
X49756Y41760D01*
X48444Y45695D02*
Y48319D01*
X52380Y52255D02*
X53036Y51599D01*
Y50287D01*
X52380Y49631D01*
X51724D01*
X51068Y50287D01*
Y51599D01*
X50412Y52255D01*
X49756D01*
X49100Y51599D01*
Y50287D01*
X49756Y49631D01*
X52380Y53567D02*
X53036Y54223D01*
Y55535D01*
X52380Y56191D01*
X51724D01*
X51068Y55535D01*
X50412Y56191D01*
X49756D01*
X49100Y55535D01*
Y54223D01*
X49756Y53567D01*
X50412D01*
X51068Y54223D01*
X51724Y53567D01*
X52380D01*
X51068Y54223D02*
Y55535D01*
X99036Y36512D02*
Y35200D01*
Y35856D01*
X95756D01*
X95100Y35200D01*
Y34544D01*
X95756Y33888D01*
X95100Y37824D02*
X99036D01*
Y39792D01*
X98380Y40448D01*
X97068D01*
X96412Y39792D01*
Y37824D01*
X98380Y41760D02*
X99036Y42415D01*
Y43727D01*
X98380Y44383D01*
X97724D01*
X97068Y43727D01*
Y43071D01*
Y43727D01*
X96412Y44383D01*
X95756D01*
X95100Y43727D01*
Y42415D01*
X95756Y41760D01*
X94444Y45695D02*
Y48319D01*
X98380Y52255D02*
X99036Y51599D01*
Y50287D01*
X98380Y49631D01*
X97724D01*
X97068Y50287D01*
Y51599D01*
X96412Y52255D01*
X95756D01*
X95100Y51599D01*
Y50287D01*
X95756Y49631D01*
Y53567D02*
X95100Y54223D01*
Y55535D01*
X95756Y56191D01*
X98380D01*
X99036Y55535D01*
Y54223D01*
X98380Y53567D01*
X97724D01*
X97068Y54223D01*
Y56191D01*
X144936Y33332D02*
Y32020D01*
Y32676D01*
X141656D01*
X141000Y32020D01*
Y31364D01*
X141656Y30708D01*
X141000Y34644D02*
X144936D01*
Y36612D01*
X144280Y37268D01*
X142968D01*
X142312Y36612D01*
Y34644D01*
X144280Y38580D02*
X144936Y39236D01*
Y40548D01*
X144280Y41204D01*
X143624D01*
X142968Y40548D01*
Y39892D01*
Y40548D01*
X142312Y41204D01*
X141656D01*
X141000Y40548D01*
Y39236D01*
X141656Y38580D01*
X140344Y42516D02*
Y45139D01*
X144280Y49075D02*
X144936Y48419D01*
Y47107D01*
X144280Y46451D01*
X143624D01*
X142968Y47107D01*
Y48419D01*
X142312Y49075D01*
X141656D01*
X141000Y48419D01*
Y47107D01*
X141656Y46451D01*
X141000Y50387D02*
Y51699D01*
Y51043D01*
X144936D01*
X144280Y50387D01*
Y53667D02*
X144936Y54323D01*
Y55635D01*
X144280Y56291D01*
X141656D01*
X141000Y55635D01*
Y54323D01*
X141656Y53667D01*
X144280D01*
X190836Y34444D02*
Y33132D01*
Y33788D01*
X187556D01*
X186900Y33132D01*
Y32476D01*
X187556Y31820D01*
X186900Y35756D02*
X190836D01*
Y37724D01*
X190180Y38380D01*
X188868D01*
X188212Y37724D01*
Y35756D01*
X190180Y39692D02*
X190836Y40348D01*
Y41660D01*
X190180Y42316D01*
X189524D01*
X188868Y41660D01*
Y41004D01*
Y41660D01*
X188212Y42316D01*
X187556D01*
X186900Y41660D01*
Y40348D01*
X187556Y39692D01*
X186244Y43627D02*
Y46251D01*
X190180Y50187D02*
X190836Y49531D01*
Y48219D01*
X190180Y47563D01*
X189524D01*
X188868Y48219D01*
Y49531D01*
X188212Y50187D01*
X187556D01*
X186900Y49531D01*
Y48219D01*
X187556Y47563D01*
X186900Y51499D02*
Y52811D01*
Y52155D01*
X190836D01*
X190180Y51499D01*
X186900Y54779D02*
Y56091D01*
Y55435D01*
X190836D01*
X190180Y54779D01*
X236936Y33232D02*
Y31920D01*
Y32576D01*
X233656D01*
X233000Y31920D01*
Y31264D01*
X233656Y30608D01*
X233000Y34544D02*
X236936D01*
Y36512D01*
X236280Y37168D01*
X234968D01*
X234312Y36512D01*
Y34544D01*
X236280Y38480D02*
X236936Y39136D01*
Y40448D01*
X236280Y41104D01*
X235624D01*
X234968Y40448D01*
Y39792D01*
Y40448D01*
X234312Y41104D01*
X233656D01*
X233000Y40448D01*
Y39136D01*
X233656Y38480D01*
X232344Y42415D02*
Y45039D01*
X236280Y48975D02*
X236936Y48319D01*
Y47007D01*
X236280Y46351D01*
X235624D01*
X234968Y47007D01*
Y48319D01*
X234312Y48975D01*
X233656D01*
X233000Y48319D01*
Y47007D01*
X233656Y46351D01*
X233000Y50287D02*
Y51599D01*
Y50943D01*
X236936D01*
X236280Y50287D01*
X233000Y56191D02*
Y53567D01*
X235624Y56191D01*
X236280D01*
X236936Y55535D01*
Y54223D01*
X236280Y53567D01*
X283436Y33132D02*
Y31820D01*
Y32476D01*
X280156D01*
X279500Y31820D01*
Y31164D01*
X280156Y30508D01*
X279500Y34444D02*
X283436D01*
Y36412D01*
X282780Y37068D01*
X281468D01*
X280812Y36412D01*
Y34444D01*
X282780Y38380D02*
X283436Y39036D01*
Y40348D01*
X282780Y41004D01*
X282124D01*
X281468Y40348D01*
Y39692D01*
Y40348D01*
X280812Y41004D01*
X280156D01*
X279500Y40348D01*
Y39036D01*
X280156Y38380D01*
X278844Y42316D02*
Y44939D01*
X282780Y48875D02*
X283436Y48219D01*
Y46907D01*
X282780Y46251D01*
X282124D01*
X281468Y46907D01*
Y48219D01*
X280812Y48875D01*
X280156D01*
X279500Y48219D01*
Y46907D01*
X280156Y46251D01*
X279500Y50187D02*
Y51499D01*
Y50843D01*
X283436D01*
X282780Y50187D01*
Y53467D02*
X283436Y54123D01*
Y55435D01*
X282780Y56091D01*
X282124D01*
X281468Y55435D01*
Y54779D01*
Y55435D01*
X280812Y56091D01*
X280156D01*
X279500Y55435D01*
Y54123D01*
X280156Y53467D01*
X329036Y33232D02*
Y31920D01*
Y32576D01*
X325756D01*
X325100Y31920D01*
Y31264D01*
X325756Y30608D01*
X325100Y34544D02*
X329036D01*
Y36512D01*
X328380Y37168D01*
X327068D01*
X326412Y36512D01*
Y34544D01*
X328380Y38480D02*
X329036Y39136D01*
Y40448D01*
X328380Y41104D01*
X327724D01*
X327068Y40448D01*
Y39792D01*
Y40448D01*
X326412Y41104D01*
X325756D01*
X325100Y40448D01*
Y39136D01*
X325756Y38480D01*
X324444Y42415D02*
Y45039D01*
X328380Y48975D02*
X329036Y48319D01*
Y47007D01*
X328380Y46351D01*
X327724D01*
X327068Y47007D01*
Y48319D01*
X326412Y48975D01*
X325756D01*
X325100Y48319D01*
Y47007D01*
X325756Y46351D01*
X325100Y50287D02*
Y51599D01*
Y50943D01*
X329036D01*
X328380Y50287D01*
X325100Y55535D02*
X329036D01*
X327068Y53567D01*
Y56191D01*
X70040Y237576D02*
Y238888D01*
Y238232D01*
X73320D01*
X73976Y238888D01*
Y239544D01*
X73320Y240200D01*
X73976Y236264D02*
X70040D01*
Y234296D01*
X70696Y233640D01*
X72008D01*
X72664Y234296D01*
Y236264D01*
X73976Y230361D02*
X70040D01*
X72008Y232329D01*
Y229705D01*
X74632Y228393D02*
Y225769D01*
X70696Y221833D02*
X70040Y222489D01*
Y223801D01*
X70696Y224457D01*
X71352D01*
X72008Y223801D01*
Y222489D01*
X72664Y221833D01*
X73320D01*
X73976Y222489D01*
Y223801D01*
X73320Y224457D01*
X73976Y220521D02*
Y219209D01*
Y219865D01*
X70040D01*
X70696Y220521D01*
X116040Y238888D02*
Y240200D01*
Y239544D01*
X119320D01*
X119976Y240200D01*
Y240856D01*
X119320Y241512D01*
X119976Y237576D02*
X116040D01*
Y235608D01*
X116696Y234952D01*
X118008D01*
X118664Y235608D01*
Y237576D01*
X119976Y231673D02*
X116040D01*
X118008Y233640D01*
Y231017D01*
X120632Y229705D02*
Y227081D01*
X116696Y223145D02*
X116040Y223801D01*
Y225113D01*
X116696Y225769D01*
X117352D01*
X118008Y225113D01*
Y223801D01*
X118664Y223145D01*
X119320D01*
X119976Y223801D01*
Y225113D01*
X119320Y225769D01*
X119976Y219209D02*
Y221833D01*
X117352Y219209D01*
X116696D01*
X116040Y219865D01*
Y221177D01*
X116696Y221833D01*
X162088Y238888D02*
Y240200D01*
Y239544D01*
X165368D01*
X166024Y240200D01*
Y240856D01*
X165368Y241512D01*
X166024Y237576D02*
X162088D01*
Y235608D01*
X162744Y234952D01*
X164056D01*
X164712Y235608D01*
Y237576D01*
X166024Y231673D02*
X162088D01*
X164056Y233640D01*
Y231017D01*
X166680Y229705D02*
Y227081D01*
X162744Y223145D02*
X162088Y223801D01*
Y225113D01*
X162744Y225769D01*
X163400D01*
X164056Y225113D01*
Y223801D01*
X164712Y223145D01*
X165368D01*
X166024Y223801D01*
Y225113D01*
X165368Y225769D01*
X162744Y221833D02*
X162088Y221177D01*
Y219865D01*
X162744Y219209D01*
X163400D01*
X164056Y219865D01*
Y220521D01*
Y219865D01*
X164712Y219209D01*
X165368D01*
X166024Y219865D01*
Y221177D01*
X165368Y221833D01*
X208088Y238888D02*
Y240200D01*
Y239544D01*
X211368D01*
X212024Y240200D01*
Y240856D01*
X211368Y241512D01*
X212024Y237576D02*
X208088D01*
Y235608D01*
X208744Y234952D01*
X210056D01*
X210712Y235608D01*
Y237576D01*
X212024Y231673D02*
X208088D01*
X210056Y233640D01*
Y231017D01*
X212680Y229705D02*
Y227081D01*
X208744Y223145D02*
X208088Y223801D01*
Y225113D01*
X208744Y225769D01*
X209400D01*
X210056Y225113D01*
Y223801D01*
X210712Y223145D01*
X211368D01*
X212024Y223801D01*
Y225113D01*
X211368Y225769D01*
X212024Y219865D02*
X208088D01*
X210056Y221833D01*
Y219209D01*
X254040Y238888D02*
Y240200D01*
Y239544D01*
X257320D01*
X257976Y240200D01*
Y240856D01*
X257320Y241512D01*
X257976Y237576D02*
X254040D01*
Y235608D01*
X254696Y234952D01*
X256008D01*
X256664Y235608D01*
Y237576D01*
X257976Y231673D02*
X254040D01*
X256008Y233640D01*
Y231017D01*
X258632Y229705D02*
Y227081D01*
X254696Y223145D02*
X254040Y223801D01*
Y225113D01*
X254696Y225769D01*
X255352D01*
X256008Y225113D01*
Y223801D01*
X256664Y223145D01*
X257320D01*
X257976Y223801D01*
Y225113D01*
X257320Y225769D01*
X254040Y219209D02*
Y221833D01*
X256008D01*
X255352Y220521D01*
Y219865D01*
X256008Y219209D01*
X257320D01*
X257976Y219865D01*
Y221177D01*
X257320Y221833D01*
X300088Y238888D02*
Y240200D01*
Y239544D01*
X303368D01*
X304024Y240200D01*
Y240856D01*
X303368Y241512D01*
X304024Y237576D02*
X300088D01*
Y235608D01*
X300744Y234952D01*
X302056D01*
X302712Y235608D01*
Y237576D01*
X304024Y231673D02*
X300088D01*
X302056Y233640D01*
Y231017D01*
X304680Y229705D02*
Y227081D01*
X300744Y223145D02*
X300088Y223801D01*
Y225113D01*
X300744Y225769D01*
X301400D01*
X302056Y225113D01*
Y223801D01*
X302712Y223145D01*
X303368D01*
X304024Y223801D01*
Y225113D01*
X303368Y225769D01*
X300088Y219209D02*
X300744Y220521D01*
X302056Y221833D01*
X303368D01*
X304024Y221177D01*
Y219865D01*
X303368Y219209D01*
X302712D01*
X302056Y219865D01*
Y221833D01*
X346088Y238888D02*
Y240200D01*
Y239544D01*
X349368D01*
X350024Y240200D01*
Y240856D01*
X349368Y241512D01*
X350024Y237576D02*
X346088D01*
Y235608D01*
X346744Y234952D01*
X348056D01*
X348712Y235608D01*
Y237576D01*
X350024Y231673D02*
X346088D01*
X348056Y233640D01*
Y231017D01*
X350680Y229705D02*
Y227081D01*
X346744Y223145D02*
X346088Y223801D01*
Y225113D01*
X346744Y225769D01*
X347400D01*
X348056Y225113D01*
Y223801D01*
X348712Y223145D01*
X349368D01*
X350024Y223801D01*
Y225113D01*
X349368Y225769D01*
X346088Y221833D02*
Y219209D01*
X346744D01*
X349368Y221833D01*
X350024D01*
X44036Y36512D02*
Y35200D01*
Y35856D01*
X40756D01*
X40100Y35200D01*
Y34544D01*
X40756Y33888D01*
X40100Y37824D02*
X44036D01*
Y39792D01*
X43380Y40448D01*
X42068D01*
X41412Y39792D01*
Y37824D01*
X40100Y43727D02*
X44036D01*
X42068Y41760D01*
Y44383D01*
X39444Y45695D02*
Y48319D01*
X43380Y52255D02*
X44036Y51599D01*
Y50287D01*
X43380Y49631D01*
X42724D01*
X42068Y50287D01*
Y51599D01*
X41412Y52255D01*
X40756D01*
X40100Y51599D01*
Y50287D01*
X40756Y49631D01*
X43380Y53567D02*
X44036Y54223D01*
Y55535D01*
X43380Y56191D01*
X42724D01*
X42068Y55535D01*
X41412Y56191D01*
X40756D01*
X40100Y55535D01*
Y54223D01*
X40756Y53567D01*
X41412D01*
X42068Y54223D01*
X42724Y53567D01*
X43380D01*
X42068Y54223D02*
Y55535D01*
X90036Y36512D02*
Y35200D01*
Y35856D01*
X86756D01*
X86100Y35200D01*
Y34544D01*
X86756Y33888D01*
X86100Y37824D02*
X90036D01*
Y39792D01*
X89380Y40448D01*
X88068D01*
X87412Y39792D01*
Y37824D01*
X86100Y43727D02*
X90036D01*
X88068Y41760D01*
Y44383D01*
X85444Y45695D02*
Y48319D01*
X89380Y52255D02*
X90036Y51599D01*
Y50287D01*
X89380Y49631D01*
X88724D01*
X88068Y50287D01*
Y51599D01*
X87412Y52255D01*
X86756D01*
X86100Y51599D01*
Y50287D01*
X86756Y49631D01*
Y53567D02*
X86100Y54223D01*
Y55535D01*
X86756Y56191D01*
X89380D01*
X90036Y55535D01*
Y54223D01*
X89380Y53567D01*
X88724D01*
X88068Y54223D01*
Y56191D01*
X135936Y33332D02*
Y32020D01*
Y32676D01*
X132656D01*
X132000Y32020D01*
Y31364D01*
X132656Y30708D01*
X132000Y34644D02*
X135936D01*
Y36612D01*
X135280Y37268D01*
X133968D01*
X133312Y36612D01*
Y34644D01*
X132000Y40548D02*
X135936D01*
X133968Y38580D01*
Y41204D01*
X131344Y42516D02*
Y45139D01*
X135280Y49075D02*
X135936Y48419D01*
Y47107D01*
X135280Y46451D01*
X134624D01*
X133968Y47107D01*
Y48419D01*
X133312Y49075D01*
X132656D01*
X132000Y48419D01*
Y47107D01*
X132656Y46451D01*
X132000Y50387D02*
Y51699D01*
Y51043D01*
X135936D01*
X135280Y50387D01*
Y53667D02*
X135936Y54323D01*
Y55635D01*
X135280Y56291D01*
X132656D01*
X132000Y55635D01*
Y54323D01*
X132656Y53667D01*
X135280D01*
X181836Y34444D02*
Y33132D01*
Y33788D01*
X178556D01*
X177900Y33132D01*
Y32476D01*
X178556Y31820D01*
X177900Y35756D02*
X181836D01*
Y37724D01*
X181180Y38380D01*
X179868D01*
X179212Y37724D01*
Y35756D01*
X177900Y41660D02*
X181836D01*
X179868Y39692D01*
Y42316D01*
X177244Y43627D02*
Y46251D01*
X181180Y50187D02*
X181836Y49531D01*
Y48219D01*
X181180Y47563D01*
X180524D01*
X179868Y48219D01*
Y49531D01*
X179212Y50187D01*
X178556D01*
X177900Y49531D01*
Y48219D01*
X178556Y47563D01*
X177900Y51499D02*
Y52811D01*
Y52155D01*
X181836D01*
X181180Y51499D01*
X177900Y54779D02*
Y56091D01*
Y55435D01*
X181836D01*
X181180Y54779D01*
X227936Y33232D02*
Y31920D01*
Y32576D01*
X224656D01*
X224000Y31920D01*
Y31264D01*
X224656Y30608D01*
X224000Y34544D02*
X227936D01*
Y36512D01*
X227280Y37168D01*
X225968D01*
X225312Y36512D01*
Y34544D01*
X224000Y40448D02*
X227936D01*
X225968Y38480D01*
Y41104D01*
X223344Y42415D02*
Y45039D01*
X227280Y48975D02*
X227936Y48319D01*
Y47007D01*
X227280Y46351D01*
X226624D01*
X225968Y47007D01*
Y48319D01*
X225312Y48975D01*
X224656D01*
X224000Y48319D01*
Y47007D01*
X224656Y46351D01*
X224000Y50287D02*
Y51599D01*
Y50943D01*
X227936D01*
X227280Y50287D01*
X224000Y56191D02*
Y53567D01*
X226624Y56191D01*
X227280D01*
X227936Y55535D01*
Y54223D01*
X227280Y53567D01*
X274436Y33132D02*
Y31820D01*
Y32476D01*
X271156D01*
X270500Y31820D01*
Y31164D01*
X271156Y30508D01*
X270500Y34444D02*
X274436D01*
Y36412D01*
X273780Y37068D01*
X272468D01*
X271812Y36412D01*
Y34444D01*
X270500Y40348D02*
X274436D01*
X272468Y38380D01*
Y41004D01*
X269844Y42316D02*
Y44939D01*
X273780Y48875D02*
X274436Y48219D01*
Y46907D01*
X273780Y46251D01*
X273124D01*
X272468Y46907D01*
Y48219D01*
X271812Y48875D01*
X271156D01*
X270500Y48219D01*
Y46907D01*
X271156Y46251D01*
X270500Y50187D02*
Y51499D01*
Y50843D01*
X274436D01*
X273780Y50187D01*
Y53467D02*
X274436Y54123D01*
Y55435D01*
X273780Y56091D01*
X273124D01*
X272468Y55435D01*
Y54779D01*
Y55435D01*
X271812Y56091D01*
X271156D01*
X270500Y55435D01*
Y54123D01*
X271156Y53467D01*
X320036Y33232D02*
Y31920D01*
Y32576D01*
X316756D01*
X316100Y31920D01*
Y31264D01*
X316756Y30608D01*
X316100Y34544D02*
X320036D01*
Y36512D01*
X319380Y37168D01*
X318068D01*
X317412Y36512D01*
Y34544D01*
X316100Y40448D02*
X320036D01*
X318068Y38480D01*
Y41104D01*
X315444Y42415D02*
Y45039D01*
X319380Y48975D02*
X320036Y48319D01*
Y47007D01*
X319380Y46351D01*
X318724D01*
X318068Y47007D01*
Y48319D01*
X317412Y48975D01*
X316756D01*
X316100Y48319D01*
Y47007D01*
X316756Y46351D01*
X316100Y50287D02*
Y51599D01*
Y50943D01*
X320036D01*
X319380Y50287D01*
X316100Y55535D02*
X320036D01*
X318068Y53567D01*
Y56191D01*
X52624Y164720D02*
X51968Y164064D01*
X50656D01*
X50000Y164720D01*
Y165376D01*
X50656Y166032D01*
X51968D01*
X52624Y166688D01*
Y167344D01*
X51968Y168000D01*
X50656D01*
X50000Y167344D01*
X56560Y164720D02*
X55904Y164064D01*
X54592D01*
X53936Y164720D01*
Y167344D01*
X54592Y168000D01*
X55904D01*
X56560Y167344D01*
X57872Y164064D02*
Y168000D01*
X60495D01*
X61807D02*
X63119D01*
X62463D01*
Y164064D01*
X61807Y164720D01*
X52624Y152720D02*
X51968Y152064D01*
X50656D01*
X50000Y152720D01*
Y153376D01*
X50656Y154032D01*
X51968D01*
X52624Y154688D01*
Y155344D01*
X51968Y156000D01*
X50656D01*
X50000Y155344D01*
X53936Y152064D02*
Y156000D01*
X55904D01*
X56560Y155344D01*
Y152720D01*
X55904Y152064D01*
X53936D01*
X57872Y156000D02*
Y153376D01*
X59183Y152064D01*
X60495Y153376D01*
Y156000D01*
Y154032D01*
X57872D01*
X61807Y156000D02*
X63119D01*
X62463D01*
Y152064D01*
X61807Y152720D01*
X52624Y140720D02*
X51968Y140064D01*
X50656D01*
X50000Y140720D01*
Y141376D01*
X50656Y142032D01*
X51968D01*
X52624Y142688D01*
Y143344D01*
X51968Y144000D01*
X50656D01*
X50000Y143344D01*
X56560Y140720D02*
X55904Y140064D01*
X54592D01*
X53936Y140720D01*
Y143344D01*
X54592Y144000D01*
X55904D01*
X56560Y143344D01*
X57872Y140064D02*
Y144000D01*
X60495D01*
X64431D02*
X61807D01*
X64431Y141376D01*
Y140720D01*
X63775Y140064D01*
X62463D01*
X61807Y140720D01*
X52624Y128720D02*
X51968Y128064D01*
X50656D01*
X50000Y128720D01*
Y129376D01*
X50656Y130032D01*
X51968D01*
X52624Y130688D01*
Y131344D01*
X51968Y132000D01*
X50656D01*
X50000Y131344D01*
X53936Y128064D02*
Y132000D01*
X55904D01*
X56560Y131344D01*
Y128720D01*
X55904Y128064D01*
X53936D01*
X57872Y132000D02*
Y129376D01*
X59183Y128064D01*
X60495Y129376D01*
Y132000D01*
Y130032D01*
X57872D01*
X64431Y132000D02*
X61807D01*
X64431Y129376D01*
Y128720D01*
X63775Y128064D01*
X62463D01*
X61807Y128720D01*
X52624Y116720D02*
X51968Y116064D01*
X50656D01*
X50000Y116720D01*
Y119344D01*
X50656Y120000D01*
X51968D01*
X52624Y119344D01*
Y118032D01*
X51312D01*
X53936Y120000D02*
Y116064D01*
X56560Y120000D01*
Y116064D01*
X57872D02*
Y120000D01*
X59839D01*
X60495Y119344D01*
Y116720D01*
X59839Y116064D01*
X57872D01*
X61807Y120000D02*
X63119D01*
X62463D01*
Y116064D01*
X61807Y116720D01*
X52624Y104720D02*
X51968Y104064D01*
X50656D01*
X50000Y104720D01*
Y107344D01*
X50656Y108000D01*
X51968D01*
X52624Y107344D01*
Y106032D01*
X51312D01*
X53936Y108000D02*
Y104064D01*
X56560Y108000D01*
Y104064D01*
X57872D02*
Y108000D01*
X59839D01*
X60495Y107344D01*
Y104720D01*
X59839Y104064D01*
X57872D01*
X64431Y108000D02*
X61807D01*
X64431Y105376D01*
Y104720D01*
X63775Y104064D01*
X62463D01*
X61807Y104720D01*
D48*
X47150Y150063D02*
X47788Y150490D01*
X47937Y151244D01*
X40063D02*
X40212Y150490D01*
X40850Y150063D01*
Y157937D02*
X40212Y157510D01*
X40063Y156756D01*
X47937D02*
X47788Y157510D01*
X47150Y157937D01*
X40850Y145937D02*
X40212Y145510D01*
X40063Y144756D01*
X47937D02*
X47788Y145510D01*
X47150Y145937D01*
Y138063D02*
X47788Y138490D01*
X47937Y139244D01*
X40063D02*
X40212Y138490D01*
X40850Y138063D01*
X47150Y162063D02*
X47788Y162490D01*
X47937Y163244D01*
X40063D02*
X40212Y162490D01*
X40850Y162063D01*
Y169937D02*
X40212Y169509D01*
X40063Y168756D01*
X47937D02*
X47788Y169509D01*
X47150Y169937D01*
Y126063D02*
X47788Y126490D01*
X47937Y127244D01*
X40063D02*
X40212Y126490D01*
X40850Y126063D01*
Y133937D02*
X40212Y133510D01*
X40063Y132756D01*
X47937D02*
X47788Y133510D01*
X47150Y133937D01*
Y114063D02*
X47788Y114490D01*
X47937Y115244D01*
X40063D02*
X40212Y114490D01*
X40850Y114063D01*
Y121937D02*
X40212Y121510D01*
X40063Y120756D01*
X47937D02*
X47788Y121510D01*
X47150Y121937D01*
Y102063D02*
X47788Y102490D01*
X47937Y103244D01*
X40063D02*
X40212Y102490D01*
X40850Y102063D01*
Y109937D02*
X40212Y109510D01*
X40063Y108756D01*
X47937D02*
X47788Y109510D01*
X47150Y109937D01*
X40850Y157937D02*
X47150D01*
X40850Y150063D02*
X47150D01*
X40850Y138063D02*
X47150D01*
X40850Y145937D02*
X47150D01*
X40850Y169937D02*
X47150D01*
X40850Y162063D02*
X47150D01*
X40850Y133937D02*
X47150D01*
X40850Y126063D02*
X47150D01*
X40850Y121937D02*
X47150D01*
X40850Y114063D02*
X47150D01*
X40850Y109937D02*
X47150D01*
X40850Y102063D02*
X47150D01*
X10000Y199000D02*
Y200666D01*
Y199833D01*
X14998D01*
X14165Y199000D01*
X20000Y201332D02*
Y198000D01*
X23332Y201332D01*
X24165D01*
X24998Y200499D01*
Y198833D01*
X24165Y198000D01*
X14998Y152500D02*
Y155832D01*
X14165D01*
X10833Y152500D01*
X10000D01*
X23665D02*
X24498Y153333D01*
Y154999D01*
X23665Y155832D01*
X22832D01*
X21999Y154999D01*
X21166Y155832D01*
X20333D01*
X19500Y154999D01*
Y153333D01*
X20333Y152500D01*
X21166D01*
X21999Y153333D01*
X22832Y152500D01*
X23665D01*
X21999Y153333D02*
Y154999D01*
X10000Y125000D02*
Y126666D01*
Y125833D01*
X14998D01*
X14165Y125000D01*
X20000Y127332D02*
Y124000D01*
X23332Y127332D01*
X24165D01*
X24998Y126499D01*
Y124833D01*
X24165Y124000D01*
X14998Y78500D02*
Y81832D01*
X14165D01*
X10833Y78500D01*
X10000D01*
X23665D02*
X24498Y79333D01*
Y80999D01*
X23665Y81832D01*
X22832D01*
X21999Y80999D01*
X21166Y81832D01*
X20333D01*
X19500Y80999D01*
Y79333D01*
X20333Y78500D01*
X21166D01*
X21999Y79333D01*
X22832Y78500D01*
X23665D01*
X21999Y79333D02*
Y80999D01*
D49*
X67976Y207000D02*
X68269Y206293D01*
X68976Y206000D01*
Y218000D02*
X68269Y217707D01*
X67976Y217000D01*
X75976D02*
X75683Y217707D01*
X74976Y218000D01*
Y206000D02*
X75683Y206293D01*
X75976Y207000D01*
X46976D02*
X47269Y206293D01*
X47976Y206000D01*
Y218000D02*
X47269Y217707D01*
X46976Y217000D01*
X54976D02*
X54683Y217707D01*
X53976Y218000D01*
Y206000D02*
X54683Y206293D01*
X54976Y207000D01*
X58976D02*
X59269Y206293D01*
X59976Y206000D01*
Y218000D02*
X59269Y217707D01*
X58976Y217000D01*
X66976D02*
X66683Y217707D01*
X65976Y218000D01*
Y206000D02*
X66683Y206293D01*
X66976Y207000D01*
X37976Y206800D02*
X38269Y206093D01*
X38976Y205800D01*
Y217800D02*
X38269Y217507D01*
X37976Y216800D01*
X45976D02*
X45683Y217507D01*
X44976Y217800D01*
Y205800D02*
X45683Y206093D01*
X45976Y206800D01*
X113976Y207000D02*
X114269Y206293D01*
X114976Y206000D01*
Y218000D02*
X114269Y217707D01*
X113976Y217000D01*
X121976D02*
X121683Y217707D01*
X120976Y218000D01*
Y206000D02*
X121683Y206293D01*
X121976Y207000D01*
X104976D02*
X105269Y206293D01*
X105976Y206000D01*
Y218000D02*
X105269Y217707D01*
X104976Y217000D01*
X112976D02*
X112683Y217707D01*
X111976Y218000D01*
Y206000D02*
X112683Y206293D01*
X112976Y207000D01*
X92976D02*
X93269Y206293D01*
X93976Y206000D01*
Y218000D02*
X93269Y217707D01*
X92976Y217000D01*
X100976D02*
X100683Y217707D01*
X99976Y218000D01*
Y206000D02*
X100683Y206293D01*
X100976Y207000D01*
X83976Y206800D02*
X84269Y206093D01*
X84976Y205800D01*
Y217800D02*
X84269Y217507D01*
X83976Y216800D01*
X91976D02*
X91683Y217507D01*
X90976Y217800D01*
Y205800D02*
X91683Y206093D01*
X91976Y206800D01*
X160024Y207000D02*
X160317Y206293D01*
X161024Y206000D01*
Y218000D02*
X160317Y217707D01*
X160024Y217000D01*
X168024D02*
X167731Y217707D01*
X167024Y218000D01*
Y206000D02*
X167731Y206293D01*
X168024Y207000D01*
X151024D02*
X151317Y206293D01*
X152024Y206000D01*
Y218000D02*
X151317Y217707D01*
X151024Y217000D01*
X159024D02*
X158731Y217707D01*
X158024Y218000D01*
Y206000D02*
X158731Y206293D01*
X159024Y207000D01*
X139024D02*
X139317Y206293D01*
X140024Y206000D01*
Y218000D02*
X139317Y217707D01*
X139024Y217000D01*
X147024D02*
X146731Y217707D01*
X146024Y218000D01*
Y206000D02*
X146731Y206293D01*
X147024Y207000D01*
X130024Y206800D02*
X130317Y206093D01*
X131024Y205800D01*
Y217800D02*
X130317Y217507D01*
X130024Y216800D01*
X138024D02*
X137731Y217507D01*
X137024Y217800D01*
Y205800D02*
X137731Y206093D01*
X138024Y206800D01*
X206024Y207000D02*
X206317Y206293D01*
X207024Y206000D01*
Y218000D02*
X206317Y217707D01*
X206024Y217000D01*
X214024D02*
X213731Y217707D01*
X213024Y218000D01*
Y206000D02*
X213731Y206293D01*
X214024Y207000D01*
X197024D02*
X197317Y206293D01*
X198024Y206000D01*
Y218000D02*
X197317Y217707D01*
X197024Y217000D01*
X205024D02*
X204731Y217707D01*
X204024Y218000D01*
Y206000D02*
X204731Y206293D01*
X205024Y207000D01*
X185024D02*
X185317Y206293D01*
X186024Y206000D01*
Y218000D02*
X185317Y217707D01*
X185024Y217000D01*
X193024D02*
X192731Y217707D01*
X192024Y218000D01*
Y206000D02*
X192731Y206293D01*
X193024Y207000D01*
X176024Y206800D02*
X176317Y206093D01*
X177024Y205800D01*
Y217800D02*
X176317Y217507D01*
X176024Y216800D01*
X184024D02*
X183731Y217507D01*
X183024Y217800D01*
Y205800D02*
X183731Y206093D01*
X184024Y206800D01*
X251976Y207000D02*
X252269Y206293D01*
X252976Y206000D01*
Y218000D02*
X252269Y217707D01*
X251976Y217000D01*
X259976D02*
X259683Y217707D01*
X258976Y218000D01*
Y206000D02*
X259683Y206293D01*
X259976Y207000D01*
X242976D02*
X243269Y206293D01*
X243976Y206000D01*
Y218000D02*
X243269Y217707D01*
X242976Y217000D01*
X250976D02*
X250683Y217707D01*
X249976Y218000D01*
Y206000D02*
X250683Y206293D01*
X250976Y207000D01*
X230976D02*
X231269Y206293D01*
X231976Y206000D01*
Y218000D02*
X231269Y217707D01*
X230976Y217000D01*
X238976D02*
X238683Y217707D01*
X237976Y218000D01*
Y206000D02*
X238683Y206293D01*
X238976Y207000D01*
X221976Y206800D02*
X222269Y206093D01*
X222976Y205800D01*
Y217800D02*
X222269Y217507D01*
X221976Y216800D01*
X229976D02*
X229683Y217507D01*
X228976Y217800D01*
Y205800D02*
X229683Y206093D01*
X229976Y206800D01*
X298024Y207000D02*
X298317Y206293D01*
X299024Y206000D01*
Y218000D02*
X298317Y217707D01*
X298024Y217000D01*
X306024D02*
X305731Y217707D01*
X305024Y218000D01*
Y206000D02*
X305731Y206293D01*
X306024Y207000D01*
X289024D02*
X289317Y206293D01*
X290024Y206000D01*
Y218000D02*
X289317Y217707D01*
X289024Y217000D01*
X297024D02*
X296731Y217707D01*
X296024Y218000D01*
Y206000D02*
X296731Y206293D01*
X297024Y207000D01*
X277024D02*
X277317Y206293D01*
X278024Y206000D01*
Y218000D02*
X277317Y217707D01*
X277024Y217000D01*
X285024D02*
X284731Y217707D01*
X284024Y218000D01*
Y206000D02*
X284731Y206293D01*
X285024Y207000D01*
X268024Y206800D02*
X268317Y206093D01*
X269024Y205800D01*
Y217800D02*
X268317Y217507D01*
X268024Y216800D01*
X276024D02*
X275731Y217507D01*
X275024Y217800D01*
Y205800D02*
X275731Y206093D01*
X276024Y206800D01*
X344024Y207000D02*
X344317Y206293D01*
X345024Y206000D01*
Y218000D02*
X344317Y217707D01*
X344024Y217000D01*
X352024D02*
X351731Y217707D01*
X351024Y218000D01*
Y206000D02*
X351731Y206293D01*
X352024Y207000D01*
X335024D02*
X335317Y206293D01*
X336024Y206000D01*
Y218000D02*
X335317Y217707D01*
X335024Y217000D01*
X343024D02*
X342731Y217707D01*
X342024Y218000D01*
Y206000D02*
X342731Y206293D01*
X343024Y207000D01*
X323024D02*
X323317Y206293D01*
X324024Y206000D01*
Y218000D02*
X323317Y217707D01*
X323024Y217000D01*
X331024D02*
X330731Y217707D01*
X330024Y218000D01*
Y206000D02*
X330731Y206293D01*
X331024Y207000D01*
X314024Y206800D02*
X314317Y206093D01*
X315024Y205800D01*
Y217800D02*
X314317Y217507D01*
X314024Y216800D01*
X322024D02*
X321731Y217507D01*
X321024Y217800D01*
Y205800D02*
X321731Y206093D01*
X322024Y206800D01*
X46100Y68400D02*
X45807Y69107D01*
X45100Y69400D01*
Y57400D02*
X45807Y57693D01*
X46100Y58400D01*
X38100D02*
X38393Y57693D01*
X39100Y57400D01*
Y69400D02*
X38393Y69107D01*
X38100Y68400D01*
X55100D02*
X54807Y69107D01*
X54100Y69400D01*
Y57400D02*
X54807Y57693D01*
X55100Y58400D01*
X47100D02*
X47393Y57693D01*
X48100Y57400D01*
Y69400D02*
X47393Y69107D01*
X47100Y68400D01*
X67100D02*
X66807Y69107D01*
X66100Y69400D01*
Y57400D02*
X66807Y57693D01*
X67100Y58400D01*
X59100D02*
X59393Y57693D01*
X60100Y57400D01*
Y69400D02*
X59393Y69107D01*
X59100Y68400D01*
X76100Y68600D02*
X75807Y69307D01*
X75100Y69600D01*
Y57600D02*
X75807Y57893D01*
X76100Y58600D01*
X68100D02*
X68393Y57893D01*
X69100Y57600D01*
Y69600D02*
X68393Y69307D01*
X68100Y68600D01*
X92100Y68400D02*
X91807Y69107D01*
X91100Y69400D01*
Y57400D02*
X91807Y57693D01*
X92100Y58400D01*
X84100D02*
X84393Y57693D01*
X85100Y57400D01*
Y69400D02*
X84393Y69107D01*
X84100Y68400D01*
X101100D02*
X100807Y69107D01*
X100100Y69400D01*
Y57400D02*
X100807Y57693D01*
X101100Y58400D01*
X93100D02*
X93393Y57693D01*
X94100Y57400D01*
Y69400D02*
X93393Y69107D01*
X93100Y68400D01*
X113100D02*
X112807Y69107D01*
X112100Y69400D01*
Y57400D02*
X112807Y57693D01*
X113100Y58400D01*
X105100D02*
X105393Y57693D01*
X106100Y57400D01*
Y69400D02*
X105393Y69107D01*
X105100Y68400D01*
X122100Y68600D02*
X121807Y69307D01*
X121100Y69600D01*
Y57600D02*
X121807Y57893D01*
X122100Y58600D01*
X114100D02*
X114393Y57893D01*
X115100Y57600D01*
Y69600D02*
X114393Y69307D01*
X114100Y68600D01*
X138000Y68500D02*
X137707Y69207D01*
X137000Y69500D01*
Y57500D02*
X137707Y57793D01*
X138000Y58500D01*
X130000D02*
X130293Y57793D01*
X131000Y57500D01*
Y69500D02*
X130293Y69207D01*
X130000Y68500D01*
X147000D02*
X146707Y69207D01*
X146000Y69500D01*
Y57500D02*
X146707Y57793D01*
X147000Y58500D01*
X139000D02*
X139293Y57793D01*
X140000Y57500D01*
Y69500D02*
X139293Y69207D01*
X139000Y68500D01*
X159000D02*
X158707Y69207D01*
X158000Y69500D01*
Y57500D02*
X158707Y57793D01*
X159000Y58500D01*
X151000D02*
X151293Y57793D01*
X152000Y57500D01*
Y69500D02*
X151293Y69207D01*
X151000Y68500D01*
X168000Y68700D02*
X167707Y69407D01*
X167000Y69700D01*
Y57700D02*
X167707Y57993D01*
X168000Y58700D01*
X160000D02*
X160293Y57993D01*
X161000Y57700D01*
Y69700D02*
X160293Y69407D01*
X160000Y68700D01*
X183900Y68300D02*
X183607Y69007D01*
X182900Y69300D01*
Y57300D02*
X183607Y57593D01*
X183900Y58300D01*
X175900D02*
X176193Y57593D01*
X176900Y57300D01*
Y69300D02*
X176193Y69007D01*
X175900Y68300D01*
X192900D02*
X192607Y69007D01*
X191900Y69300D01*
Y57300D02*
X192607Y57593D01*
X192900Y58300D01*
X184900D02*
X185193Y57593D01*
X185900Y57300D01*
Y69300D02*
X185193Y69007D01*
X184900Y68300D01*
X204900D02*
X204607Y69007D01*
X203900Y69300D01*
Y57300D02*
X204607Y57593D01*
X204900Y58300D01*
X196900D02*
X197193Y57593D01*
X197900Y57300D01*
Y69300D02*
X197193Y69007D01*
X196900Y68300D01*
X213900Y68500D02*
X213607Y69207D01*
X212900Y69500D01*
Y57500D02*
X213607Y57793D01*
X213900Y58500D01*
X205900D02*
X206193Y57793D01*
X206900Y57500D01*
Y69500D02*
X206193Y69207D01*
X205900Y68500D01*
X230000Y68400D02*
X229707Y69107D01*
X229000Y69400D01*
Y57400D02*
X229707Y57693D01*
X230000Y58400D01*
X222000D02*
X222293Y57693D01*
X223000Y57400D01*
Y69400D02*
X222293Y69107D01*
X222000Y68400D01*
X239000D02*
X238707Y69107D01*
X238000Y69400D01*
Y57400D02*
X238707Y57693D01*
X239000Y58400D01*
X231000D02*
X231293Y57693D01*
X232000Y57400D01*
Y69400D02*
X231293Y69107D01*
X231000Y68400D01*
X251000D02*
X250707Y69107D01*
X250000Y69400D01*
Y57400D02*
X250707Y57693D01*
X251000Y58400D01*
X243000D02*
X243293Y57693D01*
X244000Y57400D01*
Y69400D02*
X243293Y69107D01*
X243000Y68400D01*
X260000Y68600D02*
X259707Y69307D01*
X259000Y69600D01*
Y57600D02*
X259707Y57893D01*
X260000Y58600D01*
X252000D02*
X252293Y57893D01*
X253000Y57600D01*
Y69600D02*
X252293Y69307D01*
X252000Y68600D01*
X276500Y68300D02*
X276207Y69007D01*
X275500Y69300D01*
Y57300D02*
X276207Y57593D01*
X276500Y58300D01*
X268500D02*
X268793Y57593D01*
X269500Y57300D01*
Y69300D02*
X268793Y69007D01*
X268500Y68300D01*
X285500D02*
X285207Y69007D01*
X284500Y69300D01*
Y57300D02*
X285207Y57593D01*
X285500Y58300D01*
X277500D02*
X277793Y57593D01*
X278500Y57300D01*
Y69300D02*
X277793Y69007D01*
X277500Y68300D01*
X297500D02*
X297207Y69007D01*
X296500Y69300D01*
Y57300D02*
X297207Y57593D01*
X297500Y58300D01*
X289500D02*
X289793Y57593D01*
X290500Y57300D01*
Y69300D02*
X289793Y69007D01*
X289500Y68300D01*
X306500Y68500D02*
X306207Y69207D01*
X305500Y69500D01*
Y57500D02*
X306207Y57793D01*
X306500Y58500D01*
X298500D02*
X298793Y57793D01*
X299500Y57500D01*
Y69500D02*
X298793Y69207D01*
X298500Y68500D01*
X322100Y68400D02*
X321807Y69107D01*
X321100Y69400D01*
Y57400D02*
X321807Y57693D01*
X322100Y58400D01*
X314100D02*
X314393Y57693D01*
X315100Y57400D01*
Y69400D02*
X314393Y69107D01*
X314100Y68400D01*
X331100D02*
X330807Y69107D01*
X330100Y69400D01*
Y57400D02*
X330807Y57693D01*
X331100Y58400D01*
X323100D02*
X323393Y57693D01*
X324100Y57400D01*
Y69400D02*
X323393Y69107D01*
X323100Y68400D01*
X343100D02*
X342807Y69107D01*
X342100Y69400D01*
Y57400D02*
X342807Y57693D01*
X343100Y58400D01*
X335100D02*
X335393Y57693D01*
X336100Y57400D01*
Y69400D02*
X335393Y69107D01*
X335100Y68400D01*
X352100Y68600D02*
X351807Y69307D01*
X351100Y69600D01*
Y57600D02*
X351807Y57893D01*
X352100Y58600D01*
X344100D02*
X344393Y57893D01*
X345100Y57600D01*
Y69600D02*
X344393Y69307D01*
X344100Y68600D01*
X75976Y207000D02*
Y217000D01*
X68976Y206000D02*
X74976D01*
X68976Y218000D02*
X74976D01*
X67976Y207000D02*
Y217000D01*
X54976Y207000D02*
Y217000D01*
X47976Y206000D02*
X53976D01*
X47976Y218000D02*
X53976D01*
X46976Y207000D02*
Y217000D01*
X66976Y207000D02*
Y217000D01*
X59976Y206000D02*
X65976D01*
X59976Y218000D02*
X65976D01*
X58976Y207000D02*
Y217000D01*
X45976Y206800D02*
Y216800D01*
X38976Y205800D02*
X44976D01*
X38976Y217800D02*
X44976D01*
X37976Y206800D02*
Y216800D01*
X121976Y207000D02*
Y217000D01*
X114976Y206000D02*
X120976D01*
X114976Y218000D02*
X120976D01*
X113976Y207000D02*
Y217000D01*
X112976Y207000D02*
Y217000D01*
X105976Y206000D02*
X111976D01*
X105976Y218000D02*
X111976D01*
X104976Y207000D02*
Y217000D01*
X100976Y207000D02*
Y217000D01*
X93976Y206000D02*
X99976D01*
X93976Y218000D02*
X99976D01*
X92976Y207000D02*
Y217000D01*
X91976Y206800D02*
Y216800D01*
X84976Y205800D02*
X90976D01*
X84976Y217800D02*
X90976D01*
X83976Y206800D02*
Y216800D01*
X168024Y207000D02*
Y217000D01*
X161024Y206000D02*
X167024D01*
X161024Y218000D02*
X167024D01*
X160024Y207000D02*
Y217000D01*
X159024Y207000D02*
Y217000D01*
X152024Y206000D02*
X158024D01*
X152024Y218000D02*
X158024D01*
X151024Y207000D02*
Y217000D01*
X147024Y207000D02*
Y217000D01*
X140024Y206000D02*
X146024D01*
X140024Y218000D02*
X146024D01*
X139024Y207000D02*
Y217000D01*
X138024Y206800D02*
Y216800D01*
X131024Y205800D02*
X137024D01*
X131024Y217800D02*
X137024D01*
X130024Y206800D02*
Y216800D01*
X214024Y207000D02*
Y217000D01*
X207024Y206000D02*
X213024D01*
X207024Y218000D02*
X213024D01*
X206024Y207000D02*
Y217000D01*
X205024Y207000D02*
Y217000D01*
X198024Y206000D02*
X204024D01*
X198024Y218000D02*
X204024D01*
X197024Y207000D02*
Y217000D01*
X193024Y207000D02*
Y217000D01*
X186024Y206000D02*
X192024D01*
X186024Y218000D02*
X192024D01*
X185024Y207000D02*
Y217000D01*
X184024Y206800D02*
Y216800D01*
X177024Y205800D02*
X183024D01*
X177024Y217800D02*
X183024D01*
X176024Y206800D02*
Y216800D01*
X259976Y207000D02*
Y217000D01*
X252976Y206000D02*
X258976D01*
X252976Y218000D02*
X258976D01*
X251976Y207000D02*
Y217000D01*
X250976Y207000D02*
Y217000D01*
X243976Y206000D02*
X249976D01*
X243976Y218000D02*
X249976D01*
X242976Y207000D02*
Y217000D01*
X238976Y207000D02*
Y217000D01*
X231976Y206000D02*
X237976D01*
X231976Y218000D02*
X237976D01*
X230976Y207000D02*
Y217000D01*
X229976Y206800D02*
Y216800D01*
X222976Y205800D02*
X228976D01*
X222976Y217800D02*
X228976D01*
X221976Y206800D02*
Y216800D01*
X306024Y207000D02*
Y217000D01*
X299024Y206000D02*
X305024D01*
X299024Y218000D02*
X305024D01*
X298024Y207000D02*
Y217000D01*
X297024Y207000D02*
Y217000D01*
X290024Y206000D02*
X296024D01*
X290024Y218000D02*
X296024D01*
X289024Y207000D02*
Y217000D01*
X285024Y207000D02*
Y217000D01*
X278024Y206000D02*
X284024D01*
X278024Y218000D02*
X284024D01*
X277024Y207000D02*
Y217000D01*
X276024Y206800D02*
Y216800D01*
X269024Y205800D02*
X275024D01*
X269024Y217800D02*
X275024D01*
X268024Y206800D02*
Y216800D01*
X352024Y207000D02*
Y217000D01*
X345024Y206000D02*
X351024D01*
X345024Y218000D02*
X351024D01*
X344024Y207000D02*
Y217000D01*
X343024Y207000D02*
Y217000D01*
X336024Y206000D02*
X342024D01*
X336024Y218000D02*
X342024D01*
X335024Y207000D02*
Y217000D01*
X331024Y207000D02*
Y217000D01*
X324024Y206000D02*
X330024D01*
X324024Y218000D02*
X330024D01*
X323024Y207000D02*
Y217000D01*
X322024Y206800D02*
Y216800D01*
X315024Y205800D02*
X321024D01*
X315024Y217800D02*
X321024D01*
X314024Y206800D02*
Y216800D01*
X38100Y58400D02*
Y68400D01*
X39100Y69400D02*
X45100D01*
X39100Y57400D02*
X45100D01*
X46100Y58400D02*
Y68400D01*
X47100Y58400D02*
Y68400D01*
X48100Y69400D02*
X54100D01*
X48100Y57400D02*
X54100D01*
X55100Y58400D02*
Y68400D01*
X59100Y58400D02*
Y68400D01*
X60100Y69400D02*
X66100D01*
X60100Y57400D02*
X66100D01*
X67100Y58400D02*
Y68400D01*
X68100Y58600D02*
Y68600D01*
X69100Y69600D02*
X75100D01*
X69100Y57600D02*
X75100D01*
X76100Y58600D02*
Y68600D01*
X84100Y58400D02*
Y68400D01*
X85100Y69400D02*
X91100D01*
X85100Y57400D02*
X91100D01*
X92100Y58400D02*
Y68400D01*
X93100Y58400D02*
Y68400D01*
X94100Y69400D02*
X100100D01*
X94100Y57400D02*
X100100D01*
X101100Y58400D02*
Y68400D01*
X105100Y58400D02*
Y68400D01*
X106100Y69400D02*
X112100D01*
X106100Y57400D02*
X112100D01*
X113100Y58400D02*
Y68400D01*
X114100Y58600D02*
Y68600D01*
X115100Y69600D02*
X121100D01*
X115100Y57600D02*
X121100D01*
X122100Y58600D02*
Y68600D01*
X130000Y58500D02*
Y68500D01*
X131000Y69500D02*
X137000D01*
X131000Y57500D02*
X137000D01*
X138000Y58500D02*
Y68500D01*
X139000Y58500D02*
Y68500D01*
X140000Y69500D02*
X146000D01*
X140000Y57500D02*
X146000D01*
X147000Y58500D02*
Y68500D01*
X151000Y58500D02*
Y68500D01*
X152000Y69500D02*
X158000D01*
X152000Y57500D02*
X158000D01*
X159000Y58500D02*
Y68500D01*
X160000Y58700D02*
Y68700D01*
X161000Y69700D02*
X167000D01*
X161000Y57700D02*
X167000D01*
X168000Y58700D02*
Y68700D01*
X175900Y58300D02*
Y68300D01*
X176900Y69300D02*
X182900D01*
X176900Y57300D02*
X182900D01*
X183900Y58300D02*
Y68300D01*
X184900Y58300D02*
Y68300D01*
X185900Y69300D02*
X191900D01*
X185900Y57300D02*
X191900D01*
X192900Y58300D02*
Y68300D01*
X196900Y58300D02*
Y68300D01*
X197900Y69300D02*
X203900D01*
X197900Y57300D02*
X203900D01*
X204900Y58300D02*
Y68300D01*
X205900Y58500D02*
Y68500D01*
X206900Y69500D02*
X212900D01*
X206900Y57500D02*
X212900D01*
X213900Y58500D02*
Y68500D01*
X222000Y58400D02*
Y68400D01*
X223000Y69400D02*
X229000D01*
X223000Y57400D02*
X229000D01*
X230000Y58400D02*
Y68400D01*
X231000Y58400D02*
Y68400D01*
X232000Y69400D02*
X238000D01*
X232000Y57400D02*
X238000D01*
X239000Y58400D02*
Y68400D01*
X243000Y58400D02*
Y68400D01*
X244000Y69400D02*
X250000D01*
X244000Y57400D02*
X250000D01*
X251000Y58400D02*
Y68400D01*
X252000Y58600D02*
Y68600D01*
X253000Y69600D02*
X259000D01*
X253000Y57600D02*
X259000D01*
X260000Y58600D02*
Y68600D01*
X268500Y58300D02*
Y68300D01*
X269500Y69300D02*
X275500D01*
X269500Y57300D02*
X275500D01*
X276500Y58300D02*
Y68300D01*
X277500Y58300D02*
Y68300D01*
X278500Y69300D02*
X284500D01*
X278500Y57300D02*
X284500D01*
X285500Y58300D02*
Y68300D01*
X289500Y58300D02*
Y68300D01*
X290500Y69300D02*
X296500D01*
X290500Y57300D02*
X296500D01*
X297500Y58300D02*
Y68300D01*
X298500Y58500D02*
Y68500D01*
X299500Y69500D02*
X305500D01*
X299500Y57500D02*
X305500D01*
X306500Y58500D02*
Y68500D01*
X314100Y58400D02*
Y68400D01*
X315100Y69400D02*
X321100D01*
X315100Y57400D02*
X321100D01*
X322100Y58400D02*
Y68400D01*
X323100Y58400D02*
Y68400D01*
X324100Y69400D02*
X330100D01*
X324100Y57400D02*
X330100D01*
X331100Y58400D02*
Y68400D01*
X335100Y58400D02*
Y68400D01*
X336100Y69400D02*
X342100D01*
X336100Y57400D02*
X342100D01*
X343100Y58400D02*
Y68400D01*
X344100Y58600D02*
Y68600D01*
X345100Y69600D02*
X351100D01*
X345100Y57600D02*
X351100D01*
X352100Y58600D02*
Y68600D01*
M02*
