G04 Layer_Color=65535*
%FSLAX25Y25*%
%MOIN*%
G70*
G01*
G75*
%ADD26C,0.01000*%
%ADD43C,0.00787*%
%ADD44C,0.00394*%
%ADD45C,0.00400*%
%ADD46C,0.00984*%
%ADD47C,0.02362*%
%ADD48C,0.00800*%
%ADD49C,0.00600*%
D26*
X395496Y94378D02*
Y179024D01*
X332504D02*
X395496D01*
X332504Y94378D02*
Y179024D01*
Y94378D02*
X395496D01*
X41040Y196800D02*
Y198112D01*
Y197456D01*
X44976D01*
Y196800D01*
Y198112D01*
X41696Y202704D02*
X41040Y202048D01*
Y200736D01*
X41696Y200080D01*
X44320D01*
X44976Y200736D01*
Y202048D01*
X44320Y202704D01*
X44976Y204015D02*
Y205327D01*
Y204672D01*
X41040D01*
X41696Y204015D01*
X45632Y207295D02*
Y209919D01*
X41696Y213855D02*
X41040Y213199D01*
Y211887D01*
X41696Y211231D01*
X42352D01*
X43008Y211887D01*
Y213199D01*
X43664Y213855D01*
X44320D01*
X44976Y213199D01*
Y211887D01*
X44320Y211231D01*
X44976Y215167D02*
Y216479D01*
Y215823D01*
X41040D01*
X41696Y215167D01*
X87040Y196800D02*
Y198112D01*
Y197456D01*
X90976D01*
Y196800D01*
Y198112D01*
X87696Y202704D02*
X87040Y202048D01*
Y200736D01*
X87696Y200080D01*
X90320D01*
X90976Y200736D01*
Y202048D01*
X90320Y202704D01*
X90976Y204015D02*
Y205327D01*
Y204672D01*
X87040D01*
X87696Y204015D01*
X91632Y207295D02*
Y209919D01*
X87696Y213855D02*
X87040Y213199D01*
Y211887D01*
X87696Y211231D01*
X88352D01*
X89008Y211887D01*
Y213199D01*
X89664Y213855D01*
X90320D01*
X90976Y213199D01*
Y211887D01*
X90320Y211231D01*
X90976Y217791D02*
Y215167D01*
X88352Y217791D01*
X87696D01*
X87040Y217135D01*
Y215823D01*
X87696Y215167D01*
X133088Y196800D02*
Y198112D01*
Y197456D01*
X137024D01*
Y196800D01*
Y198112D01*
X133744Y202704D02*
X133088Y202048D01*
Y200736D01*
X133744Y200080D01*
X136368D01*
X137024Y200736D01*
Y202048D01*
X136368Y202704D01*
X137024Y204015D02*
Y205327D01*
Y204672D01*
X133088D01*
X133744Y204015D01*
X137680Y207295D02*
Y209919D01*
X133744Y213855D02*
X133088Y213199D01*
Y211887D01*
X133744Y211231D01*
X134400D01*
X135056Y211887D01*
Y213199D01*
X135712Y213855D01*
X136368D01*
X137024Y213199D01*
Y211887D01*
X136368Y211231D01*
X133744Y215167D02*
X133088Y215823D01*
Y217135D01*
X133744Y217791D01*
X134400D01*
X135056Y217135D01*
Y216479D01*
Y217135D01*
X135712Y217791D01*
X136368D01*
X137024Y217135D01*
Y215823D01*
X136368Y215167D01*
X179088Y196800D02*
Y198112D01*
Y197456D01*
X183024D01*
Y196800D01*
Y198112D01*
X179744Y202704D02*
X179088Y202048D01*
Y200736D01*
X179744Y200080D01*
X182368D01*
X183024Y200736D01*
Y202048D01*
X182368Y202704D01*
X183024Y204015D02*
Y205327D01*
Y204672D01*
X179088D01*
X179744Y204015D01*
X183680Y207295D02*
Y209919D01*
X179744Y213855D02*
X179088Y213199D01*
Y211887D01*
X179744Y211231D01*
X180400D01*
X181056Y211887D01*
Y213199D01*
X181712Y213855D01*
X182368D01*
X183024Y213199D01*
Y211887D01*
X182368Y211231D01*
X183024Y217135D02*
X179088D01*
X181056Y215167D01*
Y217791D01*
X225040Y196800D02*
Y198112D01*
Y197456D01*
X228976D01*
Y196800D01*
Y198112D01*
X225696Y202704D02*
X225040Y202048D01*
Y200736D01*
X225696Y200080D01*
X228320D01*
X228976Y200736D01*
Y202048D01*
X228320Y202704D01*
X228976Y204015D02*
Y205327D01*
Y204672D01*
X225040D01*
X225696Y204015D01*
X229632Y207295D02*
Y209919D01*
X225696Y213855D02*
X225040Y213199D01*
Y211887D01*
X225696Y211231D01*
X226352D01*
X227008Y211887D01*
Y213199D01*
X227664Y213855D01*
X228320D01*
X228976Y213199D01*
Y211887D01*
X228320Y211231D01*
X225040Y217791D02*
Y215167D01*
X227008D01*
X226352Y216479D01*
Y217135D01*
X227008Y217791D01*
X228320D01*
X228976Y217135D01*
Y215823D01*
X228320Y215167D01*
X271088Y196800D02*
Y198112D01*
Y197456D01*
X275024D01*
Y196800D01*
Y198112D01*
X271744Y202704D02*
X271088Y202048D01*
Y200736D01*
X271744Y200080D01*
X274368D01*
X275024Y200736D01*
Y202048D01*
X274368Y202704D01*
X275024Y204015D02*
Y205327D01*
Y204672D01*
X271088D01*
X271744Y204015D01*
X275680Y207295D02*
Y209919D01*
X271744Y213855D02*
X271088Y213199D01*
Y211887D01*
X271744Y211231D01*
X272400D01*
X273056Y211887D01*
Y213199D01*
X273712Y213855D01*
X274368D01*
X275024Y213199D01*
Y211887D01*
X274368Y211231D01*
X271088Y217791D02*
X271744Y216479D01*
X273056Y215167D01*
X274368D01*
X275024Y215823D01*
Y217135D01*
X274368Y217791D01*
X273712D01*
X273056Y217135D01*
Y215167D01*
X345064Y196000D02*
Y197312D01*
Y196656D01*
X349000D01*
Y196000D01*
Y197312D01*
X345720Y201904D02*
X345064Y201248D01*
Y199936D01*
X345720Y199280D01*
X348344D01*
X349000Y199936D01*
Y201248D01*
X348344Y201904D01*
X349000Y203216D02*
Y204527D01*
Y203871D01*
X345064D01*
X345720Y203216D01*
X349656Y206495D02*
Y209119D01*
X345720Y213055D02*
X345064Y212399D01*
Y211087D01*
X345720Y210431D01*
X346376D01*
X347032Y211087D01*
Y212399D01*
X347688Y213055D01*
X348344D01*
X349000Y212399D01*
Y211087D01*
X348344Y210431D01*
X345064Y214367D02*
Y216991D01*
X345720D01*
X348344Y214367D01*
X349000D01*
X73036Y78600D02*
Y77288D01*
Y77944D01*
X69100D01*
Y78600D01*
Y77288D01*
X72380Y72696D02*
X73036Y73352D01*
Y74664D01*
X72380Y75320D01*
X69756D01*
X69100Y74664D01*
Y73352D01*
X69756Y72696D01*
X69100Y71385D02*
Y70073D01*
Y70728D01*
X73036D01*
X72380Y71385D01*
X68444Y68105D02*
Y65481D01*
X72380Y61545D02*
X73036Y62201D01*
Y63513D01*
X72380Y64169D01*
X71724D01*
X71068Y63513D01*
Y62201D01*
X70412Y61545D01*
X69756D01*
X69100Y62201D01*
Y63513D01*
X69756Y64169D01*
X72380Y60233D02*
X73036Y59577D01*
Y58265D01*
X72380Y57609D01*
X71724D01*
X71068Y58265D01*
X70412Y57609D01*
X69756D01*
X69100Y58265D01*
Y59577D01*
X69756Y60233D01*
X70412D01*
X71068Y59577D01*
X71724Y60233D01*
X72380D01*
X71068Y59577D02*
Y58265D01*
X119036Y78600D02*
Y77288D01*
Y77944D01*
X115100D01*
Y78600D01*
Y77288D01*
X118380Y72696D02*
X119036Y73352D01*
Y74664D01*
X118380Y75320D01*
X115756D01*
X115100Y74664D01*
Y73352D01*
X115756Y72696D01*
X115100Y71385D02*
Y70073D01*
Y70728D01*
X119036D01*
X118380Y71385D01*
X114444Y68105D02*
Y65481D01*
X118380Y61545D02*
X119036Y62201D01*
Y63513D01*
X118380Y64169D01*
X117724D01*
X117068Y63513D01*
Y62201D01*
X116412Y61545D01*
X115756D01*
X115100Y62201D01*
Y63513D01*
X115756Y64169D01*
Y60233D02*
X115100Y59577D01*
Y58265D01*
X115756Y57609D01*
X118380D01*
X119036Y58265D01*
Y59577D01*
X118380Y60233D01*
X117724D01*
X117068Y59577D01*
Y57609D01*
X164936Y78700D02*
Y77388D01*
Y78044D01*
X161000D01*
Y78700D01*
Y77388D01*
X164280Y72796D02*
X164936Y73452D01*
Y74764D01*
X164280Y75420D01*
X161656D01*
X161000Y74764D01*
Y73452D01*
X161656Y72796D01*
X161000Y71485D02*
Y70173D01*
Y70828D01*
X164936D01*
X164280Y71485D01*
X160344Y68205D02*
Y65581D01*
X164280Y61645D02*
X164936Y62301D01*
Y63613D01*
X164280Y64269D01*
X163624D01*
X162968Y63613D01*
Y62301D01*
X162312Y61645D01*
X161656D01*
X161000Y62301D01*
Y63613D01*
X161656Y64269D01*
X161000Y60333D02*
Y59021D01*
Y59677D01*
X164936D01*
X164280Y60333D01*
Y57053D02*
X164936Y56397D01*
Y55086D01*
X164280Y54430D01*
X161656D01*
X161000Y55086D01*
Y56397D01*
X161656Y57053D01*
X164280D01*
X210836Y78500D02*
Y77188D01*
Y77844D01*
X206900D01*
Y78500D01*
Y77188D01*
X210180Y72596D02*
X210836Y73252D01*
Y74564D01*
X210180Y75220D01*
X207556D01*
X206900Y74564D01*
Y73252D01*
X207556Y72596D01*
X206900Y71285D02*
Y69973D01*
Y70628D01*
X210836D01*
X210180Y71285D01*
X206244Y68005D02*
Y65381D01*
X210180Y61445D02*
X210836Y62101D01*
Y63413D01*
X210180Y64069D01*
X209524D01*
X208868Y63413D01*
Y62101D01*
X208212Y61445D01*
X207556D01*
X206900Y62101D01*
Y63413D01*
X207556Y64069D01*
X206900Y60133D02*
Y58821D01*
Y59477D01*
X210836D01*
X210180Y60133D01*
X206900Y56853D02*
Y55541D01*
Y56198D01*
X210836D01*
X210180Y56853D01*
X256936Y78600D02*
Y77288D01*
Y77944D01*
X253000D01*
Y78600D01*
Y77288D01*
X256280Y72696D02*
X256936Y73352D01*
Y74664D01*
X256280Y75320D01*
X253656D01*
X253000Y74664D01*
Y73352D01*
X253656Y72696D01*
X253000Y71385D02*
Y70073D01*
Y70728D01*
X256936D01*
X256280Y71385D01*
X252344Y68105D02*
Y65481D01*
X256280Y61545D02*
X256936Y62201D01*
Y63513D01*
X256280Y64169D01*
X255624D01*
X254968Y63513D01*
Y62201D01*
X254312Y61545D01*
X253656D01*
X253000Y62201D01*
Y63513D01*
X253656Y64169D01*
X253000Y60233D02*
Y58921D01*
Y59577D01*
X256936D01*
X256280Y60233D01*
X253000Y54330D02*
Y56953D01*
X255624Y54330D01*
X256280D01*
X256936Y54986D01*
Y56297D01*
X256280Y56953D01*
X303436Y78500D02*
Y77188D01*
Y77844D01*
X299500D01*
Y78500D01*
Y77188D01*
X302780Y72596D02*
X303436Y73252D01*
Y74564D01*
X302780Y75220D01*
X300156D01*
X299500Y74564D01*
Y73252D01*
X300156Y72596D01*
X299500Y71285D02*
Y69973D01*
Y70628D01*
X303436D01*
X302780Y71285D01*
X298844Y68005D02*
Y65381D01*
X302780Y61445D02*
X303436Y62101D01*
Y63413D01*
X302780Y64069D01*
X302124D01*
X301468Y63413D01*
Y62101D01*
X300812Y61445D01*
X300156D01*
X299500Y62101D01*
Y63413D01*
X300156Y64069D01*
X299500Y60133D02*
Y58821D01*
Y59477D01*
X303436D01*
X302780Y60133D01*
Y56853D02*
X303436Y56198D01*
Y54886D01*
X302780Y54230D01*
X302124D01*
X301468Y54886D01*
Y55541D01*
Y54886D01*
X300812Y54230D01*
X300156D01*
X299500Y54886D01*
Y56198D01*
X300156Y56853D01*
X349036Y78600D02*
Y77288D01*
Y77944D01*
X345100D01*
Y78600D01*
Y77288D01*
X348380Y72696D02*
X349036Y73352D01*
Y74664D01*
X348380Y75320D01*
X345756D01*
X345100Y74664D01*
Y73352D01*
X345756Y72696D01*
X345100Y71385D02*
Y70073D01*
Y70728D01*
X349036D01*
X348380Y71385D01*
X344444Y68105D02*
Y65481D01*
X348380Y61545D02*
X349036Y62201D01*
Y63513D01*
X348380Y64169D01*
X347724D01*
X347068Y63513D01*
Y62201D01*
X346412Y61545D01*
X345756D01*
X345100Y62201D01*
Y63513D01*
X345756Y64169D01*
X345100Y60233D02*
Y58921D01*
Y59577D01*
X349036D01*
X348380Y60233D01*
X345100Y54986D02*
X349036D01*
X347068Y56953D01*
Y54330D01*
X117936Y138000D02*
X114656D01*
X114000Y137344D01*
Y136032D01*
X114656Y135376D01*
X117936D01*
X114000Y131440D02*
Y134064D01*
X116624Y131440D01*
X117280D01*
X117936Y132096D01*
Y133408D01*
X117280Y134064D01*
X44624Y189936D02*
X42000D01*
Y187968D01*
X43312Y188624D01*
X43968D01*
X44624Y187968D01*
Y186656D01*
X43968Y186000D01*
X42656D01*
X42000Y186656D01*
X45936Y189936D02*
Y187312D01*
X47248Y186000D01*
X48560Y187312D01*
Y189936D01*
X204624Y179280D02*
X203968Y179936D01*
X202656D01*
X202000Y179280D01*
Y176656D01*
X202656Y176000D01*
X203968D01*
X204624Y176656D01*
X205936Y176000D02*
X207248D01*
X206592D01*
Y179936D01*
X205936Y179280D01*
X74376Y109720D02*
X75032Y109064D01*
X76344D01*
X77000Y109720D01*
Y112344D01*
X76344Y113000D01*
X75032D01*
X74376Y112344D01*
X70440Y113000D02*
X73064D01*
X70440Y110376D01*
Y109720D01*
X71096Y109064D01*
X72408D01*
X73064Y109720D01*
X154720Y164624D02*
X154064Y163968D01*
Y162656D01*
X154720Y162000D01*
X157344D01*
X158000Y162656D01*
Y163968D01*
X157344Y164624D01*
X154720Y165936D02*
X154064Y166592D01*
Y167904D01*
X154720Y168560D01*
X155376D01*
X156032Y167904D01*
Y167248D01*
Y167904D01*
X156688Y168560D01*
X157344D01*
X158000Y167904D01*
Y166592D01*
X157344Y165936D01*
X135918Y166195D02*
X136574Y166851D01*
Y168163D01*
X135918Y168819D01*
X133294D01*
X132638Y168163D01*
Y166851D01*
X133294Y166195D01*
X132638Y162915D02*
X136574D01*
X134606Y164883D01*
Y162259D01*
X127918Y166195D02*
X128574Y166851D01*
Y168163D01*
X127918Y168819D01*
X125294D01*
X124638Y168163D01*
Y166851D01*
X125294Y166195D01*
X128574Y162259D02*
Y164883D01*
X126606D01*
X127262Y163571D01*
Y162915D01*
X126606Y162259D01*
X125294D01*
X124638Y162915D01*
Y164227D01*
X125294Y164883D01*
X119918Y166195D02*
X120574Y166851D01*
Y168163D01*
X119918Y168819D01*
X117294D01*
X116638Y168163D01*
Y166851D01*
X117294Y166195D01*
X120574Y162259D02*
X119918Y163571D01*
X118606Y164883D01*
X117294D01*
X116638Y164227D01*
Y162915D01*
X117294Y162259D01*
X117950D01*
X118606Y162915D01*
Y164883D01*
X181624Y179280D02*
X180968Y179936D01*
X179656D01*
X179000Y179280D01*
Y176656D01*
X179656Y176000D01*
X180968D01*
X181624Y176656D01*
X182936Y179936D02*
X185560D01*
Y179280D01*
X182936Y176656D01*
Y176000D01*
X157720Y119624D02*
X157064Y118968D01*
Y117656D01*
X157720Y117000D01*
X160344D01*
X161000Y117656D01*
Y118968D01*
X160344Y119624D01*
X157720Y120936D02*
X157064Y121592D01*
Y122904D01*
X157720Y123560D01*
X158376D01*
X159032Y122904D01*
X159688Y123560D01*
X160344D01*
X161000Y122904D01*
Y121592D01*
X160344Y120936D01*
X159688D01*
X159032Y121592D01*
X158376Y120936D01*
X157720D01*
X159032Y121592D02*
Y122904D01*
X183720Y119624D02*
X183064Y118968D01*
Y117656D01*
X183720Y117000D01*
X186344D01*
X187000Y117656D01*
Y118968D01*
X186344Y119624D01*
Y120936D02*
X187000Y121592D01*
Y122904D01*
X186344Y123560D01*
X183720D01*
X183064Y122904D01*
Y121592D01*
X183720Y120936D01*
X184376D01*
X185032Y121592D01*
Y123560D01*
X81376Y174720D02*
X82032Y174064D01*
X83344D01*
X84000Y174720D01*
Y177344D01*
X83344Y178000D01*
X82032D01*
X81376Y177344D01*
X80064Y178000D02*
X78752D01*
X79408D01*
Y174064D01*
X80064Y174720D01*
X76784D02*
X76129Y174064D01*
X74817D01*
X74161Y174720D01*
Y177344D01*
X74817Y178000D01*
X76129D01*
X76784Y177344D01*
Y174720D01*
X279587Y197557D02*
X278931Y198213D01*
X277619D01*
X276963Y197557D01*
Y194933D01*
X277619Y194277D01*
X278931D01*
X279587Y194933D01*
X280899Y194277D02*
X282211D01*
X281555D01*
Y198213D01*
X280899Y197557D01*
X284178Y194277D02*
X285490D01*
X284835D01*
Y198213D01*
X284178Y197557D01*
X247220Y130124D02*
X246564Y129468D01*
Y128156D01*
X247220Y127500D01*
X249844D01*
X250500Y128156D01*
Y129468D01*
X249844Y130124D01*
X250500Y131436D02*
Y132748D01*
Y132092D01*
X246564D01*
X247220Y131436D01*
X250500Y137339D02*
Y134715D01*
X247876Y137339D01*
X247220D01*
X246564Y136683D01*
Y135371D01*
X247220Y134715D01*
X256720Y129624D02*
X256064Y128968D01*
Y127656D01*
X256720Y127000D01*
X259344D01*
X260000Y127656D01*
Y128968D01*
X259344Y129624D01*
X260000Y130936D02*
Y132248D01*
Y131592D01*
X256064D01*
X256720Y130936D01*
Y134215D02*
X256064Y134871D01*
Y136183D01*
X256720Y136839D01*
X257376D01*
X258032Y136183D01*
Y135527D01*
Y136183D01*
X258688Y136839D01*
X259344D01*
X260000Y136183D01*
Y134871D01*
X259344Y134215D01*
X70696Y198424D02*
X70040Y197768D01*
Y196456D01*
X70696Y195800D01*
X73320D01*
X73976Y196456D01*
Y197768D01*
X73320Y198424D01*
X73976Y199736D02*
Y201048D01*
Y200392D01*
X70040D01*
X70696Y199736D01*
X73976Y204983D02*
X70040D01*
X72008Y203015D01*
Y205639D01*
X74632Y206951D02*
Y209575D01*
X70696Y213511D02*
X70040Y212855D01*
Y211543D01*
X70696Y210887D01*
X71352D01*
X72008Y211543D01*
Y212855D01*
X72664Y213511D01*
X73320D01*
X73976Y212855D01*
Y211543D01*
X73320Y210887D01*
X73976Y214823D02*
Y216135D01*
Y215479D01*
X70040D01*
X70696Y214823D01*
X116696Y198424D02*
X116040Y197768D01*
Y196456D01*
X116696Y195800D01*
X119320D01*
X119976Y196456D01*
Y197768D01*
X119320Y198424D01*
X119976Y199736D02*
Y201048D01*
Y200392D01*
X116040D01*
X116696Y199736D01*
X119976Y204983D02*
X116040D01*
X118008Y203015D01*
Y205639D01*
X120632Y206951D02*
Y209575D01*
X116696Y213511D02*
X116040Y212855D01*
Y211543D01*
X116696Y210887D01*
X117352D01*
X118008Y211543D01*
Y212855D01*
X118664Y213511D01*
X119320D01*
X119976Y212855D01*
Y211543D01*
X119320Y210887D01*
X119976Y217447D02*
Y214823D01*
X117352Y217447D01*
X116696D01*
X116040Y216791D01*
Y215479D01*
X116696Y214823D01*
X162744Y198424D02*
X162088Y197768D01*
Y196456D01*
X162744Y195800D01*
X165368D01*
X166024Y196456D01*
Y197768D01*
X165368Y198424D01*
X166024Y199736D02*
Y201048D01*
Y200392D01*
X162088D01*
X162744Y199736D01*
X166024Y204983D02*
X162088D01*
X164056Y203015D01*
Y205639D01*
X166680Y206951D02*
Y209575D01*
X162744Y213511D02*
X162088Y212855D01*
Y211543D01*
X162744Y210887D01*
X163400D01*
X164056Y211543D01*
Y212855D01*
X164712Y213511D01*
X165368D01*
X166024Y212855D01*
Y211543D01*
X165368Y210887D01*
X162744Y214823D02*
X162088Y215479D01*
Y216791D01*
X162744Y217447D01*
X163400D01*
X164056Y216791D01*
Y216135D01*
Y216791D01*
X164712Y217447D01*
X165368D01*
X166024Y216791D01*
Y215479D01*
X165368Y214823D01*
X208744Y198424D02*
X208088Y197768D01*
Y196456D01*
X208744Y195800D01*
X211368D01*
X212024Y196456D01*
Y197768D01*
X211368Y198424D01*
X212024Y199736D02*
Y201048D01*
Y200392D01*
X208088D01*
X208744Y199736D01*
X212024Y204983D02*
X208088D01*
X210056Y203015D01*
Y205639D01*
X212680Y206951D02*
Y209575D01*
X208744Y213511D02*
X208088Y212855D01*
Y211543D01*
X208744Y210887D01*
X209400D01*
X210056Y211543D01*
Y212855D01*
X210712Y213511D01*
X211368D01*
X212024Y212855D01*
Y211543D01*
X211368Y210887D01*
X212024Y216791D02*
X208088D01*
X210056Y214823D01*
Y217447D01*
X254696Y198424D02*
X254040Y197768D01*
Y196456D01*
X254696Y195800D01*
X257320D01*
X257976Y196456D01*
Y197768D01*
X257320Y198424D01*
X257976Y199736D02*
Y201048D01*
Y200392D01*
X254040D01*
X254696Y199736D01*
X257976Y204983D02*
X254040D01*
X256008Y203015D01*
Y205639D01*
X258632Y206951D02*
Y209575D01*
X254696Y213511D02*
X254040Y212855D01*
Y211543D01*
X254696Y210887D01*
X255352D01*
X256008Y211543D01*
Y212855D01*
X256664Y213511D01*
X257320D01*
X257976Y212855D01*
Y211543D01*
X257320Y210887D01*
X254040Y217447D02*
Y214823D01*
X256008D01*
X255352Y216135D01*
Y216791D01*
X256008Y217447D01*
X257320D01*
X257976Y216791D01*
Y215479D01*
X257320Y214823D01*
X300744Y198424D02*
X300088Y197768D01*
Y196456D01*
X300744Y195800D01*
X303368D01*
X304024Y196456D01*
Y197768D01*
X303368Y198424D01*
X304024Y199736D02*
Y201048D01*
Y200392D01*
X300088D01*
X300744Y199736D01*
X304024Y204983D02*
X300088D01*
X302056Y203015D01*
Y205639D01*
X304680Y206951D02*
Y209575D01*
X300744Y213511D02*
X300088Y212855D01*
Y211543D01*
X300744Y210887D01*
X301400D01*
X302056Y211543D01*
Y212855D01*
X302712Y213511D01*
X303368D01*
X304024Y212855D01*
Y211543D01*
X303368Y210887D01*
X300088Y217447D02*
X300744Y216135D01*
X302056Y214823D01*
X303368D01*
X304024Y215479D01*
Y216791D01*
X303368Y217447D01*
X302712D01*
X302056Y216791D01*
Y214823D01*
X316720Y196624D02*
X316064Y195968D01*
Y194656D01*
X316720Y194000D01*
X319344D01*
X320000Y194656D01*
Y195968D01*
X319344Y196624D01*
X320000Y197936D02*
Y199248D01*
Y198592D01*
X316064D01*
X316720Y197936D01*
X320000Y203183D02*
X316064D01*
X318032Y201216D01*
Y203839D01*
X320656Y205151D02*
Y207775D01*
X316720Y211711D02*
X316064Y211055D01*
Y209743D01*
X316720Y209087D01*
X317376D01*
X318032Y209743D01*
Y211055D01*
X318688Y211711D01*
X319344D01*
X320000Y211055D01*
Y209743D01*
X319344Y209087D01*
X316064Y213023D02*
Y215647D01*
X316720D01*
X319344Y213023D01*
X320000D01*
X43380Y76976D02*
X44036Y77632D01*
Y78944D01*
X43380Y79600D01*
X40756D01*
X40100Y78944D01*
Y77632D01*
X40756Y76976D01*
X40100Y75664D02*
Y74352D01*
Y75008D01*
X44036D01*
X43380Y75664D01*
X40100Y70417D02*
X44036D01*
X42068Y72385D01*
Y69761D01*
X39444Y68449D02*
Y65825D01*
X43380Y61889D02*
X44036Y62545D01*
Y63857D01*
X43380Y64513D01*
X42724D01*
X42068Y63857D01*
Y62545D01*
X41412Y61889D01*
X40756D01*
X40100Y62545D01*
Y63857D01*
X40756Y64513D01*
X43380Y60577D02*
X44036Y59921D01*
Y58609D01*
X43380Y57953D01*
X42724D01*
X42068Y58609D01*
X41412Y57953D01*
X40756D01*
X40100Y58609D01*
Y59921D01*
X40756Y60577D01*
X41412D01*
X42068Y59921D01*
X42724Y60577D01*
X43380D01*
X42068Y59921D02*
Y58609D01*
X89380Y76976D02*
X90036Y77632D01*
Y78944D01*
X89380Y79600D01*
X86756D01*
X86100Y78944D01*
Y77632D01*
X86756Y76976D01*
X86100Y75664D02*
Y74352D01*
Y75008D01*
X90036D01*
X89380Y75664D01*
X86100Y70417D02*
X90036D01*
X88068Y72385D01*
Y69761D01*
X85444Y68449D02*
Y65825D01*
X89380Y61889D02*
X90036Y62545D01*
Y63857D01*
X89380Y64513D01*
X88724D01*
X88068Y63857D01*
Y62545D01*
X87412Y61889D01*
X86756D01*
X86100Y62545D01*
Y63857D01*
X86756Y64513D01*
Y60577D02*
X86100Y59921D01*
Y58609D01*
X86756Y57953D01*
X89380D01*
X90036Y58609D01*
Y59921D01*
X89380Y60577D01*
X88724D01*
X88068Y59921D01*
Y57953D01*
X135280Y77076D02*
X135936Y77732D01*
Y79044D01*
X135280Y79700D01*
X132656D01*
X132000Y79044D01*
Y77732D01*
X132656Y77076D01*
X132000Y75764D02*
Y74452D01*
Y75108D01*
X135936D01*
X135280Y75764D01*
X132000Y70517D02*
X135936D01*
X133968Y72484D01*
Y69861D01*
X131344Y68549D02*
Y65925D01*
X135280Y61989D02*
X135936Y62645D01*
Y63957D01*
X135280Y64613D01*
X134624D01*
X133968Y63957D01*
Y62645D01*
X133312Y61989D01*
X132656D01*
X132000Y62645D01*
Y63957D01*
X132656Y64613D01*
X132000Y60677D02*
Y59365D01*
Y60021D01*
X135936D01*
X135280Y60677D01*
Y57398D02*
X135936Y56741D01*
Y55430D01*
X135280Y54774D01*
X132656D01*
X132000Y55430D01*
Y56741D01*
X132656Y57398D01*
X135280D01*
X181180Y76876D02*
X181836Y77532D01*
Y78844D01*
X181180Y79500D01*
X178556D01*
X177900Y78844D01*
Y77532D01*
X178556Y76876D01*
X177900Y75564D02*
Y74252D01*
Y74908D01*
X181836D01*
X181180Y75564D01*
X177900Y70317D02*
X181836D01*
X179868Y72285D01*
Y69661D01*
X177244Y68349D02*
Y65725D01*
X181180Y61789D02*
X181836Y62445D01*
Y63757D01*
X181180Y64413D01*
X180524D01*
X179868Y63757D01*
Y62445D01*
X179212Y61789D01*
X178556D01*
X177900Y62445D01*
Y63757D01*
X178556Y64413D01*
X177900Y60477D02*
Y59165D01*
Y59821D01*
X181836D01*
X181180Y60477D01*
X177900Y57197D02*
Y55886D01*
Y56542D01*
X181836D01*
X181180Y57197D01*
X227280Y76976D02*
X227936Y77632D01*
Y78944D01*
X227280Y79600D01*
X224656D01*
X224000Y78944D01*
Y77632D01*
X224656Y76976D01*
X224000Y75664D02*
Y74352D01*
Y75008D01*
X227936D01*
X227280Y75664D01*
X224000Y70417D02*
X227936D01*
X225968Y72385D01*
Y69761D01*
X223344Y68449D02*
Y65825D01*
X227280Y61889D02*
X227936Y62545D01*
Y63857D01*
X227280Y64513D01*
X226624D01*
X225968Y63857D01*
Y62545D01*
X225312Y61889D01*
X224656D01*
X224000Y62545D01*
Y63857D01*
X224656Y64513D01*
X224000Y60577D02*
Y59265D01*
Y59921D01*
X227936D01*
X227280Y60577D01*
X224000Y54674D02*
Y57297D01*
X226624Y54674D01*
X227280D01*
X227936Y55330D01*
Y56642D01*
X227280Y57297D01*
X273780Y76876D02*
X274436Y77532D01*
Y78844D01*
X273780Y79500D01*
X271156D01*
X270500Y78844D01*
Y77532D01*
X271156Y76876D01*
X270500Y75564D02*
Y74252D01*
Y74908D01*
X274436D01*
X273780Y75564D01*
X270500Y70317D02*
X274436D01*
X272468Y72285D01*
Y69661D01*
X269844Y68349D02*
Y65725D01*
X273780Y61789D02*
X274436Y62445D01*
Y63757D01*
X273780Y64413D01*
X273124D01*
X272468Y63757D01*
Y62445D01*
X271812Y61789D01*
X271156D01*
X270500Y62445D01*
Y63757D01*
X271156Y64413D01*
X270500Y60477D02*
Y59165D01*
Y59821D01*
X274436D01*
X273780Y60477D01*
Y57197D02*
X274436Y56542D01*
Y55230D01*
X273780Y54574D01*
X273124D01*
X272468Y55230D01*
Y55886D01*
Y55230D01*
X271812Y54574D01*
X271156D01*
X270500Y55230D01*
Y56542D01*
X271156Y57197D01*
X319380Y76976D02*
X320036Y77632D01*
Y78944D01*
X319380Y79600D01*
X316756D01*
X316100Y78944D01*
Y77632D01*
X316756Y76976D01*
X316100Y75664D02*
Y74352D01*
Y75008D01*
X320036D01*
X319380Y75664D01*
X316100Y70417D02*
X320036D01*
X318068Y72385D01*
Y69761D01*
X315444Y68449D02*
Y65825D01*
X319380Y61889D02*
X320036Y62545D01*
Y63857D01*
X319380Y64513D01*
X318724D01*
X318068Y63857D01*
Y62545D01*
X317412Y61889D01*
X316756D01*
X316100Y62545D01*
Y63857D01*
X316756Y64513D01*
X316100Y60577D02*
Y59265D01*
Y59921D01*
X320036D01*
X319380Y60577D01*
X316100Y55330D02*
X320036D01*
X318068Y57297D01*
Y54674D01*
X206000Y125936D02*
X207312D01*
X206656D01*
Y122000D01*
X206000D01*
X207312D01*
X211904Y125280D02*
X211248Y125936D01*
X209936D01*
X209280Y125280D01*
Y124624D01*
X209936Y123968D01*
X211248D01*
X211904Y123312D01*
Y122656D01*
X211248Y122000D01*
X209936D01*
X209280Y122656D01*
X215839Y125280D02*
X215183Y125936D01*
X213872D01*
X213215Y125280D01*
Y122656D01*
X213872Y122000D01*
X215183D01*
X215839Y122656D01*
X217151Y122000D02*
Y125936D01*
X219119D01*
X219775Y125280D01*
Y123968D01*
X219119Y123312D01*
X217151D01*
X221087Y122000D02*
X222399D01*
X221743D01*
Y125936D01*
X221087Y125280D01*
X138064Y131000D02*
X142000D01*
Y133624D01*
Y134936D02*
Y136248D01*
Y135592D01*
X138064D01*
X138720Y134936D01*
X37000Y258000D02*
X33064D01*
X34376Y259312D01*
X33064Y260624D01*
X37000D01*
X37656Y261936D02*
Y264560D01*
X33720Y268495D02*
X33064Y267839D01*
Y266527D01*
X33720Y265872D01*
X36344D01*
X37000Y266527D01*
Y267839D01*
X36344Y268495D01*
X37000Y269807D02*
Y271119D01*
Y270463D01*
X33064D01*
X33720Y269807D01*
X83000Y258000D02*
X79064D01*
X80376Y259312D01*
X79064Y260624D01*
X83000D01*
X83656Y261936D02*
Y264560D01*
X79720Y268495D02*
X79064Y267839D01*
Y266527D01*
X79720Y265872D01*
X82344D01*
X83000Y266527D01*
Y267839D01*
X82344Y268495D01*
X83000Y272431D02*
Y269807D01*
X80376Y272431D01*
X79720D01*
X79064Y271775D01*
Y270463D01*
X79720Y269807D01*
X129000Y258000D02*
X125064D01*
X126376Y259312D01*
X125064Y260624D01*
X129000D01*
X129656Y261936D02*
Y264560D01*
X125720Y268495D02*
X125064Y267839D01*
Y266527D01*
X125720Y265872D01*
X128344D01*
X129000Y266527D01*
Y267839D01*
X128344Y268495D01*
X125720Y269807D02*
X125064Y270463D01*
Y271775D01*
X125720Y272431D01*
X126376D01*
X127032Y271775D01*
Y271119D01*
Y271775D01*
X127688Y272431D01*
X128344D01*
X129000Y271775D01*
Y270463D01*
X128344Y269807D01*
X175000Y258000D02*
X171064D01*
X172376Y259312D01*
X171064Y260624D01*
X175000D01*
X175656Y261936D02*
Y264560D01*
X171720Y268495D02*
X171064Y267839D01*
Y266527D01*
X171720Y265872D01*
X174344D01*
X175000Y266527D01*
Y267839D01*
X174344Y268495D01*
X175000Y271775D02*
X171064D01*
X173032Y269807D01*
Y272431D01*
X221000Y258000D02*
X217064D01*
X218376Y259312D01*
X217064Y260624D01*
X221000D01*
X221656Y261936D02*
Y264560D01*
X217720Y268495D02*
X217064Y267839D01*
Y266527D01*
X217720Y265872D01*
X220344D01*
X221000Y266527D01*
Y267839D01*
X220344Y268495D01*
X217064Y272431D02*
Y269807D01*
X219032D01*
X218376Y271119D01*
Y271775D01*
X219032Y272431D01*
X220344D01*
X221000Y271775D01*
Y270463D01*
X220344Y269807D01*
X267000Y258000D02*
X263064D01*
X264376Y259312D01*
X263064Y260624D01*
X267000D01*
X267656Y261936D02*
Y264560D01*
X263720Y268495D02*
X263064Y267839D01*
Y266527D01*
X263720Y265872D01*
X266344D01*
X267000Y266527D01*
Y267839D01*
X266344Y268495D01*
X263064Y272431D02*
X263720Y271119D01*
X265032Y269807D01*
X266344D01*
X267000Y270463D01*
Y271775D01*
X266344Y272431D01*
X265688D01*
X265032Y271775D01*
Y269807D01*
X313000Y257000D02*
X309064D01*
X310376Y258312D01*
X309064Y259624D01*
X313000D01*
X313656Y260936D02*
Y263560D01*
X309720Y267495D02*
X309064Y266839D01*
Y265527D01*
X309720Y264872D01*
X312344D01*
X313000Y265527D01*
Y266839D01*
X312344Y267495D01*
X309064Y268807D02*
Y271431D01*
X309720D01*
X312344Y268807D01*
X313000D01*
X75000Y20000D02*
X78936D01*
X77624Y18688D01*
X78936Y17376D01*
X75000D01*
X74344Y16064D02*
Y13440D01*
X78280Y9505D02*
X78936Y10161D01*
Y11473D01*
X78280Y12128D01*
X75656D01*
X75000Y11473D01*
Y10161D01*
X75656Y9505D01*
X78280Y8193D02*
X78936Y7537D01*
Y6225D01*
X78280Y5569D01*
X77624D01*
X76968Y6225D01*
X76312Y5569D01*
X75656D01*
X75000Y6225D01*
Y7537D01*
X75656Y8193D01*
X76312D01*
X76968Y7537D01*
X77624Y8193D01*
X78280D01*
X76968Y7537D02*
Y6225D01*
X121000Y20000D02*
X124936D01*
X123624Y18688D01*
X124936Y17376D01*
X121000D01*
X120344Y16064D02*
Y13440D01*
X124280Y9505D02*
X124936Y10161D01*
Y11473D01*
X124280Y12128D01*
X121656D01*
X121000Y11473D01*
Y10161D01*
X121656Y9505D01*
Y8193D02*
X121000Y7537D01*
Y6225D01*
X121656Y5569D01*
X124280D01*
X124936Y6225D01*
Y7537D01*
X124280Y8193D01*
X123624D01*
X122968Y7537D01*
Y5569D01*
X167000Y20000D02*
X170936D01*
X169624Y18688D01*
X170936Y17376D01*
X167000D01*
X166344Y16064D02*
Y13440D01*
X170280Y9505D02*
X170936Y10161D01*
Y11473D01*
X170280Y12128D01*
X167656D01*
X167000Y11473D01*
Y10161D01*
X167656Y9505D01*
X167000Y8193D02*
Y6881D01*
Y7537D01*
X170936D01*
X170280Y8193D01*
Y4913D02*
X170936Y4257D01*
Y2945D01*
X170280Y2289D01*
X167656D01*
X167000Y2945D01*
Y4257D01*
X167656Y4913D01*
X170280D01*
X213000Y20000D02*
X216936D01*
X215624Y18688D01*
X216936Y17376D01*
X213000D01*
X212344Y16064D02*
Y13440D01*
X216280Y9505D02*
X216936Y10161D01*
Y11473D01*
X216280Y12128D01*
X213656D01*
X213000Y11473D01*
Y10161D01*
X213656Y9505D01*
X213000Y8193D02*
Y6881D01*
Y7537D01*
X216936D01*
X216280Y8193D01*
X213000Y4913D02*
Y3601D01*
Y4257D01*
X216936D01*
X216280Y4913D01*
X259000Y20000D02*
X262936D01*
X261624Y18688D01*
X262936Y17376D01*
X259000D01*
X258344Y16064D02*
Y13440D01*
X262280Y9505D02*
X262936Y10161D01*
Y11473D01*
X262280Y12128D01*
X259656D01*
X259000Y11473D01*
Y10161D01*
X259656Y9505D01*
X259000Y8193D02*
Y6881D01*
Y7537D01*
X262936D01*
X262280Y8193D01*
X259000Y2289D02*
Y4913D01*
X261624Y2289D01*
X262280D01*
X262936Y2945D01*
Y4257D01*
X262280Y4913D01*
X305000Y20000D02*
X308936D01*
X307624Y18688D01*
X308936Y17376D01*
X305000D01*
X304344Y16064D02*
Y13440D01*
X308280Y9505D02*
X308936Y10161D01*
Y11473D01*
X308280Y12128D01*
X305656D01*
X305000Y11473D01*
Y10161D01*
X305656Y9505D01*
X305000Y8193D02*
Y6881D01*
Y7537D01*
X308936D01*
X308280Y8193D01*
Y4913D02*
X308936Y4257D01*
Y2945D01*
X308280Y2289D01*
X307624D01*
X306968Y2945D01*
Y3601D01*
Y2945D01*
X306312Y2289D01*
X305656D01*
X305000Y2945D01*
Y4257D01*
X305656Y4913D01*
X351000Y20000D02*
X354936D01*
X353624Y18688D01*
X354936Y17376D01*
X351000D01*
X350344Y16064D02*
Y13440D01*
X354280Y9505D02*
X354936Y10161D01*
Y11473D01*
X354280Y12128D01*
X351656D01*
X351000Y11473D01*
Y10161D01*
X351656Y9505D01*
X351000Y8193D02*
Y6881D01*
Y7537D01*
X354936D01*
X354280Y8193D01*
X351000Y2945D02*
X354936D01*
X352968Y4913D01*
Y2289D01*
X268000Y108000D02*
Y111936D01*
X269312Y110624D01*
X270624Y111936D01*
Y108000D01*
X274560Y111280D02*
X273904Y111936D01*
X272592D01*
X271936Y111280D01*
Y108656D01*
X272592Y108000D01*
X273904D01*
X274560Y108656D01*
X275871Y108000D02*
Y111936D01*
X277839D01*
X278495Y111280D01*
Y109968D01*
X277839Y109312D01*
X275871D01*
X279807Y108000D02*
X281119D01*
X280463D01*
Y111936D01*
X279807Y111280D01*
X253500Y183000D02*
Y186936D01*
X254812Y185624D01*
X256124Y186936D01*
Y183000D01*
X260060Y186280D02*
X259404Y186936D01*
X258092D01*
X257436Y186280D01*
Y183656D01*
X258092Y183000D01*
X259404D01*
X260060Y183656D01*
X261371Y183000D02*
Y186936D01*
X263339D01*
X263995Y186280D01*
Y184968D01*
X263339Y184312D01*
X261371D01*
X267931Y183000D02*
X265307D01*
X267931Y185624D01*
Y186280D01*
X267275Y186936D01*
X265963D01*
X265307Y186280D01*
X38000Y148000D02*
X41936D01*
Y146032D01*
X41280Y145376D01*
X39968D01*
X39312Y146032D01*
Y148000D01*
X38000Y144064D02*
Y142752D01*
Y143408D01*
X41936D01*
X41280Y144064D01*
X38000Y138000D02*
X41936D01*
Y136032D01*
X41280Y135376D01*
X39968D01*
X39312Y136032D01*
Y138000D01*
X38000Y131440D02*
Y134064D01*
X40624Y131440D01*
X41280D01*
X41936Y132096D01*
Y133408D01*
X41280Y134064D01*
X229600Y186700D02*
Y190636D01*
X231568D01*
X232224Y189980D01*
Y188668D01*
X231568Y188012D01*
X229600D01*
X233536Y189324D02*
Y186700D01*
Y188012D01*
X234192Y188668D01*
X234848Y189324D01*
X235504D01*
X238127Y186700D02*
X239439D01*
X240095Y187356D01*
Y188668D01*
X239439Y189324D01*
X238127D01*
X237472Y188668D01*
Y187356D01*
X238127Y186700D01*
X242719Y185388D02*
X243375D01*
X244031Y186044D01*
Y189324D01*
X242063D01*
X241407Y188668D01*
Y187356D01*
X242063Y186700D01*
X244031D01*
X245343D02*
X246655D01*
X245999D01*
Y190636D01*
X245343Y189980D01*
X150000Y162000D02*
X146064D01*
Y163968D01*
X146720Y164624D01*
X148032D01*
X148688Y163968D01*
Y162000D01*
Y163312D02*
X150000Y164624D01*
Y165936D02*
Y167248D01*
Y166592D01*
X146064D01*
X146720Y165936D01*
X76000Y178000D02*
Y181936D01*
X77968D01*
X78624Y181280D01*
Y179968D01*
X77968Y179312D01*
X76000D01*
X77312D02*
X78624Y178000D01*
X82560D02*
X79936D01*
X82560Y180624D01*
Y181280D01*
X81904Y181936D01*
X80592D01*
X79936Y181280D01*
X202000Y168000D02*
Y171936D01*
X203968D01*
X204624Y171280D01*
Y169968D01*
X203968Y169312D01*
X202000D01*
X203312D02*
X204624Y168000D01*
X205936Y171280D02*
X206592Y171936D01*
X207904D01*
X208560Y171280D01*
Y170624D01*
X207904Y169968D01*
X207248D01*
X207904D01*
X208560Y169312D01*
Y168656D01*
X207904Y168000D01*
X206592D01*
X205936Y168656D01*
X54000Y165000D02*
Y168936D01*
X55968D01*
X56624Y168280D01*
Y166968D01*
X55968Y166312D01*
X54000D01*
X55312D02*
X56624Y165000D01*
X59904D02*
Y168936D01*
X57936Y166968D01*
X60560D01*
X54000Y157000D02*
Y160936D01*
X55968D01*
X56624Y160280D01*
Y158968D01*
X55968Y158312D01*
X54000D01*
X55312D02*
X56624Y157000D01*
X60560Y160936D02*
X57936D01*
Y158968D01*
X59248Y159624D01*
X59904D01*
X60560Y158968D01*
Y157656D01*
X59904Y157000D01*
X58592D01*
X57936Y157656D01*
X294500Y92500D02*
X290564D01*
Y94468D01*
X291220Y95124D01*
X292532D01*
X293188Y94468D01*
Y92500D01*
Y93812D02*
X294500Y95124D01*
X290564Y99060D02*
X291220Y97748D01*
X292532Y96436D01*
X293844D01*
X294500Y97092D01*
Y98404D01*
X293844Y99060D01*
X293188D01*
X292532Y98404D01*
Y96436D01*
X255000Y150000D02*
X251064D01*
Y151968D01*
X251720Y152624D01*
X253032D01*
X253688Y151968D01*
Y150000D01*
Y151312D02*
X255000Y152624D01*
X251064Y153936D02*
Y156560D01*
X251720D01*
X254344Y153936D01*
X255000D01*
X141656Y115581D02*
X137720D01*
Y117549D01*
X138376Y118205D01*
X139688D01*
X140344Y117549D01*
Y115581D01*
Y116893D02*
X141656Y118205D01*
X138376Y119517D02*
X137720Y120173D01*
Y121485D01*
X138376Y122141D01*
X139032D01*
X139688Y121485D01*
X140344Y122141D01*
X141000D01*
X141656Y121485D01*
Y120173D01*
X141000Y119517D01*
X140344D01*
X139688Y120173D01*
X139032Y119517D01*
X138376D01*
X139688Y120173D02*
Y121485D01*
X303500Y92000D02*
X299564D01*
Y93968D01*
X300220Y94624D01*
X301532D01*
X302188Y93968D01*
Y92000D01*
Y93312D02*
X303500Y94624D01*
X302844Y95936D02*
X303500Y96592D01*
Y97904D01*
X302844Y98560D01*
X300220D01*
X299564Y97904D01*
Y96592D01*
X300220Y95936D01*
X300876D01*
X301532Y96592D01*
Y98560D01*
X39976Y229800D02*
X36040D01*
Y231768D01*
X36696Y232424D01*
X38008D01*
X38664Y231768D01*
Y229800D01*
Y231112D02*
X39976Y232424D01*
Y233736D02*
Y235048D01*
Y234392D01*
X36040D01*
X36696Y233736D01*
Y237016D02*
X36040Y237671D01*
Y238983D01*
X36696Y239639D01*
X39320D01*
X39976Y238983D01*
Y237671D01*
X39320Y237016D01*
X36696D01*
X40632Y240951D02*
Y243575D01*
X36696Y247511D02*
X36040Y246855D01*
Y245543D01*
X36696Y244887D01*
X37352D01*
X38008Y245543D01*
Y246855D01*
X38664Y247511D01*
X39320D01*
X39976Y246855D01*
Y245543D01*
X39320Y244887D01*
X39976Y248823D02*
Y250135D01*
Y249479D01*
X36040D01*
X36696Y248823D01*
X85976Y229800D02*
X82040D01*
Y231768D01*
X82696Y232424D01*
X84008D01*
X84664Y231768D01*
Y229800D01*
Y231112D02*
X85976Y232424D01*
Y233736D02*
Y235048D01*
Y234392D01*
X82040D01*
X82696Y233736D01*
Y237016D02*
X82040Y237671D01*
Y238983D01*
X82696Y239639D01*
X85320D01*
X85976Y238983D01*
Y237671D01*
X85320Y237016D01*
X82696D01*
X86632Y240951D02*
Y243575D01*
X82696Y247511D02*
X82040Y246855D01*
Y245543D01*
X82696Y244887D01*
X83352D01*
X84008Y245543D01*
Y246855D01*
X84664Y247511D01*
X85320D01*
X85976Y246855D01*
Y245543D01*
X85320Y244887D01*
X85976Y251447D02*
Y248823D01*
X83352Y251447D01*
X82696D01*
X82040Y250791D01*
Y249479D01*
X82696Y248823D01*
X132024Y229800D02*
X128088D01*
Y231768D01*
X128744Y232424D01*
X130056D01*
X130712Y231768D01*
Y229800D01*
Y231112D02*
X132024Y232424D01*
Y233736D02*
Y235048D01*
Y234392D01*
X128088D01*
X128744Y233736D01*
Y237016D02*
X128088Y237671D01*
Y238983D01*
X128744Y239639D01*
X131368D01*
X132024Y238983D01*
Y237671D01*
X131368Y237016D01*
X128744D01*
X132680Y240951D02*
Y243575D01*
X128744Y247511D02*
X128088Y246855D01*
Y245543D01*
X128744Y244887D01*
X129400D01*
X130056Y245543D01*
Y246855D01*
X130712Y247511D01*
X131368D01*
X132024Y246855D01*
Y245543D01*
X131368Y244887D01*
X128744Y248823D02*
X128088Y249479D01*
Y250791D01*
X128744Y251447D01*
X129400D01*
X130056Y250791D01*
Y250135D01*
Y250791D01*
X130712Y251447D01*
X131368D01*
X132024Y250791D01*
Y249479D01*
X131368Y248823D01*
X178024Y229800D02*
X174088D01*
Y231768D01*
X174744Y232424D01*
X176056D01*
X176712Y231768D01*
Y229800D01*
Y231112D02*
X178024Y232424D01*
Y233736D02*
Y235048D01*
Y234392D01*
X174088D01*
X174744Y233736D01*
Y237016D02*
X174088Y237671D01*
Y238983D01*
X174744Y239639D01*
X177368D01*
X178024Y238983D01*
Y237671D01*
X177368Y237016D01*
X174744D01*
X178680Y240951D02*
Y243575D01*
X174744Y247511D02*
X174088Y246855D01*
Y245543D01*
X174744Y244887D01*
X175400D01*
X176056Y245543D01*
Y246855D01*
X176712Y247511D01*
X177368D01*
X178024Y246855D01*
Y245543D01*
X177368Y244887D01*
X178024Y250791D02*
X174088D01*
X176056Y248823D01*
Y251447D01*
X223976Y229800D02*
X220040D01*
Y231768D01*
X220696Y232424D01*
X222008D01*
X222664Y231768D01*
Y229800D01*
Y231112D02*
X223976Y232424D01*
Y233736D02*
Y235048D01*
Y234392D01*
X220040D01*
X220696Y233736D01*
Y237016D02*
X220040Y237671D01*
Y238983D01*
X220696Y239639D01*
X223320D01*
X223976Y238983D01*
Y237671D01*
X223320Y237016D01*
X220696D01*
X224632Y240951D02*
Y243575D01*
X220696Y247511D02*
X220040Y246855D01*
Y245543D01*
X220696Y244887D01*
X221352D01*
X222008Y245543D01*
Y246855D01*
X222664Y247511D01*
X223320D01*
X223976Y246855D01*
Y245543D01*
X223320Y244887D01*
X220040Y251447D02*
Y248823D01*
X222008D01*
X221352Y250135D01*
Y250791D01*
X222008Y251447D01*
X223320D01*
X223976Y250791D01*
Y249479D01*
X223320Y248823D01*
X270024Y229800D02*
X266088D01*
Y231768D01*
X266744Y232424D01*
X268056D01*
X268712Y231768D01*
Y229800D01*
Y231112D02*
X270024Y232424D01*
Y233736D02*
Y235048D01*
Y234392D01*
X266088D01*
X266744Y233736D01*
Y237016D02*
X266088Y237671D01*
Y238983D01*
X266744Y239639D01*
X269368D01*
X270024Y238983D01*
Y237671D01*
X269368Y237016D01*
X266744D01*
X270680Y240951D02*
Y243575D01*
X266744Y247511D02*
X266088Y246855D01*
Y245543D01*
X266744Y244887D01*
X267400D01*
X268056Y245543D01*
Y246855D01*
X268712Y247511D01*
X269368D01*
X270024Y246855D01*
Y245543D01*
X269368Y244887D01*
X266088Y251447D02*
X266744Y250135D01*
X268056Y248823D01*
X269368D01*
X270024Y249479D01*
Y250791D01*
X269368Y251447D01*
X268712D01*
X268056Y250791D01*
Y248823D01*
X316024Y229800D02*
X312088D01*
Y231768D01*
X312744Y232424D01*
X314056D01*
X314712Y231768D01*
Y229800D01*
Y231112D02*
X316024Y232424D01*
Y233736D02*
Y235048D01*
Y234392D01*
X312088D01*
X312744Y233736D01*
Y237016D02*
X312088Y237671D01*
Y238983D01*
X312744Y239639D01*
X315368D01*
X316024Y238983D01*
Y237671D01*
X315368Y237016D01*
X312744D01*
X316680Y240951D02*
Y243575D01*
X312744Y247511D02*
X312088Y246855D01*
Y245543D01*
X312744Y244887D01*
X313400D01*
X314056Y245543D01*
Y246855D01*
X314712Y247511D01*
X315368D01*
X316024Y246855D01*
Y245543D01*
X315368Y244887D01*
X312088Y248823D02*
Y251447D01*
X312744D01*
X315368Y248823D01*
X316024D01*
X72100Y51600D02*
X76036D01*
Y49632D01*
X75380Y48976D01*
X74068D01*
X73412Y49632D01*
Y51600D01*
Y50288D02*
X72100Y48976D01*
Y47664D02*
Y46352D01*
Y47008D01*
X76036D01*
X75380Y47664D01*
Y44385D02*
X76036Y43729D01*
Y42417D01*
X75380Y41761D01*
X72756D01*
X72100Y42417D01*
Y43729D01*
X72756Y44385D01*
X75380D01*
X71444Y40449D02*
Y37825D01*
X75380Y33889D02*
X76036Y34545D01*
Y35857D01*
X75380Y36513D01*
X74724D01*
X74068Y35857D01*
Y34545D01*
X73412Y33889D01*
X72756D01*
X72100Y34545D01*
Y35857D01*
X72756Y36513D01*
X75380Y32577D02*
X76036Y31921D01*
Y30609D01*
X75380Y29953D01*
X74724D01*
X74068Y30609D01*
X73412Y29953D01*
X72756D01*
X72100Y30609D01*
Y31921D01*
X72756Y32577D01*
X73412D01*
X74068Y31921D01*
X74724Y32577D01*
X75380D01*
X74068Y31921D02*
Y30609D01*
X118100Y51600D02*
X122036D01*
Y49632D01*
X121380Y48976D01*
X120068D01*
X119412Y49632D01*
Y51600D01*
Y50288D02*
X118100Y48976D01*
Y47664D02*
Y46352D01*
Y47008D01*
X122036D01*
X121380Y47664D01*
Y44385D02*
X122036Y43729D01*
Y42417D01*
X121380Y41761D01*
X118756D01*
X118100Y42417D01*
Y43729D01*
X118756Y44385D01*
X121380D01*
X117444Y40449D02*
Y37825D01*
X121380Y33889D02*
X122036Y34545D01*
Y35857D01*
X121380Y36513D01*
X120724D01*
X120068Y35857D01*
Y34545D01*
X119412Y33889D01*
X118756D01*
X118100Y34545D01*
Y35857D01*
X118756Y36513D01*
Y32577D02*
X118100Y31921D01*
Y30609D01*
X118756Y29953D01*
X121380D01*
X122036Y30609D01*
Y31921D01*
X121380Y32577D01*
X120724D01*
X120068Y31921D01*
Y29953D01*
X164000Y51700D02*
X167936D01*
Y49732D01*
X167280Y49076D01*
X165968D01*
X165312Y49732D01*
Y51700D01*
Y50388D02*
X164000Y49076D01*
Y47764D02*
Y46452D01*
Y47108D01*
X167936D01*
X167280Y47764D01*
Y44484D02*
X167936Y43828D01*
Y42517D01*
X167280Y41861D01*
X164656D01*
X164000Y42517D01*
Y43828D01*
X164656Y44484D01*
X167280D01*
X163344Y40549D02*
Y37925D01*
X167280Y33989D02*
X167936Y34645D01*
Y35957D01*
X167280Y36613D01*
X166624D01*
X165968Y35957D01*
Y34645D01*
X165312Y33989D01*
X164656D01*
X164000Y34645D01*
Y35957D01*
X164656Y36613D01*
X164000Y32677D02*
Y31365D01*
Y32021D01*
X167936D01*
X167280Y32677D01*
Y29397D02*
X167936Y28741D01*
Y27430D01*
X167280Y26774D01*
X164656D01*
X164000Y27430D01*
Y28741D01*
X164656Y29397D01*
X167280D01*
X209900Y51500D02*
X213836D01*
Y49532D01*
X213180Y48876D01*
X211868D01*
X211212Y49532D01*
Y51500D01*
Y50188D02*
X209900Y48876D01*
Y47564D02*
Y46252D01*
Y46908D01*
X213836D01*
X213180Y47564D01*
Y44284D02*
X213836Y43628D01*
Y42317D01*
X213180Y41661D01*
X210556D01*
X209900Y42317D01*
Y43628D01*
X210556Y44284D01*
X213180D01*
X209244Y40349D02*
Y37725D01*
X213180Y33789D02*
X213836Y34445D01*
Y35757D01*
X213180Y36413D01*
X212524D01*
X211868Y35757D01*
Y34445D01*
X211212Y33789D01*
X210556D01*
X209900Y34445D01*
Y35757D01*
X210556Y36413D01*
X209900Y32477D02*
Y31165D01*
Y31821D01*
X213836D01*
X213180Y32477D01*
X209900Y29197D02*
Y27886D01*
Y28541D01*
X213836D01*
X213180Y29197D01*
X256000Y51600D02*
X259936D01*
Y49632D01*
X259280Y48976D01*
X257968D01*
X257312Y49632D01*
Y51600D01*
Y50288D02*
X256000Y48976D01*
Y47664D02*
Y46352D01*
Y47008D01*
X259936D01*
X259280Y47664D01*
Y44385D02*
X259936Y43729D01*
Y42417D01*
X259280Y41761D01*
X256656D01*
X256000Y42417D01*
Y43729D01*
X256656Y44385D01*
X259280D01*
X255344Y40449D02*
Y37825D01*
X259280Y33889D02*
X259936Y34545D01*
Y35857D01*
X259280Y36513D01*
X258624D01*
X257968Y35857D01*
Y34545D01*
X257312Y33889D01*
X256656D01*
X256000Y34545D01*
Y35857D01*
X256656Y36513D01*
X256000Y32577D02*
Y31265D01*
Y31921D01*
X259936D01*
X259280Y32577D01*
X256000Y26674D02*
Y29298D01*
X258624Y26674D01*
X259280D01*
X259936Y27330D01*
Y28642D01*
X259280Y29298D01*
X302500Y51500D02*
X306436D01*
Y49532D01*
X305780Y48876D01*
X304468D01*
X303812Y49532D01*
Y51500D01*
Y50188D02*
X302500Y48876D01*
Y47564D02*
Y46252D01*
Y46908D01*
X306436D01*
X305780Y47564D01*
Y44284D02*
X306436Y43628D01*
Y42317D01*
X305780Y41661D01*
X303156D01*
X302500Y42317D01*
Y43628D01*
X303156Y44284D01*
X305780D01*
X301844Y40349D02*
Y37725D01*
X305780Y33789D02*
X306436Y34445D01*
Y35757D01*
X305780Y36413D01*
X305124D01*
X304468Y35757D01*
Y34445D01*
X303812Y33789D01*
X303156D01*
X302500Y34445D01*
Y35757D01*
X303156Y36413D01*
X302500Y32477D02*
Y31165D01*
Y31821D01*
X306436D01*
X305780Y32477D01*
Y29197D02*
X306436Y28541D01*
Y27230D01*
X305780Y26574D01*
X305124D01*
X304468Y27230D01*
Y27886D01*
Y27230D01*
X303812Y26574D01*
X303156D01*
X302500Y27230D01*
Y28541D01*
X303156Y29197D01*
X348100Y51600D02*
X352036D01*
Y49632D01*
X351380Y48976D01*
X350068D01*
X349412Y49632D01*
Y51600D01*
Y50288D02*
X348100Y48976D01*
Y47664D02*
Y46352D01*
Y47008D01*
X352036D01*
X351380Y47664D01*
Y44385D02*
X352036Y43729D01*
Y42417D01*
X351380Y41761D01*
X348756D01*
X348100Y42417D01*
Y43729D01*
X348756Y44385D01*
X351380D01*
X347444Y40449D02*
Y37825D01*
X351380Y33889D02*
X352036Y34545D01*
Y35857D01*
X351380Y36513D01*
X350724D01*
X350068Y35857D01*
Y34545D01*
X349412Y33889D01*
X348756D01*
X348100Y34545D01*
Y35857D01*
X348756Y36513D01*
X348100Y32577D02*
Y31265D01*
Y31921D01*
X352036D01*
X351380Y32577D01*
X348100Y27330D02*
X352036D01*
X350068Y29298D01*
Y26674D01*
X144624Y189280D02*
X143968Y189936D01*
X142656D01*
X142000Y189280D01*
Y188624D01*
X142656Y187968D01*
X143968D01*
X144624Y187312D01*
Y186656D01*
X143968Y186000D01*
X142656D01*
X142000Y186656D01*
X145936Y186000D02*
X147248D01*
X146592D01*
Y189936D01*
X145936Y189280D01*
X191000Y171936D02*
Y168656D01*
X191656Y168000D01*
X192968D01*
X193624Y168656D01*
Y171936D01*
X194936Y168000D02*
X196248D01*
X195592D01*
Y171936D01*
X194936Y171280D01*
X169000Y122936D02*
Y122280D01*
X170312Y120968D01*
X171624Y122280D01*
Y122936D01*
X170312Y120968D02*
Y119000D01*
X172936D02*
X174248D01*
X173592D01*
Y122936D01*
X172936Y122280D01*
X237000Y110936D02*
Y110280D01*
X238312Y108968D01*
X239624Y110280D01*
Y110936D01*
X238312Y108968D02*
Y107000D01*
X243560D02*
X240936D01*
X243560Y109624D01*
Y110280D01*
X242904Y110936D01*
X241592D01*
X240936Y110280D01*
X354000Y91936D02*
Y88000D01*
X355312Y89312D01*
X356624Y88000D01*
Y91936D01*
X360560D02*
X359248D01*
X359904D01*
Y88656D01*
X359248Y88000D01*
X358592D01*
X357936Y88656D01*
X363839Y88000D02*
Y91936D01*
X361872Y89968D01*
X364495D01*
X368431Y91936D02*
X365807D01*
Y89968D01*
X367119Y90624D01*
X367775D01*
X368431Y89968D01*
Y88656D01*
X367775Y88000D01*
X366463D01*
X365807Y88656D01*
X372367Y91280D02*
X371711Y91936D01*
X370399D01*
X369743Y91280D01*
Y88656D01*
X370399Y88000D01*
X371711D01*
X372367Y88656D01*
X373679Y89968D02*
X376303D01*
X377614Y91936D02*
Y88000D01*
X379582D01*
X380238Y88656D01*
Y89312D01*
X379582Y89968D01*
X377614D01*
X379582D01*
X380238Y90624D01*
Y91280D01*
X379582Y91936D01*
X377614D01*
X381550Y89968D02*
X384174D01*
X388110Y88000D02*
X385486D01*
X388110Y90624D01*
Y91280D01*
X387454Y91936D01*
X386142D01*
X385486Y91280D01*
X389422Y88000D02*
Y91936D01*
X391389D01*
X392045Y91280D01*
Y89968D01*
X391389Y89312D01*
X389422D01*
X301887Y133757D02*
X301231Y134413D01*
X299919D01*
X299263Y133757D01*
Y131133D01*
X299919Y130477D01*
X301231D01*
X301887Y131133D01*
X303199Y130477D02*
X304511D01*
X303855D01*
Y134413D01*
X303199Y133757D01*
X309102Y134413D02*
X306479D01*
Y132445D01*
X307790Y133101D01*
X308446D01*
X309102Y132445D01*
Y131133D01*
X308446Y130477D01*
X307135D01*
X306479Y131133D01*
X68563Y153313D02*
Y149377D01*
X70531D01*
X71187Y150033D01*
Y152657D01*
X70531Y153313D01*
X68563D01*
X72499Y149377D02*
X73811D01*
X73155D01*
Y153313D01*
X72499Y152657D01*
X65187Y126013D02*
X62563D01*
Y122077D01*
X65187D01*
X62563Y124045D02*
X63875D01*
X66499Y121421D02*
X69123D01*
X73058Y125357D02*
X72402Y126013D01*
X71090D01*
X70434Y125357D01*
Y122733D01*
X71090Y122077D01*
X72402D01*
X73058Y122733D01*
X74370Y122077D02*
X75682D01*
X75026D01*
Y126013D01*
X74370Y125357D01*
X224540Y131328D02*
X222530Y133015D01*
X221265Y131508D01*
X222691Y131167D01*
X223194Y130745D01*
X223275Y129821D01*
X222432Y128816D01*
X221508Y128735D01*
X220502Y129578D01*
X220422Y130502D01*
X225545Y130485D02*
X223858Y128475D01*
X224020Y126627D01*
X225868Y126789D01*
X227555Y128799D01*
X221118Y141826D02*
X221037Y142750D01*
X220032Y143593D01*
X219108Y143512D01*
X217422Y141502D01*
X217502Y140578D01*
X218508Y139735D01*
X219432Y139816D01*
X220275Y140821D01*
X219270Y141664D01*
X220015Y138470D02*
X222545Y141485D01*
X222025Y136784D01*
X224555Y139799D01*
X225560Y138955D02*
X223030Y135940D01*
X224537Y134675D01*
X225462Y134756D01*
X227148Y136766D01*
X227067Y137690D01*
X225560Y138955D01*
X222530Y152015D02*
X224540Y150328D01*
X223535Y151172D01*
X221005Y148157D01*
X225545Y149485D02*
X225025Y144784D01*
X227555Y147799D02*
X223015Y146470D01*
X220000Y159000D02*
X222530Y162015D01*
X224037Y160750D01*
X224118Y159826D01*
X223275Y158821D01*
X222351Y158740D01*
X220843Y160005D01*
X221848Y159162D02*
X222010Y157313D01*
X225545Y159485D02*
X225025Y154784D01*
X227555Y157799D02*
X223015Y156470D01*
X243530Y169015D02*
X241000Y166000D01*
X242508Y164735D01*
X243432Y164816D01*
X245118Y166826D01*
X245037Y167750D01*
X243530Y169015D01*
X246545Y166485D02*
X248555Y164799D01*
X247550Y165642D01*
X245020Y162627D01*
X247030Y160940D02*
X249560Y163955D01*
X251067Y162690D01*
X251148Y161766D01*
X250305Y160761D01*
X249381Y160680D01*
X247873Y161945D01*
X248878Y161102D02*
X249040Y159254D01*
X241000Y175000D02*
X243530Y178015D01*
X243010Y173313D01*
X245540Y176328D01*
X248133Y173296D02*
X248052Y174220D01*
X247047Y175064D01*
X246123Y174983D01*
X244437Y172973D01*
X244517Y172048D01*
X245522Y171205D01*
X246447Y171286D01*
D43*
X68984Y13000D02*
X68890Y14008D01*
X68613Y14981D01*
X68162Y15887D01*
X67552Y16694D01*
X66805Y17376D01*
X65944Y17909D01*
X65001Y18274D01*
X64006Y18460D01*
X62994D01*
X61999Y18274D01*
X61056Y17909D01*
X60195Y17376D01*
X59448Y16694D01*
X58838Y15887D01*
X58387Y14981D01*
X58110Y14008D01*
X58016Y13000D01*
X58110Y11992D01*
X58387Y11019D01*
X58838Y10113D01*
X59448Y9306D01*
X60195Y8624D01*
X61056Y8091D01*
X61999Y7726D01*
X62994Y7540D01*
X64006D01*
X65001Y7726D01*
X65944Y8091D01*
X66805Y8624D01*
X67552Y9306D01*
X68162Y10113D01*
X68613Y11019D01*
X68890Y11992D01*
X68984Y13000D01*
X114984D02*
X114890Y14008D01*
X114613Y14981D01*
X114162Y15887D01*
X113552Y16694D01*
X112805Y17376D01*
X111944Y17909D01*
X111001Y18274D01*
X110006Y18460D01*
X108994D01*
X107999Y18274D01*
X107056Y17909D01*
X106195Y17376D01*
X105448Y16694D01*
X104838Y15887D01*
X104387Y14981D01*
X104110Y14008D01*
X104016Y13000D01*
X104110Y11992D01*
X104387Y11019D01*
X104838Y10113D01*
X105448Y9306D01*
X106195Y8624D01*
X107056Y8091D01*
X107999Y7726D01*
X108994Y7540D01*
X110006D01*
X111001Y7726D01*
X111944Y8091D01*
X112805Y8624D01*
X113552Y9306D01*
X114162Y10113D01*
X114613Y11019D01*
X114890Y11992D01*
X114984Y13000D01*
X160984D02*
X160890Y14008D01*
X160613Y14981D01*
X160162Y15887D01*
X159552Y16694D01*
X158805Y17376D01*
X157944Y17909D01*
X157001Y18274D01*
X156006Y18460D01*
X154994D01*
X153999Y18274D01*
X153056Y17909D01*
X152195Y17376D01*
X151448Y16694D01*
X150838Y15887D01*
X150387Y14981D01*
X150110Y14008D01*
X150016Y13000D01*
X150110Y11992D01*
X150387Y11019D01*
X150838Y10113D01*
X151448Y9306D01*
X152195Y8624D01*
X153056Y8091D01*
X153999Y7726D01*
X154994Y7540D01*
X156006D01*
X157001Y7726D01*
X157944Y8091D01*
X158805Y8624D01*
X159552Y9306D01*
X160162Y10113D01*
X160613Y11019D01*
X160890Y11992D01*
X160984Y13000D01*
X206984D02*
X206890Y14008D01*
X206613Y14981D01*
X206162Y15887D01*
X205552Y16694D01*
X204805Y17376D01*
X203944Y17909D01*
X203001Y18274D01*
X202006Y18460D01*
X200994D01*
X199999Y18274D01*
X199056Y17909D01*
X198195Y17376D01*
X197448Y16694D01*
X196838Y15887D01*
X196387Y14981D01*
X196110Y14008D01*
X196016Y13000D01*
X196110Y11992D01*
X196387Y11019D01*
X196838Y10113D01*
X197448Y9306D01*
X198195Y8624D01*
X199056Y8091D01*
X199999Y7726D01*
X200994Y7540D01*
X202006D01*
X203001Y7726D01*
X203944Y8091D01*
X204805Y8624D01*
X205552Y9306D01*
X206162Y10113D01*
X206613Y11019D01*
X206890Y11992D01*
X206984Y13000D01*
X252984D02*
X252890Y14008D01*
X252613Y14981D01*
X252162Y15887D01*
X251552Y16694D01*
X250805Y17376D01*
X249944Y17909D01*
X249001Y18274D01*
X248006Y18460D01*
X246994D01*
X245999Y18274D01*
X245056Y17909D01*
X244195Y17376D01*
X243448Y16694D01*
X242838Y15887D01*
X242387Y14981D01*
X242110Y14008D01*
X242016Y13000D01*
X242110Y11992D01*
X242387Y11019D01*
X242838Y10113D01*
X243448Y9306D01*
X244195Y8624D01*
X245056Y8091D01*
X245999Y7726D01*
X246994Y7540D01*
X248006D01*
X249001Y7726D01*
X249944Y8091D01*
X250805Y8624D01*
X251552Y9306D01*
X252162Y10113D01*
X252613Y11019D01*
X252890Y11992D01*
X252984Y13000D01*
X298984D02*
X298890Y14008D01*
X298613Y14981D01*
X298162Y15887D01*
X297552Y16694D01*
X296805Y17376D01*
X295944Y17909D01*
X295001Y18274D01*
X294006Y18460D01*
X292994D01*
X291999Y18274D01*
X291056Y17909D01*
X290195Y17376D01*
X289448Y16694D01*
X288838Y15887D01*
X288387Y14981D01*
X288110Y14008D01*
X288016Y13000D01*
X288110Y11992D01*
X288387Y11019D01*
X288838Y10113D01*
X289448Y9306D01*
X290195Y8624D01*
X291056Y8091D01*
X291999Y7726D01*
X292994Y7540D01*
X294006D01*
X295001Y7726D01*
X295944Y8091D01*
X296805Y8624D01*
X297552Y9306D01*
X298162Y10113D01*
X298613Y11019D01*
X298890Y11992D01*
X298984Y13000D01*
X344984D02*
X344890Y14008D01*
X344613Y14981D01*
X344162Y15887D01*
X343552Y16694D01*
X342805Y17376D01*
X341944Y17909D01*
X341001Y18274D01*
X340006Y18460D01*
X338994D01*
X337999Y18274D01*
X337056Y17909D01*
X336195Y17376D01*
X335448Y16694D01*
X334838Y15887D01*
X334387Y14981D01*
X334110Y14008D01*
X334016Y13000D01*
X334110Y11992D01*
X334387Y11019D01*
X334838Y10113D01*
X335448Y9306D01*
X336195Y8624D01*
X337056Y8091D01*
X337999Y7726D01*
X338994Y7540D01*
X340006D01*
X341001Y7726D01*
X341944Y8091D01*
X342805Y8624D01*
X343552Y9306D01*
X344162Y10113D01*
X344613Y11019D01*
X344890Y11992D01*
X344984Y13000D01*
X329984Y263000D02*
X329890Y264008D01*
X329613Y264981D01*
X329162Y265887D01*
X328552Y266694D01*
X327805Y267376D01*
X326944Y267909D01*
X326001Y268274D01*
X325006Y268460D01*
X323994D01*
X322999Y268274D01*
X322056Y267909D01*
X321195Y267376D01*
X320448Y266694D01*
X319838Y265887D01*
X319387Y264981D01*
X319110Y264008D01*
X319016Y263000D01*
X319110Y261992D01*
X319387Y261019D01*
X319838Y260113D01*
X320448Y259306D01*
X321195Y258624D01*
X322056Y258091D01*
X322999Y257726D01*
X323994Y257540D01*
X325006D01*
X326001Y257726D01*
X326944Y258091D01*
X327805Y258624D01*
X328552Y259306D01*
X329162Y260113D01*
X329613Y261019D01*
X329890Y261992D01*
X329984Y263000D01*
X283984D02*
X283890Y264008D01*
X283613Y264981D01*
X283162Y265887D01*
X282552Y266694D01*
X281805Y267376D01*
X280944Y267909D01*
X280001Y268274D01*
X279006Y268460D01*
X277994D01*
X276999Y268274D01*
X276056Y267909D01*
X275195Y267376D01*
X274448Y266694D01*
X273838Y265887D01*
X273387Y264981D01*
X273110Y264008D01*
X273016Y263000D01*
X273110Y261992D01*
X273387Y261019D01*
X273838Y260113D01*
X274448Y259306D01*
X275195Y258624D01*
X276056Y258091D01*
X276999Y257726D01*
X277994Y257540D01*
X279006D01*
X280001Y257726D01*
X280944Y258091D01*
X281805Y258624D01*
X282552Y259306D01*
X283162Y260113D01*
X283613Y261019D01*
X283890Y261992D01*
X283984Y263000D01*
X237984D02*
X237890Y264008D01*
X237613Y264981D01*
X237162Y265887D01*
X236552Y266694D01*
X235805Y267376D01*
X234944Y267909D01*
X234001Y268274D01*
X233006Y268460D01*
X231994D01*
X230999Y268274D01*
X230056Y267909D01*
X229195Y267376D01*
X228448Y266694D01*
X227838Y265887D01*
X227387Y264981D01*
X227110Y264008D01*
X227016Y263000D01*
X227110Y261992D01*
X227387Y261019D01*
X227838Y260113D01*
X228448Y259306D01*
X229195Y258624D01*
X230056Y258091D01*
X230999Y257726D01*
X231994Y257540D01*
X233006D01*
X234001Y257726D01*
X234944Y258091D01*
X235805Y258624D01*
X236552Y259306D01*
X237162Y260113D01*
X237613Y261019D01*
X237890Y261992D01*
X237984Y263000D01*
X191984D02*
X191890Y264008D01*
X191613Y264981D01*
X191162Y265887D01*
X190552Y266694D01*
X189805Y267376D01*
X188944Y267909D01*
X188001Y268274D01*
X187006Y268460D01*
X185994D01*
X184999Y268274D01*
X184056Y267909D01*
X183195Y267376D01*
X182448Y266694D01*
X181838Y265887D01*
X181387Y264981D01*
X181110Y264008D01*
X181016Y263000D01*
X181110Y261992D01*
X181387Y261019D01*
X181838Y260113D01*
X182448Y259306D01*
X183195Y258624D01*
X184056Y258091D01*
X184999Y257726D01*
X185994Y257540D01*
X187006D01*
X188001Y257726D01*
X188944Y258091D01*
X189805Y258624D01*
X190552Y259306D01*
X191162Y260113D01*
X191613Y261019D01*
X191890Y261992D01*
X191984Y263000D01*
X145984D02*
X145890Y264008D01*
X145613Y264981D01*
X145162Y265887D01*
X144552Y266694D01*
X143805Y267376D01*
X142944Y267909D01*
X142001Y268274D01*
X141006Y268460D01*
X139994D01*
X138999Y268274D01*
X138056Y267909D01*
X137195Y267376D01*
X136448Y266694D01*
X135838Y265887D01*
X135387Y264981D01*
X135110Y264008D01*
X135016Y263000D01*
X135110Y261992D01*
X135387Y261019D01*
X135838Y260113D01*
X136448Y259306D01*
X137195Y258624D01*
X138056Y258091D01*
X138999Y257726D01*
X139994Y257540D01*
X141006D01*
X142001Y257726D01*
X142944Y258091D01*
X143805Y258624D01*
X144552Y259306D01*
X145162Y260113D01*
X145613Y261019D01*
X145890Y261992D01*
X145984Y263000D01*
X99984D02*
X99890Y264008D01*
X99613Y264981D01*
X99162Y265887D01*
X98552Y266694D01*
X97805Y267376D01*
X96944Y267909D01*
X96001Y268274D01*
X95006Y268460D01*
X93994D01*
X92999Y268274D01*
X92056Y267909D01*
X91195Y267376D01*
X90448Y266694D01*
X89838Y265887D01*
X89387Y264981D01*
X89110Y264008D01*
X89016Y263000D01*
X89110Y261992D01*
X89387Y261019D01*
X89838Y260113D01*
X90448Y259306D01*
X91195Y258624D01*
X92056Y258091D01*
X92999Y257726D01*
X93994Y257540D01*
X95006D01*
X96001Y257726D01*
X96944Y258091D01*
X97805Y258624D01*
X98552Y259306D01*
X99162Y260113D01*
X99613Y261019D01*
X99890Y261992D01*
X99984Y263000D01*
X53984D02*
X53890Y264008D01*
X53613Y264981D01*
X53162Y265887D01*
X52552Y266694D01*
X51805Y267376D01*
X50944Y267909D01*
X50001Y268274D01*
X49006Y268460D01*
X47994D01*
X46999Y268274D01*
X46056Y267909D01*
X45195Y267376D01*
X44448Y266694D01*
X43838Y265887D01*
X43387Y264981D01*
X43110Y264008D01*
X43016Y263000D01*
X43110Y261992D01*
X43387Y261019D01*
X43838Y260113D01*
X44448Y259306D01*
X45195Y258624D01*
X46056Y258091D01*
X46999Y257726D01*
X47994Y257540D01*
X49006D01*
X50001Y257726D01*
X50944Y258091D01*
X51805Y258624D01*
X52552Y259306D01*
X53162Y260113D01*
X53613Y261019D01*
X53890Y261992D01*
X53984Y263000D01*
X39000Y-18000D02*
Y18500D01*
X73000D01*
Y-18000D02*
Y18500D01*
X39000Y-18000D02*
X73000D01*
X85000D02*
Y18500D01*
X119000D01*
Y-18000D02*
Y18500D01*
X85000Y-18000D02*
X119000D01*
X131000D02*
Y18500D01*
X165000D01*
Y-18000D02*
Y18500D01*
X131000Y-18000D02*
X165000D01*
X177000D02*
Y18500D01*
X211000D01*
Y-18000D02*
Y18500D01*
X177000Y-18000D02*
X211000D01*
X223000D02*
Y18500D01*
X257000D01*
Y-18000D02*
Y18500D01*
X223000Y-18000D02*
X257000D01*
X269000D02*
Y18500D01*
X303000D01*
Y-18000D02*
Y18500D01*
X269000Y-18000D02*
X303000D01*
X315000D02*
Y18500D01*
X349000D01*
Y-18000D02*
Y18500D01*
X315000Y-18000D02*
X349000D01*
Y257500D02*
Y294000D01*
X315000Y257500D02*
X349000D01*
X315000D02*
Y294000D01*
X349000D01*
X303000Y257500D02*
Y294000D01*
X269000Y257500D02*
X303000D01*
X269000D02*
Y294000D01*
X303000D01*
X257000Y257500D02*
Y294000D01*
X223000Y257500D02*
X257000D01*
X223000D02*
Y294000D01*
X257000D01*
X211000Y257500D02*
Y294000D01*
X177000Y257500D02*
X211000D01*
X177000D02*
Y294000D01*
X211000D01*
X165000Y257500D02*
Y294000D01*
X131000Y257500D02*
X165000D01*
X131000D02*
Y294000D01*
X165000D01*
X119000Y257500D02*
Y294000D01*
X85000Y257500D02*
X119000D01*
X85000D02*
Y294000D01*
X119000D01*
X73000Y257500D02*
Y294000D01*
X39000Y257500D02*
X73000D01*
X39000D02*
Y294000D01*
X73000D01*
X209833Y100000D02*
X229000D01*
X199000D02*
X229000D01*
X199000Y120000D02*
X229000D01*
X199000Y100000D02*
Y120000D01*
X229000Y100000D02*
Y120000D01*
X167669Y103307D02*
X180268D01*
Y116693D01*
X163732D02*
X180268D01*
X163732Y104094D02*
Y116693D01*
Y104094D02*
X164520Y103307D01*
X167669D01*
X141500Y184000D02*
X166500D01*
X141500Y170000D02*
Y184000D01*
Y170000D02*
X166500D01*
Y184000D01*
X277457Y132843D02*
X284543D01*
X277457Y113157D02*
X284543D01*
X277457D02*
Y132843D01*
X284543Y113157D02*
Y132843D01*
X293311Y136772D02*
Y183228D01*
X269689Y136772D02*
Y183228D01*
Y136772D02*
X293311D01*
X269689Y183228D02*
X293311D01*
X239000Y122000D02*
Y182000D01*
X229000Y122000D02*
Y182000D01*
Y122000D02*
X239000D01*
X229000Y182000D02*
X239000D01*
X-717Y141961D02*
X34717D01*
X-717Y212039D02*
X34717D01*
Y141961D02*
Y212039D01*
X-717Y141961D02*
Y212039D01*
Y67961D02*
X34717D01*
X-717Y138039D02*
X34717D01*
Y67961D02*
Y138039D01*
X-717Y67961D02*
Y138039D01*
X176575Y144000D02*
X193000Y127575D01*
Y160425D02*
X209425Y144000D01*
X176575D02*
X193000Y160425D01*
Y127575D02*
X209425Y144000D01*
X62000Y118000D02*
X72000D01*
Y98000D02*
Y118000D01*
X62000Y98000D02*
X72000D01*
X62000D02*
Y118000D01*
X248669Y98307D02*
X261268D01*
Y111693D01*
X244732D02*
X261268D01*
X244732Y99094D02*
Y111693D01*
Y99094D02*
X245520Y98307D01*
X248669D01*
D44*
X163535Y102913D02*
D03*
X244535Y97913D02*
D03*
D45*
X106614Y114740D02*
X106272Y115670D01*
X105856Y116569D01*
X105368Y117432D01*
X104812Y118252D01*
X104191Y119025D01*
X103509Y119744D01*
X102772Y120406D01*
X101983Y121005D01*
X101148Y121539D01*
X100272Y122003D01*
X99362Y122395D01*
X98423Y122711D01*
X97461Y122950D01*
X96483Y123111D01*
X95495Y123191D01*
X94504D01*
X93517Y123111D01*
X92539Y122950D01*
X91577Y122711D01*
X90638Y122395D01*
X89728Y122003D01*
X88852Y121539D01*
X88017Y121005D01*
X87228Y120406D01*
X86490Y119744D01*
X85809Y119025D01*
X85188Y118252D01*
X84632Y117432D01*
X84144Y116569D01*
X83728Y115670D01*
X83386Y114740D01*
Y107260D02*
X83728Y106330D01*
X84144Y105430D01*
X84632Y104568D01*
X85188Y103748D01*
X85809Y102975D01*
X86490Y102256D01*
X87228Y101594D01*
X88017Y100995D01*
X88852Y100461D01*
X89728Y99997D01*
X90638Y99605D01*
X91577Y99289D01*
X92539Y99050D01*
X93517Y98889D01*
X94504Y98809D01*
X95495Y98809D01*
X96483Y98889D01*
X97461Y99050D01*
X98423Y99289D01*
X99362Y99605D01*
X100272Y99997D01*
X101148Y100461D01*
X101983Y100995D01*
X102772Y101594D01*
X103509Y102256D01*
X104191Y102975D01*
X104812Y103748D01*
X105368Y104568D01*
X105856Y105430D01*
X106272Y106330D01*
X106614Y107260D01*
Y168740D02*
X106272Y169670D01*
X105856Y170570D01*
X105368Y171432D01*
X104812Y172252D01*
X104191Y173025D01*
X103509Y173744D01*
X102772Y174406D01*
X101983Y175005D01*
X101148Y175539D01*
X100272Y176003D01*
X99362Y176395D01*
X98423Y176711D01*
X97461Y176951D01*
X96483Y177111D01*
X95495Y177191D01*
X94504D01*
X93517Y177111D01*
X92539Y176951D01*
X91577Y176711D01*
X90638Y176395D01*
X89728Y176003D01*
X88852Y175539D01*
X88017Y175005D01*
X87228Y174406D01*
X86490Y173744D01*
X85809Y173025D01*
X85188Y172252D01*
X84632Y171432D01*
X84144Y170570D01*
X83728Y169670D01*
X83386Y168740D01*
Y161260D02*
X83728Y160330D01*
X84144Y159431D01*
X84632Y158568D01*
X85188Y157748D01*
X85809Y156975D01*
X86490Y156256D01*
X87228Y155594D01*
X88017Y154994D01*
X88852Y154461D01*
X89728Y153997D01*
X90638Y153605D01*
X91577Y153289D01*
X92539Y153050D01*
X93517Y152889D01*
X94504Y152809D01*
X95495Y152809D01*
X96483Y152889D01*
X97461Y153050D01*
X98423Y153289D01*
X99362Y153605D01*
X100272Y153997D01*
X101148Y154461D01*
X101983Y154994D01*
X102772Y155594D01*
X103509Y156256D01*
X104191Y156975D01*
X104812Y157748D01*
X105368Y158568D01*
X105856Y159430D01*
X106272Y160330D01*
X106614Y161260D01*
X107795Y114740D02*
Y123795D01*
X88898D02*
X107795D01*
X82205Y117102D02*
X88898Y123795D01*
X82205Y114740D02*
Y117102D01*
Y104898D02*
Y107260D01*
Y104898D02*
X88898Y98205D01*
X107795D01*
Y107260D01*
Y152205D02*
Y161260D01*
X88898Y152205D02*
X107795D01*
Y168740D02*
Y177795D01*
X88898D02*
X107795D01*
X82205Y158898D02*
X88898Y152205D01*
X82205Y158898D02*
Y161260D01*
Y171102D02*
X88898Y177795D01*
X82205Y168740D02*
Y171102D01*
D46*
X290941Y112153D02*
X290203Y112580D01*
Y111727D01*
X290941Y112153D01*
X299905Y136653D02*
X299167Y137080D01*
Y136227D01*
X299905Y136653D01*
X171708Y142399D02*
X170970Y142825D01*
Y141973D01*
X171708Y142399D01*
D47*
X290555Y140709D02*
X290110Y141632D01*
X289111Y141860D01*
X288310Y141221D01*
Y140196D01*
X289111Y139557D01*
X290110Y139785D01*
X290555Y140709D01*
X183324Y144000D02*
X182879Y144923D01*
X181880Y145151D01*
X181079Y144512D01*
Y143488D01*
X181880Y142849D01*
X182879Y143077D01*
X183324Y144000D01*
D48*
X148244Y135000D02*
X150606Y132638D01*
X145882D02*
X150606D01*
X145882D02*
X148244Y135000D01*
X151000D01*
X145488D02*
X148244D01*
X152181Y137756D02*
Y143268D01*
X144307D02*
X152181D01*
X144307Y137756D02*
Y143268D01*
X152181Y124370D02*
Y129882D01*
X144307Y124370D02*
X152181D01*
X144307D02*
Y129882D01*
X48819Y180000D02*
X51181Y182362D01*
Y177638D02*
Y182362D01*
X48819Y180000D02*
X51181Y177638D01*
X48819Y180000D02*
Y182756D01*
Y177244D02*
Y180000D01*
X40551Y183937D02*
X46063D01*
X40551Y176063D02*
Y183937D01*
Y176063D02*
X46063D01*
X53937Y183937D02*
X59449D01*
Y176063D02*
Y183937D01*
X53937Y176063D02*
X59449D01*
X74051Y132882D02*
Y136031D01*
X67949D02*
X74051D01*
Y143118D01*
X67949Y132882D02*
Y136031D01*
Y143118D01*
X196000Y103000D02*
X197666D01*
X196833D01*
Y107998D01*
X196000Y107165D01*
X197332Y113000D02*
X194000D01*
X197332Y116332D01*
Y117165D01*
X196499Y117998D01*
X194833D01*
X194000Y117165D01*
X233332Y107998D02*
X230000D01*
Y105499D01*
X231666Y106332D01*
X232499D01*
X233332Y105499D01*
Y103833D01*
X232499Y103000D01*
X230833D01*
X230000Y103833D01*
X233332Y117998D02*
X231666Y117165D01*
X230000Y115499D01*
Y113833D01*
X230833Y113000D01*
X232499D01*
X233332Y113833D01*
Y114666D01*
X232499Y115499D01*
X230000D01*
D49*
X66819Y164638D02*
X69181D01*
X66819Y169362D02*
X69181D01*
X66819Y156638D02*
X69181D01*
X66819Y161362D02*
X69181D01*
X145638Y116819D02*
Y119181D01*
X150362Y116819D02*
Y119181D01*
X158362Y153819D02*
Y156181D01*
X153638Y153819D02*
Y156181D01*
X150362Y153819D02*
Y156181D01*
X145638Y153819D02*
Y156181D01*
X182638Y108819D02*
Y111181D01*
X187362Y108819D02*
Y111181D01*
X161362Y108819D02*
Y111181D01*
X156638Y108819D02*
Y111181D01*
X191819Y180362D02*
X194181D01*
X191819Y175638D02*
X194181D01*
X214819D02*
X217181D01*
X214819Y180362D02*
X217181D01*
X250638Y141819D02*
Y144181D01*
X255362Y141819D02*
Y144181D01*
X280319Y186138D02*
X282681D01*
X280319Y190862D02*
X282681D01*
X298638Y104319D02*
Y106681D01*
X303362Y104319D02*
Y106681D01*
X132276Y153638D02*
Y156000D01*
X137000Y153638D02*
Y156000D01*
X124276Y153638D02*
Y156000D01*
X129000Y153638D02*
Y156000D01*
X116276Y153638D02*
Y156000D01*
X121000Y153638D02*
Y156000D01*
X69614Y222619D02*
Y224981D01*
X74338Y222619D02*
Y224981D01*
X115614Y222619D02*
Y224981D01*
X120338Y222619D02*
Y224981D01*
X161662Y222619D02*
Y224981D01*
X166386Y222619D02*
Y224981D01*
X207662Y222619D02*
Y224981D01*
X212386Y222619D02*
Y224981D01*
X253614Y222619D02*
Y224981D01*
X258338Y222619D02*
Y224981D01*
X299662Y222619D02*
Y224981D01*
X304386Y222619D02*
Y224981D01*
X315638Y220819D02*
Y223181D01*
X320362Y220819D02*
Y223181D01*
X44462Y50419D02*
Y52781D01*
X39738Y50419D02*
Y52781D01*
X90462Y50419D02*
Y52781D01*
X85738Y50419D02*
Y52781D01*
X136362Y50519D02*
Y52881D01*
X131638Y50519D02*
Y52881D01*
X182262Y50319D02*
Y52681D01*
X177538Y50319D02*
Y52681D01*
X228362Y50419D02*
Y52781D01*
X223638Y50419D02*
Y52781D01*
X274862Y50319D02*
Y52681D01*
X270138Y50319D02*
Y52681D01*
X320462Y50419D02*
Y52781D01*
X315738Y50419D02*
Y52781D01*
X66819Y177638D02*
X69181D01*
X66819Y182362D02*
X69181D01*
X214819Y172362D02*
X217181D01*
X214819Y167638D02*
X217181D01*
X303362Y120819D02*
Y123181D01*
X298638Y120819D02*
Y123181D01*
X260362Y118819D02*
Y121181D01*
X255638Y118819D02*
Y121181D01*
X251362Y118819D02*
Y121181D01*
X246638Y118819D02*
Y121181D01*
X290138Y104319D02*
Y106681D01*
X294862Y104319D02*
Y106681D01*
M02*
