M48
;Layer_Color=9474304
;FILE_FORMAT=2:5
INCH,TZ
;TYPE=PLATED
T1F00S00C0.01181
T2F00S00C0.03543
T3F00S00C0.05512
T4F00S00C0.05906
T5F00S00C0.07874
T6F00S00C0.12992
%
T01
X258663Y57677
X251963Y64477
X276963Y64077
X277000Y69000
X286863Y66500
X286000Y60780
X280000Y56377
X285000Y42577
X289000Y30000
X305063Y39577
X315363Y51577
X325363Y44277
X333963Y59477
X332713Y63000
X332963Y66577
X340600Y69877
X330600Y82877
X304263Y93277
X284894Y90000
X287383Y99977
X296363Y109043
X269463Y105177
X298363Y63500
X297740Y58377
X251263Y68477
X240563Y66600
X241949Y63400
X239063Y60200
X231186Y57677
X223363Y52077
X206163Y48477
X205563Y65100
X195963Y62598
X194298Y59235
X194563Y66400
X186263Y69777
X179163Y51400
X159163Y60877
X148563Y61900
X148963Y66577
X143163Y69977
X138063Y66700
X129763Y69177
X130263Y51000
X116863Y57577
X114263Y55077
X114063Y63577
X103765Y63400
X101063Y58577
X101486Y69077
X102570Y29977
X138000Y107000
X144263Y106177
X207163Y89377
X238000Y90000
X239000Y43000
X88063Y51777
X92063Y68277
X59063Y63277
X55323Y63400
X46420Y48057
X42063Y51677
X55063Y157177
X64476Y186977
X58363Y208577
X58963Y212177
X59476Y218377
X63070Y229884
X73963Y230489
X92563Y208677
X55063Y207200
X46363Y202177
Y196677
X36000Y243000
X105476Y238777
X106263Y217926
X101263Y209177
X100476Y205299
X113063Y205677
X113863Y209577
X117663Y224277
X120663Y223277
X147663Y215200
X148963Y211177
X150263Y207672
X151524Y217939
X180263Y218177
X184363Y215177
Y210277
X193063Y212000
X196963
X197263Y206238
X205763Y207577
X205363Y218277
X230121Y218077
X230463Y208077
X241863Y211077
X242763Y215200
X248476Y218277
X243476Y237664
X197563Y245977
X195763Y157477
X183141Y147177
X160363Y144177
X160263Y133277
X172263Y166964
X156524Y183077
X151063Y181477
X103063Y186177
X248476Y183077
X247063Y148477
X216093Y142177
X272263Y146977
X287913Y136227
X290763Y139077
X308863Y153877
X333763Y144237
X328063Y193739
X328263Y205977
X334963Y212000
X338863Y218377
X341663Y205977
X322763Y213277
X321963Y222777
X318363Y221577
X292563Y218477
X288301Y216877
X286283Y209798
X288563Y207200
X296663Y205977
X276863Y208677
X276663Y212777
X276140Y217777
X271163
X289563Y240477
T02
X204000Y105000
X214000
X224000
Y115000
X214000
X204000
X67000Y113000
Y103000
X22000Y108000
Y118000
X12000
Y108000
Y98000
X22000
Y88000
X12000
Y162000
Y172000
Y182000
Y192000
X22000
Y182000
Y172000
Y162000
X234000Y167000
Y177000
Y157000
Y147000
Y137000
Y127000
T03
X278500Y13000
X293500
X324500
X339500
X247500
X232500
X201500
X186500
X155500
X140500
X109500
X94500
X63500
X48500
Y263000
X63500
X94500
X109500
X140500
X155500
X186500
X201500
X232500
X247500
X278500
X293500
X324500
X339500
T04
X310000Y232000
X336000Y234000
T05
X264000Y80000
X310000
X355002Y45974
X364000Y118000
X218000Y80000
X170000
X124000
X80000
X32000
X80000Y196000
X126000
X172000
X218000
X264000
X310000
X351002Y191974
Y225974
X364000Y155402
X341002Y135974
T06
X374016Y55118
X15748
Y224409
X374016
M30
