G04 Layer_Color=8421504*
%FSLAX25Y25*%
%MOIN*%
G70*
G01*
G75*
%ADD10R,0.03150X0.04724*%
%ADD11R,0.04724X0.03150*%
%ADD12R,0.03740X0.03543*%
%ADD13R,0.11811X0.05512*%
%ADD14R,0.08661X0.14173*%
%ADD15R,0.08800X0.04800*%
%ADD16O,0.09055X0.02362*%
%ADD17R,0.05512X0.04724*%
G04:AMPARAMS|DCode=18|XSize=62.99mil|YSize=86.22mil|CornerRadius=15.75mil|HoleSize=0mil|Usage=FLASHONLY|Rotation=0.000|XOffset=0mil|YOffset=0mil|HoleType=Round|Shape=RoundedRectangle|*
%AMROUNDEDRECTD18*
21,1,0.06299,0.05472,0,0,0.0*
21,1,0.03150,0.08622,0,0,0.0*
1,1,0.03150,0.01575,-0.02736*
1,1,0.03150,-0.01575,-0.02736*
1,1,0.03150,-0.01575,0.02736*
1,1,0.03150,0.01575,0.02736*
%
%ADD18ROUNDEDRECTD18*%
%ADD19O,0.02362X0.08661*%
G04:AMPARAMS|DCode=20|XSize=21.65mil|YSize=64.96mil|CornerRadius=0mil|HoleSize=0mil|Usage=FLASHONLY|Rotation=135.000|XOffset=0mil|YOffset=0mil|HoleType=Round|Shape=Round|*
%AMOVALD20*
21,1,0.04331,0.02165,0.00000,0.00000,225.0*
1,1,0.02165,0.01531,0.01531*
1,1,0.02165,-0.01531,-0.01531*
%
%ADD20OVALD20*%

G04:AMPARAMS|DCode=21|XSize=21.65mil|YSize=64.96mil|CornerRadius=0mil|HoleSize=0mil|Usage=FLASHONLY|Rotation=45.000|XOffset=0mil|YOffset=0mil|HoleType=Round|Shape=Round|*
%AMOVALD21*
21,1,0.04331,0.02165,0.00000,0.00000,135.0*
1,1,0.02165,0.01531,-0.01531*
1,1,0.02165,-0.01531,0.01531*
%
%ADD21OVALD21*%

%ADD22O,0.01378X0.08268*%
%ADD23R,0.05512X0.04724*%
%ADD24R,0.04724X0.05512*%
D10*
X100957Y186500D02*
D03*
X108043D02*
D03*
X100957Y176500D02*
D03*
X108043D02*
D03*
X100957Y166500D02*
D03*
X108043D02*
D03*
X142043Y63500D02*
D03*
X134957D02*
D03*
X77043Y53000D02*
D03*
X69957D02*
D03*
X82457Y219000D02*
D03*
X89543D02*
D03*
X127043Y63500D02*
D03*
X119957D02*
D03*
X69957Y93500D02*
D03*
X77043D02*
D03*
X176957Y105000D02*
D03*
X184043D02*
D03*
Y75000D02*
D03*
X176957D02*
D03*
X198043Y105000D02*
D03*
X190957D02*
D03*
X82457Y234000D02*
D03*
X89543D02*
D03*
D11*
X162000Y152457D02*
D03*
Y159543D02*
D03*
X132000Y152457D02*
D03*
Y159543D02*
D03*
X93500Y76543D02*
D03*
Y69457D02*
D03*
X157200Y207357D02*
D03*
Y214443D02*
D03*
X167000Y207457D02*
D03*
Y214543D02*
D03*
X76000Y202457D02*
D03*
Y209543D02*
D03*
X211000Y212543D02*
D03*
Y205457D02*
D03*
X181000D02*
D03*
Y212543D02*
D03*
X68000Y209543D02*
D03*
Y202457D02*
D03*
D12*
X52000Y153201D02*
D03*
Y140799D02*
D03*
D13*
X62551Y118000D02*
D03*
X81449D02*
D03*
Y176000D02*
D03*
X62551D02*
D03*
D14*
X90201Y147000D02*
D03*
D15*
X65800Y137900D02*
D03*
Y147000D02*
D03*
Y156100D02*
D03*
D16*
X151413Y73500D02*
D03*
Y78500D02*
D03*
Y83500D02*
D03*
Y88500D02*
D03*
Y93500D02*
D03*
Y98500D02*
D03*
Y103500D02*
D03*
Y108500D02*
D03*
Y113500D02*
D03*
X115587Y73500D02*
D03*
Y78500D02*
D03*
Y83500D02*
D03*
Y88500D02*
D03*
Y93500D02*
D03*
Y98500D02*
D03*
Y103500D02*
D03*
Y108500D02*
D03*
Y113500D02*
D03*
D17*
X153000Y150794D02*
D03*
Y162606D02*
D03*
X142000Y150594D02*
D03*
Y162406D02*
D03*
D18*
X104000Y234091D02*
D03*
Y197909D02*
D03*
D19*
X66000Y63551D02*
D03*
X71000D02*
D03*
X76000D02*
D03*
X81000D02*
D03*
X66000Y82449D02*
D03*
X71000D02*
D03*
X76000D02*
D03*
X81000D02*
D03*
D20*
X181513Y145103D02*
D03*
X183740Y142876D02*
D03*
X185967Y140648D02*
D03*
X188194Y138421D02*
D03*
X190421Y136194D02*
D03*
X192648Y133967D02*
D03*
X194876Y131740D02*
D03*
X197103Y129513D02*
D03*
X220487Y152898D02*
D03*
X218260Y155125D02*
D03*
X216033Y157352D02*
D03*
X213806Y159579D02*
D03*
X211579Y161806D02*
D03*
X209352Y164033D02*
D03*
X207124Y166260D02*
D03*
X204897Y168487D02*
D03*
D21*
Y129513D02*
D03*
X207124Y131740D02*
D03*
X209352Y133967D02*
D03*
X211579Y136194D02*
D03*
X213806Y138421D02*
D03*
X216033Y140648D02*
D03*
X218260Y142876D02*
D03*
X220487Y145103D02*
D03*
X197103Y168487D02*
D03*
X194876Y166260D02*
D03*
X192648Y164033D02*
D03*
X190421Y161806D02*
D03*
X188194Y159579D02*
D03*
X185967Y157352D02*
D03*
X183740Y155125D02*
D03*
X181513Y152898D02*
D03*
D22*
X226425Y181417D02*
D03*
X228984D02*
D03*
X231543D02*
D03*
X234102D02*
D03*
X236661D02*
D03*
X239220D02*
D03*
X241779D02*
D03*
X244339D02*
D03*
X246898D02*
D03*
X249457D02*
D03*
X252016D02*
D03*
X254575D02*
D03*
X226425Y208583D02*
D03*
X228984D02*
D03*
X231543D02*
D03*
X234102D02*
D03*
X236661D02*
D03*
X239220D02*
D03*
X241779D02*
D03*
X244339D02*
D03*
X246898D02*
D03*
X249457D02*
D03*
X252016D02*
D03*
X254575D02*
D03*
X226425Y83917D02*
D03*
X228984D02*
D03*
X231543D02*
D03*
X234102D02*
D03*
X236661D02*
D03*
X239220D02*
D03*
X241779D02*
D03*
X244339D02*
D03*
X246898D02*
D03*
X249457D02*
D03*
X252016D02*
D03*
X254575D02*
D03*
X226425Y111083D02*
D03*
X228984D02*
D03*
X231543D02*
D03*
X234102D02*
D03*
X236661D02*
D03*
X239220D02*
D03*
X241779D02*
D03*
X244339D02*
D03*
X246898D02*
D03*
X249457D02*
D03*
X252016D02*
D03*
X254575D02*
D03*
D23*
X191669Y205850D02*
D03*
Y212150D02*
D03*
X200331Y205850D02*
D03*
Y212150D02*
D03*
D24*
X183650Y85669D02*
D03*
X177350D02*
D03*
X183650Y94331D02*
D03*
X177350D02*
D03*
M02*
