G04 Layer_Physical_Order=2*
G04 Layer_Color=16711680*
%FSLAX25Y25*%
%MOIN*%
G70*
G01*
G75*
%ADD25C,0.01500*%
%ADD26C,0.01000*%
%ADD27O,0.06890X0.09842*%
%ADD28C,0.05905*%
%ADD29R,0.05905X0.05905*%
%ADD30O,0.09842X0.06890*%
%ADD31C,0.23622*%
%ADD32C,0.01968*%
G36*
X281419Y196922D02*
Y194049D01*
X278496Y191126D01*
X278032Y191318D01*
X277000Y191454D01*
X275968Y191318D01*
X275007Y190920D01*
X274181Y190286D01*
X273547Y189460D01*
X273149Y188499D01*
X273013Y187467D01*
X273149Y186435D01*
X273547Y185474D01*
X273697Y185278D01*
X273476Y184829D01*
X259806D01*
X259221Y184713D01*
X258724Y184381D01*
X243557Y169214D01*
X243146Y169228D01*
X242809Y169648D01*
X269099Y195938D01*
X273355D01*
X273547Y195474D01*
X274181Y194648D01*
X275007Y194014D01*
X275968Y193616D01*
X277000Y193480D01*
X278032Y193616D01*
X278993Y194014D01*
X279819Y194648D01*
X280453Y195474D01*
X280851Y196435D01*
X280919Y196955D01*
X281419Y196922D01*
D02*
G37*
G36*
X273547Y215474D02*
X274181Y214648D01*
X275007Y214014D01*
X275968Y213616D01*
X276398Y213559D01*
X276577Y213032D01*
X275919Y212373D01*
X275587Y211877D01*
X275471Y211292D01*
Y211112D01*
X275007Y210920D01*
X274181Y210286D01*
X273547Y209460D01*
X273355Y208996D01*
X259767D01*
X259182Y208880D01*
X258686Y208548D01*
X240526Y190388D01*
X240316Y190347D01*
X239929Y190664D01*
Y193166D01*
X262701Y215938D01*
X273355D01*
X273547Y215474D01*
D02*
G37*
G36*
X236470Y214110D02*
X236631Y213869D01*
X237287Y213431D01*
X238061Y213277D01*
X238836Y213431D01*
X239344Y213771D01*
X255501D01*
X255713Y213276D01*
X238791Y196354D01*
X238329Y196546D01*
Y200518D01*
X238623Y200812D01*
X239223Y200931D01*
X239880Y201369D01*
X240318Y202026D01*
X240472Y202800D01*
X240318Y203574D01*
X239880Y204231D01*
X239223Y204669D01*
X238449Y204823D01*
X237675Y204669D01*
X237018Y204231D01*
X236580Y203574D01*
X236461Y202975D01*
X236129Y202643D01*
X235629Y202850D01*
Y213838D01*
X235974Y214163D01*
X236470Y214110D01*
D02*
G37*
G36*
X177371Y186366D02*
Y167269D01*
X177017Y166979D01*
X176871Y166977D01*
X174901Y168947D01*
X175066Y169489D01*
X175274Y169531D01*
X175931Y169969D01*
X176369Y170626D01*
X176523Y171400D01*
X176369Y172174D01*
X176029Y172683D01*
Y174596D01*
X175913Y175182D01*
X175581Y175678D01*
X150451Y200809D01*
X150642Y201271D01*
X158667D01*
X159026Y201031D01*
X159800Y200877D01*
X160574Y201031D01*
X161231Y201469D01*
X161427Y201764D01*
X161925Y201813D01*
X177371Y186366D01*
D02*
G37*
G36*
X153592Y193342D02*
X153401Y192880D01*
X139483D01*
X138329Y194034D01*
Y197000D01*
X138213Y197585D01*
X137881Y198081D01*
X137385Y198413D01*
X137176Y198455D01*
X136953Y198993D01*
X136777Y199222D01*
X136998Y199671D01*
X141632D01*
X141802Y199171D01*
X141534Y198966D01*
X141093Y198390D01*
X140815Y197719D01*
X140786Y197500D01*
X143500D01*
X146214D01*
X146185Y197719D01*
X145907Y198390D01*
X145466Y198966D01*
X145198Y199171D01*
X145368Y199671D01*
X147263D01*
X153592Y193342D01*
D02*
G37*
G36*
X45846Y219809D02*
X44519Y218481D01*
X44187Y217985D01*
X44071Y217400D01*
Y202733D01*
X26496Y185159D01*
X26032Y185351D01*
X25000Y185487D01*
X23968Y185351D01*
X23007Y184953D01*
X22778Y184777D01*
X22329Y184998D01*
Y189632D01*
X22829Y189802D01*
X23034Y189534D01*
X23610Y189093D01*
X24281Y188815D01*
X24500Y188786D01*
Y191500D01*
Y194214D01*
X24281Y194185D01*
X23610Y193907D01*
X23034Y193465D01*
X22829Y193198D01*
X22329Y193368D01*
Y209566D01*
X33033Y220271D01*
X45654D01*
X45846Y219809D01*
D02*
G37*
G36*
X273671Y179622D02*
X273547Y179460D01*
X273149Y178499D01*
X273013Y177467D01*
X273149Y176435D01*
X273341Y175971D01*
X259929Y162559D01*
X246355D01*
X246148Y163059D01*
X263160Y180071D01*
X273450D01*
X273671Y179622D01*
D02*
G37*
G36*
X169601Y170434D02*
X169687Y170000D01*
X170019Y169504D01*
X174712Y164811D01*
X174831Y164211D01*
X175269Y163554D01*
X175926Y163116D01*
X175936Y163114D01*
X176103Y162613D01*
X175868Y162329D01*
X161599D01*
X161440Y162568D01*
X161378Y162815D01*
X169088Y170525D01*
X169601Y170434D01*
D02*
G37*
G36*
X285968Y183616D02*
X287000Y183480D01*
X288032Y183616D01*
X288496Y183808D01*
X302386Y169919D01*
X302882Y169587D01*
X303467Y169471D01*
X314891D01*
X315137Y168971D01*
X314641Y168324D01*
X314193Y167243D01*
X314040Y166083D01*
X314193Y164922D01*
X314641Y163841D01*
X315034Y163329D01*
X314787Y162829D01*
X303801D01*
X290659Y175971D01*
X290851Y176435D01*
X290987Y177467D01*
X290851Y178499D01*
X290453Y179460D01*
X289819Y180286D01*
X288993Y180920D01*
X288032Y181318D01*
X287000Y181454D01*
X285968Y181318D01*
X285007Y180920D01*
X284181Y180286D01*
X283547Y179460D01*
X283149Y178499D01*
X283129Y178350D01*
X282629Y178383D01*
Y179300D01*
X282513Y179885D01*
X282181Y180381D01*
X281254Y181309D01*
X281446Y181771D01*
X282833D01*
X283418Y181887D01*
X283914Y182219D01*
X285504Y183808D01*
X285968Y183616D01*
D02*
G37*
G36*
X283149Y176435D02*
X283547Y175474D01*
X284181Y174648D01*
X285007Y174014D01*
X285968Y173616D01*
X287000Y173480D01*
X288032Y173616D01*
X288496Y173808D01*
X302086Y160219D01*
X302582Y159887D01*
X303167Y159771D01*
X317822D01*
X317855Y159271D01*
X317676Y159247D01*
X316886Y158920D01*
X316207Y158399D01*
X315686Y157721D01*
X315359Y156930D01*
X315313Y156583D01*
X320000D01*
X324687D01*
X324641Y156930D01*
X324313Y157721D01*
X323793Y158399D01*
X323114Y158920D01*
X322324Y159247D01*
X322145Y159271D01*
X322178Y159771D01*
X337566D01*
X371219Y126119D01*
X371715Y125787D01*
X372300Y125671D01*
X376499D01*
X376669Y125171D01*
X376207Y124817D01*
X375687Y124138D01*
X375359Y123348D01*
X375313Y123000D01*
X380000D01*
Y122500D01*
X380500D01*
Y119224D01*
X381476D01*
X382324Y119336D01*
X383114Y119663D01*
X383793Y120184D01*
X384271Y120806D01*
X384465Y120797D01*
X384771Y120666D01*
Y116205D01*
X384271Y115959D01*
X383718Y116383D01*
X382637Y116831D01*
X381476Y116983D01*
X378524D01*
X377363Y116831D01*
X376282Y116383D01*
X375354Y115670D01*
X374641Y114742D01*
X374452Y114284D01*
X351417D01*
X351417Y114284D01*
X350735Y114148D01*
X350156Y113762D01*
X350156Y113762D01*
X349261Y112867D01*
X325548D01*
X325359Y113324D01*
X324646Y114253D01*
X323718Y114965D01*
X322637Y115413D01*
X321476Y115566D01*
X318524D01*
X317363Y115413D01*
X316282Y114965D01*
X315584Y114430D01*
X315084Y114676D01*
Y119592D01*
X315584Y119691D01*
X315686Y119445D01*
X316207Y118766D01*
X316886Y118245D01*
X317676Y117918D01*
X318524Y117806D01*
X319500D01*
Y121083D01*
Y124359D01*
X318524D01*
X317676Y124247D01*
X316886Y123920D01*
X316207Y123399D01*
X315686Y122721D01*
X315584Y122474D01*
X315084Y122573D01*
Y127489D01*
X315584Y127735D01*
X316282Y127200D01*
X317363Y126752D01*
X318524Y126599D01*
X321476D01*
X322637Y126752D01*
X323718Y127200D01*
X324646Y127912D01*
X325359Y128841D01*
X325807Y129922D01*
X325960Y131083D01*
X325807Y132243D01*
X325359Y133324D01*
X324646Y134253D01*
X323718Y134965D01*
X322637Y135413D01*
X321476Y135566D01*
X318524D01*
X317363Y135413D01*
X316282Y134965D01*
X315584Y134430D01*
X315084Y134676D01*
Y142489D01*
X315584Y142735D01*
X316282Y142200D01*
X317363Y141752D01*
X318524Y141599D01*
X321476D01*
X322637Y141752D01*
X323718Y142200D01*
X324646Y142912D01*
X325359Y143841D01*
X325807Y144922D01*
X325960Y146083D01*
X325807Y147243D01*
X325359Y148324D01*
X324646Y149253D01*
X323718Y149965D01*
X322637Y150413D01*
X321476Y150566D01*
X318524D01*
X317363Y150413D01*
X316282Y149965D01*
X315353Y149253D01*
X314641Y148324D01*
X314452Y147867D01*
X277083D01*
X276400Y147731D01*
X275821Y147344D01*
X260261Y131784D01*
X240390D01*
X240183Y132284D01*
X244469Y136571D01*
X248417D01*
X248926Y136231D01*
X249700Y136077D01*
X250474Y136231D01*
X251131Y136669D01*
X251569Y137326D01*
X251723Y138100D01*
X251569Y138874D01*
X251131Y139531D01*
X251240Y140059D01*
X251601Y140131D01*
X252257Y140569D01*
X252696Y141226D01*
X252850Y142000D01*
X252696Y142774D01*
X252257Y143431D01*
X251601Y143869D01*
X250827Y144023D01*
X250052Y143869D01*
X249544Y143529D01*
X244100D01*
X243515Y143413D01*
X243019Y143081D01*
X224426Y124488D01*
X224129Y124430D01*
X223629Y124794D01*
Y127717D01*
X223969Y128226D01*
X224123Y129000D01*
X223969Y129774D01*
X223531Y130431D01*
X222874Y130869D01*
X222100Y131023D01*
X221916Y130986D01*
X221529Y131304D01*
Y133600D01*
X221436Y134071D01*
X221711Y134571D01*
X228557D01*
X229142Y134687D01*
X229638Y135019D01*
X249631Y155012D01*
X250231Y155131D01*
X250887Y155569D01*
X251326Y156226D01*
X251480Y157000D01*
X251400Y157401D01*
X251797Y157901D01*
X261224D01*
X261572Y157971D01*
X272700D01*
X273030Y157595D01*
X273013Y157467D01*
X273149Y156435D01*
X273547Y155474D01*
X274181Y154648D01*
X275007Y154014D01*
X275968Y153616D01*
X277000Y153480D01*
X278032Y153616D01*
X278993Y154014D01*
X279819Y154648D01*
X280453Y155474D01*
X280851Y156435D01*
X280987Y157467D01*
X280851Y158499D01*
X280453Y159460D01*
X279819Y160286D01*
X278993Y160920D01*
X278032Y161318D01*
X277000Y161454D01*
X275968Y161318D01*
X275173Y160988D01*
X274967Y161029D01*
X263379D01*
X263187Y161491D01*
X275504Y173808D01*
X275968Y173616D01*
X277000Y173480D01*
X278032Y173616D01*
X278993Y174014D01*
X279122Y174113D01*
X279571Y173892D01*
Y172201D01*
X278496Y171126D01*
X278032Y171318D01*
X277000Y171454D01*
X275968Y171318D01*
X275007Y170920D01*
X274181Y170286D01*
X273547Y169460D01*
X273149Y168499D01*
X273013Y167467D01*
X273149Y166435D01*
X273547Y165474D01*
X274181Y164648D01*
X275007Y164014D01*
X275968Y163616D01*
X277000Y163480D01*
X278032Y163616D01*
X278993Y164014D01*
X279819Y164648D01*
X280453Y165474D01*
X280851Y166435D01*
X280987Y167467D01*
X280851Y168499D01*
X280659Y168963D01*
X282181Y170486D01*
X282513Y170982D01*
X282629Y171567D01*
Y176551D01*
X283129Y176584D01*
X283149Y176435D01*
D02*
G37*
G36*
X336359Y163291D02*
X336168Y162829D01*
X325213D01*
X324966Y163329D01*
X325359Y163841D01*
X325807Y164922D01*
X325960Y166083D01*
X325807Y167243D01*
X325359Y168324D01*
X324863Y168971D01*
X325110Y169471D01*
X330180D01*
X336359Y163291D01*
D02*
G37*
G36*
X272808Y229496D02*
X272601Y228996D01*
X247067D01*
X246482Y228880D01*
X245986Y228548D01*
X233746Y216308D01*
X233284Y216500D01*
Y228421D01*
X240175Y235312D01*
X240774Y235431D01*
X241431Y235869D01*
X241869Y236526D01*
X242023Y237300D01*
X241869Y238074D01*
X241431Y238731D01*
X241371Y238771D01*
X241522Y239271D01*
X263034D01*
X272808Y229496D01*
D02*
G37*
G36*
X90619Y200119D02*
X91115Y199787D01*
X91700Y199671D01*
X130002D01*
X130223Y199222D01*
X130047Y198993D01*
X129649Y198032D01*
X129513Y197000D01*
X129649Y195968D01*
X130047Y195007D01*
X130681Y194181D01*
X131507Y193547D01*
X132468Y193149D01*
X133500Y193013D01*
X134532Y193149D01*
X134790Y193256D01*
X135360Y192951D01*
X135387Y192815D01*
X135719Y192319D01*
X137768Y190269D01*
X138265Y189937D01*
X138850Y189821D01*
X153871D01*
X168632Y175060D01*
X168467Y174517D01*
X168226Y174469D01*
X167569Y174031D01*
X167131Y173374D01*
X167012Y172775D01*
X83467Y89229D01*
X53422D01*
X53201Y89678D01*
X53453Y90007D01*
X53851Y90968D01*
X53987Y92000D01*
X53851Y93032D01*
X53453Y93993D01*
X52819Y94819D01*
X51993Y95453D01*
X51032Y95851D01*
X50000Y95987D01*
X48968Y95851D01*
X48007Y95453D01*
X47181Y94819D01*
X46547Y93993D01*
X46355Y93529D01*
X32133D01*
X28659Y97004D01*
X28851Y97468D01*
X28987Y98500D01*
X28851Y99532D01*
X28453Y100493D01*
X27819Y101319D01*
X26993Y101953D01*
X26032Y102351D01*
X25000Y102487D01*
X23968Y102351D01*
X23007Y101953D01*
X22878Y101854D01*
X22429Y102075D01*
Y104925D01*
X22878Y105146D01*
X23007Y105047D01*
X23968Y104649D01*
X25000Y104513D01*
X26032Y104649D01*
X26993Y105047D01*
X27819Y105681D01*
X28453Y106507D01*
X28851Y107468D01*
X28987Y108500D01*
X28851Y109532D01*
X28453Y110493D01*
X27819Y111319D01*
X26993Y111953D01*
X26032Y112351D01*
X25000Y112487D01*
X23968Y112351D01*
X23007Y111953D01*
X22878Y111854D01*
X22429Y112075D01*
Y116502D01*
X22929Y116671D01*
X23034Y116534D01*
X23610Y116093D01*
X24281Y115815D01*
X24500Y115786D01*
Y118500D01*
Y121214D01*
X24281Y121185D01*
X23610Y120907D01*
X23034Y120466D01*
X22929Y120329D01*
X22429Y120498D01*
Y156766D01*
X23504Y157841D01*
X23968Y157649D01*
X25000Y157513D01*
X26032Y157649D01*
X26993Y158047D01*
X27819Y158681D01*
X28453Y159507D01*
X28851Y160468D01*
X28987Y161500D01*
X28851Y162532D01*
X28453Y163493D01*
X27819Y164319D01*
X26993Y164953D01*
X26032Y165351D01*
X25000Y165487D01*
X23968Y165351D01*
X23504Y165159D01*
X22329Y166333D01*
Y168002D01*
X22778Y168223D01*
X23007Y168047D01*
X23968Y167649D01*
X25000Y167513D01*
X26032Y167649D01*
X26993Y168047D01*
X27819Y168681D01*
X28453Y169507D01*
X28851Y170468D01*
X28987Y171500D01*
X28851Y172532D01*
X28453Y173493D01*
X27819Y174319D01*
X26993Y174953D01*
X26032Y175351D01*
X25000Y175487D01*
X23968Y175351D01*
X23007Y174953D01*
X22778Y174777D01*
X22329Y174998D01*
Y178002D01*
X22778Y178223D01*
X23007Y178047D01*
X23968Y177649D01*
X25000Y177513D01*
X26032Y177649D01*
X26993Y178047D01*
X27819Y178681D01*
X28453Y179507D01*
X28851Y180468D01*
X28987Y181500D01*
X28851Y182532D01*
X28659Y182996D01*
X46681Y201019D01*
X47013Y201515D01*
X47129Y202100D01*
Y202590D01*
X47629Y202837D01*
X48007Y202547D01*
X48968Y202149D01*
X50000Y202013D01*
X51032Y202149D01*
X51993Y202547D01*
X52819Y203181D01*
X53453Y204007D01*
X53851Y204968D01*
X53987Y206000D01*
X53851Y207032D01*
X53453Y207993D01*
X52819Y208819D01*
X51993Y209453D01*
X51032Y209851D01*
X50000Y209987D01*
X48968Y209851D01*
X48007Y209453D01*
X47629Y209163D01*
X47129Y209410D01*
Y212590D01*
X47629Y212837D01*
X48007Y212547D01*
X48968Y212149D01*
X50000Y212013D01*
X51032Y212149D01*
X51993Y212547D01*
X52819Y213181D01*
X53453Y214007D01*
X53645Y214471D01*
X76266D01*
X90619Y200119D01*
D02*
G37*
G36*
X378858Y266931D02*
X384876Y260913D01*
X389667Y255802D01*
Y19993D01*
X384876Y14882D01*
X378858Y8864D01*
X373747Y4073D01*
X19828D01*
X14717Y8864D01*
X8699Y14882D01*
X3908Y19993D01*
Y48964D01*
X4408Y49105D01*
X5352Y47565D01*
X6661Y46031D01*
X8195Y44722D01*
X9914Y43668D01*
X11777Y42897D01*
X13738Y42426D01*
X15748Y42268D01*
X17758Y42426D01*
X19719Y42897D01*
X21582Y43668D01*
X23301Y44722D01*
X24835Y46031D01*
X26144Y47565D01*
X27198Y49284D01*
X27970Y51147D01*
X28440Y53108D01*
X28599Y55118D01*
X28440Y57129D01*
X27970Y59089D01*
X27198Y60952D01*
X26144Y62672D01*
X24835Y64205D01*
X23301Y65515D01*
X21582Y66568D01*
X19719Y67340D01*
X17758Y67811D01*
X15748Y67969D01*
X13738Y67811D01*
X11777Y67340D01*
X9914Y66568D01*
X8195Y65515D01*
X6661Y64205D01*
X5352Y62672D01*
X4408Y61132D01*
X3908Y61273D01*
Y195422D01*
Y218255D01*
X4408Y218396D01*
X5352Y216856D01*
X6661Y215323D01*
X8195Y214013D01*
X9914Y212959D01*
X11777Y212188D01*
X13738Y211717D01*
X15748Y211559D01*
X17758Y211717D01*
X19719Y212188D01*
X20081Y212338D01*
X20359Y211922D01*
X19719Y211281D01*
X19387Y210785D01*
X19271Y210200D01*
Y195821D01*
X18953Y195453D01*
X18771Y195453D01*
X11047D01*
Y187547D01*
X18771D01*
X18953Y187547D01*
X19271Y187179D01*
Y182825D01*
X18771Y182726D01*
X18453Y183493D01*
X17819Y184319D01*
X16993Y184953D01*
X16032Y185351D01*
X15000Y185487D01*
X13968Y185351D01*
X13007Y184953D01*
X12181Y184319D01*
X11547Y183493D01*
X11149Y182532D01*
X11013Y181500D01*
X11149Y180468D01*
X11547Y179507D01*
X12181Y178681D01*
X13007Y178047D01*
X13968Y177649D01*
X15000Y177513D01*
X16032Y177649D01*
X16993Y178047D01*
X17819Y178681D01*
X18453Y179507D01*
X18771Y180274D01*
X19271Y180175D01*
Y172825D01*
X18771Y172726D01*
X18453Y173493D01*
X17819Y174319D01*
X16993Y174953D01*
X16032Y175351D01*
X15000Y175487D01*
X13968Y175351D01*
X13007Y174953D01*
X12181Y174319D01*
X11547Y173493D01*
X11149Y172532D01*
X11013Y171500D01*
X11149Y170468D01*
X11547Y169507D01*
X12181Y168681D01*
X13007Y168047D01*
X13968Y167649D01*
X15000Y167513D01*
X16032Y167649D01*
X16496Y167841D01*
X17571Y166767D01*
Y165075D01*
X17122Y164854D01*
X16993Y164953D01*
X16032Y165351D01*
X15000Y165487D01*
X13968Y165351D01*
X13007Y164953D01*
X12181Y164319D01*
X11547Y163493D01*
X11149Y162532D01*
X11013Y161500D01*
X11149Y160468D01*
X11547Y159507D01*
X12181Y158681D01*
X13007Y158047D01*
X13968Y157649D01*
X15000Y157513D01*
X16032Y157649D01*
X16993Y158047D01*
X17122Y158146D01*
X17571Y157925D01*
Y122453D01*
X11047D01*
Y114547D01*
X17571D01*
Y112075D01*
X17122Y111854D01*
X16993Y111953D01*
X16032Y112351D01*
X15000Y112487D01*
X13968Y112351D01*
X13007Y111953D01*
X12181Y111319D01*
X11547Y110493D01*
X11149Y109532D01*
X11013Y108500D01*
X11149Y107468D01*
X11341Y107004D01*
X9719Y105381D01*
X9387Y104885D01*
X9271Y104300D01*
Y85700D01*
X9387Y85115D01*
X9719Y84619D01*
X13719Y80619D01*
X14215Y80287D01*
X14800Y80171D01*
X26800D01*
X27385Y80287D01*
X27881Y80619D01*
X33433Y86171D01*
X45638D01*
X46047Y85953D01*
X46047Y85671D01*
Y78047D01*
X53953D01*
Y85671D01*
X53953Y85953D01*
X54362Y86171D01*
X84100D01*
X84685Y86287D01*
X85181Y86619D01*
X156785Y158222D01*
X157032Y158160D01*
X157271Y158001D01*
Y149900D01*
X157387Y149315D01*
X157719Y148819D01*
X178219Y128319D01*
X178715Y127987D01*
X179300Y127871D01*
X213117D01*
X213358Y127710D01*
X213451Y127095D01*
X193585Y107229D01*
X146983D01*
X146474Y107569D01*
X145700Y107723D01*
X144926Y107569D01*
X144269Y107131D01*
X143831Y106474D01*
X143677Y105700D01*
X143831Y104926D01*
X144269Y104269D01*
X144926Y103831D01*
X145700Y103677D01*
X146474Y103831D01*
X146983Y104171D01*
X177840D01*
X178251Y103671D01*
X178177Y103300D01*
X178331Y102526D01*
X178769Y101869D01*
X179426Y101431D01*
X180025Y101312D01*
X189543Y91794D01*
X189352Y91332D01*
X104902D01*
X104317Y91215D01*
X103821Y90884D01*
X33719Y20781D01*
X33387Y20285D01*
X33271Y19700D01*
Y19642D01*
X32797Y19481D01*
X32670Y19647D01*
X31742Y20359D01*
X30660Y20807D01*
X29500Y20960D01*
X28340Y20807D01*
X27258Y20359D01*
X26330Y19647D01*
X25617Y18718D01*
X25170Y17637D01*
X25017Y16476D01*
Y13524D01*
X25170Y12363D01*
X25617Y11282D01*
X26330Y10353D01*
X27258Y9641D01*
X27835Y9402D01*
X27852Y9317D01*
X28238Y8738D01*
X31138Y5838D01*
X31717Y5452D01*
X32400Y5316D01*
X32400Y5316D01*
X62000D01*
X62683Y5452D01*
X63262Y5838D01*
X64700Y7277D01*
X66238Y5738D01*
X66238Y5738D01*
X66817Y5351D01*
X67500Y5216D01*
X67500Y5216D01*
X96000D01*
X96683Y5351D01*
X97262Y5738D01*
X99500Y7977D01*
X101738Y5738D01*
X101738Y5738D01*
X102317Y5351D01*
X103000Y5216D01*
X103000Y5216D01*
X131500D01*
X131853Y5286D01*
X132113Y5328D01*
X132136Y5342D01*
X132183Y5351D01*
X132565Y5607D01*
X132705Y5694D01*
X132711Y5698D01*
X132711Y5698D01*
X132711Y5698D01*
X132733Y5719D01*
X132762Y5738D01*
X132775Y5758D01*
X134455Y7321D01*
X136038Y5738D01*
X136617Y5351D01*
X137300Y5216D01*
X137300Y5216D01*
X166700D01*
X167383Y5351D01*
X167962Y5738D01*
X169600Y7377D01*
X171238Y5738D01*
X171817Y5351D01*
X172500Y5216D01*
X201900D01*
X202583Y5351D01*
X203162Y5738D01*
X204700Y7277D01*
X206238Y5738D01*
X206238Y5738D01*
X206817Y5351D01*
X207500Y5216D01*
X207500Y5216D01*
X236500D01*
X237183Y5351D01*
X237762Y5738D01*
X239300Y7277D01*
X240838Y5738D01*
X240838Y5738D01*
X241417Y5351D01*
X242100Y5216D01*
X242100Y5216D01*
X271500D01*
X272183Y5351D01*
X272762Y5738D01*
X275762Y8738D01*
X276149Y9317D01*
X276165Y9402D01*
X276742Y9641D01*
X277670Y10353D01*
X278383Y11282D01*
X278831Y12363D01*
X278983Y13524D01*
Y16476D01*
X278831Y17637D01*
X278383Y18718D01*
X277670Y19647D01*
X276742Y20359D01*
X275660Y20807D01*
X274500Y20960D01*
X273340Y20807D01*
X272258Y20359D01*
X271330Y19647D01*
X270617Y18718D01*
X270169Y17637D01*
X270017Y16476D01*
Y13524D01*
X270169Y12363D01*
X270617Y11282D01*
X271330Y10353D01*
X271595Y10150D01*
X271628Y9651D01*
X270761Y8784D01*
X260980D01*
X260880Y9284D01*
X261742Y9641D01*
X262670Y10353D01*
X263383Y11282D01*
X263830Y12363D01*
X263983Y13524D01*
Y16476D01*
X263830Y17637D01*
X263383Y18718D01*
X262670Y19647D01*
X261742Y20359D01*
X260660Y20807D01*
X259500Y20960D01*
X258340Y20807D01*
X257258Y20359D01*
X256330Y19647D01*
X255617Y18718D01*
X255170Y17637D01*
X255017Y16476D01*
Y13524D01*
X255170Y12363D01*
X255617Y11282D01*
X256330Y10353D01*
X257258Y9641D01*
X258120Y9284D01*
X258020Y8784D01*
X242839D01*
X242146Y9477D01*
X242179Y9976D01*
X242670Y10353D01*
X243383Y11282D01*
X243830Y12363D01*
X243983Y13524D01*
Y16476D01*
X243830Y17637D01*
X243383Y18718D01*
X242670Y19647D01*
X241742Y20359D01*
X240660Y20807D01*
X239500Y20960D01*
X238340Y20807D01*
X237258Y20359D01*
X236330Y19647D01*
X235617Y18718D01*
X235170Y17637D01*
X235017Y16476D01*
Y13524D01*
X235170Y12363D01*
X235617Y11282D01*
X236330Y10353D01*
X236595Y10150D01*
X236628Y9651D01*
X235761Y8784D01*
X225980D01*
X225880Y9284D01*
X226742Y9641D01*
X227670Y10353D01*
X228383Y11282D01*
X228831Y12363D01*
X228983Y13524D01*
Y16476D01*
X228831Y17637D01*
X228383Y18718D01*
X227670Y19647D01*
X226742Y20359D01*
X225660Y20807D01*
X224500Y20960D01*
X223340Y20807D01*
X222258Y20359D01*
X221330Y19647D01*
X220617Y18718D01*
X220169Y17637D01*
X220017Y16476D01*
Y13524D01*
X220169Y12363D01*
X220617Y11282D01*
X221330Y10353D01*
X222258Y9641D01*
X223120Y9284D01*
X223020Y8784D01*
X208239D01*
X207372Y9651D01*
X207405Y10150D01*
X207670Y10353D01*
X208383Y11282D01*
X208830Y12363D01*
X208983Y13524D01*
Y16476D01*
X208830Y17637D01*
X208383Y18718D01*
X207670Y19647D01*
X206742Y20359D01*
X205660Y20807D01*
X204500Y20960D01*
X203340Y20807D01*
X202258Y20359D01*
X201330Y19647D01*
X200617Y18718D01*
X200169Y17637D01*
X200017Y16476D01*
Y13524D01*
X200169Y12363D01*
X200617Y11282D01*
X201330Y10353D01*
X201821Y9976D01*
X201854Y9477D01*
X201161Y8784D01*
X190980D01*
X190880Y9284D01*
X191742Y9641D01*
X192670Y10353D01*
X193383Y11282D01*
X193831Y12363D01*
X193983Y13524D01*
Y16476D01*
X193831Y17637D01*
X193383Y18718D01*
X192670Y19647D01*
X191742Y20359D01*
X190660Y20807D01*
X189500Y20960D01*
X188340Y20807D01*
X187258Y20359D01*
X186330Y19647D01*
X185617Y18718D01*
X185169Y17637D01*
X185017Y16476D01*
Y13524D01*
X185169Y12363D01*
X185617Y11282D01*
X186330Y10353D01*
X187258Y9641D01*
X188120Y9284D01*
X188020Y8784D01*
X173239D01*
X172372Y9651D01*
X172405Y10150D01*
X172670Y10353D01*
X173383Y11282D01*
X173830Y12363D01*
X173983Y13524D01*
Y16476D01*
X173830Y17637D01*
X173383Y18718D01*
X172670Y19647D01*
X171742Y20359D01*
X170660Y20807D01*
X169500Y20960D01*
X168340Y20807D01*
X167258Y20359D01*
X166330Y19647D01*
X165617Y18718D01*
X165170Y17637D01*
X165017Y16476D01*
Y13524D01*
X165170Y12363D01*
X165617Y11282D01*
X166330Y10353D01*
X166708Y10063D01*
X166741Y9564D01*
X165961Y8784D01*
X155980D01*
X155880Y9284D01*
X156742Y9641D01*
X157670Y10353D01*
X158383Y11282D01*
X158830Y12363D01*
X158983Y13524D01*
Y16476D01*
X158830Y17637D01*
X158383Y18718D01*
X157670Y19647D01*
X156742Y20359D01*
X156029Y20654D01*
Y68766D01*
X159433Y72171D01*
X235379D01*
X235887Y71831D01*
X236661Y71677D01*
X237436Y71831D01*
X238092Y72269D01*
X238530Y72926D01*
X238658Y73568D01*
X239353Y73430D01*
X240127Y73584D01*
X240784Y74022D01*
X241222Y74679D01*
X241341Y75279D01*
X244500Y78438D01*
X273355D01*
X273547Y77974D01*
X274181Y77148D01*
X275007Y76514D01*
X275968Y76116D01*
X277000Y75980D01*
X278032Y76116D01*
X278993Y76514D01*
X279222Y76690D01*
X279671Y76469D01*
Y74800D01*
X278496Y73626D01*
X278032Y73818D01*
X277000Y73954D01*
X275968Y73818D01*
X275007Y73420D01*
X274181Y72786D01*
X273547Y71960D01*
X273149Y70999D01*
X273013Y69967D01*
X273149Y68935D01*
X273547Y67974D01*
X274181Y67148D01*
X275007Y66514D01*
X275968Y66116D01*
X277000Y65980D01*
X278032Y66116D01*
X278993Y66514D01*
X279819Y67148D01*
X280453Y67974D01*
X280771Y68741D01*
X281271Y68642D01*
Y66400D01*
X278496Y63626D01*
X278032Y63818D01*
X277000Y63954D01*
X275968Y63818D01*
X275007Y63420D01*
X274181Y62786D01*
X273547Y61960D01*
X273149Y60999D01*
X273013Y59967D01*
X273149Y58935D01*
X273547Y57974D01*
X274181Y57148D01*
X275007Y56514D01*
X275968Y56116D01*
X277000Y55980D01*
X278032Y56116D01*
X278993Y56514D01*
X279819Y57148D01*
X280453Y57974D01*
X280851Y58935D01*
X280987Y59967D01*
X280851Y60999D01*
X280659Y61463D01*
X283881Y64686D01*
X284213Y65182D01*
X284329Y65767D01*
Y66469D01*
X284778Y66690D01*
X285007Y66514D01*
X285968Y66116D01*
X287000Y65980D01*
X288032Y66116D01*
X288993Y66514D01*
X289819Y67148D01*
X290453Y67974D01*
X290645Y68438D01*
X299682D01*
X308119Y60001D01*
X308615Y59670D01*
X309200Y59553D01*
X314346D01*
X314641Y58841D01*
X315353Y57912D01*
X316282Y57200D01*
X317363Y56752D01*
X318524Y56599D01*
X321476D01*
X322637Y56752D01*
X323718Y57200D01*
X324646Y57912D01*
X325359Y58841D01*
X325807Y59922D01*
X325960Y61083D01*
X325807Y62243D01*
X325359Y63324D01*
X324646Y64253D01*
X323718Y64965D01*
X322637Y65413D01*
X321476Y65566D01*
X318524D01*
X317363Y65413D01*
X316282Y64965D01*
X315353Y64253D01*
X314751Y63467D01*
X314247Y63373D01*
X314141Y63387D01*
X313929Y63567D01*
Y74252D01*
X314429Y74352D01*
X314641Y73841D01*
X315353Y72913D01*
X316282Y72200D01*
X317363Y71752D01*
X318524Y71599D01*
X321476D01*
X322637Y71752D01*
X323718Y72200D01*
X324646Y72913D01*
X325359Y73841D01*
X325807Y74922D01*
X325960Y76083D01*
X325807Y77243D01*
X325359Y78324D01*
X324646Y79253D01*
X323718Y79965D01*
X322637Y80413D01*
X321476Y80566D01*
X318524D01*
X317363Y80413D01*
X316282Y79965D01*
X315353Y79253D01*
X314641Y78324D01*
X314429Y77813D01*
X313929Y77913D01*
Y89271D01*
X316522D01*
X316691Y88771D01*
X316207Y88399D01*
X315686Y87721D01*
X315359Y86931D01*
X315313Y86583D01*
X320000D01*
Y86083D01*
D01*
Y86583D01*
X324687D01*
X324641Y86931D01*
X324313Y87721D01*
X323793Y88399D01*
X323309Y88771D01*
X323479Y89271D01*
X324800D01*
X325385Y89387D01*
X325881Y89719D01*
X329281Y93119D01*
X329613Y93615D01*
X329729Y94200D01*
Y97400D01*
X329613Y97985D01*
X329281Y98481D01*
X326661Y101102D01*
X326826Y101644D01*
X326882Y101655D01*
X337119Y91419D01*
X337615Y91087D01*
X338200Y90971D01*
X377108D01*
X377208Y90471D01*
X376886Y90337D01*
X376207Y89816D01*
X375687Y89138D01*
X375359Y88348D01*
X375313Y88000D01*
X380000D01*
Y87000D01*
X375313D01*
X375359Y86652D01*
X375687Y85862D01*
X376207Y85184D01*
X376669Y84829D01*
X376499Y84329D01*
X369600D01*
X369015Y84213D01*
X368519Y83881D01*
X348019Y63381D01*
X347687Y62885D01*
X347571Y62300D01*
Y20288D01*
X347122Y20067D01*
X346742Y20359D01*
X346284Y20548D01*
Y20600D01*
X346148Y21283D01*
X345762Y21862D01*
X345762Y21862D01*
X344062Y23562D01*
X343483Y23948D01*
X342800Y24084D01*
X311200D01*
X310517Y23948D01*
X309938Y23562D01*
X309938Y23562D01*
X308238Y21862D01*
X307852Y21283D01*
X307716Y20600D01*
Y20548D01*
X307258Y20359D01*
X306330Y19647D01*
X305617Y18718D01*
X305170Y17637D01*
X305017Y16476D01*
Y13524D01*
X305170Y12363D01*
X305617Y11282D01*
X306330Y10353D01*
X307258Y9641D01*
X308340Y9193D01*
X309500Y9040D01*
X310660Y9193D01*
X311742Y9641D01*
X312670Y10353D01*
X313383Y11282D01*
X313830Y12363D01*
X313983Y13524D01*
Y16476D01*
X313830Y17637D01*
X313383Y18718D01*
X312670Y19647D01*
X312189Y20016D01*
X312359Y20516D01*
X326641D01*
X326811Y20016D01*
X326330Y19647D01*
X325617Y18718D01*
X325169Y17637D01*
X325017Y16476D01*
Y13524D01*
X325169Y12363D01*
X325617Y11282D01*
X326330Y10353D01*
X327258Y9641D01*
X327971Y9346D01*
Y8980D01*
X328087Y8395D01*
X328419Y7899D01*
X328915Y7567D01*
X329500Y7451D01*
X347080D01*
X347666Y7567D01*
X348162Y7899D01*
X350181Y9919D01*
X350513Y10415D01*
X350629Y11000D01*
Y61667D01*
X370233Y81271D01*
X375358D01*
X375519Y80797D01*
X375354Y80670D01*
X374641Y79742D01*
X374193Y78660D01*
X374040Y77500D01*
X374193Y76340D01*
X374641Y75258D01*
X375354Y74330D01*
X376282Y73617D01*
X377363Y73169D01*
X378524Y73017D01*
X381476D01*
X382637Y73169D01*
X383718Y73617D01*
X384647Y74330D01*
X385359Y75258D01*
X385807Y76340D01*
X385960Y77500D01*
X385807Y78660D01*
X385359Y79742D01*
X384647Y80670D01*
X384481Y80797D01*
X384606Y81331D01*
X384885Y81387D01*
X385381Y81719D01*
X387181Y83519D01*
X387513Y84015D01*
X387629Y84600D01*
Y90800D01*
X387513Y91385D01*
X387181Y91881D01*
X385481Y93581D01*
X384985Y93913D01*
X384937Y93923D01*
X384860Y94031D01*
X384753Y94469D01*
X385359Y95258D01*
X385695Y96069D01*
X385785Y96087D01*
X386281Y96419D01*
X387381Y97519D01*
X387713Y98015D01*
X387829Y98600D01*
Y125200D01*
X387713Y125785D01*
X387381Y126281D01*
X385381Y128281D01*
X384885Y128613D01*
X384606Y128668D01*
X384481Y129203D01*
X384647Y129330D01*
X385359Y130258D01*
X385807Y131340D01*
X385960Y132500D01*
X385807Y133660D01*
X385359Y134742D01*
X384647Y135670D01*
X383718Y136383D01*
X382637Y136830D01*
X381476Y136983D01*
X378524D01*
X377363Y136830D01*
X376282Y136383D01*
X375354Y135670D01*
X374641Y134742D01*
X374346Y134029D01*
X369947D01*
X358639Y145337D01*
X358885Y145798D01*
X359300Y145716D01*
X359300Y145716D01*
X374452D01*
X374641Y145258D01*
X375354Y144330D01*
X376282Y143617D01*
X377363Y143169D01*
X378524Y143017D01*
X381476D01*
X382637Y143169D01*
X383718Y143617D01*
X384647Y144330D01*
X385359Y145258D01*
X385807Y146340D01*
X385960Y147500D01*
X385807Y148660D01*
X385359Y149742D01*
X384647Y150670D01*
X383718Y151383D01*
X382637Y151830D01*
X381476Y151983D01*
X378524D01*
X377363Y151830D01*
X376282Y151383D01*
X375354Y150670D01*
X374641Y149742D01*
X374452Y149284D01*
X360039D01*
X326979Y182344D01*
X326400Y182731D01*
X325717Y182867D01*
X325548D01*
X325359Y183324D01*
X324646Y184253D01*
X323718Y184965D01*
X322637Y185413D01*
X321476Y185566D01*
X318524D01*
X317363Y185413D01*
X316282Y184965D01*
X315353Y184253D01*
X314641Y183324D01*
X314193Y182243D01*
X314040Y181083D01*
X314193Y179922D01*
X314641Y178841D01*
X315353Y177912D01*
X316282Y177200D01*
X317363Y176752D01*
X318524Y176599D01*
X321476D01*
X322637Y176752D01*
X323718Y177200D01*
X324646Y177912D01*
X325085Y178484D01*
X325749Y178528D01*
X331343Y172934D01*
X331097Y172473D01*
X330813Y172529D01*
X304100D01*
X290659Y185971D01*
X290851Y186435D01*
X290987Y187467D01*
X290851Y188499D01*
X290453Y189460D01*
X289819Y190286D01*
X288993Y190920D01*
X288032Y191318D01*
X287000Y191454D01*
X285968Y191318D01*
X285007Y190920D01*
X284181Y190286D01*
X283547Y189460D01*
X283149Y188499D01*
X283013Y187467D01*
X283149Y186435D01*
X283341Y185971D01*
X282200Y184829D01*
X280524D01*
X280303Y185278D01*
X280453Y185474D01*
X280851Y186435D01*
X280987Y187467D01*
X280851Y188499D01*
X280659Y188963D01*
X284030Y192334D01*
X284362Y192831D01*
X284478Y193416D01*
Y193854D01*
X284927Y194076D01*
X285007Y194014D01*
X285968Y193616D01*
X287000Y193480D01*
X288032Y193616D01*
X288993Y194014D01*
X289819Y194648D01*
X290453Y195474D01*
X290645Y195938D01*
X295766D01*
X296386Y195319D01*
X296882Y194987D01*
X297467Y194871D01*
X343766D01*
X348471Y190166D01*
Y171000D01*
X348587Y170415D01*
X348919Y169919D01*
X352419Y166419D01*
X352915Y166087D01*
X353500Y165971D01*
X374346D01*
X374641Y165258D01*
X375354Y164330D01*
X376282Y163617D01*
X377363Y163170D01*
X378524Y163017D01*
X381476D01*
X382637Y163170D01*
X383718Y163617D01*
X384647Y164330D01*
X385359Y165258D01*
X385807Y166340D01*
X385960Y167500D01*
X385807Y168660D01*
X385359Y169742D01*
X384647Y170670D01*
X383718Y171383D01*
X382637Y171830D01*
X381476Y171983D01*
X378524D01*
X377363Y171830D01*
X376282Y171383D01*
X375354Y170670D01*
X374641Y169742D01*
X374346Y169029D01*
X354134D01*
X351529Y171634D01*
Y190800D01*
X351413Y191385D01*
X351081Y191881D01*
X345481Y197481D01*
X344985Y197813D01*
X344400Y197929D01*
X325225D01*
X325004Y198378D01*
X325359Y198841D01*
X325807Y199922D01*
X325960Y201083D01*
X325807Y202243D01*
X325359Y203324D01*
X324646Y204253D01*
X323718Y204965D01*
X322637Y205413D01*
X322450Y205438D01*
X322483Y205938D01*
X344399D01*
X348919Y201419D01*
X349415Y201087D01*
X350000Y200971D01*
X374346D01*
X374641Y200258D01*
X375354Y199330D01*
X376282Y198617D01*
X377363Y198170D01*
X378524Y198017D01*
X381476D01*
X382637Y198170D01*
X383718Y198617D01*
X384647Y199330D01*
X385359Y200258D01*
X385807Y201340D01*
X385960Y202500D01*
X385807Y203660D01*
X385359Y204742D01*
X384647Y205670D01*
X383718Y206383D01*
X382637Y206831D01*
X381476Y206983D01*
X378524D01*
X377363Y206831D01*
X376282Y206383D01*
X375354Y205670D01*
X374641Y204742D01*
X374346Y204029D01*
X350634D01*
X346114Y208548D01*
X345618Y208880D01*
X345033Y208996D01*
X290645D01*
X290453Y209460D01*
X290332Y209618D01*
X290508Y210086D01*
X290603Y210105D01*
X291100Y210437D01*
X293881Y213219D01*
X294213Y213715D01*
X294329Y214300D01*
Y241400D01*
X294213Y241985D01*
X293881Y242481D01*
X287981Y248381D01*
X287485Y248713D01*
X286900Y248829D01*
X232716D01*
X232667Y249329D01*
X232674Y249331D01*
X233183Y249671D01*
X306000D01*
X306585Y249787D01*
X307081Y250119D01*
X311081Y254119D01*
X311413Y254615D01*
X311529Y255200D01*
Y255846D01*
X312242Y256141D01*
X313170Y256854D01*
X313883Y257782D01*
X314331Y258863D01*
X314483Y260024D01*
Y262976D01*
X314331Y264137D01*
X313883Y265218D01*
X313170Y266146D01*
X312242Y266859D01*
X311160Y267307D01*
X310000Y267460D01*
X308840Y267307D01*
X307758Y266859D01*
X306830Y266146D01*
X306117Y265218D01*
X305669Y264137D01*
X305517Y262976D01*
Y260024D01*
X305669Y258863D01*
X306117Y257782D01*
X306830Y256854D01*
X307758Y256141D01*
X307979Y256049D01*
X308097Y255460D01*
X305366Y252729D01*
X233183D01*
X232674Y253069D01*
X231900Y253223D01*
X231126Y253069D01*
X230469Y252631D01*
X230031Y251974D01*
X229877Y251200D01*
X230031Y250426D01*
X230469Y249769D01*
X231126Y249331D01*
X231133Y249329D01*
X231084Y248829D01*
X174334D01*
X171529Y251634D01*
Y255846D01*
X172242Y256141D01*
X173170Y256854D01*
X173883Y257782D01*
X174330Y258863D01*
X174483Y260024D01*
Y262976D01*
X174330Y264137D01*
X173883Y265218D01*
X173170Y266146D01*
X172242Y266859D01*
X171160Y267307D01*
X170000Y267460D01*
X168840Y267307D01*
X167758Y266859D01*
X166830Y266146D01*
X166117Y265218D01*
X165670Y264137D01*
X165517Y262976D01*
Y260024D01*
X165670Y258863D01*
X166117Y257782D01*
X166830Y256854D01*
X167758Y256141D01*
X168471Y255846D01*
Y251000D01*
X168587Y250415D01*
X168919Y249919D01*
X171146Y247691D01*
X170954Y247229D01*
X140234D01*
X136529Y250934D01*
Y255846D01*
X137242Y256141D01*
X138170Y256854D01*
X138883Y257782D01*
X139330Y258863D01*
X139483Y260024D01*
Y262976D01*
X139330Y264137D01*
X138883Y265218D01*
X138170Y266146D01*
X137242Y266859D01*
X136160Y267307D01*
X135000Y267460D01*
X133840Y267307D01*
X132758Y266859D01*
X131830Y266146D01*
X131117Y265218D01*
X130669Y264137D01*
X130517Y262976D01*
Y260024D01*
X130669Y258863D01*
X131117Y257782D01*
X131830Y256854D01*
X132758Y256141D01*
X133471Y255846D01*
Y250300D01*
X133587Y249715D01*
X133919Y249219D01*
X137046Y246091D01*
X136854Y245629D01*
X104333D01*
X101529Y248433D01*
Y255846D01*
X102242Y256141D01*
X103170Y256854D01*
X103883Y257782D01*
X104331Y258863D01*
X104483Y260024D01*
Y262976D01*
X104331Y264137D01*
X103883Y265218D01*
X103170Y266146D01*
X102242Y266859D01*
X101160Y267307D01*
X100000Y267460D01*
X98840Y267307D01*
X97758Y266859D01*
X96830Y266146D01*
X96117Y265218D01*
X95670Y264137D01*
X95517Y262976D01*
Y260024D01*
X95670Y258863D01*
X96117Y257782D01*
X96830Y256854D01*
X97758Y256141D01*
X98471Y255846D01*
Y247800D01*
X98587Y247215D01*
X98919Y246719D01*
X101146Y244491D01*
X100954Y244029D01*
X69833D01*
X66529Y247334D01*
Y255846D01*
X67242Y256141D01*
X68170Y256854D01*
X68883Y257782D01*
X69331Y258863D01*
X69483Y260024D01*
Y262976D01*
X69331Y264137D01*
X68883Y265218D01*
X68170Y266146D01*
X67242Y266859D01*
X66160Y267307D01*
X65000Y267460D01*
X63840Y267307D01*
X62758Y266859D01*
X61830Y266146D01*
X61117Y265218D01*
X60669Y264137D01*
X60517Y262976D01*
Y260024D01*
X60669Y258863D01*
X61117Y257782D01*
X61830Y256854D01*
X62758Y256141D01*
X63471Y255846D01*
Y246700D01*
X63587Y246115D01*
X63919Y245619D01*
X66746Y242791D01*
X66554Y242329D01*
X56366D01*
X55614Y243081D01*
X55118Y243413D01*
X54533Y243529D01*
X46134D01*
X36647Y253016D01*
X36893Y253477D01*
X37200Y253416D01*
X37200Y253416D01*
X49200D01*
X49883Y253552D01*
X50462Y253938D01*
X51262Y254738D01*
X51648Y255317D01*
X51774Y255947D01*
X52242Y256141D01*
X53170Y256854D01*
X53883Y257782D01*
X54330Y258863D01*
X54483Y260024D01*
Y262976D01*
X54330Y264137D01*
X53883Y265218D01*
X53170Y266146D01*
X52242Y266859D01*
X51160Y267307D01*
X50000Y267460D01*
X48840Y267307D01*
X47758Y266859D01*
X46830Y266146D01*
X46117Y265218D01*
X45669Y264137D01*
X45517Y262976D01*
Y260024D01*
X45669Y258863D01*
X46117Y257782D01*
X46385Y257433D01*
X46164Y256984D01*
X42196D01*
X42026Y257484D01*
X42316Y257707D01*
X42837Y258386D01*
X43164Y259176D01*
X43276Y260024D01*
Y261000D01*
X40000D01*
Y261500D01*
X39500D01*
Y266187D01*
X39152Y266141D01*
X38362Y265813D01*
X37683Y265293D01*
X37384Y264903D01*
X36884Y265073D01*
Y266161D01*
X38838Y268114D01*
X116363D01*
X117411Y267066D01*
X117378Y266567D01*
X116830Y266146D01*
X116117Y265218D01*
X115670Y264137D01*
X115517Y262976D01*
Y260024D01*
X115670Y258863D01*
X116117Y257782D01*
X116830Y256854D01*
X117758Y256141D01*
X118840Y255693D01*
X120000Y255540D01*
X121160Y255693D01*
X122242Y256141D01*
X123170Y256854D01*
X123883Y257782D01*
X124330Y258863D01*
X124483Y260024D01*
Y262976D01*
X124330Y264137D01*
X123883Y265218D01*
X123170Y266146D01*
X122622Y266567D01*
X122589Y267066D01*
X123739Y268216D01*
X151261D01*
X152411Y267066D01*
X152378Y266567D01*
X151830Y266146D01*
X151117Y265218D01*
X150670Y264137D01*
X150517Y262976D01*
Y260024D01*
X150670Y258863D01*
X151117Y257782D01*
X151830Y256854D01*
X152758Y256141D01*
X153840Y255693D01*
X155000Y255540D01*
X156160Y255693D01*
X157242Y256141D01*
X158170Y256854D01*
X158883Y257782D01*
X159330Y258863D01*
X159483Y260024D01*
Y262976D01*
X159330Y264137D01*
X158883Y265218D01*
X158170Y266146D01*
X157242Y266859D01*
X156774Y267053D01*
X156649Y267683D01*
X156587Y267775D01*
X156823Y268216D01*
X186261D01*
X187411Y267066D01*
X187378Y266567D01*
X186830Y266146D01*
X186117Y265218D01*
X185670Y264137D01*
X185517Y262976D01*
Y260024D01*
X185670Y258863D01*
X186117Y257782D01*
X186830Y256854D01*
X187758Y256141D01*
X188840Y255693D01*
X190000Y255540D01*
X191160Y255693D01*
X192242Y256141D01*
X193170Y256854D01*
X193883Y257782D01*
X194331Y258863D01*
X194483Y260024D01*
Y262976D01*
X194331Y264137D01*
X193883Y265218D01*
X193170Y266146D01*
X192622Y266567D01*
X192589Y267066D01*
X193739Y268216D01*
X221261D01*
X222411Y267066D01*
X222378Y266567D01*
X221830Y266146D01*
X221117Y265218D01*
X220670Y264137D01*
X220517Y262976D01*
Y260024D01*
X220670Y258863D01*
X221117Y257782D01*
X221830Y256854D01*
X222758Y256141D01*
X223840Y255693D01*
X225000Y255540D01*
X226160Y255693D01*
X227242Y256141D01*
X228170Y256854D01*
X228883Y257782D01*
X229330Y258863D01*
X229483Y260024D01*
Y262976D01*
X229330Y264137D01*
X228883Y265218D01*
X228170Y266146D01*
X227622Y266567D01*
X227589Y267066D01*
X228739Y268216D01*
X256261D01*
X257411Y267066D01*
X257378Y266567D01*
X256830Y266146D01*
X256117Y265218D01*
X255669Y264137D01*
X255517Y262976D01*
Y260024D01*
X255669Y258863D01*
X256117Y257782D01*
X256830Y256854D01*
X257758Y256141D01*
X258840Y255693D01*
X259696Y255580D01*
X261308Y253969D01*
X261308Y253969D01*
X261887Y253582D01*
X262570Y253446D01*
X262570Y253446D01*
X277330D01*
X278013Y253582D01*
X278592Y253969D01*
X281262Y256638D01*
X281262Y256638D01*
X281648Y257217D01*
X281784Y257900D01*
X281784Y257900D01*
Y258058D01*
X282284Y258227D01*
X282683Y257707D01*
X283362Y257187D01*
X284152Y256859D01*
X284500Y256813D01*
Y261500D01*
Y266187D01*
X284152Y266141D01*
X283362Y265813D01*
X282683Y265293D01*
X282501Y265055D01*
X281974Y265190D01*
X281939Y265416D01*
X284339Y267816D01*
X292265D01*
X292809Y267030D01*
X292758Y266859D01*
X291830Y266146D01*
X291117Y265218D01*
X290669Y264137D01*
X290517Y262976D01*
Y260024D01*
X290669Y258863D01*
X291117Y257782D01*
X291830Y256854D01*
X292758Y256141D01*
X293840Y255693D01*
X295000Y255540D01*
X296160Y255693D01*
X297242Y256141D01*
X298170Y256854D01*
X298883Y257782D01*
X299330Y258863D01*
X299483Y260024D01*
Y262976D01*
X299330Y264137D01*
X298883Y265218D01*
X298170Y266146D01*
X297622Y266567D01*
X297589Y267066D01*
X299439Y268916D01*
X325561D01*
X327411Y267066D01*
X327378Y266567D01*
X326830Y266146D01*
X326117Y265218D01*
X325670Y264137D01*
X325517Y262976D01*
Y260024D01*
X325670Y258863D01*
X326117Y257782D01*
X326830Y256854D01*
X327758Y256141D01*
X328840Y255693D01*
X330000Y255540D01*
X331160Y255693D01*
X332242Y256141D01*
X333170Y256854D01*
X333883Y257782D01*
X334331Y258863D01*
X334483Y260024D01*
Y262976D01*
X334331Y264137D01*
X333883Y265218D01*
X333615Y265567D01*
X333836Y266016D01*
X341164D01*
X341385Y265567D01*
X341117Y265218D01*
X340669Y264137D01*
X340517Y262976D01*
Y260024D01*
X340669Y258863D01*
X341117Y257782D01*
X341830Y256854D01*
X342758Y256141D01*
X343840Y255693D01*
X345000Y255540D01*
X346160Y255693D01*
X347242Y256141D01*
X348170Y256854D01*
X348883Y257782D01*
X349330Y258863D01*
X349483Y260024D01*
Y262976D01*
X349330Y264137D01*
X348883Y265218D01*
X348615Y265567D01*
X348836Y266016D01*
X352804D01*
X352974Y265516D01*
X352683Y265293D01*
X352163Y264614D01*
X351836Y263824D01*
X351724Y262976D01*
Y262000D01*
X358276D01*
Y262976D01*
X358164Y263824D01*
X357837Y264614D01*
X357316Y265293D01*
X357026Y265516D01*
X357196Y266016D01*
X361164D01*
X361385Y265567D01*
X361117Y265218D01*
X360669Y264137D01*
X360517Y262976D01*
Y260024D01*
X360669Y258863D01*
X361117Y257782D01*
X361830Y256854D01*
X362758Y256141D01*
X363216Y255952D01*
Y247122D01*
X333961Y217867D01*
X325548D01*
X325359Y218324D01*
X324646Y219253D01*
X323718Y219965D01*
X322637Y220413D01*
X321476Y220566D01*
X318524D01*
X317363Y220413D01*
X316282Y219965D01*
X315353Y219253D01*
X314641Y218324D01*
X314193Y217243D01*
X314040Y216083D01*
X314193Y214922D01*
X314641Y213841D01*
X315353Y212913D01*
X316282Y212200D01*
X317363Y211752D01*
X318524Y211599D01*
X321476D01*
X322637Y211752D01*
X323718Y212200D01*
X324646Y212913D01*
X325359Y213841D01*
X325548Y214298D01*
X334700D01*
X335383Y214434D01*
X335962Y214821D01*
X366262Y245121D01*
X366649Y245700D01*
X366784Y246383D01*
Y255952D01*
X367242Y256141D01*
X368170Y256854D01*
X368883Y257782D01*
X369331Y258863D01*
X369483Y260024D01*
Y262976D01*
X369331Y264137D01*
X368883Y265218D01*
X368170Y266146D01*
X367242Y266859D01*
X366774Y267053D01*
X366649Y267683D01*
X366262Y268262D01*
X365462Y269062D01*
X364883Y269448D01*
X364200Y269584D01*
X330800D01*
X330117Y269448D01*
X330092Y269431D01*
X328263Y271260D01*
X328455Y271722D01*
X373747D01*
X378858Y266931D01*
D02*
G37*
G36*
X26897Y271260D02*
X24219Y268581D01*
X23887Y268085D01*
X23771Y267500D01*
Y257700D01*
X23887Y257115D01*
X24219Y256619D01*
X41819Y239019D01*
X42315Y238687D01*
X42900Y238571D01*
X46047D01*
Y232047D01*
X53953D01*
Y237031D01*
X54415Y237222D01*
X55619Y236019D01*
X56115Y235687D01*
X56700Y235571D01*
X185066D01*
X194000Y226637D01*
X193681Y226249D01*
X193585Y226313D01*
X193000Y226429D01*
X101500D01*
X100915Y226313D01*
X100419Y225981D01*
X97767Y223329D01*
X51868D01*
X51698Y223829D01*
X51965Y224035D01*
X52407Y224610D01*
X52685Y225281D01*
X52714Y225500D01*
X50000D01*
X47286D01*
X47315Y225281D01*
X47593Y224610D01*
X48035Y224035D01*
X48302Y223829D01*
X48132Y223329D01*
X32400D01*
X31815Y223213D01*
X31319Y222881D01*
X28235Y219798D01*
X27820Y220076D01*
X27970Y220438D01*
X28440Y222399D01*
X28599Y224409D01*
X28440Y226420D01*
X27970Y228380D01*
X27198Y230243D01*
X26144Y231963D01*
X24835Y233496D01*
X23301Y234806D01*
X21582Y235859D01*
X19719Y236631D01*
X17758Y237102D01*
X15748Y237260D01*
X13738Y237102D01*
X11777Y236631D01*
X9914Y235859D01*
X8195Y234806D01*
X6661Y233496D01*
X5352Y231963D01*
X4408Y230423D01*
X3908Y230564D01*
Y255802D01*
X8699Y260913D01*
X14717Y266931D01*
X19828Y271722D01*
X26706D01*
X26897Y271260D01*
D02*
G37*
G36*
X273047Y223514D02*
X279671D01*
Y222301D01*
X278496Y221126D01*
X278032Y221318D01*
X277000Y221454D01*
X275968Y221318D01*
X275007Y220920D01*
X274181Y220286D01*
X273547Y219460D01*
X273355Y218996D01*
X262067D01*
X261482Y218880D01*
X260986Y218548D01*
X260051Y217614D01*
X259508Y217778D01*
X259469Y217974D01*
X259031Y218631D01*
X258374Y219069D01*
X257600Y219223D01*
X256826Y219069D01*
X256169Y218631D01*
X255731Y217974D01*
X255612Y217374D01*
X255066Y216829D01*
X239344D01*
X239221Y216912D01*
X239172Y217409D01*
X247701Y225938D01*
X273047D01*
Y223514D01*
D02*
G37*
G36*
X238629Y238771D02*
X238569Y238731D01*
X238131Y238074D01*
X238012Y237474D01*
X230673Y230136D01*
X230341Y229640D01*
X230225Y229054D01*
Y205691D01*
X229763Y205500D01*
X222388Y212875D01*
X222269Y213474D01*
X221831Y214131D01*
X221174Y214569D01*
X220400Y214723D01*
X219626Y214569D01*
X218969Y214131D01*
X218531Y213474D01*
X218377Y212700D01*
X218531Y211926D01*
X218969Y211269D01*
X219626Y210831D01*
X220226Y210712D01*
X228071Y202867D01*
Y197549D01*
X227617Y197394D01*
X227571Y197392D01*
X186781Y238181D01*
X186285Y238513D01*
X185700Y238629D01*
X57621D01*
X57519Y238771D01*
X57775Y239271D01*
X238478D01*
X238629Y238771D01*
D02*
G37*
G36*
X124346Y203191D02*
X124154Y202729D01*
X92334D01*
X77981Y217081D01*
X77485Y217413D01*
X76900Y217529D01*
X53645D01*
X53453Y217993D01*
X53354Y218122D01*
X53575Y218571D01*
X108967D01*
X124346Y203191D01*
D02*
G37*
G36*
X273547Y205474D02*
X274181Y204648D01*
X275007Y204014D01*
X275968Y203616D01*
X277000Y203480D01*
X278032Y203616D01*
X278993Y204014D01*
X279322Y204267D01*
X279771Y204045D01*
Y202400D01*
X278496Y201126D01*
X278032Y201318D01*
X277000Y201454D01*
X275968Y201318D01*
X275007Y200920D01*
X274181Y200286D01*
X273547Y199460D01*
X273355Y198996D01*
X268465D01*
X267880Y198880D01*
X267384Y198548D01*
X244399Y175564D01*
X243902Y175613D01*
X243829Y175721D01*
Y182113D01*
X243713Y182698D01*
X243381Y183194D01*
X240662Y185913D01*
X240872Y186411D01*
X241474Y186531D01*
X242131Y186969D01*
X242569Y187626D01*
X242688Y188225D01*
X260401Y205938D01*
X273355D01*
X273547Y205474D01*
D02*
G37*
G36*
X317550Y205438D02*
X317363Y205413D01*
X316282Y204965D01*
X315353Y204253D01*
X314641Y203324D01*
X314193Y202243D01*
X314040Y201083D01*
X314193Y199922D01*
X314641Y198841D01*
X314996Y198378D01*
X314775Y197929D01*
X298100D01*
X297481Y198548D01*
X296985Y198880D01*
X296400Y198996D01*
X290645D01*
X290453Y199460D01*
X289819Y200286D01*
X288993Y200920D01*
X288032Y201318D01*
X287000Y201454D01*
X285968Y201318D01*
X285007Y200920D01*
X284927Y200858D01*
X284478Y201080D01*
Y203854D01*
X284927Y204076D01*
X285007Y204014D01*
X285968Y203616D01*
X287000Y203480D01*
X288032Y203616D01*
X288993Y204014D01*
X289819Y204648D01*
X290453Y205474D01*
X290645Y205938D01*
X317517D01*
X317550Y205438D01*
D02*
G37*
G36*
X138019Y210319D02*
X138515Y209987D01*
X139100Y209871D01*
X140090D01*
X140337Y209371D01*
X140047Y208993D01*
X139649Y208032D01*
X139513Y207000D01*
X139649Y205968D01*
X140047Y205007D01*
X140223Y204778D01*
X140002Y204329D01*
X136998D01*
X136777Y204778D01*
X136953Y205007D01*
X137351Y205968D01*
X137487Y207000D01*
X137351Y208032D01*
X136953Y208993D01*
X136319Y209819D01*
X135493Y210453D01*
X134532Y210851D01*
X133500Y210987D01*
X132468Y210851D01*
X132004Y210659D01*
X130078Y212585D01*
X130269Y213047D01*
X135290D01*
X138019Y210319D01*
D02*
G37*
G36*
X129546Y222909D02*
X126719Y220081D01*
X126387Y219585D01*
X126271Y219000D01*
Y212700D01*
X126387Y212115D01*
X126719Y211619D01*
X129841Y208496D01*
X129649Y208032D01*
X129513Y207000D01*
X129649Y205968D01*
X130047Y205007D01*
X130223Y204778D01*
X130002Y204329D01*
X127533D01*
X110681Y221181D01*
X110185Y221513D01*
X109600Y221629D01*
X101046D01*
X100854Y222091D01*
X102134Y223371D01*
X129354D01*
X129546Y222909D01*
D02*
G37*
G36*
X238577Y119684D02*
X238498Y119150D01*
X238169Y118931D01*
X237731Y118274D01*
X237612Y117675D01*
X236419Y116481D01*
X236087Y115985D01*
X235971Y115400D01*
Y99436D01*
X236087Y98851D01*
X236419Y98355D01*
X236844Y97929D01*
X236637Y97429D01*
X234906D01*
X234321Y97313D01*
X233825Y96981D01*
X229420Y92576D01*
X228825Y92689D01*
X228629Y92983D01*
Y110321D01*
X238023Y119715D01*
X238577Y119684D01*
D02*
G37*
G36*
X261035Y93119D02*
X261531Y92787D01*
X262116Y92671D01*
X273527D01*
X273748Y92222D01*
X273547Y91960D01*
X273149Y90999D01*
X273013Y89967D01*
X273149Y88935D01*
X273547Y87974D01*
X274181Y87148D01*
X275007Y86514D01*
X275968Y86116D01*
X275887Y85629D01*
X233063D01*
X232871Y86091D01*
X234171Y87391D01*
X234874Y87531D01*
X235531Y87969D01*
X235969Y88626D01*
X236123Y89400D01*
X235969Y90174D01*
X235531Y90831D01*
X235356Y90947D01*
X235307Y91444D01*
X236034Y92171D01*
X257117D01*
X257626Y91831D01*
X258400Y91677D01*
X259174Y91831D01*
X259831Y92269D01*
X260269Y92926D01*
X260311Y93135D01*
X260853Y93300D01*
X261035Y93119D01*
D02*
G37*
G36*
X218471Y127136D02*
Y120139D01*
X217819Y119487D01*
X217487Y118991D01*
X217371Y118406D01*
Y94783D01*
X217031Y94274D01*
X216877Y93500D01*
X216913Y93317D01*
X216596Y92930D01*
X192733D01*
X182188Y103474D01*
X182149Y103671D01*
X182560Y104171D01*
X194219D01*
X194804Y104287D01*
X195300Y104619D01*
X218009Y127327D01*
X218471Y127136D01*
D02*
G37*
G36*
X311651Y111900D02*
X312038Y111321D01*
X313538Y109821D01*
X314117Y109434D01*
X314420Y109374D01*
X314641Y108841D01*
X315353Y107913D01*
X316282Y107200D01*
X317363Y106752D01*
X318524Y106599D01*
X321476D01*
X322637Y106752D01*
X323718Y107200D01*
X324646Y107913D01*
X325359Y108841D01*
X325548Y109298D01*
X350000D01*
X350683Y109434D01*
X351262Y109821D01*
X352156Y110716D01*
X374452D01*
X374641Y110258D01*
X375354Y109330D01*
X376282Y108617D01*
X377363Y108169D01*
X378524Y108017D01*
X381476D01*
X382637Y108169D01*
X383718Y108617D01*
X384271Y109041D01*
X384771Y108795D01*
Y101205D01*
X384271Y100959D01*
X383718Y101383D01*
X382637Y101830D01*
X381476Y101983D01*
X378524D01*
X377363Y101830D01*
X376282Y101383D01*
X375354Y100670D01*
X374641Y99742D01*
X374193Y98660D01*
X374040Y97500D01*
X374193Y96340D01*
X374641Y95258D01*
X375200Y94529D01*
X374954Y94029D01*
X338833D01*
X328300Y104563D01*
X327803Y104895D01*
X327218Y105011D01*
X316852D01*
X311029Y110834D01*
Y112465D01*
X311529Y112514D01*
X311651Y111900D01*
D02*
G37*
G36*
X19371Y97584D02*
Y92600D01*
X19487Y92015D01*
X19819Y91519D01*
X21341Y89996D01*
X21149Y89532D01*
X21013Y88500D01*
X21149Y87468D01*
X21547Y86507D01*
X22181Y85681D01*
X23007Y85047D01*
X23968Y84649D01*
X25000Y84513D01*
X26032Y84649D01*
X26993Y85047D01*
X27819Y85681D01*
X28453Y86507D01*
X28851Y87468D01*
X28987Y88500D01*
X28851Y89532D01*
X28453Y90493D01*
X27819Y91319D01*
X26993Y91953D01*
X26032Y92351D01*
X25000Y92487D01*
X23968Y92351D01*
X23504Y92159D01*
X22429Y93234D01*
Y94925D01*
X22878Y95146D01*
X23007Y95047D01*
X23968Y94649D01*
X25000Y94513D01*
X26032Y94649D01*
X26496Y94841D01*
X30419Y90919D01*
X30915Y90587D01*
X31500Y90471D01*
X46355D01*
X46547Y90007D01*
X46799Y89678D01*
X46578Y89229D01*
X32800D01*
X32215Y89113D01*
X31719Y88781D01*
X26166Y83229D01*
X15434D01*
X14571Y84092D01*
X14792Y84540D01*
X15000Y84513D01*
X16032Y84649D01*
X16993Y85047D01*
X17819Y85681D01*
X18453Y86507D01*
X18851Y87468D01*
X18987Y88500D01*
X18851Y89532D01*
X18453Y90493D01*
X17819Y91319D01*
X16993Y91953D01*
X16032Y92351D01*
X15000Y92487D01*
X13968Y92351D01*
X13007Y91953D01*
X12778Y91777D01*
X12329Y91998D01*
Y95002D01*
X12778Y95223D01*
X13007Y95047D01*
X13968Y94649D01*
X15000Y94513D01*
X16032Y94649D01*
X16993Y95047D01*
X17819Y95681D01*
X18453Y96507D01*
X18851Y97468D01*
X18871Y97617D01*
X19371Y97584D01*
D02*
G37*
G36*
X273671Y82122D02*
X273547Y81960D01*
X273355Y81496D01*
X243867D01*
X243282Y81380D01*
X242786Y81048D01*
X239178Y77441D01*
X238579Y77322D01*
X237922Y76884D01*
X237484Y76227D01*
X237356Y75585D01*
X236661Y75723D01*
X235887Y75569D01*
X235379Y75229D01*
X158800D01*
X158215Y75113D01*
X157719Y74781D01*
X153419Y70481D01*
X153087Y69985D01*
X152971Y69400D01*
Y20654D01*
X152258Y20359D01*
X151330Y19647D01*
X150617Y18718D01*
X150170Y17637D01*
X150017Y16476D01*
Y13524D01*
X150170Y12363D01*
X150617Y11282D01*
X151330Y10353D01*
X152258Y9641D01*
X153120Y9284D01*
X153020Y8784D01*
X138039D01*
X137259Y9564D01*
X137292Y10063D01*
X137670Y10353D01*
X138383Y11282D01*
X138830Y12363D01*
X138983Y13524D01*
Y16476D01*
X138830Y17637D01*
X138383Y18718D01*
X137670Y19647D01*
X136742Y20359D01*
X135660Y20807D01*
X134500Y20960D01*
X133340Y20807D01*
X132258Y20359D01*
X131330Y19647D01*
X130617Y18718D01*
X130169Y17637D01*
X130017Y16476D01*
Y13524D01*
X130169Y12363D01*
X130617Y11282D01*
X131330Y10353D01*
X131650Y10108D01*
X131674Y9608D01*
X130789Y8784D01*
X120980D01*
X120880Y9284D01*
X121742Y9641D01*
X122670Y10353D01*
X123383Y11282D01*
X123830Y12363D01*
X123983Y13524D01*
Y16476D01*
X123830Y17637D01*
X123383Y18718D01*
X122670Y19647D01*
X121742Y20359D01*
X121029Y20654D01*
Y42167D01*
X161351Y82488D01*
X171420D01*
X171421Y82488D01*
X171422Y82488D01*
X228719Y82571D01*
X273450D01*
X273671Y82122D01*
D02*
G37*
G36*
X147648Y87811D02*
X113519Y53681D01*
X113187Y53185D01*
X113071Y52600D01*
Y17650D01*
X112571Y17551D01*
X112337Y18114D01*
X111817Y18793D01*
X111138Y19313D01*
X110348Y19641D01*
X110000Y19687D01*
Y15000D01*
X109000D01*
Y19687D01*
X108652Y19641D01*
X107862Y19313D01*
X107184Y18793D01*
X106829Y18331D01*
X106329Y18501D01*
Y20700D01*
X106213Y21285D01*
X105881Y21781D01*
X102781Y24881D01*
X102285Y25213D01*
X101700Y25329D01*
X87700D01*
X87115Y25213D01*
X86619Y24881D01*
X83419Y21681D01*
X83087Y21185D01*
X82982Y20659D01*
X82258Y20359D01*
X81330Y19647D01*
X80617Y18718D01*
X80169Y17637D01*
X80017Y16476D01*
Y13524D01*
X80169Y12363D01*
X80617Y11282D01*
X81330Y10353D01*
X82258Y9641D01*
X83120Y9284D01*
X83020Y8784D01*
X68239D01*
X67372Y9651D01*
X67405Y10150D01*
X67670Y10353D01*
X68383Y11282D01*
X68831Y12363D01*
X68983Y13524D01*
Y16476D01*
X68831Y17637D01*
X68383Y18718D01*
X67670Y19647D01*
X66742Y20359D01*
X65660Y20807D01*
X64500Y20960D01*
X63340Y20807D01*
X62258Y20359D01*
X61330Y19647D01*
X60617Y18718D01*
X60170Y17637D01*
X60017Y16476D01*
Y13524D01*
X60170Y12363D01*
X60617Y11282D01*
X61330Y10353D01*
X61821Y9976D01*
X61854Y9477D01*
X61261Y8884D01*
X51221D01*
X51122Y9384D01*
X51742Y9641D01*
X52670Y10353D01*
X53383Y11282D01*
X53830Y12363D01*
X53983Y13524D01*
Y16476D01*
X53830Y17637D01*
X53383Y18718D01*
X52670Y19647D01*
X51742Y20359D01*
X50660Y20807D01*
X49500Y20960D01*
X48340Y20807D01*
X47258Y20359D01*
X46330Y19647D01*
X45617Y18718D01*
X45169Y17637D01*
X45017Y16476D01*
Y14781D01*
X44719Y14581D01*
X43223Y13086D01*
X42749Y13319D01*
X42776Y13524D01*
Y14500D01*
X39500D01*
Y15000D01*
X39000D01*
Y19687D01*
X38652Y19641D01*
X37862Y19313D01*
X37183Y18793D01*
X36829Y18331D01*
X36329Y18501D01*
Y19067D01*
X105536Y88273D01*
X147457D01*
X147648Y87811D01*
D02*
G37*
G36*
X341811Y20016D02*
X341330Y19647D01*
X340617Y18718D01*
X340170Y17637D01*
X340017Y16476D01*
Y13524D01*
X340170Y12363D01*
X340617Y11282D01*
X340866Y10958D01*
X340645Y10510D01*
X333355D01*
X333134Y10958D01*
X333383Y11282D01*
X333830Y12363D01*
X333983Y13524D01*
Y16476D01*
X333830Y17637D01*
X333383Y18718D01*
X332670Y19647D01*
X332189Y20016D01*
X332359Y20516D01*
X341641D01*
X341811Y20016D01*
D02*
G37*
G36*
X103230Y20107D02*
X103192Y19788D01*
X102686Y19626D01*
X102670Y19647D01*
X101742Y20359D01*
X100660Y20807D01*
X99500Y20960D01*
X98340Y20807D01*
X97258Y20359D01*
X96330Y19647D01*
X95617Y18718D01*
X95170Y17637D01*
X95017Y16476D01*
Y13524D01*
X95170Y12363D01*
X95617Y11282D01*
X96330Y10353D01*
X96361Y9884D01*
X95261Y8784D01*
X85980D01*
X85880Y9284D01*
X86742Y9641D01*
X87670Y10353D01*
X88383Y11282D01*
X88831Y12363D01*
X88983Y13524D01*
Y16476D01*
X88831Y17637D01*
X88383Y18718D01*
X87670Y19647D01*
X86961Y20191D01*
X86867Y20804D01*
X88333Y22271D01*
X101067D01*
X103230Y20107D01*
D02*
G37*
G36*
X314641Y93841D02*
X315353Y92913D01*
X315496Y92803D01*
X315336Y92329D01*
X313100D01*
X312515Y92213D01*
X312019Y91881D01*
X311319Y91181D01*
X310987Y90685D01*
X310871Y90100D01*
Y62683D01*
X310813Y62612D01*
X309834D01*
X301397Y71048D01*
X300901Y71380D01*
X300316Y71496D01*
X290645D01*
X290453Y71960D01*
X289819Y72786D01*
X288993Y73420D01*
X288032Y73818D01*
X287000Y73954D01*
X285968Y73818D01*
X285007Y73420D01*
X284778Y73244D01*
X284329Y73465D01*
Y76469D01*
X284778Y76690D01*
X285007Y76514D01*
X285968Y76116D01*
X287000Y75980D01*
X288032Y76116D01*
X288993Y76514D01*
X289819Y77148D01*
X290453Y77974D01*
X290851Y78935D01*
X290987Y79967D01*
X290851Y80999D01*
X290659Y81463D01*
X294781Y85586D01*
X303749Y94553D01*
X314346D01*
X314641Y93841D01*
D02*
G37*
G36*
X166814Y86288D02*
X166777Y86100D01*
X166810Y85933D01*
X166493Y85547D01*
X160717D01*
X160132Y85430D01*
X159636Y85099D01*
X118419Y43881D01*
X118087Y43385D01*
X117971Y42800D01*
Y20654D01*
X117258Y20359D01*
X116629Y19876D01*
X116129Y20123D01*
Y51967D01*
X150837Y86674D01*
X166497D01*
X166814Y86288D01*
D02*
G37*
G36*
X182346Y131391D02*
X182154Y130929D01*
X179934D01*
X160329Y150533D01*
Y152754D01*
X160791Y152946D01*
X182346Y131391D01*
D02*
G37*
G36*
X311516Y127618D02*
X311016Y127569D01*
X310913Y128085D01*
X310581Y128581D01*
X303581Y135581D01*
X303085Y135913D01*
X302500Y136029D01*
X281533D01*
X280948Y135913D01*
X280452Y135581D01*
X278790Y133920D01*
X273047D01*
Y127329D01*
X241946D01*
X241360Y127213D01*
X240864Y126881D01*
X226019Y112036D01*
X224591Y110609D01*
X224129Y110800D01*
Y113467D01*
X225196Y114533D01*
X225393Y114828D01*
X225651Y114656D01*
X226425Y114502D01*
X227199Y114656D01*
X227856Y115095D01*
X228294Y115751D01*
X228324Y115901D01*
X240639Y128216D01*
X261000D01*
X261683Y128351D01*
X262262Y128738D01*
X277822Y144298D01*
X311516D01*
Y127618D01*
D02*
G37*
G36*
X220448Y146074D02*
Y139583D01*
X220183Y139187D01*
X219629Y139034D01*
X198788Y159874D01*
X198669Y160474D01*
X198231Y161131D01*
X197574Y161569D01*
X196800Y161723D01*
X196026Y161569D01*
X195369Y161131D01*
X195229Y160921D01*
X194729Y161073D01*
Y171139D01*
X195191Y171331D01*
X220448Y146074D01*
D02*
G37*
G36*
X207671Y208067D02*
Y196883D01*
X207331Y196374D01*
X207177Y195600D01*
X207331Y194826D01*
X207769Y194169D01*
X208426Y193731D01*
X209200Y193577D01*
X209974Y193731D01*
X210631Y194169D01*
X211069Y194826D01*
X211223Y195600D01*
X211069Y196374D01*
X210729Y196883D01*
Y208700D01*
X210613Y209285D01*
X210549Y209381D01*
X210937Y209700D01*
X224971Y195667D01*
Y191500D01*
X225049Y191103D01*
X224926Y190569D01*
X224269Y190131D01*
X223831Y189474D01*
X223712Y188874D01*
X223466Y188629D01*
X206180D01*
X205672Y188969D01*
X204897Y189123D01*
X204123Y188969D01*
X203467Y188531D01*
X203028Y187874D01*
X202874Y187100D01*
X203028Y186326D01*
X203467Y185669D01*
X204123Y185231D01*
X204897Y185077D01*
X205672Y185231D01*
X206180Y185571D01*
X224100D01*
X224685Y185687D01*
X225181Y186019D01*
X225874Y186712D01*
X226084Y186753D01*
X226471Y186436D01*
Y177500D01*
X226587Y176915D01*
X226919Y176419D01*
X228263Y175075D01*
X228332Y174724D01*
X228672Y174216D01*
Y161400D01*
X228788Y160815D01*
X229120Y160319D01*
X233121Y156317D01*
X233617Y155986D01*
X234203Y155869D01*
X245510D01*
X245701Y155407D01*
X227923Y137629D01*
X224261D01*
X223944Y138016D01*
X224000Y138300D01*
X223846Y139074D01*
X223506Y139583D01*
Y146708D01*
X223390Y147293D01*
X223058Y147789D01*
X158366Y212481D01*
X157870Y212813D01*
X157285Y212929D01*
X145308D01*
X145209Y213429D01*
X145493Y213547D01*
X146319Y214181D01*
X146953Y215007D01*
X147351Y215968D01*
X147487Y217000D01*
X147351Y218032D01*
X146953Y218993D01*
X146319Y219819D01*
X145731Y220271D01*
X145900Y220771D01*
X159051D01*
X221496Y158326D01*
X221615Y157726D01*
X222054Y157069D01*
X222710Y156631D01*
X223484Y156477D01*
X224258Y156631D01*
X224915Y157069D01*
X225353Y157726D01*
X225507Y158500D01*
X225353Y159274D01*
X224915Y159931D01*
X224258Y160369D01*
X223659Y160488D01*
X161238Y222909D01*
X161430Y223371D01*
X192367D01*
X207671Y208067D01*
D02*
G37*
G36*
X190789Y175733D02*
X190658Y175157D01*
X190169Y174831D01*
X189731Y174174D01*
X189577Y173400D01*
X189731Y172626D01*
X190088Y172091D01*
X189988Y171677D01*
X189905Y171545D01*
X189526Y171469D01*
X188869Y171031D01*
X188431Y170374D01*
X188277Y169600D01*
X188431Y168826D01*
X188771Y168317D01*
Y144200D01*
X188887Y143615D01*
X189219Y143119D01*
X192919Y139419D01*
X193415Y139087D01*
X194000Y138971D01*
X204117D01*
X204626Y138631D01*
X205400Y138477D01*
X206174Y138631D01*
X206831Y139069D01*
X207269Y139726D01*
X207423Y140500D01*
X207269Y141274D01*
X206831Y141931D01*
X206174Y142369D01*
X205400Y142523D01*
X204626Y142369D01*
X204117Y142029D01*
X200868D01*
X200632Y142470D01*
X200669Y142526D01*
X200823Y143300D01*
X200669Y144074D01*
X200231Y144731D01*
X199574Y145169D01*
X198975Y145288D01*
X194729Y149533D01*
Y158327D01*
X195229Y158479D01*
X195369Y158269D01*
X196026Y157831D01*
X196625Y157712D01*
X201646Y152691D01*
X201454Y152229D01*
X200183D01*
X199674Y152569D01*
X198900Y152723D01*
X198126Y152569D01*
X197469Y152131D01*
X197031Y151474D01*
X196877Y150700D01*
X197031Y149926D01*
X197469Y149269D01*
X198126Y148831D01*
X198900Y148677D01*
X199674Y148831D01*
X200183Y149171D01*
X202267D01*
X216491Y134947D01*
X216427Y134303D01*
X216169Y134131D01*
X215731Y133474D01*
X215702Y133326D01*
X215171Y133221D01*
X215031Y133431D01*
X214374Y133869D01*
X213600Y134023D01*
X212826Y133869D01*
X212317Y133529D01*
X184534D01*
X162616Y155447D01*
X162869Y155826D01*
X163023Y156600D01*
X162869Y157374D01*
X162431Y158031D01*
X161933Y158363D01*
X161798Y158935D01*
X162134Y159271D01*
X176600D01*
X177185Y159387D01*
X177681Y159719D01*
X179981Y162019D01*
X180313Y162515D01*
X180429Y163100D01*
Y185439D01*
X180891Y185631D01*
X190789Y175733D01*
D02*
G37*
G36*
X249746Y123809D02*
X246126Y120188D01*
X245526Y120069D01*
X244869Y119631D01*
X244431Y118974D01*
X244413Y118886D01*
X243935Y118741D01*
X242268Y120407D01*
X242269Y120409D01*
X242423Y121183D01*
X242269Y121957D01*
X241831Y122613D01*
X241614Y122758D01*
X241564Y123256D01*
X242579Y124271D01*
X249554D01*
X249746Y123809D01*
D02*
G37*
G36*
X273609Y112040D02*
X273547Y111960D01*
X273149Y110999D01*
X273013Y109967D01*
X273149Y108935D01*
X273547Y107974D01*
X273774Y107678D01*
X273553Y107229D01*
X254546D01*
X254354Y107691D01*
X259152Y112489D01*
X273388D01*
X273609Y112040D01*
D02*
G37*
G36*
X243731Y114619D02*
X244228Y114287D01*
X244813Y114171D01*
X255854D01*
X256046Y113709D01*
X249726Y107388D01*
X249126Y107269D01*
X248469Y106831D01*
X248031Y106174D01*
X247877Y105400D01*
X247933Y105116D01*
X247616Y104729D01*
X245833D01*
X244888Y105675D01*
X244769Y106274D01*
X244331Y106931D01*
X243674Y107369D01*
X242900Y107523D01*
X242126Y107369D01*
X241469Y106931D01*
X241031Y106274D01*
X240877Y105500D01*
X240922Y105271D01*
X240474Y104969D01*
X239700Y105123D01*
X239416Y105067D01*
X239029Y105384D01*
Y114767D01*
X239774Y115512D01*
X240374Y115631D01*
X241031Y116069D01*
X241248Y116395D01*
X241888Y116462D01*
X243731Y114619D01*
D02*
G37*
G36*
X307971Y126866D02*
Y111564D01*
X307509Y111372D01*
X293781Y125100D01*
X293285Y125431D01*
X292700Y125548D01*
X287545D01*
X287512Y126048D01*
X288032Y126116D01*
X288993Y126514D01*
X289819Y127148D01*
X290453Y127974D01*
X290851Y128935D01*
X290987Y129967D01*
X290851Y130999D01*
X290453Y131960D01*
X290061Y132471D01*
X290308Y132971D01*
X301867D01*
X307971Y126866D01*
D02*
G37*
G36*
X273609Y122040D02*
X273547Y121960D01*
X273149Y120999D01*
X273013Y119967D01*
X273149Y118935D01*
X273547Y117974D01*
X273774Y117678D01*
X273553Y117229D01*
X248593D01*
X248230Y117729D01*
X248288Y118026D01*
X252752Y122489D01*
X273388D01*
X273609Y122040D01*
D02*
G37*
G36*
X314037Y100519D02*
X314533Y100187D01*
X315118Y100071D01*
X315598D01*
X315768Y99571D01*
X315353Y99253D01*
X314641Y98324D01*
X314346Y97612D01*
X303116D01*
X302530Y97496D01*
X302034Y97164D01*
X295691Y90821D01*
X295229Y91013D01*
Y102000D01*
X295113Y102585D01*
X294781Y103081D01*
X291081Y106781D01*
X290585Y107113D01*
X290444Y107141D01*
X290237Y107692D01*
X290453Y107974D01*
X290851Y108935D01*
X290987Y109967D01*
X290851Y110999D01*
X290453Y111960D01*
X289819Y112786D01*
X288993Y113420D01*
X288032Y113818D01*
X287000Y113954D01*
X285968Y113818D01*
X285504Y113626D01*
X284163Y114967D01*
X285504Y116308D01*
X285968Y116116D01*
X287000Y115980D01*
X288032Y116116D01*
X288993Y116514D01*
X289819Y117148D01*
X290453Y117974D01*
X290851Y118935D01*
X290987Y119967D01*
X290851Y120999D01*
X290453Y121960D01*
X290391Y122040D01*
X290613Y122489D01*
X292067D01*
X314037Y100519D01*
D02*
G37*
G36*
X273471Y269766D02*
Y267154D01*
X272758Y266859D01*
X271830Y266146D01*
X271117Y265218D01*
X270670Y264137D01*
X270517Y262976D01*
Y260024D01*
X270670Y258863D01*
X271117Y257782D01*
X271362Y257463D01*
X271141Y257014D01*
X263924D01*
X263677Y257515D01*
X263883Y257782D01*
X264331Y258863D01*
X264483Y260024D01*
Y262976D01*
X264331Y264137D01*
X263883Y265218D01*
X263170Y266146D01*
X262242Y266859D01*
X261774Y267053D01*
X261649Y267683D01*
X261262Y268262D01*
X259515Y270009D01*
X259706Y270471D01*
X272766D01*
X273471Y269766D01*
D02*
G37*
G36*
X278855Y231882D02*
X278664Y231420D01*
X275210D01*
X266121Y240509D01*
X266313Y240971D01*
X269766D01*
X278855Y231882D01*
D02*
G37*
G36*
X281271Y237866D02*
Y234446D01*
X280809Y234254D01*
X272954Y242109D01*
X273146Y242571D01*
X276567D01*
X281271Y237866D01*
D02*
G37*
G36*
X289671Y237467D02*
Y230965D01*
X289222Y230744D01*
X288993Y230920D01*
X288032Y231318D01*
X287000Y231454D01*
X285968Y231318D01*
X285007Y230920D01*
X284778Y230744D01*
X284329Y230965D01*
Y238500D01*
X284213Y239085D01*
X283881Y239581D01*
X279754Y243709D01*
X279946Y244171D01*
X282966D01*
X289671Y237467D01*
D02*
G37*
%LPC*%
G36*
X146214Y196500D02*
X144000D01*
Y194286D01*
X144219Y194315D01*
X144890Y194593D01*
X145466Y195035D01*
X145907Y195610D01*
X146185Y196281D01*
X146214Y196500D01*
D02*
G37*
G36*
X143000D02*
X140786D01*
X140815Y196281D01*
X141093Y195610D01*
X141534Y195035D01*
X142110Y194593D01*
X142781Y194315D01*
X143000Y194286D01*
Y196500D01*
D02*
G37*
G36*
X25500Y194214D02*
Y192000D01*
X27714D01*
X27685Y192219D01*
X27407Y192890D01*
X26965Y193465D01*
X26390Y193907D01*
X25719Y194185D01*
X25500Y194214D01*
D02*
G37*
G36*
X27714Y191000D02*
X25500D01*
Y188786D01*
X25719Y188815D01*
X26390Y189093D01*
X26965Y189534D01*
X27407Y190110D01*
X27685Y190781D01*
X27714Y191000D01*
D02*
G37*
G36*
X319500Y155583D02*
X315313D01*
X315359Y155235D01*
X315686Y154445D01*
X316207Y153766D01*
X316886Y153245D01*
X317676Y152918D01*
X318524Y152806D01*
X319500D01*
Y155583D01*
D02*
G37*
G36*
X324687D02*
X320500D01*
Y152806D01*
X321476D01*
X322324Y152918D01*
X323114Y153245D01*
X323793Y153766D01*
X324313Y154445D01*
X324641Y155235D01*
X324687Y155583D01*
D02*
G37*
G36*
Y120583D02*
X320500D01*
Y117806D01*
X321476D01*
X322324Y117918D01*
X323114Y118245D01*
X323793Y118766D01*
X324313Y119445D01*
X324641Y120235D01*
X324687Y120583D01*
D02*
G37*
G36*
X321476Y124359D02*
X320500D01*
Y121583D01*
X324687D01*
X324641Y121931D01*
X324313Y122721D01*
X323793Y123399D01*
X323114Y123920D01*
X322324Y124247D01*
X321476Y124359D01*
D02*
G37*
G36*
X379500Y122000D02*
X375313D01*
X375359Y121652D01*
X375687Y120862D01*
X376207Y120184D01*
X376886Y119663D01*
X377676Y119336D01*
X378524Y119224D01*
X379500D01*
Y122000D01*
D02*
G37*
G36*
X287000Y171454D02*
X285968Y171318D01*
X285007Y170920D01*
X284181Y170286D01*
X283547Y169460D01*
X283149Y168499D01*
X283013Y167467D01*
X283149Y166435D01*
X283547Y165474D01*
X284181Y164648D01*
X285007Y164014D01*
X285968Y163616D01*
X287000Y163480D01*
X288032Y163616D01*
X288993Y164014D01*
X289819Y164648D01*
X290453Y165474D01*
X290851Y166435D01*
X290987Y167467D01*
X290851Y168499D01*
X290453Y169460D01*
X289819Y170286D01*
X288993Y170920D01*
X288032Y171318D01*
X287000Y171454D01*
D02*
G37*
G36*
X289714Y156967D02*
X287500D01*
Y154753D01*
X287719Y154782D01*
X288390Y155060D01*
X288966Y155501D01*
X289407Y156077D01*
X289685Y156748D01*
X289714Y156967D01*
D02*
G37*
G36*
X286500D02*
X284286D01*
X284315Y156748D01*
X284593Y156077D01*
X285034Y155501D01*
X285610Y155060D01*
X286281Y154782D01*
X286500Y154753D01*
Y156967D01*
D02*
G37*
G36*
Y160181D02*
X286281Y160152D01*
X285610Y159874D01*
X285034Y159432D01*
X284593Y158857D01*
X284315Y158186D01*
X284286Y157967D01*
X286500D01*
Y160181D01*
D02*
G37*
G36*
X287500D02*
Y157967D01*
X289714D01*
X289685Y158186D01*
X289407Y158857D01*
X288966Y159432D01*
X288390Y159874D01*
X287719Y160152D01*
X287500Y160181D01*
D02*
G37*
G36*
X50000Y199987D02*
X48968Y199851D01*
X48007Y199453D01*
X47181Y198819D01*
X46547Y197993D01*
X46149Y197032D01*
X46013Y196000D01*
X46149Y194968D01*
X46547Y194007D01*
X47181Y193181D01*
X48007Y192547D01*
X48968Y192149D01*
X50000Y192013D01*
X51032Y192149D01*
X51993Y192547D01*
X52819Y193181D01*
X53453Y194007D01*
X53851Y194968D01*
X53987Y196000D01*
X53851Y197032D01*
X53453Y197993D01*
X52819Y198819D01*
X51993Y199453D01*
X51032Y199851D01*
X50000Y199987D01*
D02*
G37*
G36*
X27714Y118000D02*
X25500D01*
Y115786D01*
X25719Y115815D01*
X26390Y116093D01*
X26965Y116534D01*
X27407Y117110D01*
X27685Y117781D01*
X27714Y118000D01*
D02*
G37*
G36*
X25500Y121214D02*
Y119000D01*
X27714D01*
X27685Y119219D01*
X27407Y119890D01*
X26965Y120466D01*
X26390Y120907D01*
X25719Y121185D01*
X25500Y121214D01*
D02*
G37*
G36*
X50000Y189987D02*
X48968Y189851D01*
X48007Y189453D01*
X47181Y188819D01*
X46547Y187993D01*
X46149Y187032D01*
X46013Y186000D01*
X46149Y184968D01*
X46547Y184007D01*
X47181Y183181D01*
X48007Y182547D01*
X48968Y182149D01*
X50000Y182013D01*
X51032Y182149D01*
X51993Y182547D01*
X52819Y183181D01*
X53453Y184007D01*
X53851Y184968D01*
X53987Y186000D01*
X53851Y187032D01*
X53453Y187993D01*
X52819Y188819D01*
X51993Y189453D01*
X51032Y189851D01*
X50000Y189987D01*
D02*
G37*
G36*
X321476Y45566D02*
X318524D01*
X317363Y45413D01*
X316282Y44965D01*
X315353Y44253D01*
X314641Y43324D01*
X314193Y42243D01*
X314040Y41083D01*
X314193Y39922D01*
X314641Y38841D01*
X315353Y37912D01*
X316282Y37200D01*
X317363Y36752D01*
X318524Y36599D01*
X321476D01*
X322637Y36752D01*
X323718Y37200D01*
X324646Y37912D01*
X325359Y38841D01*
X325807Y39922D01*
X325960Y41083D01*
X325807Y42243D01*
X325359Y43324D01*
X324646Y44253D01*
X323718Y44965D01*
X322637Y45413D01*
X321476Y45566D01*
D02*
G37*
G36*
X374016Y67969D02*
X372006Y67811D01*
X370045Y67340D01*
X368182Y66568D01*
X366462Y65515D01*
X364929Y64205D01*
X363619Y62672D01*
X362566Y60952D01*
X361794Y59089D01*
X361323Y57129D01*
X361165Y55118D01*
X361323Y53108D01*
X361794Y51147D01*
X362566Y49284D01*
X363619Y47565D01*
X364929Y46031D01*
X366462Y44722D01*
X368182Y43668D01*
X370045Y42897D01*
X372006Y42426D01*
X374016Y42268D01*
X376026Y42426D01*
X377987Y42897D01*
X379850Y43668D01*
X381569Y44722D01*
X383103Y46031D01*
X384412Y47565D01*
X385466Y49284D01*
X386238Y51147D01*
X386708Y53108D01*
X386866Y55118D01*
X386708Y57129D01*
X386238Y59089D01*
X385466Y60952D01*
X384412Y62672D01*
X383103Y64205D01*
X381569Y65515D01*
X379850Y66568D01*
X377987Y67340D01*
X376026Y67811D01*
X374016Y67969D01*
D02*
G37*
G36*
X321476Y54359D02*
X320500D01*
Y51583D01*
X324687D01*
X324641Y51930D01*
X324313Y52721D01*
X323793Y53399D01*
X323114Y53920D01*
X322324Y54247D01*
X321476Y54359D01*
D02*
G37*
G36*
X286500Y59467D02*
X284286D01*
X284315Y59248D01*
X284593Y58577D01*
X285034Y58002D01*
X285610Y57560D01*
X286281Y57282D01*
X286500Y57253D01*
Y59467D01*
D02*
G37*
G36*
X319500Y54359D02*
X318524D01*
X317676Y54247D01*
X316886Y53920D01*
X316207Y53399D01*
X315686Y52721D01*
X315359Y51930D01*
X315313Y51583D01*
X319500D01*
Y54359D01*
D02*
G37*
G36*
Y50583D02*
X315313D01*
X315359Y50235D01*
X315686Y49445D01*
X316207Y48766D01*
X316886Y48245D01*
X317676Y47918D01*
X318524Y47807D01*
X319500D01*
Y50583D01*
D02*
G37*
G36*
X324687D02*
X320500D01*
Y47807D01*
X321476D01*
X322324Y47918D01*
X323114Y48245D01*
X323793Y48766D01*
X324313Y49445D01*
X324641Y50235D01*
X324687Y50583D01*
D02*
G37*
G36*
X250500Y266187D02*
Y262000D01*
X253276D01*
Y262976D01*
X253164Y263824D01*
X252837Y264614D01*
X252316Y265293D01*
X251638Y265813D01*
X250848Y266141D01*
X250500Y266187D01*
D02*
G37*
G36*
X285000Y19687D02*
Y15500D01*
X287776D01*
Y16476D01*
X287664Y17324D01*
X287337Y18114D01*
X286817Y18793D01*
X286138Y19313D01*
X285348Y19641D01*
X285000Y19687D01*
D02*
G37*
G36*
X215000D02*
Y15500D01*
X217776D01*
Y16476D01*
X217664Y17324D01*
X217337Y18114D01*
X216816Y18793D01*
X216138Y19313D01*
X215348Y19641D01*
X215000Y19687D01*
D02*
G37*
G36*
X180000D02*
Y15500D01*
X182776D01*
Y16476D01*
X182664Y17324D01*
X182337Y18114D01*
X181816Y18793D01*
X181138Y19313D01*
X180348Y19641D01*
X180000Y19687D01*
D02*
G37*
G36*
X285500Y266187D02*
Y262000D01*
X288276D01*
Y262976D01*
X288164Y263824D01*
X287837Y264614D01*
X287316Y265293D01*
X286638Y265813D01*
X285848Y266141D01*
X285500Y266187D01*
D02*
G37*
G36*
X319500D02*
X319152Y266141D01*
X318362Y265813D01*
X317684Y265293D01*
X317163Y264614D01*
X316836Y263824D01*
X316724Y262976D01*
Y262000D01*
X319500D01*
Y266187D01*
D02*
G37*
G36*
X320000Y19687D02*
Y15500D01*
X322776D01*
Y16476D01*
X322664Y17324D01*
X322337Y18114D01*
X321816Y18793D01*
X321138Y19313D01*
X320348Y19641D01*
X320000Y19687D01*
D02*
G37*
G36*
X145500Y266187D02*
Y262000D01*
X148276D01*
Y262976D01*
X148164Y263824D01*
X147837Y264614D01*
X147317Y265293D01*
X146638Y265813D01*
X145848Y266141D01*
X145500Y266187D01*
D02*
G37*
G36*
X179500D02*
X179152Y266141D01*
X178362Y265813D01*
X177683Y265293D01*
X177163Y264614D01*
X176836Y263824D01*
X176724Y262976D01*
Y262000D01*
X179500D01*
Y266187D01*
D02*
G37*
G36*
X180500D02*
Y262000D01*
X183276D01*
Y262976D01*
X183164Y263824D01*
X182837Y264614D01*
X182317Y265293D01*
X181638Y265813D01*
X180848Y266141D01*
X180500Y266187D01*
D02*
G37*
G36*
X144500D02*
X144152Y266141D01*
X143362Y265813D01*
X142683Y265293D01*
X142163Y264614D01*
X141836Y263824D01*
X141724Y262976D01*
Y262000D01*
X144500D01*
Y266187D01*
D02*
G37*
G36*
X75500D02*
Y262000D01*
X78276D01*
Y262976D01*
X78164Y263824D01*
X77837Y264614D01*
X77316Y265293D01*
X76638Y265813D01*
X75848Y266141D01*
X75500Y266187D01*
D02*
G37*
G36*
X109500D02*
X109152Y266141D01*
X108362Y265813D01*
X107684Y265293D01*
X107163Y264614D01*
X106836Y263824D01*
X106724Y262976D01*
Y262000D01*
X109500D01*
Y266187D01*
D02*
G37*
G36*
X110500D02*
Y262000D01*
X113276D01*
Y262976D01*
X113164Y263824D01*
X112837Y264614D01*
X112317Y265293D01*
X111638Y265813D01*
X110848Y266141D01*
X110500Y266187D01*
D02*
G37*
G36*
X214500D02*
X214152Y266141D01*
X213362Y265813D01*
X212684Y265293D01*
X212163Y264614D01*
X211836Y263824D01*
X211724Y262976D01*
Y262000D01*
X214500D01*
Y266187D01*
D02*
G37*
G36*
X287500Y62681D02*
Y60467D01*
X289714D01*
X289685Y60686D01*
X289407Y61357D01*
X288966Y61932D01*
X288390Y62374D01*
X287719Y62652D01*
X287500Y62681D01*
D02*
G37*
G36*
X286500D02*
X286281Y62652D01*
X285610Y62374D01*
X285034Y61932D01*
X284593Y61357D01*
X284315Y60686D01*
X284286Y60467D01*
X286500D01*
Y62681D01*
D02*
G37*
G36*
X289714Y59467D02*
X287500D01*
Y57253D01*
X287719Y57282D01*
X288390Y57560D01*
X288966Y58002D01*
X289407Y58577D01*
X289685Y59248D01*
X289714Y59467D01*
D02*
G37*
G36*
X249500Y266187D02*
X249152Y266141D01*
X248362Y265813D01*
X247684Y265293D01*
X247163Y264614D01*
X246836Y263824D01*
X246724Y262976D01*
Y262000D01*
X249500D01*
Y266187D01*
D02*
G37*
G36*
X324687Y85583D02*
X320500D01*
Y82806D01*
X321476D01*
X322324Y82918D01*
X323114Y83245D01*
X323793Y83766D01*
X324313Y84445D01*
X324641Y85235D01*
X324687Y85583D01*
D02*
G37*
G36*
X319500D02*
X315313D01*
X315359Y85235D01*
X315686Y84445D01*
X316207Y83766D01*
X316886Y83245D01*
X317676Y82918D01*
X318524Y82806D01*
X319500D01*
Y85583D01*
D02*
G37*
G36*
X215500Y266187D02*
Y262000D01*
X218276D01*
Y262976D01*
X218164Y263824D01*
X217837Y264614D01*
X217317Y265293D01*
X216638Y265813D01*
X215848Y266141D01*
X215500Y266187D01*
D02*
G37*
G36*
X354000Y14500D02*
X351224D01*
Y13524D01*
X351336Y12676D01*
X351663Y11886D01*
X352184Y11207D01*
X352862Y10687D01*
X353652Y10359D01*
X354000Y10313D01*
Y14500D01*
D02*
G37*
G36*
X319000D02*
X316224D01*
Y13524D01*
X316336Y12676D01*
X316663Y11886D01*
X317183Y11207D01*
X317862Y10687D01*
X318652Y10359D01*
X319000Y10313D01*
Y14500D01*
D02*
G37*
G36*
X252776D02*
X250000D01*
Y10313D01*
X250348Y10359D01*
X251138Y10687D01*
X251817Y11207D01*
X252337Y11886D01*
X252664Y12676D01*
X252776Y13524D01*
Y14500D01*
D02*
G37*
G36*
X217776D02*
X215000D01*
Y10313D01*
X215348Y10359D01*
X216138Y10687D01*
X216816Y11207D01*
X217337Y11886D01*
X217664Y12676D01*
X217776Y13524D01*
Y14500D01*
D02*
G37*
G36*
X182776D02*
X180000D01*
Y10313D01*
X180348Y10359D01*
X181138Y10687D01*
X181816Y11207D01*
X182337Y11886D01*
X182664Y12676D01*
X182776Y13524D01*
Y14500D01*
D02*
G37*
G36*
X284000D02*
X281224D01*
Y13524D01*
X281336Y12676D01*
X281663Y11886D01*
X282184Y11207D01*
X282862Y10687D01*
X283652Y10359D01*
X284000Y10313D01*
Y14500D01*
D02*
G37*
G36*
X364500Y20960D02*
X363340Y20807D01*
X362258Y20359D01*
X361330Y19647D01*
X360617Y18718D01*
X360170Y17637D01*
X360017Y16476D01*
Y13524D01*
X360170Y12363D01*
X360617Y11282D01*
X361330Y10353D01*
X362258Y9641D01*
X363340Y9193D01*
X364500Y9040D01*
X365660Y9193D01*
X366742Y9641D01*
X367670Y10353D01*
X368383Y11282D01*
X368830Y12363D01*
X368983Y13524D01*
Y16476D01*
X368830Y17637D01*
X368383Y18718D01*
X367670Y19647D01*
X366742Y20359D01*
X365660Y20807D01*
X364500Y20960D01*
D02*
G37*
G36*
X294500D02*
X293340Y20807D01*
X292258Y20359D01*
X291330Y19647D01*
X290617Y18718D01*
X290170Y17637D01*
X290017Y16476D01*
Y13524D01*
X290170Y12363D01*
X290617Y11282D01*
X291330Y10353D01*
X292258Y9641D01*
X293340Y9193D01*
X294500Y9040D01*
X295660Y9193D01*
X296742Y9641D01*
X297670Y10353D01*
X298383Y11282D01*
X298831Y12363D01*
X298983Y13524D01*
Y16476D01*
X298831Y17637D01*
X298383Y18718D01*
X297670Y19647D01*
X296742Y20359D01*
X295660Y20807D01*
X294500Y20960D01*
D02*
G37*
G36*
X249000Y14500D02*
X246224D01*
Y13524D01*
X246336Y12676D01*
X246663Y11886D01*
X247183Y11207D01*
X247862Y10687D01*
X248652Y10359D01*
X249000Y10313D01*
Y14500D01*
D02*
G37*
G36*
X214000D02*
X211224D01*
Y13524D01*
X211336Y12676D01*
X211663Y11886D01*
X212183Y11207D01*
X212862Y10687D01*
X213652Y10359D01*
X214000Y10313D01*
Y14500D01*
D02*
G37*
G36*
X179000D02*
X176224D01*
Y13524D01*
X176336Y12676D01*
X176663Y11886D01*
X177183Y11207D01*
X177862Y10687D01*
X178652Y10359D01*
X179000Y10313D01*
Y14500D01*
D02*
G37*
G36*
X287776D02*
X285000D01*
Y10313D01*
X285348Y10359D01*
X286138Y10687D01*
X286817Y11207D01*
X287337Y11886D01*
X287664Y12676D01*
X287776Y13524D01*
Y14500D01*
D02*
G37*
G36*
X319000Y19687D02*
X318652Y19641D01*
X317862Y19313D01*
X317183Y18793D01*
X316663Y18114D01*
X316336Y17324D01*
X316224Y16476D01*
Y15500D01*
X319000D01*
Y19687D01*
D02*
G37*
G36*
X179000D02*
X178652Y19641D01*
X177862Y19313D01*
X177183Y18793D01*
X176663Y18114D01*
X176336Y17324D01*
X176224Y16476D01*
Y15500D01*
X179000D01*
Y19687D01*
D02*
G37*
G36*
X250000D02*
Y15500D01*
X252776D01*
Y16476D01*
X252664Y17324D01*
X252337Y18114D01*
X251817Y18793D01*
X251138Y19313D01*
X250348Y19641D01*
X250000Y19687D01*
D02*
G37*
G36*
X355000D02*
Y15500D01*
X357776D01*
Y16476D01*
X357664Y17324D01*
X357337Y18114D01*
X356817Y18793D01*
X356138Y19313D01*
X355348Y19641D01*
X355000Y19687D01*
D02*
G37*
G36*
X284000D02*
X283652Y19641D01*
X282862Y19313D01*
X282184Y18793D01*
X281663Y18114D01*
X281336Y17324D01*
X281224Y16476D01*
Y15500D01*
X284000D01*
Y19687D01*
D02*
G37*
G36*
X320500Y266187D02*
Y262000D01*
X323276D01*
Y262976D01*
X323164Y263824D01*
X322837Y264614D01*
X322317Y265293D01*
X321638Y265813D01*
X320848Y266141D01*
X320500Y266187D01*
D02*
G37*
G36*
X357776Y14500D02*
X355000D01*
Y10313D01*
X355348Y10359D01*
X356138Y10687D01*
X356817Y11207D01*
X357337Y11886D01*
X357664Y12676D01*
X357776Y13524D01*
Y14500D01*
D02*
G37*
G36*
X322776D02*
X320000D01*
Y10313D01*
X320348Y10359D01*
X321138Y10687D01*
X321816Y11207D01*
X322337Y11886D01*
X322664Y12676D01*
X322776Y13524D01*
Y14500D01*
D02*
G37*
G36*
X249000Y19687D02*
X248652Y19641D01*
X247862Y19313D01*
X247183Y18793D01*
X246663Y18114D01*
X246336Y17324D01*
X246224Y16476D01*
Y15500D01*
X249000D01*
Y19687D01*
D02*
G37*
G36*
X214000D02*
X213652Y19641D01*
X212862Y19313D01*
X212183Y18793D01*
X211663Y18114D01*
X211336Y17324D01*
X211224Y16476D01*
Y15500D01*
X214000D01*
Y19687D01*
D02*
G37*
G36*
X354000D02*
X353652Y19641D01*
X352862Y19313D01*
X352184Y18793D01*
X351663Y18114D01*
X351336Y17324D01*
X351224Y16476D01*
Y15500D01*
X354000D01*
Y19687D01*
D02*
G37*
G36*
X379500Y195776D02*
X378524D01*
X377676Y195664D01*
X376886Y195337D01*
X376207Y194817D01*
X375687Y194138D01*
X375359Y193348D01*
X375313Y193000D01*
X379500D01*
Y195776D01*
D02*
G37*
G36*
X381476D02*
X380500D01*
Y193000D01*
X384687D01*
X384641Y193348D01*
X384314Y194138D01*
X383793Y194817D01*
X383114Y195337D01*
X382324Y195664D01*
X381476Y195776D01*
D02*
G37*
G36*
X144500Y261000D02*
X141724D01*
Y260024D01*
X141836Y259176D01*
X142163Y258386D01*
X142683Y257707D01*
X143362Y257187D01*
X144152Y256859D01*
X144500Y256813D01*
Y261000D01*
D02*
G37*
G36*
X321476Y194359D02*
X320500D01*
Y191583D01*
X324687D01*
X324641Y191930D01*
X324313Y192721D01*
X323793Y193399D01*
X323114Y193920D01*
X322324Y194247D01*
X321476Y194359D01*
D02*
G37*
G36*
X179500Y261000D02*
X176724D01*
Y260024D01*
X176836Y259176D01*
X177163Y258386D01*
X177683Y257707D01*
X178362Y257187D01*
X179152Y256859D01*
X179500Y256813D01*
Y261000D01*
D02*
G37*
G36*
X324687Y190583D02*
X320500D01*
Y187806D01*
X321476D01*
X322324Y187918D01*
X323114Y188245D01*
X323793Y188766D01*
X324313Y189445D01*
X324641Y190235D01*
X324687Y190583D01*
D02*
G37*
G36*
X379500Y192000D02*
X375313D01*
X375359Y191652D01*
X375687Y190862D01*
X376207Y190183D01*
X376886Y189663D01*
X377676Y189336D01*
X378524Y189224D01*
X379500D01*
Y192000D01*
D02*
G37*
G36*
X319500Y194359D02*
X318524D01*
X317676Y194247D01*
X316886Y193920D01*
X316207Y193399D01*
X315686Y192721D01*
X315359Y191930D01*
X315313Y191583D01*
X319500D01*
Y194359D01*
D02*
G37*
G36*
X148276Y261000D02*
X145500D01*
Y256813D01*
X145848Y256859D01*
X146638Y257187D01*
X147317Y257707D01*
X147837Y258386D01*
X148164Y259176D01*
X148276Y260024D01*
Y261000D01*
D02*
G37*
G36*
X384687Y192000D02*
X380500D01*
Y189224D01*
X381476D01*
X382324Y189336D01*
X383114Y189663D01*
X383793Y190183D01*
X384314Y190862D01*
X384641Y191652D01*
X384687Y192000D01*
D02*
G37*
G36*
X319500Y229359D02*
X318524D01*
X317676Y229247D01*
X316886Y228920D01*
X316207Y228399D01*
X315686Y227721D01*
X315359Y226930D01*
X315313Y226583D01*
X319500D01*
Y229359D01*
D02*
G37*
G36*
X321476D02*
X320500D01*
Y226583D01*
X324687D01*
X324641Y226930D01*
X324313Y227721D01*
X323793Y228399D01*
X323114Y228920D01*
X322324Y229247D01*
X321476Y229359D01*
D02*
G37*
G36*
X374016Y237260D02*
X372006Y237102D01*
X370045Y236631D01*
X368182Y235859D01*
X366462Y234806D01*
X364929Y233496D01*
X363619Y231963D01*
X362566Y230243D01*
X361794Y228380D01*
X361323Y226420D01*
X361165Y224409D01*
X361323Y222399D01*
X361794Y220438D01*
X362566Y218575D01*
X363619Y216856D01*
X364929Y215323D01*
X366462Y214013D01*
X368182Y212959D01*
X370045Y212188D01*
X372006Y211717D01*
X374016Y211559D01*
X376026Y211717D01*
X377987Y212188D01*
X379850Y212959D01*
X381569Y214013D01*
X383103Y215323D01*
X384412Y216856D01*
X385466Y218575D01*
X386238Y220438D01*
X386708Y222399D01*
X386866Y224409D01*
X386708Y226420D01*
X386238Y228380D01*
X385466Y230243D01*
X384412Y231963D01*
X383103Y233496D01*
X381569Y234806D01*
X379850Y235859D01*
X377987Y236631D01*
X376026Y237102D01*
X374016Y237260D01*
D02*
G37*
G36*
X319500Y225583D02*
X315313D01*
X315359Y225235D01*
X315686Y224445D01*
X316207Y223766D01*
X316886Y223245D01*
X317676Y222918D01*
X318524Y222807D01*
X319500D01*
Y225583D01*
D02*
G37*
G36*
X324687D02*
X320500D01*
Y222807D01*
X321476D01*
X322324Y222918D01*
X323114Y223245D01*
X323793Y223766D01*
X324313Y224445D01*
X324641Y225235D01*
X324687Y225583D01*
D02*
G37*
G36*
X321476Y240566D02*
X318524D01*
X317363Y240413D01*
X316282Y239965D01*
X315353Y239253D01*
X314641Y238324D01*
X314193Y237243D01*
X314040Y236083D01*
X314193Y234922D01*
X314641Y233841D01*
X315353Y232912D01*
X316282Y232200D01*
X317363Y231752D01*
X318524Y231599D01*
X321476D01*
X322637Y231752D01*
X323718Y232200D01*
X324646Y232912D01*
X325359Y233841D01*
X325807Y234922D01*
X325960Y236083D01*
X325807Y237243D01*
X325359Y238324D01*
X324646Y239253D01*
X323718Y239965D01*
X322637Y240413D01*
X321476Y240566D01*
D02*
G37*
G36*
X78276Y261000D02*
X75500D01*
Y256813D01*
X75848Y256859D01*
X76638Y257187D01*
X77316Y257707D01*
X77837Y258386D01*
X78164Y259176D01*
X78276Y260024D01*
Y261000D01*
D02*
G37*
G36*
X109500D02*
X106724D01*
Y260024D01*
X106836Y259176D01*
X107163Y258386D01*
X107684Y257707D01*
X108362Y257187D01*
X109152Y256859D01*
X109500Y256813D01*
Y261000D01*
D02*
G37*
G36*
X113276D02*
X110500D01*
Y256813D01*
X110848Y256859D01*
X111638Y257187D01*
X112317Y257707D01*
X112837Y258386D01*
X113164Y259176D01*
X113276Y260024D01*
Y261000D01*
D02*
G37*
G36*
X74500D02*
X71724D01*
Y260024D01*
X71836Y259176D01*
X72163Y258386D01*
X72684Y257707D01*
X73362Y257187D01*
X74152Y256859D01*
X74500Y256813D01*
Y261000D01*
D02*
G37*
G36*
X85000Y267460D02*
X83840Y267307D01*
X82758Y266859D01*
X81830Y266146D01*
X81117Y265218D01*
X80669Y264137D01*
X80517Y262976D01*
Y260024D01*
X80669Y258863D01*
X81117Y257782D01*
X81830Y256854D01*
X82758Y256141D01*
X83840Y255693D01*
X85000Y255540D01*
X86160Y255693D01*
X87242Y256141D01*
X88170Y256854D01*
X88883Y257782D01*
X89331Y258863D01*
X89483Y260024D01*
Y262976D01*
X89331Y264137D01*
X88883Y265218D01*
X88170Y266146D01*
X87242Y266859D01*
X86160Y267307D01*
X85000Y267460D01*
D02*
G37*
G36*
X205000D02*
X203840Y267307D01*
X202758Y266859D01*
X201830Y266146D01*
X201117Y265218D01*
X200670Y264137D01*
X200517Y262976D01*
Y260024D01*
X200670Y258863D01*
X201117Y257782D01*
X201830Y256854D01*
X202758Y256141D01*
X203840Y255693D01*
X205000Y255540D01*
X206160Y255693D01*
X207242Y256141D01*
X208170Y256854D01*
X208883Y257782D01*
X209331Y258863D01*
X209483Y260024D01*
Y262976D01*
X209331Y264137D01*
X208883Y265218D01*
X208170Y266146D01*
X207242Y266859D01*
X206160Y267307D01*
X205000Y267460D01*
D02*
G37*
G36*
X240000D02*
X238840Y267307D01*
X237758Y266859D01*
X236830Y266146D01*
X236117Y265218D01*
X235669Y264137D01*
X235517Y262976D01*
Y260024D01*
X235669Y258863D01*
X236117Y257782D01*
X236830Y256854D01*
X237758Y256141D01*
X238840Y255693D01*
X240000Y255540D01*
X241160Y255693D01*
X242242Y256141D01*
X243170Y256854D01*
X243883Y257782D01*
X244331Y258863D01*
X244483Y260024D01*
Y262976D01*
X244331Y264137D01*
X243883Y265218D01*
X243170Y266146D01*
X242242Y266859D01*
X241160Y267307D01*
X240000Y267460D01*
D02*
G37*
G36*
X319500Y190583D02*
X315313D01*
X315359Y190235D01*
X315686Y189445D01*
X316207Y188766D01*
X316886Y188245D01*
X317676Y187918D01*
X318524Y187806D01*
X319500D01*
Y190583D01*
D02*
G37*
G36*
Y261000D02*
X316724D01*
Y260024D01*
X316836Y259176D01*
X317163Y258386D01*
X317684Y257707D01*
X318362Y257187D01*
X319152Y256859D01*
X319500Y256813D01*
Y261000D01*
D02*
G37*
G36*
X323276D02*
X320500D01*
Y256813D01*
X320848Y256859D01*
X321638Y257187D01*
X322317Y257707D01*
X322837Y258386D01*
X323164Y259176D01*
X323276Y260024D01*
Y261000D01*
D02*
G37*
G36*
X354500D02*
X351724D01*
Y260024D01*
X351836Y259176D01*
X352163Y258386D01*
X352683Y257707D01*
X353362Y257187D01*
X354152Y256859D01*
X354500Y256813D01*
Y261000D01*
D02*
G37*
G36*
X384687Y157000D02*
X380500D01*
Y154224D01*
X381476D01*
X382324Y154336D01*
X383114Y154663D01*
X383793Y155183D01*
X384314Y155862D01*
X384641Y156652D01*
X384687Y157000D01*
D02*
G37*
G36*
X379500D02*
X375313D01*
X375359Y156652D01*
X375687Y155862D01*
X376207Y155183D01*
X376886Y154663D01*
X377676Y154336D01*
X378524Y154224D01*
X379500D01*
Y157000D01*
D02*
G37*
G36*
X358276Y261000D02*
X355500D01*
Y256813D01*
X355848Y256859D01*
X356638Y257187D01*
X357316Y257707D01*
X357837Y258386D01*
X358164Y259176D01*
X358276Y260024D01*
Y261000D01*
D02*
G37*
G36*
X40500Y266187D02*
Y262000D01*
X43276D01*
Y262976D01*
X43164Y263824D01*
X42837Y264614D01*
X42316Y265293D01*
X41638Y265813D01*
X40848Y266141D01*
X40500Y266187D01*
D02*
G37*
G36*
X74500D02*
X74152Y266141D01*
X73362Y265813D01*
X72684Y265293D01*
X72163Y264614D01*
X71836Y263824D01*
X71724Y262976D01*
Y262000D01*
X74500D01*
Y266187D01*
D02*
G37*
G36*
X214500Y261000D02*
X211724D01*
Y260024D01*
X211836Y259176D01*
X212163Y258386D01*
X212684Y257707D01*
X213362Y257187D01*
X214152Y256859D01*
X214500Y256813D01*
Y261000D01*
D02*
G37*
G36*
X218276D02*
X215500D01*
Y256813D01*
X215848Y256859D01*
X216638Y257187D01*
X217317Y257707D01*
X217837Y258386D01*
X218164Y259176D01*
X218276Y260024D01*
Y261000D01*
D02*
G37*
G36*
X249500D02*
X246724D01*
Y260024D01*
X246836Y259176D01*
X247163Y258386D01*
X247684Y257707D01*
X248362Y257187D01*
X249152Y256859D01*
X249500Y256813D01*
Y261000D01*
D02*
G37*
G36*
X381476Y186983D02*
X378524D01*
X377363Y186830D01*
X376282Y186383D01*
X375354Y185670D01*
X374641Y184742D01*
X374193Y183660D01*
X374040Y182500D01*
X374193Y181340D01*
X374641Y180258D01*
X375354Y179330D01*
X376282Y178617D01*
X377363Y178170D01*
X378524Y178017D01*
X381476D01*
X382637Y178170D01*
X383718Y178617D01*
X384647Y179330D01*
X385359Y180258D01*
X385807Y181340D01*
X385960Y182500D01*
X385807Y183660D01*
X385359Y184742D01*
X384647Y185670D01*
X383718Y186383D01*
X382637Y186830D01*
X381476Y186983D01*
D02*
G37*
G36*
X183276Y261000D02*
X180500D01*
Y256813D01*
X180848Y256859D01*
X181638Y257187D01*
X182317Y257707D01*
X182837Y258386D01*
X183164Y259176D01*
X183276Y260024D01*
Y261000D01*
D02*
G37*
G36*
X253276D02*
X250500D01*
Y256813D01*
X250848Y256859D01*
X251638Y257187D01*
X252316Y257707D01*
X252837Y258386D01*
X253164Y259176D01*
X253276Y260024D01*
Y261000D01*
D02*
G37*
G36*
X288276D02*
X285500D01*
Y256813D01*
X285848Y256859D01*
X286638Y257187D01*
X287316Y257707D01*
X287837Y258386D01*
X288164Y259176D01*
X288276Y260024D01*
Y261000D01*
D02*
G37*
G36*
X381476Y160776D02*
X380500D01*
Y158000D01*
X384687D01*
X384641Y158348D01*
X384314Y159138D01*
X383793Y159817D01*
X383114Y160337D01*
X382324Y160664D01*
X381476Y160776D01*
D02*
G37*
G36*
X379500D02*
X378524D01*
X377676Y160664D01*
X376886Y160337D01*
X376207Y159817D01*
X375687Y159138D01*
X375359Y158348D01*
X375313Y158000D01*
X379500D01*
Y160776D01*
D02*
G37*
G36*
X49500Y228714D02*
X49281Y228685D01*
X48610Y228407D01*
X48035Y227965D01*
X47593Y227390D01*
X47315Y226719D01*
X47286Y226500D01*
X49500D01*
Y228714D01*
D02*
G37*
G36*
X50500D02*
Y226500D01*
X52714D01*
X52685Y226719D01*
X52407Y227390D01*
X51965Y227965D01*
X51390Y228407D01*
X50719Y228685D01*
X50500Y228714D01*
D02*
G37*
G36*
X145000Y19687D02*
Y15500D01*
X147776D01*
Y16476D01*
X147664Y17324D01*
X147337Y18114D01*
X146817Y18793D01*
X146138Y19313D01*
X145348Y19641D01*
X145000Y19687D01*
D02*
G37*
G36*
X147776Y14500D02*
X145000D01*
Y10313D01*
X145348Y10359D01*
X146138Y10687D01*
X146817Y11207D01*
X147337Y11886D01*
X147664Y12676D01*
X147776Y13524D01*
Y14500D01*
D02*
G37*
G36*
X144000D02*
X141224D01*
Y13524D01*
X141336Y12676D01*
X141663Y11886D01*
X142183Y11207D01*
X142862Y10687D01*
X143652Y10359D01*
X144000Y10313D01*
Y14500D01*
D02*
G37*
G36*
Y19687D02*
X143652Y19641D01*
X142862Y19313D01*
X142183Y18793D01*
X141663Y18114D01*
X141336Y17324D01*
X141224Y16476D01*
Y15500D01*
X144000D01*
Y19687D01*
D02*
G37*
G36*
X77776Y14500D02*
X75000D01*
Y10313D01*
X75348Y10359D01*
X76138Y10687D01*
X76816Y11207D01*
X77337Y11886D01*
X77664Y12676D01*
X77776Y13524D01*
Y14500D01*
D02*
G37*
G36*
X74000D02*
X71224D01*
Y13524D01*
X71336Y12676D01*
X71663Y11886D01*
X72184Y11207D01*
X72862Y10687D01*
X73652Y10359D01*
X74000Y10313D01*
Y14500D01*
D02*
G37*
G36*
Y19687D02*
X73652Y19641D01*
X72862Y19313D01*
X72184Y18793D01*
X71663Y18114D01*
X71336Y17324D01*
X71224Y16476D01*
Y15500D01*
X74000D01*
Y19687D01*
D02*
G37*
G36*
X75000D02*
Y15500D01*
X77776D01*
Y16476D01*
X77664Y17324D01*
X77337Y18114D01*
X76816Y18793D01*
X76138Y19313D01*
X75348Y19641D01*
X75000Y19687D01*
D02*
G37*
G36*
X40000D02*
Y15500D01*
X42776D01*
Y16476D01*
X42664Y17324D01*
X42337Y18114D01*
X41816Y18793D01*
X41138Y19313D01*
X40348Y19641D01*
X40000Y19687D01*
D02*
G37*
%LPD*%
D25*
X204500Y9600D02*
X204900D01*
X64500D02*
X64900D01*
X351500Y7000D02*
X354500Y10000D01*
X322100Y7000D02*
X351500D01*
X319500Y9600D02*
X322100Y7000D01*
X317000Y7100D02*
X319500Y9600D01*
X317000Y7000D02*
Y7100D01*
X284500Y7000D02*
X317000D01*
X284500D02*
Y15000D01*
X271500Y7000D02*
X274500Y10000D01*
X242100Y7000D02*
X271500D01*
X239500Y9600D02*
X242100Y7000D01*
X239300Y9800D02*
X239500Y9600D01*
X236500Y7000D02*
X239300Y9800D01*
X207500Y7000D02*
X236500D01*
X204900Y9600D02*
X207500Y7000D01*
X201900D02*
X204500Y9600D01*
X172500Y7000D02*
X201900D01*
X169500Y10000D02*
X172500Y7000D01*
X166700D02*
X169500Y9800D01*
X137300Y7000D02*
X166700D01*
X134500Y9800D02*
X137300Y7000D01*
X99500Y10500D02*
Y15000D01*
X103000Y7000D02*
X131490D01*
X99500Y10500D02*
X103000Y7000D01*
X96000D02*
X99500Y10500D01*
X67500Y7000D02*
X96000D01*
X131495Y7005D02*
X134500Y9800D01*
X131490Y7000D02*
X131495Y7005D01*
X131490Y7000D02*
X131500D01*
X64900Y9600D02*
X67500Y7000D01*
X277083Y146083D02*
X314783D01*
X261000Y130000D02*
X277083Y146083D01*
X239900Y130000D02*
X261000D01*
X187000Y270000D02*
X190000Y267000D01*
X123000Y270000D02*
X187000D01*
X120000Y267000D02*
X123000Y270000D01*
X144200Y267800D02*
X145000Y267000D01*
X128700Y267800D02*
X144200D01*
X124900Y264000D02*
X128700Y267800D01*
X177600D02*
X180000Y265400D01*
X165200Y267800D02*
X177600D01*
X163100Y265700D02*
X165200Y267800D01*
X257000Y270000D02*
X260000Y267000D01*
X228000Y270000D02*
X257000D01*
X225000Y267000D02*
X228000Y270000D01*
X222000D02*
X225000Y267000D01*
X193000Y270000D02*
X222000D01*
X190000Y267000D02*
X193000Y270000D01*
X117102Y269898D02*
X120000Y267000D01*
X38098Y269898D02*
X117102D01*
X35100Y266900D02*
X38098Y269898D01*
X152102D02*
X155000Y267000D01*
X169500Y10000D02*
Y15000D01*
Y9800D02*
Y10000D01*
X320000Y255800D02*
Y261500D01*
Y255100D02*
Y255800D01*
X249466Y255266D02*
X250000Y255800D01*
X325200Y86083D02*
X350000D01*
X249500Y20000D02*
Y20200D01*
X214500D02*
Y20600D01*
Y15000D02*
Y20200D01*
X74500Y21200D02*
Y43000D01*
Y15000D02*
Y21200D01*
X351417Y112500D02*
X380000D01*
X350000Y111083D02*
X351417Y112500D01*
X320000Y111083D02*
X350000D01*
X64500Y9600D02*
Y15000D01*
X134500Y9800D02*
Y15000D01*
X293200Y269600D02*
X295000Y267000D01*
X283600Y269600D02*
X293200D01*
X280000Y266000D02*
X283600Y269600D01*
X280000Y257900D02*
Y266000D01*
X277330Y255230D02*
X280000Y257900D01*
X262570Y255230D02*
X277330D01*
X260000Y257800D02*
X262570Y255230D01*
X260000Y257800D02*
Y261500D01*
X226425Y116525D02*
X239900Y130000D01*
X120000Y261500D02*
Y267000D01*
X155000Y261500D02*
Y267000D01*
X285000Y261500D02*
X286000Y255200D01*
X282332Y253132D02*
X286000Y255200D01*
X251600Y253132D02*
X282332D01*
X249466Y255266D02*
X251600Y253132D01*
X248533Y254333D02*
X249466Y255266D01*
X248533Y254333D02*
X250000Y261500D01*
X351417Y87500D02*
X380000D01*
X350000Y86083D02*
X351417Y87500D01*
X295884Y51083D02*
X320000D01*
X287000Y59967D02*
X295884Y51083D01*
X62000Y7100D02*
X64500Y9600D01*
X32400Y7100D02*
X62000D01*
X29500Y10000D02*
X32400Y7100D01*
X29500Y10000D02*
Y15000D01*
X35100Y257300D02*
Y266900D01*
Y257300D02*
X37200Y255200D01*
X49200D01*
X50000Y256000D01*
Y261500D01*
X354500Y10000D02*
Y15000D01*
X319500Y9600D02*
Y15000D01*
X110000Y255700D02*
Y261500D01*
Y255700D02*
X110800Y254900D01*
X122300D01*
X124900Y257500D01*
Y264000D01*
X145000Y261500D02*
Y267000D01*
Y255800D02*
Y261500D01*
Y255800D02*
X146900Y253900D01*
X159600D01*
X163100Y257400D01*
Y265700D01*
X180000Y261500D02*
Y265400D01*
X190000Y261500D02*
Y267000D01*
X215000Y255800D02*
Y261500D01*
Y255800D02*
X216467Y254333D01*
X248533D01*
X250000Y255800D02*
Y261500D01*
X314800Y111083D02*
X320000D01*
X313300Y112583D02*
X314800Y111083D01*
X313300Y112583D02*
Y144600D01*
X314783Y146083D01*
X320000D01*
Y181083D02*
X325717D01*
X359300Y147500D01*
X380000D01*
X344500Y15000D02*
Y20600D01*
X342800Y22300D02*
X344500Y20600D01*
X311200Y22300D02*
X342800D01*
X309500Y20600D02*
X311200Y22300D01*
X309500Y15000D02*
Y20600D01*
X313700Y248800D02*
X320000Y255100D01*
X313700Y227000D02*
Y248800D01*
Y227000D02*
X314617Y226083D01*
X320000D01*
Y261500D02*
Y267000D01*
X318800Y268200D02*
X320000Y267000D01*
X307600Y268200D02*
X318800D01*
X304900Y265500D02*
X307600Y268200D01*
X304900Y260500D02*
Y265500D01*
X299600Y255200D02*
X304900Y260500D01*
X286000Y255200D02*
X299600D01*
X285000Y256200D02*
X286000Y255200D01*
X285000Y256200D02*
Y261500D01*
X365000Y246383D02*
Y261500D01*
X334700Y216083D02*
X365000Y246383D01*
X320000Y216083D02*
X334700D01*
X320000Y86083D02*
X325200D01*
X326300Y84983D01*
Y52183D02*
Y84983D01*
X325200Y51083D02*
X326300Y52183D01*
X320000Y51083D02*
X325200D01*
X248400Y21300D02*
X249500Y20200D01*
X215600Y21300D02*
X248400D01*
X214500Y20200D02*
X215600Y21300D01*
X260000Y261500D02*
Y267000D01*
X355000Y255800D02*
Y261500D01*
X354200Y255000D02*
X355000Y255800D01*
X320800Y255000D02*
X354200D01*
X320000Y255800D02*
X320800Y255000D01*
X179500Y15000D02*
Y20600D01*
X182700Y23800D01*
X211300D01*
X214500Y20600D01*
X39500Y15000D02*
Y20800D01*
X42000Y23300D01*
X72400D01*
X74500Y21200D01*
X40000Y261500D02*
Y267000D01*
X40800Y267800D01*
X74200D01*
X75000Y267000D01*
X109500Y15000D02*
Y43000D01*
X105700Y46800D02*
X109500Y43000D01*
X78300Y46800D02*
X105700D01*
X74500Y43000D02*
X78300Y46800D01*
X110000Y261500D02*
Y267000D01*
X109200Y267800D02*
X110000Y267000D01*
X75800Y267800D02*
X109200D01*
X75000Y267000D02*
X75800Y267800D01*
X75000Y261500D02*
Y267000D01*
X204500Y9600D02*
Y15000D01*
X239500Y9600D02*
Y15000D01*
X274500Y10000D02*
Y15000D01*
X284500D02*
Y20400D01*
X283600Y21300D02*
X284500Y20400D01*
X250800Y21300D02*
X283600D01*
X249500Y20000D02*
X250800Y21300D01*
X249500Y15000D02*
Y20000D01*
X225000Y261500D02*
Y267000D01*
X330000Y261500D02*
Y267000D01*
X326300Y270700D02*
X330000Y267000D01*
X298700Y270700D02*
X326300D01*
X295000Y267000D02*
X298700Y270700D01*
X295000Y261500D02*
Y267000D01*
X365000Y261500D02*
Y267000D01*
X364200Y267800D02*
X365000Y267000D01*
X330800Y267800D02*
X364200D01*
X330000Y267000D02*
X330800Y267800D01*
X304184Y156083D02*
X320000D01*
X302800Y157467D02*
X304184Y156083D01*
X287000Y157467D02*
X302800D01*
D26*
X274967Y159500D02*
X277000Y157467D01*
X261294Y159500D02*
X274967D01*
X261224Y159431D02*
X261294Y159500D01*
X248231Y159431D02*
X261224D01*
X246199Y157399D02*
X248231Y159431D01*
X228000Y177500D02*
Y190000D01*
X226500Y191500D02*
X228000Y190000D01*
X226500Y191500D02*
Y196300D01*
X185700Y237100D02*
X226500Y196300D01*
X228000Y177500D02*
X230000Y175500D01*
X42900Y240100D02*
X53700D01*
X25300Y257700D02*
X42900Y240100D01*
X25300Y257700D02*
Y267500D01*
X45500Y242000D02*
X54533D01*
X30000Y257500D02*
X45500Y242000D01*
X30000Y257500D02*
Y261500D01*
X273400Y272000D02*
X275000Y270400D01*
X29800Y272000D02*
X273400D01*
X25300Y267500D02*
X29800Y272000D01*
X372300Y127200D02*
X384300D01*
X338200Y161300D02*
X372300Y127200D01*
X384300D02*
X386300Y125200D01*
Y98600D02*
Y125200D01*
X385200Y97500D02*
X386300Y98600D01*
X168800Y85800D02*
X227500D01*
X136800Y193400D02*
Y197000D01*
X227100Y110954D02*
X241946Y125800D01*
X224400Y108254D02*
X227100Y110954D01*
X45800Y13500D02*
X49500D01*
X293700Y86667D02*
X303116Y96083D01*
X314000Y61083D02*
X320000D01*
X309200D02*
X314000D01*
X224600Y122500D02*
X244100Y142000D01*
X250827D01*
X243836Y138100D02*
X249700D01*
X224115Y118379D02*
X243836Y138100D01*
X224115Y115615D02*
Y118379D01*
X222600Y114100D02*
X224115Y115615D01*
X222600Y93607D02*
Y114100D01*
X220394Y91401D02*
X222600Y93607D01*
X192099Y91401D02*
X220394D01*
X180200Y103300D02*
X192099Y91401D01*
X168800Y85800D02*
Y86100D01*
X227500Y85800D02*
X235400Y93700D01*
X258400D01*
X222100Y118000D02*
Y129000D01*
X221100Y117000D02*
X222100Y118000D01*
X159700Y202800D02*
X159800Y202900D01*
X126900Y202800D02*
X159700D01*
X109600Y220100D02*
X126900Y202800D01*
X48300Y220100D02*
X109600D01*
X45600Y217400D02*
X48300Y220100D01*
X45600Y202100D02*
Y217400D01*
X25000Y181500D02*
X45600Y202100D01*
X50000Y216000D02*
X76900D01*
X91700Y201200D01*
X147896D01*
X174500Y174596D01*
Y171400D02*
Y174596D01*
X190300Y144200D02*
Y169600D01*
Y144200D02*
X194000Y140500D01*
X205400D01*
X31500Y92000D02*
X50000D01*
X25000Y98500D02*
X31500Y92000D01*
X161000Y154900D02*
Y156600D01*
Y154900D02*
X183900Y132000D01*
X213600D01*
X209200Y195600D02*
Y208700D01*
X193000Y224900D02*
X209200Y208700D01*
X101500Y224900D02*
X193000D01*
X98400Y221800D02*
X101500Y224900D01*
X32400Y221800D02*
X98400D01*
X20800Y210200D02*
X32400Y221800D01*
X20800Y165700D02*
Y210200D01*
Y165700D02*
X25000Y161500D01*
X277000Y217467D02*
X281200Y221667D01*
Y231700D01*
X270400Y242500D02*
X281200Y231700D01*
X69200Y242500D02*
X270400D01*
X65000Y246700D02*
X69200Y242500D01*
X65000Y246700D02*
Y261500D01*
X268465Y197467D02*
X277000D01*
X240820Y169822D02*
X268465Y197467D01*
X220400Y212700D02*
X229600Y203500D01*
Y183700D02*
Y203500D01*
Y183700D02*
X232500Y180800D01*
Y163829D02*
Y180800D01*
Y163829D02*
X235300Y161029D01*
X231754Y229054D02*
X240000Y237300D01*
X231754Y187500D02*
Y229054D01*
X275000Y261500D02*
Y270400D01*
X53700Y240100D02*
X56700Y237100D01*
X185700D01*
X310000Y255200D02*
Y261500D01*
X306000Y251200D02*
X310000Y255200D01*
X231900Y251200D02*
X306000D01*
X287000Y207467D02*
X345033D01*
X350000Y202500D01*
X380000D01*
X154500Y15000D02*
Y69400D01*
X158800Y73700D01*
X236661D01*
X239353Y75453D02*
X243867Y79967D01*
X277000D01*
X228717Y84100D02*
X234017Y89400D01*
X234100D01*
X277000Y69967D02*
X281200Y74167D01*
Y82100D01*
X279200Y84100D02*
X281200Y82100D01*
X228717Y84100D02*
X279200D01*
X171420Y84017D02*
X228717Y84100D01*
X160717Y84017D02*
X171420D01*
X119500Y42800D02*
X160717Y84017D01*
X119500Y15000D02*
Y42800D01*
X277000Y59967D02*
X282800Y65767D01*
Y91700D01*
X280300Y94200D02*
X282800Y91700D01*
X262116Y94200D02*
X280300D01*
X260416Y95900D02*
X262116Y94200D01*
X234906Y95900D02*
X260416D01*
X227210Y88204D02*
X234906Y95900D01*
X150204Y88204D02*
X227210D01*
X114600Y52600D02*
X150204Y88204D01*
X114600Y9580D02*
Y52600D01*
X114000Y8980D02*
X114600Y9580D01*
X106920Y8980D02*
X114000D01*
X104800Y11100D02*
X106920Y8980D01*
X104800Y11100D02*
Y20700D01*
X101700Y23800D02*
X104800Y20700D01*
X87700Y23800D02*
X101700D01*
X84500Y20600D02*
X87700Y23800D01*
X84500Y15000D02*
Y20600D01*
X49500Y13500D02*
Y15000D01*
X44000Y11700D02*
X45800Y13500D01*
X42000Y8980D02*
X44000Y11700D01*
X36920Y8980D02*
X42000D01*
X34800Y11100D02*
X36920Y8980D01*
X34800Y11100D02*
Y19700D01*
X104902Y89802D01*
X221185D01*
X224400Y93018D01*
Y108254D01*
X241946Y125800D02*
X282833D01*
X287000Y129967D01*
X227100Y91700D02*
Y110954D01*
X249900Y105400D02*
X258518Y114018D01*
X282949D01*
X287000Y109967D01*
Y89967D02*
X291200Y94167D01*
Y101800D01*
X288982Y104018D02*
X291200Y101800D01*
X274318Y104018D02*
X288982D01*
X271600Y101300D02*
X274318Y104018D01*
X241500Y101300D02*
X271600D01*
X239700Y103100D02*
X241500Y101300D01*
X303116Y96083D02*
X320000D01*
X312400Y62683D02*
X314000Y61083D01*
X312400Y62683D02*
Y90100D01*
X313100Y90800D01*
X324800D01*
X328200Y94200D01*
Y97400D01*
X324000Y101600D02*
X328200Y97400D01*
X315118Y101600D02*
X324000D01*
X292700Y124018D02*
X315118Y101600D01*
X252118Y124018D02*
X292700D01*
X246300Y118200D02*
X252118Y124018D01*
X196800Y159700D02*
X220400Y136100D01*
X228557D01*
X249457Y157000D01*
X179300Y129400D02*
X214400D01*
X158800Y149900D02*
X179300Y129400D01*
X158800Y149900D02*
Y158100D01*
X161500Y160800D01*
X176600D01*
X178900Y163100D01*
Y187000D01*
X158900Y207000D02*
X178900Y187000D01*
X143500Y207000D02*
X158900D01*
X133500Y197000D02*
X136800D01*
Y193400D02*
X138850Y191350D01*
X154504D01*
X171100Y174754D01*
Y170585D02*
Y174754D01*
Y170585D02*
X176700Y164985D01*
X84100Y87700D02*
X169000Y172600D01*
X32800Y87700D02*
X84100D01*
X26800Y81700D02*
X32800Y87700D01*
X14800Y81700D02*
X26800D01*
X10800Y85700D02*
X14800Y81700D01*
X10800Y85700D02*
Y104300D01*
X15000Y108500D01*
Y171500D02*
X19100Y167400D01*
Y102600D02*
Y167400D01*
X15000Y98500D02*
X19100Y102600D01*
X54533Y242000D02*
X55733Y240800D01*
X263667D01*
X277000Y227467D01*
X247067D02*
X277000D01*
X234100Y214500D02*
X247067Y227467D01*
X234100Y184879D02*
Y214500D01*
Y184879D02*
X236800Y182179D01*
Y175100D02*
Y182179D01*
X218900Y93500D02*
Y118406D01*
X220000Y119506D01*
Y133600D01*
X202900Y150700D02*
X220000Y133600D01*
X198900Y150700D02*
X202900D01*
X262067Y217467D02*
X277000D01*
X238400Y193800D02*
X262067Y217467D01*
X238400Y186013D02*
Y193800D01*
Y186013D02*
X242300Y182113D01*
Y174439D02*
Y182113D01*
X100000Y247800D02*
Y261500D01*
Y247800D02*
X103700Y244100D01*
X277200D01*
X282800Y238500D01*
Y217092D02*
Y238500D01*
X277000Y211292D02*
X282800Y217092D01*
X277000Y207467D02*
Y211292D01*
X135000Y250300D02*
Y261500D01*
Y250300D02*
X139600Y245700D01*
X283600D01*
X291200Y238100D01*
Y215900D02*
Y238100D01*
X288500Y213200D02*
X291200Y215900D01*
X283806Y213200D02*
X288500D01*
X281300Y210694D02*
X283806Y213200D01*
X281300Y201767D02*
Y210694D01*
X277000Y197467D02*
X281300Y201767D01*
X277000Y187467D02*
X282949Y193416D01*
Y209145D01*
X285322Y211518D01*
X290018D01*
X292800Y214300D01*
Y241400D01*
X286900Y247300D02*
X292800Y241400D01*
X173700Y247300D02*
X286900D01*
X170000Y251000D02*
X173700Y247300D01*
X170000Y251000D02*
Y261500D01*
X231754Y187500D02*
X232400Y186854D01*
Y183609D02*
Y186854D01*
Y183609D02*
X234200Y181809D01*
Y167781D02*
Y181809D01*
Y167781D02*
X238063Y163919D01*
X244845D01*
X262526Y181600D01*
X278800D01*
X281100Y179300D01*
Y171567D02*
Y179300D01*
X277000Y167467D02*
X281100Y171567D01*
X230201Y161400D02*
Y175499D01*
Y161400D02*
X234203Y157399D01*
X246199D01*
X353500Y167500D02*
X380000D01*
X350000Y171000D02*
X353500Y167500D01*
X350000Y171000D02*
Y190800D01*
X344400Y196400D02*
X350000Y190800D01*
X297467Y196400D02*
X344400D01*
X296400Y197467D02*
X297467Y196400D01*
X287000Y197467D02*
X296400D01*
X238061Y215300D02*
X255700D01*
X257600Y217200D01*
X236800Y201151D02*
X238449Y202800D01*
X236800Y184743D02*
Y201151D01*
Y184743D02*
X239883Y181661D01*
Y173017D02*
Y181661D01*
X238700Y171834D02*
X239883Y173017D01*
X238700Y168591D02*
Y171834D01*
Y168591D02*
X239691Y167600D01*
X244106D01*
X259806Y183300D01*
X282833D01*
X287000Y187467D01*
X380000Y97500D02*
X385200D01*
X303167Y161300D02*
X338200D01*
X287000Y177467D02*
X303167Y161300D01*
X329500Y8980D02*
Y15000D01*
Y8980D02*
X347080D01*
X349100Y11000D01*
Y62300D01*
X369600Y82800D01*
X384300D01*
X386100Y84600D01*
Y90800D01*
X384400Y92500D02*
X386100Y90800D01*
X338200Y92500D02*
X384400D01*
X327218Y103482D02*
X338200Y92500D01*
X316218Y103482D02*
X327218D01*
X309500Y110200D02*
X316218Y103482D01*
X309500Y110200D02*
Y127500D01*
X302500Y134500D02*
X309500Y127500D01*
X281533Y134500D02*
X302500D01*
X277000Y129967D02*
X281533Y134500D01*
X282733Y115700D02*
X287000Y119967D01*
X244813Y115700D02*
X282733D01*
X240400Y120113D02*
X244813Y115700D01*
X240400Y120113D02*
Y121183D01*
X237500Y115400D02*
X239600Y117500D01*
X237500Y99436D02*
Y115400D01*
Y99436D02*
X238236Y98700D01*
X267400D01*
X270200Y95900D01*
X282933D01*
X287000Y99967D01*
X242900Y105500D02*
X245200Y103200D01*
X250700D01*
X253200Y105700D01*
X290000D01*
X293700Y102000D01*
Y86667D02*
Y102000D01*
X287000Y79967D02*
X293700Y86667D01*
X221977Y138300D02*
Y146708D01*
X157285Y211400D02*
X221977Y146708D01*
X139100Y211400D02*
X157285D01*
X133500Y217000D02*
X139100Y211400D01*
X191600Y173400D02*
X192400D01*
X193200Y172600D01*
Y148900D02*
Y172600D01*
Y148900D02*
X198800Y143300D01*
X300316Y69967D02*
X309200Y61083D01*
X287000Y69967D02*
X300316D01*
X224100Y187100D02*
X225700Y188700D01*
X204897Y187100D02*
X224100D01*
X145700Y105700D02*
X194219D01*
X217600Y129081D01*
Y132700D01*
X259767Y207467D02*
X277000D01*
X240700Y188400D02*
X259767Y207467D01*
X127800Y212700D02*
X133500Y207000D01*
X127800Y212700D02*
Y219000D01*
X131100Y222300D01*
X159684D01*
X223484Y158500D01*
X369313Y132500D02*
X380000D01*
X330813Y171000D02*
X369313Y132500D01*
X303467Y171000D02*
X330813D01*
X287000Y187467D02*
X303467Y171000D01*
X260562Y161029D02*
X277000Y177467D01*
X235300Y161029D02*
X260562D01*
X20900Y92600D02*
X25000Y88500D01*
X20900Y92600D02*
Y157400D01*
X25000Y161500D01*
D27*
X50000Y261500D02*
D03*
X40000D02*
D03*
X30000D02*
D03*
X85000D02*
D03*
X75000D02*
D03*
X65000D02*
D03*
X120000D02*
D03*
X110000D02*
D03*
X100000D02*
D03*
X155000D02*
D03*
X145000D02*
D03*
X135000D02*
D03*
X330000D02*
D03*
X320000D02*
D03*
X310000D02*
D03*
X190000D02*
D03*
X180000D02*
D03*
X170000D02*
D03*
X225000D02*
D03*
X215000D02*
D03*
X205000D02*
D03*
X260000D02*
D03*
X250000D02*
D03*
X240000D02*
D03*
X295000D02*
D03*
X285000D02*
D03*
X275000D02*
D03*
X365000D02*
D03*
X355000D02*
D03*
X345000D02*
D03*
X29500Y15000D02*
D03*
X39500D02*
D03*
X49500D02*
D03*
X64500D02*
D03*
X74500D02*
D03*
X84500D02*
D03*
X99500D02*
D03*
X109500D02*
D03*
X119500D02*
D03*
X134500D02*
D03*
X144500D02*
D03*
X154500D02*
D03*
X169500D02*
D03*
X179500D02*
D03*
X189500D02*
D03*
X204500D02*
D03*
X214500D02*
D03*
X224500D02*
D03*
X239500D02*
D03*
X249500D02*
D03*
X259500D02*
D03*
X274500D02*
D03*
X284500D02*
D03*
X294500D02*
D03*
X309500D02*
D03*
X319500D02*
D03*
X329500D02*
D03*
X344500D02*
D03*
X354500D02*
D03*
X364500D02*
D03*
D28*
X50000Y186000D02*
D03*
Y196000D02*
D03*
Y206000D02*
D03*
Y216000D02*
D03*
Y226000D02*
D03*
X287000Y59967D02*
D03*
Y69967D02*
D03*
Y79967D02*
D03*
Y89967D02*
D03*
Y99967D02*
D03*
Y109967D02*
D03*
Y119967D02*
D03*
Y129967D02*
D03*
X277000Y59967D02*
D03*
Y69967D02*
D03*
Y79967D02*
D03*
Y89967D02*
D03*
Y99967D02*
D03*
Y109967D02*
D03*
Y119967D02*
D03*
X287000Y157467D02*
D03*
Y167467D02*
D03*
Y177467D02*
D03*
Y187467D02*
D03*
Y197467D02*
D03*
Y207467D02*
D03*
Y217467D02*
D03*
Y227467D02*
D03*
X277000Y157467D02*
D03*
Y167467D02*
D03*
Y177467D02*
D03*
Y187467D02*
D03*
Y197467D02*
D03*
Y207467D02*
D03*
Y217467D02*
D03*
X143500Y217000D02*
D03*
X133500Y207000D02*
D03*
X143500D02*
D03*
X133500Y197000D02*
D03*
X143500D02*
D03*
X50000Y92000D02*
D03*
X25000Y191500D02*
D03*
X15000Y181500D02*
D03*
X25000D02*
D03*
X15000Y171500D02*
D03*
X25000D02*
D03*
X15000Y161500D02*
D03*
X25000D02*
D03*
Y118500D02*
D03*
X15000Y108500D02*
D03*
X25000D02*
D03*
X15000Y98500D02*
D03*
X25000D02*
D03*
X15000Y88500D02*
D03*
X25000D02*
D03*
D29*
X50000Y236000D02*
D03*
X277000Y129967D02*
D03*
Y227467D02*
D03*
X133500Y217000D02*
D03*
X50000Y82000D02*
D03*
X15000Y191500D02*
D03*
Y118500D02*
D03*
D30*
X320000Y41083D02*
D03*
Y51083D02*
D03*
Y61083D02*
D03*
Y76083D02*
D03*
Y86083D02*
D03*
Y96083D02*
D03*
Y111083D02*
D03*
Y121083D02*
D03*
Y131083D02*
D03*
Y146083D02*
D03*
Y156083D02*
D03*
Y166083D02*
D03*
Y216083D02*
D03*
Y226083D02*
D03*
Y236083D02*
D03*
Y181083D02*
D03*
Y191083D02*
D03*
Y201083D02*
D03*
X380000Y77500D02*
D03*
Y87500D02*
D03*
Y97500D02*
D03*
Y112500D02*
D03*
Y122500D02*
D03*
Y132500D02*
D03*
Y147500D02*
D03*
Y157500D02*
D03*
Y167500D02*
D03*
Y182500D02*
D03*
Y192500D02*
D03*
Y202500D02*
D03*
D31*
X15748Y55118D02*
D03*
X374016D02*
D03*
X15748Y224409D02*
D03*
X374016D02*
D03*
D32*
X224600Y122500D02*
D03*
X250827Y142000D02*
D03*
X249700Y138100D02*
D03*
X180200Y103300D02*
D03*
X168800Y86100D02*
D03*
X258400Y93700D02*
D03*
X226425Y116525D02*
D03*
X222100Y129000D02*
D03*
X221100Y117000D02*
D03*
X159800Y202900D02*
D03*
X174500Y171400D02*
D03*
X190300Y169600D02*
D03*
X205400Y140500D02*
D03*
X161000Y156600D02*
D03*
X213600Y132000D02*
D03*
X209200Y195600D02*
D03*
X240820Y169822D02*
D03*
X220400Y212700D02*
D03*
X240000Y237300D02*
D03*
X231754Y187500D02*
D03*
X231900Y251200D02*
D03*
X236661Y73700D02*
D03*
X239353Y75453D02*
D03*
X234100Y89400D02*
D03*
X227100Y91700D02*
D03*
X249900Y105400D02*
D03*
X239700Y103100D02*
D03*
X246300Y118200D02*
D03*
X196800Y159700D02*
D03*
X249457Y157000D02*
D03*
X214400Y129400D02*
D03*
X176700Y164985D02*
D03*
X169000Y172600D02*
D03*
X236800Y175100D02*
D03*
X218900Y93500D02*
D03*
X198900Y150700D02*
D03*
X242300Y174439D02*
D03*
X230201Y175499D02*
D03*
X238061Y215300D02*
D03*
X257600Y217200D02*
D03*
X238449Y202800D02*
D03*
X240400Y121183D02*
D03*
X239600Y117500D02*
D03*
X242900Y105500D02*
D03*
X221977Y138300D02*
D03*
X191600Y173400D02*
D03*
X198800Y143300D02*
D03*
X225700Y188700D02*
D03*
X204897Y187100D02*
D03*
X145700Y105700D02*
D03*
X217600Y132700D02*
D03*
X240700Y188400D02*
D03*
X223484Y158500D02*
D03*
X235300Y161029D02*
D03*
M02*
