M48
;Layer_Color=9474304
;FILE_FORMAT=2:5
INCH,TZ
;TYPE=PLATED
T1F00S00C0.01181
T2F00S00C0.03543
T3F00S00C0.04331
T4F00S00C0.12992
%
T01
X236661Y73700
X239353Y75453
X234100Y89400
X227100Y91700
X218900Y93500
X221100Y117000
X226425Y116525
X224600Y122500
X222100Y129000
X240400Y121183
X239600Y117500
X246300Y118200
X242900Y105500
X239700Y103100
X249900Y105400
X258400Y93700
X214400Y129400
X180200Y103300
X168800Y86100
X145700Y105700
X161000Y156600
X169000Y172600
X174500Y171400
X176700Y164985
X190300Y169600
X191600Y173400
X196800Y159700
X198900Y150700
X198800Y143300
X205400Y140500
X213600Y132000
X204897Y187100
X209200Y195600
X159800Y202900
X220400Y212700
X238061Y215300
X238449Y202800
X240700Y188400
X231754Y187500
X225700Y188700
X230201Y175499
X236800Y175100
X242300Y174439
X240820Y169822
X235300Y161029
X223484Y158500
X221977Y138300
X217600Y132700
X249700Y138100
X250827Y142000
X249457Y157000
X257600Y217200
X240000Y237300
X231900Y251200
T02
X277000Y59967
X287000
Y69967
Y79967
Y89967
Y99967
Y109967
Y119967
Y129967
X277000
Y119967
Y109967
Y99967
Y89967
Y79967
Y69967
X50000Y82000
Y92000
X25000Y88500
Y98500
Y108500
Y118500
X15000
Y108500
Y98500
Y88500
Y161500
Y171500
Y181500
Y191500
X25000
Y181500
Y171500
Y161500
X50000Y186000
Y196000
Y206000
Y216000
Y226000
Y236000
X133500Y217000
X143500
Y207000
X133500
Y197000
X143500
X277000Y197467
X287000
Y187467
Y177467
Y167467
Y157467
X277000
Y167467
Y177467
Y187467
Y207467
X287000
Y217467
Y227467
X277000
Y217467
T03
X380000Y77500
Y87500
Y97500
Y112500
Y122500
X320000Y121083
Y111083
Y96083
Y86083
Y76083
Y61083
Y51083
Y41083
X319500Y15000
X309500
X294500
X284500
X274500
X259500
X249500
X239500
X224500
X329500
X344500
X354500
X364500
X320000Y131083
X214500Y15000
X204500
X189500
X179500
X169500
X154500
X144500
X134500
X119500
X109500
X99500
X84500
X74500
X64500
X49500
X39500
X29500
X30000Y261500
X40000
X50000
X65000
X75000
X85000
X100000
X110000
X120000
X135000
X145000
X155000
X170000
X180000
X190000
X205000
X215000
X225000
X240000
X250000
X260000
X275000
X285000
X295000
X310000
X320000
X330000
X345000
X355000
X365000
X320000Y236083
Y226083
Y216083
Y201083
Y191083
Y181083
Y166083
Y156083
Y146083
X380000Y147500
Y157500
Y167500
Y182500
Y192500
Y202500
Y132500
T04
X374016Y55118
X15748
Y224409
X374016
M30
