G04 Layer_Color=32896*
%FSLAX25Y25*%
%MOIN*%
G70*
G01*
G75*
%ADD39C,0.00800*%
D39*
X13000Y198500D02*
Y200166D01*
Y199333D01*
X17998D01*
X17165Y198500D01*
X23000Y200832D02*
Y197500D01*
X26332Y200832D01*
X27165D01*
X27998Y199999D01*
Y198333D01*
X27165Y197500D01*
X17998Y152000D02*
Y155332D01*
X17165D01*
X13833Y152000D01*
X13000D01*
X26665D02*
X27498Y152833D01*
Y154499D01*
X26665Y155332D01*
X25832D01*
X24999Y154499D01*
X24166Y155332D01*
X23333D01*
X22500Y154499D01*
Y152833D01*
X23333Y152000D01*
X24166D01*
X24999Y152833D01*
X25832Y152000D01*
X26665D01*
X24999Y152833D02*
Y154499D01*
X13000Y125500D02*
Y127166D01*
Y126333D01*
X17998D01*
X17165Y125500D01*
X23000Y127832D02*
Y124500D01*
X26332Y127832D01*
X27165D01*
X27998Y126999D01*
Y125333D01*
X27165Y124500D01*
X17998Y79000D02*
Y82332D01*
X17165D01*
X13833Y79000D01*
X13000D01*
X26665D02*
X27498Y79833D01*
Y81499D01*
X26665Y82332D01*
X25832D01*
X24999Y81499D01*
X24166Y82332D01*
X23333D01*
X22500Y81499D01*
Y79833D01*
X23333Y79000D01*
X24166D01*
X24999Y79833D01*
X25832Y79000D01*
X26665D01*
X24999Y79833D02*
Y81499D01*
M02*
