G04 Layer_Color=65535*
%FSLAX25Y25*%
%MOIN*%
G70*
G01*
G75*
%ADD26C,0.01000*%
%ADD33C,0.00400*%
%ADD34C,0.02362*%
%ADD35C,0.00984*%
%ADD36C,0.00394*%
%ADD37C,0.00787*%
%ADD38C,0.00600*%
%ADD39C,0.00800*%
D26*
X183000Y38000D02*
Y53000D01*
Y38000D02*
X183500Y37500D01*
X212500D01*
Y53000D01*
X183000D02*
X212500D01*
X338500Y122500D02*
Y152000D01*
X354000D01*
Y123000D02*
Y152000D01*
X353500Y122500D02*
X354000Y123000D01*
X338500Y122500D02*
X353500D01*
X183000Y225500D02*
X212500D01*
X183000D02*
Y241000D01*
X212000D01*
X212500Y240500D01*
Y225500D02*
Y240500D01*
X39000Y211000D02*
X42936D01*
Y209032D01*
X42280Y208376D01*
X40968D01*
X40312Y209032D01*
Y211000D01*
X39000Y207064D02*
Y205752D01*
Y206408D01*
X42936D01*
X42280Y207064D01*
X301064Y38706D02*
Y37394D01*
Y38050D01*
X304344D01*
X305000Y37394D01*
Y36739D01*
X304344Y36083D01*
X305656Y40018D02*
Y42642D01*
X301720Y46578D02*
X301064Y45922D01*
Y44610D01*
X301720Y43954D01*
X304344D01*
X305000Y44610D01*
Y45922D01*
X304344Y46578D01*
X301720Y47890D02*
X301064Y48546D01*
Y49858D01*
X301720Y50514D01*
X302376D01*
X303032Y49858D01*
Y49202D01*
Y49858D01*
X303688Y50514D01*
X304344D01*
X305000Y49858D01*
Y48546D01*
X304344Y47890D01*
X301720Y51826D02*
X301064Y52482D01*
Y53793D01*
X301720Y54449D01*
X304344D01*
X305000Y53793D01*
Y52482D01*
X304344Y51826D01*
X301720D01*
X301064Y73706D02*
Y72395D01*
Y73050D01*
X304344D01*
X305000Y72395D01*
Y71739D01*
X304344Y71083D01*
X305656Y75018D02*
Y77642D01*
X301720Y81578D02*
X301064Y80922D01*
Y79610D01*
X301720Y78954D01*
X304344D01*
X305000Y79610D01*
Y80922D01*
X304344Y81578D01*
X305000Y85514D02*
Y82890D01*
X302376Y85514D01*
X301720D01*
X301064Y84858D01*
Y83546D01*
X301720Y82890D01*
X304344Y86826D02*
X305000Y87481D01*
Y88793D01*
X304344Y89449D01*
X301720D01*
X301064Y88793D01*
Y87481D01*
X301720Y86826D01*
X302376D01*
X303032Y87481D01*
Y89449D01*
X301064Y108706D02*
Y107395D01*
Y108051D01*
X304344D01*
X305000Y107395D01*
Y106739D01*
X304344Y106083D01*
X305656Y110018D02*
Y112642D01*
X301720Y116578D02*
X301064Y115922D01*
Y114610D01*
X301720Y113954D01*
X304344D01*
X305000Y114610D01*
Y115922D01*
X304344Y116578D01*
X305000Y120514D02*
Y117890D01*
X302376Y120514D01*
X301720D01*
X301064Y119858D01*
Y118546D01*
X301720Y117890D01*
Y121826D02*
X301064Y122482D01*
Y123793D01*
X301720Y124449D01*
X302376D01*
X303032Y123793D01*
X303688Y124449D01*
X304344D01*
X305000Y123793D01*
Y122482D01*
X304344Y121826D01*
X303688D01*
X303032Y122482D01*
X302376Y121826D01*
X301720D01*
X303032Y122482D02*
Y123793D01*
X301064Y143706D02*
Y142394D01*
Y143051D01*
X304344D01*
X305000Y142394D01*
Y141739D01*
X304344Y141083D01*
X305656Y145018D02*
Y147642D01*
X301720Y151578D02*
X301064Y150922D01*
Y149610D01*
X301720Y148954D01*
X304344D01*
X305000Y149610D01*
Y150922D01*
X304344Y151578D01*
X305000Y155514D02*
Y152890D01*
X302376Y155514D01*
X301720D01*
X301064Y154858D01*
Y153546D01*
X301720Y152890D01*
X301064Y156826D02*
Y159449D01*
X301720D01*
X304344Y156826D01*
X305000D01*
X301064Y178706D02*
Y177394D01*
Y178050D01*
X304344D01*
X305000Y177394D01*
Y176739D01*
X304344Y176083D01*
X305656Y180018D02*
Y182642D01*
X301720Y186578D02*
X301064Y185922D01*
Y184610D01*
X301720Y183954D01*
X304344D01*
X305000Y184610D01*
Y185922D01*
X304344Y186578D01*
X305000Y190514D02*
Y187890D01*
X302376Y190514D01*
X301720D01*
X301064Y189858D01*
Y188546D01*
X301720Y187890D01*
X301064Y194449D02*
X301720Y193138D01*
X303032Y191826D01*
X304344D01*
X305000Y192482D01*
Y193793D01*
X304344Y194449D01*
X303688D01*
X303032Y193793D01*
Y191826D01*
X301064Y213706D02*
Y212394D01*
Y213051D01*
X304344D01*
X305000Y212394D01*
Y211739D01*
X304344Y211083D01*
X305656Y215018D02*
Y217642D01*
X301720Y221578D02*
X301064Y220922D01*
Y219610D01*
X301720Y218954D01*
X304344D01*
X305000Y219610D01*
Y220922D01*
X304344Y221578D01*
X305000Y225514D02*
Y222890D01*
X302376Y225514D01*
X301720D01*
X301064Y224858D01*
Y223546D01*
X301720Y222890D01*
X301064Y229449D02*
Y226826D01*
X303032D01*
X302376Y228137D01*
Y228793D01*
X303032Y229449D01*
X304344D01*
X305000Y228793D01*
Y227482D01*
X304344Y226826D01*
X27124Y33936D02*
X25812D01*
X26468D01*
Y30656D01*
X25812Y30000D01*
X25156D01*
X24500Y30656D01*
X28436Y29344D02*
X31060D01*
X34995Y33280D02*
X34339Y33936D01*
X33027D01*
X32372Y33280D01*
Y30656D01*
X33027Y30000D01*
X34339D01*
X34995Y30656D01*
X38931Y30000D02*
X36307D01*
X38931Y32624D01*
Y33280D01*
X38275Y33936D01*
X36963D01*
X36307Y33280D01*
X42211Y30000D02*
Y33936D01*
X40243Y31968D01*
X42867D01*
X62124Y33936D02*
X60812D01*
X61468D01*
Y30656D01*
X60812Y30000D01*
X60156D01*
X59500Y30656D01*
X63436Y29344D02*
X66060D01*
X69995Y33280D02*
X69339Y33936D01*
X68027D01*
X67371Y33280D01*
Y30656D01*
X68027Y30000D01*
X69339D01*
X69995Y30656D01*
X73931Y30000D02*
X71307D01*
X73931Y32624D01*
Y33280D01*
X73275Y33936D01*
X71963D01*
X71307Y33280D01*
X75243D02*
X75899Y33936D01*
X77211D01*
X77867Y33280D01*
Y32624D01*
X77211Y31968D01*
X76555D01*
X77211D01*
X77867Y31312D01*
Y30656D01*
X77211Y30000D01*
X75899D01*
X75243Y30656D01*
X97124Y33936D02*
X95812D01*
X96468D01*
Y30656D01*
X95812Y30000D01*
X95156D01*
X94500Y30656D01*
X98436Y29344D02*
X101060D01*
X104995Y33280D02*
X104339Y33936D01*
X103027D01*
X102372Y33280D01*
Y30656D01*
X103027Y30000D01*
X104339D01*
X104995Y30656D01*
X108931Y30000D02*
X106307D01*
X108931Y32624D01*
Y33280D01*
X108275Y33936D01*
X106963D01*
X106307Y33280D01*
X112867Y30000D02*
X110243D01*
X112867Y32624D01*
Y33280D01*
X112211Y33936D01*
X110899D01*
X110243Y33280D01*
X132124Y33936D02*
X130812D01*
X131468D01*
Y30656D01*
X130812Y30000D01*
X130156D01*
X129500Y30656D01*
X133436Y29344D02*
X136060D01*
X139995Y33280D02*
X139339Y33936D01*
X138027D01*
X137372Y33280D01*
Y30656D01*
X138027Y30000D01*
X139339D01*
X139995Y30656D01*
X143931Y30000D02*
X141307D01*
X143931Y32624D01*
Y33280D01*
X143275Y33936D01*
X141963D01*
X141307Y33280D01*
X145243Y30000D02*
X146555D01*
X145899D01*
Y33936D01*
X145243Y33280D01*
X167124Y33936D02*
X165812D01*
X166468D01*
Y30656D01*
X165812Y30000D01*
X165156D01*
X164500Y30656D01*
X168436Y29344D02*
X171060D01*
X174995Y33280D02*
X174339Y33936D01*
X173027D01*
X172371Y33280D01*
Y30656D01*
X173027Y30000D01*
X174339D01*
X174995Y30656D01*
X178931Y30000D02*
X176307D01*
X178931Y32624D01*
Y33280D01*
X178275Y33936D01*
X176963D01*
X176307Y33280D01*
X180243D02*
X180899Y33936D01*
X182211D01*
X182867Y33280D01*
Y30656D01*
X182211Y30000D01*
X180899D01*
X180243Y30656D01*
Y33280D01*
X202124Y33936D02*
X200812D01*
X201468D01*
Y30656D01*
X200812Y30000D01*
X200156D01*
X199500Y30656D01*
X203436Y29344D02*
X206060D01*
X209995Y33280D02*
X209339Y33936D01*
X208027D01*
X207371Y33280D01*
Y30656D01*
X208027Y30000D01*
X209339D01*
X209995Y30656D01*
X211307Y30000D02*
X212619D01*
X211963D01*
Y33936D01*
X211307Y33280D01*
X214587Y30656D02*
X215243Y30000D01*
X216555D01*
X217211Y30656D01*
Y33280D01*
X216555Y33936D01*
X215243D01*
X214587Y33280D01*
Y32624D01*
X215243Y31968D01*
X217211D01*
X237124Y33936D02*
X235812D01*
X236468D01*
Y30656D01*
X235812Y30000D01*
X235156D01*
X234500Y30656D01*
X238436Y29344D02*
X241060D01*
X244995Y33280D02*
X244339Y33936D01*
X243027D01*
X242372Y33280D01*
Y30656D01*
X243027Y30000D01*
X244339D01*
X244995Y30656D01*
X246307Y30000D02*
X247619D01*
X246963D01*
Y33936D01*
X246307Y33280D01*
X249587D02*
X250243Y33936D01*
X251555D01*
X252211Y33280D01*
Y32624D01*
X251555Y31968D01*
X252211Y31312D01*
Y30656D01*
X251555Y30000D01*
X250243D01*
X249587Y30656D01*
Y31312D01*
X250243Y31968D01*
X249587Y32624D01*
Y33280D01*
X250243Y31968D02*
X251555D01*
X272124Y33936D02*
X270812D01*
X271468D01*
Y30656D01*
X270812Y30000D01*
X270156D01*
X269500Y30656D01*
X273436Y29344D02*
X276060D01*
X279995Y33280D02*
X279339Y33936D01*
X278027D01*
X277372Y33280D01*
Y30656D01*
X278027Y30000D01*
X279339D01*
X279995Y30656D01*
X281307Y30000D02*
X282619D01*
X281963D01*
Y33936D01*
X281307Y33280D01*
X284587Y33936D02*
X287211D01*
Y33280D01*
X284587Y30656D01*
Y30000D01*
X307124Y33936D02*
X305812D01*
X306468D01*
Y30656D01*
X305812Y30000D01*
X305156D01*
X304500Y30656D01*
X308436Y29344D02*
X311060D01*
X314995Y33280D02*
X314339Y33936D01*
X313027D01*
X312371Y33280D01*
Y30656D01*
X313027Y30000D01*
X314339D01*
X314995Y30656D01*
X316307Y30000D02*
X317619D01*
X316963D01*
Y33936D01*
X316307Y33280D01*
X322211Y33936D02*
X320899Y33280D01*
X319587Y31968D01*
Y30656D01*
X320243Y30000D01*
X321555D01*
X322211Y30656D01*
Y31312D01*
X321555Y31968D01*
X319587D01*
X342124Y33936D02*
X340812D01*
X341468D01*
Y30656D01*
X340812Y30000D01*
X340156D01*
X339500Y30656D01*
X343436Y29344D02*
X346060D01*
X349995Y33280D02*
X349339Y33936D01*
X348027D01*
X347372Y33280D01*
Y30656D01*
X348027Y30000D01*
X349339D01*
X349995Y30656D01*
X351307Y30000D02*
X352619D01*
X351963D01*
Y33936D01*
X351307Y33280D01*
X357211Y33936D02*
X354587D01*
Y31968D01*
X355899Y32624D01*
X356555D01*
X357211Y31968D01*
Y30656D01*
X356555Y30000D01*
X355243D01*
X354587Y30656D01*
X361064Y75124D02*
Y73812D01*
Y74468D01*
X364344D01*
X365000Y73812D01*
Y73156D01*
X364344Y72500D01*
X365656Y76436D02*
Y79060D01*
X361720Y82995D02*
X361064Y82339D01*
Y81027D01*
X361720Y80371D01*
X364344D01*
X365000Y81027D01*
Y82339D01*
X364344Y82995D01*
X365000Y84307D02*
Y85619D01*
Y84963D01*
X361064D01*
X361720Y84307D01*
X365000Y89555D02*
X361064D01*
X363032Y87587D01*
Y90211D01*
X361064Y110124D02*
Y108812D01*
Y109468D01*
X364344D01*
X365000Y108812D01*
Y108156D01*
X364344Y107500D01*
X365656Y111436D02*
Y114060D01*
X361720Y117995D02*
X361064Y117339D01*
Y116027D01*
X361720Y115372D01*
X364344D01*
X365000Y116027D01*
Y117339D01*
X364344Y117995D01*
X365000Y119307D02*
Y120619D01*
Y119963D01*
X361064D01*
X361720Y119307D01*
Y122587D02*
X361064Y123243D01*
Y124555D01*
X361720Y125211D01*
X362376D01*
X363032Y124555D01*
Y123899D01*
Y124555D01*
X363688Y125211D01*
X364344D01*
X365000Y124555D01*
Y123243D01*
X364344Y122587D01*
X361064Y145124D02*
Y143812D01*
Y144468D01*
X364344D01*
X365000Y143812D01*
Y143156D01*
X364344Y142500D01*
X365656Y146436D02*
Y149060D01*
X361720Y152995D02*
X361064Y152339D01*
Y151027D01*
X361720Y150372D01*
X364344D01*
X365000Y151027D01*
Y152339D01*
X364344Y152995D01*
X365000Y154307D02*
Y155619D01*
Y154963D01*
X361064D01*
X361720Y154307D01*
X365000Y160211D02*
Y157587D01*
X362376Y160211D01*
X361720D01*
X361064Y159555D01*
Y158243D01*
X361720Y157587D01*
X361064Y180124D02*
Y178812D01*
Y179468D01*
X364344D01*
X365000Y178812D01*
Y178156D01*
X364344Y177500D01*
X365656Y181436D02*
Y184060D01*
X361720Y187995D02*
X361064Y187339D01*
Y186027D01*
X361720Y185371D01*
X364344D01*
X365000Y186027D01*
Y187339D01*
X364344Y187995D01*
X365000Y189307D02*
Y190619D01*
Y189963D01*
X361064D01*
X361720Y189307D01*
X365000Y192587D02*
Y193899D01*
Y193243D01*
X361064D01*
X361720Y192587D01*
X367376Y243064D02*
X368688D01*
X368032D01*
Y246344D01*
X368688Y247000D01*
X369344D01*
X370000Y246344D01*
X366064Y247656D02*
X363440D01*
X359505Y243720D02*
X360161Y243064D01*
X361473D01*
X362128Y243720D01*
Y246344D01*
X361473Y247000D01*
X360161D01*
X359505Y246344D01*
X358193Y247000D02*
X356881D01*
X357537D01*
Y243064D01*
X358193Y243720D01*
X354913D02*
X354257Y243064D01*
X352945D01*
X352289Y243720D01*
Y246344D01*
X352945Y247000D01*
X354257D01*
X354913Y246344D01*
Y243720D01*
X331376Y243064D02*
X332688D01*
X332032D01*
Y246344D01*
X332688Y247000D01*
X333344D01*
X334000Y246344D01*
X330064Y247656D02*
X327440D01*
X323505Y243720D02*
X324161Y243064D01*
X325473D01*
X326129Y243720D01*
Y246344D01*
X325473Y247000D01*
X324161D01*
X323505Y246344D01*
X322193D02*
X321537Y247000D01*
X320225D01*
X319569Y246344D01*
Y243720D01*
X320225Y243064D01*
X321537D01*
X322193Y243720D01*
Y244376D01*
X321537Y245032D01*
X319569D01*
X295376Y243064D02*
X296688D01*
X296032D01*
Y246344D01*
X296688Y247000D01*
X297344D01*
X298000Y246344D01*
X294064Y247656D02*
X291440D01*
X287505Y243720D02*
X288161Y243064D01*
X289473D01*
X290128Y243720D01*
Y246344D01*
X289473Y247000D01*
X288161D01*
X287505Y246344D01*
X286193Y243720D02*
X285537Y243064D01*
X284225D01*
X283569Y243720D01*
Y244376D01*
X284225Y245032D01*
X283569Y245688D01*
Y246344D01*
X284225Y247000D01*
X285537D01*
X286193Y246344D01*
Y245688D01*
X285537Y245032D01*
X286193Y244376D01*
Y243720D01*
X285537Y245032D02*
X284225D01*
X261376Y243064D02*
X262688D01*
X262032D01*
Y246344D01*
X262688Y247000D01*
X263344D01*
X264000Y246344D01*
X260064Y247656D02*
X257440D01*
X253505Y243720D02*
X254161Y243064D01*
X255473D01*
X256129Y243720D01*
Y246344D01*
X255473Y247000D01*
X254161D01*
X253505Y246344D01*
X252193Y243064D02*
X249569D01*
Y243720D01*
X252193Y246344D01*
Y247000D01*
X225376Y243064D02*
X226688D01*
X226032D01*
Y246344D01*
X226688Y247000D01*
X227344D01*
X228000Y246344D01*
X224064Y247656D02*
X221440D01*
X217505Y243720D02*
X218161Y243064D01*
X219473D01*
X220128Y243720D01*
Y246344D01*
X219473Y247000D01*
X218161D01*
X217505Y246344D01*
X213569Y243064D02*
X214881Y243720D01*
X216193Y245032D01*
Y246344D01*
X215537Y247000D01*
X214225D01*
X213569Y246344D01*
Y245688D01*
X214225Y245032D01*
X216193D01*
X191376Y243064D02*
X192688D01*
X192032D01*
Y246344D01*
X192688Y247000D01*
X193344D01*
X194000Y246344D01*
X190064Y247656D02*
X187440D01*
X183505Y243720D02*
X184161Y243064D01*
X185473D01*
X186128Y243720D01*
Y246344D01*
X185473Y247000D01*
X184161D01*
X183505Y246344D01*
X179569Y243064D02*
X182193D01*
Y245032D01*
X180881Y244376D01*
X180225D01*
X179569Y245032D01*
Y246344D01*
X180225Y247000D01*
X181537D01*
X182193Y246344D01*
X155376Y243064D02*
X156688D01*
X156032D01*
Y246344D01*
X156688Y247000D01*
X157344D01*
X158000Y246344D01*
X154064Y247656D02*
X151440D01*
X147505Y243720D02*
X148161Y243064D01*
X149473D01*
X150128Y243720D01*
Y246344D01*
X149473Y247000D01*
X148161D01*
X147505Y246344D01*
X144225Y247000D02*
Y243064D01*
X146193Y245032D01*
X143569D01*
X121376Y243064D02*
X122688D01*
X122032D01*
Y246344D01*
X122688Y247000D01*
X123344D01*
X124000Y246344D01*
X120064Y247656D02*
X117440D01*
X113505Y243720D02*
X114161Y243064D01*
X115473D01*
X116129Y243720D01*
Y246344D01*
X115473Y247000D01*
X114161D01*
X113505Y246344D01*
X112193Y243720D02*
X111537Y243064D01*
X110225D01*
X109569Y243720D01*
Y244376D01*
X110225Y245032D01*
X110881D01*
X110225D01*
X109569Y245688D01*
Y246344D01*
X110225Y247000D01*
X111537D01*
X112193Y246344D01*
X85376Y243064D02*
X86688D01*
X86032D01*
Y246344D01*
X86688Y247000D01*
X87344D01*
X88000Y246344D01*
X84064Y247656D02*
X81440D01*
X77505Y243720D02*
X78161Y243064D01*
X79473D01*
X80129Y243720D01*
Y246344D01*
X79473Y247000D01*
X78161D01*
X77505Y246344D01*
X73569Y247000D02*
X76193D01*
X73569Y244376D01*
Y243720D01*
X74225Y243064D01*
X75537D01*
X76193Y243720D01*
X49376Y243064D02*
X50688D01*
X50032D01*
Y246344D01*
X50688Y247000D01*
X51344D01*
X52000Y246344D01*
X48064Y247656D02*
X45440D01*
X41505Y243720D02*
X42161Y243064D01*
X43473D01*
X44129Y243720D01*
Y246344D01*
X43473Y247000D01*
X42161D01*
X41505Y246344D01*
X40193Y247000D02*
X38881D01*
X39537D01*
Y243064D01*
X40193Y243720D01*
X193936Y94000D02*
X193280D01*
X191968Y92688D01*
X193280Y91376D01*
X193936D01*
X191968Y92688D02*
X190000D01*
Y87440D02*
Y90064D01*
X192624Y87440D01*
X193280D01*
X193936Y88096D01*
Y89408D01*
X193280Y90064D01*
X187500Y223536D02*
Y222880D01*
X188812Y221568D01*
X190124Y222880D01*
Y223536D01*
X188812Y221568D02*
Y219600D01*
X191436D02*
X192748D01*
X192092D01*
Y223536D01*
X191436Y222880D01*
X117280Y225376D02*
X117936Y226032D01*
Y227344D01*
X117280Y228000D01*
X116624D01*
X115968Y227344D01*
Y226032D01*
X115312Y225376D01*
X114656D01*
X114000Y226032D01*
Y227344D01*
X114656Y228000D01*
X114000Y224064D02*
Y222752D01*
Y223408D01*
X117936D01*
X117280Y224064D01*
X92000Y66000D02*
X95936D01*
Y64032D01*
X95280Y63376D01*
X93968D01*
X93312Y64032D01*
Y66000D01*
Y64688D02*
X92000Y63376D01*
Y62064D02*
Y60752D01*
Y61408D01*
X95936D01*
X95280Y62064D01*
X92000Y58785D02*
Y57473D01*
Y58128D01*
X95936D01*
X95280Y58785D01*
X134000Y54000D02*
Y57936D01*
X135968D01*
X136624Y57280D01*
Y55968D01*
X135968Y55312D01*
X134000D01*
X135312D02*
X136624Y54000D01*
X137936D02*
X139248D01*
X138592D01*
Y57936D01*
X137936Y57280D01*
X141216D02*
X141872Y57936D01*
X143183D01*
X143839Y57280D01*
Y54656D01*
X143183Y54000D01*
X141872D01*
X141216Y54656D01*
Y57280D01*
X160000Y148000D02*
X163936D01*
Y146032D01*
X163280Y145376D01*
X161968D01*
X161312Y146032D01*
Y148000D01*
Y146688D02*
X160000Y145376D01*
X163280Y144064D02*
X163936Y143408D01*
Y142096D01*
X163280Y141440D01*
X162624D01*
X161968Y142096D01*
X161312Y141440D01*
X160656D01*
X160000Y142096D01*
Y143408D01*
X160656Y144064D01*
X161312D01*
X161968Y143408D01*
X162624Y144064D01*
X163280D01*
X161968Y143408D02*
Y142096D01*
X82500Y51500D02*
Y55436D01*
X84468D01*
X85124Y54780D01*
Y53468D01*
X84468Y52812D01*
X82500D01*
X83812D02*
X85124Y51500D01*
X86436Y55436D02*
X89060D01*
Y54780D01*
X86436Y52156D01*
Y51500D01*
X158500Y197000D02*
X154564D01*
Y198968D01*
X155220Y199624D01*
X156532D01*
X157188Y198968D01*
Y197000D01*
Y198312D02*
X158500Y199624D01*
X154564Y203560D02*
X155220Y202248D01*
X156532Y200936D01*
X157844D01*
X158500Y201592D01*
Y202904D01*
X157844Y203560D01*
X157188D01*
X156532Y202904D01*
Y200936D01*
X168500Y197000D02*
X164564D01*
Y198968D01*
X165220Y199624D01*
X166532D01*
X167188Y198968D01*
Y197000D01*
Y198312D02*
X168500Y199624D01*
X164564Y203560D02*
Y200936D01*
X166532D01*
X165876Y202248D01*
Y202904D01*
X166532Y203560D01*
X167844D01*
X168500Y202904D01*
Y201592D01*
X167844Y200936D01*
X77500Y192000D02*
X73564D01*
Y193968D01*
X74220Y194624D01*
X75532D01*
X76188Y193968D01*
Y192000D01*
Y193312D02*
X77500Y194624D01*
Y197904D02*
X73564D01*
X75532Y195936D01*
Y198560D01*
X130000Y147500D02*
X133936D01*
Y145532D01*
X133280Y144876D01*
X131968D01*
X131312Y145532D01*
Y147500D01*
Y146188D02*
X130000Y144876D01*
Y140940D02*
Y143564D01*
X132624Y140940D01*
X133280D01*
X133936Y141596D01*
Y142908D01*
X133280Y143564D01*
X72500Y217500D02*
Y221436D01*
X74468D01*
X75124Y220780D01*
Y219468D01*
X74468Y218812D01*
X72500D01*
X73812D02*
X75124Y217500D01*
X76436D02*
X77748D01*
X77092D01*
Y221436D01*
X76436Y220780D01*
X40000Y138500D02*
X43936D01*
Y136532D01*
X43280Y135876D01*
X41968D01*
X41312Y136532D01*
Y138500D01*
X40000Y131940D02*
Y134564D01*
X42624Y131940D01*
X43280D01*
X43936Y132596D01*
Y133908D01*
X43280Y134564D01*
X122500Y119500D02*
Y123436D01*
X123812Y122124D01*
X125124Y123436D01*
Y119500D01*
X129060Y122780D02*
X128404Y123436D01*
X127092D01*
X126436Y122780D01*
Y120156D01*
X127092Y119500D01*
X128404D01*
X129060Y120156D01*
X130371Y119500D02*
Y123436D01*
X132339D01*
X132995Y122780D01*
Y121468D01*
X132339Y120812D01*
X130371D01*
X136931Y119500D02*
X134307D01*
X136931Y122124D01*
Y122780D01*
X136275Y123436D01*
X134963D01*
X134307Y122780D01*
X60000Y59000D02*
X56064D01*
X57376Y60312D01*
X56064Y61624D01*
X60000D01*
X56720Y65560D02*
X56064Y64904D01*
Y63592D01*
X56720Y62936D01*
X59344D01*
X60000Y63592D01*
Y64904D01*
X59344Y65560D01*
X60000Y66872D02*
X56064D01*
Y68839D01*
X56720Y69495D01*
X58032D01*
X58688Y68839D01*
Y66872D01*
X60000Y70807D02*
Y72119D01*
Y71463D01*
X56064D01*
X56720Y70807D01*
X149700Y173436D02*
Y169500D01*
X152324D01*
X153636D02*
X154948D01*
X154292D01*
Y173436D01*
X153636Y172780D01*
X122064Y192000D02*
Y193312D01*
Y192656D01*
X126000D01*
Y192000D01*
Y193312D01*
X122720Y197904D02*
X122064Y197248D01*
Y195936D01*
X122720Y195280D01*
X123376D01*
X124032Y195936D01*
Y197248D01*
X124688Y197904D01*
X125344D01*
X126000Y197248D01*
Y195936D01*
X125344Y195280D01*
X122720Y201839D02*
X122064Y201183D01*
Y199872D01*
X122720Y199215D01*
X125344D01*
X126000Y199872D01*
Y201183D01*
X125344Y201839D01*
X126000Y203151D02*
X122064D01*
Y205119D01*
X122720Y205775D01*
X124032D01*
X124688Y205119D01*
Y203151D01*
X120624Y57280D02*
X119968Y57936D01*
X118656D01*
X118000Y57280D01*
Y54656D01*
X118656Y54000D01*
X119968D01*
X120624Y54656D01*
X121936Y54000D02*
X123248D01*
X122592D01*
Y57936D01*
X121936Y57280D01*
X125215D02*
X125872Y57936D01*
X127183D01*
X127839Y57280D01*
Y56624D01*
X127183Y55968D01*
X126527D01*
X127183D01*
X127839Y55312D01*
Y54656D01*
X127183Y54000D01*
X125872D01*
X125215Y54656D01*
X85124Y95280D02*
X84468Y95936D01*
X83156D01*
X82500Y95280D01*
Y92656D01*
X83156Y92000D01*
X84468D01*
X85124Y92656D01*
X86436Y92000D02*
X87748D01*
X87092D01*
Y95936D01*
X86436Y95280D01*
X92339Y92000D02*
X89715D01*
X92339Y94624D01*
Y95280D01*
X91683Y95936D01*
X90372D01*
X89715Y95280D01*
X166124Y106280D02*
X165468Y106936D01*
X164156D01*
X163500Y106280D01*
Y103656D01*
X164156Y103000D01*
X165468D01*
X166124Y103656D01*
X167436Y103000D02*
X168748D01*
X168092D01*
Y106936D01*
X167436Y106280D01*
X170715Y103000D02*
X172027D01*
X171371D01*
Y106936D01*
X170715Y106280D01*
X166124Y76280D02*
X165468Y76936D01*
X164156D01*
X163500Y76280D01*
Y73656D01*
X164156Y73000D01*
X165468D01*
X166124Y73656D01*
X167436Y73000D02*
X168748D01*
X168092D01*
Y76936D01*
X167436Y76280D01*
X170715D02*
X171371Y76936D01*
X172683D01*
X173339Y76280D01*
Y73656D01*
X172683Y73000D01*
X171371D01*
X170715Y73656D01*
Y76280D01*
X209220Y220124D02*
X208564Y219468D01*
Y218156D01*
X209220Y217500D01*
X211844D01*
X212500Y218156D01*
Y219468D01*
X211844Y220124D01*
Y221436D02*
X212500Y222092D01*
Y223404D01*
X211844Y224060D01*
X209220D01*
X208564Y223404D01*
Y222092D01*
X209220Y221436D01*
X209876D01*
X210532Y222092D01*
Y224060D01*
X179220Y220124D02*
X178564Y219468D01*
Y218156D01*
X179220Y217500D01*
X181844D01*
X182500Y218156D01*
Y219468D01*
X181844Y220124D01*
X179220Y221436D02*
X178564Y222092D01*
Y223404D01*
X179220Y224060D01*
X179876D01*
X180532Y223404D01*
X181188Y224060D01*
X181844D01*
X182500Y223404D01*
Y222092D01*
X181844Y221436D01*
X181188D01*
X180532Y222092D01*
X179876Y221436D01*
X179220D01*
X180532Y222092D02*
Y223404D01*
X206124Y106780D02*
X205468Y107436D01*
X204156D01*
X203500Y106780D01*
Y104156D01*
X204156Y103500D01*
X205468D01*
X206124Y104156D01*
X207436Y107436D02*
X210060D01*
Y106780D01*
X207436Y104156D01*
Y103500D01*
X114624Y167280D02*
X113968Y167936D01*
X112656D01*
X112000Y167280D01*
Y164656D01*
X112656Y164000D01*
X113968D01*
X114624Y164656D01*
X118560Y167936D02*
X117248Y167280D01*
X115936Y165968D01*
Y164656D01*
X116592Y164000D01*
X117904D01*
X118560Y164656D01*
Y165312D01*
X117904Y165968D01*
X115936D01*
X114624Y177280D02*
X113968Y177936D01*
X112656D01*
X112000Y177280D01*
Y174656D01*
X112656Y174000D01*
X113968D01*
X114624Y174656D01*
X118560Y177936D02*
X115936D01*
Y175968D01*
X117248Y176624D01*
X117904D01*
X118560Y175968D01*
Y174656D01*
X117904Y174000D01*
X116592D01*
X115936Y174656D01*
X114624Y187280D02*
X113968Y187936D01*
X112656D01*
X112000Y187280D01*
Y184656D01*
X112656Y184000D01*
X113968D01*
X114624Y184656D01*
X117904Y184000D02*
Y187936D01*
X115936Y185968D01*
X118560D01*
X74624Y235280D02*
X73968Y235936D01*
X72656D01*
X72000Y235280D01*
Y232656D01*
X72656Y232000D01*
X73968D01*
X74624Y232656D01*
X75936Y235280D02*
X76592Y235936D01*
X77904D01*
X78560Y235280D01*
Y234624D01*
X77904Y233968D01*
X77248D01*
X77904D01*
X78560Y233312D01*
Y232656D01*
X77904Y232000D01*
X76592D01*
X75936Y232656D01*
X93280Y177376D02*
X93936Y178032D01*
Y179344D01*
X93280Y180000D01*
X90656D01*
X90000Y179344D01*
Y178032D01*
X90656Y177376D01*
X90000Y173440D02*
Y176064D01*
X92624Y173440D01*
X93280D01*
X93936Y174096D01*
Y175408D01*
X93280Y176064D01*
X66720Y194624D02*
X66064Y193968D01*
Y192656D01*
X66720Y192000D01*
X69344D01*
X70000Y192656D01*
Y193968D01*
X69344Y194624D01*
X70000Y195936D02*
Y197248D01*
Y196592D01*
X66064D01*
X66720Y195936D01*
X141324Y173236D02*
X138700D01*
Y171268D01*
X140012Y171924D01*
X140668D01*
X141324Y171268D01*
Y169956D01*
X140668Y169300D01*
X139356D01*
X138700Y169956D01*
X142636Y173236D02*
Y170612D01*
X143948Y169300D01*
X145260Y170612D01*
Y173236D01*
X269500Y152467D02*
X265564D01*
Y154435D01*
X266220Y155091D01*
X267532D01*
X268188Y154435D01*
Y152467D01*
X266220Y156403D02*
X265564Y157059D01*
Y158371D01*
X266220Y159027D01*
X266876D01*
X267532Y158371D01*
Y157715D01*
Y158371D01*
X268188Y159027D01*
X268844D01*
X269500Y158371D01*
Y157059D01*
X268844Y156403D01*
X269500Y54967D02*
X265564D01*
Y56935D01*
X266220Y57591D01*
X267532D01*
X268188Y56935D01*
Y54967D01*
X269500Y60871D02*
X265564D01*
X267532Y58903D01*
Y61527D01*
X197500Y178936D02*
Y175656D01*
X198156Y175000D01*
X199468D01*
X200124Y175656D01*
Y178936D01*
X201436Y175000D02*
X202748D01*
X202092D01*
Y178936D01*
X201436Y178280D01*
X218064Y188500D02*
X221344D01*
X222000Y189156D01*
Y190468D01*
X221344Y191124D01*
X218064D01*
X218720Y192436D02*
X218064Y193092D01*
Y194404D01*
X218720Y195060D01*
X219376D01*
X220032Y194404D01*
Y193748D01*
Y194404D01*
X220688Y195060D01*
X221344D01*
X222000Y194404D01*
Y193092D01*
X221344Y192436D01*
X218064Y91000D02*
X221344D01*
X222000Y91656D01*
Y92968D01*
X221344Y93624D01*
X218064D01*
X222000Y96904D02*
X218064D01*
X220032Y94936D01*
Y97560D01*
X95280Y121376D02*
X95936Y122032D01*
Y123344D01*
X95280Y124000D01*
X92656D01*
X92000Y123344D01*
Y122032D01*
X92656Y121376D01*
X92000Y120064D02*
Y118752D01*
Y119408D01*
X95936D01*
X95280Y120064D01*
X95936Y116785D02*
Y114161D01*
X95280D01*
X92656Y116785D01*
X92000D01*
X53936Y163000D02*
X50000D01*
Y161032D01*
X50656Y160376D01*
X53280D01*
X53936Y161032D01*
Y163000D01*
Y156440D02*
Y159064D01*
X51968D01*
X52624Y157752D01*
Y157096D01*
X51968Y156440D01*
X50656D01*
X50000Y157096D01*
Y158408D01*
X50656Y159064D01*
X48224Y104936D02*
X45600D01*
Y101000D01*
X48224D01*
X45600Y102968D02*
X46912D01*
X49536Y100344D02*
X52160D01*
X56095Y104280D02*
X55439Y104936D01*
X54127D01*
X53471Y104280D01*
Y101656D01*
X54127Y101000D01*
X55439D01*
X56095Y101656D01*
X58000Y240000D02*
X61936D01*
Y238032D01*
X61280Y237376D01*
X59968D01*
X59312Y238032D01*
Y240000D01*
X60624Y236064D02*
X58000D01*
X59312D01*
X59968Y235408D01*
X60624Y234752D01*
Y234096D01*
X58000Y231473D02*
Y230161D01*
X58656Y229505D01*
X59968D01*
X60624Y230161D01*
Y231473D01*
X59968Y232129D01*
X58656D01*
X58000Y231473D01*
X56688Y226881D02*
Y226225D01*
X57344Y225569D01*
X60624D01*
Y227537D01*
X59968Y228193D01*
X58656D01*
X58000Y227537D01*
Y225569D01*
X101936Y151000D02*
X98656D01*
X98000Y150344D01*
Y149032D01*
X98656Y148376D01*
X101936D01*
X98000Y144440D02*
Y147064D01*
X100624Y144440D01*
X101280D01*
X101936Y145096D01*
Y146408D01*
X101280Y147064D01*
X186064Y43124D02*
Y40500D01*
X188032D01*
X187376Y41812D01*
Y42468D01*
X188032Y43124D01*
X189344D01*
X190000Y42468D01*
Y41156D01*
X189344Y40500D01*
X186064Y44436D02*
X188688D01*
X190000Y45748D01*
X188688Y47060D01*
X186064D01*
X196720Y43124D02*
X196064Y42468D01*
Y41156D01*
X196720Y40500D01*
X199344D01*
X200000Y41156D01*
Y42468D01*
X199344Y43124D01*
X198032D01*
Y41812D01*
X200000Y44436D02*
X196064D01*
X200000Y47060D01*
X196064D01*
Y48371D02*
X200000D01*
Y50339D01*
X199344Y50995D01*
X196720D01*
X196064Y50339D01*
Y48371D01*
X206220Y43124D02*
X205564Y42468D01*
Y41156D01*
X206220Y40500D01*
X206876D01*
X207532Y41156D01*
Y42468D01*
X208188Y43124D01*
X208844D01*
X209500Y42468D01*
Y41156D01*
X208844Y40500D01*
X348376Y145720D02*
X349032Y145064D01*
X350344D01*
X351000Y145720D01*
Y146376D01*
X350344Y147032D01*
X349032D01*
X348376Y147688D01*
Y148344D01*
X349032Y149000D01*
X350344D01*
X351000Y148344D01*
X348376Y136220D02*
X349032Y135564D01*
X350344D01*
X351000Y136220D01*
Y138844D01*
X350344Y139500D01*
X349032D01*
X348376Y138844D01*
Y137532D01*
X349688D01*
X347064Y139500D02*
Y135564D01*
X344440Y139500D01*
Y135564D01*
X343128D02*
Y139500D01*
X341161D01*
X340505Y138844D01*
Y136220D01*
X341161Y135564D01*
X343128D01*
X348376Y125564D02*
X351000D01*
Y127532D01*
X349688Y126876D01*
X349032D01*
X348376Y127532D01*
Y128844D01*
X349032Y129500D01*
X350344D01*
X351000Y128844D01*
X347064Y125564D02*
Y128188D01*
X345752Y129500D01*
X344440Y128188D01*
Y125564D01*
X189280Y235376D02*
X189936Y236032D01*
Y237344D01*
X189280Y238000D01*
X188624D01*
X187968Y237344D01*
Y236032D01*
X187312Y235376D01*
X186656D01*
X186000Y236032D01*
Y237344D01*
X186656Y238000D01*
X198780Y235376D02*
X199436Y236032D01*
Y237344D01*
X198780Y238000D01*
X196156D01*
X195500Y237344D01*
Y236032D01*
X196156Y235376D01*
X197468D01*
Y236688D01*
X195500Y234064D02*
X199436D01*
X195500Y231440D01*
X199436D01*
Y230129D02*
X195500D01*
Y228161D01*
X196156Y227505D01*
X198780D01*
X199436Y228161D01*
Y230129D01*
X209436Y235376D02*
Y238000D01*
X207468D01*
X208124Y236688D01*
Y236032D01*
X207468Y235376D01*
X206156D01*
X205500Y236032D01*
Y237344D01*
X206156Y238000D01*
X209436Y234064D02*
X206812D01*
X205500Y232752D01*
X206812Y231440D01*
X209436D01*
D33*
X60386Y114260D02*
X60728Y113330D01*
X61144Y112431D01*
X61632Y111568D01*
X62188Y110748D01*
X62809Y109975D01*
X63490Y109256D01*
X64228Y108594D01*
X65017Y107994D01*
X65852Y107461D01*
X66728Y106997D01*
X67638Y106605D01*
X68577Y106289D01*
X69539Y106050D01*
X70517Y105889D01*
X71504Y105809D01*
X72496Y105809D01*
X73483Y105889D01*
X74461Y106050D01*
X75423Y106289D01*
X76362Y106605D01*
X77272Y106997D01*
X78148Y107461D01*
X78983Y107994D01*
X79772Y108594D01*
X80510Y109256D01*
X81191Y109975D01*
X81812Y110748D01*
X82368Y111568D01*
X82856Y112430D01*
X83272Y113330D01*
X83614Y114260D01*
Y121740D02*
X83272Y122670D01*
X82856Y123570D01*
X82368Y124432D01*
X81812Y125252D01*
X81191Y126025D01*
X80510Y126744D01*
X79772Y127406D01*
X78983Y128006D01*
X78148Y128539D01*
X77272Y129003D01*
X76362Y129395D01*
X75423Y129711D01*
X74461Y129950D01*
X73483Y130111D01*
X72496Y130191D01*
X71504D01*
X70517Y130111D01*
X69539Y129950D01*
X68577Y129711D01*
X67638Y129395D01*
X66728Y129003D01*
X65852Y128539D01*
X65017Y128006D01*
X64228Y127406D01*
X63490Y126744D01*
X62809Y126025D01*
X62188Y125252D01*
X61632Y124432D01*
X61144Y123570D01*
X60728Y122670D01*
X60386Y121740D01*
X83614Y179740D02*
X83272Y180670D01*
X82856Y181570D01*
X82368Y182432D01*
X81812Y183252D01*
X81191Y184025D01*
X80510Y184744D01*
X79772Y185406D01*
X78983Y186005D01*
X78148Y186539D01*
X77272Y187003D01*
X76362Y187395D01*
X75423Y187711D01*
X74461Y187951D01*
X73483Y188111D01*
X72496Y188191D01*
X71504D01*
X70517Y188111D01*
X69539Y187951D01*
X68577Y187711D01*
X67638Y187395D01*
X66728Y187003D01*
X65852Y186539D01*
X65017Y186005D01*
X64228Y185406D01*
X63490Y184744D01*
X62809Y184025D01*
X62188Y183252D01*
X61632Y182432D01*
X61144Y181570D01*
X60728Y180670D01*
X60386Y179740D01*
Y172260D02*
X60728Y171330D01*
X61144Y170431D01*
X61632Y169568D01*
X62188Y168748D01*
X62809Y167975D01*
X63490Y167256D01*
X64228Y166594D01*
X65017Y165995D01*
X65852Y165461D01*
X66728Y164997D01*
X67638Y164605D01*
X68577Y164289D01*
X69539Y164049D01*
X70517Y163889D01*
X71504Y163809D01*
X72496Y163809D01*
X73483Y163889D01*
X74461Y164049D01*
X75423Y164289D01*
X76362Y164605D01*
X77272Y164997D01*
X78148Y165461D01*
X78983Y165995D01*
X79772Y166594D01*
X80510Y167256D01*
X81191Y167975D01*
X81812Y168748D01*
X82368Y169568D01*
X82856Y170430D01*
X83272Y171330D01*
X83614Y172260D01*
X59205Y105205D02*
Y114260D01*
Y105205D02*
X78102D01*
X84795Y111898D01*
Y114260D01*
Y121740D02*
Y124102D01*
X78102Y130795D02*
X84795Y124102D01*
X59205Y130795D02*
X78102D01*
X59205Y121740D02*
Y130795D01*
Y179740D02*
Y188795D01*
X78102D01*
X84795Y182102D01*
Y179740D02*
Y182102D01*
Y169898D02*
Y172260D01*
X78102Y163205D02*
X84795Y169898D01*
X59205Y163205D02*
X78102D01*
X59205D02*
Y172260D01*
D34*
X126807Y112791D02*
X126362Y113715D01*
X125363Y113943D01*
X124562Y113304D01*
Y112279D01*
X125363Y111640D01*
X126362Y111868D01*
X126807Y112791D01*
X191324Y149000D02*
X190879Y149923D01*
X189880Y150152D01*
X189079Y149513D01*
Y148488D01*
X189880Y147848D01*
X190879Y148077D01*
X191324Y149000D01*
X228886Y191063D02*
X228441Y191986D01*
X227442Y192215D01*
X226641Y191576D01*
Y190550D01*
X227442Y189911D01*
X228441Y190140D01*
X228886Y191063D01*
Y93563D02*
X228441Y94486D01*
X227442Y94714D01*
X226641Y94076D01*
Y93050D01*
X227442Y92412D01*
X228441Y92640D01*
X228886Y93563D01*
D35*
X116079Y116847D02*
X115341Y117273D01*
Y116420D01*
X116079Y116847D01*
X84839Y82449D02*
X84100Y82875D01*
Y82023D01*
X84839Y82449D01*
X179708Y147399D02*
X178970Y147826D01*
Y146973D01*
X179708Y147399D01*
X224063Y181417D02*
X223325Y181843D01*
Y180991D01*
X224063Y181417D01*
Y83917D02*
X223325Y84343D01*
Y83491D01*
X224063Y83917D01*
D36*
X187535Y201913D02*
D03*
X187784Y81339D02*
D03*
D37*
X46500Y274098D02*
X47500Y273000D01*
X52500D02*
X53500Y274098D01*
X47500Y273000D02*
X52500D01*
X37500D02*
X42500D01*
X43500Y274098D01*
X36500D02*
X37500Y273000D01*
X26500Y274098D02*
X27500Y273000D01*
X32500D02*
X33500Y274098D01*
X27500Y273000D02*
X32500D01*
X24764Y248902D02*
X55630D01*
Y274098D01*
X24370D02*
X55630D01*
X24370Y248902D02*
Y274098D01*
Y248902D02*
X24764D01*
X81500Y274098D02*
X82500Y273000D01*
X87500D02*
X88500Y274098D01*
X82500Y273000D02*
X87500D01*
X72500D02*
X77500D01*
X78500Y274098D01*
X71500D02*
X72500Y273000D01*
X61500Y274098D02*
X62500Y273000D01*
X67500D02*
X68500Y274098D01*
X62500Y273000D02*
X67500D01*
X59764Y248902D02*
X90630D01*
Y274098D01*
X59370D02*
X90630D01*
X59370Y248902D02*
Y274098D01*
Y248902D02*
X59764D01*
X116500Y274098D02*
X117500Y273000D01*
X122500D02*
X123500Y274098D01*
X117500Y273000D02*
X122500D01*
X107500D02*
X112500D01*
X113500Y274098D01*
X106500D02*
X107500Y273000D01*
X96500Y274098D02*
X97500Y273000D01*
X102500D02*
X103500Y274098D01*
X97500Y273000D02*
X102500D01*
X94764Y248902D02*
X125630D01*
Y274098D01*
X94370D02*
X125630D01*
X94370Y248902D02*
Y274098D01*
Y248902D02*
X94764D01*
X151500Y274098D02*
X152500Y273000D01*
X157500D02*
X158500Y274098D01*
X152500Y273000D02*
X157500D01*
X142500D02*
X147500D01*
X148500Y274098D01*
X141500D02*
X142500Y273000D01*
X131500Y274098D02*
X132500Y273000D01*
X137500D02*
X138500Y274098D01*
X132500Y273000D02*
X137500D01*
X129764Y248902D02*
X160630D01*
Y274098D01*
X129370D02*
X160630D01*
X129370Y248902D02*
Y274098D01*
Y248902D02*
X129764D01*
X326500Y274098D02*
X327500Y273000D01*
X332500D02*
X333500Y274098D01*
X327500Y273000D02*
X332500D01*
X317500D02*
X322500D01*
X323500Y274098D01*
X316500D02*
X317500Y273000D01*
X306500Y274098D02*
X307500Y273000D01*
X312500D02*
X313500Y274098D01*
X307500Y273000D02*
X312500D01*
X304764Y248902D02*
X335630D01*
Y274098D01*
X304370D02*
X335630D01*
X304370Y248902D02*
Y274098D01*
Y248902D02*
X304764D01*
X186500Y274098D02*
X187500Y273000D01*
X192500D02*
X193500Y274098D01*
X187500Y273000D02*
X192500D01*
X177500D02*
X182500D01*
X183500Y274098D01*
X176500D02*
X177500Y273000D01*
X166500Y274098D02*
X167500Y273000D01*
X172500D02*
X173500Y274098D01*
X167500Y273000D02*
X172500D01*
X164764Y248902D02*
X195630D01*
Y274098D01*
X164370D02*
X195630D01*
X164370Y248902D02*
Y274098D01*
Y248902D02*
X164764D01*
X221500Y274098D02*
X222500Y273000D01*
X227500D02*
X228500Y274098D01*
X222500Y273000D02*
X227500D01*
X212500D02*
X217500D01*
X218500Y274098D01*
X211500D02*
X212500Y273000D01*
X201500Y274098D02*
X202500Y273000D01*
X207500D02*
X208500Y274098D01*
X202500Y273000D02*
X207500D01*
X199764Y248902D02*
X230630D01*
Y274098D01*
X199370D02*
X230630D01*
X199370Y248902D02*
Y274098D01*
Y248902D02*
X199764D01*
X256500Y274098D02*
X257500Y273000D01*
X262500D02*
X263500Y274098D01*
X257500Y273000D02*
X262500D01*
X247500D02*
X252500D01*
X253500Y274098D01*
X246500D02*
X247500Y273000D01*
X236500Y274098D02*
X237500Y273000D01*
X242500D02*
X243500Y274098D01*
X237500Y273000D02*
X242500D01*
X234764Y248902D02*
X265630D01*
Y274098D01*
X234370D02*
X265630D01*
X234370Y248902D02*
Y274098D01*
Y248902D02*
X234764D01*
X291500Y274098D02*
X292500Y273000D01*
X297500D02*
X298500Y274098D01*
X292500Y273000D02*
X297500D01*
X282500D02*
X287500D01*
X288500Y274098D01*
X281500D02*
X282500Y273000D01*
X271500Y274098D02*
X272500Y273000D01*
X277500D02*
X278500Y274098D01*
X272500Y273000D02*
X277500D01*
X269764Y248902D02*
X300630D01*
Y274098D01*
X269370D02*
X300630D01*
X269370Y248902D02*
Y274098D01*
Y248902D02*
X269764D01*
X361500Y274098D02*
X362500Y273000D01*
X367500D02*
X368500Y274098D01*
X362500Y273000D02*
X367500D01*
X352500D02*
X357500D01*
X358500Y274098D01*
X351500D02*
X352500Y273000D01*
X341500Y274098D02*
X342500Y273000D01*
X347500D02*
X348500Y274098D01*
X342500Y273000D02*
X347500D01*
X339764Y248902D02*
X370630D01*
Y274098D01*
X339370D02*
X370630D01*
X339370Y248902D02*
Y274098D01*
Y248902D02*
X339764D01*
X45000Y181000D02*
Y241000D01*
X55000Y181000D02*
Y241000D01*
X45000D02*
X55000D01*
X45000Y181000D02*
X55000D01*
X26000Y2402D02*
X27000Y3500D01*
X32000D02*
X33000Y2402D01*
X27000Y3500D02*
X32000D01*
X36000Y2402D02*
X37000Y3500D01*
X42000D02*
X43000Y2402D01*
X46000D02*
X47000Y3500D01*
X37000D02*
X42000D01*
X23870Y2402D02*
Y27598D01*
X54736D01*
X23870Y2402D02*
X55130D01*
X52000Y3500D02*
X53000Y2402D01*
X47000Y3500D02*
X52000D01*
X54736Y27598D02*
X55130D01*
Y2402D02*
Y27598D01*
X61000Y2402D02*
X62000Y3500D01*
X67000D02*
X68000Y2402D01*
X62000Y3500D02*
X67000D01*
X71000Y2402D02*
X72000Y3500D01*
X77000D02*
X78000Y2402D01*
X81000D02*
X82000Y3500D01*
X72000D02*
X77000D01*
X58870Y2402D02*
Y27598D01*
X89736D01*
X58870Y2402D02*
X90130D01*
X87000Y3500D02*
X88000Y2402D01*
X82000Y3500D02*
X87000D01*
X89736Y27598D02*
X90130D01*
Y2402D02*
Y27598D01*
X96000Y2402D02*
X97000Y3500D01*
X102000D02*
X103000Y2402D01*
X97000Y3500D02*
X102000D01*
X106000Y2402D02*
X107000Y3500D01*
X112000D02*
X113000Y2402D01*
X116000D02*
X117000Y3500D01*
X107000D02*
X112000D01*
X93870Y2402D02*
Y27598D01*
X124736D01*
X93870Y2402D02*
X125130D01*
X122000Y3500D02*
X123000Y2402D01*
X117000Y3500D02*
X122000D01*
X124736Y27598D02*
X125130D01*
Y2402D02*
Y27598D01*
X131000Y2402D02*
X132000Y3500D01*
X137000D02*
X138000Y2402D01*
X132000Y3500D02*
X137000D01*
X141000Y2402D02*
X142000Y3500D01*
X147000D02*
X148000Y2402D01*
X151000D02*
X152000Y3500D01*
X142000D02*
X147000D01*
X128870Y2402D02*
Y27598D01*
X159736D01*
X128870Y2402D02*
X160130D01*
X157000Y3500D02*
X158000Y2402D01*
X152000Y3500D02*
X157000D01*
X159736Y27598D02*
X160130D01*
Y2402D02*
Y27598D01*
X166000Y2402D02*
X167000Y3500D01*
X172000D02*
X173000Y2402D01*
X167000Y3500D02*
X172000D01*
X176000Y2402D02*
X177000Y3500D01*
X182000D02*
X183000Y2402D01*
X186000D02*
X187000Y3500D01*
X177000D02*
X182000D01*
X163870Y2402D02*
Y27598D01*
X194736D01*
X163870Y2402D02*
X195130D01*
X192000Y3500D02*
X193000Y2402D01*
X187000Y3500D02*
X192000D01*
X194736Y27598D02*
X195130D01*
Y2402D02*
Y27598D01*
X201000Y2402D02*
X202000Y3500D01*
X207000D02*
X208000Y2402D01*
X202000Y3500D02*
X207000D01*
X211000Y2402D02*
X212000Y3500D01*
X217000D02*
X218000Y2402D01*
X221000D02*
X222000Y3500D01*
X212000D02*
X217000D01*
X198870Y2402D02*
Y27598D01*
X229736D01*
X198870Y2402D02*
X230130D01*
X227000Y3500D02*
X228000Y2402D01*
X222000Y3500D02*
X227000D01*
X229736Y27598D02*
X230130D01*
Y2402D02*
Y27598D01*
X236000Y2402D02*
X237000Y3500D01*
X242000D02*
X243000Y2402D01*
X237000Y3500D02*
X242000D01*
X246000Y2402D02*
X247000Y3500D01*
X252000D02*
X253000Y2402D01*
X256000D02*
X257000Y3500D01*
X247000D02*
X252000D01*
X233870Y2402D02*
Y27598D01*
X264736D01*
X233870Y2402D02*
X265130D01*
X262000Y3500D02*
X263000Y2402D01*
X257000Y3500D02*
X262000D01*
X264736Y27598D02*
X265130D01*
Y2402D02*
Y27598D01*
X271000Y2402D02*
X272000Y3500D01*
X277000D02*
X278000Y2402D01*
X272000Y3500D02*
X277000D01*
X281000Y2402D02*
X282000Y3500D01*
X287000D02*
X288000Y2402D01*
X291000D02*
X292000Y3500D01*
X282000D02*
X287000D01*
X268870Y2402D02*
Y27598D01*
X299736D01*
X268870Y2402D02*
X300130D01*
X297000Y3500D02*
X298000Y2402D01*
X292000Y3500D02*
X297000D01*
X299736Y27598D02*
X300130D01*
Y2402D02*
Y27598D01*
X306000Y2402D02*
X307000Y3500D01*
X312000D02*
X313000Y2402D01*
X307000Y3500D02*
X312000D01*
X316000Y2402D02*
X317000Y3500D01*
X322000D02*
X323000Y2402D01*
X326000D02*
X327000Y3500D01*
X317000D02*
X322000D01*
X303870Y2402D02*
Y27598D01*
X334736D01*
X303870Y2402D02*
X335130D01*
X332000Y3500D02*
X333000Y2402D01*
X327000Y3500D02*
X332000D01*
X334736Y27598D02*
X335130D01*
Y2402D02*
Y27598D01*
X341000Y2402D02*
X342000Y3500D01*
X347000D02*
X348000Y2402D01*
X342000Y3500D02*
X347000D01*
X351000Y2402D02*
X352000Y3500D01*
X357000D02*
X358000Y2402D01*
X361000D02*
X362000Y3500D01*
X352000D02*
X357000D01*
X338870Y2402D02*
Y27598D01*
X369736D01*
X338870Y2402D02*
X370130D01*
X367000Y3500D02*
X368000Y2402D01*
X362000Y3500D02*
X367000D01*
X369736Y27598D02*
X370130D01*
Y2402D02*
Y27598D01*
X331500Y38583D02*
X332598Y37583D01*
X331500Y43583D02*
X332598Y44583D01*
X331500Y38583D02*
Y43583D01*
Y48583D02*
X332598Y47583D01*
X331500Y53583D02*
X332598Y54583D01*
X331500Y58583D02*
X332598Y57583D01*
X331500Y48583D02*
Y53583D01*
X307402Y35453D02*
X332598D01*
X307402D02*
Y66319D01*
X332598Y35453D02*
Y66713D01*
X331500Y63583D02*
X332598Y64583D01*
X331500Y58583D02*
Y63583D01*
X307402Y66319D02*
Y66713D01*
X332598D01*
X331500Y73583D02*
X332598Y72583D01*
X331500Y78583D02*
X332598Y79583D01*
X331500Y73583D02*
Y78583D01*
Y83583D02*
X332598Y82583D01*
X331500Y88583D02*
X332598Y89583D01*
X331500Y93583D02*
X332598Y92583D01*
X331500Y83583D02*
Y88583D01*
X307402Y70453D02*
X332598D01*
X307402D02*
Y101319D01*
X332598Y70453D02*
Y101713D01*
X331500Y98583D02*
X332598Y99583D01*
X331500Y93583D02*
Y98583D01*
X307402Y101319D02*
Y101713D01*
X332598D01*
X331500Y108583D02*
X332598Y107583D01*
X331500Y113583D02*
X332598Y114583D01*
X331500Y108583D02*
Y113583D01*
Y118583D02*
X332598Y117583D01*
X331500Y123583D02*
X332598Y124583D01*
X331500Y128583D02*
X332598Y127583D01*
X331500Y118583D02*
Y123583D01*
X307402Y105453D02*
X332598D01*
X307402D02*
Y136319D01*
X332598Y105453D02*
Y136713D01*
X331500Y133583D02*
X332598Y134583D01*
X331500Y128583D02*
Y133583D01*
X307402Y136319D02*
Y136713D01*
X332598D01*
X331500Y143583D02*
X332598Y142583D01*
X331500Y148583D02*
X332598Y149583D01*
X331500Y143583D02*
Y148583D01*
Y153583D02*
X332598Y152583D01*
X331500Y158583D02*
X332598Y159583D01*
X331500Y163583D02*
X332598Y162583D01*
X331500Y153583D02*
Y158583D01*
X307402Y140453D02*
X332598D01*
X307402D02*
Y171319D01*
X332598Y140453D02*
Y171713D01*
X331500Y168583D02*
X332598Y169583D01*
X331500Y163583D02*
Y168583D01*
X307402Y171319D02*
Y171713D01*
X332598D01*
X331500Y213583D02*
X332598Y212583D01*
X331500Y218583D02*
X332598Y219583D01*
X331500Y213583D02*
Y218583D01*
Y223583D02*
X332598Y222583D01*
X331500Y228583D02*
X332598Y229583D01*
X331500Y233583D02*
X332598Y232583D01*
X331500Y223583D02*
Y228583D01*
X307402Y210453D02*
X332598D01*
X307402D02*
Y241319D01*
X332598Y210453D02*
Y241713D01*
X331500Y238583D02*
X332598Y239583D01*
X331500Y233583D02*
Y238583D01*
X307402Y241319D02*
Y241713D01*
X332598D01*
X331500Y178583D02*
X332598Y177583D01*
X331500Y183583D02*
X332598Y184583D01*
X331500Y178583D02*
Y183583D01*
Y188583D02*
X332598Y187583D01*
X331500Y193583D02*
X332598Y194583D01*
X331500Y198583D02*
X332598Y197583D01*
X331500Y188583D02*
Y193583D01*
X307402Y175453D02*
X332598D01*
X307402D02*
Y206319D01*
X332598Y175453D02*
Y206713D01*
X331500Y203583D02*
X332598Y204583D01*
X331500Y198583D02*
Y203583D01*
X307402Y206319D02*
Y206713D01*
X332598D01*
X292000Y54967D02*
Y134967D01*
X272000Y54967D02*
Y134967D01*
Y54967D02*
X292000D01*
X272000Y134967D02*
X292000D01*
Y152467D02*
Y232467D01*
X272000Y152467D02*
Y232467D01*
Y152467D02*
X292000D01*
X272000Y232467D02*
X292000D01*
X121689Y70272D02*
X145311D01*
X121689Y116728D02*
X145311D01*
Y70272D02*
Y116728D01*
X121689Y70272D02*
Y116728D01*
X128500Y192000D02*
X148500D01*
X128500Y222000D02*
X148500D01*
Y192000D02*
Y222000D01*
X128500Y192000D02*
Y222000D01*
Y192000D02*
Y211167D01*
X391500Y80000D02*
X392598Y81000D01*
X391500Y75000D02*
X392598Y74000D01*
X391500Y75000D02*
Y80000D01*
Y85000D02*
Y90000D01*
Y85000D02*
X392598Y84000D01*
X391500Y90000D02*
X392598Y91000D01*
X391500Y100000D02*
X392598Y101000D01*
X391500Y95000D02*
X392598Y94000D01*
X391500Y95000D02*
Y100000D01*
X367402Y71870D02*
Y102736D01*
Y71870D02*
X392598D01*
Y103130D01*
X367402D02*
X392598D01*
X367402Y102736D02*
Y103130D01*
X391500Y115000D02*
X392598Y116000D01*
X391500Y110000D02*
X392598Y109000D01*
X391500Y110000D02*
Y115000D01*
Y120000D02*
Y125000D01*
Y120000D02*
X392598Y119000D01*
X391500Y125000D02*
X392598Y126000D01*
X391500Y135000D02*
X392598Y136000D01*
X391500Y130000D02*
X392598Y129000D01*
X391500Y130000D02*
Y135000D01*
X367402Y106870D02*
Y137736D01*
Y106870D02*
X392598D01*
Y138130D01*
X367402D02*
X392598D01*
X367402Y137736D02*
Y138130D01*
X391500Y150000D02*
X392598Y151000D01*
X391500Y145000D02*
X392598Y144000D01*
X391500Y145000D02*
Y150000D01*
Y155000D02*
Y160000D01*
Y155000D02*
X392598Y154000D01*
X391500Y160000D02*
X392598Y161000D01*
X391500Y170000D02*
X392598Y171000D01*
X391500Y165000D02*
X392598Y164000D01*
X391500Y165000D02*
Y170000D01*
X367402Y141870D02*
Y172736D01*
Y141870D02*
X392598D01*
Y173130D01*
X367402D02*
X392598D01*
X367402Y172736D02*
Y173130D01*
X391500Y185000D02*
X392598Y186000D01*
X391500Y180000D02*
X392598Y179000D01*
X391500Y180000D02*
Y185000D01*
Y190000D02*
Y195000D01*
Y190000D02*
X392598Y189000D01*
X391500Y195000D02*
X392598Y196000D01*
X391500Y205000D02*
X392598Y206000D01*
X391500Y200000D02*
X392598Y199000D01*
X391500Y200000D02*
Y205000D01*
X367402Y176870D02*
Y207736D01*
Y176870D02*
X392598D01*
Y208130D01*
X367402D02*
X392598D01*
X367402Y207736D02*
Y208130D01*
X45000Y77000D02*
Y97000D01*
Y77000D02*
X55000D01*
Y97000D01*
X45000D02*
X55000D01*
X97000Y203500D02*
X111000D01*
X97000D02*
Y228500D01*
X111000D01*
Y203500D02*
Y228500D01*
X63657Y69457D02*
Y76543D01*
X83342Y69457D02*
Y76543D01*
X63657Y69457D02*
X83342D01*
X63657Y76543D02*
X83342D01*
X2283Y141461D02*
X37716D01*
X2283Y211539D02*
X37716D01*
Y141461D02*
Y211539D01*
X2283Y141461D02*
Y211539D01*
Y68461D02*
X37716D01*
X2283Y138539D02*
X37716D01*
Y68461D02*
Y138539D01*
X2283Y68461D02*
Y138539D01*
X184575Y149000D02*
X201000Y132575D01*
Y165425D02*
X217425Y149000D01*
X184575D02*
X201000Y165425D01*
Y132575D02*
X217425Y149000D01*
X223768Y187126D02*
X257232D01*
X223768Y202874D02*
X257232D01*
X223768Y187126D02*
Y202874D01*
X257232Y187126D02*
Y202874D01*
X223768Y89626D02*
X257232D01*
X223768Y105374D02*
X257232D01*
X223768Y89626D02*
Y105374D01*
X257232Y89626D02*
Y105374D01*
X191669Y202307D02*
X204268D01*
Y215693D01*
X187732D02*
X204268D01*
X187732Y203095D02*
Y215693D01*
Y203095D02*
X188520Y202307D01*
X191669D01*
X187193Y85669D02*
Y98268D01*
X173807D02*
X187193D01*
X173807Y81732D02*
Y98268D01*
Y81732D02*
X186406D01*
X187193Y82520D01*
Y85669D01*
D38*
X103319Y188862D02*
X105681D01*
X103319Y184138D02*
X105681D01*
X103319Y178862D02*
X105681D01*
X103319Y174138D02*
X105681D01*
X103319Y168862D02*
X105681D01*
X103319Y164138D02*
X105681D01*
X159638Y154819D02*
Y157181D01*
X164362Y154819D02*
Y157181D01*
X129638Y154819D02*
Y157181D01*
X134362Y154819D02*
Y157181D01*
X95862Y71819D02*
Y74181D01*
X91138Y71819D02*
Y74181D01*
X137319Y61138D02*
X139681D01*
X137319Y65862D02*
X139681D01*
X72319Y50638D02*
X74681D01*
X72319Y55362D02*
X74681D01*
X154838Y209719D02*
Y212081D01*
X159562Y209719D02*
Y212081D01*
X164638Y209819D02*
Y212181D01*
X169362Y209819D02*
Y212181D01*
X73638Y204819D02*
Y207181D01*
X78362Y204819D02*
Y207181D01*
X84819Y221362D02*
X87181D01*
X84819Y216638D02*
X87181D01*
X122319Y61138D02*
X124681D01*
X122319Y65862D02*
X124681D01*
X72319Y95862D02*
X74681D01*
X72319Y91138D02*
X74681D01*
X179319Y107362D02*
X181681D01*
X179319Y102638D02*
X181681D01*
X179319Y72638D02*
X181681D01*
X179319Y77362D02*
X181681D01*
X213362Y207819D02*
Y210181D01*
X208638Y207819D02*
Y210181D01*
X178638Y207819D02*
Y210181D01*
X183362Y207819D02*
Y210181D01*
X193319Y102638D02*
X195681D01*
X193319Y107362D02*
X195681D01*
X84819Y236362D02*
X87181D01*
X84819Y231638D02*
X87181D01*
X70362Y204819D02*
Y207181D01*
X65638Y204819D02*
Y207181D01*
D39*
X48949Y145031D02*
X55051D01*
Y152118D01*
Y141882D02*
Y145031D01*
X48949D02*
Y152118D01*
Y141882D02*
Y145031D01*
X149063Y147251D02*
Y152763D01*
Y147251D02*
X156937D01*
Y152763D01*
X149063Y160637D02*
Y166149D01*
X156937D01*
Y160637D02*
Y166149D01*
X150244Y157881D02*
X153000D01*
X155756D01*
X150638Y155519D02*
X153000Y157881D01*
X150638Y155519D02*
X155362D01*
X153000Y157881D02*
X155362Y155519D01*
X138063Y147051D02*
Y152563D01*
Y147051D02*
X145937D01*
Y152563D01*
X138063Y160437D02*
Y165949D01*
X145937D01*
Y160437D02*
Y165949D01*
X139244Y157681D02*
X142000D01*
X144756D01*
X139638Y155319D02*
X142000Y157681D01*
X139638Y155319D02*
X144362D01*
X142000Y157681D02*
X144362Y155319D01*
X285000Y51967D02*
Y50301D01*
Y51134D01*
X289998D01*
X289165Y51967D01*
X289998Y44469D02*
X289165Y46136D01*
X287499Y47802D01*
X285833D01*
X285000Y46969D01*
Y45303D01*
X285833Y44469D01*
X286666D01*
X287499Y45303D01*
Y47802D01*
X279165Y51967D02*
X279998Y51134D01*
Y49468D01*
X279165Y48635D01*
X278332D01*
X277499Y49468D01*
X276666Y48635D01*
X275833D01*
X275000Y49468D01*
Y51134D01*
X275833Y51967D01*
X276666D01*
X277499Y51134D01*
X278332Y51967D01*
X279165D01*
X277499Y51134D02*
Y49468D01*
X275000Y139967D02*
Y138301D01*
Y139134D01*
X279998D01*
X279165Y139967D01*
X285833D02*
X285000Y139134D01*
Y137468D01*
X285833Y136635D01*
X289165D01*
X289998Y137468D01*
Y139134D01*
X289165Y139967D01*
X288332D01*
X287499Y139134D01*
Y136635D01*
X285000Y149467D02*
Y147801D01*
Y148634D01*
X289998D01*
X289165Y149467D01*
X289998Y141969D02*
X289165Y143635D01*
X287499Y145302D01*
X285833D01*
X285000Y144469D01*
Y142803D01*
X285833Y141969D01*
X286666D01*
X287499Y142803D01*
Y145302D01*
X279165Y149467D02*
X279998Y148634D01*
Y146968D01*
X279165Y146135D01*
X278332D01*
X277499Y146968D01*
X276666Y146135D01*
X275833D01*
X275000Y146968D01*
Y148634D01*
X275833Y149467D01*
X276666D01*
X277499Y148634D01*
X278332Y149467D01*
X279165D01*
X277499Y148634D02*
Y146968D01*
X275000Y237467D02*
Y235801D01*
Y236634D01*
X279998D01*
X279165Y237467D01*
X285833D02*
X285000Y236634D01*
Y234968D01*
X285833Y234135D01*
X289165D01*
X289998Y234968D01*
Y236634D01*
X289165Y237467D01*
X288332D01*
X287499Y236634D01*
Y234135D01*
X146498Y187668D02*
X145665Y189334D01*
X143999Y191000D01*
X142333D01*
X141500Y190167D01*
Y188501D01*
X142333Y187668D01*
X143166D01*
X143999Y188501D01*
Y191000D01*
X136498Y187668D02*
Y191000D01*
X133999D01*
X134832Y189334D01*
Y188501D01*
X133999Y187668D01*
X132333D01*
X131500Y188501D01*
Y190167D01*
X132333Y191000D01*
X141500Y223668D02*
Y227000D01*
X144832Y223668D01*
X145665D01*
X146498Y224501D01*
Y226167D01*
X145665Y227000D01*
X131500Y225000D02*
Y223334D01*
Y224167D01*
X136498D01*
X135665Y225000D01*
M02*
