G04 Layer_Physical_Order=1*
G04 Layer_Color=255*
%FSLAX25Y25*%
%MOIN*%
G70*
G01*
G75*
%ADD10R,0.03150X0.04724*%
%ADD11R,0.04724X0.03150*%
%ADD12R,0.03740X0.03543*%
%ADD13R,0.11811X0.05512*%
%ADD14R,0.08661X0.14173*%
%ADD15R,0.08800X0.04800*%
%ADD16O,0.09055X0.02362*%
%ADD17R,0.05512X0.04724*%
G04:AMPARAMS|DCode=18|XSize=62.99mil|YSize=86.22mil|CornerRadius=15.75mil|HoleSize=0mil|Usage=FLASHONLY|Rotation=0.000|XOffset=0mil|YOffset=0mil|HoleType=Round|Shape=RoundedRectangle|*
%AMROUNDEDRECTD18*
21,1,0.06299,0.05472,0,0,0.0*
21,1,0.03150,0.08622,0,0,0.0*
1,1,0.03150,0.01575,-0.02736*
1,1,0.03150,-0.01575,-0.02736*
1,1,0.03150,-0.01575,0.02736*
1,1,0.03150,0.01575,0.02736*
%
%ADD18ROUNDEDRECTD18*%
%ADD19O,0.02362X0.08661*%
G04:AMPARAMS|DCode=20|XSize=21.65mil|YSize=64.96mil|CornerRadius=0mil|HoleSize=0mil|Usage=FLASHONLY|Rotation=135.000|XOffset=0mil|YOffset=0mil|HoleType=Round|Shape=Round|*
%AMOVALD20*
21,1,0.04331,0.02165,0.00000,0.00000,225.0*
1,1,0.02165,0.01531,0.01531*
1,1,0.02165,-0.01531,-0.01531*
%
%ADD20OVALD20*%

G04:AMPARAMS|DCode=21|XSize=21.65mil|YSize=64.96mil|CornerRadius=0mil|HoleSize=0mil|Usage=FLASHONLY|Rotation=45.000|XOffset=0mil|YOffset=0mil|HoleType=Round|Shape=Round|*
%AMOVALD21*
21,1,0.04331,0.02165,0.00000,0.00000,135.0*
1,1,0.02165,0.01531,-0.01531*
1,1,0.02165,-0.01531,0.01531*
%
%ADD21OVALD21*%

%ADD22O,0.01378X0.08268*%
%ADD23R,0.05512X0.04724*%
%ADD24R,0.04724X0.05512*%
%ADD25C,0.01500*%
%ADD26C,0.01000*%
%ADD27O,0.06890X0.09842*%
%ADD28C,0.05905*%
%ADD29R,0.05905X0.05905*%
%ADD30O,0.09842X0.06890*%
%ADD31C,0.23622*%
%ADD32C,0.01968*%
G36*
X105119Y227742D02*
X100561Y223184D01*
X90601D01*
X90409Y223646D01*
X94634Y227871D01*
X104000D01*
X104585Y227987D01*
X104800Y228131D01*
X105119Y227742D01*
D02*
G37*
G36*
X253916Y106047D02*
X254575Y105916D01*
X254584Y105918D01*
X254971Y105600D01*
Y102677D01*
X248375Y96081D01*
X248044Y95585D01*
X247927Y95000D01*
Y89261D01*
X247427Y88979D01*
X246898Y89084D01*
X246239Y88953D01*
X246010Y88801D01*
X245618Y88610D01*
X245226Y88801D01*
X244998Y88953D01*
X244339Y89084D01*
X243680Y88953D01*
X243121Y88580D01*
X242997D01*
X242439Y88953D01*
X241779Y89084D01*
X241250Y88979D01*
X240750Y89261D01*
Y91780D01*
X240633Y92365D01*
X240302Y92861D01*
X236181Y96981D01*
X235685Y97313D01*
X235100Y97429D01*
X224344D01*
X224244Y97574D01*
X224153Y97929D01*
X227687Y101463D01*
X227687Y101463D01*
X228074Y102042D01*
X228209Y102725D01*
X228209Y102725D01*
Y105569D01*
X228710Y105970D01*
X228984Y105916D01*
X229514Y106021D01*
X230014Y105739D01*
Y105615D01*
X230130Y105030D01*
X230462Y104534D01*
X235077Y99919D01*
X235574Y99587D01*
X236159Y99471D01*
X245500D01*
X246085Y99587D01*
X246581Y99919D01*
X250075Y103412D01*
X250674Y103531D01*
X251331Y103969D01*
X251769Y104626D01*
X251923Y105400D01*
X251910Y105466D01*
X252318Y105976D01*
X252675Y106047D01*
X253233Y106420D01*
X253357D01*
X253916Y106047D01*
D02*
G37*
G36*
X164571Y167588D02*
Y162118D01*
X160029D01*
Y171476D01*
X160491Y171667D01*
X164571Y167588D01*
D02*
G37*
G36*
X171249Y208688D02*
X173771Y206167D01*
Y181381D01*
X173784Y181313D01*
X173324Y181066D01*
X171029Y183361D01*
Y207457D01*
X170913Y208042D01*
X170862Y208118D01*
X170999Y208641D01*
X171070Y208708D01*
X171249Y208688D01*
D02*
G37*
G36*
X308517Y105250D02*
X308771Y105168D01*
Y101268D01*
X299000Y91496D01*
X290645D01*
X290453Y91960D01*
X289819Y92786D01*
X288993Y93420D01*
X288032Y93818D01*
X287000Y93954D01*
X285968Y93818D01*
X285007Y93420D01*
X284778Y93244D01*
X284329Y93465D01*
Y96469D01*
X284778Y96690D01*
X285007Y96514D01*
X285968Y96116D01*
X287000Y95980D01*
X288032Y96116D01*
X288993Y96514D01*
X289819Y97148D01*
X290453Y97974D01*
X290645Y98438D01*
X300967D01*
X301552Y98554D01*
X302048Y98886D01*
X307981Y104819D01*
X308271Y105251D01*
X308517Y105250D01*
D02*
G37*
G36*
X186378Y163686D02*
X186213Y163144D01*
X185850Y163072D01*
X185707Y162976D01*
X182616Y166066D01*
X182120Y166398D01*
X181535Y166514D01*
X177983D01*
X177474Y166854D01*
X176700Y167008D01*
X176416Y166952D01*
X176029Y167269D01*
Y170117D01*
X176369Y170626D01*
X176523Y171400D01*
X176369Y172174D01*
X175931Y172831D01*
X175274Y173269D01*
X174500Y173423D01*
X173726Y173269D01*
X173069Y172831D01*
X172631Y172174D01*
X172477Y171400D01*
X172631Y170626D01*
X172971Y170117D01*
Y168710D01*
X172509Y168519D01*
X170366Y170661D01*
X170415Y171159D01*
X170431Y171169D01*
X170869Y171826D01*
X171023Y172600D01*
X170976Y172834D01*
X171029Y173100D01*
Y178381D01*
X171491Y178573D01*
X186378Y163686D01*
D02*
G37*
G36*
X273080Y59461D02*
X273149Y58935D01*
X273341Y58471D01*
X265919Y51048D01*
X265587Y50552D01*
X265471Y49967D01*
Y14833D01*
X264483Y13846D01*
X263983Y14053D01*
Y16476D01*
X263830Y17637D01*
X263383Y18718D01*
X262670Y19647D01*
X261742Y20359D01*
X261029Y20654D01*
Y48118D01*
X272552Y59640D01*
X273080Y59461D01*
D02*
G37*
G36*
X271419Y64853D02*
Y62833D01*
X258419Y49833D01*
X258087Y49336D01*
X257971Y48751D01*
Y20654D01*
X257258Y20359D01*
X256330Y19647D01*
X255617Y18718D01*
X255170Y17637D01*
X255017Y16476D01*
Y13524D01*
X255170Y12363D01*
X255617Y11282D01*
X255927Y10878D01*
X255706Y10429D01*
X251624D01*
X251455Y10929D01*
X251817Y11207D01*
X252337Y11886D01*
X252664Y12676D01*
X252776Y13524D01*
Y14500D01*
X249500D01*
X246224D01*
Y13524D01*
X246336Y12676D01*
X246663Y11886D01*
X247183Y11207D01*
X247545Y10929D01*
X247376Y10429D01*
X243294D01*
X243073Y10878D01*
X243383Y11282D01*
X243830Y12363D01*
X243983Y13524D01*
Y16476D01*
X243830Y17637D01*
X243383Y18718D01*
X242670Y19647D01*
X241742Y20359D01*
X240660Y20807D01*
X239500Y20960D01*
X238340Y20807D01*
X237258Y20359D01*
X236330Y19647D01*
X235617Y18718D01*
X235170Y17637D01*
X235017Y16476D01*
Y13524D01*
X235170Y12363D01*
X235617Y11282D01*
X235928Y10878D01*
X235706Y10429D01*
X228294D01*
X228073Y10878D01*
X228383Y11282D01*
X228831Y12363D01*
X228983Y13524D01*
Y16476D01*
X228831Y17637D01*
X228383Y18718D01*
X227670Y19647D01*
X226742Y20359D01*
X226029Y20654D01*
Y40867D01*
X247484Y62321D01*
X267600D01*
X268185Y62437D01*
X268681Y62769D01*
X270957Y65045D01*
X271419Y64853D01*
D02*
G37*
G36*
X236407Y191309D02*
X235580Y190481D01*
X235248Y189985D01*
X235132Y189400D01*
Y186761D01*
X234632Y186479D01*
X234102Y186584D01*
X234082Y186580D01*
X233680Y187010D01*
X233777Y187500D01*
X233623Y188274D01*
X233185Y188931D01*
X232528Y189369D01*
X231754Y189523D01*
X230980Y189369D01*
X230324Y188931D01*
X229885Y188274D01*
X229731Y187500D01*
X229854Y186882D01*
X229834Y186841D01*
X229539Y186533D01*
X229461Y186489D01*
X228984Y186584D01*
X228529Y186494D01*
X228029Y186811D01*
Y187900D01*
X227913Y188485D01*
X227703Y188799D01*
X227569Y189474D01*
X227131Y190131D01*
X226474Y190569D01*
X226111Y190641D01*
X225947Y191184D01*
X226534Y191771D01*
X236216D01*
X236407Y191309D01*
D02*
G37*
G36*
X247319Y72719D02*
X247815Y72387D01*
X248400Y72271D01*
X267600D01*
X268185Y72387D01*
X268681Y72719D01*
X269359Y73396D01*
X269821Y73205D01*
Y68234D01*
X266967Y65380D01*
X246850D01*
X246265Y65263D01*
X245769Y64932D01*
X226491Y45654D01*
X226029Y45846D01*
Y48766D01*
X242861Y65598D01*
X243193Y66094D01*
X243309Y66680D01*
Y76075D01*
X243771Y76266D01*
X247319Y72719D01*
D02*
G37*
G36*
X194871Y174634D02*
X194051Y173813D01*
X193508Y173978D01*
X193469Y174174D01*
X193199Y174579D01*
Y202488D01*
X194871D01*
Y174634D01*
D02*
G37*
G36*
X178671Y138654D02*
Y108362D01*
X174382D01*
Y106446D01*
X174215Y106413D01*
X173719Y106081D01*
X172429Y104792D01*
X171929Y104999D01*
Y132566D01*
X178209Y138846D01*
X178671Y138654D01*
D02*
G37*
G36*
X274325Y220397D02*
X274181Y220286D01*
X273547Y219460D01*
X273149Y218499D01*
X273013Y217467D01*
X273149Y216435D01*
X273547Y215474D01*
X274181Y214648D01*
X275007Y214014D01*
X275968Y213616D01*
X277000Y213480D01*
X278032Y213616D01*
X278993Y214014D01*
X279222Y214190D01*
X279671Y213969D01*
Y210965D01*
X279222Y210744D01*
X278993Y210920D01*
X278032Y211318D01*
X277000Y211454D01*
X275968Y211318D01*
X275007Y210920D01*
X274181Y210286D01*
X273547Y209460D01*
X273149Y208499D01*
X273013Y207467D01*
X273149Y206435D01*
X273547Y205474D01*
X273774Y205178D01*
X273553Y204729D01*
X272234D01*
X259588Y217374D01*
X259469Y217974D01*
X259031Y218631D01*
X258374Y219069D01*
X257600Y219223D01*
X256826Y219069D01*
X256169Y218631D01*
X255731Y217974D01*
X255577Y217200D01*
X255519Y217129D01*
X246139D01*
X245553Y217013D01*
X245057Y216681D01*
X243771Y215395D01*
X243309Y215587D01*
Y217146D01*
X247034Y220871D01*
X274165D01*
X274325Y220397D01*
D02*
G37*
G36*
X166271Y93253D02*
Y89733D01*
X161566Y85029D01*
X156361D01*
X156332Y85072D01*
X155611Y85554D01*
X154760Y85724D01*
X148067D01*
X147216Y85554D01*
X146494Y85072D01*
X146012Y84351D01*
X145843Y83500D01*
X146012Y82649D01*
X146494Y81928D01*
X147216Y81445D01*
X148067Y81276D01*
X154760D01*
X155611Y81445D01*
X156332Y81928D01*
X156361Y81971D01*
X162200D01*
X162785Y82087D01*
X163281Y82419D01*
X166433Y85570D01*
X166911Y85425D01*
X166931Y85326D01*
X167369Y84669D01*
X167544Y84553D01*
X167593Y84056D01*
X157418Y73881D01*
X156875Y74045D01*
X156814Y74351D01*
X156332Y75072D01*
X155611Y75555D01*
X154760Y75724D01*
X148067D01*
X147216Y75555D01*
X146494Y75072D01*
X146012Y74351D01*
X145843Y73500D01*
X146012Y72649D01*
X146494Y71927D01*
X147216Y71446D01*
X148067Y71276D01*
X154106D01*
X154313Y70776D01*
X145118Y61581D01*
X144618Y61788D01*
Y66862D01*
X143572D01*
Y85909D01*
X145521Y87858D01*
X146000Y87713D01*
X146012Y87649D01*
X146494Y86927D01*
X147216Y86445D01*
X148067Y86276D01*
X154760D01*
X155611Y86445D01*
X156332Y86927D01*
X156361Y86971D01*
X158701D01*
X159287Y87087D01*
X159783Y87419D01*
X165809Y93444D01*
X166271Y93253D01*
D02*
G37*
G36*
X165371Y191153D02*
Y171767D01*
X164909Y171575D01*
X161629Y174855D01*
Y194041D01*
X161593Y194223D01*
X162054Y194469D01*
X165371Y191153D01*
D02*
G37*
G36*
X132382Y60138D02*
X133173D01*
Y39673D01*
X132819Y20591D01*
X132258Y20359D01*
X131429Y19723D01*
X130929Y19877D01*
Y38200D01*
X130813Y38785D01*
X130481Y39281D01*
X124329Y45434D01*
Y59695D01*
X124468Y60138D01*
X129618D01*
Y61716D01*
X132382D01*
Y60138D01*
D02*
G37*
G36*
X233271Y249199D02*
Y227133D01*
X230976Y224838D01*
X230514Y225030D01*
Y247651D01*
X232074Y249212D01*
X232674Y249331D01*
X232830Y249435D01*
X233271Y249199D01*
D02*
G37*
G36*
X216901Y93622D02*
X216877Y93500D01*
X217031Y92726D01*
X217469Y92069D01*
X218126Y91631D01*
X218725Y91512D01*
X224703Y85534D01*
Y80472D01*
X224834Y79813D01*
X225207Y79255D01*
X225766Y78881D01*
X226425Y78750D01*
X227084Y78881D01*
X227313Y79034D01*
X227705Y79225D01*
X228097Y79034D01*
X228325Y78881D01*
X228984Y78750D01*
X229514Y78856D01*
X230014Y78574D01*
Y76277D01*
X218719Y64981D01*
X218387Y64485D01*
X218271Y63900D01*
Y16551D01*
X217771Y16518D01*
X217664Y17324D01*
X217337Y18114D01*
X216816Y18793D01*
X216138Y19313D01*
X215348Y19641D01*
X215000Y19687D01*
Y15000D01*
Y10313D01*
X215348Y10359D01*
X216138Y10687D01*
X216816Y11207D01*
X217337Y11886D01*
X217664Y12676D01*
X217771Y13482D01*
X218271Y13449D01*
Y11300D01*
X218387Y10715D01*
X218719Y10219D01*
X219946Y8991D01*
X219754Y8529D01*
X191029D01*
Y9346D01*
X191742Y9641D01*
X192670Y10353D01*
X193383Y11282D01*
X193831Y12363D01*
X193983Y13524D01*
Y16476D01*
X193831Y17637D01*
X193383Y18718D01*
X192670Y19647D01*
X191742Y20359D01*
X191029Y20654D01*
Y49966D01*
X192281Y51219D01*
X192613Y51715D01*
X192729Y52300D01*
Y70157D01*
X216440Y93868D01*
X216901Y93622D01*
D02*
G37*
G36*
X225766Y176381D02*
X226425Y176250D01*
X227084Y176381D01*
X227096Y176389D01*
X227490Y176226D01*
X227583Y176113D01*
X227903Y175634D01*
X228213Y175324D01*
X228332Y174724D01*
X228771Y174068D01*
X229427Y173629D01*
X230201Y173476D01*
X230976Y173629D01*
X231632Y174068D01*
X232070Y174724D01*
X232073Y174737D01*
X232573Y174688D01*
Y173690D01*
X232689Y173105D01*
X233021Y172609D01*
X233271Y172359D01*
Y165546D01*
X232809Y165354D01*
X225129Y173033D01*
Y176206D01*
X225629Y176473D01*
X225766Y176381D01*
D02*
G37*
G36*
X18238Y185738D02*
X18817Y185352D01*
X19500Y185216D01*
X22528D01*
X22698Y184716D01*
X22181Y184319D01*
X21547Y183493D01*
X21149Y182532D01*
X21013Y181500D01*
X21149Y180468D01*
X21341Y180004D01*
X20000Y178663D01*
X18659Y180004D01*
X18851Y180468D01*
X18987Y181500D01*
X18851Y182532D01*
X18453Y183493D01*
X17819Y184319D01*
X16993Y184953D01*
X16032Y185351D01*
X15000Y185487D01*
X13968Y185351D01*
X13007Y184953D01*
X12833Y184819D01*
X12384Y185040D01*
Y186361D01*
X13571Y187547D01*
X16429D01*
X18238Y185738D01*
D02*
G37*
G36*
X237597Y271260D02*
X233719Y267381D01*
X233387Y266885D01*
X233271Y266300D01*
Y253201D01*
X232830Y252965D01*
X232674Y253069D01*
X231900Y253223D01*
X231126Y253069D01*
X230469Y252631D01*
X230031Y251974D01*
X229912Y251375D01*
X227903Y249366D01*
X227571Y248869D01*
X227455Y248284D01*
Y237622D01*
X226955Y237372D01*
X226784Y237500D01*
Y255952D01*
X227242Y256141D01*
X228170Y256854D01*
X228883Y257782D01*
X229330Y258863D01*
X229483Y260024D01*
Y262976D01*
X229330Y264137D01*
X228883Y265218D01*
X228170Y266146D01*
X227242Y266859D01*
X226160Y267307D01*
X225000Y267460D01*
X223840Y267307D01*
X222758Y266859D01*
X221830Y266146D01*
X221490Y265704D01*
X220991Y265671D01*
X217481Y269181D01*
X216985Y269513D01*
X216400Y269629D01*
X206000D01*
X205415Y269513D01*
X204919Y269181D01*
X203919Y268181D01*
X203587Y267685D01*
X203482Y267159D01*
X202758Y266859D01*
X201830Y266146D01*
X201117Y265218D01*
X200670Y264137D01*
X200517Y262976D01*
Y260024D01*
X200670Y258863D01*
X201117Y257782D01*
X201830Y256854D01*
X202758Y256141D01*
X203840Y255693D01*
X205000Y255540D01*
X206160Y255693D01*
X207242Y256141D01*
X208170Y256854D01*
X208883Y257782D01*
X209331Y258863D01*
X209483Y260024D01*
Y262976D01*
X209331Y264137D01*
X208883Y265218D01*
X208228Y266071D01*
X208359Y266571D01*
X213883D01*
X213983Y266071D01*
X213362Y265813D01*
X212684Y265293D01*
X212163Y264614D01*
X211836Y263824D01*
X211724Y262976D01*
Y262000D01*
X218276D01*
Y262976D01*
X218743Y263257D01*
X218871Y263175D01*
Y213983D01*
X218531Y213474D01*
X218377Y212700D01*
X218531Y211926D01*
X218969Y211269D01*
X219626Y210831D01*
X220400Y210677D01*
X221174Y210831D01*
X221831Y211269D01*
X222269Y211926D01*
X222423Y212700D01*
X222269Y213474D01*
X221929Y213983D01*
Y256212D01*
X222378Y256433D01*
X222758Y256141D01*
X223216Y255952D01*
Y236525D01*
X223352Y235842D01*
X223738Y235263D01*
X224641Y234361D01*
Y208583D01*
Y206184D01*
X221680D01*
X221680Y206184D01*
X220997Y206048D01*
X220419Y205662D01*
X216979Y202222D01*
X216592Y201643D01*
X216456Y200960D01*
Y163468D01*
X216361Y163345D01*
X216157Y163180D01*
X215988Y163104D01*
X215337Y163233D01*
X214524Y163072D01*
X214462Y163030D01*
X214012Y163331D01*
X214013Y163337D01*
X213981Y163500D01*
X211932Y161452D01*
X209884Y159404D01*
X210048Y159372D01*
X210054Y159373D01*
X210355Y158923D01*
X210313Y158860D01*
X210151Y158048D01*
X210313Y157235D01*
X210771Y156550D01*
Y153100D01*
X210887Y152515D01*
X211219Y152019D01*
X215319Y147919D01*
X215815Y147587D01*
X216400Y147471D01*
X216489D01*
X216900Y146971D01*
X216833Y146634D01*
X216729Y146530D01*
X215916Y146368D01*
X215227Y145908D01*
X214767Y145219D01*
X214605Y144407D01*
X214502Y144303D01*
X213689Y144141D01*
X213000Y143681D01*
X212540Y142992D01*
X212468Y142629D01*
X211925Y142465D01*
X205008Y149381D01*
X204512Y149713D01*
X203927Y149829D01*
X201260D01*
X200849Y150329D01*
X200923Y150700D01*
X200769Y151474D01*
X200429Y151983D01*
Y165895D01*
X200595Y166144D01*
X200757Y166956D01*
X200595Y167769D01*
X200135Y168458D01*
X197073Y171520D01*
X196807Y171697D01*
X196758Y172195D01*
X197481Y172919D01*
X197813Y173415D01*
X197929Y174000D01*
Y203685D01*
X199831D01*
Y205850D01*
Y208016D01*
X197929D01*
Y208787D01*
X204087D01*
Y210887D01*
X205848Y211014D01*
X207638D01*
Y209968D01*
X214362D01*
Y215118D01*
X207638D01*
Y214072D01*
X205793D01*
X205739Y214061D01*
X205684Y214068D01*
X204453Y213980D01*
X204087Y214320D01*
Y215512D01*
X196575D01*
Y213536D01*
X196119Y213231D01*
X195319Y212431D01*
X194987Y211935D01*
X194871Y211350D01*
Y209213D01*
X187913D01*
Y207380D01*
X186493D01*
X185908Y207263D01*
X185494Y206986D01*
X184362D01*
Y208032D01*
X177638D01*
Y202882D01*
X184362D01*
Y203928D01*
X186100D01*
X186685Y204044D01*
X187100Y204321D01*
X187913D01*
Y202488D01*
X190140D01*
Y174786D01*
X189731Y174174D01*
X189577Y173400D01*
X189731Y172626D01*
X190088Y172091D01*
X189988Y171677D01*
X189905Y171545D01*
X189526Y171469D01*
X188869Y171031D01*
X188665Y170725D01*
X188168Y170676D01*
X176829Y182015D01*
Y206800D01*
X176713Y207385D01*
X176381Y207881D01*
X172681Y211581D01*
X172185Y211913D01*
X171600Y212029D01*
X170362D01*
Y217118D01*
X163638D01*
Y216327D01*
X162100D01*
X161597Y216227D01*
X160562D01*
Y217018D01*
X158984D01*
Y238000D01*
X158984Y238000D01*
X158849Y238683D01*
X158462Y239262D01*
X156784Y240939D01*
Y255952D01*
X157242Y256141D01*
X158170Y256854D01*
X158883Y257782D01*
X159330Y258863D01*
X159483Y260024D01*
Y262976D01*
X159330Y264137D01*
X158883Y265218D01*
X158170Y266146D01*
X157242Y266859D01*
X156160Y267307D01*
X155000Y267460D01*
X153840Y267307D01*
X152758Y266859D01*
X151830Y266146D01*
X151117Y265218D01*
X150670Y264137D01*
X150517Y262976D01*
Y260024D01*
X150670Y258863D01*
X151117Y257782D01*
X151830Y256854D01*
X152758Y256141D01*
X153216Y255952D01*
Y240200D01*
X153351Y239517D01*
X153738Y238938D01*
X155416Y237261D01*
Y235291D01*
X154916Y235139D01*
X154821Y235281D01*
X141229Y248873D01*
Y259949D01*
X141729Y259982D01*
X141836Y259176D01*
X142163Y258386D01*
X142683Y257707D01*
X143362Y257187D01*
X144152Y256859D01*
X144500Y256813D01*
Y261500D01*
Y266187D01*
X144152Y266141D01*
X143362Y265813D01*
X142683Y265293D01*
X142163Y264614D01*
X141836Y263824D01*
X141729Y263018D01*
X141229Y263051D01*
Y265900D01*
X141113Y266485D01*
X140781Y266981D01*
X139081Y268681D01*
X138585Y269013D01*
X138000Y269129D01*
X60400D01*
X59815Y269013D01*
X59319Y268681D01*
X55519Y264881D01*
X55187Y264385D01*
X55071Y263800D01*
Y216533D01*
X54439Y215902D01*
X53969Y216139D01*
X53851Y217032D01*
X53453Y217993D01*
X52819Y218819D01*
X51993Y219453D01*
X51032Y219851D01*
X50000Y219987D01*
X48968Y219851D01*
X48007Y219453D01*
X47181Y218819D01*
X46547Y217993D01*
X46149Y217032D01*
X46013Y216000D01*
X46149Y214968D01*
X46547Y214007D01*
X47181Y213181D01*
X48007Y212547D01*
X48968Y212149D01*
X49861Y212031D01*
X50098Y211561D01*
X48919Y210381D01*
X48587Y209885D01*
X48545Y209676D01*
X48007Y209453D01*
X47181Y208819D01*
X46547Y207993D01*
X46149Y207032D01*
X46013Y206000D01*
X46149Y204968D01*
X46547Y204007D01*
X47181Y203181D01*
X48007Y202547D01*
X48968Y202149D01*
X50000Y202013D01*
X51032Y202149D01*
X51993Y202547D01*
X52819Y203181D01*
X53453Y204007D01*
X53851Y204968D01*
X53987Y206000D01*
X53851Y207032D01*
X53453Y207993D01*
X52819Y208819D01*
X52477Y209082D01*
X52444Y209581D01*
X57681Y214819D01*
X58013Y215315D01*
X58129Y215900D01*
Y263166D01*
X60776Y265813D01*
X60925Y265788D01*
X61139Y265246D01*
X61117Y265218D01*
X60669Y264137D01*
X60517Y262976D01*
Y260024D01*
X60669Y258863D01*
X61117Y257782D01*
X61830Y256854D01*
X62758Y256141D01*
X63840Y255693D01*
X65000Y255540D01*
X66160Y255693D01*
X67242Y256141D01*
X68170Y256854D01*
X68883Y257782D01*
X69331Y258863D01*
X69483Y260024D01*
Y262976D01*
X69331Y264137D01*
X68883Y265218D01*
X68572Y265622D01*
X68794Y266071D01*
X72876D01*
X73045Y265571D01*
X72684Y265293D01*
X72163Y264614D01*
X71836Y263824D01*
X71724Y262976D01*
Y262000D01*
X78276D01*
Y262976D01*
X78164Y263824D01*
X77837Y264614D01*
X77316Y265293D01*
X76955Y265571D01*
X77124Y266071D01*
X81206D01*
X81428Y265622D01*
X81117Y265218D01*
X80669Y264137D01*
X80517Y262976D01*
Y260024D01*
X80669Y258863D01*
X81117Y257782D01*
X81830Y256854D01*
X82758Y256141D01*
X83216Y255952D01*
Y251000D01*
X83351Y250317D01*
X83738Y249738D01*
X87038Y246438D01*
X87038Y246438D01*
X87617Y246052D01*
X88300Y245916D01*
X103661D01*
X106816Y242761D01*
Y239550D01*
X106400Y239272D01*
X106247Y239335D01*
X105575Y239424D01*
X102425D01*
X101753Y239335D01*
X101127Y239076D01*
X100589Y238663D01*
X100176Y238125D01*
X99917Y237499D01*
X99828Y236827D01*
Y231529D01*
X94600D01*
X94015Y231413D01*
X93519Y231081D01*
X93366Y230929D01*
X87691D01*
X85032Y233588D01*
Y237362D01*
X79882D01*
Y230638D01*
X80928D01*
Y222362D01*
X79882D01*
Y215638D01*
X79882Y215638D01*
X79882D01*
X79577Y215283D01*
X76412Y212118D01*
X72638D01*
Y211072D01*
X71362D01*
Y212118D01*
X64638D01*
Y206968D01*
X71362D01*
Y208014D01*
X72638D01*
Y206968D01*
X79362D01*
Y210742D01*
X83538Y214919D01*
X83870Y215415D01*
X83914Y215638D01*
X85032D01*
X85324Y215259D01*
X85619Y214819D01*
X95019Y205419D01*
X95515Y205087D01*
X96100Y204971D01*
X99240D01*
X99447Y204471D01*
X98138Y203162D01*
X97751Y202583D01*
X97616Y201900D01*
Y188857D01*
X97751Y188174D01*
X98138Y187595D01*
X98382Y187352D01*
Y183138D01*
X99173D01*
Y179862D01*
X98382D01*
Y178284D01*
X91400D01*
X91400Y178284D01*
X90717Y178148D01*
X90172Y177784D01*
X88354D01*
Y179756D01*
X83233D01*
Y197008D01*
X83233Y197008D01*
X83097Y197691D01*
X82711Y198270D01*
X79362Y201618D01*
Y205032D01*
X72638D01*
Y199882D01*
X76052D01*
X79665Y196269D01*
Y179756D01*
X74543D01*
Y172244D01*
X88354D01*
Y174216D01*
X90900D01*
X91583Y174352D01*
X92128Y174716D01*
X98382D01*
Y173138D01*
X99173D01*
Y169862D01*
X98382D01*
Y163138D01*
X103532D01*
Y169862D01*
X102741D01*
Y173138D01*
X103532D01*
Y179862D01*
X102741D01*
Y183138D01*
X103532D01*
Y189862D01*
X101184D01*
Y193744D01*
X101684Y194011D01*
X101888Y193875D01*
X102425Y193768D01*
X103500D01*
Y197909D01*
X104000D01*
Y198409D01*
X106980D01*
Y200646D01*
X106873Y201183D01*
X106718Y201416D01*
X106985Y201916D01*
X118361D01*
X130738Y189538D01*
X130738Y189538D01*
X131317Y189152D01*
X132000Y189016D01*
X135300D01*
X135983Y189152D01*
X136562Y189538D01*
X139262Y192238D01*
X139262Y192238D01*
X139648Y192817D01*
X139784Y193500D01*
X139784Y193500D01*
Y204528D01*
X140284Y204698D01*
X140681Y204181D01*
X141507Y203547D01*
X142468Y203149D01*
X143500Y203013D01*
X144532Y203149D01*
X144996Y203341D01*
X147371Y200967D01*
Y194488D01*
X147487Y193903D01*
X147819Y193406D01*
X155371Y185854D01*
Y164771D01*
X153500D01*
Y162606D01*
X153000D01*
Y162106D01*
X150441D01*
Y160441D01*
X150441Y160441D01*
X150326Y159989D01*
X146319Y155981D01*
X145987Y155485D01*
X145871Y154900D01*
Y154409D01*
X145756Y153956D01*
X145371Y153956D01*
X138244D01*
Y153029D01*
X137782Y152838D01*
X137081Y153538D01*
X136585Y153870D01*
X136000Y153986D01*
X135362D01*
Y155032D01*
X128638D01*
Y149882D01*
X135362D01*
Y150225D01*
X135862Y150432D01*
X136782Y149513D01*
X137278Y149181D01*
X137863Y149065D01*
X138244D01*
Y147232D01*
X145371D01*
X145756Y147232D01*
X145871Y146780D01*
Y124639D01*
X145987Y124054D01*
X146319Y123558D01*
X153691Y116186D01*
X153499Y115724D01*
X148067D01*
X147216Y115554D01*
X146811Y115284D01*
X137539D01*
X104562Y148262D01*
X103983Y148649D01*
X103300Y148784D01*
X95531D01*
Y155087D01*
X94064D01*
X93873Y155548D01*
X96083Y157759D01*
X128638D01*
Y156968D01*
X135362D01*
Y162118D01*
X128638D01*
Y161327D01*
X95344D01*
X94661Y161191D01*
X94082Y160805D01*
X88939Y155662D01*
X88555Y155087D01*
X84870D01*
Y148784D01*
X71200D01*
Y150400D01*
X60400D01*
Y148784D01*
X50300D01*
X49617Y148649D01*
X49038Y148262D01*
X49038Y148262D01*
X47338Y146562D01*
X46951Y145983D01*
X46816Y145300D01*
Y137500D01*
X46951Y136817D01*
X47338Y136238D01*
X49285Y134291D01*
X49094Y133829D01*
X43134D01*
X40529Y136433D01*
Y157500D01*
X40413Y158085D01*
X40081Y158581D01*
X28659Y170004D01*
X28851Y170468D01*
X28987Y171500D01*
X28851Y172532D01*
X28453Y173493D01*
X27819Y174319D01*
X26993Y174953D01*
X26032Y175351D01*
X25000Y175487D01*
X23968Y175351D01*
X23007Y174953D01*
X22878Y174854D01*
X22429Y175075D01*
Y176767D01*
X23504Y177841D01*
X23968Y177649D01*
X25000Y177513D01*
X26032Y177649D01*
X26993Y178047D01*
X27819Y178681D01*
X28453Y179507D01*
X28851Y180468D01*
X28915Y180955D01*
X29443Y181134D01*
X50216Y160361D01*
Y155973D01*
X49130D01*
Y150429D01*
X54870D01*
Y155973D01*
X53784D01*
Y161100D01*
X53649Y161783D01*
X53262Y162362D01*
X27362Y188262D01*
X26783Y188648D01*
X26630Y188679D01*
X26539Y189207D01*
X26965Y189534D01*
X27407Y190110D01*
X27685Y190781D01*
X27714Y191000D01*
X25000D01*
X22286D01*
X22315Y190781D01*
X22593Y190110D01*
X23034Y189534D01*
X23360Y189284D01*
X23191Y188784D01*
X20239D01*
X18953Y190071D01*
Y195453D01*
X11047D01*
Y190071D01*
X9338Y188362D01*
X8952Y187783D01*
X8816Y187100D01*
Y122900D01*
X8952Y122217D01*
X9338Y121638D01*
X11047Y119929D01*
Y114547D01*
X17571D01*
Y113233D01*
X16496Y112159D01*
X16032Y112351D01*
X15000Y112487D01*
X13968Y112351D01*
X13007Y111953D01*
X12181Y111319D01*
X11547Y110493D01*
X11149Y109532D01*
X11013Y108500D01*
X11149Y107468D01*
X11547Y106507D01*
X12181Y105681D01*
X13007Y105047D01*
X13968Y104649D01*
X15000Y104513D01*
X16032Y104649D01*
X16993Y105047D01*
X17819Y105681D01*
X18453Y106507D01*
X18851Y107468D01*
X18987Y108500D01*
X18851Y109532D01*
X18659Y109996D01*
X20000Y111337D01*
X21341Y109996D01*
X21149Y109532D01*
X21013Y108500D01*
X21149Y107468D01*
X21547Y106507D01*
X22181Y105681D01*
X23007Y105047D01*
X23968Y104649D01*
X25000Y104513D01*
X26032Y104649D01*
X26993Y105047D01*
X27819Y105681D01*
X28453Y106507D01*
X28851Y107468D01*
X28987Y108500D01*
X28851Y109532D01*
X28453Y110493D01*
X27819Y111319D01*
X26993Y111953D01*
X26032Y112351D01*
X25000Y112487D01*
X23968Y112351D01*
X23504Y112159D01*
X22429Y113233D01*
Y116502D01*
X22929Y116671D01*
X23034Y116534D01*
X23610Y116093D01*
X24281Y115815D01*
X24500Y115786D01*
Y118500D01*
Y121214D01*
X24281Y121185D01*
X23610Y120907D01*
X23034Y120466D01*
X22929Y120329D01*
X22429Y120498D01*
Y157925D01*
X22878Y158146D01*
X23007Y158047D01*
X23968Y157649D01*
X25000Y157513D01*
X26032Y157649D01*
X26993Y158047D01*
X27819Y158681D01*
X28453Y159507D01*
X28851Y160468D01*
X28987Y161500D01*
X28851Y162532D01*
X28453Y163493D01*
X27819Y164319D01*
X26993Y164953D01*
X26032Y165351D01*
X25000Y165487D01*
X23968Y165351D01*
X23007Y164953D01*
X22878Y164854D01*
X22429Y165075D01*
Y167925D01*
X22878Y168146D01*
X23007Y168047D01*
X23968Y167649D01*
X25000Y167513D01*
X26032Y167649D01*
X26496Y167841D01*
X37471Y156867D01*
Y135800D01*
X37587Y135215D01*
X37919Y134719D01*
X41419Y131219D01*
X41915Y130887D01*
X42500Y130771D01*
X62866D01*
X68071Y125566D01*
Y120559D01*
X63051D01*
Y118000D01*
X62551D01*
Y117500D01*
X56842D01*
Y115629D01*
X40600D01*
X40015Y115513D01*
X39519Y115181D01*
X26496Y102159D01*
X26032Y102351D01*
X25000Y102487D01*
X23968Y102351D01*
X23007Y101953D01*
X22181Y101319D01*
X21547Y100493D01*
X21149Y99532D01*
X21013Y98500D01*
X21149Y97468D01*
X21547Y96507D01*
X22181Y95681D01*
X23007Y95047D01*
X23968Y94649D01*
X25000Y94513D01*
X26032Y94649D01*
X26993Y95047D01*
X27819Y95681D01*
X28453Y96507D01*
X28851Y97468D01*
X28987Y98500D01*
X28851Y99532D01*
X28659Y99996D01*
X41234Y112571D01*
X69600D01*
X69816Y112394D01*
Y104039D01*
X68695Y102919D01*
X68309Y102340D01*
X68173Y101657D01*
Y100764D01*
X67786Y100447D01*
X67600Y100484D01*
X50000D01*
X49317Y100348D01*
X48738Y99962D01*
X44238Y95462D01*
X43852Y94883D01*
X43716Y94200D01*
Y39200D01*
X43852Y38517D01*
X44238Y37938D01*
X61741Y20436D01*
X61708Y19937D01*
X61330Y19647D01*
X60617Y18718D01*
X60170Y17637D01*
X60017Y16476D01*
Y13524D01*
X60170Y12363D01*
X60617Y11282D01*
X61330Y10353D01*
X62258Y9641D01*
X62528Y9529D01*
X62428Y9029D01*
X51572D01*
X51472Y9529D01*
X51742Y9641D01*
X52670Y10353D01*
X53383Y11282D01*
X53830Y12363D01*
X53983Y13524D01*
Y16476D01*
X53830Y17637D01*
X53383Y18718D01*
X52670Y19647D01*
X51742Y20359D01*
X50660Y20807D01*
X49500Y20960D01*
X48340Y20807D01*
X47258Y20359D01*
X46330Y19647D01*
X45617Y18718D01*
X45169Y17637D01*
X45017Y16476D01*
Y13524D01*
X45169Y12363D01*
X45617Y11282D01*
X46330Y10353D01*
X47258Y9641D01*
X47528Y9529D01*
X47428Y9029D01*
X31572D01*
X31472Y9529D01*
X31742Y9641D01*
X32670Y10353D01*
X33383Y11282D01*
X33830Y12363D01*
X33983Y13524D01*
Y16476D01*
X33830Y17637D01*
X33383Y18718D01*
X32670Y19647D01*
X31742Y20359D01*
X30660Y20807D01*
X30256Y20860D01*
X30095Y21334D01*
X31081Y22320D01*
X31413Y22816D01*
X31529Y23402D01*
Y66500D01*
X31413Y67085D01*
X31081Y67581D01*
X15446Y83217D01*
X15446Y83217D01*
X14571Y84092D01*
X14792Y84540D01*
X15000Y84513D01*
X16032Y84649D01*
X16993Y85047D01*
X17819Y85681D01*
X18453Y86507D01*
X18851Y87468D01*
X18987Y88500D01*
X18851Y89532D01*
X18453Y90493D01*
X17819Y91319D01*
X16993Y91953D01*
X16032Y92351D01*
X15000Y92487D01*
X13968Y92351D01*
X13007Y91953D01*
X12927Y91891D01*
X12478Y92112D01*
Y93815D01*
X13504Y94841D01*
X13968Y94649D01*
X15000Y94513D01*
X16032Y94649D01*
X16993Y95047D01*
X17819Y95681D01*
X18453Y96507D01*
X18851Y97468D01*
X18987Y98500D01*
X18851Y99532D01*
X18453Y100493D01*
X17819Y101319D01*
X16993Y101953D01*
X16032Y102351D01*
X15000Y102487D01*
X13968Y102351D01*
X13007Y101953D01*
X12181Y101319D01*
X11547Y100493D01*
X11149Y99532D01*
X11013Y98500D01*
X11149Y97468D01*
X11341Y97004D01*
X9867Y95530D01*
X9536Y95034D01*
X9419Y94449D01*
Y85551D01*
X9536Y84966D01*
X9867Y84470D01*
X13283Y81054D01*
X13283Y81054D01*
X28471Y65867D01*
Y59145D01*
X27971Y59085D01*
X27970Y59089D01*
X27198Y60952D01*
X26144Y62672D01*
X24835Y64205D01*
X23301Y65515D01*
X21582Y66568D01*
X19719Y67340D01*
X17758Y67811D01*
X15748Y67969D01*
X13738Y67811D01*
X11777Y67340D01*
X9914Y66568D01*
X8195Y65515D01*
X6661Y64205D01*
X5352Y62672D01*
X4408Y61132D01*
X3908Y61273D01*
Y195422D01*
Y218255D01*
X4408Y218396D01*
X5352Y216856D01*
X6661Y215323D01*
X8195Y214013D01*
X9914Y212959D01*
X11777Y212188D01*
X13738Y211717D01*
X15748Y211559D01*
X17758Y211717D01*
X19719Y212188D01*
X21582Y212959D01*
X23301Y214013D01*
X24835Y215323D01*
X26144Y216856D01*
X27198Y218575D01*
X27970Y220438D01*
X28440Y222399D01*
X28599Y224409D01*
X28440Y226420D01*
X27970Y228380D01*
X27198Y230243D01*
X26144Y231963D01*
X24835Y233496D01*
X23301Y234806D01*
X21582Y235859D01*
X19719Y236631D01*
X17758Y237102D01*
X15748Y237260D01*
X13738Y237102D01*
X11777Y236631D01*
X9914Y235859D01*
X8195Y234806D01*
X6661Y233496D01*
X5352Y231963D01*
X4408Y230423D01*
X3908Y230564D01*
Y255802D01*
X8699Y260913D01*
X14717Y266931D01*
X19828Y271722D01*
X237406D01*
X237597Y271260D01*
D02*
G37*
G36*
X292971Y68967D02*
Y20654D01*
X292258Y20359D01*
X291330Y19647D01*
X290617Y18718D01*
X290170Y17637D01*
X290017Y16476D01*
Y13524D01*
X290170Y12363D01*
X290617Y11282D01*
X291330Y10353D01*
X292258Y9641D01*
X293120Y9284D01*
X293020Y8784D01*
X277639D01*
X277033Y9391D01*
X277065Y9889D01*
X277670Y10353D01*
X278383Y11282D01*
X278831Y12363D01*
X278983Y13524D01*
Y16476D01*
X278831Y17637D01*
X278383Y18718D01*
X277670Y19647D01*
X276742Y20359D01*
X275660Y20807D01*
X274615Y20944D01*
X274364Y21402D01*
X282281Y29319D01*
X282613Y29815D01*
X282729Y30400D01*
Y68642D01*
X283229Y68741D01*
X283547Y67974D01*
X284181Y67148D01*
X285007Y66514D01*
X285968Y66116D01*
X287000Y65980D01*
X288032Y66116D01*
X288993Y66514D01*
X289819Y67148D01*
X290453Y67974D01*
X290851Y68935D01*
X290987Y69967D01*
X290945Y70285D01*
X291419Y70519D01*
X292971Y68967D01*
D02*
G37*
G36*
X118216Y217240D02*
Y210300D01*
X118351Y209617D01*
X118738Y209038D01*
X119307Y208470D01*
X119060Y208009D01*
X118959Y208029D01*
X96733D01*
X89587Y215176D01*
X89778Y215638D01*
X92118D01*
Y217216D01*
X116800D01*
X117483Y217352D01*
X117716Y217507D01*
X118216Y217240D01*
D02*
G37*
G36*
X247927Y168466D02*
Y158283D01*
X247588Y157774D01*
X247434Y157000D01*
X247588Y156226D01*
X248026Y155569D01*
X248683Y155131D01*
X249340Y155000D01*
X254971Y149644D01*
Y140672D01*
X254509Y140481D01*
X252815Y142174D01*
X252696Y142774D01*
X252257Y143431D01*
X251601Y143869D01*
X251001Y143988D01*
X236263Y158727D01*
X236351Y159345D01*
X236731Y159599D01*
X237169Y160255D01*
X237323Y161029D01*
X237169Y161803D01*
X236731Y162460D01*
X236329Y162728D01*
Y167054D01*
X236791Y167246D01*
X237519Y166519D01*
X238015Y166187D01*
X238600Y166071D01*
X244246D01*
X244831Y166187D01*
X245327Y166519D01*
X247465Y168657D01*
X247927Y168466D01*
D02*
G37*
G36*
X131428Y265622D02*
X131117Y265218D01*
X130669Y264137D01*
X130517Y262976D01*
Y260024D01*
X130669Y258863D01*
X131117Y257782D01*
X131830Y256854D01*
X132758Y256141D01*
X133840Y255693D01*
X135000Y255540D01*
X136160Y255693D01*
X137242Y256141D01*
X137671Y256470D01*
X138171Y256224D01*
Y248239D01*
X138287Y247654D01*
X138619Y247158D01*
X152210Y233566D01*
Y218506D01*
X151748Y218315D01*
X143881Y226181D01*
X143385Y226513D01*
X142800Y226629D01*
X129800D01*
X129215Y226513D01*
X128719Y226181D01*
X122519Y219981D01*
X122284Y219631D01*
X121784Y219782D01*
Y222200D01*
Y255952D01*
X122242Y256141D01*
X123170Y256854D01*
X123883Y257782D01*
X124330Y258863D01*
X124483Y260024D01*
Y262976D01*
X124330Y264137D01*
X123883Y265218D01*
X123573Y265622D01*
X123794Y266071D01*
X131206D01*
X131428Y265622D01*
D02*
G37*
G36*
X378858Y266931D02*
X384876Y260913D01*
X389667Y255802D01*
Y19993D01*
X384876Y14882D01*
X378858Y8864D01*
X373747Y4073D01*
X19828D01*
X14717Y8864D01*
X8699Y14882D01*
X3908Y19993D01*
Y48964D01*
X4408Y49105D01*
X5352Y47565D01*
X6661Y46031D01*
X8195Y44722D01*
X9914Y43668D01*
X11777Y42897D01*
X13738Y42426D01*
X15748Y42268D01*
X17758Y42426D01*
X19719Y42897D01*
X21582Y43668D01*
X23301Y44722D01*
X24835Y46031D01*
X26144Y47565D01*
X27198Y49284D01*
X27970Y51147D01*
X27971Y51151D01*
X28471Y51092D01*
Y24035D01*
X23875Y19440D01*
X23544Y18944D01*
X23427Y18358D01*
Y11642D01*
X23544Y11056D01*
X23875Y10560D01*
X25336Y9099D01*
X24819Y8581D01*
X24487Y8085D01*
X24371Y7500D01*
X24487Y6915D01*
X24819Y6419D01*
X25315Y6087D01*
X25900Y5971D01*
X66200D01*
X66785Y6087D01*
X67281Y6419D01*
X70581Y9719D01*
X70913Y10215D01*
X71029Y10800D01*
Y12108D01*
X71529Y12208D01*
X71663Y11886D01*
X72184Y11207D01*
X72862Y10687D01*
X73652Y10359D01*
X74000Y10313D01*
Y15000D01*
Y19687D01*
X73652Y19641D01*
X72862Y19313D01*
X72184Y18793D01*
X71663Y18114D01*
X71529Y17792D01*
X71029Y17892D01*
Y25567D01*
X78124Y32662D01*
X78456Y33158D01*
X78572Y33743D01*
Y49638D01*
X79618D01*
Y56362D01*
X78572D01*
Y57700D01*
X78456Y58285D01*
X78124Y58781D01*
X77775Y59131D01*
X78054Y59550D01*
X78224Y60402D01*
Y66701D01*
X78054Y67552D01*
X77573Y68273D01*
X76851Y68755D01*
X76000Y68925D01*
X75149Y68755D01*
X74427Y68273D01*
X73945Y67552D01*
X73776Y66701D01*
Y60402D01*
X73945Y59550D01*
X74427Y58829D01*
X74471Y58800D01*
Y58743D01*
X74587Y58158D01*
X74919Y57662D01*
X75514Y57067D01*
Y56362D01*
X74468D01*
Y49638D01*
X75514D01*
Y34376D01*
X68419Y27281D01*
X68087Y26785D01*
X67971Y26200D01*
Y20046D01*
X67471Y19800D01*
X66742Y20359D01*
X66209Y20580D01*
X66149Y20883D01*
X65762Y21462D01*
X65762Y21462D01*
X47284Y39939D01*
Y78047D01*
X48471D01*
Y56200D01*
X48587Y55615D01*
X48919Y55119D01*
X52119Y51919D01*
X52615Y51587D01*
X53200Y51471D01*
X67382D01*
Y49638D01*
X72532D01*
Y56362D01*
X67382D01*
Y54529D01*
X53834D01*
X51529Y56833D01*
Y78047D01*
X53953D01*
Y85231D01*
X54415Y85422D01*
X56171Y83666D01*
Y82300D01*
X56287Y81715D01*
X56619Y81219D01*
X69149Y68688D01*
X69428Y68273D01*
X68945Y67552D01*
X68776Y66701D01*
Y60402D01*
X68945Y59550D01*
X69428Y58829D01*
X70149Y58347D01*
X71000Y58178D01*
X71851Y58347D01*
X72572Y58829D01*
X73054Y59550D01*
X73224Y60402D01*
Y66701D01*
X73054Y67552D01*
X72572Y68273D01*
X72529Y68302D01*
Y69000D01*
X72413Y69585D01*
X72081Y70081D01*
X67192Y74971D01*
X67399Y75471D01*
X72400D01*
X72985Y75587D01*
X73481Y75919D01*
X74581Y77019D01*
X74913Y77515D01*
X75029Y78100D01*
Y78163D01*
X75500Y78414D01*
Y82449D01*
Y86483D01*
X75029Y86735D01*
Y97066D01*
X84934Y106971D01*
X98154D01*
X98346Y106509D01*
X79919Y88081D01*
X79587Y87585D01*
X79516Y87230D01*
X79427Y87171D01*
X78945Y86449D01*
X78776Y85598D01*
Y79299D01*
X78945Y78448D01*
X79427Y77727D01*
X80149Y77245D01*
X81000Y77075D01*
X81851Y77245D01*
X82573Y77727D01*
X83055Y78448D01*
X83224Y79299D01*
Y85598D01*
X83055Y86449D01*
X82877Y86715D01*
X100634Y104471D01*
X109710D01*
X110110Y103971D01*
X110016Y103500D01*
X110186Y102649D01*
X110668Y101927D01*
X111389Y101445D01*
X112240Y101276D01*
X118933D01*
X119784Y101445D01*
X120505Y101927D01*
X120988Y102649D01*
X121157Y103500D01*
X120988Y104351D01*
X120926Y104444D01*
X120985Y104587D01*
X121481Y104919D01*
X122381Y105819D01*
X122713Y106315D01*
X122829Y106900D01*
Y112600D01*
X122713Y113185D01*
X122381Y113681D01*
X121481Y114581D01*
X120985Y114913D01*
X120555Y114999D01*
X120505Y115073D01*
X119784Y115554D01*
X118933Y115724D01*
X112240D01*
X111389Y115554D01*
X110668Y115073D01*
X110186Y114351D01*
X110016Y113500D01*
X110186Y112649D01*
X110668Y111927D01*
X111389Y111445D01*
X112240Y111276D01*
X118933D01*
X118936Y111277D01*
X119273Y111000D01*
X118936Y110723D01*
X118933Y110724D01*
X112240D01*
X111389Y110555D01*
X110668Y110073D01*
X110639Y110029D01*
X84300D01*
X83715Y109913D01*
X83219Y109581D01*
X72419Y98781D01*
X72241Y98516D01*
X71741Y98668D01*
Y100918D01*
X72862Y102038D01*
X72862Y102038D01*
X73248Y102617D01*
X73384Y103300D01*
Y129300D01*
X73384Y129300D01*
X73248Y129983D01*
X72862Y130562D01*
X72862Y130562D01*
X69385Y134038D01*
X69577Y134500D01*
X71200D01*
Y136116D01*
X75410D01*
X79665Y131861D01*
Y121756D01*
X74543D01*
Y114244D01*
X88354D01*
Y121756D01*
X83233D01*
Y132600D01*
X83097Y133283D01*
X82711Y133862D01*
X77411Y139162D01*
X76832Y139549D01*
X76149Y139684D01*
X71200D01*
Y141300D01*
X60400D01*
Y140976D01*
X59938Y140784D01*
X58662Y142061D01*
X58083Y142447D01*
X57400Y142583D01*
X54870D01*
Y143570D01*
X50384D01*
Y144561D01*
X51039Y145216D01*
X60400D01*
Y143600D01*
X71200D01*
Y145216D01*
X84870D01*
Y138914D01*
X95531D01*
Y145216D01*
X102561D01*
X135538Y112238D01*
X135538Y112238D01*
X136117Y111852D01*
X136800Y111716D01*
X142099D01*
X142291Y111254D01*
X140819Y109781D01*
X140487Y109285D01*
X140371Y108700D01*
Y96800D01*
X140487Y96215D01*
X140819Y95719D01*
X144119Y92419D01*
X144615Y92087D01*
X144700Y92070D01*
X144719Y92043D01*
X144865Y91527D01*
X140962Y87624D01*
X140630Y87128D01*
X140514Y86543D01*
Y82331D01*
X140014Y82282D01*
X140013Y82285D01*
X139681Y82781D01*
X137881Y84581D01*
X137385Y84913D01*
X136800Y85029D01*
X120534D01*
X120505Y85072D01*
X119784Y85554D01*
X118933Y85724D01*
X112240D01*
X111389Y85554D01*
X110668Y85072D01*
X110186Y84351D01*
X110016Y83500D01*
X110186Y82649D01*
X110668Y81928D01*
X111389Y81445D01*
X112240Y81276D01*
X118933D01*
X119784Y81445D01*
X120505Y81928D01*
X120534Y81971D01*
X136167D01*
X137071Y81067D01*
Y66862D01*
X132382D01*
Y65284D01*
X129618D01*
Y66862D01*
X124468D01*
X124329Y67305D01*
Y76500D01*
X124213Y77085D01*
X123881Y77581D01*
X121881Y79581D01*
X121385Y79913D01*
X120800Y80029D01*
X120534D01*
X120505Y80072D01*
X119784Y80554D01*
X118933Y80724D01*
X112240D01*
X111389Y80554D01*
X110668Y80072D01*
X110186Y79351D01*
X110016Y78500D01*
X110186Y77649D01*
X110668Y76928D01*
X111389Y76446D01*
X112240Y76276D01*
X118933D01*
X119784Y76446D01*
X120328Y76809D01*
X121271Y75867D01*
Y65665D01*
X120457D01*
Y63500D01*
Y61335D01*
X121271D01*
Y44800D01*
X121387Y44215D01*
X121719Y43719D01*
X127871Y37567D01*
Y11000D01*
X127987Y10415D01*
X128319Y9919D01*
X130419Y7819D01*
X130915Y7487D01*
X131500Y7371D01*
X137000D01*
X137585Y7487D01*
X138081Y7819D01*
X140181Y9919D01*
X140513Y10415D01*
X140629Y11000D01*
Y18367D01*
X185124Y62862D01*
X185456Y63358D01*
X185572Y63943D01*
Y71638D01*
X186618D01*
Y78362D01*
X185572D01*
Y80100D01*
X185456Y80685D01*
X185179Y81100D01*
Y81913D01*
X187012D01*
Y89425D01*
X180287D01*
Y81913D01*
X182120D01*
Y80493D01*
X182237Y79908D01*
X182514Y79494D01*
Y78362D01*
X181468D01*
Y71638D01*
X182514D01*
Y64577D01*
X138019Y20081D01*
X137983Y20028D01*
X137312Y19922D01*
X137311Y19922D01*
X136742Y20359D01*
X136387Y20506D01*
X136741Y39624D01*
X136738Y39641D01*
X136741Y39657D01*
Y60138D01*
X137372D01*
X137519Y59919D01*
X138619Y58819D01*
X139115Y58487D01*
X139700Y58371D01*
X145600D01*
X146185Y58487D01*
X146681Y58819D01*
X174181Y86319D01*
X174513Y86815D01*
X174629Y87400D01*
Y90575D01*
X180713D01*
Y98087D01*
X178880D01*
Y99400D01*
X178763Y99985D01*
X178486Y100400D01*
Y101638D01*
X179116D01*
X179426Y101431D01*
X180200Y101277D01*
X180974Y101431D01*
X181631Y101869D01*
X182069Y102526D01*
X182165Y103007D01*
X182665Y102958D01*
Y102835D01*
X183543D01*
Y104500D01*
X182665D01*
Y103642D01*
X182165Y103593D01*
X182069Y104074D01*
X181729Y104583D01*
Y138702D01*
X182258Y139231D01*
X183021Y139383D01*
X183084Y139424D01*
X183534Y139124D01*
X183533Y139117D01*
X183565Y138954D01*
X185614Y141002D01*
X187662Y143050D01*
X187498Y143083D01*
X187492Y143081D01*
X187191Y143531D01*
X187233Y143594D01*
X187394Y144407D01*
X187233Y145219D01*
X186773Y145908D01*
X186230Y146271D01*
X186382Y146771D01*
X203293D01*
X209762Y140302D01*
X209598Y139759D01*
X209235Y139687D01*
X208546Y139227D01*
X208086Y138538D01*
X207924Y137725D01*
X207821Y137622D01*
X207384Y137535D01*
X207197Y137648D01*
X206929Y137954D01*
Y139217D01*
X207269Y139726D01*
X207423Y140500D01*
X207269Y141274D01*
X206831Y141931D01*
X206174Y142369D01*
X205400Y142523D01*
X204626Y142369D01*
X203969Y141931D01*
X203531Y141274D01*
X203377Y140500D01*
X203531Y139726D01*
X203871Y139217D01*
Y138444D01*
X200777Y135350D01*
X200316Y135596D01*
X200329Y135665D01*
Y142017D01*
X200669Y142526D01*
X200823Y143300D01*
X200669Y144074D01*
X200231Y144731D01*
X199574Y145169D01*
X198800Y145323D01*
X198026Y145169D01*
X197369Y144731D01*
X196931Y144074D01*
X196777Y143300D01*
X196931Y142526D01*
X197271Y142017D01*
Y136298D01*
X196756Y135784D01*
X196213Y135948D01*
X196184Y136095D01*
Y139417D01*
X196184Y139417D01*
X196048Y140099D01*
X195662Y140678D01*
X193056Y143283D01*
X192478Y143670D01*
X191795Y143806D01*
X191112Y143670D01*
X190533Y143283D01*
X190533Y143283D01*
X189226Y141977D01*
X188913Y141914D01*
X188850Y141872D01*
X188400Y142173D01*
X188401Y142180D01*
X188369Y142343D01*
X186321Y140295D01*
X184272Y138247D01*
X184436Y138214D01*
X184442Y138215D01*
X184743Y137765D01*
X184701Y137703D01*
X184539Y136890D01*
X184701Y136077D01*
X185161Y135389D01*
X185850Y134928D01*
X186663Y134767D01*
X187476Y134928D01*
X187538Y134970D01*
X187988Y134669D01*
X187987Y134663D01*
X188020Y134500D01*
X190068Y136548D01*
X190775Y135841D01*
X188727Y133792D01*
X188890Y133760D01*
X188897Y133761D01*
X189197Y133311D01*
X189155Y133248D01*
X188994Y132436D01*
X189148Y131661D01*
X189116Y131500D01*
Y116700D01*
X189251Y116017D01*
X189638Y115438D01*
X192216Y112861D01*
Y107165D01*
X191457D01*
Y105000D01*
Y102835D01*
X192216D01*
Y102300D01*
X192351Y101617D01*
X192738Y101038D01*
X195938Y97838D01*
X195938Y97838D01*
X196517Y97452D01*
X197200Y97316D01*
X214855D01*
X215062Y96816D01*
X190119Y71872D01*
X189787Y71376D01*
X189671Y70791D01*
Y52934D01*
X188419Y51681D01*
X188087Y51185D01*
X187971Y50600D01*
Y20654D01*
X187258Y20359D01*
X186330Y19647D01*
X185617Y18718D01*
X185169Y17637D01*
X185017Y16476D01*
Y13524D01*
X185169Y12363D01*
X185617Y11282D01*
X186330Y10353D01*
X187258Y9641D01*
X187971Y9346D01*
Y7800D01*
X188087Y7215D01*
X188419Y6719D01*
X189219Y5919D01*
X189715Y5587D01*
X190300Y5471D01*
X265500D01*
X266085Y5587D01*
X266581Y5919D01*
X270281Y9619D01*
X270613Y10115D01*
X270669Y10394D01*
X271203Y10519D01*
X271330Y10353D01*
X272258Y9641D01*
X272716Y9452D01*
Y9400D01*
X272851Y8717D01*
X273238Y8138D01*
X275638Y5738D01*
X275638Y5738D01*
X276217Y5351D01*
X276900Y5216D01*
X307200D01*
X307883Y5351D01*
X308462Y5738D01*
X310762Y8038D01*
X311149Y8617D01*
X311284Y9300D01*
Y9452D01*
X311742Y9641D01*
X312670Y10353D01*
X313383Y11282D01*
X313830Y12363D01*
X313983Y13524D01*
Y16476D01*
X313830Y17637D01*
X313383Y18718D01*
X312670Y19647D01*
X311742Y20359D01*
X310660Y20807D01*
X309500Y20960D01*
X308340Y20807D01*
X307258Y20359D01*
X306330Y19647D01*
X305617Y18718D01*
X305170Y17637D01*
X305017Y16476D01*
Y13524D01*
X305170Y12363D01*
X305617Y11282D01*
X306330Y10353D01*
X306892Y9922D01*
X306935Y9259D01*
X306461Y8784D01*
X295980D01*
X295880Y9284D01*
X296742Y9641D01*
X297670Y10353D01*
X298383Y11282D01*
X298831Y12363D01*
X298983Y13524D01*
Y16476D01*
X298831Y17637D01*
X298383Y18718D01*
X297670Y19647D01*
X296742Y20359D01*
X296029Y20654D01*
Y69600D01*
X295913Y70185D01*
X295581Y70681D01*
X289689Y76574D01*
X289721Y77073D01*
X289819Y77148D01*
X290453Y77974D01*
X290851Y78935D01*
X290987Y79967D01*
X290851Y80999D01*
X290453Y81960D01*
X289819Y82786D01*
X288993Y83420D01*
X288032Y83818D01*
X287000Y83954D01*
X285968Y83818D01*
X285007Y83420D01*
X284778Y83244D01*
X284329Y83465D01*
Y86469D01*
X284778Y86690D01*
X285007Y86514D01*
X285968Y86116D01*
X287000Y85980D01*
X288032Y86116D01*
X288993Y86514D01*
X289819Y87148D01*
X290453Y87974D01*
X290645Y88438D01*
X299633D01*
X300218Y88554D01*
X300714Y88886D01*
X311381Y99553D01*
X311416Y99604D01*
X311916Y99452D01*
Y77183D01*
X312052Y76500D01*
X312438Y75921D01*
X313538Y74821D01*
X313538Y74821D01*
X314117Y74434D01*
X314420Y74374D01*
X314641Y73841D01*
X315353Y72913D01*
X316282Y72200D01*
X317363Y71752D01*
X318524Y71599D01*
X321476D01*
X322637Y71752D01*
X323718Y72200D01*
X324067Y72468D01*
X324516Y72247D01*
Y64918D01*
X324067Y64697D01*
X323718Y64965D01*
X322637Y65413D01*
X321476Y65566D01*
X318524D01*
X317363Y65413D01*
X316282Y64965D01*
X315353Y64253D01*
X314641Y63324D01*
X314193Y62243D01*
X314040Y61083D01*
X314193Y59922D01*
X314641Y58841D01*
X315353Y57912D01*
X316282Y57200D01*
X317363Y56752D01*
X318524Y56599D01*
X321476D01*
X322637Y56752D01*
X323718Y57200D01*
X324067Y57468D01*
X324516Y57247D01*
Y53278D01*
X324016Y53109D01*
X323793Y53399D01*
X323114Y53920D01*
X322324Y54247D01*
X321476Y54359D01*
X320500D01*
Y51083D01*
Y47807D01*
X321476D01*
X322324Y47918D01*
X323114Y48245D01*
X323793Y48766D01*
X324016Y49057D01*
X324516Y48887D01*
Y44918D01*
X324067Y44697D01*
X323718Y44965D01*
X322637Y45413D01*
X321476Y45566D01*
X318524D01*
X317363Y45413D01*
X316282Y44965D01*
X315353Y44253D01*
X314641Y43324D01*
X314193Y42243D01*
X314040Y41083D01*
X314193Y39922D01*
X314641Y38841D01*
X315353Y37912D01*
X316282Y37200D01*
X317363Y36752D01*
X318524Y36599D01*
X321476D01*
X322637Y36752D01*
X323718Y37200D01*
X324646Y37912D01*
X325359Y38841D01*
X325548Y39298D01*
X340461D01*
X342716Y37043D01*
Y20548D01*
X342258Y20359D01*
X341330Y19647D01*
X340617Y18718D01*
X340170Y17637D01*
X340017Y16476D01*
Y13524D01*
X340170Y12363D01*
X340617Y11282D01*
X341330Y10353D01*
X342258Y9641D01*
X343340Y9193D01*
X344500Y9040D01*
X345660Y9193D01*
X346742Y9641D01*
X347670Y10353D01*
X348383Y11282D01*
X348831Y12363D01*
X348983Y13524D01*
Y16476D01*
X348831Y17637D01*
X348383Y18718D01*
X347670Y19647D01*
X346742Y20359D01*
X346284Y20548D01*
Y37783D01*
X346148Y38465D01*
X345762Y39044D01*
X345762Y39044D01*
X342462Y42344D01*
X341883Y42731D01*
X341200Y42867D01*
X328084D01*
Y75000D01*
X328084Y75000D01*
X327948Y75683D01*
X327562Y76262D01*
X327562Y76262D01*
X326479Y77344D01*
X325900Y77731D01*
X325578Y77795D01*
X325359Y78324D01*
X324646Y79253D01*
X323718Y79965D01*
X322637Y80413D01*
X321476Y80566D01*
X318524D01*
X317363Y80413D01*
X316282Y79965D01*
X315933Y79697D01*
X315484Y79918D01*
Y83887D01*
X315984Y84057D01*
X316207Y83766D01*
X316886Y83245D01*
X317676Y82918D01*
X318524Y82806D01*
X319500D01*
Y86083D01*
Y89359D01*
X318524D01*
X317676Y89247D01*
X316886Y88920D01*
X316207Y88399D01*
X315984Y88109D01*
X315484Y88279D01*
Y92247D01*
X315933Y92468D01*
X316282Y92200D01*
X317363Y91752D01*
X318524Y91599D01*
X321476D01*
X322637Y91752D01*
X323718Y92200D01*
X324646Y92913D01*
X325359Y93841D01*
X325807Y94922D01*
X325960Y96083D01*
X325807Y97243D01*
X325359Y98324D01*
X324646Y99253D01*
X323718Y99965D01*
X322637Y100413D01*
X321476Y100566D01*
X318524D01*
X317363Y100413D01*
X316282Y99965D01*
X316251Y99941D01*
X315718Y100162D01*
X315691Y100368D01*
X319762Y104438D01*
X319762Y104438D01*
X320148Y105017D01*
X320284Y105700D01*
X320284Y105700D01*
Y106599D01*
X321476D01*
X322637Y106752D01*
X323718Y107200D01*
X324646Y107913D01*
X325359Y108841D01*
X325807Y109922D01*
X325960Y111083D01*
X325807Y112243D01*
X325359Y113324D01*
X324646Y114253D01*
X323718Y114965D01*
X322637Y115413D01*
X321476Y115566D01*
X318524D01*
X317363Y115413D01*
X316282Y114965D01*
X315353Y114253D01*
X314641Y113324D01*
X314193Y112243D01*
X314040Y111083D01*
X314193Y109922D01*
X314641Y108841D01*
X315353Y107913D01*
X316282Y107200D01*
X316716Y107020D01*
Y106439D01*
X312438Y102162D01*
X312329Y101999D01*
X311829Y102150D01*
Y129553D01*
X314346D01*
X314641Y128841D01*
X315353Y127912D01*
X316282Y127200D01*
X317363Y126752D01*
X318524Y126599D01*
X321476D01*
X322637Y126752D01*
X323718Y127200D01*
X324646Y127912D01*
X325359Y128841D01*
X325807Y129922D01*
X325960Y131083D01*
X325807Y132243D01*
X325359Y133324D01*
X324646Y134253D01*
X323718Y134965D01*
X322637Y135413D01*
X321476Y135566D01*
X318524D01*
X317363Y135413D01*
X316282Y134965D01*
X315353Y134253D01*
X314641Y133324D01*
X314346Y132612D01*
X311183D01*
X310597Y132496D01*
X310101Y132164D01*
X309219Y131281D01*
X308929Y130849D01*
X308683Y130851D01*
X308429Y130932D01*
Y160766D01*
X312216Y164553D01*
X314346D01*
X314641Y163841D01*
X315353Y162912D01*
X316282Y162200D01*
X317363Y161752D01*
X318524Y161599D01*
X321476D01*
X322637Y161752D01*
X323718Y162200D01*
X324646Y162912D01*
X325359Y163841D01*
X325807Y164922D01*
X325960Y166083D01*
X325807Y167243D01*
X325359Y168324D01*
X324646Y169253D01*
X323718Y169965D01*
X322637Y170413D01*
X321476Y170566D01*
X318524D01*
X317363Y170413D01*
X316282Y169965D01*
X315353Y169253D01*
X314641Y168324D01*
X314346Y167612D01*
X311583D01*
X310997Y167496D01*
X310501Y167164D01*
X305819Y162481D01*
X305487Y161985D01*
X305371Y161400D01*
Y106534D01*
X300333Y101496D01*
X290645D01*
X290453Y101960D01*
X289819Y102786D01*
X288993Y103420D01*
X288032Y103818D01*
X287000Y103954D01*
X285968Y103818D01*
X285007Y103420D01*
X284778Y103244D01*
X284329Y103465D01*
Y106469D01*
X284778Y106690D01*
X285007Y106514D01*
X285968Y106116D01*
X287000Y105980D01*
X288032Y106116D01*
X288993Y106514D01*
X289819Y107148D01*
X290453Y107974D01*
X290851Y108935D01*
X290987Y109967D01*
X290851Y110999D01*
X290659Y111463D01*
X301481Y122286D01*
X301813Y122782D01*
X301929Y123367D01*
Y186649D01*
X314154Y198874D01*
X314722Y198735D01*
X315353Y197913D01*
X316282Y197200D01*
X317363Y196752D01*
X318524Y196599D01*
X321476D01*
X322637Y196752D01*
X323718Y197200D01*
X324646Y197913D01*
X325359Y198841D01*
X325807Y199922D01*
X325960Y201083D01*
X325807Y202243D01*
X325359Y203324D01*
X324646Y204253D01*
X323718Y204965D01*
X322637Y205413D01*
X321476Y205566D01*
X318524D01*
X317363Y205413D01*
X316282Y204965D01*
X315353Y204253D01*
X314641Y203324D01*
X314346Y202612D01*
X314200D01*
X313615Y202496D01*
X313119Y202164D01*
X299319Y188364D01*
X298987Y187868D01*
X298871Y187283D01*
Y124001D01*
X288496Y113626D01*
X288032Y113818D01*
X287000Y113954D01*
X285968Y113818D01*
X285007Y113420D01*
X284778Y113244D01*
X284329Y113465D01*
Y114167D01*
X284213Y114752D01*
X283881Y115248D01*
X280659Y118471D01*
X280851Y118935D01*
X280987Y119967D01*
X280851Y120999D01*
X280453Y121960D01*
X279819Y122786D01*
X278993Y123420D01*
X278032Y123818D01*
X277000Y123954D01*
X275968Y123818D01*
X275007Y123420D01*
X274181Y122786D01*
X273547Y121960D01*
X273318Y121407D01*
X273182Y121380D01*
X272686Y121048D01*
X267019Y115381D01*
X266687Y114885D01*
X266571Y114300D01*
Y84613D01*
X260487Y78529D01*
X253048D01*
X252896Y79029D01*
X253233Y79255D01*
X253607Y79813D01*
X253661Y80086D01*
X254075Y80127D01*
Y83917D01*
Y87708D01*
X253661Y87749D01*
X253607Y88021D01*
X253545Y88113D01*
Y90394D01*
X256063Y92911D01*
X256632Y92774D01*
X256969Y92269D01*
X257626Y91831D01*
X258400Y91677D01*
X259174Y91831D01*
X259831Y92269D01*
X260269Y92926D01*
X260423Y93700D01*
X260269Y94474D01*
X259929Y94983D01*
Y97411D01*
Y155300D01*
X259813Y155885D01*
X259481Y156381D01*
X253545Y162318D01*
Y177221D01*
X253607Y177313D01*
X253661Y177586D01*
X254075Y177627D01*
Y181417D01*
Y185208D01*
X253661Y185249D01*
X253607Y185521D01*
X253233Y186080D01*
X252675Y186453D01*
X252016Y186584D01*
X251357Y186453D01*
X251128Y186301D01*
X250736Y186110D01*
X250344Y186301D01*
X250116Y186453D01*
X249457Y186584D01*
X248798Y186453D01*
X248239Y186080D01*
X248115D01*
X247557Y186453D01*
X246898Y186584D01*
X246239Y186453D01*
X245680Y186080D01*
X245556D01*
X244998Y186453D01*
X244339Y186584D01*
X243809Y186479D01*
X243309Y186761D01*
Y187320D01*
X243193Y187906D01*
X242861Y188402D01*
X242688Y188575D01*
X242647Y188784D01*
X242964Y189171D01*
X264767D01*
X267552Y186386D01*
X268048Y186054D01*
X268633Y185938D01*
X273355D01*
X273547Y185474D01*
X274160Y184676D01*
X274181Y184648D01*
X274166Y184029D01*
X271819Y181681D01*
X271487Y181185D01*
X271371Y180600D01*
Y134067D01*
X271487Y133482D01*
X271819Y132986D01*
X273047Y131757D01*
Y126014D01*
X280953D01*
Y133920D01*
X275210D01*
X274429Y134701D01*
Y153892D01*
X274878Y154113D01*
X275007Y154014D01*
X275968Y153616D01*
X277000Y153480D01*
X278032Y153616D01*
X278993Y154014D01*
X279819Y154648D01*
X280453Y155474D01*
X280851Y156435D01*
X280987Y157467D01*
X280851Y158499D01*
X280453Y159460D01*
X279819Y160286D01*
X278993Y160920D01*
X278032Y161318D01*
X277000Y161454D01*
X275968Y161318D01*
X275007Y160920D01*
X274878Y160821D01*
X274429Y161042D01*
Y163892D01*
X274878Y164113D01*
X275007Y164014D01*
X275968Y163616D01*
X277000Y163480D01*
X278032Y163616D01*
X278993Y164014D01*
X279819Y164648D01*
X280453Y165474D01*
X280851Y166435D01*
X280987Y167467D01*
X280851Y168499D01*
X280453Y169460D01*
X279819Y170286D01*
X278993Y170920D01*
X278032Y171318D01*
X277000Y171454D01*
X275968Y171318D01*
X275007Y170920D01*
X274878Y170821D01*
X274429Y171042D01*
Y173892D01*
X274878Y174113D01*
X275007Y174014D01*
X275968Y173616D01*
X277000Y173480D01*
X278032Y173616D01*
X278993Y174014D01*
X279819Y174648D01*
X280453Y175474D01*
X280771Y176241D01*
X281271Y176142D01*
Y171667D01*
X281387Y171082D01*
X281719Y170586D01*
X283341Y168963D01*
X283149Y168499D01*
X283013Y167467D01*
X283149Y166435D01*
X283547Y165474D01*
X284181Y164648D01*
X285007Y164014D01*
X285968Y163616D01*
X287000Y163480D01*
X288032Y163616D01*
X288993Y164014D01*
X289819Y164648D01*
X290453Y165474D01*
X290851Y166435D01*
X290987Y167467D01*
X290851Y168499D01*
X290659Y168963D01*
X292309Y170613D01*
X292771Y170421D01*
Y127901D01*
X288496Y123626D01*
X288032Y123818D01*
X287000Y123954D01*
X285968Y123818D01*
X285007Y123420D01*
X284181Y122786D01*
X283547Y121960D01*
X283149Y120999D01*
X283013Y119967D01*
X283149Y118935D01*
X283547Y117974D01*
X284181Y117148D01*
X285007Y116514D01*
X285968Y116116D01*
X287000Y115980D01*
X288032Y116116D01*
X288993Y116514D01*
X289819Y117148D01*
X290453Y117974D01*
X290851Y118935D01*
X290987Y119967D01*
X290851Y120999D01*
X290659Y121463D01*
X295381Y126186D01*
X295713Y126682D01*
X295829Y127267D01*
Y214832D01*
X314459Y233461D01*
X314958Y233428D01*
X315353Y232912D01*
X316282Y232200D01*
X317363Y231752D01*
X318524Y231599D01*
X321476D01*
X322637Y231752D01*
X323718Y232200D01*
X324646Y232912D01*
X325359Y233841D01*
X325807Y234922D01*
X325960Y236083D01*
X325807Y237243D01*
X325359Y238324D01*
X325016Y238771D01*
X325263Y239271D01*
X332066D01*
X333871Y237467D01*
Y55500D01*
X333987Y54915D01*
X334319Y54419D01*
X362971Y25767D01*
Y20654D01*
X362258Y20359D01*
X361330Y19647D01*
X360617Y18718D01*
X360170Y17637D01*
X360017Y16476D01*
Y13524D01*
X360170Y12363D01*
X360617Y11282D01*
X361330Y10353D01*
X362258Y9641D01*
X363340Y9193D01*
X364500Y9040D01*
X365660Y9193D01*
X366742Y9641D01*
X367670Y10353D01*
X368383Y11282D01*
X368830Y12363D01*
X368983Y13524D01*
Y16476D01*
X368830Y17637D01*
X368383Y18718D01*
X367670Y19647D01*
X366742Y20359D01*
X366029Y20654D01*
Y26400D01*
X365913Y26985D01*
X365581Y27481D01*
X336929Y56134D01*
Y238100D01*
X336813Y238685D01*
X336481Y239181D01*
X333781Y241881D01*
X333285Y242213D01*
X332700Y242329D01*
X315700D01*
X315115Y242213D01*
X314619Y241881D01*
X291568Y218831D01*
X291358Y218517D01*
X290895Y218571D01*
X290736Y219040D01*
X322766Y251071D01*
X341200D01*
X341785Y251187D01*
X342281Y251519D01*
X346081Y255319D01*
X346397Y255791D01*
X347242Y256141D01*
X348170Y256854D01*
X348883Y257782D01*
X349330Y258863D01*
X349483Y260024D01*
Y262976D01*
X349330Y264137D01*
X348883Y265218D01*
X348170Y266146D01*
X347242Y266859D01*
X346160Y267307D01*
X345000Y267460D01*
X343840Y267307D01*
X342758Y266859D01*
X341830Y266146D01*
X341117Y265218D01*
X340669Y264137D01*
X340517Y262976D01*
Y260024D01*
X340669Y258863D01*
X341117Y257782D01*
X341830Y256854D01*
X342356Y256450D01*
X342388Y255951D01*
X340566Y254129D01*
X322133D01*
X321548Y254013D01*
X321052Y253681D01*
X288893Y221522D01*
X288339Y221676D01*
X288081Y222062D01*
X287148Y222995D01*
X287327Y223523D01*
X288032Y223616D01*
X288993Y224014D01*
X289819Y224648D01*
X290453Y225474D01*
X290851Y226435D01*
X290987Y227467D01*
X290851Y228499D01*
X290659Y228963D01*
X311081Y249386D01*
X311413Y249882D01*
X311529Y250467D01*
Y255846D01*
X312242Y256141D01*
X313170Y256854D01*
X313883Y257782D01*
X314331Y258863D01*
X314483Y260024D01*
Y262976D01*
X314331Y264137D01*
X313883Y265218D01*
X313170Y266146D01*
X312242Y266859D01*
X311160Y267307D01*
X310000Y267460D01*
X308840Y267307D01*
X307758Y266859D01*
X306830Y266146D01*
X306117Y265218D01*
X305669Y264137D01*
X305517Y262976D01*
Y260024D01*
X305669Y258863D01*
X306117Y257782D01*
X306830Y256854D01*
X307758Y256141D01*
X308471Y255846D01*
Y251100D01*
X288496Y231126D01*
X288032Y231318D01*
X287000Y231454D01*
X285968Y231318D01*
X285007Y230920D01*
X284778Y230744D01*
X284329Y230965D01*
Y235566D01*
X290781Y242019D01*
X291113Y242515D01*
X291229Y243100D01*
Y256858D01*
X291703Y257019D01*
X291830Y256854D01*
X292758Y256141D01*
X293840Y255693D01*
X295000Y255540D01*
X296160Y255693D01*
X297242Y256141D01*
X298170Y256854D01*
X298883Y257782D01*
X299330Y258863D01*
X299483Y260024D01*
Y262976D01*
X299330Y264137D01*
X298883Y265218D01*
X298170Y266146D01*
X297242Y266859D01*
X296160Y267307D01*
X295000Y267460D01*
X293840Y267307D01*
X292758Y266859D01*
X291830Y266146D01*
X291703Y265981D01*
X291229Y266142D01*
Y270100D01*
X291113Y270685D01*
X290781Y271181D01*
X290703Y271260D01*
X290894Y271722D01*
X373747D01*
X378858Y266931D01*
D02*
G37*
G36*
X170922Y165780D02*
Y161382D01*
X171038Y160797D01*
X171370Y160301D01*
X171952Y159719D01*
X172448Y159387D01*
X173034Y159271D01*
X177431D01*
X179697Y157005D01*
X179532Y156463D01*
X179169Y156390D01*
X178480Y155930D01*
X178020Y155241D01*
X177858Y154429D01*
X178020Y153616D01*
X178480Y152927D01*
X179983Y151424D01*
Y151400D01*
X180057Y151029D01*
X179735Y150529D01*
X171800D01*
X171215Y150413D01*
X170719Y150081D01*
X168091Y147454D01*
X167629Y147646D01*
Y168221D01*
X167594Y168401D01*
X168054Y168647D01*
X170922Y165780D01*
D02*
G37*
G36*
X67382Y96395D02*
Y90138D01*
X69216D01*
Y86854D01*
X68945Y86449D01*
X68776Y85598D01*
Y79299D01*
X68500Y79028D01*
X68276Y79248D01*
X68224Y79381D01*
Y85598D01*
X68054Y86449D01*
X67572Y87171D01*
X66851Y87653D01*
X66000Y87822D01*
X65149Y87653D01*
X64428Y87171D01*
X63946Y86449D01*
X63776Y85598D01*
Y79299D01*
X63827Y79043D01*
X63366Y78796D01*
X59229Y82933D01*
Y84300D01*
X59113Y84885D01*
X58781Y85381D01*
X53659Y90504D01*
X53851Y90968D01*
X53987Y92000D01*
X53851Y93032D01*
X53453Y93993D01*
X52819Y94819D01*
X51993Y95453D01*
X51032Y95851D01*
X50457Y95927D01*
X50278Y96455D01*
X50739Y96916D01*
X66861D01*
X67382Y96395D01*
D02*
G37*
G36*
X116428Y265622D02*
X116117Y265218D01*
X115670Y264137D01*
X115517Y262976D01*
Y260024D01*
X115670Y258863D01*
X116117Y257782D01*
X116830Y256854D01*
X117758Y256141D01*
X118216Y255952D01*
Y222939D01*
X116061Y220784D01*
X103861D01*
X103670Y221246D01*
X109862Y227438D01*
X110248Y228017D01*
X110384Y228700D01*
X110384Y228700D01*
Y243500D01*
X110384Y243500D01*
X110248Y244183D01*
X109862Y244762D01*
X109862Y244762D01*
X105662Y248962D01*
X105083Y249348D01*
X104400Y249484D01*
X89039D01*
X86784Y251739D01*
Y255952D01*
X87242Y256141D01*
X88170Y256854D01*
X88883Y257782D01*
X89331Y258863D01*
X89483Y260024D01*
Y262976D01*
X89331Y264137D01*
X88883Y265218D01*
X88573Y265622D01*
X88794Y266071D01*
X96206D01*
X96428Y265622D01*
X96117Y265218D01*
X95670Y264137D01*
X95517Y262976D01*
Y260024D01*
X95670Y258863D01*
X96117Y257782D01*
X96830Y256854D01*
X97758Y256141D01*
X98840Y255693D01*
X100000Y255540D01*
X101160Y255693D01*
X102242Y256141D01*
X103170Y256854D01*
X103883Y257782D01*
X104331Y258863D01*
X104483Y260024D01*
Y262976D01*
X104331Y264137D01*
X103883Y265218D01*
X103572Y265622D01*
X103794Y266071D01*
X107876D01*
X108045Y265571D01*
X107684Y265293D01*
X107163Y264614D01*
X106836Y263824D01*
X106724Y262976D01*
Y262000D01*
X113276D01*
Y262976D01*
X113164Y263824D01*
X112837Y264614D01*
X112317Y265293D01*
X111955Y265571D01*
X112124Y266071D01*
X116206D01*
X116428Y265622D01*
D02*
G37*
G36*
X13007Y158047D02*
X13968Y157649D01*
X15000Y157513D01*
X16032Y157649D01*
X16993Y158047D01*
X17122Y158146D01*
X17571Y157925D01*
Y122453D01*
X13571D01*
X12384Y123639D01*
Y157959D01*
X12833Y158181D01*
X13007Y158047D01*
D02*
G37*
G36*
X197248Y157497D02*
X197371Y157396D01*
Y151983D01*
X197031Y151474D01*
X196877Y150700D01*
X196951Y150329D01*
X196540Y149829D01*
X189777D01*
X189729Y149892D01*
X189592Y150329D01*
X196871Y157608D01*
X197248Y157497D01*
D02*
G37*
G36*
X224586Y152592D02*
X224619Y152543D01*
X247927Y129234D01*
Y127346D01*
X247465Y127154D01*
X247138Y127481D01*
X246642Y127813D01*
X246057Y127929D01*
X224327D01*
X224010Y128429D01*
X224088Y128825D01*
X225881Y130619D01*
X226213Y131115D01*
X226329Y131700D01*
Y145400D01*
X226213Y145985D01*
X225881Y146481D01*
X222281Y150081D01*
X221785Y150413D01*
X221725Y150425D01*
X221560Y150968D01*
X221961Y151368D01*
X222182D01*
X222767Y151484D01*
X223263Y151816D01*
X224088Y152641D01*
X224586Y152592D01*
D02*
G37*
G36*
X201379Y130358D02*
X201405Y130231D01*
X201865Y129542D01*
X203368Y128039D01*
Y122803D01*
X203424Y122521D01*
X203476Y122239D01*
X203482Y122229D01*
X203484Y122217D01*
X203644Y121979D01*
X203800Y121738D01*
X203809Y121731D01*
X203816Y121721D01*
X204054Y121562D01*
X204291Y121399D01*
X204302Y121396D01*
X204312Y121390D01*
X204593Y121334D01*
X204874Y121273D01*
X223287Y120991D01*
X223826Y120631D01*
X224600Y120477D01*
X225374Y120631D01*
X226031Y121069D01*
X226469Y121726D01*
X226623Y122500D01*
X226469Y123274D01*
X226031Y123931D01*
X225374Y124369D01*
X225367Y124371D01*
X225416Y124871D01*
X245423D01*
X247927Y122366D01*
Y120100D01*
X247427Y119833D01*
X247074Y120069D01*
X246300Y120223D01*
X245526Y120069D01*
X245017Y119729D01*
X242580D01*
X242392Y119692D01*
X242091Y120142D01*
X242269Y120409D01*
X242423Y121183D01*
X242269Y121957D01*
X241831Y122613D01*
X241174Y123052D01*
X240400Y123206D01*
X239626Y123052D01*
X239117Y122712D01*
X233567D01*
X232982Y122596D01*
X232486Y122264D01*
X228148Y117927D01*
X227856Y117956D01*
X227199Y118394D01*
X226425Y118548D01*
X225651Y118394D01*
X224995Y117956D01*
X224556Y117299D01*
X224402Y116525D01*
X224556Y115751D01*
X224641Y115624D01*
Y111083D01*
Y103464D01*
X222061Y100884D01*
X198009D01*
X197790Y101158D01*
X198001Y101638D01*
X200618D01*
Y108362D01*
X199572D01*
Y112767D01*
X202276Y115471D01*
X219817D01*
X220326Y115131D01*
X221100Y114977D01*
X221874Y115131D01*
X222531Y115569D01*
X222969Y116226D01*
X223123Y117000D01*
X222969Y117774D01*
X222531Y118431D01*
X221874Y118869D01*
X221100Y119023D01*
X220326Y118869D01*
X219817Y118529D01*
X201643D01*
X201058Y118413D01*
X200562Y118081D01*
X196962Y114481D01*
X196630Y113985D01*
X196514Y113400D01*
Y108362D01*
X195784D01*
Y113600D01*
X195649Y114283D01*
X195262Y114862D01*
X192684Y117439D01*
Y127738D01*
X193094Y128041D01*
X193465Y127897D01*
X193610Y127169D01*
X194070Y126480D01*
X194759Y126020D01*
X195571Y125858D01*
X196384Y126020D01*
X197073Y126480D01*
X200135Y129542D01*
X200595Y130231D01*
X200653Y130522D01*
X200818Y130615D01*
X201379Y130358D01*
D02*
G37*
G36*
X288171Y269466D02*
Y265001D01*
X287671Y264831D01*
X287316Y265293D01*
X286638Y265813D01*
X285848Y266141D01*
X285500Y266187D01*
Y261500D01*
Y256813D01*
X285848Y256859D01*
X286638Y257187D01*
X287316Y257707D01*
X287671Y258169D01*
X288171Y257999D01*
Y243734D01*
X283191Y238754D01*
X282729Y238946D01*
Y249000D01*
X282613Y249585D01*
X282281Y250081D01*
X280881Y251481D01*
X280385Y251813D01*
X279800Y251929D01*
X262400D01*
X261815Y251813D01*
X261319Y251481D01*
X236829Y226992D01*
X236329Y227199D01*
Y256728D01*
X236803Y256889D01*
X236830Y256854D01*
X237758Y256141D01*
X238471Y255846D01*
Y238583D01*
X238131Y238074D01*
X237977Y237300D01*
X238131Y236526D01*
X238569Y235869D01*
X239226Y235431D01*
X240000Y235277D01*
X240774Y235431D01*
X241431Y235869D01*
X241869Y236526D01*
X242023Y237300D01*
X241869Y238074D01*
X241529Y238583D01*
Y255846D01*
X242242Y256141D01*
X243170Y256854D01*
X243883Y257782D01*
X244331Y258863D01*
X244483Y260024D01*
Y262976D01*
X244331Y264137D01*
X243883Y265218D01*
X243170Y266146D01*
X242242Y266859D01*
X241160Y267307D01*
X240000Y267460D01*
X238840Y267307D01*
X238562Y267192D01*
X238279Y267616D01*
X241133Y270471D01*
X287167D01*
X288171Y269466D01*
D02*
G37*
G36*
X180416Y147009D02*
X178480Y145073D01*
X178020Y144384D01*
X177858Y143571D01*
X177983Y142946D01*
X169791Y134754D01*
X169329Y134946D01*
Y144367D01*
X172433Y147471D01*
X180225D01*
X180416Y147009D01*
D02*
G37*
G36*
X229571Y160167D02*
Y155616D01*
X229687Y155031D01*
X230019Y154534D01*
X230515Y154203D01*
X231100Y154086D01*
X231551D01*
X247712Y137926D01*
X247831Y137326D01*
X248269Y136669D01*
X248926Y136231D01*
X249525Y136112D01*
X250486Y135151D01*
Y131654D01*
X250025Y131463D01*
X227229Y154258D01*
Y160900D01*
X227113Y161485D01*
X226781Y161981D01*
X221870Y166893D01*
X221902Y167128D01*
X222431Y167306D01*
X229571Y160167D01*
D02*
G37*
G36*
X237691Y91146D02*
Y89261D01*
X237191Y88979D01*
X236661Y89084D01*
X236476Y89047D01*
X236123Y89400D01*
X235969Y90174D01*
X235531Y90831D01*
X234874Y91269D01*
X234100Y91423D01*
X233326Y91269D01*
X232669Y90831D01*
X232231Y90174D01*
X232077Y89400D01*
X231725Y89048D01*
X231543Y89084D01*
X231014Y88979D01*
X230514Y89261D01*
Y89816D01*
X230397Y90401D01*
X230066Y90897D01*
X229088Y91874D01*
X228969Y92474D01*
X228531Y93131D01*
X227874Y93569D01*
X227100Y93723D01*
X226326Y93569D01*
X225669Y93131D01*
X225231Y92474D01*
X225077Y91700D01*
X225231Y90926D01*
X225669Y90269D01*
X226326Y89831D01*
X226853Y89726D01*
X227010Y89478D01*
X226702Y89029D01*
X226425Y89084D01*
X225766Y88953D01*
X225672Y88890D01*
X220888Y93674D01*
X220849Y93871D01*
X221260Y94371D01*
X234467D01*
X237691Y91146D01*
D02*
G37*
G36*
X235132Y78574D02*
Y74983D01*
X234792Y74474D01*
X234638Y73700D01*
X234792Y72926D01*
X235231Y72269D01*
X235887Y71831D01*
X236661Y71677D01*
X237436Y71831D01*
X238092Y72269D01*
X238530Y72926D01*
X238658Y73568D01*
X239353Y73430D01*
X239750Y73509D01*
X240250Y73111D01*
Y67313D01*
X223720Y50783D01*
X223419Y50581D01*
X223087Y50085D01*
X222971Y49500D01*
Y41600D01*
X222981Y41550D01*
X222971Y41500D01*
X222981Y41450D01*
X222971Y41400D01*
Y20654D01*
X222258Y20359D01*
X221829Y20030D01*
X221329Y20276D01*
Y63266D01*
X232625Y74562D01*
X232956Y75058D01*
X233073Y75643D01*
Y78574D01*
X233573Y78856D01*
X234102Y78750D01*
X234632Y78856D01*
X235132Y78574D01*
D02*
G37*
G36*
X249146Y197009D02*
X246967Y194829D01*
X227246D01*
X227054Y195291D01*
X229234Y197471D01*
X248954D01*
X249146Y197009D01*
D02*
G37*
G36*
X279671Y56469D02*
Y31034D01*
X268991Y20354D01*
X268529Y20546D01*
Y49334D01*
X275504Y56308D01*
X275968Y56116D01*
X277000Y55980D01*
X278032Y56116D01*
X278993Y56514D01*
X279222Y56690D01*
X279671Y56469D01*
D02*
G37*
G36*
X157171Y121066D02*
Y117685D01*
X156709Y117494D01*
X148929Y125273D01*
Y128654D01*
X149391Y128846D01*
X157171Y121066D01*
D02*
G37*
G36*
X279671Y248366D02*
Y231420D01*
X273047D01*
Y223929D01*
X246400D01*
X245815Y223813D01*
X245319Y223481D01*
X240698Y218861D01*
X240367Y218365D01*
X240250Y217780D01*
Y216496D01*
X239750Y216344D01*
X239492Y216731D01*
X238836Y217169D01*
X238061Y217323D01*
X237287Y217169D01*
X236631Y216731D01*
X236192Y216074D01*
X236132Y215770D01*
X235632Y215819D01*
Y221469D01*
X263034Y248871D01*
X279167D01*
X279671Y248366D01*
D02*
G37*
G36*
X273947Y117453D02*
X274181Y117148D01*
X275007Y116514D01*
X275968Y116116D01*
X277000Y115980D01*
X278032Y116116D01*
X278496Y116308D01*
X281271Y113533D01*
Y111292D01*
X280771Y111193D01*
X280453Y111960D01*
X279819Y112786D01*
X278993Y113420D01*
X278032Y113818D01*
X277000Y113954D01*
X275968Y113818D01*
X275007Y113420D01*
X274181Y112786D01*
X273547Y111960D01*
X273149Y110999D01*
X273013Y109967D01*
X273149Y108935D01*
X273341Y108471D01*
X271419Y106548D01*
X271087Y106052D01*
X270971Y105467D01*
Y100934D01*
X270091Y100054D01*
X269629Y100246D01*
Y113666D01*
X273448Y117485D01*
X273947Y117453D01*
D02*
G37*
G36*
X269288Y198049D02*
Y193400D01*
X269404Y192815D01*
X269736Y192319D01*
X271336Y190719D01*
X271832Y190387D01*
X272417Y190271D01*
X273604D01*
X273825Y189822D01*
X273547Y189460D01*
X273355Y188996D01*
X269267D01*
X266481Y191781D01*
X265985Y192113D01*
X265400Y192229D01*
X249346D01*
X249154Y192691D01*
X255656Y199193D01*
X255988Y199689D01*
X256104Y200275D01*
Y204387D01*
X256166Y204479D01*
X256297Y205138D01*
Y210387D01*
X256759Y210578D01*
X269288Y198049D01*
D02*
G37*
G36*
X158638Y150016D02*
Y149882D01*
X164571D01*
Y96532D01*
X158068Y90029D01*
X157346D01*
X157154Y90491D01*
X158181Y91519D01*
X158513Y92015D01*
X158629Y92600D01*
Y95000D01*
X158513Y95585D01*
X158181Y96081D01*
X157653Y96610D01*
X157804Y97166D01*
X158181Y97419D01*
X159781Y99019D01*
X160113Y99515D01*
X160229Y100100D01*
Y121700D01*
X160113Y122285D01*
X159781Y122781D01*
X150529Y132034D01*
Y147432D01*
X156756D01*
Y149296D01*
X157185Y149381D01*
X157681Y149713D01*
X158176Y150207D01*
X158638Y150016D01*
D02*
G37*
G36*
X283341Y198963D02*
X283149Y198499D01*
X283013Y197467D01*
X283149Y196435D01*
X283547Y195474D01*
X284181Y194648D01*
X285007Y194014D01*
X285968Y193616D01*
X287000Y193480D01*
X288032Y193616D01*
X288993Y194014D01*
X289073Y194076D01*
X289522Y193854D01*
Y191079D01*
X289073Y190858D01*
X288993Y190920D01*
X288032Y191318D01*
X287000Y191454D01*
X285968Y191318D01*
X285007Y190920D01*
X284778Y190744D01*
X284329Y190965D01*
Y191900D01*
X284213Y192485D01*
X283881Y192981D01*
X282366Y194497D01*
X281870Y194829D01*
X281284Y194945D01*
X280612D01*
X280391Y195394D01*
X280453Y195474D01*
X280851Y196435D01*
X280987Y197467D01*
X280851Y198499D01*
X280453Y199460D01*
X279819Y200286D01*
X278993Y200920D01*
X278388Y201171D01*
X278487Y201671D01*
X280633D01*
X283341Y198963D01*
D02*
G37*
G36*
X163638Y204882D02*
X167971D01*
Y193532D01*
X167509Y193340D01*
X160319Y200530D01*
X160464Y201009D01*
X160574Y201031D01*
X161231Y201469D01*
X161669Y202126D01*
X161823Y202900D01*
X161669Y203674D01*
X161231Y204331D01*
X160952Y204517D01*
X160562Y204782D01*
Y208556D01*
X160977Y208971D01*
X163638D01*
Y204882D01*
D02*
G37*
%LPC*%
G36*
X249000Y19687D02*
X248652Y19641D01*
X247862Y19313D01*
X247183Y18793D01*
X246663Y18114D01*
X246336Y17324D01*
X246224Y16476D01*
Y15500D01*
X249000D01*
Y19687D01*
D02*
G37*
G36*
X250000D02*
Y15500D01*
X252776D01*
Y16476D01*
X252664Y17324D01*
X252337Y18114D01*
X251817Y18793D01*
X251138Y19313D01*
X250348Y19641D01*
X250000Y19687D01*
D02*
G37*
G36*
X154760Y80724D02*
X148067D01*
X147216Y80554D01*
X146494Y80072D01*
X146012Y79351D01*
X145843Y78500D01*
X146012Y77649D01*
X146494Y76928D01*
X147216Y76446D01*
X148067Y76276D01*
X154760D01*
X155611Y76446D01*
X156332Y76928D01*
X156814Y77649D01*
X156984Y78500D01*
X156814Y79351D01*
X156332Y80072D01*
X155611Y80554D01*
X154760Y80724D01*
D02*
G37*
G36*
X214000Y19687D02*
X213652Y19641D01*
X212862Y19313D01*
X212183Y18793D01*
X211663Y18114D01*
X211336Y17324D01*
X211224Y16476D01*
Y15500D01*
X214000D01*
Y19687D01*
D02*
G37*
G36*
X204500Y20960D02*
X203340Y20807D01*
X202258Y20359D01*
X201330Y19647D01*
X200617Y18718D01*
X200169Y17637D01*
X200017Y16476D01*
Y13524D01*
X200169Y12363D01*
X200617Y11282D01*
X201330Y10353D01*
X202258Y9641D01*
X203340Y9193D01*
X204500Y9040D01*
X205660Y9193D01*
X206742Y9641D01*
X207670Y10353D01*
X208383Y11282D01*
X208830Y12363D01*
X208983Y13524D01*
Y16476D01*
X208830Y17637D01*
X208383Y18718D01*
X207670Y19647D01*
X206742Y20359D01*
X205660Y20807D01*
X204500Y20960D01*
D02*
G37*
G36*
X214000Y14500D02*
X211224D01*
Y13524D01*
X211336Y12676D01*
X211663Y11886D01*
X212183Y11207D01*
X212862Y10687D01*
X213652Y10359D01*
X214000Y10313D01*
Y14500D01*
D02*
G37*
G36*
X25000Y92487D02*
X23968Y92351D01*
X23007Y91953D01*
X22181Y91319D01*
X21547Y90493D01*
X21149Y89532D01*
X21013Y88500D01*
X21149Y87468D01*
X21547Y86507D01*
X22181Y85681D01*
X23007Y85047D01*
X23968Y84649D01*
X25000Y84513D01*
X26032Y84649D01*
X26993Y85047D01*
X27819Y85681D01*
X28453Y86507D01*
X28851Y87468D01*
X28987Y88500D01*
X28851Y89532D01*
X28453Y90493D01*
X27819Y91319D01*
X26993Y91953D01*
X26032Y92351D01*
X25000Y92487D01*
D02*
G37*
G36*
X62051Y120559D02*
X56842D01*
Y118500D01*
X62051D01*
Y120559D01*
D02*
G37*
G36*
X27714Y118000D02*
X25500D01*
Y115786D01*
X25719Y115815D01*
X26390Y116093D01*
X26965Y116534D01*
X27407Y117110D01*
X27685Y117781D01*
X27714Y118000D01*
D02*
G37*
G36*
X25500Y121214D02*
Y119000D01*
X27714D01*
X27685Y119219D01*
X27407Y119890D01*
X26965Y120466D01*
X26390Y120907D01*
X25719Y121185D01*
X25500Y121214D01*
D02*
G37*
G36*
X39000Y19687D02*
X38652Y19641D01*
X37862Y19313D01*
X37183Y18793D01*
X36663Y18114D01*
X36336Y17324D01*
X36224Y16476D01*
Y15500D01*
X39000D01*
Y19687D01*
D02*
G37*
G36*
Y14500D02*
X36224D01*
Y13524D01*
X36336Y12676D01*
X36663Y11886D01*
X37183Y11207D01*
X37862Y10687D01*
X38652Y10359D01*
X39000Y10313D01*
Y14500D01*
D02*
G37*
G36*
X42776D02*
X40000D01*
Y10313D01*
X40348Y10359D01*
X41138Y10687D01*
X41816Y11207D01*
X42337Y11886D01*
X42664Y12676D01*
X42776Y13524D01*
Y14500D01*
D02*
G37*
G36*
X40000Y19687D02*
Y15500D01*
X42776D01*
Y16476D01*
X42664Y17324D01*
X42337Y18114D01*
X41816Y18793D01*
X41138Y19313D01*
X40348Y19641D01*
X40000Y19687D01*
D02*
G37*
G36*
X50500Y228714D02*
Y226500D01*
X52714D01*
X52685Y226719D01*
X52407Y227390D01*
X51965Y227965D01*
X51390Y228407D01*
X50719Y228685D01*
X50500Y228714D01*
D02*
G37*
G36*
X89043Y233500D02*
X88165D01*
Y231835D01*
X89043D01*
Y233500D01*
D02*
G37*
G36*
X49500Y225500D02*
X47286D01*
X47315Y225281D01*
X47593Y224610D01*
X48035Y224035D01*
X48610Y223593D01*
X49281Y223315D01*
X49500Y223286D01*
Y225500D01*
D02*
G37*
G36*
Y228714D02*
X49281Y228685D01*
X48610Y228407D01*
X48035Y227965D01*
X47593Y227390D01*
X47315Y226719D01*
X47286Y226500D01*
X49500D01*
Y228714D01*
D02*
G37*
G36*
X52714Y225500D02*
X50500D01*
Y223286D01*
X50719Y223315D01*
X51390Y223593D01*
X51965Y224035D01*
X52407Y224610D01*
X52685Y225281D01*
X52714Y225500D01*
D02*
G37*
G36*
X170000Y267460D02*
X168840Y267307D01*
X167758Y266859D01*
X166830Y266146D01*
X166117Y265218D01*
X165670Y264137D01*
X165517Y262976D01*
Y260024D01*
X165670Y258863D01*
X166117Y257782D01*
X166830Y256854D01*
X167758Y256141D01*
X168840Y255693D01*
X170000Y255540D01*
X171160Y255693D01*
X172242Y256141D01*
X173170Y256854D01*
X173883Y257782D01*
X174330Y258863D01*
X174483Y260024D01*
Y262976D01*
X174330Y264137D01*
X173883Y265218D01*
X173170Y266146D01*
X172242Y266859D01*
X171160Y267307D01*
X170000Y267460D01*
D02*
G37*
G36*
X30000D02*
X28840Y267307D01*
X27758Y266859D01*
X26830Y266146D01*
X26117Y265218D01*
X25670Y264137D01*
X25517Y262976D01*
Y260024D01*
X25670Y258863D01*
X26117Y257782D01*
X26830Y256854D01*
X27758Y256141D01*
X28840Y255693D01*
X30000Y255540D01*
X31160Y255693D01*
X32242Y256141D01*
X33170Y256854D01*
X33883Y257782D01*
X34330Y258863D01*
X34483Y260024D01*
Y262976D01*
X34330Y264137D01*
X33883Y265218D01*
X33170Y266146D01*
X32242Y266859D01*
X31160Y267307D01*
X30000Y267460D01*
D02*
G37*
G36*
X190000D02*
X188840Y267307D01*
X187758Y266859D01*
X186830Y266146D01*
X186117Y265218D01*
X185670Y264137D01*
X185517Y262976D01*
Y260024D01*
X185670Y258863D01*
X186117Y257782D01*
X186830Y256854D01*
X187758Y256141D01*
X188840Y255693D01*
X190000Y255540D01*
X191160Y255693D01*
X192242Y256141D01*
X193170Y256854D01*
X193883Y257782D01*
X194331Y258863D01*
X194483Y260024D01*
Y262976D01*
X194331Y264137D01*
X193883Y265218D01*
X193170Y266146D01*
X192242Y266859D01*
X191160Y267307D01*
X190000Y267460D01*
D02*
G37*
G36*
X50000D02*
X48840Y267307D01*
X47758Y266859D01*
X46830Y266146D01*
X46117Y265218D01*
X45669Y264137D01*
X45517Y262976D01*
Y260024D01*
X45669Y258863D01*
X46117Y257782D01*
X46830Y256854D01*
X47758Y256141D01*
X48216Y255952D01*
Y239953D01*
X46047D01*
Y232047D01*
X53953D01*
Y239953D01*
X51784D01*
Y255952D01*
X52242Y256141D01*
X53170Y256854D01*
X53883Y257782D01*
X54330Y258863D01*
X54483Y260024D01*
Y262976D01*
X54330Y264137D01*
X53883Y265218D01*
X53170Y266146D01*
X52242Y266859D01*
X51160Y267307D01*
X50000Y267460D01*
D02*
G37*
G36*
X90921Y233500D02*
X90043D01*
Y231835D01*
X90921D01*
Y233500D01*
D02*
G37*
G36*
Y236165D02*
X90043D01*
Y234500D01*
X90921D01*
Y236165D01*
D02*
G37*
G36*
X89043D02*
X88165D01*
Y234500D01*
X89043D01*
Y236165D01*
D02*
G37*
G36*
X191169Y211650D02*
X189110D01*
Y209984D01*
X191169D01*
Y211650D01*
D02*
G37*
G36*
X202890Y208016D02*
X200831D01*
Y206350D01*
X202890D01*
Y208016D01*
D02*
G37*
G36*
X180500Y212043D02*
X178835D01*
Y211165D01*
X180500D01*
Y212043D01*
D02*
G37*
G36*
X194228Y211650D02*
X192169D01*
Y209984D01*
X194228D01*
Y211650D01*
D02*
G37*
G36*
X213165Y204957D02*
X211500D01*
Y204079D01*
X213165D01*
Y204957D01*
D02*
G37*
G36*
X210500D02*
X208835D01*
Y204079D01*
X210500D01*
Y204957D01*
D02*
G37*
G36*
X213165Y206835D02*
X211500D01*
Y205957D01*
X213165D01*
Y206835D01*
D02*
G37*
G36*
X210500D02*
X208835D01*
Y205957D01*
X210500D01*
Y206835D01*
D02*
G37*
G36*
X180500Y213921D02*
X178835D01*
Y213043D01*
X180500D01*
Y213921D01*
D02*
G37*
G36*
X194228Y214315D02*
X192169D01*
Y212650D01*
X194228D01*
Y214315D01*
D02*
G37*
G36*
X183165Y213921D02*
X181500D01*
Y213043D01*
X183165D01*
Y213921D01*
D02*
G37*
G36*
Y212043D02*
X181500D01*
Y211165D01*
X183165D01*
Y212043D01*
D02*
G37*
G36*
X191169Y214315D02*
X189110D01*
Y212650D01*
X191169D01*
Y214315D01*
D02*
G37*
G36*
X40500Y266187D02*
Y262000D01*
X43276D01*
Y262976D01*
X43164Y263824D01*
X42837Y264614D01*
X42316Y265293D01*
X41638Y265813D01*
X40848Y266141D01*
X40500Y266187D01*
D02*
G37*
G36*
X39500D02*
X39152Y266141D01*
X38362Y265813D01*
X37683Y265293D01*
X37163Y264614D01*
X36836Y263824D01*
X36724Y262976D01*
Y262000D01*
X39500D01*
Y266187D01*
D02*
G37*
G36*
X179500D02*
X179152Y266141D01*
X178362Y265813D01*
X177683Y265293D01*
X177163Y264614D01*
X176836Y263824D01*
X176724Y262976D01*
Y262000D01*
X179500D01*
Y266187D01*
D02*
G37*
G36*
X145500D02*
Y262000D01*
X148276D01*
Y262976D01*
X148164Y263824D01*
X147837Y264614D01*
X147317Y265293D01*
X146638Y265813D01*
X145848Y266141D01*
X145500Y266187D01*
D02*
G37*
G36*
X180500D02*
Y262000D01*
X183276D01*
Y262976D01*
X183164Y263824D01*
X182837Y264614D01*
X182317Y265293D01*
X181638Y265813D01*
X180848Y266141D01*
X180500Y266187D01*
D02*
G37*
G36*
X78276Y261000D02*
X75500D01*
Y256813D01*
X75848Y256859D01*
X76638Y257187D01*
X77316Y257707D01*
X77837Y258386D01*
X78164Y259176D01*
X78276Y260024D01*
Y261000D01*
D02*
G37*
G36*
X74500D02*
X71724D01*
Y260024D01*
X71836Y259176D01*
X72163Y258386D01*
X72684Y257707D01*
X73362Y257187D01*
X74152Y256859D01*
X74500Y256813D01*
Y261000D01*
D02*
G37*
G36*
X43276D02*
X40500D01*
Y256813D01*
X40848Y256859D01*
X41638Y257187D01*
X42316Y257707D01*
X42837Y258386D01*
X43164Y259176D01*
X43276Y260024D01*
Y261000D01*
D02*
G37*
G36*
X39500D02*
X36724D01*
Y260024D01*
X36836Y259176D01*
X37163Y258386D01*
X37683Y257707D01*
X38362Y257187D01*
X39152Y256859D01*
X39500Y256813D01*
Y261000D01*
D02*
G37*
G36*
X218276D02*
X215500D01*
Y256813D01*
X215848Y256859D01*
X216638Y257187D01*
X217317Y257707D01*
X217837Y258386D01*
X218164Y259176D01*
X218276Y260024D01*
Y261000D01*
D02*
G37*
G36*
X179500D02*
X176724D01*
Y260024D01*
X176836Y259176D01*
X177163Y258386D01*
X177683Y257707D01*
X178362Y257187D01*
X179152Y256859D01*
X179500Y256813D01*
Y261000D01*
D02*
G37*
G36*
X148276D02*
X145500D01*
Y256813D01*
X145848Y256859D01*
X146638Y257187D01*
X147317Y257707D01*
X147837Y258386D01*
X148164Y259176D01*
X148276Y260024D01*
Y261000D01*
D02*
G37*
G36*
X214500D02*
X211724D01*
Y260024D01*
X211836Y259176D01*
X212163Y258386D01*
X212684Y257707D01*
X213362Y257187D01*
X214152Y256859D01*
X214500Y256813D01*
Y261000D01*
D02*
G37*
G36*
X183276D02*
X180500D01*
Y256813D01*
X180848Y256859D01*
X181638Y257187D01*
X182317Y257707D01*
X182837Y258386D01*
X183164Y259176D01*
X183276Y260024D01*
Y261000D01*
D02*
G37*
G36*
X141500Y164571D02*
X139441D01*
Y162906D01*
X141500D01*
Y164571D01*
D02*
G37*
G36*
X144559Y161906D02*
X142500D01*
Y160241D01*
X144559D01*
Y161906D01*
D02*
G37*
G36*
Y164571D02*
X142500D01*
Y162906D01*
X144559D01*
Y164571D01*
D02*
G37*
G36*
X141500Y161906D02*
X139441D01*
Y160241D01*
X141500D01*
Y161906D01*
D02*
G37*
G36*
X209200Y197623D02*
X208426Y197469D01*
X207769Y197031D01*
X207331Y196374D01*
X207177Y195600D01*
X207331Y194826D01*
X207671Y194317D01*
Y172210D01*
X207528Y172134D01*
X207171Y171994D01*
X206429Y172142D01*
X206427Y172143D01*
Y185817D01*
X206767Y186326D01*
X206921Y187100D01*
X206767Y187874D01*
X206328Y188531D01*
X205672Y188969D01*
X204897Y189123D01*
X204123Y188969D01*
X203467Y188531D01*
X203028Y187874D01*
X202874Y187100D01*
X203028Y186326D01*
X203368Y185817D01*
Y169961D01*
X201865Y168458D01*
X201405Y167769D01*
X201243Y166956D01*
X201405Y166144D01*
X201865Y165454D01*
X202554Y164994D01*
X203366Y164833D01*
X203544Y164358D01*
X203632Y163916D01*
X204092Y163227D01*
X204781Y162767D01*
X205593Y162606D01*
X205771Y162131D01*
X205859Y161689D01*
X206319Y161000D01*
X207008Y160540D01*
X207821Y160378D01*
X208633Y160540D01*
X208696Y160582D01*
X209146Y160281D01*
X209144Y160275D01*
X209177Y160111D01*
X211225Y162159D01*
X213273Y164208D01*
X213110Y164240D01*
X213104Y164239D01*
X212803Y164689D01*
X212845Y164752D01*
X213006Y165564D01*
X212845Y166377D01*
X212384Y167066D01*
X211695Y167526D01*
X210883Y167688D01*
X210705Y168162D01*
X210704Y168171D01*
X210729Y168300D01*
Y194317D01*
X211069Y194826D01*
X211223Y195600D01*
X211069Y196374D01*
X210631Y197031D01*
X209974Y197469D01*
X209200Y197623D01*
D02*
G37*
G36*
X109421Y168665D02*
X108543D01*
Y167000D01*
X109421D01*
Y168665D01*
D02*
G37*
G36*
X68260Y175500D02*
X63051D01*
Y173441D01*
X68260D01*
Y175500D01*
D02*
G37*
G36*
X62051D02*
X56842D01*
Y173441D01*
X62051D01*
Y175500D01*
D02*
G37*
G36*
X107543Y166000D02*
X106665D01*
Y164335D01*
X107543D01*
Y166000D01*
D02*
G37*
G36*
X152500Y164771D02*
X150441D01*
Y163106D01*
X152500D01*
Y164771D01*
D02*
G37*
G36*
X107543Y168665D02*
X106665D01*
Y167000D01*
X107543D01*
Y168665D01*
D02*
G37*
G36*
X109421Y166000D02*
X108543D01*
Y164335D01*
X109421D01*
Y166000D01*
D02*
G37*
G36*
X65300Y155600D02*
X61597D01*
Y153897D01*
X65300D01*
Y155600D01*
D02*
G37*
G36*
X70003D02*
X66300D01*
Y153897D01*
X70003D01*
Y155600D01*
D02*
G37*
G36*
X65300Y158303D02*
X61597D01*
Y156600D01*
X65300D01*
Y158303D01*
D02*
G37*
G36*
X70003D02*
X66300D01*
Y156600D01*
X70003D01*
Y158303D01*
D02*
G37*
G36*
X25500Y194214D02*
Y192000D01*
X27714D01*
X27685Y192219D01*
X27407Y192890D01*
X26965Y193465D01*
X26390Y193907D01*
X25719Y194185D01*
X25500Y194214D01*
D02*
G37*
G36*
X24500D02*
X24281Y194185D01*
X23610Y193907D01*
X23034Y193465D01*
X22593Y192890D01*
X22315Y192219D01*
X22286Y192000D01*
X24500D01*
Y194214D01*
D02*
G37*
G36*
X144000Y199714D02*
Y197500D01*
X146214D01*
X146185Y197719D01*
X145907Y198390D01*
X145466Y198966D01*
X144890Y199407D01*
X144219Y199685D01*
X144000Y199714D01*
D02*
G37*
G36*
X202890Y205350D02*
X200831D01*
Y203685D01*
X202890D01*
Y205350D01*
D02*
G37*
G36*
X71362Y205032D02*
X64638D01*
Y203986D01*
X56457D01*
X55872Y203870D01*
X55376Y203538D01*
X51496Y199659D01*
X51032Y199851D01*
X50000Y199987D01*
X48968Y199851D01*
X48007Y199453D01*
X47181Y198819D01*
X46547Y197993D01*
X46149Y197032D01*
X46013Y196000D01*
X46149Y194968D01*
X46547Y194007D01*
X47181Y193181D01*
X48007Y192547D01*
X48968Y192149D01*
X50000Y192013D01*
X51032Y192149D01*
X51993Y192547D01*
X52819Y193181D01*
X53453Y194007D01*
X53851Y194968D01*
X53987Y196000D01*
X53851Y197032D01*
X53659Y197496D01*
X57091Y200928D01*
X64638D01*
Y199882D01*
X71362D01*
Y205032D01*
D02*
G37*
G36*
X143000Y196500D02*
X140786D01*
X140815Y196281D01*
X141093Y195610D01*
X141534Y195035D01*
X142110Y194593D01*
X142781Y194315D01*
X143000Y194286D01*
Y196500D01*
D02*
G37*
G36*
X106980Y197409D02*
X104500D01*
Y193768D01*
X105575D01*
X106112Y193875D01*
X106568Y194180D01*
X106873Y194635D01*
X106980Y195173D01*
Y197409D01*
D02*
G37*
G36*
X143000Y199714D02*
X142781Y199685D01*
X142110Y199407D01*
X141534Y198966D01*
X141093Y198390D01*
X140815Y197719D01*
X140786Y197500D01*
X143000D01*
Y199714D01*
D02*
G37*
G36*
X146214Y196500D02*
X144000D01*
Y194286D01*
X144219Y194315D01*
X144890Y194593D01*
X145466Y195035D01*
X145907Y195610D01*
X146185Y196281D01*
X146214Y196500D01*
D02*
G37*
G36*
X107543Y178665D02*
X106665D01*
Y177000D01*
X107543D01*
Y178665D01*
D02*
G37*
G36*
X109421D02*
X108543D01*
Y177000D01*
X109421D01*
Y178665D01*
D02*
G37*
G36*
Y176000D02*
X108543D01*
Y174335D01*
X109421D01*
Y176000D01*
D02*
G37*
G36*
X107543D02*
X106665D01*
Y174335D01*
X107543D01*
Y176000D01*
D02*
G37*
G36*
X68260Y178559D02*
X63051D01*
Y176500D01*
X68260D01*
Y178559D01*
D02*
G37*
G36*
X62051D02*
X56842D01*
Y176500D01*
X62051D01*
Y178559D01*
D02*
G37*
G36*
X109421Y188665D02*
X108543D01*
Y187000D01*
X109421D01*
Y188665D01*
D02*
G37*
G36*
X107543D02*
X106665D01*
Y187000D01*
X107543D01*
Y188665D01*
D02*
G37*
G36*
X50000Y189987D02*
X48968Y189851D01*
X48007Y189453D01*
X47181Y188819D01*
X46547Y187993D01*
X46149Y187032D01*
X46013Y186000D01*
X46149Y184968D01*
X46547Y184007D01*
X47181Y183181D01*
X48007Y182547D01*
X48968Y182149D01*
X50000Y182013D01*
X51032Y182149D01*
X51993Y182547D01*
X52819Y183181D01*
X53453Y184007D01*
X53851Y184968D01*
X53987Y186000D01*
X53851Y187032D01*
X53453Y187993D01*
X52819Y188819D01*
X51993Y189453D01*
X51032Y189851D01*
X50000Y189987D01*
D02*
G37*
G36*
X109421Y186000D02*
X108543D01*
Y184335D01*
X109421D01*
Y186000D01*
D02*
G37*
G36*
X107543D02*
X106665D01*
Y184335D01*
X107543D01*
Y186000D01*
D02*
G37*
G36*
X287776Y14500D02*
X285000D01*
Y10313D01*
X285348Y10359D01*
X286138Y10687D01*
X286817Y11207D01*
X287337Y11886D01*
X287664Y12676D01*
X287776Y13524D01*
Y14500D01*
D02*
G37*
G36*
X284000Y19687D02*
X283652Y19641D01*
X282862Y19313D01*
X282184Y18793D01*
X281663Y18114D01*
X281336Y17324D01*
X281224Y16476D01*
Y15500D01*
X284000D01*
Y19687D01*
D02*
G37*
G36*
Y14500D02*
X281224D01*
Y13524D01*
X281336Y12676D01*
X281663Y11886D01*
X282184Y11207D01*
X282862Y10687D01*
X283652Y10359D01*
X284000Y10313D01*
Y14500D01*
D02*
G37*
G36*
X285000Y19687D02*
Y15500D01*
X287776D01*
Y16476D01*
X287664Y17324D01*
X287337Y18114D01*
X286817Y18793D01*
X286138Y19313D01*
X285348Y19641D01*
X285000Y19687D01*
D02*
G37*
G36*
X286500Y62681D02*
X286281Y62652D01*
X285610Y62374D01*
X285034Y61932D01*
X284593Y61357D01*
X284315Y60686D01*
X284286Y60467D01*
X286500D01*
Y62681D01*
D02*
G37*
G36*
X287500D02*
Y60467D01*
X289714D01*
X289685Y60686D01*
X289407Y61357D01*
X288966Y61932D01*
X288390Y62374D01*
X287719Y62652D01*
X287500Y62681D01*
D02*
G37*
G36*
X289714Y59467D02*
X287500D01*
Y57253D01*
X287719Y57282D01*
X288390Y57560D01*
X288966Y58002D01*
X289407Y58577D01*
X289685Y59248D01*
X289714Y59467D01*
D02*
G37*
G36*
X286500D02*
X284286D01*
X284315Y59248D01*
X284593Y58577D01*
X285034Y58002D01*
X285610Y57560D01*
X286281Y57282D01*
X286500Y57253D01*
Y59467D01*
D02*
G37*
G36*
X321476Y89359D02*
X320500D01*
Y86583D01*
X324687D01*
X324641Y86931D01*
X324313Y87721D01*
X323793Y88399D01*
X323114Y88920D01*
X322324Y89247D01*
X321476Y89359D01*
D02*
G37*
G36*
X381476Y90776D02*
X380500D01*
Y88000D01*
X384687D01*
X384641Y88348D01*
X384314Y89138D01*
X383793Y89816D01*
X383114Y90337D01*
X382324Y90664D01*
X381476Y90776D01*
D02*
G37*
G36*
X379500D02*
X378524D01*
X377676Y90664D01*
X376886Y90337D01*
X376207Y89816D01*
X375687Y89138D01*
X375359Y88348D01*
X375313Y88000D01*
X379500D01*
Y90776D01*
D02*
G37*
G36*
X179516Y85169D02*
X177850D01*
Y83110D01*
X179516D01*
Y85169D01*
D02*
G37*
G36*
X379500Y87000D02*
X375313D01*
X375359Y86652D01*
X375687Y85862D01*
X376207Y85184D01*
X376886Y84663D01*
X377676Y84336D01*
X378524Y84224D01*
X379500D01*
Y87000D01*
D02*
G37*
G36*
X176850Y85169D02*
X175185D01*
Y83110D01*
X176850D01*
Y85169D01*
D02*
G37*
G36*
X324687Y85583D02*
X320500D01*
Y82806D01*
X321476D01*
X322324Y82918D01*
X323114Y83245D01*
X323793Y83766D01*
X324313Y84445D01*
X324641Y85235D01*
X324687Y85583D01*
D02*
G37*
G36*
X76500Y86448D02*
Y82949D01*
X77004D01*
Y85598D01*
X76927Y85983D01*
X76710Y86308D01*
X76500Y86448D01*
D02*
G37*
G36*
X384687Y87000D02*
X380500D01*
Y84224D01*
X381476D01*
X382324Y84336D01*
X383114Y84663D01*
X383793Y85184D01*
X384314Y85862D01*
X384641Y86652D01*
X384687Y87000D01*
D02*
G37*
G36*
X179516Y88228D02*
X177850D01*
Y86169D01*
X179516D01*
Y88228D01*
D02*
G37*
G36*
X118933Y90724D02*
X112240D01*
X111389Y90554D01*
X110668Y90073D01*
X110186Y89351D01*
X110016Y88500D01*
X110186Y87649D01*
X110668Y86927D01*
X111389Y86445D01*
X112240Y86276D01*
X118933D01*
X119784Y86445D01*
X120505Y86927D01*
X120988Y87649D01*
X121157Y88500D01*
X120988Y89351D01*
X120505Y90073D01*
X119784Y90554D01*
X118933Y90724D01*
D02*
G37*
G36*
X176850Y88228D02*
X175185D01*
Y86169D01*
X176850D01*
Y88228D01*
D02*
G37*
G36*
X255075Y87441D02*
Y84417D01*
X255107D01*
Y87362D01*
X255075Y87441D01*
D02*
G37*
G36*
X319500Y120583D02*
X315313D01*
X315359Y120235D01*
X315686Y119445D01*
X316207Y118766D01*
X316886Y118245D01*
X317676Y117918D01*
X318524Y117806D01*
X319500D01*
Y120583D01*
D02*
G37*
G36*
X324687D02*
X320500D01*
Y117806D01*
X321476D01*
X322324Y117918D01*
X323114Y118245D01*
X323793Y118766D01*
X324313Y119445D01*
X324641Y120235D01*
X324687Y120583D01*
D02*
G37*
G36*
X183543Y107165D02*
X182665D01*
Y105500D01*
X183543D01*
Y107165D01*
D02*
G37*
G36*
X185421D02*
X184543D01*
Y105500D01*
X185421D01*
Y107165D01*
D02*
G37*
G36*
X321476Y124359D02*
X320500D01*
Y121583D01*
X324687D01*
X324641Y121931D01*
X324313Y122721D01*
X323793Y123399D01*
X323114Y123920D01*
X322324Y124247D01*
X321476Y124359D01*
D02*
G37*
G36*
X379500Y125776D02*
X378524D01*
X377676Y125664D01*
X376886Y125337D01*
X376207Y124817D01*
X375687Y124138D01*
X375359Y123348D01*
X375313Y123000D01*
X379500D01*
Y125776D01*
D02*
G37*
G36*
X381476D02*
X380500D01*
Y123000D01*
X384687D01*
X384641Y123348D01*
X384314Y124138D01*
X383793Y124817D01*
X383114Y125337D01*
X382324Y125664D01*
X381476Y125776D01*
D02*
G37*
G36*
X379500Y122000D02*
X375313D01*
X375359Y121652D01*
X375687Y120862D01*
X376207Y120184D01*
X376886Y119663D01*
X377676Y119336D01*
X378524Y119224D01*
X379500D01*
Y122000D01*
D02*
G37*
G36*
X384687D02*
X380500D01*
Y119224D01*
X381476D01*
X382324Y119336D01*
X383114Y119663D01*
X383793Y120184D01*
X384314Y120862D01*
X384641Y121652D01*
X384687Y122000D01*
D02*
G37*
G36*
X319500Y124359D02*
X318524D01*
X317676Y124247D01*
X316886Y123920D01*
X316207Y123399D01*
X315686Y122721D01*
X315359Y121931D01*
X315313Y121583D01*
X319500D01*
Y124359D01*
D02*
G37*
G36*
X190457Y107165D02*
X189579D01*
Y105500D01*
X190457D01*
Y107165D01*
D02*
G37*
G36*
X183150Y93831D02*
X181484D01*
Y91772D01*
X183150D01*
Y93831D01*
D02*
G37*
G36*
X185815D02*
X184150D01*
Y91772D01*
X185815D01*
Y93831D01*
D02*
G37*
G36*
X381476Y101983D02*
X378524D01*
X377363Y101830D01*
X376282Y101383D01*
X375354Y100670D01*
X374641Y99742D01*
X374193Y98660D01*
X374040Y97500D01*
X374193Y96340D01*
X374641Y95258D01*
X375354Y94330D01*
X376282Y93617D01*
X377363Y93169D01*
X378524Y93017D01*
X381476D01*
X382637Y93169D01*
X383718Y93617D01*
X384647Y94330D01*
X385359Y95258D01*
X385807Y96340D01*
X385960Y97500D01*
X385807Y98660D01*
X385359Y99742D01*
X384647Y100670D01*
X383718Y101383D01*
X382637Y101830D01*
X381476Y101983D01*
D02*
G37*
G36*
X118933Y95724D02*
X112240D01*
X111389Y95555D01*
X110668Y95073D01*
X110186Y94351D01*
X110016Y93500D01*
X110186Y92649D01*
X110668Y91927D01*
X111389Y91445D01*
X112240Y91276D01*
X118933D01*
X119784Y91445D01*
X120505Y91927D01*
X120988Y92649D01*
X121157Y93500D01*
X120988Y94351D01*
X120505Y95073D01*
X119784Y95555D01*
X118933Y95724D01*
D02*
G37*
G36*
X76543Y93000D02*
X75665D01*
Y91335D01*
X76543D01*
Y93000D01*
D02*
G37*
G36*
X78421D02*
X77543D01*
Y91335D01*
X78421D01*
Y93000D01*
D02*
G37*
G36*
X76543Y95665D02*
X75665D01*
Y94000D01*
X76543D01*
Y95665D01*
D02*
G37*
G36*
X118933Y100724D02*
X112240D01*
X111389Y100555D01*
X110668Y100073D01*
X110186Y99351D01*
X110016Y98500D01*
X110186Y97649D01*
X110668Y96927D01*
X111389Y96446D01*
X112240Y96276D01*
X118933D01*
X119784Y96446D01*
X120505Y96927D01*
X120988Y97649D01*
X121157Y98500D01*
X120988Y99351D01*
X120505Y100073D01*
X119784Y100555D01*
X118933Y100724D01*
D02*
G37*
G36*
X185421Y104500D02*
X184543D01*
Y102835D01*
X185421D01*
Y104500D01*
D02*
G37*
G36*
X190457D02*
X189579D01*
Y102835D01*
X190457D01*
Y104500D01*
D02*
G37*
G36*
X78421Y95665D02*
X77543D01*
Y94000D01*
X78421D01*
Y95665D01*
D02*
G37*
G36*
X183150Y96890D02*
X181484D01*
Y94831D01*
X183150D01*
Y96890D01*
D02*
G37*
G36*
X185815D02*
X184150D01*
Y94831D01*
X185815D01*
Y96890D01*
D02*
G37*
G36*
X357776Y14500D02*
X355000D01*
Y10313D01*
X355348Y10359D01*
X356138Y10687D01*
X356817Y11207D01*
X357337Y11886D01*
X357664Y12676D01*
X357776Y13524D01*
Y14500D01*
D02*
G37*
G36*
X322776D02*
X320000D01*
Y10313D01*
X320348Y10359D01*
X321138Y10687D01*
X321816Y11207D01*
X322337Y11886D01*
X322664Y12676D01*
X322776Y13524D01*
Y14500D01*
D02*
G37*
G36*
X109000Y19687D02*
X108652Y19641D01*
X107862Y19313D01*
X107184Y18793D01*
X106663Y18114D01*
X106336Y17324D01*
X106224Y16476D01*
Y15500D01*
X109000D01*
Y19687D01*
D02*
G37*
G36*
X147776Y14500D02*
X145000D01*
Y10313D01*
X145348Y10359D01*
X146138Y10687D01*
X146817Y11207D01*
X147337Y11886D01*
X147664Y12676D01*
X147776Y13524D01*
Y14500D01*
D02*
G37*
G36*
X112776D02*
X110000D01*
Y10313D01*
X110348Y10359D01*
X111138Y10687D01*
X111817Y11207D01*
X112337Y11886D01*
X112664Y12676D01*
X112776Y13524D01*
Y14500D01*
D02*
G37*
G36*
X182776D02*
X180000D01*
Y10313D01*
X180348Y10359D01*
X181138Y10687D01*
X181816Y11207D01*
X182337Y11886D01*
X182664Y12676D01*
X182776Y13524D01*
Y14500D01*
D02*
G37*
G36*
X179000Y19687D02*
X178652Y19641D01*
X177862Y19313D01*
X177183Y18793D01*
X176663Y18114D01*
X176336Y17324D01*
X176224Y16476D01*
Y15500D01*
X179000D01*
Y19687D01*
D02*
G37*
G36*
X110000D02*
Y15500D01*
X112776D01*
Y16476D01*
X112664Y17324D01*
X112337Y18114D01*
X111817Y18793D01*
X111138Y19313D01*
X110348Y19641D01*
X110000Y19687D01*
D02*
G37*
G36*
X319000D02*
X318652Y19641D01*
X317862Y19313D01*
X317183Y18793D01*
X316663Y18114D01*
X316336Y17324D01*
X316224Y16476D01*
Y15500D01*
X319000D01*
Y19687D01*
D02*
G37*
G36*
X354000D02*
X353652Y19641D01*
X352862Y19313D01*
X352184Y18793D01*
X351663Y18114D01*
X351336Y17324D01*
X351224Y16476D01*
Y15500D01*
X354000D01*
Y19687D01*
D02*
G37*
G36*
X144000D02*
X143652Y19641D01*
X142862Y19313D01*
X142183Y18793D01*
X141663Y18114D01*
X141336Y17324D01*
X141224Y16476D01*
Y15500D01*
X144000D01*
Y19687D01*
D02*
G37*
G36*
X77776Y14500D02*
X75000D01*
Y10313D01*
X75348Y10359D01*
X76138Y10687D01*
X76816Y11207D01*
X77337Y11886D01*
X77664Y12676D01*
X77776Y13524D01*
Y14500D01*
D02*
G37*
G36*
X169500Y20960D02*
X168340Y20807D01*
X167258Y20359D01*
X166330Y19647D01*
X165617Y18718D01*
X165170Y17637D01*
X165017Y16476D01*
Y13524D01*
X165170Y12363D01*
X165617Y11282D01*
X166330Y10353D01*
X167258Y9641D01*
X168340Y9193D01*
X169500Y9040D01*
X170660Y9193D01*
X171742Y9641D01*
X172670Y10353D01*
X173383Y11282D01*
X173830Y12363D01*
X173983Y13524D01*
Y16476D01*
X173830Y17637D01*
X173383Y18718D01*
X172670Y19647D01*
X171742Y20359D01*
X170660Y20807D01*
X169500Y20960D01*
D02*
G37*
G36*
X329500D02*
X328340Y20807D01*
X327258Y20359D01*
X326330Y19647D01*
X325617Y18718D01*
X325169Y17637D01*
X325017Y16476D01*
Y13524D01*
X325169Y12363D01*
X325617Y11282D01*
X326330Y10353D01*
X327258Y9641D01*
X328340Y9193D01*
X329500Y9040D01*
X330660Y9193D01*
X331742Y9641D01*
X332670Y10353D01*
X333383Y11282D01*
X333830Y12363D01*
X333983Y13524D01*
Y16476D01*
X333830Y17637D01*
X333383Y18718D01*
X332670Y19647D01*
X331742Y20359D01*
X330660Y20807D01*
X329500Y20960D01*
D02*
G37*
G36*
X99500D02*
X98340Y20807D01*
X97258Y20359D01*
X96330Y19647D01*
X95617Y18718D01*
X95170Y17637D01*
X95017Y16476D01*
Y13524D01*
X95170Y12363D01*
X95617Y11282D01*
X96330Y10353D01*
X97258Y9641D01*
X98340Y9193D01*
X99500Y9040D01*
X100660Y9193D01*
X101742Y9641D01*
X102670Y10353D01*
X103383Y11282D01*
X103831Y12363D01*
X103983Y13524D01*
Y16476D01*
X103831Y17637D01*
X103383Y18718D01*
X102670Y19647D01*
X101742Y20359D01*
X100660Y20807D01*
X99500Y20960D01*
D02*
G37*
G36*
X84500D02*
X83340Y20807D01*
X82258Y20359D01*
X81330Y19647D01*
X80617Y18718D01*
X80169Y17637D01*
X80017Y16476D01*
Y13524D01*
X80169Y12363D01*
X80617Y11282D01*
X81330Y10353D01*
X82258Y9641D01*
X83340Y9193D01*
X84500Y9040D01*
X85660Y9193D01*
X86742Y9641D01*
X87670Y10353D01*
X88383Y11282D01*
X88831Y12363D01*
X88983Y13524D01*
Y16476D01*
X88831Y17637D01*
X88383Y18718D01*
X87670Y19647D01*
X86742Y20359D01*
X85660Y20807D01*
X84500Y20960D01*
D02*
G37*
G36*
X154500D02*
X153340Y20807D01*
X152258Y20359D01*
X151330Y19647D01*
X150617Y18718D01*
X150170Y17637D01*
X150017Y16476D01*
Y13524D01*
X150170Y12363D01*
X150617Y11282D01*
X151330Y10353D01*
X152258Y9641D01*
X153340Y9193D01*
X154500Y9040D01*
X155660Y9193D01*
X156742Y9641D01*
X157670Y10353D01*
X158383Y11282D01*
X158830Y12363D01*
X158983Y13524D01*
Y16476D01*
X158830Y17637D01*
X158383Y18718D01*
X157670Y19647D01*
X156742Y20359D01*
X155660Y20807D01*
X154500Y20960D01*
D02*
G37*
G36*
X119500D02*
X118340Y20807D01*
X117258Y20359D01*
X116330Y19647D01*
X115617Y18718D01*
X115170Y17637D01*
X115017Y16476D01*
Y13524D01*
X115170Y12363D01*
X115617Y11282D01*
X116330Y10353D01*
X117258Y9641D01*
X118340Y9193D01*
X119500Y9040D01*
X120660Y9193D01*
X121742Y9641D01*
X122670Y10353D01*
X123383Y11282D01*
X123830Y12363D01*
X123983Y13524D01*
Y16476D01*
X123830Y17637D01*
X123383Y18718D01*
X122670Y19647D01*
X121742Y20359D01*
X120660Y20807D01*
X119500Y20960D01*
D02*
G37*
G36*
X319000Y14500D02*
X316224D01*
Y13524D01*
X316336Y12676D01*
X316663Y11886D01*
X317183Y11207D01*
X317862Y10687D01*
X318652Y10359D01*
X319000Y10313D01*
Y14500D01*
D02*
G37*
G36*
X354000D02*
X351224D01*
Y13524D01*
X351336Y12676D01*
X351663Y11886D01*
X352184Y11207D01*
X352862Y10687D01*
X353652Y10359D01*
X354000Y10313D01*
Y14500D01*
D02*
G37*
G36*
X144000D02*
X141224D01*
Y13524D01*
X141336Y12676D01*
X141663Y11886D01*
X142183Y11207D01*
X142862Y10687D01*
X143652Y10359D01*
X144000Y10313D01*
Y14500D01*
D02*
G37*
G36*
X109000D02*
X106224D01*
Y13524D01*
X106336Y12676D01*
X106663Y11886D01*
X107184Y11207D01*
X107862Y10687D01*
X108652Y10359D01*
X109000Y10313D01*
Y14500D01*
D02*
G37*
G36*
X179000D02*
X176224D01*
Y13524D01*
X176336Y12676D01*
X176663Y11886D01*
X177183Y11207D01*
X177862Y10687D01*
X178652Y10359D01*
X179000Y10313D01*
Y14500D01*
D02*
G37*
G36*
X115087Y74503D02*
X112240D01*
X111856Y74427D01*
X111530Y74210D01*
X111390Y74000D01*
X115087D01*
Y74503D01*
D02*
G37*
G36*
X178335Y74500D02*
X177457D01*
Y72835D01*
X178335D01*
Y74500D01*
D02*
G37*
G36*
X93000Y76043D02*
X91335D01*
Y75165D01*
X93000D01*
Y76043D01*
D02*
G37*
G36*
X118933Y74503D02*
X116087D01*
Y74000D01*
X119783D01*
X119643Y74210D01*
X119317Y74427D01*
X118933Y74503D01*
D02*
G37*
G36*
X115087Y73000D02*
X111390D01*
X111530Y72790D01*
X111856Y72573D01*
X112240Y72496D01*
X115087D01*
Y73000D01*
D02*
G37*
G36*
X96862Y72032D02*
X90138D01*
Y70986D01*
X81857D01*
X81272Y70870D01*
X80776Y70538D01*
X79919Y69681D01*
X79587Y69185D01*
X79471Y68600D01*
Y68302D01*
X79427Y68273D01*
X78945Y67552D01*
X78776Y66701D01*
Y60402D01*
X78945Y59550D01*
X79427Y58829D01*
X80149Y58347D01*
X81000Y58178D01*
X81851Y58347D01*
X82573Y58829D01*
X83055Y59550D01*
X83224Y60402D01*
Y66701D01*
X83079Y67428D01*
X83359Y67928D01*
X90138D01*
Y66882D01*
X96862D01*
Y72032D01*
D02*
G37*
G36*
X176457Y74500D02*
X175579D01*
Y72835D01*
X176457D01*
Y74500D01*
D02*
G37*
G36*
X119783Y73000D02*
X116087D01*
Y72496D01*
X118933D01*
X119317Y72573D01*
X119643Y72790D01*
X119783Y73000D01*
D02*
G37*
G36*
X95665Y77921D02*
X94000D01*
Y77043D01*
X95665D01*
Y77921D01*
D02*
G37*
G36*
X93000D02*
X91335D01*
Y77043D01*
X93000D01*
Y77921D01*
D02*
G37*
G36*
X255107Y83417D02*
X255075D01*
Y80394D01*
X255107Y80472D01*
Y83417D01*
D02*
G37*
G36*
X77004Y81949D02*
X76500D01*
Y78450D01*
X76710Y78590D01*
X76927Y78915D01*
X77004Y79299D01*
Y81949D01*
D02*
G37*
G36*
X176457Y77165D02*
X175579D01*
Y75500D01*
X176457D01*
Y77165D01*
D02*
G37*
G36*
X95665Y76043D02*
X94000D01*
Y75165D01*
X95665D01*
Y76043D01*
D02*
G37*
G36*
X178335Y77165D02*
X177457D01*
Y75500D01*
X178335D01*
Y77165D01*
D02*
G37*
G36*
X119457Y65665D02*
X118579D01*
Y64000D01*
X119457D01*
Y65665D01*
D02*
G37*
G36*
X180000Y19687D02*
Y15500D01*
X182776D01*
Y16476D01*
X182664Y17324D01*
X182337Y18114D01*
X181816Y18793D01*
X181138Y19313D01*
X180348Y19641D01*
X180000Y19687D01*
D02*
G37*
G36*
X374016Y67969D02*
X372006Y67811D01*
X370045Y67340D01*
X368182Y66568D01*
X366462Y65515D01*
X364929Y64205D01*
X363619Y62672D01*
X362566Y60952D01*
X361794Y59089D01*
X361323Y57129D01*
X361165Y55118D01*
X361323Y53108D01*
X361794Y51147D01*
X362566Y49284D01*
X363619Y47565D01*
X364929Y46031D01*
X366462Y44722D01*
X368182Y43668D01*
X370045Y42897D01*
X372006Y42426D01*
X374016Y42268D01*
X376026Y42426D01*
X377987Y42897D01*
X379850Y43668D01*
X381569Y44722D01*
X383103Y46031D01*
X384412Y47565D01*
X385466Y49284D01*
X386238Y51147D01*
X386708Y53108D01*
X386866Y55118D01*
X386708Y57129D01*
X386238Y59089D01*
X385466Y60952D01*
X384412Y62672D01*
X383103Y64205D01*
X381569Y65515D01*
X379850Y66568D01*
X377987Y67340D01*
X376026Y67811D01*
X374016Y67969D01*
D02*
G37*
G36*
X320000Y19687D02*
Y15500D01*
X322776D01*
Y16476D01*
X322664Y17324D01*
X322337Y18114D01*
X321816Y18793D01*
X321138Y19313D01*
X320348Y19641D01*
X320000Y19687D01*
D02*
G37*
G36*
X355000D02*
Y15500D01*
X357776D01*
Y16476D01*
X357664Y17324D01*
X357337Y18114D01*
X356817Y18793D01*
X356138Y19313D01*
X355348Y19641D01*
X355000Y19687D01*
D02*
G37*
G36*
X145000D02*
Y15500D01*
X147776D01*
Y16476D01*
X147664Y17324D01*
X147337Y18114D01*
X146817Y18793D01*
X146138Y19313D01*
X145348Y19641D01*
X145000Y19687D01*
D02*
G37*
G36*
X75000D02*
Y15500D01*
X77776D01*
Y16476D01*
X77664Y17324D01*
X77337Y18114D01*
X76816Y18793D01*
X76138Y19313D01*
X75348Y19641D01*
X75000Y19687D01*
D02*
G37*
G36*
X66000Y68925D02*
X65149Y68755D01*
X64428Y68273D01*
X63946Y67552D01*
X63776Y66701D01*
Y60402D01*
X63946Y59550D01*
X64428Y58829D01*
X65149Y58347D01*
X66000Y58178D01*
X66851Y58347D01*
X67572Y58829D01*
X68054Y59550D01*
X68224Y60402D01*
Y66701D01*
X68054Y67552D01*
X67572Y68273D01*
X66851Y68755D01*
X66000Y68925D01*
D02*
G37*
G36*
X119457Y63000D02*
X118579D01*
Y61335D01*
X119457D01*
Y63000D01*
D02*
G37*
G36*
X319500Y54359D02*
X318524D01*
X317676Y54247D01*
X316886Y53920D01*
X316207Y53399D01*
X315686Y52721D01*
X315359Y51930D01*
X315313Y51583D01*
X319500D01*
Y54359D01*
D02*
G37*
G36*
Y50583D02*
X315313D01*
X315359Y50235D01*
X315686Y49445D01*
X316207Y48766D01*
X316886Y48245D01*
X317676Y47918D01*
X318524Y47807D01*
X319500D01*
Y50583D01*
D02*
G37*
G36*
Y229359D02*
X318524D01*
X317676Y229247D01*
X316886Y228920D01*
X316207Y228399D01*
X315686Y227721D01*
X315359Y226930D01*
X315313Y226583D01*
X319500D01*
Y229359D01*
D02*
G37*
G36*
X321476D02*
X320500D01*
Y226583D01*
X324687D01*
X324641Y226930D01*
X324313Y227721D01*
X323793Y228399D01*
X323114Y228920D01*
X322324Y229247D01*
X321476Y229359D01*
D02*
G37*
G36*
X324687Y225583D02*
X320500D01*
Y222807D01*
X321476D01*
X322324Y222918D01*
X323114Y223245D01*
X323793Y223766D01*
X324313Y224445D01*
X324641Y225235D01*
X324687Y225583D01*
D02*
G37*
G36*
X319500D02*
X315313D01*
X315359Y225235D01*
X315686Y224445D01*
X316207Y223766D01*
X316886Y223245D01*
X317676Y222918D01*
X318524Y222807D01*
X319500D01*
Y225583D01*
D02*
G37*
G36*
X365000Y267460D02*
X363840Y267307D01*
X362758Y266859D01*
X361830Y266146D01*
X361117Y265218D01*
X360669Y264137D01*
X360517Y262976D01*
Y260024D01*
X360669Y258863D01*
X361117Y257782D01*
X361830Y256854D01*
X362758Y256141D01*
X363216Y255952D01*
Y247239D01*
X359238Y243262D01*
X358852Y242683D01*
X358716Y242000D01*
Y196800D01*
X358852Y196117D01*
X359238Y195538D01*
X372277Y182500D01*
X370238Y180462D01*
X369851Y179883D01*
X369716Y179200D01*
Y150800D01*
X369851Y150117D01*
X370238Y149538D01*
X372277Y147500D01*
X370238Y145462D01*
X369851Y144883D01*
X369716Y144200D01*
Y115600D01*
X369851Y114917D01*
X370238Y114338D01*
X372177Y112400D01*
X370238Y110462D01*
X369851Y109883D01*
X369716Y109200D01*
Y80800D01*
X369851Y80117D01*
X370238Y79538D01*
X373538Y76238D01*
X373538Y76238D01*
X374117Y75852D01*
X374420Y75791D01*
X374641Y75258D01*
X375354Y74330D01*
X376282Y73617D01*
X377363Y73169D01*
X378524Y73017D01*
X381476D01*
X382637Y73169D01*
X383718Y73617D01*
X384647Y74330D01*
X385359Y75258D01*
X385807Y76340D01*
X385960Y77500D01*
X385807Y78660D01*
X385359Y79742D01*
X384647Y80670D01*
X383718Y81383D01*
X382637Y81831D01*
X381476Y81983D01*
X378524D01*
X377363Y81831D01*
X376282Y81383D01*
X375354Y80670D01*
X375063Y80292D01*
X374564Y80259D01*
X373284Y81539D01*
Y108461D01*
X374564Y109741D01*
X375063Y109708D01*
X375354Y109330D01*
X376282Y108617D01*
X377363Y108169D01*
X378524Y108017D01*
X381476D01*
X382637Y108169D01*
X383718Y108617D01*
X384647Y109330D01*
X385359Y110258D01*
X385807Y111340D01*
X385960Y112500D01*
X385807Y113660D01*
X385359Y114742D01*
X384647Y115670D01*
X383718Y116383D01*
X382637Y116831D01*
X381476Y116983D01*
X378524D01*
X377363Y116831D01*
X376282Y116383D01*
X375354Y115670D01*
X374976Y115179D01*
X374477Y115146D01*
X373284Y116339D01*
Y143461D01*
X374564Y144741D01*
X375063Y144708D01*
X375354Y144330D01*
X376282Y143617D01*
X377363Y143169D01*
X378524Y143017D01*
X381476D01*
X382637Y143169D01*
X383718Y143617D01*
X384647Y144330D01*
X385359Y145258D01*
X385807Y146340D01*
X385960Y147500D01*
X385807Y148660D01*
X385359Y149742D01*
X384647Y150670D01*
X383718Y151383D01*
X382637Y151830D01*
X381476Y151983D01*
X378524D01*
X377363Y151830D01*
X376282Y151383D01*
X375354Y150670D01*
X375063Y150292D01*
X374564Y150259D01*
X373284Y151539D01*
Y178461D01*
X374564Y179741D01*
X375063Y179708D01*
X375354Y179330D01*
X376282Y178617D01*
X377363Y178170D01*
X378524Y178017D01*
X381476D01*
X382637Y178170D01*
X383718Y178617D01*
X384647Y179330D01*
X385359Y180258D01*
X385807Y181340D01*
X385960Y182500D01*
X385807Y183660D01*
X385359Y184742D01*
X384647Y185670D01*
X383718Y186383D01*
X382637Y186830D01*
X381476Y186983D01*
X378524D01*
X377363Y186830D01*
X376282Y186383D01*
X375354Y185670D01*
X375063Y185292D01*
X374564Y185259D01*
X362284Y197539D01*
Y218078D01*
X362784Y218219D01*
X363619Y216856D01*
X364929Y215323D01*
X366462Y214013D01*
X368182Y212959D01*
X370045Y212188D01*
X372006Y211717D01*
X374016Y211559D01*
X376026Y211717D01*
X377987Y212188D01*
X379850Y212959D01*
X381569Y214013D01*
X383103Y215323D01*
X384412Y216856D01*
X385466Y218575D01*
X386238Y220438D01*
X386708Y222399D01*
X386866Y224409D01*
X386708Y226420D01*
X386238Y228380D01*
X385466Y230243D01*
X384412Y231963D01*
X383103Y233496D01*
X381569Y234806D01*
X379850Y235859D01*
X377987Y236631D01*
X376026Y237102D01*
X374016Y237260D01*
X372006Y237102D01*
X370045Y236631D01*
X368182Y235859D01*
X366462Y234806D01*
X364929Y233496D01*
X363619Y231963D01*
X362784Y230600D01*
X362284Y230741D01*
Y241261D01*
X366262Y245238D01*
X366649Y245817D01*
X366784Y246500D01*
Y255952D01*
X367242Y256141D01*
X368170Y256854D01*
X368883Y257782D01*
X369331Y258863D01*
X369483Y260024D01*
Y262976D01*
X369331Y264137D01*
X368883Y265218D01*
X368170Y266146D01*
X367242Y266859D01*
X366160Y267307D01*
X365000Y267460D01*
D02*
G37*
G36*
X321476Y220566D02*
X318524D01*
X317363Y220413D01*
X316282Y219965D01*
X315353Y219253D01*
X314641Y218324D01*
X314193Y217243D01*
X314040Y216083D01*
X314193Y214922D01*
X314641Y213841D01*
X315353Y212913D01*
X316282Y212200D01*
X317363Y211752D01*
X318524Y211599D01*
X321476D01*
X322637Y211752D01*
X323718Y212200D01*
X324646Y212913D01*
X325359Y213841D01*
X325807Y214922D01*
X325960Y216083D01*
X325807Y217243D01*
X325359Y218324D01*
X324646Y219253D01*
X323718Y219965D01*
X322637Y220413D01*
X321476Y220566D01*
D02*
G37*
G36*
X323276Y261000D02*
X320500D01*
Y256813D01*
X320848Y256859D01*
X321638Y257187D01*
X322317Y257707D01*
X322837Y258386D01*
X323164Y259176D01*
X323276Y260024D01*
Y261000D01*
D02*
G37*
G36*
X319500D02*
X316724D01*
Y260024D01*
X316836Y259176D01*
X317163Y258386D01*
X317684Y257707D01*
X318362Y257187D01*
X319152Y256859D01*
X319500Y256813D01*
Y261000D01*
D02*
G37*
G36*
X358276D02*
X355500D01*
Y256813D01*
X355848Y256859D01*
X356638Y257187D01*
X357316Y257707D01*
X357837Y258386D01*
X358164Y259176D01*
X358276Y260024D01*
Y261000D01*
D02*
G37*
G36*
X354500D02*
X351724D01*
Y260024D01*
X351836Y259176D01*
X352163Y258386D01*
X352683Y257707D01*
X353362Y257187D01*
X354152Y256859D01*
X354500Y256813D01*
Y261000D01*
D02*
G37*
G36*
X320500Y266187D02*
Y262000D01*
X323276D01*
Y262976D01*
X323164Y263824D01*
X322837Y264614D01*
X322317Y265293D01*
X321638Y265813D01*
X320848Y266141D01*
X320500Y266187D01*
D02*
G37*
G36*
X319500D02*
X319152Y266141D01*
X318362Y265813D01*
X317684Y265293D01*
X317163Y264614D01*
X316836Y263824D01*
X316724Y262976D01*
Y262000D01*
X319500D01*
Y266187D01*
D02*
G37*
G36*
X355500D02*
Y262000D01*
X358276D01*
Y262976D01*
X358164Y263824D01*
X357837Y264614D01*
X357316Y265293D01*
X356638Y265813D01*
X355848Y266141D01*
X355500Y266187D01*
D02*
G37*
G36*
X354500D02*
X354152Y266141D01*
X353362Y265813D01*
X352683Y265293D01*
X352163Y264614D01*
X351836Y263824D01*
X351724Y262976D01*
Y262000D01*
X354500D01*
Y266187D01*
D02*
G37*
G36*
X330000Y267460D02*
X328840Y267307D01*
X327758Y266859D01*
X326830Y266146D01*
X326117Y265218D01*
X325670Y264137D01*
X325517Y262976D01*
Y260024D01*
X325670Y258863D01*
X326117Y257782D01*
X326830Y256854D01*
X327758Y256141D01*
X328840Y255693D01*
X330000Y255540D01*
X331160Y255693D01*
X332242Y256141D01*
X333170Y256854D01*
X333883Y257782D01*
X334331Y258863D01*
X334483Y260024D01*
Y262976D01*
X334331Y264137D01*
X333883Y265218D01*
X333170Y266146D01*
X332242Y266859D01*
X331160Y267307D01*
X330000Y267460D01*
D02*
G37*
G36*
X381476Y171983D02*
X378524D01*
X377363Y171830D01*
X376282Y171383D01*
X375354Y170670D01*
X374641Y169742D01*
X374193Y168660D01*
X374040Y167500D01*
X374193Y166340D01*
X374641Y165258D01*
X375354Y164330D01*
X376282Y163617D01*
X377363Y163170D01*
X378524Y163017D01*
X381476D01*
X382637Y163170D01*
X383718Y163617D01*
X384647Y164330D01*
X385359Y165258D01*
X385807Y166340D01*
X385960Y167500D01*
X385807Y168660D01*
X385359Y169742D01*
X384647Y170670D01*
X383718Y171383D01*
X382637Y171830D01*
X381476Y171983D01*
D02*
G37*
G36*
X379500Y160776D02*
X378524D01*
X377676Y160664D01*
X376886Y160337D01*
X376207Y159817D01*
X375687Y159138D01*
X375359Y158348D01*
X375313Y158000D01*
X379500D01*
Y160776D01*
D02*
G37*
G36*
X287500Y160181D02*
Y157967D01*
X289714D01*
X289685Y158186D01*
X289407Y158857D01*
X288966Y159432D01*
X288390Y159874D01*
X287719Y160152D01*
X287500Y160181D01*
D02*
G37*
G36*
X381476Y160776D02*
X380500D01*
Y158000D01*
X384687D01*
X384641Y158348D01*
X384314Y159138D01*
X383793Y159817D01*
X383114Y160337D01*
X382324Y160664D01*
X381476Y160776D01*
D02*
G37*
G36*
X324687Y155583D02*
X320500D01*
Y152806D01*
X321476D01*
X322324Y152918D01*
X323114Y153245D01*
X323793Y153766D01*
X324313Y154445D01*
X324641Y155235D01*
X324687Y155583D01*
D02*
G37*
G36*
X379500Y157000D02*
X375313D01*
X375359Y156652D01*
X375687Y155862D01*
X376207Y155183D01*
X376886Y154663D01*
X377676Y154336D01*
X378524Y154224D01*
X379500D01*
Y157000D01*
D02*
G37*
G36*
X381476Y136983D02*
X378524D01*
X377363Y136830D01*
X376282Y136383D01*
X375354Y135670D01*
X374641Y134742D01*
X374193Y133660D01*
X374040Y132500D01*
X374193Y131340D01*
X374641Y130258D01*
X375354Y129330D01*
X376282Y128617D01*
X377363Y128170D01*
X378524Y128017D01*
X381476D01*
X382637Y128170D01*
X383718Y128617D01*
X384647Y129330D01*
X385359Y130258D01*
X385807Y131340D01*
X385960Y132500D01*
X385807Y133660D01*
X385359Y134742D01*
X384647Y135670D01*
X383718Y136383D01*
X382637Y136830D01*
X381476Y136983D01*
D02*
G37*
G36*
X287000Y133954D02*
X285968Y133818D01*
X285007Y133420D01*
X284181Y132786D01*
X283547Y131960D01*
X283149Y130999D01*
X283013Y129967D01*
X283149Y128935D01*
X283547Y127974D01*
X284181Y127148D01*
X285007Y126514D01*
X285968Y126116D01*
X287000Y125980D01*
X288032Y126116D01*
X288993Y126514D01*
X289819Y127148D01*
X290453Y127974D01*
X290851Y128935D01*
X290987Y129967D01*
X290851Y130999D01*
X290453Y131960D01*
X289819Y132786D01*
X288993Y133420D01*
X288032Y133818D01*
X287000Y133954D01*
D02*
G37*
G36*
X319500Y155583D02*
X315313D01*
X315359Y155235D01*
X315686Y154445D01*
X316207Y153766D01*
X316886Y153245D01*
X317676Y152918D01*
X318524Y152806D01*
X319500D01*
Y155583D01*
D02*
G37*
G36*
X321476Y150566D02*
X318524D01*
X317363Y150413D01*
X316282Y149965D01*
X315353Y149253D01*
X314641Y148324D01*
X314193Y147243D01*
X314040Y146083D01*
X314193Y144922D01*
X314641Y143841D01*
X315353Y142912D01*
X316282Y142200D01*
X317363Y141752D01*
X318524Y141599D01*
X321476D01*
X322637Y141752D01*
X323718Y142200D01*
X324646Y142912D01*
X325359Y143841D01*
X325807Y144922D01*
X325960Y146083D01*
X325807Y147243D01*
X325359Y148324D01*
X324646Y149253D01*
X323718Y149965D01*
X322637Y150413D01*
X321476Y150566D01*
D02*
G37*
G36*
Y159359D02*
X320500D01*
Y156583D01*
X324687D01*
X324641Y156930D01*
X324313Y157721D01*
X323793Y158399D01*
X323114Y158920D01*
X322324Y159247D01*
X321476Y159359D01*
D02*
G37*
G36*
X286500Y160181D02*
X286281Y160152D01*
X285610Y159874D01*
X285034Y159432D01*
X284593Y158857D01*
X284315Y158186D01*
X284286Y157967D01*
X286500D01*
Y160181D01*
D02*
G37*
G36*
Y156967D02*
X284286D01*
X284315Y156748D01*
X284593Y156077D01*
X285034Y155501D01*
X285610Y155060D01*
X286281Y154782D01*
X286500Y154753D01*
Y156967D01*
D02*
G37*
G36*
X384687Y157000D02*
X380500D01*
Y154224D01*
X381476D01*
X382324Y154336D01*
X383114Y154663D01*
X383793Y155183D01*
X384314Y155862D01*
X384641Y156652D01*
X384687Y157000D01*
D02*
G37*
G36*
X319500Y159359D02*
X318524D01*
X317676Y159247D01*
X316886Y158920D01*
X316207Y158399D01*
X315686Y157721D01*
X315359Y156930D01*
X315313Y156583D01*
X319500D01*
Y159359D01*
D02*
G37*
G36*
X289714Y156967D02*
X287500D01*
Y154753D01*
X287719Y154782D01*
X288390Y155060D01*
X288966Y155501D01*
X289407Y156077D01*
X289685Y156748D01*
X289714Y156967D01*
D02*
G37*
G36*
X381476Y195776D02*
X380500D01*
Y193000D01*
X384687D01*
X384641Y193348D01*
X384314Y194138D01*
X383793Y194817D01*
X383114Y195337D01*
X382324Y195664D01*
X381476Y195776D01*
D02*
G37*
G36*
X379500D02*
X378524D01*
X377676Y195664D01*
X376886Y195337D01*
X376207Y194817D01*
X375687Y194138D01*
X375359Y193348D01*
X375313Y193000D01*
X379500D01*
Y195776D01*
D02*
G37*
G36*
X384687Y192000D02*
X380500D01*
Y189224D01*
X381476D01*
X382324Y189336D01*
X383114Y189663D01*
X383793Y190183D01*
X384314Y190862D01*
X384641Y191652D01*
X384687Y192000D01*
D02*
G37*
G36*
X379500D02*
X375313D01*
X375359Y191652D01*
X375687Y190862D01*
X376207Y190183D01*
X376886Y189663D01*
X377676Y189336D01*
X378524Y189224D01*
X379500D01*
Y192000D01*
D02*
G37*
G36*
X321476Y194359D02*
X320500D01*
Y191583D01*
X324687D01*
X324641Y191930D01*
X324313Y192721D01*
X323793Y193399D01*
X323114Y193920D01*
X322324Y194247D01*
X321476Y194359D01*
D02*
G37*
G36*
X319500D02*
X318524D01*
X317676Y194247D01*
X316886Y193920D01*
X316207Y193399D01*
X315686Y192721D01*
X315359Y191930D01*
X315313Y191583D01*
X319500D01*
Y194359D01*
D02*
G37*
G36*
X381476Y206983D02*
X378524D01*
X377363Y206831D01*
X376282Y206383D01*
X375354Y205670D01*
X374641Y204742D01*
X374193Y203660D01*
X374040Y202500D01*
X374193Y201340D01*
X374641Y200258D01*
X375354Y199330D01*
X376282Y198617D01*
X377363Y198170D01*
X378524Y198017D01*
X381476D01*
X382637Y198170D01*
X383718Y198617D01*
X384647Y199330D01*
X385359Y200258D01*
X385807Y201340D01*
X385960Y202500D01*
X385807Y203660D01*
X385359Y204742D01*
X384647Y205670D01*
X383718Y206383D01*
X382637Y206831D01*
X381476Y206983D01*
D02*
G37*
G36*
X321476Y185566D02*
X318524D01*
X317363Y185413D01*
X316282Y184965D01*
X315353Y184253D01*
X314641Y183324D01*
X314193Y182243D01*
X314040Y181083D01*
X314193Y179922D01*
X314641Y178841D01*
X315353Y177912D01*
X316282Y177200D01*
X317363Y176752D01*
X318524Y176599D01*
X321476D01*
X322637Y176752D01*
X323718Y177200D01*
X324646Y177912D01*
X325359Y178841D01*
X325807Y179922D01*
X325960Y181083D01*
X325807Y182243D01*
X325359Y183324D01*
X324646Y184253D01*
X323718Y184965D01*
X322637Y185413D01*
X321476Y185566D01*
D02*
G37*
G36*
X255107Y180917D02*
X255075D01*
Y177894D01*
X255107Y177972D01*
Y180917D01*
D02*
G37*
G36*
X324687Y190583D02*
X320500D01*
Y187806D01*
X321476D01*
X322324Y187918D01*
X323114Y188245D01*
X323793Y188766D01*
X324313Y189445D01*
X324641Y190235D01*
X324687Y190583D01*
D02*
G37*
G36*
X319500D02*
X315313D01*
X315359Y190235D01*
X315686Y189445D01*
X316207Y188766D01*
X316886Y188245D01*
X317676Y187918D01*
X318524Y187806D01*
X319500D01*
Y190583D01*
D02*
G37*
G36*
X255075Y184941D02*
Y181917D01*
X255107D01*
Y184862D01*
X255075Y184941D01*
D02*
G37*
G36*
X113276Y261000D02*
X110500D01*
Y256813D01*
X110848Y256859D01*
X111638Y257187D01*
X112317Y257707D01*
X112837Y258386D01*
X113164Y259176D01*
X113276Y260024D01*
Y261000D01*
D02*
G37*
G36*
X109500D02*
X106724D01*
Y260024D01*
X106836Y259176D01*
X107163Y258386D01*
X107684Y257707D01*
X108362Y257187D01*
X109152Y256859D01*
X109500Y256813D01*
Y261000D01*
D02*
G37*
G36*
X260000Y267460D02*
X258840Y267307D01*
X257758Y266859D01*
X256830Y266146D01*
X256117Y265218D01*
X255669Y264137D01*
X255517Y262976D01*
Y260024D01*
X255669Y258863D01*
X256117Y257782D01*
X256830Y256854D01*
X257758Y256141D01*
X258840Y255693D01*
X260000Y255540D01*
X261160Y255693D01*
X262242Y256141D01*
X263170Y256854D01*
X263883Y257782D01*
X264331Y258863D01*
X264483Y260024D01*
Y262976D01*
X264331Y264137D01*
X263883Y265218D01*
X263170Y266146D01*
X262242Y266859D01*
X261160Y267307D01*
X260000Y267460D01*
D02*
G37*
G36*
X249500Y266187D02*
X249152Y266141D01*
X248362Y265813D01*
X247684Y265293D01*
X247163Y264614D01*
X246836Y263824D01*
X246724Y262976D01*
Y262000D01*
X249500D01*
Y266187D01*
D02*
G37*
G36*
X284500D02*
X284152Y266141D01*
X283362Y265813D01*
X282683Y265293D01*
X282163Y264614D01*
X281836Y263824D01*
X281724Y262976D01*
Y262000D01*
X284500D01*
Y266187D01*
D02*
G37*
G36*
X250500D02*
Y262000D01*
X253276D01*
Y262976D01*
X253164Y263824D01*
X252837Y264614D01*
X252316Y265293D01*
X251638Y265813D01*
X250848Y266141D01*
X250500Y266187D01*
D02*
G37*
G36*
X275000Y267460D02*
X273840Y267307D01*
X272758Y266859D01*
X271830Y266146D01*
X271117Y265218D01*
X270670Y264137D01*
X270517Y262976D01*
Y260024D01*
X270670Y258863D01*
X271117Y257782D01*
X271830Y256854D01*
X272758Y256141D01*
X273840Y255693D01*
X275000Y255540D01*
X276160Y255693D01*
X277242Y256141D01*
X278170Y256854D01*
X278883Y257782D01*
X279330Y258863D01*
X279483Y260024D01*
Y262976D01*
X279330Y264137D01*
X278883Y265218D01*
X278170Y266146D01*
X277242Y266859D01*
X276160Y267307D01*
X275000Y267460D01*
D02*
G37*
G36*
X249500Y261000D02*
X246724D01*
Y260024D01*
X246836Y259176D01*
X247163Y258386D01*
X247684Y257707D01*
X248362Y257187D01*
X249152Y256859D01*
X249500Y256813D01*
Y261000D01*
D02*
G37*
G36*
X284500D02*
X281724D01*
Y260024D01*
X281836Y259176D01*
X282163Y258386D01*
X282683Y257707D01*
X283362Y257187D01*
X284152Y256859D01*
X284500Y256813D01*
Y261000D01*
D02*
G37*
G36*
X253276D02*
X250500D01*
Y256813D01*
X250848Y256859D01*
X251638Y257187D01*
X252316Y257707D01*
X252837Y258386D01*
X253164Y259176D01*
X253276Y260024D01*
Y261000D01*
D02*
G37*
%LPD*%
D10*
X100957Y186500D02*
D03*
X108043D02*
D03*
X100957Y176500D02*
D03*
X108043D02*
D03*
X100957Y166500D02*
D03*
X108043D02*
D03*
X142043Y63500D02*
D03*
X134957D02*
D03*
X77043Y53000D02*
D03*
X69957D02*
D03*
X82457Y219000D02*
D03*
X89543D02*
D03*
X127043Y63500D02*
D03*
X119957D02*
D03*
X69957Y93500D02*
D03*
X77043D02*
D03*
X176957Y105000D02*
D03*
X184043D02*
D03*
Y75000D02*
D03*
X176957D02*
D03*
X198043Y105000D02*
D03*
X190957D02*
D03*
X82457Y234000D02*
D03*
X89543D02*
D03*
D11*
X162000Y152457D02*
D03*
Y159543D02*
D03*
X132000Y152457D02*
D03*
Y159543D02*
D03*
X93500Y76543D02*
D03*
Y69457D02*
D03*
X157200Y207357D02*
D03*
Y214443D02*
D03*
X167000Y207457D02*
D03*
Y214543D02*
D03*
X76000Y202457D02*
D03*
Y209543D02*
D03*
X211000Y212543D02*
D03*
Y205457D02*
D03*
X181000D02*
D03*
Y212543D02*
D03*
X68000Y209543D02*
D03*
Y202457D02*
D03*
D12*
X52000Y153201D02*
D03*
Y140799D02*
D03*
D13*
X62551Y118000D02*
D03*
X81449D02*
D03*
Y176000D02*
D03*
X62551D02*
D03*
D14*
X90201Y147000D02*
D03*
D15*
X65800Y137900D02*
D03*
Y147000D02*
D03*
Y156100D02*
D03*
D16*
X151413Y73500D02*
D03*
Y78500D02*
D03*
Y83500D02*
D03*
Y88500D02*
D03*
Y93500D02*
D03*
Y98500D02*
D03*
Y103500D02*
D03*
Y108500D02*
D03*
Y113500D02*
D03*
X115587Y73500D02*
D03*
Y78500D02*
D03*
Y83500D02*
D03*
Y88500D02*
D03*
Y93500D02*
D03*
Y98500D02*
D03*
Y103500D02*
D03*
Y108500D02*
D03*
Y113500D02*
D03*
D17*
X153000Y150794D02*
D03*
Y162606D02*
D03*
X142000Y150594D02*
D03*
Y162406D02*
D03*
D18*
X104000Y234091D02*
D03*
Y197909D02*
D03*
D19*
X66000Y63551D02*
D03*
X71000D02*
D03*
X76000D02*
D03*
X81000D02*
D03*
X66000Y82449D02*
D03*
X71000D02*
D03*
X76000D02*
D03*
X81000D02*
D03*
D20*
X181513Y145103D02*
D03*
X183740Y142876D02*
D03*
X185967Y140648D02*
D03*
X188194Y138421D02*
D03*
X190421Y136194D02*
D03*
X192648Y133967D02*
D03*
X194876Y131740D02*
D03*
X197103Y129513D02*
D03*
X220487Y152898D02*
D03*
X218260Y155125D02*
D03*
X216033Y157352D02*
D03*
X213806Y159579D02*
D03*
X211579Y161806D02*
D03*
X209352Y164033D02*
D03*
X207124Y166260D02*
D03*
X204897Y168487D02*
D03*
D21*
Y129513D02*
D03*
X207124Y131740D02*
D03*
X209352Y133967D02*
D03*
X211579Y136194D02*
D03*
X213806Y138421D02*
D03*
X216033Y140648D02*
D03*
X218260Y142876D02*
D03*
X220487Y145103D02*
D03*
X197103Y168487D02*
D03*
X194876Y166260D02*
D03*
X192648Y164033D02*
D03*
X190421Y161806D02*
D03*
X188194Y159579D02*
D03*
X185967Y157352D02*
D03*
X183740Y155125D02*
D03*
X181513Y152898D02*
D03*
D22*
X226425Y181417D02*
D03*
X228984D02*
D03*
X231543D02*
D03*
X234102D02*
D03*
X236661D02*
D03*
X239220D02*
D03*
X241779D02*
D03*
X244339D02*
D03*
X246898D02*
D03*
X249457D02*
D03*
X252016D02*
D03*
X254575D02*
D03*
X226425Y208583D02*
D03*
X228984D02*
D03*
X231543D02*
D03*
X234102D02*
D03*
X236661D02*
D03*
X239220D02*
D03*
X241779D02*
D03*
X244339D02*
D03*
X246898D02*
D03*
X249457D02*
D03*
X252016D02*
D03*
X254575D02*
D03*
X226425Y83917D02*
D03*
X228984D02*
D03*
X231543D02*
D03*
X234102D02*
D03*
X236661D02*
D03*
X239220D02*
D03*
X241779D02*
D03*
X244339D02*
D03*
X246898D02*
D03*
X249457D02*
D03*
X252016D02*
D03*
X254575D02*
D03*
X226425Y111083D02*
D03*
X228984D02*
D03*
X231543D02*
D03*
X234102D02*
D03*
X236661D02*
D03*
X239220D02*
D03*
X241779D02*
D03*
X244339D02*
D03*
X246898D02*
D03*
X249457D02*
D03*
X252016D02*
D03*
X254575D02*
D03*
D23*
X191669Y205850D02*
D03*
Y212150D02*
D03*
X200331Y205850D02*
D03*
Y212150D02*
D03*
D24*
X183650Y85669D02*
D03*
X177350D02*
D03*
X183650Y94331D02*
D03*
X177350D02*
D03*
D25*
X221680Y204400D02*
X226425D01*
X218260Y155300D02*
X219400D01*
X318500Y105700D02*
Y111083D01*
X89543Y221400D02*
X101300D01*
X69957Y91888D02*
X71000D01*
X307200Y7000D02*
X309500Y9300D01*
X276900Y7000D02*
X307200D01*
X274500Y9400D02*
X276900Y7000D01*
X180000Y212543D02*
Y261500D01*
X177350Y80493D02*
Y86800D01*
X179500Y7000D02*
Y15000D01*
X146000Y7000D02*
X179500D01*
X144500Y8500D02*
X146000Y7000D01*
X143000D02*
X144500Y8500D01*
X110300Y7000D02*
X143000D01*
X109500Y7800D02*
X110300Y7000D01*
X25500Y118000D02*
X29400Y114100D01*
X25000Y118500D02*
X25500Y118000D01*
X20000Y100000D02*
X24000Y104000D01*
X20000Y82400D02*
Y100000D01*
Y82400D02*
X39500Y62900D01*
X385200Y192500D02*
X387500Y190200D01*
Y159800D02*
Y190200D01*
X385200Y157500D02*
X387500Y159800D01*
X385200Y157500D02*
X387500Y155200D01*
Y124800D02*
Y155200D01*
X385200Y122500D02*
X387500Y124800D01*
X76000Y82449D02*
Y87400D01*
Y77400D02*
Y82449D01*
X385200Y122500D02*
X387500Y120200D01*
Y89800D02*
Y120200D01*
X385200Y87500D02*
X387500Y89800D01*
X371500Y109200D02*
X374800Y112500D01*
X371500Y80800D02*
Y109200D01*
Y80800D02*
X374800Y77500D01*
X371500Y144200D02*
X374800Y147500D01*
X371500Y115600D02*
Y144200D01*
Y115600D02*
X374600Y112500D01*
X371500Y179200D02*
X374800Y182500D01*
X371500Y150800D02*
Y179200D01*
Y150800D02*
X374800Y147500D01*
X365000Y246500D02*
Y261500D01*
X360500Y242000D02*
X365000Y246500D01*
X360500Y196800D02*
Y242000D01*
Y196800D02*
X374800Y182500D01*
X226425Y208583D02*
Y235100D01*
Y204400D02*
Y208583D01*
Y111083D02*
Y116525D01*
Y102725D02*
Y111083D01*
X374800Y112500D02*
X380000D01*
X374600D02*
X374800D01*
X325200Y41083D02*
X341200D01*
X320000D02*
X325200D01*
X192648Y134700D02*
X193400D01*
X137600Y221500D02*
X139000D01*
X130100D02*
X137600D01*
X130000D02*
X130100D01*
X129000Y220400D02*
X130100Y221500D01*
X125600Y217000D02*
X129000Y220400D01*
Y220500D01*
Y212900D02*
Y220400D01*
X138000Y209300D02*
Y211200D01*
Y204700D02*
Y209300D01*
Y193500D02*
Y204700D01*
X135102Y212198D02*
X137002D01*
X129702D02*
X135102D01*
X129202D02*
X129702D01*
X120000Y210300D02*
Y222200D01*
X69957Y96343D02*
Y101657D01*
X325200Y156083D02*
X325217D01*
X320000D02*
X325200D01*
X215000Y206200D02*
Y247531D01*
X260800Y160000D02*
X264500Y156300D01*
X213772Y205457D02*
X214257D01*
X211000D02*
X213772D01*
X256000Y83917D02*
Y86500D01*
X108043Y166186D02*
Y166500D01*
X50000Y176000D02*
X62551D01*
X40500D02*
X50000D01*
X185000Y139900D02*
X185967D01*
X184043Y129816D02*
X187627Y133400D01*
X186804Y94331D02*
X189200D01*
X134957Y39657D02*
Y63500D01*
X134500Y15000D02*
X134957Y39657D01*
X95344Y159543D02*
X132000D01*
X90201Y154400D02*
X95344Y159543D01*
X90201Y147000D02*
Y154400D01*
X190900Y131500D02*
X192648Y133967D01*
X190900Y116700D02*
Y131500D01*
Y116700D02*
X194000Y113600D01*
Y102300D02*
Y113600D01*
Y102300D02*
X197200Y99100D01*
X222800D01*
X226425Y102725D01*
X225000Y236525D02*
Y261500D01*
Y236525D02*
X226425Y235100D01*
X155000Y240200D02*
Y261500D01*
Y240200D02*
X157200Y238000D01*
Y214443D02*
Y238000D01*
X143500Y181200D02*
Y197000D01*
X142000Y179700D02*
X143500Y181200D01*
X142000Y162406D02*
Y179700D01*
X137194Y162406D02*
X142000D01*
X133100Y166500D02*
X137194Y162406D01*
X108043Y166500D02*
X133100D01*
X108043D02*
Y176500D01*
X104400Y162543D02*
X108043Y166186D01*
X82657Y162543D02*
X104400D01*
X69200Y176000D02*
X82657Y162543D01*
X62551Y176000D02*
X69200D01*
X62551Y159349D02*
Y176000D01*
Y159349D02*
X65800Y156100D01*
X25500Y118000D02*
X62551D01*
X180000Y212543D02*
X181000D01*
X320000Y191083D02*
X326400Y197483D01*
Y224883D01*
X325200Y226083D02*
X326400Y224883D01*
X320000Y226083D02*
X325200D01*
X254575Y166225D02*
Y181417D01*
X264500Y129400D02*
Y156300D01*
Y129400D02*
X268400Y125500D01*
X281300D01*
X281500Y151967D01*
X287000Y157467D01*
X52000Y153201D02*
Y161100D01*
X26100Y187000D02*
X52000Y161100D01*
X19500Y187000D02*
X26100D01*
X15000Y191500D02*
X19500Y187000D01*
X140500Y217000D02*
X143500D01*
X138500Y219000D02*
X140500Y217000D01*
X138500Y219000D02*
Y220600D01*
X137600Y221500D02*
X138500Y220600D01*
X125600Y215800D02*
Y217000D01*
Y215800D02*
X129202Y212198D01*
X137002D02*
X138000Y211200D01*
X135300Y190800D02*
X138000Y193500D01*
X132000Y190800D02*
X135300D01*
X119100Y203700D02*
X132000Y190800D01*
X101200Y203700D02*
X119100D01*
X99400Y201900D02*
X101200Y203700D01*
X99400Y188857D02*
Y201900D01*
Y188857D02*
X100957Y187300D01*
Y186500D02*
Y187300D01*
X50300Y147000D02*
X65800D01*
X48600Y145300D02*
X50300Y147000D01*
X48600Y137500D02*
Y145300D01*
Y137500D02*
X51949Y134151D01*
X66749D01*
X71600Y129300D01*
Y103300D02*
Y129300D01*
X69957Y101657D02*
X71600Y103300D01*
X85000Y251000D02*
Y261500D01*
Y251000D02*
X88300Y247700D01*
X104400D01*
X108600Y243500D01*
Y228700D02*
Y243500D01*
X101300Y221400D02*
X108600Y228700D01*
X89543Y219000D02*
Y221400D01*
X120000Y210300D02*
X127700Y202600D01*
X135900D01*
X138000Y204700D01*
X135102Y212198D02*
X138000Y209300D01*
X129000Y212900D02*
X129702Y212198D01*
X129000Y220500D02*
X130000Y221500D01*
X139000D02*
X143500Y217000D01*
X218260Y155125D02*
Y155300D01*
X219400D02*
X220000Y155900D01*
Y161555D01*
X218241Y163314D02*
X220000Y161555D01*
X218241Y163314D02*
Y200960D01*
X221680Y204400D01*
X64500Y15000D02*
Y20200D01*
X45500Y39200D02*
X64500Y20200D01*
X45500Y39200D02*
Y94200D01*
X50000Y98700D01*
X67600D01*
X69957Y96343D01*
Y93500D02*
Y96343D01*
X39500Y15000D02*
Y62900D01*
X24000Y104000D02*
X27500D01*
X29400Y105900D01*
Y114100D01*
X211579Y161806D02*
Y162779D01*
X216000Y167200D01*
Y203229D01*
X213772Y205457D02*
X216000Y203229D01*
X380000Y122500D02*
X385200D01*
X380000Y192500D02*
X385200D01*
X380000Y157500D02*
X385200D01*
X109500Y7800D02*
Y15000D01*
X45600Y180400D02*
X50000Y176000D01*
X45600Y180400D02*
Y221600D01*
X50000Y226000D01*
X325217Y156083D02*
X326400Y154900D01*
Y122283D02*
Y154900D01*
X325200Y121083D02*
X326400Y122283D01*
X319500Y15000D02*
Y21800D01*
X313300Y28000D02*
X319500Y21800D01*
X313300Y28000D02*
Y44383D01*
X320000Y51083D01*
X214257Y205457D02*
X215000Y206200D01*
X184043Y105000D02*
Y129816D01*
X185967Y139900D02*
Y140648D01*
X184200Y139100D02*
X185000Y139900D01*
X184200Y133827D02*
Y139100D01*
Y133827D02*
X184627Y133400D01*
X187627D01*
X190421Y136194D01*
X192648Y133967D02*
Y134700D01*
X193400D02*
X194400Y135700D01*
Y139417D01*
X191795Y142022D02*
X194400Y139417D01*
X188194Y138421D02*
X191795Y142022D01*
X190957Y96088D02*
Y105000D01*
X189200Y94331D02*
X190957Y96088D01*
X254575Y83917D02*
X256000D01*
Y86500D02*
X260800Y91300D01*
Y160000D01*
X254575Y166225D02*
X260800Y160000D01*
X183650Y94331D02*
X186804D01*
X188100Y93035D01*
Y53600D02*
Y93035D01*
X179500Y45000D02*
X188100Y53600D01*
X179500Y15000D02*
Y45000D01*
X374800Y182500D02*
X380000D01*
X144500Y8700D02*
Y15000D01*
X274500Y9400D02*
Y15000D01*
X309500Y9300D02*
Y15000D01*
X215000Y247531D02*
Y261500D01*
X191669Y224200D02*
X215000Y247531D01*
X191669Y212150D02*
Y224200D01*
X90201Y147000D02*
X103300D01*
X136800Y113500D01*
X151413D01*
X120000Y222200D02*
Y261500D01*
X116800Y219000D02*
X120000Y222200D01*
X89543Y219000D02*
X116800D01*
X25000Y191500D02*
X40500Y176000D01*
X81449D02*
Y197008D01*
X76000Y202457D02*
X81449Y197008D01*
X114000Y63500D02*
X119957D01*
X109500Y59000D02*
X114000Y63500D01*
X109500Y15000D02*
Y59000D01*
X344500Y15000D02*
Y37783D01*
X341200Y41083D02*
X344500Y37783D01*
X81449Y118000D02*
Y132600D01*
X76149Y137900D02*
X81449Y132600D01*
X65800Y137900D02*
X76149D01*
X89543Y234000D02*
Y238057D01*
X75000Y252600D02*
X89543Y238057D01*
X75000Y252600D02*
Y261500D01*
X69957Y91888D02*
Y93500D01*
X71000Y82449D02*
Y91888D01*
X76857Y76543D02*
X93500D01*
X76000Y77400D02*
X76857Y76543D01*
X40000Y236000D02*
Y261500D01*
Y236000D02*
X50000Y226000D01*
X147497Y162606D02*
X153000D01*
X147297Y162406D02*
X147497Y162606D01*
X142000Y162406D02*
X147297D01*
X10600Y187100D02*
X15000Y191500D01*
X10600Y122900D02*
Y187100D01*
Y122900D02*
X15000Y118500D01*
X320000Y76083D02*
X325217D01*
X326300Y75000D01*
Y42183D02*
Y75000D01*
X325200Y41083D02*
X326300Y42183D01*
X318500Y111083D02*
X320000D01*
X313700Y100900D02*
X318500Y105700D01*
X313700Y77183D02*
Y100900D01*
Y77183D02*
X314800Y76083D01*
X320000D01*
Y121083D02*
X325200D01*
X326300Y119983D01*
Y87000D02*
Y119983D01*
X325383Y86083D02*
X326300Y87000D01*
X320000Y86083D02*
X325383D01*
X374800Y77500D02*
X380000D01*
Y87500D02*
X385200D01*
X320000Y191083D02*
X325417D01*
X326300Y190200D01*
Y157183D02*
Y190200D01*
X325200Y156083D02*
X326300Y157183D01*
X374800Y147500D02*
X380000D01*
X60299Y137900D02*
X65800D01*
X57400Y140799D02*
X60299Y137900D01*
X52000Y140799D02*
X57400D01*
X127043Y63500D02*
X134957D01*
X91400Y176500D02*
X100957D01*
X90900Y176000D02*
X91400Y176500D01*
X81449Y176000D02*
X90900D01*
X100957Y176500D02*
Y186500D01*
Y166500D02*
Y176500D01*
X65800Y147000D02*
X90201D01*
X50000Y236000D02*
Y261500D01*
X162100Y214543D02*
X167000D01*
X162000Y214443D02*
X162100Y214543D01*
X157200Y214443D02*
X162000D01*
X104000Y194143D02*
Y197909D01*
Y194143D02*
X108043Y190100D01*
Y186500D02*
Y190100D01*
Y176500D02*
Y186500D01*
X77043Y88443D02*
Y93500D01*
X76000Y87400D02*
X77043Y88443D01*
X106043Y73500D02*
X115587D01*
X103000Y76543D02*
X106043Y73500D01*
X93500Y76543D02*
X103000D01*
X115587Y70670D02*
Y73500D01*
Y70670D02*
X119957Y66300D01*
Y63500D02*
Y66300D01*
X186493Y212150D02*
X191669D01*
X186100Y212543D02*
X186493Y212150D01*
X181000Y212543D02*
X186100D01*
X205793Y205457D02*
X211000D01*
X205400Y205850D02*
X205793Y205457D01*
X200331Y205850D02*
X205400D01*
X176957Y80100D02*
X177350Y80493D01*
X176957Y75000D02*
Y80100D01*
X183650Y93099D02*
Y94331D01*
X177350Y86800D02*
X183650Y93099D01*
X184043Y105000D02*
X190957D01*
D26*
X265500Y7000D02*
X269200Y10700D01*
X190300Y7000D02*
X265500D01*
X189500Y7800D02*
X190300Y7000D01*
X66200Y7500D02*
X69500Y10800D01*
X25900Y7500D02*
X66200D01*
X25900D02*
X27499Y9099D01*
X225700Y188700D02*
X226500Y187900D01*
Y181492D02*
Y187900D01*
X226425Y181417D02*
X226500Y181492D01*
X287800Y272000D02*
X289700Y270100D01*
X240500Y272000D02*
X287800D01*
X234800Y266300D02*
X240500Y272000D01*
X30000Y23402D02*
Y66500D01*
X14365Y82135D02*
X30000Y66500D01*
X10949Y85551D02*
X14365Y82135D01*
X10949Y85551D02*
Y94449D01*
X15000Y98500D01*
X24957Y18358D02*
X30000Y23402D01*
X24957Y11642D02*
Y18358D01*
Y11642D02*
X27499Y9099D01*
Y9099D02*
Y9099D01*
X232700Y160127D02*
X250827Y142000D01*
X249700Y138100D02*
X252016Y135784D01*
X232184Y155616D02*
X249700Y138100D01*
X258400Y93700D02*
Y97411D01*
X212400Y159500D02*
X213806D01*
X221977Y138300D02*
Y145103D01*
X218260Y142100D02*
X219800D01*
X104000Y229400D02*
Y230000D01*
X94600D02*
X104000D01*
X94000Y229400D02*
X104000D01*
X87057D02*
X94000D01*
X94600Y230000D01*
X86700Y222100D02*
X94000Y229400D01*
X169500Y182727D02*
Y207457D01*
Y173100D02*
Y182727D01*
X161000Y156600D02*
Y159543D01*
X249457Y123000D02*
Y129867D01*
Y111083D02*
Y123000D01*
X236661Y78145D02*
Y83917D01*
Y73700D02*
Y78145D01*
X204897Y122803D02*
Y129513D01*
Y122803D02*
X224600Y122500D01*
X250827Y142000D02*
X254575Y138252D01*
Y111083D02*
Y138252D01*
X232700Y160127D02*
Y163300D01*
X223600Y172400D02*
X232700Y163300D01*
X223600Y172400D02*
Y191000D01*
X225900Y193300D01*
X247600D01*
X254575Y200275D01*
Y208583D01*
X231100Y155616D02*
X232184D01*
X231100D02*
Y160800D01*
X222000Y169900D02*
X231100Y160800D01*
X222000Y169900D02*
Y192400D01*
X228600Y199000D01*
X250616D01*
X252016Y200400D01*
Y208583D01*
Y111083D02*
Y135784D01*
X180200Y103300D02*
Y139335D01*
X183740Y142875D01*
X181513Y144313D02*
Y145103D01*
X170400Y133200D02*
X181513Y144313D01*
X170400Y87700D02*
Y133200D01*
X168800Y86100D02*
X170400Y87700D01*
X252016Y161684D02*
Y181417D01*
Y161684D02*
X258400Y155300D01*
Y97411D02*
Y155300D01*
X252016Y91027D02*
X258400Y97411D01*
X252016Y83917D02*
Y91027D01*
X249457Y157000D02*
Y181417D01*
Y157000D02*
X256500Y150300D01*
Y102043D02*
Y150300D01*
X249457Y95000D02*
X256500Y102043D01*
X249457Y83917D02*
Y95000D01*
X213806Y159500D02*
Y159579D01*
X212300Y159400D02*
X212400Y159500D01*
X212300Y153100D02*
Y159400D01*
Y153100D02*
X216400Y149000D01*
X221200D01*
X224800Y145400D01*
Y131700D02*
Y145400D01*
X222100Y129000D02*
X224800Y131700D01*
X201643Y117000D02*
X221100D01*
X198043Y113400D02*
X201643Y117000D01*
X198043Y105000D02*
Y113400D01*
X145200Y93500D02*
X151413D01*
X141900Y96800D02*
X145200Y93500D01*
X141900Y96800D02*
Y108700D01*
X144400Y111200D01*
X157039D01*
Y115000D01*
X147400Y124639D02*
X157039Y115000D01*
X147400Y124639D02*
Y154900D01*
X151600Y159100D01*
X156900D01*
Y186488D01*
X148900Y194488D02*
X156900Y186488D01*
X148900Y194488D02*
Y201600D01*
X143500Y207000D02*
X148900Y201600D01*
X56457Y202457D02*
X68000D01*
X50000Y196000D02*
X56457Y202457D01*
X82457Y216000D02*
Y219000D01*
X76000Y209543D02*
X82457Y216000D01*
X50000Y206000D02*
Y209300D01*
X56600Y215900D01*
Y263800D01*
X60400Y267600D01*
X138000D01*
X139700Y265900D01*
Y248239D02*
Y265900D01*
Y248239D02*
X153739Y234200D01*
Y204947D02*
Y234200D01*
Y204947D02*
X166900Y191786D01*
Y170618D02*
Y191786D01*
Y170618D02*
X168246D01*
X172451Y166413D01*
Y161382D02*
Y166413D01*
Y161382D02*
X173034Y160800D01*
X178065D01*
X183740Y155125D01*
X169500Y182727D02*
X190421Y161806D01*
X167000Y207457D02*
X169500D01*
X175300Y181381D02*
X192648Y164033D01*
X175300Y181381D02*
Y206800D01*
X171600Y210500D02*
X175300Y206800D01*
X160343Y210500D02*
X171600D01*
X157200Y207357D02*
X160343Y210500D01*
X157200Y205500D02*
Y207357D01*
Y205500D02*
X159800Y202900D01*
X174500Y163517D02*
Y171400D01*
Y163517D02*
X175517Y162500D01*
X180294D01*
X185442Y157352D01*
X185967D01*
X197200Y212150D02*
X200331D01*
X196400Y211350D02*
X197200Y212150D01*
X196400Y174000D02*
Y211350D01*
X192000Y169600D02*
X196400Y174000D01*
X190300Y169600D02*
X192000D01*
X205400Y137810D02*
Y140500D01*
X197103Y129513D02*
X205400Y137810D01*
X205793Y212543D02*
X211000D01*
X200331Y212150D02*
X205793Y212543D01*
X69500Y10800D02*
Y26200D01*
X77043Y33743D01*
Y53000D01*
X25000Y98500D02*
X40600Y114100D01*
X69600D01*
Y126200D01*
X63500Y132300D02*
X69600Y126200D01*
X42500Y132300D02*
X63500D01*
X39000Y135800D02*
X42500Y132300D01*
X39000Y135800D02*
Y157500D01*
X25000Y171500D02*
X39000Y157500D01*
X145019Y108500D02*
X151413D01*
X143519Y107000D02*
X145019Y108500D01*
X143519Y99481D02*
Y107000D01*
Y99481D02*
X146900Y96100D01*
X156000D01*
X157100Y95000D01*
Y92600D02*
Y95000D01*
X155500Y91000D02*
X157100Y92600D01*
X146500Y91000D02*
X155500D01*
X142043Y86543D02*
X146500Y91000D01*
X142043Y63500D02*
Y86543D01*
X115587Y113500D02*
X120400D01*
X121300Y112600D01*
Y106900D02*
Y112600D01*
X120400Y106000D02*
X121300Y106900D01*
X100000Y106000D02*
X120400D01*
X81000Y87000D02*
X100000Y106000D01*
X81000Y82449D02*
Y87000D01*
X161000Y159543D02*
X162000D01*
X213600Y132000D02*
Y134173D01*
X211579Y136194D02*
X213600Y134173D01*
X207125Y166260D02*
Y167000D01*
X209200Y168300D01*
Y195600D01*
X225700Y153624D02*
X249457Y129867D01*
X225700Y153624D02*
Y160900D01*
X220200Y166400D02*
X225700Y160900D01*
X220200Y166400D02*
Y199600D01*
X221300Y200700D01*
X246857D01*
X249457Y203300D01*
Y208583D01*
X239220Y171422D02*
X240820Y169822D01*
X239220Y171422D02*
Y181417D01*
X205000Y261500D02*
Y267100D01*
X206000Y268100D01*
X216400D01*
X220400Y264100D01*
Y212700D02*
Y264100D01*
X234800Y161529D02*
X235300Y161029D01*
X234102Y173690D02*
X234800Y172993D01*
X234102Y173690D02*
Y181417D01*
X240000Y237300D02*
Y261500D01*
X231543Y187289D02*
X231754Y187500D01*
X231543Y181417D02*
Y187289D01*
X228984Y248284D02*
X231900Y251200D01*
X228984Y208583D02*
Y248284D01*
X345000Y256400D02*
Y261500D01*
X341200Y252600D02*
X345000Y256400D01*
X322133Y252600D02*
X341200D01*
X287000Y217467D02*
X322133Y252600D01*
X241780Y208583D02*
Y217780D01*
X246400Y222400D01*
X279600D01*
X281200Y220800D01*
Y207400D02*
Y220800D01*
Y207400D02*
X285300Y203300D01*
X288500D01*
X291051Y200749D01*
Y181518D02*
Y200749D01*
X287000Y177467D02*
X291051Y181518D01*
X282800Y171667D02*
X287000Y167467D01*
X282800Y171667D02*
Y191900D01*
X281284Y193416D02*
X282800Y191900D01*
X274000Y193416D02*
X281284D01*
X272900Y194516D02*
X274000Y193416D01*
X272900Y194516D02*
Y198861D01*
X256161Y215600D02*
X272900Y198861D01*
X246139Y215600D02*
X256161D01*
X244339Y213800D02*
X246139Y215600D01*
X244339Y208583D02*
Y213800D01*
X246898Y208583D02*
Y213100D01*
X247698Y213900D01*
X255600D01*
X270817Y198683D01*
Y193400D02*
Y198683D01*
Y193400D02*
X272417Y191800D01*
X279500D01*
X281200Y190100D01*
Y185500D02*
Y190100D01*
X279000Y183300D02*
X281200Y185500D01*
X275600Y183300D02*
X279000D01*
X272900Y180600D02*
X275600Y183300D01*
X272900Y134067D02*
Y180600D01*
Y134067D02*
X277000Y129967D01*
X273767Y119967D02*
X277000D01*
X268100Y114300D02*
X273767Y119967D01*
X268100Y83979D02*
Y114300D01*
X261121Y77000D02*
X268100Y83979D01*
X249998Y77000D02*
X261121D01*
X246898Y80100D02*
X249998Y77000D01*
X246898Y80100D02*
Y83917D01*
X259500Y15000D02*
Y48751D01*
X272949Y62200D01*
Y92449D01*
X274900Y94400D01*
X277200D01*
X281200Y98400D01*
Y105767D01*
X277000Y109967D02*
X281200Y105767D01*
X241780Y66680D02*
Y83917D01*
X224500Y49400D02*
X241780Y66680D01*
X224500Y15000D02*
Y41400D01*
X267600Y63850D02*
X271350Y67600D01*
Y94317D01*
X277000Y99967D01*
X189500Y15000D02*
Y50600D01*
X191200Y52300D01*
Y70791D01*
X216309Y95900D01*
X235100D01*
X239220Y91780D01*
Y83917D02*
Y91780D01*
X236661Y78145D02*
X239353Y75453D01*
X234100Y89400D02*
X234102Y89398D01*
Y83917D02*
Y89398D01*
X227100Y91700D02*
X228984Y89816D01*
Y83917D02*
Y89816D01*
X314200Y201083D02*
X320000D01*
X300400Y187283D02*
X314200Y201083D01*
X300400Y123367D02*
Y187283D01*
X287000Y109967D02*
X300400Y123367D01*
X231543Y105615D02*
Y111083D01*
Y105615D02*
X236159Y101000D01*
X245500D01*
X249900Y105400D01*
X236661Y106139D02*
X239700Y103100D01*
X236661Y106139D02*
Y111083D01*
X242580Y118200D02*
X246300D01*
X241780Y117400D02*
X242580Y118200D01*
X241780Y111083D02*
Y117400D01*
X181513Y151400D02*
Y152897D01*
Y151400D02*
X181613Y151300D01*
X188400D01*
X196800Y159700D01*
X151413Y98500D02*
X157100D01*
X158700Y100100D01*
Y121700D01*
X149000Y131400D02*
X158700Y121700D01*
X149000Y131400D02*
Y154200D01*
X152300Y157500D01*
X158500D01*
Y191498D01*
X150542Y199456D02*
X158500Y191498D01*
X150542Y199456D02*
Y208158D01*
X146700Y212000D02*
X150542Y208158D01*
X141498Y212000D02*
X146700D01*
X136498Y217000D02*
X141498Y212000D01*
X133500Y217000D02*
X136498D01*
X218260Y142100D02*
Y142875D01*
X219800Y131000D02*
Y142100D01*
X218200Y129400D02*
X219800Y131000D01*
X214400Y129400D02*
X218200D01*
X176700Y164985D02*
X181535D01*
X186941Y159579D01*
X188194D01*
X133500Y197000D02*
Y200100D01*
X133160Y200440D02*
X133500Y200100D01*
X125019Y200440D02*
X133160D01*
X118959Y206500D02*
X125019Y200440D01*
X96100Y206500D02*
X118959D01*
X86700Y215900D02*
X96100Y206500D01*
X86700Y215900D02*
Y222100D01*
X104000Y230000D02*
Y234091D01*
X151413Y88500D02*
X158701D01*
X166100Y95899D01*
Y168221D01*
X160100Y174221D02*
X166100Y168221D01*
X160100Y174221D02*
Y194041D01*
X152141Y202001D02*
X160100Y194041D01*
X152141Y202001D02*
Y215759D01*
X142800Y225100D02*
X152141Y215759D01*
X129800Y225100D02*
X142800D01*
X123600Y218900D02*
X129800Y225100D01*
X123600Y212700D02*
Y218900D01*
Y212700D02*
X129300Y207000D01*
X133500D01*
X169000Y172600D02*
X169500Y173100D01*
X15000Y181500D02*
X19100Y177400D01*
Y112600D02*
Y177400D01*
X15000Y108500D02*
X19100Y112600D01*
X20900D02*
X25000Y108500D01*
X20900Y112600D02*
Y177400D01*
X25000Y181500D01*
X115587Y78500D02*
X120800D01*
X122800Y76500D01*
Y44800D02*
Y76500D01*
Y44800D02*
X129400Y38200D01*
Y11000D02*
Y38200D01*
Y11000D02*
X131500Y8900D01*
X137000D01*
X139100Y11000D01*
Y19000D01*
X184043Y63943D01*
Y75000D01*
X174800Y105000D02*
X176957D01*
X173100Y103300D02*
X174800Y105000D01*
X173100Y87400D02*
Y103300D01*
X145600Y59900D02*
X173100Y87400D01*
X139700Y59900D02*
X145600D01*
X138600Y61000D02*
X139700Y59900D01*
X138600Y61000D02*
Y81700D01*
X136800Y83500D02*
X138600Y81700D01*
X115587Y83500D02*
X136800D01*
X151413D02*
X162200D01*
X167800Y89100D01*
Y145000D01*
X171800Y149000D01*
X185000D01*
X185700Y148300D01*
X203927D01*
X213806Y138421D01*
X236800Y169400D02*
Y175100D01*
Y169400D02*
X238600Y167600D01*
X244246D01*
X246898Y170252D01*
Y181417D01*
X226425Y83917D02*
Y85975D01*
X218900Y93500D02*
X226425Y85975D01*
X198900Y150700D02*
Y166690D01*
X197103Y168487D02*
X198900Y166690D01*
X242300Y174439D02*
X244339Y176477D01*
Y181417D01*
X228984Y176716D02*
Y181417D01*
Y176716D02*
X230201Y175499D01*
X287000Y217467D02*
Y220981D01*
X282800Y225181D02*
X287000Y220981D01*
X282800Y225181D02*
Y236200D01*
X289700Y243100D01*
Y270100D01*
X234800Y226500D02*
Y266300D01*
X231543Y223243D02*
X234800Y226500D01*
X231543Y208583D02*
Y223243D01*
X234102Y208583D02*
Y222102D01*
X262400Y250400D01*
X279800D01*
X281200Y249000D01*
Y224520D02*
Y249000D01*
Y224520D02*
X282900Y222820D01*
Y211567D02*
Y222820D01*
Y211567D02*
X287000Y207467D01*
X236661Y208583D02*
Y213900D01*
X238061Y215300D01*
X257600Y217200D02*
X271600Y203200D01*
X281267D01*
X287000Y197467D01*
X239220Y203571D02*
Y208583D01*
X238449Y202800D02*
X239220Y203571D01*
X364500Y15000D02*
Y26400D01*
X335400Y55500D02*
X364500Y26400D01*
X335400Y55500D02*
Y238100D01*
X332700Y240800D02*
X335400Y238100D01*
X315700Y240800D02*
X332700D01*
X292650Y217750D02*
X315700Y240800D01*
X292650Y173117D02*
Y217750D01*
X287000Y167467D02*
X292650Y173117D01*
X294500Y15000D02*
Y69600D01*
X288300Y75800D02*
X294500Y69600D01*
X285300Y75800D02*
X288300D01*
X282800Y78300D02*
X285300Y75800D01*
X282800Y78300D02*
Y114167D01*
X277000Y119967D02*
X282800Y114167D01*
X189500Y7800D02*
Y15000D01*
X269200Y10700D02*
Y18400D01*
X281200Y30400D01*
Y85767D01*
X277000Y89967D02*
X281200Y85767D01*
X231543Y75643D02*
Y83917D01*
X219800Y63900D02*
X231543Y75643D01*
X219800Y11300D02*
Y63900D01*
Y11300D02*
X222200Y8900D01*
X261700D01*
X267000Y14200D01*
Y49967D01*
X277000Y59967D01*
X314917Y236083D02*
X320000D01*
X294300Y215465D02*
X314917Y236083D01*
X294300Y127267D02*
Y215465D01*
X287000Y119967D02*
X294300Y127267D01*
X233567Y121183D02*
X240400D01*
X228984Y116600D02*
X233567Y121183D01*
X228984Y111083D02*
Y116600D01*
X234102Y111083D02*
Y116600D01*
X235002Y117500D01*
X239600D01*
X239220Y106680D02*
Y111083D01*
Y106680D02*
X240400Y105500D01*
X242900D01*
X244339Y77861D02*
Y83917D01*
Y77861D02*
X248400Y73800D01*
X267600D01*
X269752Y75952D01*
Y97552D01*
X272500Y100300D01*
Y105467D01*
X277000Y109967D01*
X246057Y126400D02*
X249457Y123000D01*
X212465Y126400D02*
X246057D01*
X207125Y131740D02*
X212465Y126400D01*
X220487Y145103D02*
X221977D01*
X191669Y173469D02*
Y205850D01*
X191600Y173400D02*
X191669Y173469D01*
X198800Y135665D02*
Y143300D01*
X194875Y131740D02*
X198800Y135665D01*
X204897Y168487D02*
Y187100D01*
X146800Y103500D02*
X151413D01*
X145700Y104600D02*
X146800Y103500D01*
X145700Y104600D02*
Y105700D01*
X217600Y132700D02*
Y139081D01*
X216033Y140648D02*
X217600Y139081D01*
X240700Y188400D02*
X241780Y187320D01*
Y181417D02*
Y187320D01*
X268633Y187467D02*
X277000D01*
X265400Y190700D02*
X268633Y187467D01*
X237961Y190700D02*
X265400D01*
X236661Y189400D02*
X237961Y190700D01*
X236661Y181417D02*
Y189400D01*
X223484Y154200D02*
Y158500D01*
X222182Y152897D02*
X223484Y154200D01*
X220487Y152897D02*
X222182D01*
X287000Y89967D02*
X299633D01*
X310300Y100634D01*
Y130200D01*
X311183Y131083D01*
X320000D01*
X287000Y99967D02*
X300967D01*
X306900Y105900D01*
Y161400D01*
X311583Y166083D01*
X320000D01*
X53200Y53000D02*
X69957D01*
X50000Y56200D02*
X53200Y53000D01*
X50000Y56200D02*
Y82000D01*
X234800Y161529D02*
Y172993D01*
X84300Y108500D02*
X115587D01*
X73500Y97700D02*
X84300Y108500D01*
X73500Y78100D02*
Y97700D01*
X72400Y77000D02*
X73500Y78100D01*
X66800Y77000D02*
X72400D01*
X66000Y77800D02*
X66800Y77000D01*
X66000Y77800D02*
Y82449D01*
X82457Y234000D02*
X87057Y229400D01*
X50000Y92000D02*
X57700Y84300D01*
Y82300D02*
Y84300D01*
Y82300D02*
X71000Y69000D01*
Y63551D02*
Y69000D01*
X310000Y250467D02*
Y261500D01*
X287000Y227467D02*
X310000Y250467D01*
X81857Y69457D02*
X93500D01*
X81000Y68600D02*
X81857Y69457D01*
X81000Y63551D02*
Y68600D01*
X137863Y150594D02*
X142000D01*
X136000Y152457D02*
X137863Y150594D01*
X132000Y152457D02*
X136000D01*
X82457Y219000D02*
Y234000D01*
X68000Y209543D02*
X76000D01*
X186493Y205850D02*
X191669D01*
X186100Y205457D02*
X186493Y205850D01*
X181000Y205457D02*
X186100D01*
X76000Y58743D02*
Y63551D01*
Y58743D02*
X77043Y57700D01*
Y53000D02*
Y57700D01*
X183650Y80493D02*
Y85669D01*
Y80493D02*
X184043Y80100D01*
Y75000D02*
Y80100D01*
X176957Y99793D02*
Y105000D01*
Y99793D02*
X177350Y99400D01*
Y94331D02*
Y99400D01*
X158263Y152457D02*
X162000D01*
X156600Y150794D02*
X158263Y152457D01*
X153000Y150794D02*
X156600D01*
X224500Y41500D02*
X246850Y63850D01*
X267600D01*
X224500Y41600D02*
Y49400D01*
Y49500D01*
D27*
X50000Y261500D02*
D03*
X40000D02*
D03*
X30000D02*
D03*
X85000D02*
D03*
X75000D02*
D03*
X65000D02*
D03*
X120000D02*
D03*
X110000D02*
D03*
X100000D02*
D03*
X155000D02*
D03*
X145000D02*
D03*
X135000D02*
D03*
X330000D02*
D03*
X320000D02*
D03*
X310000D02*
D03*
X190000D02*
D03*
X180000D02*
D03*
X170000D02*
D03*
X225000D02*
D03*
X215000D02*
D03*
X205000D02*
D03*
X260000D02*
D03*
X250000D02*
D03*
X240000D02*
D03*
X295000D02*
D03*
X285000D02*
D03*
X275000D02*
D03*
X365000D02*
D03*
X355000D02*
D03*
X345000D02*
D03*
X29500Y15000D02*
D03*
X39500D02*
D03*
X49500D02*
D03*
X64500D02*
D03*
X74500D02*
D03*
X84500D02*
D03*
X99500D02*
D03*
X109500D02*
D03*
X119500D02*
D03*
X134500D02*
D03*
X144500D02*
D03*
X154500D02*
D03*
X169500D02*
D03*
X179500D02*
D03*
X189500D02*
D03*
X204500D02*
D03*
X214500D02*
D03*
X224500D02*
D03*
X239500D02*
D03*
X249500D02*
D03*
X259500D02*
D03*
X274500D02*
D03*
X284500D02*
D03*
X294500D02*
D03*
X309500D02*
D03*
X319500D02*
D03*
X329500D02*
D03*
X344500D02*
D03*
X354500D02*
D03*
X364500D02*
D03*
D28*
X50000Y186000D02*
D03*
Y196000D02*
D03*
Y206000D02*
D03*
Y216000D02*
D03*
Y226000D02*
D03*
X287000Y59967D02*
D03*
Y69967D02*
D03*
Y79967D02*
D03*
Y89967D02*
D03*
Y99967D02*
D03*
Y109967D02*
D03*
Y119967D02*
D03*
Y129967D02*
D03*
X277000Y59967D02*
D03*
Y69967D02*
D03*
Y79967D02*
D03*
Y89967D02*
D03*
Y99967D02*
D03*
Y109967D02*
D03*
Y119967D02*
D03*
X287000Y157467D02*
D03*
Y167467D02*
D03*
Y177467D02*
D03*
Y187467D02*
D03*
Y197467D02*
D03*
Y207467D02*
D03*
Y217467D02*
D03*
Y227467D02*
D03*
X277000Y157467D02*
D03*
Y167467D02*
D03*
Y177467D02*
D03*
Y187467D02*
D03*
Y197467D02*
D03*
Y207467D02*
D03*
Y217467D02*
D03*
X143500Y217000D02*
D03*
X133500Y207000D02*
D03*
X143500D02*
D03*
X133500Y197000D02*
D03*
X143500D02*
D03*
X50000Y92000D02*
D03*
X25000Y191500D02*
D03*
X15000Y181500D02*
D03*
X25000D02*
D03*
X15000Y171500D02*
D03*
X25000D02*
D03*
X15000Y161500D02*
D03*
X25000D02*
D03*
Y118500D02*
D03*
X15000Y108500D02*
D03*
X25000D02*
D03*
X15000Y98500D02*
D03*
X25000D02*
D03*
X15000Y88500D02*
D03*
X25000D02*
D03*
D29*
X50000Y236000D02*
D03*
X277000Y129967D02*
D03*
Y227467D02*
D03*
X133500Y217000D02*
D03*
X50000Y82000D02*
D03*
X15000Y191500D02*
D03*
Y118500D02*
D03*
D30*
X320000Y41083D02*
D03*
Y51083D02*
D03*
Y61083D02*
D03*
Y76083D02*
D03*
Y86083D02*
D03*
Y96083D02*
D03*
Y111083D02*
D03*
Y121083D02*
D03*
Y131083D02*
D03*
Y146083D02*
D03*
Y156083D02*
D03*
Y166083D02*
D03*
Y216083D02*
D03*
Y226083D02*
D03*
Y236083D02*
D03*
Y181083D02*
D03*
Y191083D02*
D03*
Y201083D02*
D03*
X380000Y77500D02*
D03*
Y87500D02*
D03*
Y97500D02*
D03*
Y112500D02*
D03*
Y122500D02*
D03*
Y132500D02*
D03*
Y147500D02*
D03*
Y157500D02*
D03*
Y167500D02*
D03*
Y182500D02*
D03*
Y192500D02*
D03*
Y202500D02*
D03*
D31*
X15748Y55118D02*
D03*
X374016D02*
D03*
X15748Y224409D02*
D03*
X374016D02*
D03*
D32*
X224600Y122500D02*
D03*
X250827Y142000D02*
D03*
X249700Y138100D02*
D03*
X180200Y103300D02*
D03*
X168800Y86100D02*
D03*
X258400Y93700D02*
D03*
X226425Y116525D02*
D03*
X222100Y129000D02*
D03*
X221100Y117000D02*
D03*
X159800Y202900D02*
D03*
X174500Y171400D02*
D03*
X190300Y169600D02*
D03*
X205400Y140500D02*
D03*
X161000Y156600D02*
D03*
X213600Y132000D02*
D03*
X209200Y195600D02*
D03*
X240820Y169822D02*
D03*
X220400Y212700D02*
D03*
X240000Y237300D02*
D03*
X231754Y187500D02*
D03*
X231900Y251200D02*
D03*
X236661Y73700D02*
D03*
X239353Y75453D02*
D03*
X234100Y89400D02*
D03*
X227100Y91700D02*
D03*
X249900Y105400D02*
D03*
X239700Y103100D02*
D03*
X246300Y118200D02*
D03*
X196800Y159700D02*
D03*
X249457Y157000D02*
D03*
X214400Y129400D02*
D03*
X176700Y164985D02*
D03*
X169000Y172600D02*
D03*
X236800Y175100D02*
D03*
X218900Y93500D02*
D03*
X198900Y150700D02*
D03*
X242300Y174439D02*
D03*
X230201Y175499D02*
D03*
X238061Y215300D02*
D03*
X257600Y217200D02*
D03*
X238449Y202800D02*
D03*
X240400Y121183D02*
D03*
X239600Y117500D02*
D03*
X242900Y105500D02*
D03*
X221977Y138300D02*
D03*
X191600Y173400D02*
D03*
X198800Y143300D02*
D03*
X225700Y188700D02*
D03*
X204897Y187100D02*
D03*
X145700Y105700D02*
D03*
X217600Y132700D02*
D03*
X240700Y188400D02*
D03*
X223484Y158500D02*
D03*
X235300Y161029D02*
D03*
M02*
