G04 Layer_Color=8388736*
%FSLAX25Y25*%
%MOIN*%
G70*
G01*
G75*
%ADD40R,0.03950X0.05524*%
%ADD41R,0.05524X0.03950*%
%ADD42R,0.04540X0.04343*%
%ADD43R,0.12611X0.06312*%
%ADD44R,0.09461X0.14973*%
%ADD45R,0.09600X0.05600*%
%ADD46O,0.09855X0.03162*%
%ADD47R,0.06312X0.05524*%
G04:AMPARAMS|DCode=48|XSize=70.99mil|YSize=94.22mil|CornerRadius=19.75mil|HoleSize=0mil|Usage=FLASHONLY|Rotation=0.000|XOffset=0mil|YOffset=0mil|HoleType=Round|Shape=RoundedRectangle|*
%AMROUNDEDRECTD48*
21,1,0.07099,0.05472,0,0,0.0*
21,1,0.03150,0.09422,0,0,0.0*
1,1,0.03950,0.01575,-0.02736*
1,1,0.03950,-0.01575,-0.02736*
1,1,0.03950,-0.01575,0.02736*
1,1,0.03950,0.01575,0.02736*
%
%ADD48ROUNDEDRECTD48*%
%ADD49O,0.03162X0.09461*%
G04:AMPARAMS|DCode=50|XSize=29.65mil|YSize=72.96mil|CornerRadius=0mil|HoleSize=0mil|Usage=FLASHONLY|Rotation=135.000|XOffset=0mil|YOffset=0mil|HoleType=Round|Shape=Round|*
%AMOVALD50*
21,1,0.04331,0.02965,0.00000,0.00000,225.0*
1,1,0.02965,0.01531,0.01531*
1,1,0.02965,-0.01531,-0.01531*
%
%ADD50OVALD50*%

G04:AMPARAMS|DCode=51|XSize=29.65mil|YSize=72.96mil|CornerRadius=0mil|HoleSize=0mil|Usage=FLASHONLY|Rotation=45.000|XOffset=0mil|YOffset=0mil|HoleType=Round|Shape=Round|*
%AMOVALD51*
21,1,0.04331,0.02965,0.00000,0.00000,135.0*
1,1,0.02965,0.01531,-0.01531*
1,1,0.02965,-0.01531,0.01531*
%
%ADD51OVALD51*%

%ADD52O,0.02178X0.09068*%
%ADD53R,0.06312X0.05524*%
%ADD54R,0.05524X0.06312*%
%ADD55O,0.07690X0.10642*%
%ADD56C,0.06706*%
%ADD57R,0.06706X0.06706*%
%ADD58O,0.10642X0.07690*%
%ADD59C,0.24422*%
%ADD60C,0.02768*%
D40*
X100957Y186500D02*
D03*
X108043D02*
D03*
X100957Y176500D02*
D03*
X108043D02*
D03*
X100957Y166500D02*
D03*
X108043D02*
D03*
X142043Y63500D02*
D03*
X134957D02*
D03*
X77043Y53000D02*
D03*
X69957D02*
D03*
X82457Y219000D02*
D03*
X89543D02*
D03*
X127043Y63500D02*
D03*
X119957D02*
D03*
X69957Y93500D02*
D03*
X77043D02*
D03*
X176957Y105000D02*
D03*
X184043D02*
D03*
Y75000D02*
D03*
X176957D02*
D03*
X198043Y105000D02*
D03*
X190957D02*
D03*
X82457Y234000D02*
D03*
X89543D02*
D03*
D41*
X162000Y152457D02*
D03*
Y159543D02*
D03*
X132000Y152457D02*
D03*
Y159543D02*
D03*
X93500Y76543D02*
D03*
Y69457D02*
D03*
X157200Y207357D02*
D03*
Y214443D02*
D03*
X167000Y207457D02*
D03*
Y214543D02*
D03*
X76000Y202457D02*
D03*
Y209543D02*
D03*
X211000Y212543D02*
D03*
Y205457D02*
D03*
X181000D02*
D03*
Y212543D02*
D03*
X68000Y209543D02*
D03*
Y202457D02*
D03*
D42*
X52000Y153201D02*
D03*
Y140799D02*
D03*
D43*
X62551Y118000D02*
D03*
X81449D02*
D03*
Y176000D02*
D03*
X62551D02*
D03*
D44*
X90201Y147000D02*
D03*
D45*
X65800Y137900D02*
D03*
Y147000D02*
D03*
Y156100D02*
D03*
D46*
X151413Y73500D02*
D03*
Y78500D02*
D03*
Y83500D02*
D03*
Y88500D02*
D03*
Y93500D02*
D03*
Y98500D02*
D03*
Y103500D02*
D03*
Y108500D02*
D03*
Y113500D02*
D03*
X115587Y73500D02*
D03*
Y78500D02*
D03*
Y83500D02*
D03*
Y88500D02*
D03*
Y93500D02*
D03*
Y98500D02*
D03*
Y103500D02*
D03*
Y108500D02*
D03*
Y113500D02*
D03*
D47*
X153000Y150794D02*
D03*
Y162606D02*
D03*
X142000Y150594D02*
D03*
Y162406D02*
D03*
D48*
X104000Y234091D02*
D03*
Y197909D02*
D03*
D49*
X66000Y63551D02*
D03*
X71000D02*
D03*
X76000D02*
D03*
X81000D02*
D03*
X66000Y82449D02*
D03*
X71000D02*
D03*
X76000D02*
D03*
X81000D02*
D03*
D50*
X181513Y145103D02*
D03*
X183740Y142876D02*
D03*
X185967Y140648D02*
D03*
X188194Y138421D02*
D03*
X190421Y136194D02*
D03*
X192648Y133967D02*
D03*
X194876Y131740D02*
D03*
X197103Y129513D02*
D03*
X220487Y152898D02*
D03*
X218260Y155125D02*
D03*
X216033Y157352D02*
D03*
X213806Y159579D02*
D03*
X211579Y161806D02*
D03*
X209352Y164033D02*
D03*
X207124Y166260D02*
D03*
X204897Y168487D02*
D03*
D51*
Y129513D02*
D03*
X207124Y131740D02*
D03*
X209352Y133967D02*
D03*
X211579Y136194D02*
D03*
X213806Y138421D02*
D03*
X216033Y140648D02*
D03*
X218260Y142876D02*
D03*
X220487Y145103D02*
D03*
X197103Y168487D02*
D03*
X194876Y166260D02*
D03*
X192648Y164033D02*
D03*
X190421Y161806D02*
D03*
X188194Y159579D02*
D03*
X185967Y157352D02*
D03*
X183740Y155125D02*
D03*
X181513Y152898D02*
D03*
D52*
X226425Y181417D02*
D03*
X228984D02*
D03*
X231543D02*
D03*
X234102D02*
D03*
X236661D02*
D03*
X239220D02*
D03*
X241779D02*
D03*
X244339D02*
D03*
X246898D02*
D03*
X249457D02*
D03*
X252016D02*
D03*
X254575D02*
D03*
X226425Y208583D02*
D03*
X228984D02*
D03*
X231543D02*
D03*
X234102D02*
D03*
X236661D02*
D03*
X239220D02*
D03*
X241779D02*
D03*
X244339D02*
D03*
X246898D02*
D03*
X249457D02*
D03*
X252016D02*
D03*
X254575D02*
D03*
X226425Y83917D02*
D03*
X228984D02*
D03*
X231543D02*
D03*
X234102D02*
D03*
X236661D02*
D03*
X239220D02*
D03*
X241779D02*
D03*
X244339D02*
D03*
X246898D02*
D03*
X249457D02*
D03*
X252016D02*
D03*
X254575D02*
D03*
X226425Y111083D02*
D03*
X228984D02*
D03*
X231543D02*
D03*
X234102D02*
D03*
X236661D02*
D03*
X239220D02*
D03*
X241779D02*
D03*
X244339D02*
D03*
X246898D02*
D03*
X249457D02*
D03*
X252016D02*
D03*
X254575D02*
D03*
D53*
X191669Y205850D02*
D03*
Y212150D02*
D03*
X200331Y205850D02*
D03*
Y212150D02*
D03*
D54*
X183650Y85669D02*
D03*
X177350D02*
D03*
X183650Y94331D02*
D03*
X177350D02*
D03*
D55*
X50000Y261500D02*
D03*
X40000D02*
D03*
X30000D02*
D03*
X85000D02*
D03*
X75000D02*
D03*
X65000D02*
D03*
X120000D02*
D03*
X110000D02*
D03*
X100000D02*
D03*
X155000D02*
D03*
X145000D02*
D03*
X135000D02*
D03*
X330000D02*
D03*
X320000D02*
D03*
X310000D02*
D03*
X190000D02*
D03*
X180000D02*
D03*
X170000D02*
D03*
X225000D02*
D03*
X215000D02*
D03*
X205000D02*
D03*
X260000D02*
D03*
X250000D02*
D03*
X240000D02*
D03*
X295000D02*
D03*
X285000D02*
D03*
X275000D02*
D03*
X365000D02*
D03*
X355000D02*
D03*
X345000D02*
D03*
X29500Y15000D02*
D03*
X39500D02*
D03*
X49500D02*
D03*
X64500D02*
D03*
X74500D02*
D03*
X84500D02*
D03*
X99500D02*
D03*
X109500D02*
D03*
X119500D02*
D03*
X134500D02*
D03*
X144500D02*
D03*
X154500D02*
D03*
X169500D02*
D03*
X179500D02*
D03*
X189500D02*
D03*
X204500D02*
D03*
X214500D02*
D03*
X224500D02*
D03*
X239500D02*
D03*
X249500D02*
D03*
X259500D02*
D03*
X274500D02*
D03*
X284500D02*
D03*
X294500D02*
D03*
X309500D02*
D03*
X319500D02*
D03*
X329500D02*
D03*
X344500D02*
D03*
X354500D02*
D03*
X364500D02*
D03*
D56*
X50000Y186000D02*
D03*
Y196000D02*
D03*
Y206000D02*
D03*
Y216000D02*
D03*
Y226000D02*
D03*
X287000Y59967D02*
D03*
Y69967D02*
D03*
Y79967D02*
D03*
Y89967D02*
D03*
Y99967D02*
D03*
Y109967D02*
D03*
Y119967D02*
D03*
Y129967D02*
D03*
X277000Y59967D02*
D03*
Y69967D02*
D03*
Y79967D02*
D03*
Y89967D02*
D03*
Y99967D02*
D03*
Y109967D02*
D03*
Y119967D02*
D03*
X287000Y157467D02*
D03*
Y167467D02*
D03*
Y177467D02*
D03*
Y187467D02*
D03*
Y197467D02*
D03*
Y207467D02*
D03*
Y217467D02*
D03*
Y227467D02*
D03*
X277000Y157467D02*
D03*
Y167467D02*
D03*
Y177467D02*
D03*
Y187467D02*
D03*
Y197467D02*
D03*
Y207467D02*
D03*
Y217467D02*
D03*
X143500Y217000D02*
D03*
X133500Y207000D02*
D03*
X143500D02*
D03*
X133500Y197000D02*
D03*
X143500D02*
D03*
X50000Y92000D02*
D03*
X25000Y191500D02*
D03*
X15000Y181500D02*
D03*
X25000D02*
D03*
X15000Y171500D02*
D03*
X25000D02*
D03*
X15000Y161500D02*
D03*
X25000D02*
D03*
Y118500D02*
D03*
X15000Y108500D02*
D03*
X25000D02*
D03*
X15000Y98500D02*
D03*
X25000D02*
D03*
X15000Y88500D02*
D03*
X25000D02*
D03*
D57*
X50000Y236000D02*
D03*
X277000Y129967D02*
D03*
Y227467D02*
D03*
X133500Y217000D02*
D03*
X50000Y82000D02*
D03*
X15000Y191500D02*
D03*
Y118500D02*
D03*
D58*
X320000Y41083D02*
D03*
Y51083D02*
D03*
Y61083D02*
D03*
Y76083D02*
D03*
Y86083D02*
D03*
Y96083D02*
D03*
Y111083D02*
D03*
Y121083D02*
D03*
Y131083D02*
D03*
Y146083D02*
D03*
Y156083D02*
D03*
Y166083D02*
D03*
Y216083D02*
D03*
Y226083D02*
D03*
Y236083D02*
D03*
Y181083D02*
D03*
Y191083D02*
D03*
Y201083D02*
D03*
X380000Y77500D02*
D03*
Y87500D02*
D03*
Y97500D02*
D03*
Y112500D02*
D03*
Y122500D02*
D03*
Y132500D02*
D03*
Y147500D02*
D03*
Y157500D02*
D03*
Y167500D02*
D03*
Y182500D02*
D03*
Y192500D02*
D03*
Y202500D02*
D03*
D59*
X15748Y55118D02*
D03*
X374016D02*
D03*
X15748Y224409D02*
D03*
X374016D02*
D03*
D60*
X224600Y122500D02*
D03*
X250827Y142000D02*
D03*
X249700Y138100D02*
D03*
X180200Y103300D02*
D03*
X168800Y86100D02*
D03*
X258400Y93700D02*
D03*
X226425Y116525D02*
D03*
X222100Y129000D02*
D03*
X221100Y117000D02*
D03*
X159800Y202900D02*
D03*
X174500Y171400D02*
D03*
X190300Y169600D02*
D03*
X205400Y140500D02*
D03*
X161000Y156600D02*
D03*
X213600Y132000D02*
D03*
X209200Y195600D02*
D03*
X240820Y169822D02*
D03*
X220400Y212700D02*
D03*
X240000Y237300D02*
D03*
X231754Y187500D02*
D03*
X231900Y251200D02*
D03*
X236661Y73700D02*
D03*
X239353Y75453D02*
D03*
X234100Y89400D02*
D03*
X227100Y91700D02*
D03*
X249900Y105400D02*
D03*
X239700Y103100D02*
D03*
X246300Y118200D02*
D03*
X196800Y159700D02*
D03*
X249457Y157000D02*
D03*
X214400Y129400D02*
D03*
X176700Y164985D02*
D03*
X169000Y172600D02*
D03*
X236800Y175100D02*
D03*
X218900Y93500D02*
D03*
X198900Y150700D02*
D03*
X242300Y174439D02*
D03*
X230201Y175499D02*
D03*
X238061Y215300D02*
D03*
X257600Y217200D02*
D03*
X238449Y202800D02*
D03*
X240400Y121183D02*
D03*
X239600Y117500D02*
D03*
X242900Y105500D02*
D03*
X221977Y138300D02*
D03*
X191600Y173400D02*
D03*
X198800Y143300D02*
D03*
X225700Y188700D02*
D03*
X204897Y187100D02*
D03*
X145700Y105700D02*
D03*
X217600Y132700D02*
D03*
X240700Y188400D02*
D03*
X223484Y158500D02*
D03*
X235300Y161029D02*
D03*
M02*
