G04 Layer_Color=8388736*
%FSLAX25Y25*%
%MOIN*%
G70*
G01*
G75*
%ADD66R,0.03950X0.05524*%
%ADD67R,0.05524X0.03950*%
%ADD68R,0.04540X0.04343*%
%ADD69R,0.12611X0.06312*%
%ADD70R,0.09461X0.14973*%
%ADD71R,0.09600X0.05600*%
%ADD72O,0.09855X0.03162*%
%ADD73R,0.06312X0.05524*%
G04:AMPARAMS|DCode=74|XSize=70.99mil|YSize=94.22mil|CornerRadius=19.75mil|HoleSize=0mil|Usage=FLASHONLY|Rotation=360.000|XOffset=0mil|YOffset=0mil|HoleType=Round|Shape=RoundedRectangle|*
%AMROUNDEDRECTD74*
21,1,0.07099,0.05472,0,0,360.0*
21,1,0.03150,0.09422,0,0,360.0*
1,1,0.03950,0.01575,-0.02736*
1,1,0.03950,-0.01575,-0.02736*
1,1,0.03950,-0.01575,0.02736*
1,1,0.03950,0.01575,0.02736*
%
%ADD74ROUNDEDRECTD74*%
%ADD75O,0.03162X0.09461*%
G04:AMPARAMS|DCode=76|XSize=29.65mil|YSize=72.96mil|CornerRadius=0mil|HoleSize=0mil|Usage=FLASHONLY|Rotation=135.000|XOffset=0mil|YOffset=0mil|HoleType=Round|Shape=Round|*
%AMOVALD76*
21,1,0.04331,0.02965,0.00000,0.00000,225.0*
1,1,0.02965,0.01531,0.01531*
1,1,0.02965,-0.01531,-0.01531*
%
%ADD76OVALD76*%

G04:AMPARAMS|DCode=77|XSize=29.65mil|YSize=72.96mil|CornerRadius=0mil|HoleSize=0mil|Usage=FLASHONLY|Rotation=45.000|XOffset=0mil|YOffset=0mil|HoleType=Round|Shape=Round|*
%AMOVALD77*
21,1,0.04331,0.02965,0.00000,0.00000,135.0*
1,1,0.02965,0.01531,-0.01531*
1,1,0.02965,-0.01531,0.01531*
%
%ADD77OVALD77*%

%ADD78O,0.02178X0.09068*%
%ADD79R,0.06312X0.05524*%
%ADD80R,0.05524X0.06312*%
%ADD81R,0.05209X0.01863*%
%ADD82R,0.12611X0.06312*%
%ADD83R,0.05800X0.03300*%
%ADD84R,0.03950X0.05524*%
%ADD85R,0.06706X0.10249*%
%ADD86R,0.06706X0.04934*%
%ADD87R,0.04343X0.04540*%
%ADD88O,0.07690X0.10642*%
%ADD89C,0.06706*%
%ADD90R,0.06706X0.06706*%
%ADD91O,0.10642X0.07690*%
%ADD92C,0.24422*%
%ADD93C,0.02768*%
%ADD94R,0.06706X0.06706*%
%ADD95C,0.06800*%
%ADD96P,0.09483X4X270.0*%
%ADD97C,0.09658*%
%ADD98P,0.09483X4X360.0*%
%ADD99C,0.03162*%
%ADD100C,0.03950*%
D66*
X638020Y282398D02*
D03*
X645106D02*
D03*
X638020Y272398D02*
D03*
X645106D02*
D03*
X638020Y262398D02*
D03*
X645106D02*
D03*
X679106Y159398D02*
D03*
X672020D02*
D03*
X614106Y148898D02*
D03*
X607020D02*
D03*
X619520Y314898D02*
D03*
X626606D02*
D03*
X664106Y159398D02*
D03*
X657020D02*
D03*
X607020Y189398D02*
D03*
X614106D02*
D03*
X714020Y200898D02*
D03*
X721106D02*
D03*
Y170898D02*
D03*
X714020D02*
D03*
X735106Y200898D02*
D03*
X728020D02*
D03*
X619520Y329898D02*
D03*
X626606D02*
D03*
X231106Y243398D02*
D03*
X224020D02*
D03*
X231106Y235398D02*
D03*
X224020D02*
D03*
X231106Y227398D02*
D03*
X224020D02*
D03*
X283434Y488301D02*
D03*
X276348D02*
D03*
X488158D02*
D03*
X481072D02*
D03*
X283434Y693025D02*
D03*
X276348D02*
D03*
X488158D02*
D03*
X481072D02*
D03*
D67*
X699063Y248355D02*
D03*
Y255441D02*
D03*
X669063Y248355D02*
D03*
Y255441D02*
D03*
X630563Y172441D02*
D03*
Y165355D02*
D03*
X694263Y303255D02*
D03*
Y310341D02*
D03*
X704063Y303355D02*
D03*
Y310441D02*
D03*
X613063Y298355D02*
D03*
Y305441D02*
D03*
X748063Y308441D02*
D03*
Y301355D02*
D03*
X718063D02*
D03*
Y308441D02*
D03*
X605063Y305441D02*
D03*
Y298355D02*
D03*
X458563Y312855D02*
D03*
Y319941D02*
D03*
X449563D02*
D03*
Y312855D02*
D03*
X456563Y248941D02*
D03*
Y241855D02*
D03*
X425563D02*
D03*
Y248941D02*
D03*
X180563Y294855D02*
D03*
Y301941D02*
D03*
X466563Y215941D02*
D03*
Y208855D02*
D03*
X458563D02*
D03*
Y215941D02*
D03*
X456563Y156941D02*
D03*
Y149855D02*
D03*
X445563Y156941D02*
D03*
Y149855D02*
D03*
X433563Y156941D02*
D03*
Y149855D02*
D03*
X231563Y329855D02*
D03*
Y336941D02*
D03*
X223563Y329855D02*
D03*
Y336941D02*
D03*
X214563D02*
D03*
Y329855D02*
D03*
X233891Y440758D02*
D03*
Y447844D02*
D03*
X240891Y455758D02*
D03*
Y462844D02*
D03*
X233891D02*
D03*
Y455758D02*
D03*
X208891Y543758D02*
D03*
Y550844D02*
D03*
X195891Y564758D02*
D03*
Y571844D02*
D03*
X208891Y556758D02*
D03*
Y563844D02*
D03*
X216891Y556758D02*
D03*
Y563844D02*
D03*
X244890Y556758D02*
D03*
Y563844D02*
D03*
X438615Y440758D02*
D03*
Y447844D02*
D03*
X445615Y455758D02*
D03*
Y462844D02*
D03*
X438615D02*
D03*
Y455758D02*
D03*
X413615Y543758D02*
D03*
Y550844D02*
D03*
X400615Y564758D02*
D03*
Y571844D02*
D03*
X413615Y556758D02*
D03*
Y563844D02*
D03*
X421615Y556758D02*
D03*
Y563844D02*
D03*
X449615Y556758D02*
D03*
Y563844D02*
D03*
X233891Y645482D02*
D03*
Y652568D02*
D03*
X240891Y660482D02*
D03*
Y667568D02*
D03*
X233891D02*
D03*
Y660482D02*
D03*
X208891Y748482D02*
D03*
Y755568D02*
D03*
X195891Y769482D02*
D03*
Y776568D02*
D03*
X208891Y761482D02*
D03*
Y768568D02*
D03*
X216891Y761482D02*
D03*
Y768568D02*
D03*
X244890Y761482D02*
D03*
Y768568D02*
D03*
X438615Y645482D02*
D03*
Y652568D02*
D03*
X445615Y660482D02*
D03*
Y667568D02*
D03*
X438615D02*
D03*
Y660482D02*
D03*
X413615Y748482D02*
D03*
Y755568D02*
D03*
X400615Y769482D02*
D03*
Y776568D02*
D03*
X413615Y761482D02*
D03*
Y768568D02*
D03*
X421615Y761482D02*
D03*
Y768568D02*
D03*
X449615Y761482D02*
D03*
Y768568D02*
D03*
D68*
X589063Y249099D02*
D03*
Y236697D02*
D03*
X164063Y226599D02*
D03*
Y214197D02*
D03*
D69*
X599614Y213898D02*
D03*
X618512D02*
D03*
Y271898D02*
D03*
X599614D02*
D03*
X186340Y489301D02*
D03*
X167442D02*
D03*
X186340Y516301D02*
D03*
X167442D02*
D03*
X391064Y489301D02*
D03*
X372166D02*
D03*
X391064Y516301D02*
D03*
X372166D02*
D03*
X186340Y694025D02*
D03*
X167442D02*
D03*
X186340Y721025D02*
D03*
X167442D02*
D03*
X391064Y694025D02*
D03*
X372166D02*
D03*
X391064Y721025D02*
D03*
X372166D02*
D03*
D70*
X627264Y242898D02*
D03*
X200764Y235898D02*
D03*
D71*
X602863Y233798D02*
D03*
Y242898D02*
D03*
Y251998D02*
D03*
X176363Y244998D02*
D03*
Y235898D02*
D03*
Y226798D02*
D03*
D72*
X688476Y169398D02*
D03*
Y174398D02*
D03*
Y179398D02*
D03*
Y184398D02*
D03*
Y189398D02*
D03*
Y194398D02*
D03*
Y199398D02*
D03*
Y204398D02*
D03*
Y209398D02*
D03*
X652650Y169398D02*
D03*
Y174398D02*
D03*
Y179398D02*
D03*
Y184398D02*
D03*
Y189398D02*
D03*
Y194398D02*
D03*
Y199398D02*
D03*
Y204398D02*
D03*
Y209398D02*
D03*
X428650Y303398D02*
D03*
Y298398D02*
D03*
Y293398D02*
D03*
Y288398D02*
D03*
Y283398D02*
D03*
Y278398D02*
D03*
Y273398D02*
D03*
Y268398D02*
D03*
Y263398D02*
D03*
X464476Y303398D02*
D03*
Y298398D02*
D03*
Y293398D02*
D03*
Y288398D02*
D03*
Y283398D02*
D03*
Y278398D02*
D03*
Y273398D02*
D03*
Y268398D02*
D03*
Y263398D02*
D03*
D73*
X690063Y246692D02*
D03*
Y258504D02*
D03*
X679063Y246492D02*
D03*
Y258304D02*
D03*
X456563Y164492D02*
D03*
Y176304D02*
D03*
X445563Y164492D02*
D03*
Y176304D02*
D03*
X433563Y164492D02*
D03*
Y176304D02*
D03*
X202891Y445207D02*
D03*
Y433395D02*
D03*
X192891Y445207D02*
D03*
Y433395D02*
D03*
X196891Y467207D02*
D03*
Y455395D02*
D03*
X407615Y445207D02*
D03*
Y433395D02*
D03*
X397615Y445207D02*
D03*
Y433395D02*
D03*
X401615Y467207D02*
D03*
Y455395D02*
D03*
X202891Y649931D02*
D03*
Y638119D02*
D03*
X192891Y649931D02*
D03*
Y638119D02*
D03*
X196891Y671931D02*
D03*
Y660119D02*
D03*
X407615Y649931D02*
D03*
Y638119D02*
D03*
X397615Y649931D02*
D03*
Y638119D02*
D03*
X401615Y671931D02*
D03*
Y660119D02*
D03*
D74*
X641063Y329988D02*
D03*
Y293807D02*
D03*
X258891Y579391D02*
D03*
Y543210D02*
D03*
X463615Y579391D02*
D03*
Y543210D02*
D03*
X258891Y784116D02*
D03*
Y747935D02*
D03*
X463615Y784116D02*
D03*
Y747935D02*
D03*
D75*
X603063Y159449D02*
D03*
X608063D02*
D03*
X613063D02*
D03*
X618063D02*
D03*
X603063Y178347D02*
D03*
X608063D02*
D03*
X613063D02*
D03*
X618063D02*
D03*
X432063Y200949D02*
D03*
X437063D02*
D03*
X442063D02*
D03*
X447063D02*
D03*
X432063Y219846D02*
D03*
X437063D02*
D03*
X442063D02*
D03*
X447063D02*
D03*
D76*
X718576Y241000D02*
D03*
X720803Y238773D02*
D03*
X723030Y236546D02*
D03*
X725257Y234319D02*
D03*
X727484Y232092D02*
D03*
X729711Y229865D02*
D03*
X731939Y227638D02*
D03*
X734166Y225410D02*
D03*
X757550Y248795D02*
D03*
X755323Y251022D02*
D03*
X753096Y253249D02*
D03*
X750869Y255476D02*
D03*
X748642Y257703D02*
D03*
X746415Y259931D02*
D03*
X744188Y262158D02*
D03*
X741960Y264385D02*
D03*
X215993Y473814D02*
D03*
X213766Y476041D02*
D03*
X211539Y478268D02*
D03*
X209312Y480495D02*
D03*
X207085Y482722D02*
D03*
X204857Y484949D02*
D03*
X202630Y487176D02*
D03*
X200403Y489403D02*
D03*
X223788Y512788D02*
D03*
X226015Y510561D02*
D03*
X228242Y508334D02*
D03*
X230469Y506107D02*
D03*
X232696Y503880D02*
D03*
X234924Y501652D02*
D03*
X237151Y499425D02*
D03*
X239378Y497198D02*
D03*
X420718Y473814D02*
D03*
X418490Y476041D02*
D03*
X416263Y478268D02*
D03*
X414036Y480495D02*
D03*
X411809Y482722D02*
D03*
X409582Y484949D02*
D03*
X407355Y487176D02*
D03*
X405128Y489403D02*
D03*
X428512Y512788D02*
D03*
X430740Y510561D02*
D03*
X432967Y508334D02*
D03*
X435194Y506107D02*
D03*
X437421Y503880D02*
D03*
X439648Y501652D02*
D03*
X441875Y499425D02*
D03*
X444102Y497198D02*
D03*
X215993Y678538D02*
D03*
X213766Y680765D02*
D03*
X211539Y682992D02*
D03*
X209312Y685219D02*
D03*
X207085Y687446D02*
D03*
X204857Y689674D02*
D03*
X202630Y691901D02*
D03*
X200403Y694128D02*
D03*
X223788Y717512D02*
D03*
X226015Y715285D02*
D03*
X228242Y713058D02*
D03*
X230469Y710831D02*
D03*
X232696Y708604D02*
D03*
X234924Y706377D02*
D03*
X237151Y704150D02*
D03*
X239378Y701923D02*
D03*
X420718Y678538D02*
D03*
X418490Y680765D02*
D03*
X416263Y682992D02*
D03*
X414036Y685219D02*
D03*
X411809Y687446D02*
D03*
X409582Y689674D02*
D03*
X407355Y691901D02*
D03*
X405128Y694128D02*
D03*
X428512Y717512D02*
D03*
X430740Y715285D02*
D03*
X432967Y713058D02*
D03*
X435194Y710831D02*
D03*
X437421Y708604D02*
D03*
X439648Y706377D02*
D03*
X441875Y704150D02*
D03*
X444102Y701923D02*
D03*
D77*
X741960Y225410D02*
D03*
X744188Y227638D02*
D03*
X746415Y229865D02*
D03*
X748642Y232092D02*
D03*
X750869Y234319D02*
D03*
X753096Y236546D02*
D03*
X755323Y238773D02*
D03*
X757550Y241000D02*
D03*
X734166Y264385D02*
D03*
X731939Y262158D02*
D03*
X729711Y259931D02*
D03*
X727484Y257703D02*
D03*
X725257Y255476D02*
D03*
X723030Y253249D02*
D03*
X720803Y251022D02*
D03*
X718576Y248795D02*
D03*
X200403Y497198D02*
D03*
X202630Y499425D02*
D03*
X204857Y501652D02*
D03*
X207085Y503880D02*
D03*
X209312Y506107D02*
D03*
X211539Y508334D02*
D03*
X213766Y510561D02*
D03*
X215993Y512788D02*
D03*
X239378Y489403D02*
D03*
X237151Y487176D02*
D03*
X234924Y484949D02*
D03*
X232696Y482722D02*
D03*
X230469Y480495D02*
D03*
X228242Y478268D02*
D03*
X226015Y476041D02*
D03*
X223788Y473814D02*
D03*
X405128Y497198D02*
D03*
X407355Y499425D02*
D03*
X409582Y501652D02*
D03*
X411809Y503880D02*
D03*
X414036Y506107D02*
D03*
X416263Y508334D02*
D03*
X418490Y510561D02*
D03*
X420718Y512788D02*
D03*
X444102Y489403D02*
D03*
X441875Y487176D02*
D03*
X439648Y484949D02*
D03*
X437421Y482722D02*
D03*
X435194Y480495D02*
D03*
X432967Y478268D02*
D03*
X430740Y476041D02*
D03*
X428512Y473814D02*
D03*
X200403Y701923D02*
D03*
X202630Y704150D02*
D03*
X204857Y706377D02*
D03*
X207085Y708604D02*
D03*
X209312Y710831D02*
D03*
X211539Y713058D02*
D03*
X213766Y715285D02*
D03*
X215993Y717512D02*
D03*
X239378Y694128D02*
D03*
X237151Y691901D02*
D03*
X234924Y689674D02*
D03*
X232696Y687446D02*
D03*
X230469Y685219D02*
D03*
X228242Y682992D02*
D03*
X226015Y680765D02*
D03*
X223788Y678538D02*
D03*
X405128Y701923D02*
D03*
X407355Y704150D02*
D03*
X409582Y706377D02*
D03*
X411809Y708604D02*
D03*
X414036Y710831D02*
D03*
X416263Y713058D02*
D03*
X418490Y715285D02*
D03*
X420718Y717512D02*
D03*
X444102Y694128D02*
D03*
X441875Y691901D02*
D03*
X439648Y689674D02*
D03*
X437421Y687446D02*
D03*
X435194Y685219D02*
D03*
X432967Y682992D02*
D03*
X430740Y680765D02*
D03*
X428512Y678538D02*
D03*
D78*
X763488Y277315D02*
D03*
X766047D02*
D03*
X768606D02*
D03*
X771165D02*
D03*
X773724D02*
D03*
X776284D02*
D03*
X778843D02*
D03*
X781402D02*
D03*
X783961D02*
D03*
X786520D02*
D03*
X789079D02*
D03*
X791638D02*
D03*
X763488Y304480D02*
D03*
X766047D02*
D03*
X768606D02*
D03*
X771165D02*
D03*
X773724D02*
D03*
X776284D02*
D03*
X778843D02*
D03*
X781402D02*
D03*
X783961D02*
D03*
X786520D02*
D03*
X789079D02*
D03*
X791638D02*
D03*
X763488Y179815D02*
D03*
X766047D02*
D03*
X768606D02*
D03*
X771165D02*
D03*
X773724D02*
D03*
X776284D02*
D03*
X778843D02*
D03*
X781402D02*
D03*
X783961D02*
D03*
X786520D02*
D03*
X789079D02*
D03*
X791638D02*
D03*
X763488Y206980D02*
D03*
X766047D02*
D03*
X768606D02*
D03*
X771165D02*
D03*
X773724D02*
D03*
X776284D02*
D03*
X778843D02*
D03*
X781402D02*
D03*
X783961D02*
D03*
X786520D02*
D03*
X789079D02*
D03*
X791638D02*
D03*
D79*
X728732Y301748D02*
D03*
Y308047D02*
D03*
X737394Y301748D02*
D03*
Y308047D02*
D03*
X445894Y249047D02*
D03*
Y242748D02*
D03*
X437232Y249047D02*
D03*
Y242748D02*
D03*
X226560Y557151D02*
D03*
Y563450D02*
D03*
X235221Y557151D02*
D03*
Y563450D02*
D03*
X431284Y557151D02*
D03*
Y563450D02*
D03*
X439946Y557151D02*
D03*
Y563450D02*
D03*
X226560Y761876D02*
D03*
Y768175D02*
D03*
X235221Y761876D02*
D03*
Y768175D02*
D03*
X431284Y761876D02*
D03*
Y768175D02*
D03*
X439946Y761876D02*
D03*
Y768175D02*
D03*
D80*
X720713Y181567D02*
D03*
X714413D02*
D03*
X720713Y190228D02*
D03*
X714413D02*
D03*
D81*
X245032Y334382D02*
D03*
X256095D02*
D03*
X245032Y336350D02*
D03*
Y332413D02*
D03*
Y330445D02*
D03*
X256095Y336350D02*
D03*
Y332413D02*
D03*
Y330445D02*
D03*
D82*
X198012Y205398D02*
D03*
X179114D02*
D03*
X198012Y267898D02*
D03*
X179114D02*
D03*
X258442Y470301D02*
D03*
X277340D02*
D03*
X463166D02*
D03*
X482064D02*
D03*
X258442Y675025D02*
D03*
X277340D02*
D03*
X463166D02*
D03*
X482064D02*
D03*
D83*
X268891Y491926D02*
D03*
Y488723D02*
D03*
X473615Y491926D02*
D03*
Y488723D02*
D03*
X268891Y696650D02*
D03*
Y693447D02*
D03*
X473615Y696650D02*
D03*
Y693447D02*
D03*
D84*
X254348Y488301D02*
D03*
X261434D02*
D03*
X459072D02*
D03*
X466158D02*
D03*
X254348Y693025D02*
D03*
X261434D02*
D03*
X459072D02*
D03*
X466158D02*
D03*
D85*
X271890Y450305D02*
D03*
X261891D02*
D03*
X281891D02*
D03*
X250890D02*
D03*
X476615D02*
D03*
X466615D02*
D03*
X486615D02*
D03*
X455615D02*
D03*
X271890Y655029D02*
D03*
X261891D02*
D03*
X281891D02*
D03*
X250890D02*
D03*
X476615D02*
D03*
X466615D02*
D03*
X486615D02*
D03*
X455615D02*
D03*
D86*
X271890Y440955D02*
D03*
X261891D02*
D03*
X281891D02*
D03*
X250890D02*
D03*
X476615D02*
D03*
X466615D02*
D03*
X486615D02*
D03*
X455615D02*
D03*
X271890Y645679D02*
D03*
X261891D02*
D03*
X281891D02*
D03*
X250890D02*
D03*
X476615D02*
D03*
X466615D02*
D03*
X486615D02*
D03*
X455615D02*
D03*
D87*
X211690Y448301D02*
D03*
X224092D02*
D03*
X416414D02*
D03*
X428816D02*
D03*
X211690Y653025D02*
D03*
X224092D02*
D03*
X416414D02*
D03*
X428816D02*
D03*
D88*
X587063Y357398D02*
D03*
X577063D02*
D03*
X567063D02*
D03*
X622063D02*
D03*
X612063D02*
D03*
X602063D02*
D03*
X657063D02*
D03*
X647063D02*
D03*
X637063D02*
D03*
X692063D02*
D03*
X682063D02*
D03*
X672063D02*
D03*
X867063D02*
D03*
X857063D02*
D03*
X847063D02*
D03*
X727063D02*
D03*
X717063D02*
D03*
X707063D02*
D03*
X762063D02*
D03*
X752063D02*
D03*
X742063D02*
D03*
X797063D02*
D03*
X787063D02*
D03*
X777063D02*
D03*
X832063D02*
D03*
X822063D02*
D03*
X812063D02*
D03*
X902063D02*
D03*
X892063D02*
D03*
X882063D02*
D03*
X566563Y110898D02*
D03*
X576563D02*
D03*
X586563D02*
D03*
X601563D02*
D03*
X611563D02*
D03*
X621563D02*
D03*
X636563D02*
D03*
X646563D02*
D03*
X656563D02*
D03*
X671563D02*
D03*
X681563D02*
D03*
X691563D02*
D03*
X706563D02*
D03*
X716563D02*
D03*
X726563D02*
D03*
X741563D02*
D03*
X751563D02*
D03*
X761563D02*
D03*
X776563D02*
D03*
X786563D02*
D03*
X796563D02*
D03*
X811563D02*
D03*
X821563D02*
D03*
X831563D02*
D03*
X846563D02*
D03*
X856563D02*
D03*
X866563D02*
D03*
X881563D02*
D03*
X891563D02*
D03*
X901563D02*
D03*
X164563Y112146D02*
D03*
X184563D02*
D03*
X194563D02*
D03*
X224563D02*
D03*
X214563D02*
D03*
X204563D02*
D03*
X174563D02*
D03*
X154563D02*
D03*
X404563Y111398D02*
D03*
X424563D02*
D03*
X434563D02*
D03*
X464563D02*
D03*
X454563D02*
D03*
X444563D02*
D03*
X414563D02*
D03*
X394563D02*
D03*
X165891Y411301D02*
D03*
X185891D02*
D03*
X195891D02*
D03*
X225890D02*
D03*
X215891D02*
D03*
X205890D02*
D03*
X175891D02*
D03*
X155891D02*
D03*
X370615D02*
D03*
X390615D02*
D03*
X400615D02*
D03*
X430615D02*
D03*
X420615D02*
D03*
X410615D02*
D03*
X380615D02*
D03*
X360615D02*
D03*
X165891Y616025D02*
D03*
X185891D02*
D03*
X195891D02*
D03*
X225890D02*
D03*
X215891D02*
D03*
X205890D02*
D03*
X175891D02*
D03*
X155891D02*
D03*
X370615D02*
D03*
X390615D02*
D03*
X400615D02*
D03*
X430615D02*
D03*
X420615D02*
D03*
X410615D02*
D03*
X380615D02*
D03*
X360615D02*
D03*
D89*
X587063Y281898D02*
D03*
Y291898D02*
D03*
Y301898D02*
D03*
Y311898D02*
D03*
Y321898D02*
D03*
X824063Y155865D02*
D03*
Y165865D02*
D03*
Y175865D02*
D03*
Y185865D02*
D03*
Y195865D02*
D03*
Y205865D02*
D03*
Y215865D02*
D03*
Y225865D02*
D03*
X814063Y155865D02*
D03*
Y165865D02*
D03*
Y175865D02*
D03*
Y185865D02*
D03*
Y195865D02*
D03*
Y205865D02*
D03*
Y215865D02*
D03*
X824063Y253365D02*
D03*
Y263365D02*
D03*
Y273365D02*
D03*
Y283365D02*
D03*
Y293365D02*
D03*
Y303365D02*
D03*
Y313365D02*
D03*
Y323365D02*
D03*
X814063Y253365D02*
D03*
Y263365D02*
D03*
Y273365D02*
D03*
Y283365D02*
D03*
Y293365D02*
D03*
Y303365D02*
D03*
Y313365D02*
D03*
X680563Y312898D02*
D03*
X670563Y302898D02*
D03*
X680563D02*
D03*
X670563Y292898D02*
D03*
X680563D02*
D03*
X587063Y187898D02*
D03*
X562063Y287398D02*
D03*
X552063Y277398D02*
D03*
X562063D02*
D03*
X552063Y267398D02*
D03*
X562063D02*
D03*
X552063Y257398D02*
D03*
X562063D02*
D03*
Y214398D02*
D03*
X552063Y204398D02*
D03*
X562063D02*
D03*
X552063Y194398D02*
D03*
X562063D02*
D03*
X552063Y184398D02*
D03*
X562063D02*
D03*
X250563Y358398D02*
D03*
X240563D02*
D03*
X230563D02*
D03*
X220563D02*
D03*
X210563D02*
D03*
X161563Y303398D02*
D03*
X288563Y121083D02*
D03*
Y111083D02*
D03*
X278563Y121083D02*
D03*
Y111083D02*
D03*
X268563Y121083D02*
D03*
Y111083D02*
D03*
X258563Y121083D02*
D03*
X138063Y257398D02*
D03*
X128063D02*
D03*
X138063Y267398D02*
D03*
X128063D02*
D03*
X138063Y277398D02*
D03*
X128063D02*
D03*
X138063Y287398D02*
D03*
Y185398D02*
D03*
X128063D02*
D03*
X138063Y195398D02*
D03*
X128063D02*
D03*
X138063Y205398D02*
D03*
X128063D02*
D03*
X138063Y215398D02*
D03*
X363563Y121083D02*
D03*
Y111083D02*
D03*
X353563Y121083D02*
D03*
Y111083D02*
D03*
X343563Y121083D02*
D03*
Y111083D02*
D03*
X333563Y121083D02*
D03*
X144820Y527159D02*
D03*
X137748Y534230D02*
D03*
X151891D02*
D03*
X144820Y541301D02*
D03*
X158962D02*
D03*
X151891Y548372D02*
D03*
X166033D02*
D03*
X247890Y508301D02*
D03*
X257891Y518301D02*
D03*
X247890D02*
D03*
X257891Y528301D02*
D03*
X247890D02*
D03*
X121891Y507301D02*
D03*
X293891Y500301D02*
D03*
Y510301D02*
D03*
Y520301D02*
D03*
Y530301D02*
D03*
Y540301D02*
D03*
X144820Y478443D02*
D03*
Y464301D02*
D03*
X151891Y471372D02*
D03*
Y457230D02*
D03*
X158962Y464301D02*
D03*
Y450159D02*
D03*
X166033Y457230D02*
D03*
X349544Y527159D02*
D03*
X342473Y534230D02*
D03*
X356615D02*
D03*
X349544Y541301D02*
D03*
X363686D02*
D03*
X356615Y548372D02*
D03*
X370757D02*
D03*
X452615Y508301D02*
D03*
X462615Y518301D02*
D03*
X452615D02*
D03*
X462615Y528301D02*
D03*
X452615D02*
D03*
X326615Y507301D02*
D03*
X498615Y500301D02*
D03*
Y510301D02*
D03*
Y520301D02*
D03*
Y530301D02*
D03*
Y540301D02*
D03*
X349544Y478443D02*
D03*
Y464301D02*
D03*
X356615Y471372D02*
D03*
Y457230D02*
D03*
X363686Y464301D02*
D03*
Y450159D02*
D03*
X370757Y457230D02*
D03*
X144820Y731883D02*
D03*
X137748Y738954D02*
D03*
X151891D02*
D03*
X144820Y746025D02*
D03*
X158962D02*
D03*
X151891Y753096D02*
D03*
X166033D02*
D03*
X247890Y713025D02*
D03*
X257891Y723025D02*
D03*
X247890D02*
D03*
X257891Y733025D02*
D03*
X247890D02*
D03*
X121891Y712025D02*
D03*
X293891Y705025D02*
D03*
Y715025D02*
D03*
Y725025D02*
D03*
Y735025D02*
D03*
Y745025D02*
D03*
X144820Y683167D02*
D03*
Y669025D02*
D03*
X151891Y676096D02*
D03*
Y661954D02*
D03*
X158962Y669025D02*
D03*
Y654883D02*
D03*
X166033Y661954D02*
D03*
X349544Y731883D02*
D03*
X342473Y738954D02*
D03*
X356615D02*
D03*
X349544Y746025D02*
D03*
X363686D02*
D03*
X356615Y753096D02*
D03*
X370757D02*
D03*
X452615Y713025D02*
D03*
X462615Y723025D02*
D03*
X452615D02*
D03*
X462615Y733025D02*
D03*
X452615D02*
D03*
X326615Y712025D02*
D03*
X498615Y705025D02*
D03*
Y715025D02*
D03*
Y725025D02*
D03*
Y735025D02*
D03*
Y745025D02*
D03*
X349544Y683167D02*
D03*
Y669025D02*
D03*
X356615Y676096D02*
D03*
Y661954D02*
D03*
X363686Y669025D02*
D03*
Y654883D02*
D03*
X370757Y661954D02*
D03*
D90*
X587063Y331898D02*
D03*
X814063Y225865D02*
D03*
Y323365D02*
D03*
X670563Y312898D02*
D03*
X587063Y177898D02*
D03*
X552063Y287398D02*
D03*
Y214398D02*
D03*
X161563Y293398D02*
D03*
X128063Y287398D02*
D03*
Y215398D02*
D03*
X257891Y508301D02*
D03*
X121891Y497301D02*
D03*
X293891Y550301D02*
D03*
X462615Y508301D02*
D03*
X326615Y497301D02*
D03*
X498615Y550301D02*
D03*
X257891Y713025D02*
D03*
X121891Y702025D02*
D03*
X293891Y755025D02*
D03*
X462615Y713025D02*
D03*
X326615Y702025D02*
D03*
X498615Y755025D02*
D03*
D91*
X857063Y136980D02*
D03*
Y146980D02*
D03*
Y156980D02*
D03*
Y171980D02*
D03*
Y181980D02*
D03*
Y191980D02*
D03*
Y206980D02*
D03*
Y216980D02*
D03*
Y226980D02*
D03*
Y241980D02*
D03*
Y251980D02*
D03*
Y261980D02*
D03*
Y311980D02*
D03*
Y321980D02*
D03*
Y331980D02*
D03*
Y276980D02*
D03*
Y286980D02*
D03*
Y296980D02*
D03*
X917063Y173398D02*
D03*
Y183398D02*
D03*
Y193398D02*
D03*
Y208398D02*
D03*
Y218398D02*
D03*
Y228398D02*
D03*
Y243398D02*
D03*
Y253398D02*
D03*
Y263398D02*
D03*
Y278398D02*
D03*
Y288398D02*
D03*
Y298398D02*
D03*
D92*
X552811Y151016D02*
D03*
X911079D02*
D03*
X552811Y320307D02*
D03*
X911079D02*
D03*
X129311Y151516D02*
D03*
X487579D02*
D03*
X129311Y320807D02*
D03*
X487579D02*
D03*
X135091Y566501D02*
D03*
X282190D02*
D03*
X282390Y419201D02*
D03*
X134991D02*
D03*
X339815Y566501D02*
D03*
X486915D02*
D03*
X487115Y419201D02*
D03*
X339715D02*
D03*
X135091Y771225D02*
D03*
X282190D02*
D03*
X282390Y623925D02*
D03*
X134991D02*
D03*
X339815Y771225D02*
D03*
X486915D02*
D03*
X487115Y623925D02*
D03*
X339715D02*
D03*
D93*
X761663Y218398D02*
D03*
X787890Y237898D02*
D03*
X786763Y233998D02*
D03*
X717263Y199198D02*
D03*
X705863Y181998D02*
D03*
X795463Y189598D02*
D03*
X763488Y212423D02*
D03*
X759163Y224898D02*
D03*
X758163Y212898D02*
D03*
X696863Y298798D02*
D03*
X711563Y267298D02*
D03*
X727363Y265498D02*
D03*
X742463Y236398D02*
D03*
X698063Y252498D02*
D03*
X750663Y227898D02*
D03*
X746263Y291498D02*
D03*
X777883Y265720D02*
D03*
X757463Y308598D02*
D03*
X777063Y333198D02*
D03*
X768817Y283398D02*
D03*
X768963Y347098D02*
D03*
X773724Y169598D02*
D03*
X776416Y171351D02*
D03*
X771163Y185298D02*
D03*
X764163Y187598D02*
D03*
X786963Y201298D02*
D03*
X776763Y198998D02*
D03*
X783363Y214098D02*
D03*
X733863Y255598D02*
D03*
X786520Y252898D02*
D03*
X751463Y225298D02*
D03*
X713763Y260883D02*
D03*
X706063Y268498D02*
D03*
X773863Y270998D02*
D03*
X755963Y189398D02*
D03*
X735963Y246598D02*
D03*
X779363Y270336D02*
D03*
X767264Y271396D02*
D03*
X775124Y311198D02*
D03*
X794663Y313098D02*
D03*
X775512Y298698D02*
D03*
X777463Y217080D02*
D03*
X776663Y213398D02*
D03*
X779963Y201398D02*
D03*
X759040Y234198D02*
D03*
X728663Y269298D02*
D03*
X735863Y239198D02*
D03*
X762763Y284598D02*
D03*
X741960Y282998D02*
D03*
X682763Y201598D02*
D03*
X754663Y228598D02*
D03*
X777763Y284298D02*
D03*
X760547Y254398D02*
D03*
X772363Y256927D02*
D03*
X422163Y320898D02*
D03*
X472663Y286198D02*
D03*
X246363Y341298D02*
D03*
D94*
X260563Y358398D02*
D03*
X258563Y111083D02*
D03*
X333563D02*
D03*
D95*
X263563Y169898D02*
D03*
Y179898D02*
D03*
X253563Y169898D02*
D03*
Y179898D02*
D03*
X243563Y169898D02*
D03*
Y179898D02*
D03*
X233563Y169898D02*
D03*
Y179898D02*
D03*
X223563Y169898D02*
D03*
Y179898D02*
D03*
X333563Y299898D02*
D03*
Y309898D02*
D03*
X323563Y299898D02*
D03*
Y309898D02*
D03*
X313563Y299898D02*
D03*
Y309898D02*
D03*
X303563Y299898D02*
D03*
Y309898D02*
D03*
X293563Y299898D02*
D03*
Y309898D02*
D03*
X283563Y299898D02*
D03*
Y309898D02*
D03*
X273563Y299898D02*
D03*
Y309898D02*
D03*
X263563Y299898D02*
D03*
Y309898D02*
D03*
X343563D02*
D03*
X403563Y269898D02*
D03*
X413563D02*
D03*
X403563Y279898D02*
D03*
X413563D02*
D03*
X403563Y289898D02*
D03*
X413563D02*
D03*
Y299898D02*
D03*
Y309898D02*
D03*
X403563Y299898D02*
D03*
Y309898D02*
D03*
X393563Y299898D02*
D03*
Y309898D02*
D03*
X383563Y299898D02*
D03*
Y309898D02*
D03*
X373563Y299898D02*
D03*
Y309898D02*
D03*
X363563Y299898D02*
D03*
Y309898D02*
D03*
X353563Y299898D02*
D03*
Y309898D02*
D03*
X343563Y299898D02*
D03*
X273563Y169898D02*
D03*
X413563D02*
D03*
Y179898D02*
D03*
X403563Y169898D02*
D03*
Y179898D02*
D03*
X393563Y169898D02*
D03*
Y179898D02*
D03*
X383563Y169898D02*
D03*
Y179898D02*
D03*
X373563Y169898D02*
D03*
Y179898D02*
D03*
X363563Y169898D02*
D03*
Y179898D02*
D03*
X353563Y169898D02*
D03*
Y179898D02*
D03*
X343563Y169898D02*
D03*
Y179898D02*
D03*
X333563Y169898D02*
D03*
Y179898D02*
D03*
X323563Y169898D02*
D03*
Y179898D02*
D03*
X313563Y169898D02*
D03*
Y179898D02*
D03*
X303563Y169898D02*
D03*
Y179898D02*
D03*
X293563Y169898D02*
D03*
Y179898D02*
D03*
X283563Y169898D02*
D03*
Y179898D02*
D03*
X273563D02*
D03*
X213563Y169898D02*
D03*
Y179898D02*
D03*
D96*
X158962Y555443D02*
D03*
X363686D02*
D03*
X158962Y760167D02*
D03*
X363686D02*
D03*
D97*
X257390Y418301D02*
D03*
X242390D02*
D03*
X462115D02*
D03*
X447115D02*
D03*
X257390Y623025D02*
D03*
X242390D02*
D03*
X462115D02*
D03*
X447115D02*
D03*
D98*
X137748Y471372D02*
D03*
X342473D02*
D03*
X137748Y676096D02*
D03*
X342473D02*
D03*
D99*
X299890Y555301D02*
D03*
X204391Y438301D02*
D03*
X200691Y525901D02*
D03*
X162191Y502001D02*
D03*
X276091Y513101D02*
D03*
X200791Y463001D02*
D03*
X192691Y438501D02*
D03*
X245590Y482701D02*
D03*
X229190Y451001D02*
D03*
X195091Y568301D02*
D03*
X174591Y480401D02*
D03*
X205490Y495601D02*
D03*
X202791Y529101D02*
D03*
X217891Y450027D02*
D03*
X246990Y492501D02*
D03*
X233490Y451801D02*
D03*
X170591Y523721D02*
D03*
X235221Y567332D02*
D03*
X224590Y531101D02*
D03*
X208390Y498119D02*
D03*
X230490Y491701D02*
D03*
X240134Y493401D02*
D03*
X232390Y527701D02*
D03*
X235291Y511101D02*
D03*
X229890Y551401D02*
D03*
X211472Y490982D02*
D03*
X201291Y480301D02*
D03*
X197691Y478001D02*
D03*
X293791Y490901D02*
D03*
X199291Y519301D02*
D03*
X181991Y511301D02*
D03*
X229790Y433601D02*
D03*
X216390Y447001D02*
D03*
X247890Y469801D02*
D03*
X199591Y483201D02*
D03*
X126891Y487301D02*
D03*
Y502301D02*
D03*
X226391Y492101D02*
D03*
X216891Y499852D02*
D03*
X286390Y538301D02*
D03*
Y494801D02*
D03*
X222604Y481474D02*
D03*
X220890Y503801D02*
D03*
X224890Y503301D02*
D03*
X170891Y579301D02*
D03*
X188891Y427301D02*
D03*
X290390Y436801D02*
D03*
X504615Y555301D02*
D03*
X409115Y438301D02*
D03*
X405415Y525901D02*
D03*
X366915Y502001D02*
D03*
X480815Y513101D02*
D03*
X405515Y463001D02*
D03*
X397415Y438501D02*
D03*
X450315Y482701D02*
D03*
X433915Y451001D02*
D03*
X399815Y568301D02*
D03*
X379315Y480401D02*
D03*
X410215Y495601D02*
D03*
X407515Y529101D02*
D03*
X422615Y450027D02*
D03*
X451715Y492501D02*
D03*
X438215Y451801D02*
D03*
X375315Y523721D02*
D03*
X439946Y567332D02*
D03*
X429315Y531101D02*
D03*
X413115Y498119D02*
D03*
X435215Y491701D02*
D03*
X444859Y493401D02*
D03*
X437115Y527701D02*
D03*
X440015Y511101D02*
D03*
X434615Y551401D02*
D03*
X416196Y490982D02*
D03*
X406015Y480301D02*
D03*
X402415Y478001D02*
D03*
X498515Y490901D02*
D03*
X404015Y519301D02*
D03*
X386715Y511301D02*
D03*
X434515Y433601D02*
D03*
X421115Y447001D02*
D03*
X452615Y469801D02*
D03*
X404315Y483201D02*
D03*
X331615Y487301D02*
D03*
Y502301D02*
D03*
X431115Y492101D02*
D03*
X421615Y499852D02*
D03*
X491115Y538301D02*
D03*
Y494801D02*
D03*
X427328Y481474D02*
D03*
X425615Y503801D02*
D03*
X429615Y503301D02*
D03*
X375615Y579301D02*
D03*
X393615Y427301D02*
D03*
X495115Y436801D02*
D03*
X299890Y760025D02*
D03*
X204391Y643025D02*
D03*
X200691Y730625D02*
D03*
X162191Y706725D02*
D03*
X276091Y717825D02*
D03*
X200791Y667725D02*
D03*
X192691Y643225D02*
D03*
X245590Y687425D02*
D03*
X229190Y655725D02*
D03*
X195091Y773025D02*
D03*
X174591Y685125D02*
D03*
X205490Y700325D02*
D03*
X202791Y733825D02*
D03*
X217891Y654751D02*
D03*
X246990Y697225D02*
D03*
X233490Y656525D02*
D03*
X170591Y728445D02*
D03*
X235221Y772056D02*
D03*
X224590Y735825D02*
D03*
X208390Y702844D02*
D03*
X230490Y696425D02*
D03*
X240134Y698125D02*
D03*
X232390Y732425D02*
D03*
X235291Y715825D02*
D03*
X229890Y756125D02*
D03*
X211472Y695706D02*
D03*
X201291Y685025D02*
D03*
X197691Y682725D02*
D03*
X293791Y695625D02*
D03*
X199291Y724025D02*
D03*
X181991Y716025D02*
D03*
X229790Y638325D02*
D03*
X216390Y651725D02*
D03*
X247890Y674525D02*
D03*
X199591Y687925D02*
D03*
X126891Y692025D02*
D03*
Y707025D02*
D03*
X226391Y696825D02*
D03*
X216891Y704577D02*
D03*
X286390Y743025D02*
D03*
Y699525D02*
D03*
X222604Y686199D02*
D03*
X220890Y708525D02*
D03*
X224890Y708025D02*
D03*
X170891Y784025D02*
D03*
X188891Y632025D02*
D03*
X290390Y641525D02*
D03*
X504615Y760025D02*
D03*
X409115Y643025D02*
D03*
X405415Y730625D02*
D03*
X366915Y706725D02*
D03*
X480815Y717825D02*
D03*
X405515Y667725D02*
D03*
X397415Y643225D02*
D03*
X450315Y687425D02*
D03*
X433915Y655725D02*
D03*
X399815Y773025D02*
D03*
X379315Y685125D02*
D03*
X410215Y700325D02*
D03*
X407515Y733825D02*
D03*
X422615Y654751D02*
D03*
X451715Y697225D02*
D03*
X438215Y656525D02*
D03*
X375315Y728445D02*
D03*
X439946Y772056D02*
D03*
X429315Y735825D02*
D03*
X413115Y702844D02*
D03*
X435215Y696425D02*
D03*
X444859Y698125D02*
D03*
X437115Y732425D02*
D03*
X440015Y715825D02*
D03*
X434615Y756125D02*
D03*
X416196Y695706D02*
D03*
X406015Y685025D02*
D03*
X402415Y682725D02*
D03*
X498515Y695625D02*
D03*
X404015Y724025D02*
D03*
X386715Y716025D02*
D03*
X434515Y638325D02*
D03*
X421115Y651725D02*
D03*
X452615Y674525D02*
D03*
X404315Y687925D02*
D03*
X331615Y692025D02*
D03*
Y707025D02*
D03*
X431115Y696825D02*
D03*
X421615Y704577D02*
D03*
X491115Y743025D02*
D03*
Y699525D02*
D03*
X427328Y686199D02*
D03*
X425615Y708525D02*
D03*
X429615Y708025D02*
D03*
X375615Y784025D02*
D03*
X393615Y632025D02*
D03*
X495115Y641525D02*
D03*
D100*
X263090Y436601D02*
D03*
X211690Y453301D02*
D03*
X284591Y475301D02*
D03*
X247491Y457401D02*
D03*
X283836Y457301D02*
D03*
X222491Y466101D02*
D03*
X169291Y495401D02*
D03*
X296890Y470801D02*
D03*
X467815Y436601D02*
D03*
X416415Y453301D02*
D03*
X489315Y475301D02*
D03*
X452215Y457401D02*
D03*
X488560Y457301D02*
D03*
X427215Y466101D02*
D03*
X374015Y495401D02*
D03*
X501615Y470801D02*
D03*
X263090Y641325D02*
D03*
X211690Y658025D02*
D03*
X284591Y680025D02*
D03*
X247491Y662125D02*
D03*
X283836Y662025D02*
D03*
X222491Y670825D02*
D03*
X169291Y700125D02*
D03*
X296890Y675525D02*
D03*
X467815Y641325D02*
D03*
X416415Y658025D02*
D03*
X489315Y680025D02*
D03*
X452215Y662125D02*
D03*
X488560Y662025D02*
D03*
X427215Y670825D02*
D03*
X374015Y700125D02*
D03*
X501615Y675525D02*
D03*
M02*
