G04 Layer_Color=65535*
%FSLAX25Y25*%
%MOIN*%
G70*
G01*
G75*
%ADD62C,0.00787*%
%ADD64C,0.00800*%
D62*
X555320Y371591D02*
X912380D01*
X549017Y365682D02*
X555320Y371591D01*
X542909Y359573D02*
X549017Y365682D01*
X537000Y353270D02*
X542909Y359573D01*
X537000Y114320D02*
X542909Y108017D01*
X549017Y101909D01*
X555320Y96000D01*
X912380D02*
X918684Y101909D01*
X924792Y108017D01*
X930701Y114320D01*
X924792Y359573D02*
X930701Y353270D01*
X918684Y365682D02*
X924792Y359573D01*
X912380Y371591D02*
X918684Y365682D01*
X930701Y353162D02*
Y353270D01*
Y114320D02*
Y353162D01*
X912341Y96000D02*
X912380D01*
X737077D02*
X912341D01*
X624111D02*
X737077D01*
X582370D02*
X624111D01*
X564139D02*
X582370D01*
X558580D02*
X564139D01*
X556344D02*
X558580D01*
X555692D02*
X556344D01*
X555436D02*
X555692D01*
X555320D02*
X555436D01*
X537000Y114320D02*
Y291320D01*
Y331721D01*
Y345075D01*
Y350651D01*
Y352311D01*
Y352971D01*
Y353162D01*
Y353270D01*
X131820Y372091D02*
X488880D01*
X125517Y366182D02*
X131820Y372091D01*
X119409Y360073D02*
X125517Y366182D01*
X113500Y353770D02*
X119409Y360073D01*
X113500Y114820D02*
X119409Y108517D01*
X125517Y102409D01*
X131820Y96500D01*
X488880D02*
X495184Y102409D01*
X501292Y108517D01*
X507201Y114820D01*
X501292Y360073D02*
X507201Y353770D01*
X495184Y366182D02*
X501292Y360073D01*
X488880Y372091D02*
X495184Y366182D01*
X507201Y353662D02*
Y353770D01*
Y114820D02*
Y353662D01*
X488841Y96500D02*
X488880D01*
X313577D02*
X488841D01*
X200611D02*
X313577D01*
X158870D02*
X200611D01*
X140639D02*
X158870D01*
X135080D02*
X140639D01*
X132844D02*
X135080D01*
X132192D02*
X132844D01*
X131936D02*
X132192D01*
X131820D02*
X131936D01*
X113500Y114820D02*
Y291820D01*
Y332221D01*
Y345575D01*
Y351151D01*
Y352811D01*
Y353471D01*
Y353662D01*
Y353770D01*
X138110Y586976D02*
X279866D01*
X133724Y583516D02*
X138110Y586976D01*
X129509Y579857D02*
X133724Y583516D01*
X125472Y576005D02*
X129509Y579857D01*
X121620Y571968D02*
X125472Y576005D01*
X117960Y567752D02*
X121620Y571968D01*
X114500Y563366D02*
X117960Y567752D01*
X114500Y421610D02*
Y563366D01*
Y421610D02*
X117960Y417224D01*
X121620Y413009D01*
X125472Y408972D01*
X129509Y405120D01*
X133724Y401460D01*
X138110Y398000D01*
X279866D01*
X284252Y401460D01*
X288468Y405120D01*
X292505Y408972D01*
X296357Y413009D01*
X300016Y417224D01*
X303476Y421610D01*
Y563366D01*
X300016Y567752D02*
X303476Y563366D01*
X296357Y571968D02*
X300016Y567752D01*
X292505Y576005D02*
X296357Y571968D01*
X288468Y579857D02*
X292505Y576005D01*
X284253Y583516D02*
X288468Y579857D01*
X279866Y586976D02*
X284253Y583516D01*
X342835Y586976D02*
X484591D01*
X338448Y583516D02*
X342835Y586976D01*
X334233Y579857D02*
X338448Y583516D01*
X330196Y576005D02*
X334233Y579857D01*
X326344Y571968D02*
X330196Y576005D01*
X322685Y567752D02*
X326344Y571968D01*
X319224Y563366D02*
X322685Y567752D01*
X319224Y421610D02*
Y563366D01*
Y421610D02*
X322685Y417224D01*
X326344Y413009D01*
X330196Y408972D01*
X334233Y405120D01*
X338449Y401460D01*
X342835Y398000D01*
X484591D01*
X488977Y401460D01*
X493192Y405120D01*
X497229Y408972D01*
X501081Y413009D01*
X504741Y417224D01*
X508201Y421610D01*
Y563366D01*
X504741Y567752D02*
X508201Y563366D01*
X501081Y571968D02*
X504741Y567752D01*
X497229Y576005D02*
X501081Y571968D01*
X493192Y579857D02*
X497229Y576005D01*
X488977Y583516D02*
X493192Y579857D01*
X484591Y586976D02*
X488977Y583516D01*
X138110Y791701D02*
X279866D01*
X133724Y788241D02*
X138110Y791701D01*
X129509Y784581D02*
X133724Y788241D01*
X125472Y780729D02*
X129509Y784581D01*
X121620Y776692D02*
X125472Y780729D01*
X117960Y772477D02*
X121620Y776692D01*
X114500Y768091D02*
X117960Y772477D01*
X114500Y626335D02*
Y768091D01*
Y626335D02*
X117960Y621948D01*
X121620Y617733D01*
X125472Y613696D01*
X129509Y609844D01*
X133724Y606185D01*
X138110Y602724D01*
X279866D01*
X284252Y606185D01*
X288468Y609844D01*
X292505Y613696D01*
X296357Y617733D01*
X300016Y621948D01*
X303476Y626335D01*
Y768091D01*
X300016Y772477D02*
X303476Y768091D01*
X296357Y776692D02*
X300016Y772477D01*
X292505Y780729D02*
X296357Y776692D01*
X288468Y784581D02*
X292505Y780729D01*
X284253Y788241D02*
X288468Y784581D01*
X279866Y791701D02*
X284253Y788241D01*
X342835Y791701D02*
X484591D01*
X338448Y788241D02*
X342835Y791701D01*
X334233Y784581D02*
X338448Y788241D01*
X330196Y780729D02*
X334233Y784581D01*
X326344Y776692D02*
X330196Y780729D01*
X322685Y772477D02*
X326344Y776692D01*
X319224Y768091D02*
X322685Y772477D01*
X319224Y626335D02*
Y768091D01*
Y626335D02*
X322685Y621948D01*
X326344Y617733D01*
X330196Y613696D01*
X334233Y609844D01*
X338449Y606185D01*
X342835Y602724D01*
X484591D01*
X488977Y606185D01*
X493192Y609844D01*
X497229Y613696D01*
X501081Y617733D01*
X504741Y621948D01*
X508201Y626335D01*
Y768091D01*
X504741Y772477D02*
X508201Y768091D01*
X501081Y776692D02*
X504741Y772477D01*
X497229Y780729D02*
X501081Y776692D01*
X493192Y784581D02*
X497229Y780729D01*
X488977Y788241D02*
X493192Y784581D01*
X484591Y791701D02*
X488977Y788241D01*
D64*
X621563Y229998D02*
Y255798D01*
X608563D02*
X621563D01*
X608563Y229998D02*
Y255798D01*
Y229998D02*
X621563D01*
X182063Y222998D02*
X195063D01*
X182063D02*
Y248798D01*
X195063D01*
Y222998D02*
Y248798D01*
X139991Y495801D02*
Y508801D01*
Y495801D02*
X165791D01*
Y508801D01*
X139991D02*
X165791D01*
X344715Y495801D02*
Y508801D01*
Y495801D02*
X370515D01*
Y508801D01*
X344715D02*
X370515D01*
X139991Y700525D02*
Y713525D01*
Y700525D02*
X165791D01*
Y713525D01*
X139991D02*
X165791D01*
X344715Y700525D02*
Y713525D01*
Y700525D02*
X370515D01*
Y713525D01*
X344715D02*
X370515D01*
M02*
