G04 Layer_Color=8421504*
%FSLAX25Y25*%
%MOIN*%
G70*
G01*
G75*
%ADD10R,0.03150X0.04724*%
%ADD11R,0.04724X0.03150*%
%ADD12R,0.03740X0.03543*%
%ADD13R,0.11811X0.05512*%
%ADD14R,0.08661X0.14173*%
%ADD15R,0.08800X0.04800*%
%ADD16O,0.09055X0.02362*%
%ADD17R,0.05512X0.04724*%
G04:AMPARAMS|DCode=18|XSize=62.99mil|YSize=86.22mil|CornerRadius=15.75mil|HoleSize=0mil|Usage=FLASHONLY|Rotation=360.000|XOffset=0mil|YOffset=0mil|HoleType=Round|Shape=RoundedRectangle|*
%AMROUNDEDRECTD18*
21,1,0.06299,0.05472,0,0,360.0*
21,1,0.03150,0.08622,0,0,360.0*
1,1,0.03150,0.01575,-0.02736*
1,1,0.03150,-0.01575,-0.02736*
1,1,0.03150,-0.01575,0.02736*
1,1,0.03150,0.01575,0.02736*
%
%ADD18ROUNDEDRECTD18*%
%ADD19O,0.02362X0.08661*%
G04:AMPARAMS|DCode=20|XSize=21.65mil|YSize=64.96mil|CornerRadius=0mil|HoleSize=0mil|Usage=FLASHONLY|Rotation=135.000|XOffset=0mil|YOffset=0mil|HoleType=Round|Shape=Round|*
%AMOVALD20*
21,1,0.04331,0.02165,0.00000,0.00000,225.0*
1,1,0.02165,0.01531,0.01531*
1,1,0.02165,-0.01531,-0.01531*
%
%ADD20OVALD20*%

G04:AMPARAMS|DCode=21|XSize=21.65mil|YSize=64.96mil|CornerRadius=0mil|HoleSize=0mil|Usage=FLASHONLY|Rotation=45.000|XOffset=0mil|YOffset=0mil|HoleType=Round|Shape=Round|*
%AMOVALD21*
21,1,0.04331,0.02165,0.00000,0.00000,135.0*
1,1,0.02165,0.01531,-0.01531*
1,1,0.02165,-0.01531,0.01531*
%
%ADD21OVALD21*%

%ADD22O,0.01378X0.08268*%
%ADD23R,0.05512X0.04724*%
%ADD24R,0.04724X0.05512*%
%ADD27R,0.04409X0.01063*%
%ADD28R,0.11811X0.05512*%
%ADD30R,0.05000X0.02500*%
%ADD31R,0.03150X0.04724*%
%ADD32R,0.05906X0.09449*%
%ADD33R,0.05906X0.04134*%
%ADD34R,0.03543X0.03740*%
%ADD65R,0.08000X0.09600*%
D10*
X638020Y282398D02*
D03*
X645106D02*
D03*
X638020Y272398D02*
D03*
X645106D02*
D03*
X638020Y262398D02*
D03*
X645106D02*
D03*
X679106Y159398D02*
D03*
X672020D02*
D03*
X614106Y148898D02*
D03*
X607020D02*
D03*
X619520Y314898D02*
D03*
X626606D02*
D03*
X664106Y159398D02*
D03*
X657020D02*
D03*
X607020Y189398D02*
D03*
X614106D02*
D03*
X714020Y200898D02*
D03*
X721106D02*
D03*
Y170898D02*
D03*
X714020D02*
D03*
X735106Y200898D02*
D03*
X728020D02*
D03*
X619520Y329898D02*
D03*
X626606D02*
D03*
X231106Y243398D02*
D03*
X224020D02*
D03*
X231106Y235398D02*
D03*
X224020D02*
D03*
X231106Y227398D02*
D03*
X224020D02*
D03*
X283434Y488301D02*
D03*
X276348D02*
D03*
X488158D02*
D03*
X481072D02*
D03*
X283434Y693025D02*
D03*
X276348D02*
D03*
X488158D02*
D03*
X481072D02*
D03*
D11*
X699063Y248355D02*
D03*
Y255441D02*
D03*
X669063Y248355D02*
D03*
Y255441D02*
D03*
X630563Y172441D02*
D03*
Y165355D02*
D03*
X694263Y303255D02*
D03*
Y310341D02*
D03*
X704063Y303355D02*
D03*
Y310441D02*
D03*
X613063Y298355D02*
D03*
Y305441D02*
D03*
X748063Y308441D02*
D03*
Y301355D02*
D03*
X718063D02*
D03*
Y308441D02*
D03*
X605063Y305441D02*
D03*
Y298355D02*
D03*
X458563Y312855D02*
D03*
Y319941D02*
D03*
X449563D02*
D03*
Y312855D02*
D03*
X456563Y248941D02*
D03*
Y241855D02*
D03*
X425563D02*
D03*
Y248941D02*
D03*
X180563Y294855D02*
D03*
Y301941D02*
D03*
X466563Y215941D02*
D03*
Y208855D02*
D03*
X458563D02*
D03*
Y215941D02*
D03*
X456563Y156941D02*
D03*
Y149855D02*
D03*
X445563Y156941D02*
D03*
Y149855D02*
D03*
X433563Y156941D02*
D03*
Y149855D02*
D03*
X231563Y329855D02*
D03*
Y336941D02*
D03*
X223563Y329855D02*
D03*
Y336941D02*
D03*
X214563D02*
D03*
Y329855D02*
D03*
X233891Y440758D02*
D03*
Y447844D02*
D03*
X240891Y455758D02*
D03*
Y462844D02*
D03*
X233891D02*
D03*
Y455758D02*
D03*
X208891Y543758D02*
D03*
Y550844D02*
D03*
X195891Y564758D02*
D03*
Y571844D02*
D03*
X208891Y556758D02*
D03*
Y563844D02*
D03*
X216891Y556758D02*
D03*
Y563844D02*
D03*
X244890Y556758D02*
D03*
Y563844D02*
D03*
X438615Y440758D02*
D03*
Y447844D02*
D03*
X445615Y455758D02*
D03*
Y462844D02*
D03*
X438615D02*
D03*
Y455758D02*
D03*
X413615Y543758D02*
D03*
Y550844D02*
D03*
X400615Y564758D02*
D03*
Y571844D02*
D03*
X413615Y556758D02*
D03*
Y563844D02*
D03*
X421615Y556758D02*
D03*
Y563844D02*
D03*
X449615Y556758D02*
D03*
Y563844D02*
D03*
X233891Y645482D02*
D03*
Y652568D02*
D03*
X240891Y660482D02*
D03*
Y667568D02*
D03*
X233891D02*
D03*
Y660482D02*
D03*
X208891Y748482D02*
D03*
Y755568D02*
D03*
X195891Y769482D02*
D03*
Y776568D02*
D03*
X208891Y761482D02*
D03*
Y768568D02*
D03*
X216891Y761482D02*
D03*
Y768568D02*
D03*
X244890Y761482D02*
D03*
Y768568D02*
D03*
X438615Y645482D02*
D03*
Y652568D02*
D03*
X445615Y660482D02*
D03*
Y667568D02*
D03*
X438615D02*
D03*
Y660482D02*
D03*
X413615Y748482D02*
D03*
Y755568D02*
D03*
X400615Y769482D02*
D03*
Y776568D02*
D03*
X413615Y761482D02*
D03*
Y768568D02*
D03*
X421615Y761482D02*
D03*
Y768568D02*
D03*
X449615Y761482D02*
D03*
Y768568D02*
D03*
D12*
X589063Y249099D02*
D03*
Y236697D02*
D03*
X164063Y226599D02*
D03*
Y214197D02*
D03*
D13*
X599614Y213898D02*
D03*
X618512D02*
D03*
Y271898D02*
D03*
X599614D02*
D03*
X186340Y489301D02*
D03*
X167442D02*
D03*
X186340Y516301D02*
D03*
X167442D02*
D03*
X391064Y489301D02*
D03*
X372166D02*
D03*
X391064Y516301D02*
D03*
X372166D02*
D03*
X186340Y694025D02*
D03*
X167442D02*
D03*
X186340Y721025D02*
D03*
X167442D02*
D03*
X391064Y694025D02*
D03*
X372166D02*
D03*
X391064Y721025D02*
D03*
X372166D02*
D03*
D14*
X627264Y242898D02*
D03*
X200764Y235898D02*
D03*
D15*
X602863Y233798D02*
D03*
Y242898D02*
D03*
Y251998D02*
D03*
X176363Y244998D02*
D03*
Y235898D02*
D03*
Y226798D02*
D03*
D16*
X688476Y169398D02*
D03*
Y174398D02*
D03*
Y179398D02*
D03*
Y184398D02*
D03*
Y189398D02*
D03*
Y194398D02*
D03*
Y199398D02*
D03*
Y204398D02*
D03*
Y209398D02*
D03*
X652650Y169398D02*
D03*
Y174398D02*
D03*
Y179398D02*
D03*
Y184398D02*
D03*
Y189398D02*
D03*
Y194398D02*
D03*
Y199398D02*
D03*
Y204398D02*
D03*
Y209398D02*
D03*
X428650Y303398D02*
D03*
Y298398D02*
D03*
Y293398D02*
D03*
Y288398D02*
D03*
Y283398D02*
D03*
Y278398D02*
D03*
Y273398D02*
D03*
Y268398D02*
D03*
Y263398D02*
D03*
X464476Y303398D02*
D03*
Y298398D02*
D03*
Y293398D02*
D03*
Y288398D02*
D03*
Y283398D02*
D03*
Y278398D02*
D03*
Y273398D02*
D03*
Y268398D02*
D03*
Y263398D02*
D03*
D17*
X690063Y246692D02*
D03*
Y258504D02*
D03*
X679063Y246492D02*
D03*
Y258304D02*
D03*
X456563Y164492D02*
D03*
Y176304D02*
D03*
X445563Y164492D02*
D03*
Y176304D02*
D03*
X433563Y164492D02*
D03*
Y176304D02*
D03*
X202891Y445207D02*
D03*
Y433395D02*
D03*
X192891Y445207D02*
D03*
Y433395D02*
D03*
X196891Y467207D02*
D03*
Y455395D02*
D03*
X407615Y445207D02*
D03*
Y433395D02*
D03*
X397615Y445207D02*
D03*
Y433395D02*
D03*
X401615Y467207D02*
D03*
Y455395D02*
D03*
X202891Y649931D02*
D03*
Y638119D02*
D03*
X192891Y649931D02*
D03*
Y638119D02*
D03*
X196891Y671931D02*
D03*
Y660119D02*
D03*
X407615Y649931D02*
D03*
Y638119D02*
D03*
X397615Y649931D02*
D03*
Y638119D02*
D03*
X401615Y671931D02*
D03*
Y660119D02*
D03*
D18*
X641063Y329988D02*
D03*
Y293807D02*
D03*
X258891Y579391D02*
D03*
Y543210D02*
D03*
X463615Y579391D02*
D03*
Y543210D02*
D03*
X258891Y784116D02*
D03*
Y747935D02*
D03*
X463615Y784116D02*
D03*
Y747935D02*
D03*
D19*
X603063Y159449D02*
D03*
X608063D02*
D03*
X613063D02*
D03*
X618063D02*
D03*
X603063Y178347D02*
D03*
X608063D02*
D03*
X613063D02*
D03*
X618063D02*
D03*
X432063Y200949D02*
D03*
X437063D02*
D03*
X442063D02*
D03*
X447063D02*
D03*
X432063Y219846D02*
D03*
X437063D02*
D03*
X442063D02*
D03*
X447063D02*
D03*
D20*
X718576Y241000D02*
D03*
X720803Y238773D02*
D03*
X723030Y236546D02*
D03*
X725257Y234319D02*
D03*
X727484Y232092D02*
D03*
X729711Y229865D02*
D03*
X731939Y227638D02*
D03*
X734166Y225410D02*
D03*
X757550Y248795D02*
D03*
X755323Y251022D02*
D03*
X753096Y253249D02*
D03*
X750869Y255476D02*
D03*
X748642Y257703D02*
D03*
X746415Y259931D02*
D03*
X744188Y262158D02*
D03*
X741960Y264385D02*
D03*
X215993Y473814D02*
D03*
X213766Y476041D02*
D03*
X211539Y478268D02*
D03*
X209312Y480495D02*
D03*
X207085Y482722D02*
D03*
X204857Y484949D02*
D03*
X202630Y487176D02*
D03*
X200403Y489403D02*
D03*
X223788Y512788D02*
D03*
X226015Y510561D02*
D03*
X228242Y508334D02*
D03*
X230469Y506107D02*
D03*
X232696Y503880D02*
D03*
X234924Y501652D02*
D03*
X237151Y499425D02*
D03*
X239378Y497198D02*
D03*
X420718Y473814D02*
D03*
X418490Y476041D02*
D03*
X416263Y478268D02*
D03*
X414036Y480495D02*
D03*
X411809Y482722D02*
D03*
X409582Y484949D02*
D03*
X407355Y487176D02*
D03*
X405128Y489403D02*
D03*
X428512Y512788D02*
D03*
X430740Y510561D02*
D03*
X432967Y508334D02*
D03*
X435194Y506107D02*
D03*
X437421Y503880D02*
D03*
X439648Y501652D02*
D03*
X441875Y499425D02*
D03*
X444102Y497198D02*
D03*
X215993Y678538D02*
D03*
X213766Y680765D02*
D03*
X211539Y682992D02*
D03*
X209312Y685219D02*
D03*
X207085Y687446D02*
D03*
X204857Y689674D02*
D03*
X202630Y691901D02*
D03*
X200403Y694128D02*
D03*
X223788Y717512D02*
D03*
X226015Y715285D02*
D03*
X228242Y713058D02*
D03*
X230469Y710831D02*
D03*
X232696Y708604D02*
D03*
X234924Y706377D02*
D03*
X237151Y704150D02*
D03*
X239378Y701923D02*
D03*
X420718Y678538D02*
D03*
X418490Y680765D02*
D03*
X416263Y682992D02*
D03*
X414036Y685219D02*
D03*
X411809Y687446D02*
D03*
X409582Y689674D02*
D03*
X407355Y691901D02*
D03*
X405128Y694128D02*
D03*
X428512Y717512D02*
D03*
X430740Y715285D02*
D03*
X432967Y713058D02*
D03*
X435194Y710831D02*
D03*
X437421Y708604D02*
D03*
X439648Y706377D02*
D03*
X441875Y704150D02*
D03*
X444102Y701923D02*
D03*
D21*
X741960Y225410D02*
D03*
X744188Y227638D02*
D03*
X746415Y229865D02*
D03*
X748642Y232092D02*
D03*
X750869Y234319D02*
D03*
X753096Y236546D02*
D03*
X755323Y238773D02*
D03*
X757550Y241000D02*
D03*
X734166Y264385D02*
D03*
X731939Y262158D02*
D03*
X729711Y259931D02*
D03*
X727484Y257703D02*
D03*
X725257Y255476D02*
D03*
X723030Y253249D02*
D03*
X720803Y251022D02*
D03*
X718576Y248795D02*
D03*
X200403Y497198D02*
D03*
X202630Y499425D02*
D03*
X204857Y501652D02*
D03*
X207085Y503880D02*
D03*
X209312Y506107D02*
D03*
X211539Y508334D02*
D03*
X213766Y510561D02*
D03*
X215993Y512788D02*
D03*
X239378Y489403D02*
D03*
X237151Y487176D02*
D03*
X234924Y484949D02*
D03*
X232696Y482722D02*
D03*
X230469Y480495D02*
D03*
X228242Y478268D02*
D03*
X226015Y476041D02*
D03*
X223788Y473814D02*
D03*
X405128Y497198D02*
D03*
X407355Y499425D02*
D03*
X409582Y501652D02*
D03*
X411809Y503880D02*
D03*
X414036Y506107D02*
D03*
X416263Y508334D02*
D03*
X418490Y510561D02*
D03*
X420718Y512788D02*
D03*
X444102Y489403D02*
D03*
X441875Y487176D02*
D03*
X439648Y484949D02*
D03*
X437421Y482722D02*
D03*
X435194Y480495D02*
D03*
X432967Y478268D02*
D03*
X430740Y476041D02*
D03*
X428512Y473814D02*
D03*
X200403Y701923D02*
D03*
X202630Y704150D02*
D03*
X204857Y706377D02*
D03*
X207085Y708604D02*
D03*
X209312Y710831D02*
D03*
X211539Y713058D02*
D03*
X213766Y715285D02*
D03*
X215993Y717512D02*
D03*
X239378Y694128D02*
D03*
X237151Y691901D02*
D03*
X234924Y689674D02*
D03*
X232696Y687446D02*
D03*
X230469Y685219D02*
D03*
X228242Y682992D02*
D03*
X226015Y680765D02*
D03*
X223788Y678538D02*
D03*
X405128Y701923D02*
D03*
X407355Y704150D02*
D03*
X409582Y706377D02*
D03*
X411809Y708604D02*
D03*
X414036Y710831D02*
D03*
X416263Y713058D02*
D03*
X418490Y715285D02*
D03*
X420718Y717512D02*
D03*
X444102Y694128D02*
D03*
X441875Y691901D02*
D03*
X439648Y689674D02*
D03*
X437421Y687446D02*
D03*
X435194Y685219D02*
D03*
X432967Y682992D02*
D03*
X430740Y680765D02*
D03*
X428512Y678538D02*
D03*
D22*
X763488Y277315D02*
D03*
X766047D02*
D03*
X768606D02*
D03*
X771165D02*
D03*
X773724D02*
D03*
X776284D02*
D03*
X778843D02*
D03*
X781402D02*
D03*
X783961D02*
D03*
X786520D02*
D03*
X789079D02*
D03*
X791638D02*
D03*
X763488Y304480D02*
D03*
X766047D02*
D03*
X768606D02*
D03*
X771165D02*
D03*
X773724D02*
D03*
X776284D02*
D03*
X778843D02*
D03*
X781402D02*
D03*
X783961D02*
D03*
X786520D02*
D03*
X789079D02*
D03*
X791638D02*
D03*
X763488Y179815D02*
D03*
X766047D02*
D03*
X768606D02*
D03*
X771165D02*
D03*
X773724D02*
D03*
X776284D02*
D03*
X778843D02*
D03*
X781402D02*
D03*
X783961D02*
D03*
X786520D02*
D03*
X789079D02*
D03*
X791638D02*
D03*
X763488Y206980D02*
D03*
X766047D02*
D03*
X768606D02*
D03*
X771165D02*
D03*
X773724D02*
D03*
X776284D02*
D03*
X778843D02*
D03*
X781402D02*
D03*
X783961D02*
D03*
X786520D02*
D03*
X789079D02*
D03*
X791638D02*
D03*
D23*
X728732Y301748D02*
D03*
Y308047D02*
D03*
X737394Y301748D02*
D03*
Y308047D02*
D03*
X445894Y249047D02*
D03*
Y242748D02*
D03*
X437232Y249047D02*
D03*
Y242748D02*
D03*
X226560Y557151D02*
D03*
Y563450D02*
D03*
X235221Y557151D02*
D03*
Y563450D02*
D03*
X431284Y557151D02*
D03*
Y563450D02*
D03*
X439946Y557151D02*
D03*
Y563450D02*
D03*
X226560Y761876D02*
D03*
Y768175D02*
D03*
X235221Y761876D02*
D03*
Y768175D02*
D03*
X431284Y761876D02*
D03*
Y768175D02*
D03*
X439946Y761876D02*
D03*
Y768175D02*
D03*
D24*
X720713Y181567D02*
D03*
X714413D02*
D03*
X720713Y190228D02*
D03*
X714413D02*
D03*
D27*
X245032Y334382D02*
D03*
X256095D02*
D03*
X245032Y336350D02*
D03*
Y332413D02*
D03*
Y330445D02*
D03*
X256095Y336350D02*
D03*
Y332413D02*
D03*
Y330445D02*
D03*
D28*
X198012Y205398D02*
D03*
X179114D02*
D03*
X198012Y267898D02*
D03*
X179114D02*
D03*
X258442Y470301D02*
D03*
X277340D02*
D03*
X463166D02*
D03*
X482064D02*
D03*
X258442Y675025D02*
D03*
X277340D02*
D03*
X463166D02*
D03*
X482064D02*
D03*
D30*
X268891Y491926D02*
D03*
Y488723D02*
D03*
X473615Y491926D02*
D03*
Y488723D02*
D03*
X268891Y696650D02*
D03*
Y693447D02*
D03*
X473615Y696650D02*
D03*
Y693447D02*
D03*
D31*
X254348Y488301D02*
D03*
X261434D02*
D03*
X459072D02*
D03*
X466158D02*
D03*
X254348Y693025D02*
D03*
X261434D02*
D03*
X459072D02*
D03*
X466158D02*
D03*
D32*
X271890Y450305D02*
D03*
X261891D02*
D03*
X281891D02*
D03*
X250890D02*
D03*
X476615D02*
D03*
X466615D02*
D03*
X486615D02*
D03*
X455615D02*
D03*
X271890Y655029D02*
D03*
X261891D02*
D03*
X281891D02*
D03*
X250890D02*
D03*
X476615D02*
D03*
X466615D02*
D03*
X486615D02*
D03*
X455615D02*
D03*
D33*
X271890Y440955D02*
D03*
X261891D02*
D03*
X281891D02*
D03*
X250890D02*
D03*
X476615D02*
D03*
X466615D02*
D03*
X486615D02*
D03*
X455615D02*
D03*
X271890Y645679D02*
D03*
X261891D02*
D03*
X281891D02*
D03*
X250890D02*
D03*
X476615D02*
D03*
X466615D02*
D03*
X486615D02*
D03*
X455615D02*
D03*
D34*
X211690Y448301D02*
D03*
X224092D02*
D03*
X416414D02*
D03*
X428816D02*
D03*
X211690Y653025D02*
D03*
X224092D02*
D03*
X416414D02*
D03*
X428816D02*
D03*
D65*
X268891Y490301D02*
D03*
X473615D02*
D03*
X268891Y695025D02*
D03*
X473615D02*
D03*
M02*
