M48
;Layer_Color=9474304
;FILE_FORMAT=2:5
INCH,TZ
;TYPE=PLATED
T1F00S00C0.01181
T2F00S00C0.01968
T3F00S00C0.03543
T4F00S00C0.03600
T5F00S00C0.04331
T6F00S00C0.05512
T7F00S00C0.12992
%
T01
X795463Y189598
X786963Y201298
X783363Y214098
X786763Y233998
X787890Y237898
X786520Y252898
X772363Y256927
X777883Y265720
X779363Y270336
X773863Y270998
X767264Y271396
X768817Y283398
X762763Y284598
X777763Y284298
X775512Y298698
X775124Y311198
X757463Y308598
X746263Y291498
X741960Y282998
X728663Y269298
X727363Y265498
X733863Y255598
X735963Y246598
X735863Y239198
X742463Y236398
X750663Y227898
X751463Y225298
X754663Y228598
X759163Y224898
X761663Y218398
X763488Y212423
X758163Y212898
X776663Y213398
X777463Y217080
X779963Y201398
X776763Y198998
X771163Y185298
X764163Y187598
X755963Y189398
X773724Y169598
X776416Y171351
X759040Y234198
X760547Y254398
X713763Y260883
X711563Y267298
X706063Y268498
X698063Y252498
X696863Y298798
X682763Y201598
X717263Y199198
X705863Y181998
X472663Y286198
X246363Y341298
X229790Y433601
X229190Y451001
X233490Y451801
X217891Y450027
X216390Y447001
X204391Y438301
X192691Y438501
X188891Y427301
X200791Y463001
X290390Y436801
X397415Y438501
X409115Y438301
X421115Y447001
X422615Y450027
X433915Y451001
X438215Y451801
X434515Y433601
X393615Y427301
X405515Y463001
X422163Y320898
X495115Y436801
X768963Y347098
X777063Y333198
X794663Y313098
X498515Y490901
X491115Y494801
X480815Y513101
X491115Y538301
X504615Y555301
X434615Y551401
X439946Y567332
X399815Y568301
X375615Y579301
X375315Y523721
X386715Y511301
X404015Y519301
X405415Y525901
X407515Y529101
X429315Y531101
X437115Y527701
X440015Y511101
X429615Y503301
X425615Y503801
X421615Y499852
X413115Y498119
X410215Y495601
X416196Y490982
X431115Y492101
X435215Y491701
X444859Y493401
X451715Y492501
X450315Y482701
X452615Y469801
X427328Y481474
X406015Y480301
X404315Y483201
X402415Y478001
X379315Y480401
X366915Y502001
X331615Y502301
Y487301
X293791Y490901
X286390Y494801
X276091Y513101
X286390Y538301
X299890Y555301
X229890Y551401
X235221Y567332
X195091Y568301
X170891Y579301
X170591Y523721
X181991Y511301
X199291Y519301
X200691Y525901
X202791Y529101
X224590Y531101
X232390Y527701
X235291Y511101
X224890Y503301
X220890Y503801
X216891Y499852
X208390Y498119
X205490Y495601
X211472Y490982
X226391Y492101
X230490Y491701
X240134Y493401
X246990Y492501
X245590Y482701
X247890Y469801
X222604Y481474
X201291Y480301
X199591Y483201
X197691Y478001
X174591Y480401
X162191Y502001
X126891Y502301
Y487301
Y692025
Y707025
X162191Y706725
X181991Y716025
X170591Y728445
X200691Y730625
X202791Y733825
X199291Y724025
X205490Y700325
X208390Y702844
X211472Y695706
X216891Y704577
X220890Y708525
X224890Y708025
X226391Y696825
X230490Y696425
X240134Y698125
X246990Y697225
X245590Y687425
X247890Y674525
X233490Y656525
X229190Y655725
X217891Y654751
X216390Y651725
X204391Y643025
X192691Y643225
X188891Y632025
X229790Y638325
X222604Y686199
X201291Y685025
X199591Y687925
X197691Y682725
X200791Y667725
X174591Y685125
X235291Y715825
X232390Y732425
X224590Y735825
X229890Y756125
X235221Y772056
X195091Y773025
X299890Y760025
X286390Y743025
X276091Y717825
X286390Y699525
X293791Y695625
X290390Y641525
X331615Y692025
Y707025
X366915Y706725
X386715Y716025
X375315Y728445
X405415Y730625
X407515Y733825
X404015Y724025
X410215Y700325
X413115Y702844
X416196Y695706
X421615Y704577
X425615Y708525
X429615Y708025
X431115Y696825
X435215Y696425
X444859Y698125
X451715Y697225
X450315Y687425
X452615Y674525
X438215Y656525
X433915Y655725
X422615Y654751
X421115Y651725
X409115Y643025
X397415Y643225
X393615Y632025
X434515Y638325
X427328Y686199
X406015Y685025
X404315Y687925
X402415Y682725
X405515Y667725
X379315Y685125
X440015Y715825
X437115Y732425
X429315Y735825
X434615Y756125
X439946Y772056
X399815Y773025
X504615Y760025
X491115Y743025
X480815Y717825
X491115Y699525
X498515Y695625
X495115Y641525
X375615Y784025
X170891
T02
X211690Y453301
X222491Y466101
X247491Y457401
X263090Y436601
X283836Y457301
X416415Y453301
X427215Y466101
X452215Y457401
X467815Y436601
X488560Y457301
X489315Y475301
X501615Y470801
X374015Y495401
X296890Y470801
X284591Y475301
X169291Y495401
Y700125
X222491Y670825
X211690Y658025
X247491Y662125
X263090Y641325
X283836Y662025
X284591Y680025
X296890Y675525
X374015Y700125
X427215Y670825
X416415Y658025
X452215Y662125
X467815Y641325
X488560Y662025
X489315Y680025
X501615Y675525
T03
X258563Y111083
X268563
X278563
X288563
Y121083
X278563
X268563
X258563
X333563
X343563
X353563
X363563
Y111083
X353563
X343563
X333563
X814063Y155865
X824063
Y165865
Y175865
Y185865
Y195865
Y205865
Y215865
Y225865
X814063
Y215865
Y205865
Y195865
Y185865
Y175865
Y165865
Y253365
X824063
Y263365
Y273365
Y283365
Y293365
Y303365
X814063
Y293365
Y283365
Y273365
Y263365
X680563Y292898
Y302898
X670563
Y292898
X587063Y291898
Y281898
Y301898
Y311898
X562063Y287398
X552063
Y277398
X562063
Y267398
X552063
Y257398
X562063
Y214398
X552063
Y204398
X562063
Y194398
X552063
Y184398
X562063
X587063Y187898
Y177898
X161563Y293398
Y303398
X138063Y287398
Y277398
Y267398
Y257398
X128063
Y267398
Y277398
Y287398
Y215398
Y205398
Y195398
Y185398
X138063
Y195398
Y205398
Y215398
X144820Y464301
X151891Y457230
X158962Y464301
Y450159
X166033Y457230
X210563Y358398
X220563
X230563
X240563
X250563
X260563
X363686Y450159
X356615Y457230
X349544Y464301
X363686
X370757Y457230
X587063Y331898
Y321898
X670563Y312898
X680563
X814063Y313365
X824063
Y323365
X814063
X498615Y500301
Y510301
Y520301
Y530301
Y540301
Y550301
X462615Y528301
Y518301
Y508301
X452615
Y518301
Y528301
X370757Y548372
X363686Y541301
X356615Y534230
X349544Y541301
X356615Y548372
X363686Y555443
X349544Y527159
X342473Y534230
X326615Y507301
Y497301
X342473Y471372
X356615
X349544Y478443
X293891Y500301
Y510301
Y520301
Y530301
Y540301
Y550301
X257891Y528301
Y518301
Y508301
X247890
Y518301
Y528301
X166033Y548372
X158962Y541301
Y555443
X151891Y548372
Y534230
X144820Y541301
Y527159
X137748Y534230
X121891Y507301
Y497301
X137748Y471372
X151891
X144820Y478443
Y669025
X151891Y676096
Y661954
X137748Y676096
X144820Y683167
X121891Y702025
Y712025
X144820Y731883
X151891Y738954
X144820Y746025
X151891Y753096
X137748Y738954
X158962Y746025
X166033Y753096
X158962Y760167
Y669025
Y654883
X166033Y661954
X247890Y713025
X257891
Y723025
X247890
Y733025
X257891
X293891Y735025
Y725025
Y715025
Y705025
Y745025
Y755025
X342473Y738954
X356615
X349544Y746025
X363686
X356615Y753096
X370757
X363686Y760167
X349544Y731883
X326615Y712025
Y702025
X342473Y676096
X349544Y669025
X356615Y676096
Y661954
X363686Y669025
Y654883
X370757Y661954
X349544Y683167
X452615Y713025
X462615
Y723025
X452615
Y733025
X462615
X498615Y735025
Y725025
Y715025
Y705025
Y745025
Y755025
T04
X313563Y169898
X323563
X333563
X343563
X353563
X363563
X373563
X383563
X393563
X403563
X413563
Y179898
X403563
X393563
X383563
X373563
X363563
X353563
X343563
X333563
X323563
X313563
Y299898
X323563
X333563
Y309898
X323563
X313563
X343563
X353563
X363563
X373563
X383563
X393563
X403563
X413563
Y299898
Y289898
Y279898
Y269898
X403563
Y279898
Y289898
Y299898
X393563
X383563
X373563
X363563
X353563
X343563
X303563
Y309898
X293563
Y299898
X283563
Y309898
X273563
Y299898
X263563
Y309898
Y179898
Y169898
X253563
Y179898
X243563
Y169898
X233563
Y179898
X223563
Y169898
X213563
Y179898
X273563
Y169898
X283563
X293563
X303563
Y179898
X293563
X283563
T05
X154563Y112146
X164563
X174563
X184563
X194563
X204563
X214563
X224563
X394563Y111398
X404563
X414563
X424563
X434563
X444563
X454563
X464563
X566563Y110898
X576563
X586563
X601563
X611563
X621563
X636563
X646563
X656563
X671563
X681563
X691563
X706563
X716563
X726563
X741563
X751563
X761563
X776563
X786563
X796563
X811563
X821563
X831563
X846563
X856563
X866563
X881563
X891563
X901563
X857063Y136980
Y146980
Y156980
Y171980
Y181980
Y191980
Y206980
Y216980
Y226980
Y241980
Y251980
Y261980
Y276980
Y286980
Y296980
Y311980
X917063Y298398
Y288398
Y278398
Y263398
Y253398
Y243398
Y228398
Y218398
Y208398
Y193398
Y183398
Y173398
X155891Y411301
X165891
X175891
X185891
X195891
X205890
X215891
X225890
X360615
X370615
X380615
X390615
X400615
X410615
X420615
X430615
X567063Y357398
X577063
X587063
X602063
X612063
X622063
X637063
X647063
X657063
X672063
X682063
X692063
X707063
X717063
X727063
X742063
X752063
X762063
X777063
X787063
X797063
X812063
X822063
X832063
X847063
X857063
X867063
X882063
X892063
X902063
X857063Y331980
Y321980
X430615Y616025
X420615
X410615
X400615
X390615
X380615
X370615
X360615
X225890
X215891
X205890
X195891
X185891
X175891
X165891
X155891
T06
X242390Y418301
X257390
X447115
X462115
Y623025
X447115
X257390
X242390
T07
X129311Y151516
X487579
X552811Y151016
X911079
X129311Y320807
X134991Y419201
X282390
X339715
X487115
X487579Y320807
X552811Y320307
X911079
X486915Y566501
X487115Y623925
X339715
X339815Y566501
X282190
X282390Y623925
X134991
X135091Y566501
Y771225
X282190
X339815
X486915
M30
