  0
SECTION
  2
HEADER
  9
$ACADVER
  1
AC1015
  9
$ACADMAINTVER
 70
     6
  9
$DWGCODEPAGE
  3
ANSI_1252
  9
$INSBASE
 10
0.0
 20
0.0
 30
0.0
  9
$EXTMIN
 10
0.0
 20
0.0
 30
0.0
  9
$EXTMAX
 10
279.8125
 20
323.3125
 30
2.0
  9
$LIMMIN
 10
0.0
 20
0.0
  9
$LIMMAX
 10
420.0
 20
297.0
  9
$ORTHOMODE
 70
     0
  9
$REGENMODE
 70
     1
  9
$FILLMODE
 70
     1
  9
$QTEXTMODE
 70
     0
  9
$MIRRTEXT
 70
     1
  9
$LTSCALE
 40
1.0
  9
$ATTMODE
 70
     1
  9
$TEXTSIZE
 40
2.5
  9
$TRACEWID
 40
1.0
  9
$TEXTSTYLE
  7
Standard
  9
$CLAYER
  8
0
  9
$CELTYPE
  6
ByLayer
  9
$CECOLOR
 62
   256
  9
$CELTSCALE
 40
1.0
  9
$DISPSILH
 70
     0
  9
$DIMSCALE
 40
1.0
  9
$DIMASZ
 40
2.5
  9
$DIMEXO
 40
0.625
  9
$DIMDLI
 40
3.75
  9
$DIMRND
 40
0.0
  9
$DIMDLE
 40
0.0
  9
$DIMEXE
 40
1.25
  9
$DIMTP
 40
0.0
  9
$DIMTM
 40
0.0
  9
$DIMTXT
 40
2.5
  9
$DIMCEN
 40
2.5
  9
$DIMTSZ
 40
0.0
  9
$DIMTOL
 70
     0
  9
$DIMLIM
 70
     0
  9
$DIMTIH
 70
     0
  9
$DIMTOH
 70
     0
  9
$DIMSE1
 70
     0
  9
$DIMSE2
 70
     0
  9
$DIMTAD
 70
     1
  9
$DIMZIN
 70
     8
  9
$DIMBLK
  1

  9
$DIMASO
 70
     1
  9
$DIMSHO
 70
     1
  9
$DIMPOST
  1

  9
$DIMAPOST
  1

  9
$DIMALT
 70
     0
  9
$DIMALTD
 70
     3
  9
$DIMALTF
 40
0.03937
  9
$DIMLFAC
 40
1.0
  9
$DIMTOFL
 70
     1
  9
$DIMTVP
 40
0.0
  9
$DIMTIX
 70
     0
  9
$DIMSOXD
 70
     0
  9
$DIMSAH
 70
     0
  9
$DIMBLK1
  1

  9
$DIMBLK2
  1

  9
$DIMSTYLE
  2

  9
$DIMCLRD
 70
     0
  9
$DIMCLRE
 70
     0
  9
$DIMCLRT
 70
     0
  9
$DIMTFAC
 40
1.0
  9
$DIMGAP
 40
0.625
  9
$DIMJUST
 70
     0
  9
$DIMSD1
 70
     0
  9
$DIMSD2
 70
     0
  9
$DIMTOLJ
 70
     0
  9
$DIMTZIN
 70
     8
  9
$DIMALTZ
 70
     0
  9
$DIMALTTZ
 70
     0
  9
$DIMUPT
 70
     0
  9
$DIMDEC
 70
     2
  9
$DIMTDEC
 70
     2
  9
$DIMALTU
 70
     2
  9
$DIMALTTD
 70
     3
  9
$DIMTXSTY
  7
Standard
  9
$DIMAUNIT
 70
     0
  9
$DIMADEC
 70
     0
  9
$DIMALTRND
 40
0.0
  9
$DIMAZIN
 70
     0
  9
$DIMDSEP
 70
    44
  9
$DIMATFIT
 70
     0
  9
$DIMFRAC
 70
     0
  9
$DIMLDRBLK
  1

  9
$DIMLUNIT
 70
     2
  9
$DIMLWD
 70
    -2
  9
$DIMLWE
 70
    -2
  9
$DIMTMOVE
 70
     0
  9
$LUNITS
 70
     2
  9
$LUPREC
 70
     4
  9
$SKETCHINC
 40
1.0
  9
$FILLETRAD
 40
2.5
  9
$AUNITS
 70
     0
  9
$AUPREC
 70
     0
  9
$MENU
  1
.
  9
$ELEVATION
 40
0.0
  9
$PELEVATION
 40
0.0
  9
$THICKNESS
 40
0.0
  9
$LIMCHECK
 70
     0
  9
$CHAMFERA
 40
2.5
  9
$CHAMFERB
 40
2.5
  9
$CHAMFERC
 40
0.0
  9
$CHAMFERD
 40
0.0
  9
$SKPOLY
 70
     0
  9
$TDCREATE
 40
0.000000000
  9
$TDUCREATE
 40
0.000000000
  9
$TDUPDATE
 40
0.000000000
  9
$TDUUPDATE
 40
0.000000000
  9
$TDINDWG
 40
0.0000000000
  9
$TDUSRTIMER
 40
0.0000000000
  9
$USRTIMER
 70
     1
  9
$ANGBASE
 50
0.0
  9
$ANGDIR
 70
     0
  9
$PDMODE
 70
     0
  9
$PDSIZE
 40
0.0
  9
$PLINEWID
 40
0.0
  9
$SPLFRAME
 70
     0
  9
$SPLINETYPE
 70
     6
  9
$SPLINESEGS
 70
     8
  9
$HANDSEED
  5
16E
  9
$SURFTAB1
 70
     6
  9
$SURFTAB2
 70
     6
  9
$SURFTYPE
 70
     6
  9
$SURFU
 70
     6
  9
$SURFV
 70
     6
  9
$UCSBASE
  2

  9
$UCSNAME
  2

  9
$UCSORG
 10
0.0
 20
0.0
 30
0.0
  9
$UCSXDIR
 10
1.0
 20
0.0
 30
0.0
  9
$UCSYDIR
 10
0.0
 20
1.0
 30
0.0
  9
$UCSORTHOREF
  2

  9
$UCSORTHOVIEW
 70
     1
  9
$UCSORGTOP
 10
0.0
 20
0.0
 30
0.0
  9
$UCSORGBOTTOM
 10
0.0
 20
0.0
 30
0.0
  9
$UCSORGLEFT
 10
0.0
 20
0.0
 30
0.0
  9
$UCSORGRIGHT
 10
0.0
 20
0.0
 30
0.0
  9
$UCSORGFRONT
 10
0.0
 20
0.0
 30
0.0
  9
$UCSORGBACK
 10
0.0
 20
0.0
 30
0.0
  9
$PUCSBASE
  2

  9
$PUCSNAME
  2

  9
$PUCSORG
 10
0.0
 20
0.0
 30
0.0
  9
$PUCSXDIR
 10
1.0
 20
0.0
 30
0.0
  9
$PUCSYDIR
 10
0.0
 20
1.0
 30
0.0
  9
$PUCSORTHOREF
  2

  9
$PUCSORTHOVIEW
 70
     0
  9
$PUCSORGTOP
 10
0.0
 20
0.0
 30
0.0
  9
$PUCSORGBOTTOM
 10
0.0
 20
0.0
 30
0.0
  9
$PUCSORGLEFT
 10
0.0
 20
0.0
 30
0.0
  9
$PUCSORGRIGHT
 10
0.0
 20
0.0
 30
0.0
  9
$PUCSORGFRONT
 10
0.0
 20
0.0
 30
0.0
  9
$PUCSORGBACK
 10
0.0
 20
0.0
 30
0.0
  9
$USERI1
 70
     0
  9
$USERI2
 70
     0
  9
$USERI3
 70
     0
  9
$USERI4
 70
     0
  9
$USERI5
 70
     0
  9
$USERR1
 40
0.0
  9
$USERR2
 40
0.0
  9
$USERR3
 40
0.0
  9
$USERR4
 40
0.0
  9
$USERR5
 40
0.0
  9
$WORLDVIEW
 70
     1
  9
$SHADEDGE
 70
     3
  9
$SHADEDIF
 70
    70
  9
$TILEMODE
 70
     1
  9
$MAXACTVP
 70
    48
  9
$PINSBASE
 10
0.0
 20
0.0
 30
0.0
  9
$PLIMCHECK
 70
     0
  9
$PEXTMIN
 10
0.0
 20
0.0
 30
0.0
  9
$PEXTMAX
 10
279.8125
 20
323.3125
 30
2.0
  9
$PLIMMIN
 10
0.0
 20
0.0
  9
$PLIMMAX
 10
420.0
 20
297.0
  9
$UNITMODE
 70
     0
  9
$VISRETAIN
 70
     0
  9
$PLINEGEN
 70
     0
  9
$PSLTSCALE
 70
     1
  9
$TREEDEPTH
 70
  3020
  9
$CMLSTYLE
  2
Standard
  9
$CMLJUST
 70
     0
  9
$CMLSCALE
 40
20.0
  9
$PROXYGRAPHICS
 70
     1
  9
$MEASUREMENT
 70
     1
  9
$CELWEIGHT
370
    -1
  9
$ENDCAPS
280
     0
  9
$JOINSTYLE
280
     0
  9
$LWDISPLAY
290
     0
  9
$INSUNITS
 70
     0
  9
$HYPERLINKBASE
  1

  9
$STYLESHEET
  1

  9
$XEDIT
290
     1
  9
$CEPSNTYPE
380
     0
  9
$PSTYLEMODE
290
     0
  9
$FINGERPRINTGUID
  2

  9
$VERSIONGUID
  2

  9
$EXTNAMES
290
     0
  9
$PSVPSCALE
 40
0.0
  0
ENDSEC
  0
SECTION
  2
CLASSES
  0
CLASS
  1
LWPOLYLINE
  2
AcDbPolyline
  3
AutoCAD 2000
 90
        0
280
     0
281
     1
  0
CLASS
  1
IMAGE
  2
AcDbRasterImage
  3
ISM
 90
      127
280
     0
281
     1
  0
CLASS
  1
OLE2FRAME
  2
AcDbOle2Frame
  3
AutoCAD 2000
 90
        0
280
     0
281
     1
  0
CLASS
  1
HATCH
  2
AcDbHatch
  3
AutoCAD 2000
 90
        0
280
     0
281
     1
  0
CLASS
  1
DICTIONARYVAR
  2
AcDbDictionaryVar
  3
AutoCAD 2000
 90
        0
280
     0
281
     0
  0
CLASS
  1
RASTERVARIABLES
  2
AcDbRasterVariables
  3
ISM
 90
        0
280
     0
281
     0
  0
CLASS
  1
IMAGEDEF
  2
AcDbRasterImageDef
  3
ISM
 90
        0
280
     0
281
     0
  0
CLASS
  1
IMAGEDEF_REACTOR
  2
AcDbRasterImageDefReactor
  3
ISM
 90
        1
280
     0
281
     0
  0
CLASS
  1
IDBUFFER
  2
AcDbIdBuffer
  3
AutoCAD 2000
 90
        0
280
     0
281
     0
  0
CLASS
  1
SPATIAL_FILTER
  2
AcDbSpatialFilter
  3
AutoCAD 2000
 90
        0
280
     0
281
     0
  0
CLASS
  1
XRECORD
  2
AcDbXrecord
  3
AutoCAD 2000
 90
        0
280
     0
281
     0
  0
CLASS
  1
SORTENTSTABLE
  2
AcDbSortentsTable
  3
AutoCAD 2000
 90
        0
280
     0
281
     0
  0
CLASS
  1
LAYER_INDEX
  2
AcDbLayerIndex
  3
AutoCAD 2000
 90
        0
280
     0
281
     0
  0
CLASS
  1
SPATIAL_INDEX
  2
AcDbSpatialIndex
  3
AutoCAD 2000
 90
        0
280
     0
281
     0
  0
CLASS
  1
OBJECT_PTR
  2
CAseDLPNTableRecord
  3
"ASE-LPNTableRecord"
 90
        1
280
     0
281
     0
  0
CLASS
  1
LAYOUT
  2
AcDbLayout
  3
AutoCAD 2000
 90
        0
280
     0
281
     0
  0
CLASS
  1
PLOTSETTINGS
  2
AcDbPlotSettings
  3
AutoCAD 2000
 90
        0
280
     0
281
     0
  0
CLASS
  1
ACDBDICTIONARYWDFLT
  2
AcDbDictionaryWithDefault
  3
AutoCAD 2000
 90
        0
280
     0
281
     0
  0
CLASS
  1
ACDBPLACEHOLDER
  2
AcDbPlaceHolder
  3
AutoCAD 2000
 90
        0
280
     0
281
     0
  0
CLASS
  1
VBA_PROJECT
  2
AcDbVbaProject
  3
acadvba
 90
        0
280
     0
281
     0
  0
CLASS
  1
WIPEOUT
  2
AcDbWipeout
  3
WipeOut|AutoCAD Express Tool|expresstools@autodesk.com
 90
      127
280
     0
281
     1
  0
CLASS
  1
WIPEOUTVARIABLES
  2
AcDbWipeoutVariables
  3
WipeOut|AutoCAD Express Tool|expresstools@autodesk.com
 90
        0
280
     0
281
     0
  0
CLASS
  1
RTEXT
  2
RText
  3
RText|AutoCAD Express Tool|expresstools@autodesk.com
 90
        0
280
     0
281
     1
  0
CLASS
  1
ARCALIGNEDTEXT
  2
AcDbArcAlignedText
  3
ATEXT|AutoCAD Express Tool|expresstools@autodesk.com
 90
        0
280
     0
281
     1
  0
ENDSEC
  0
SECTION
  2
TABLES
  0
TABLE
  2
VPORT
  5
7
100
AcDbSymbolTable
 70
     1
  0
VPORT
  5
15
100
AcDbSymbolTableRecord
100
AcDbViewportTableRecord
  2
*ACTIVE
 70
     0
 10
0.0
 20
0.0
 11
1.0
 21
1.0
 12
6.591288
 22
4.579184
 13
0.0
 23
0.0
 14
1.0
 24
1.0
 15
0.0
 25
0.0
 16
0.0
 26
0.0
 36
1.0
 17
0.0
 27
0.0
 37
0.0
 40
9.158369
 41
0.688564
 42
50.0
 43
0.0
 44
0.0
 50
0.0
 51
0.0
 71
     0
 72
   100
 73
     1
 74
     1
 75
     0
 76
     0
 77
     0
 78
     0
281
     0
 65
     0
110
0.0
120
0.0
130
0.0
111
1.0
121
0.0
131
0.0
112
0.0
122
1.0
132
0.0
345
0
346
0
 79
     0
146
0.0
  0
ENDTAB
  0
TABLE
  2
LTYPE
  5
4
100
AcDbSymbolTable
 70
     3
  0
LTYPE
  5
11
100
AcDbSymbolTableRecord
100
AcDbLinetypeTableRecord
  2
ByBlock
 70
    64
  3

 72
    65
 73
     0
 40
0.0
  0
LTYPE
  5
12
100
AcDbSymbolTableRecord
100
AcDbLinetypeTableRecord
  2
ByLayer
 70
    64
  3

 72
    65
 73
     0
 40
0.0
  0
LTYPE
  5
13
100
AcDbSymbolTableRecord
100
AcDbLinetypeTableRecord
  2
Continuous
 70
    64
  3
Solid line
 72
    65
 73
     0
 40
0.0
  0
ENDTAB
  0
TABLE
  2
LAYER
  5
2
100
AcDbSymbolTable
 70
     1
  0
LAYER
  5
14
100
AcDbSymbolTableRecord
100
AcDbLayerTableRecord
  2
0
 70
     0
 62
     7
  6
Continuous
290
     1
370
    -3
390
1D
  0
ENDTAB
  0
TABLE
  2
STYLE
  5
3
100
AcDbSymbolTable
 70
     1
  0
STYLE
  5
17
100
AcDbSymbolTableRecord
100
AcDbTextStyleTableRecord
  2
Standard
 70
     0
 40
0.0
 41
1.0
 50
0.0
 71
     0
 42
0.0
  3
txt
  4

  0
ENDTAB
  0
TABLE
  2
VIEW
  5
5
100
AcDbSymbolTable
 70
     0
  0
ENDTAB
  0
TABLE
  2
UCS
  5
6
100
AcDbSymbolTable
 70
     0
  0
ENDTAB
  0
TABLE
  2
APPID
  5
8
100
AcDbSymbolTable
 70
     1
  0
APPID
  5
16
100
AcDbSymbolTableRecord
100
AcDbRegAppTableRecord
  2
ACAD
 70
     0
  0
ENDTAB
  0
TABLE
  2
DIMSTYLE
  5
9
100
AcDbSymbolTable
 70
     1
100
AcDbDimStyleTable
 71
     0
  0
DIMSTYLE
105
18
100
AcDbSymbolTableRecord
100
AcDbDimStyleTableRecord
  2
Standard
 70
     0
  3

  4

 40
1.0
 41
0.18
 42
0.0625
 43
0.38
 44
0.18
 45
0.0
 46
0.0
 47
0.0
 48
0.0
 71
     0
 72
     0
 73
     1
 74
     1
 75
     0
 76
     0
 77
     0
 78
     0
 79
     0
140
0.18
141
0.09
142
0.0
143
25.4
144
1.0
145
0.0
146
1.0
147
0.09
148
0.0
170
     0
171
     2
172
     0
173
     0
174
     0
175
     0
176
     0
177
     0
178
     0
179
     0
271
     4
272
     4
273
     2
274
     2
275
     0
276
     0
277
     2
278
    46
279
     0
280
     0
281
     0
282
     0
283
     1
284
     0
285
     0
286
     0
288
     0
289
     3
340
17
341
0
342
0
343
0
344
0
371
    -2
372
    -2
  0
ENDTAB
  0
TABLE
  2
BLOCK_RECORD
  5
1
100
AcDbSymbolTable
 70
     0
  0
BLOCK_RECORD
  5
A
100
AcDbSymbolTableRecord
100
AcDbBlockTableRecord
  2
*MODEL_SPACE
340
20
  0
BLOCK_RECORD
  5
B
100
AcDbSymbolTableRecord
100
AcDbBlockTableRecord
  2
*PAPER_SPACE
340
21
  0
ENDTAB
  0
ENDSEC
  0
SECTION
  2
BLOCKS
  0
BLOCK
  5
D
100
AcDbEntity
  8
0
390
0
100
AcDbBlockBegin
  2
*MODEL_SPACE
 70
     0
 10
0.0
 20
0.0
 30
0.0
  3
*MODEL_SPACE
  1

  0
ENDBLK
  5
E
100
AcDbEntity
  8
0
390
0
100
AcDbBlockEnd
  0
BLOCK
  5
F
100
AcDbEntity
 67
     1
  8
0
390
0
100
AcDbBlockBegin
  2
*PAPER_SPACE
 70
     0
 10
0.0
 20
0.0
 30
0.0
  3
*PAPER_SPACE
  1

  0
ENDBLK
  5
10
100
AcDbEntity
 67
     1
  8
0
390
0
100
AcDbBlockEnd
  0
ENDSEC
  0
SECTION
  2
ENTITIES
  0
VIEWPORT
  5
16D
100
AcDbEntity
 67
     1
  8
0
370
     0
390
0
 62
     0
 48
0.0
100
AcDbViewport
 10
0.0
 20
0.0
 30
0.0
 40
1000.0
 41
1000.0
 68
     1
 69
     1
 12
0.0
 22
0.0
 13
0.0
 23
0.0
 14
1.0
 24
1.0
 15
1.0
 25
1.0
 16
0.0
 26
0.0
 36
1.0
 17
0.0
 27
0.0
 37
0.0
 42
50.0
 43
0.0
 44
0.0
 45
1000.0
 50
0.0
 51
0.0
 72
   100
 90
        0
340
0
  1

281
     0
 71
     0
 74
     1
110
0.0
120
0.0
130
0.0
111
1.0
121
0.0
131
0.0
112
0.0
122
1.0
132
0.0
345
0
346
0
 79
     0
146
0.0
  0
ARC
  5
24
100
AcDbEntity
  8
0
370
    35
390
0
 62
     7
100
AcDbCircle
 10
97.136459
 20
313.3125
 30
0.0
 40
10.0
210
0.0
220
0.0
230
1.0
100
AcDbArc
 50
22.387106
 51
92.731627
  0
ARC
  5
25
100
AcDbEntity
  8
0
370
    35
390
0
 62
     7
100
AcDbCircle
 10
105.0
 20
148.5
 30
0.0
 40
175.0
210
0.0
220
0.0
230
1.0
100
AcDbArc
 50
137.731625
 51
167.268368
  0
ARC
  5
26
100
AcDbEntity
  8
0
370
    35
390
0
 62
     7
100
AcDbCircle
 10
-55.943146
 20
184.863464
 30
0.0
 40
10.0
210
0.0
220
0.0
230
1.0
100
AcDbArc
 50
167.268368
 51
237.612887
  0
ARC
  5
27
100
AcDbEntity
  8
0
370
    35
390
0
 62
     7
100
AcDbCircle
 10
-69.334076
 20
163.752258
 30
0.0
 40
15.0
210
0.0
220
0.0
230
1.0
100
AcDbArc
 50
292.387104
 51
57.612892
  0
ARC
  5
28
100
AcDbEntity
  8
0
370
    35
390
0
 62
     7
100
AcDbCircle
 10
-59.812515
 20
140.636459
 30
0.0
 40
10.0
210
0.0
220
0.0
230
1.0
100
AcDbArc
 50
112.387109
 51
182.73162
  0
ARC
  5
29
100
AcDbEntity
  8
0
370
    35
390
0
 62
     7
100
AcDbCircle
 10
105.0
 20
148.5
 30
0.0
 40
175.0
210
0.0
220
0.0
230
1.0
100
AcDbArc
 50
182.73162
 51
212.268377
  0
ARC
  5
2A
100
AcDbEntity
  8
0
370
    35
390
0
 62
     7
100
AcDbCircle
 10
-34.516846
 20
60.408859
 30
0.0
 40
10.0
210
0.0
220
0.0
230
1.0
100
AcDbArc
 50
212.268377
 51
282.612891
  0
ARC
  5
2B
100
AcDbEntity
  8
0
370
    35
390
0
 62
     7
100
AcDbCircle
 10
-29.057785
 20
36.012169
 30
0.0
 40
15.0
210
0.0
220
0.0
230
1.0
100
AcDbArc
 50
337.387108
 51
102.612896
  0
ARC
  5
2C
100
AcDbEntity
  8
0
370
    35
390
0
 62
     7
100
AcDbCircle
 10
-5.979683
 20
26.39959
 30
0.0
 40
10.0
210
0.0
220
0.0
230
1.0
100
AcDbArc
 50
157.387106
 51
227.731625
  0
ARC
  5
2D
100
AcDbEntity
  8
0
370
    35
390
0
 62
     7
100
AcDbCircle
 10
105.0
 20
148.5
 30
0.0
 40
175.0
210
0.0
220
0.0
230
1.0
100
AcDbArc
 50
227.731625
 51
257.268375
  0
ARC
  5
2E
100
AcDbEntity
  8
0
370
    35
390
0
 62
     7
100
AcDbCircle
 10
68.636536
 20
-12.443146
 30
0.0
 40
10.0
210
0.0
220
0.0
230
1.0
100
AcDbArc
 50
257.268375
 51
327.612892
  0
ARC
  5
2F
100
AcDbEntity
  8
0
370
    35
390
0
 62
     7
100
AcDbCircle
 10
89.747742
 20
-25.834076
 30
0.0
 40
15.0
210
0.0
220
0.0
230
1.0
100
AcDbArc
 50
22.387106
 51
147.612887
  0
ARC
  5
30
100
AcDbEntity
  8
0
370
    35
390
0
 62
     7
100
AcDbCircle
 10
112.863541
 20
-16.312515
 30
0.0
 40
10.0
210
0.0
220
0.0
230
1.0
100
AcDbArc
 50
202.387101
 51
272.731629
  0
ARC
  5
31
100
AcDbEntity
  8
0
370
    35
390
0
 62
     7
100
AcDbCircle
 10
105.0
 20
148.5
 30
0.0
 40
175.0
210
0.0
220
0.0
230
1.0
100
AcDbArc
 50
272.731629
 51
302.268372
  0
ARC
  5
32
100
AcDbEntity
  8
0
370
    35
390
0
 62
     7
100
AcDbCircle
 10
193.091141
 20
8.983154
 30
0.0
 40
10.0
210
0.0
220
0.0
230
1.0
100
AcDbArc
 50
302.268372
 51
12.612893
  0
ARC
  5
33
100
AcDbEntity
  8
0
370
    35
390
0
 62
     7
100
AcDbCircle
 10
217.487823
 20
14.442215
 30
0.0
 40
15.0
210
0.0
220
0.0
230
1.0
100
AcDbArc
 50
67.387111
 51
192.612896
  0
ARC
  5
34
100
AcDbEntity
  8
0
370
    35
390
0
 62
     7
100
AcDbCircle
 10
227.100403
 20
37.520317
 30
0.0
 40
10.0
210
0.0
220
0.0
230
1.0
100
AcDbArc
 50
247.387106
 51
317.731627
  0
ARC
  5
35
100
AcDbEntity
  8
0
370
    35
390
0
 62
     7
100
AcDbCircle
 10
105.0
 20
148.5
 30
0.0
 40
175.0
210
0.0
220
0.0
230
1.0
100
AcDbArc
 50
317.731627
 51
347.268374
  0
ARC
  5
36
100
AcDbEntity
  8
0
370
    35
390
0
 62
     7
100
AcDbCircle
 10
265.943146
 20
112.136536
 30
0.0
 40
10.0
210
0.0
220
0.0
230
1.0
100
AcDbArc
 50
347.268374
 51
57.612892
  0
ARC
  5
37
100
AcDbEntity
  8
0
370
    35
390
0
 62
     7
100
AcDbCircle
 10
279.334076
 20
133.247742
 30
0.0
 40
15.0
210
0.0
220
0.0
230
1.0
100
AcDbArc
 50
112.387109
 51
237.612887
  0
ARC
  5
38
100
AcDbEntity
  8
0
370
    35
390
0
 62
     7
100
AcDbCircle
 10
269.8125
 20
156.363541
 30
0.0
 40
10.0
210
0.0
220
0.0
230
1.0
100
AcDbArc
 50
292.387104
 51
2.731626
  0
ARC
  5
39
100
AcDbEntity
  8
0
370
    35
390
0
 62
     7
100
AcDbCircle
 10
105.0
 20
148.5
 30
0.0
 40
175.0
210
0.0
220
0.0
230
1.0
100
AcDbArc
 50
2.731626
 51
32.268375
  0
ARC
  5
3A
100
AcDbEntity
  8
0
370
    35
390
0
 62
     7
100
AcDbCircle
 10
244.516846
 20
236.591141
 30
0.0
 40
10.0
210
0.0
220
0.0
230
1.0
100
AcDbArc
 50
32.268375
 51
102.612896
  0
ARC
  5
3B
100
AcDbEntity
  8
0
370
    35
390
0
 62
     7
100
AcDbCircle
 10
239.057785
 20
260.987823
 30
0.0
 40
15.0
210
0.0
220
0.0
230
1.0
100
AcDbArc
 50
157.387106
 51
282.612891
  0
ARC
  5
3C
100
AcDbEntity
  8
0
370
    35
390
0
 62
     7
100
AcDbCircle
 10
215.979675
 20
270.600403
 30
0.0
 40
10.0
210
0.0
220
0.0
230
1.0
100
AcDbArc
 50
337.387108
 51
47.731626
  0
ARC
  5
3D
100
AcDbEntity
  8
0
370
    35
390
0
 62
     7
100
AcDbCircle
 10
105.0
 20
148.5
 30
0.0
 40
175.0
210
0.0
220
0.0
230
1.0
100
AcDbArc
 50
47.731626
 51
77.268373
  0
ARC
  5
3E
100
AcDbEntity
  8
0
370
    35
390
0
 62
     7
100
AcDbCircle
 10
141.363464
 20
309.443146
 30
0.0
 40
10.0
210
0.0
220
0.0
230
1.0
100
AcDbArc
 50
77.268373
 51
147.612887
  0
ARC
  5
3F
100
AcDbEntity
  8
0
370
    35
390
0
 62
     7
100
AcDbCircle
 10
120.252258
 20
322.834076
 30
0.0
 40
15.0
210
0.0
220
0.0
230
1.0
100
AcDbArc
 50
202.387101
 51
327.612892
  0
ARC
  5
40
100
AcDbEntity
  8
0
370
    35
390
0
 62
     7
100
AcDbCircle
 10
105.0
 20
148.5
 30
0.0
 40
175.0
210
0.0
220
0.0
230
1.0
100
AcDbArc
 50
92.731627
 51
122.268377
  0
ARC
  5
41
100
AcDbEntity
  8
0
370
    35
390
0
 62
     7
100
AcDbCircle
 10
16.908859
 20
288.016846
 30
0.0
 40
10.0
210
0.0
220
0.0
230
1.0
100
AcDbArc
 50
122.268377
 51
192.612896
  0
ARC
  5
42
100
AcDbEntity
  8
0
370
    35
390
0
 62
     7
100
AcDbCircle
 10
-7.487831
 20
282.5578
 30
0.0
 40
15.0
210
0.0
220
0.0
230
1.0
100
AcDbArc
 50
247.387106
 51
12.612893
  0
ARC
  5
43
100
AcDbEntity
  8
0
370
    35
390
0
 62
     7
100
AcDbCircle
 10
-17.10041
 20
259.479675
 30
0.0
 40
10.0
210
0.0
220
0.0
230
1.0
100
AcDbArc
 50
67.387111
 51
137.731625
  0
CIRCLE
  5
44
100
AcDbEntity
  8
0
370
    35
390
0
 62
     7
100
AcDbCircle
 10
105.0
 20
148.5
 30
0.0
 40
117.5
210
0.0
220
0.0
230
1.0
  0
CIRCLE
  5
45
100
AcDbEntity
  8
0
370
    35
390
0
 62
     7
100
AcDbCircle
 10
176.625427
 20
285.958374
 30
0.0
 40
2.5
210
0.0
220
0.0
230
1.0
  0
CIRCLE
  5
46
100
AcDbEntity
  8
0
370
    35
390
0
 62
     7
100
AcDbCircle
 10
175.44368
 20
272.911743
 30
0.0
 40
1.5
210
0.0
220
0.0
230
1.0
  0
CIRCLE
  5
47
100
AcDbEntity
  8
0
370
    35
390
0
 62
     7
100
AcDbCircle
 10
167.723679
 20
276.347443
 30
0.0
 40
1.5
210
0.0
220
0.0
230
1.0
  0
CIRCLE
  5
48
100
AcDbEntity
  8
0
370
    35
390
0
 62
     7
100
AcDbCircle
 10
198.676178
 20
256.441376
 30
0.0
 40
2.0
210
0.0
220
0.0
230
1.0
  0
CIRCLE
  5
49
100
AcDbEntity
  8
0
370
    35
390
0
 62
     7
100
AcDbCircle
 10
139.689941
 20
287.147644
 30
0.0
 40
2.0
210
0.0
220
0.0
230
1.0
  0
CIRCLE
  5
4A
100
AcDbEntity
  8
0
370
    35
390
0
 62
     7
100
AcDbCircle
 10
58.332119
 20
296.307678
 30
0.0
 40
2.5
210
0.0
220
0.0
230
1.0
  0
CIRCLE
  5
4B
100
AcDbEntity
  8
0
370
    35
390
0
 62
     7
100
AcDbCircle
 10
57.230385
 20
283.254059
 30
0.0
 40
1.5
210
0.0
220
0.0
230
1.0
  0
CIRCLE
  5
4C
100
AcDbEntity
  8
0
370
    35
390
0
 62
     7
100
AcDbCircle
 10
65.42971
 20
285.296997
 30
0.0
 40
1.5
210
0.0
220
0.0
230
1.0
  0
CIRCLE
  5
4D
100
AcDbEntity
  8
0
370
    35
390
0
 62
     7
100
AcDbCircle
 10
31.490807
 20
271.068176
 30
0.0
 40
2.0
210
0.0
220
0.0
230
1.0
  0
CIRCLE
  5
4E
100
AcDbEntity
  8
0
370
    35
390
0
 62
     7
100
AcDbCircle
 10
94.912979
 20
291.065125
 30
0.0
 40
2.0
210
0.0
220
0.0
230
1.0
  0
ARC
  5
4F
100
AcDbEntity
  8
0
370
    35
390
0
 62
     7
100
AcDbCircle
 10
183.942139
 20
288.257019
 30
0.0
 40
0.5
210
0.0
220
0.0
230
1.0
100
AcDbArc
 50
156.009075
 51
66.009065
  0
LINE
  5
50
100
AcDbEntity
  8
0
370
    35
390
0
 62
     7
 48
0.05125
100
AcDbLine
 10
181.612427
 20
289.293823
 30
0.0
 11
183.485321
 21
288.460327
 31
0.0
210
0.0
220
0.0
230
1.0
  0
ARC
  5
51
100
AcDbEntity
  8
0
370
    35
390
0
 62
     7
100
AcDbCircle
 10
181.155624
 20
289.497131
 30
0.0
 40
0.5
210
0.0
220
0.0
230
1.0
100
AcDbArc
 50
66.009065
 51
336.009068
  0
LINE
  5
52
100
AcDbEntity
  8
0
370
    35
390
0
 62
     7
 48
0.10125
100
AcDbLine
 10
183.005615
 20
293.654053
 30
0.0
 11
181.358917
 21
289.953918
 31
0.0
210
0.0
220
0.0
230
1.0
  0
ARC
  5
53
100
AcDbEntity
  8
0
370
    35
390
0
 62
     7
100
AcDbCircle
 10
183.208923
 20
294.11084
 30
0.0
 40
0.5
210
0.0
220
0.0
230
1.0
100
AcDbArc
 50
336.009068
 51
246.009067
  0
LINE
  5
54
100
AcDbEntity
  8
0
370
    35
390
0
 62
     7
 48
0.05125
100
AcDbLine
 10
183.66571
 20
293.907562
 30
0.0
 11
185.53862
 21
293.074036
 31
0.0
210
0.0
220
0.0
230
1.0
  0
ARC
  5
55
100
AcDbEntity
  8
0
370
    35
390
0
 62
     7
100
AcDbCircle
 10
185.995422
 20
292.870728
 30
0.0
 40
0.5
210
0.0
220
0.0
230
1.0
100
AcDbArc
 50
246.009067
 51
156.009075
  0
LINE
  5
56
100
AcDbEntity
  8
0
370
    35
390
0
 62
     7
 48
0.10125
100
AcDbLine
 10
185.79213
 20
292.41394
 30
0.0
 11
184.145432
 21
288.713806
 31
0.0
210
0.0
220
0.0
230
1.0
  0
LINE
  5
57
100
AcDbEntity
  8
0
370
    35
390
0
 62
     7
 48
0.05125
100
AcDbLine
 10
177.818619
 20
296.509766
 30
0.0
 11
175.945709
 21
297.343262
 31
0.0
210
0.0
220
0.0
230
1.0
  0
ARC
  5
58
100
AcDbEntity
  8
0
370
    35
390
0
 62
     7
100
AcDbCircle
 10
178.275421
 20
296.306458
 30
0.0
 40
0.5
210
0.0
220
0.0
230
1.0
100
AcDbArc
 50
246.009067
 51
156.009075
  0
LINE
  5
59
100
AcDbEntity
  8
0
370
    35
390
0
 62
     7
 48
0.10125
100
AcDbLine
 10
178.072128
 20
295.84964
 30
0.0
 11
176.42543
 21
292.149536
 31
0.0
210
0.0
220
0.0
230
1.0
  0
ARC
  5
5A
100
AcDbEntity
  8
0
370
    35
390
0
 62
     7
100
AcDbCircle
 10
176.222137
 20
291.692719
 30
0.0
 40
0.5
210
0.0
220
0.0
230
1.0
100
AcDbArc
 50
156.009075
 51
66.009065
  0
LINE
  5
5B
100
AcDbEntity
  8
0
370
    35
390
0
 62
     7
 48
0.05125
100
AcDbLine
 10
175.76532
 20
291.895996
 30
0.0
 11
173.892426
 21
292.729553
 31
0.0
210
0.0
220
0.0
230
1.0
  0
ARC
  5
5C
100
AcDbEntity
  8
0
370
    35
390
0
 62
     7
100
AcDbCircle
 10
173.435623
 20
292.932831
 30
0.0
 40
0.5
210
0.0
220
0.0
230
1.0
100
AcDbArc
 50
66.009065
 51
336.009068
  0
LINE
  5
5D
100
AcDbEntity
  8
0
370
    35
390
0
 62
     7
 48
0.10125
100
AcDbLine
 10
175.285614
 20
297.089752
 30
0.0
 11
173.638916
 21
293.389648
 31
0.0
210
0.0
220
0.0
230
1.0
  0
ARC
  5
5E
100
AcDbEntity
  8
0
370
    35
390
0
 62
     7
100
AcDbCircle
 10
175.488922
 20
297.54657
 30
0.0
 40
0.5
210
0.0
220
0.0
230
1.0
100
AcDbArc
 50
336.009068
 51
246.009067
  0
LINE
  5
5F
100
AcDbEntity
  8
0
370
    35
390
0
 62
     7
 48
0.05125
100
AcDbLine
 10
175.920135
 20
276.503296
 30
0.0
 11
177.79303
 21
275.669769
 31
0.0
210
0.0
220
0.0
230
1.0
  0
ARC
  5
60
100
AcDbEntity
  8
0
370
    35
390
0
 62
     7
100
AcDbCircle
 10
175.463333
 20
276.706604
 30
0.0
 40
0.5
210
0.0
220
0.0
230
1.0
100
AcDbArc
 50
66.009065
 51
336.009068
  0
LINE
  5
61
100
AcDbEntity
  8
0
370
    35
390
0
 62
     7
 48
0.10125
100
AcDbLine
 10
175.666626
 20
277.163391
 30
0.0
 11
177.313324
 21
280.863525
 31
0.0
210
0.0
220
0.0
230
1.0
  0
ARC
  5
62
100
AcDbEntity
  8
0
370
    35
390
0
 62
     7
100
AcDbCircle
 10
177.516632
 20
281.320313
 30
0.0
 40
0.5
210
0.0
220
0.0
230
1.0
100
AcDbArc
 50
336.009068
 51
246.009067
  0
LINE
  5
63
100
AcDbEntity
  8
0
370
    35
390
0
 62
     7
 48
0.05125
100
AcDbLine
 10
177.973419
 20
281.117004
 30
0.0
 11
179.846329
 21
280.283508
 31
0.0
210
0.0
220
0.0
230
1.0
  0
ARC
  5
64
100
AcDbEntity
  8
0
370
    35
390
0
 62
     7
100
AcDbCircle
 10
180.303131
 20
280.0802
 30
0.0
 40
0.5
210
0.0
220
0.0
230
1.0
100
AcDbArc
 50
246.009067
 51
156.009075
  0
LINE
  5
65
100
AcDbEntity
  8
0
370
    35
390
0
 62
     7
 48
0.10125
100
AcDbLine
 10
178.45314
 20
275.923279
 30
0.0
 11
180.099838
 21
279.623413
 31
0.0
210
0.0
220
0.0
230
1.0
  0
ARC
  5
66
100
AcDbEntity
  8
0
370
    35
390
0
 62
     7
100
AcDbCircle
 10
178.249847
 20
275.466492
 30
0.0
 40
0.5
210
0.0
220
0.0
230
1.0
100
AcDbArc
 50
156.009075
 51
66.009065
  0
ARC
  5
67
100
AcDbEntity
  8
0
370
    35
390
0
 62
     7
100
AcDbCircle
 10
169.796631
 20
284.756012
 30
0.0
 40
0.5
210
0.0
220
0.0
230
1.0
100
AcDbArc
 50
336.009068
 51
246.009067
  0
LINE
  5
68
100
AcDbEntity
  8
0
370
    35
390
0
 62
     7
 48
0.05125
100
AcDbLine
 10
172.126328
 20
283.719208
 30
0.0
 11
170.253418
 21
284.552734
 31
0.0
210
0.0
220
0.0
230
1.0
  0
ARC
  5
69
100
AcDbEntity
  8
0
370
    35
390
0
 62
     7
100
AcDbCircle
 10
172.58313
 20
283.51593
 30
0.0
 40
0.5
210
0.0
220
0.0
230
1.0
100
AcDbArc
 50
246.009067
 51
156.009075
  0
LINE
  5
6A
100
AcDbEntity
  8
0
370
    35
390
0
 62
     7
 48
0.10125
100
AcDbLine
 10
170.733139
 20
279.359009
 30
0.0
 11
172.379837
 21
283.059113
 31
0.0
210
0.0
220
0.0
230
1.0
  0
ARC
  5
6B
100
AcDbEntity
  8
0
370
    35
390
0
 62
     7
100
AcDbCircle
 10
170.529846
 20
278.902191
 30
0.0
 40
0.5
210
0.0
220
0.0
230
1.0
100
AcDbArc
 50
156.009075
 51
66.009065
  0
LINE
  5
6C
100
AcDbEntity
  8
0
370
    35
390
0
 62
     7
 48
0.05125
100
AcDbLine
 10
170.073029
 20
279.105469
 30
0.0
 11
168.200134
 21
279.938995
 31
0.0
210
0.0
220
0.0
230
1.0
  0
ARC
  5
6D
100
AcDbEntity
  8
0
370
    35
390
0
 62
     7
100
AcDbCircle
 10
167.743332
 20
280.142273
 30
0.0
 40
0.5
210
0.0
220
0.0
230
1.0
100
AcDbArc
 50
66.009065
 51
336.009068
  0
LINE
  5
6E
100
AcDbEntity
  8
0
370
    35
390
0
 62
     7
 48
0.10125
100
AcDbLine
 10
167.946625
 20
280.599091
 30
0.0
 11
169.593323
 21
284.299194
 31
0.0
210
0.0
220
0.0
230
1.0
  0
LINE
  5
6F
100
AcDbEntity
  8
0
370
    35
390
0
 62
     7
 48
0.05125
100
AcDbLine
 10
52.779148
 20
305.358643
 30
0.0
 11
50.789963
 21
304.863037
 31
0.0
210
0.0
220
0.0
230
1.0
  0
ARC
  5
70
100
AcDbEntity
  8
0
370
    35
390
0
 62
     7
100
AcDbCircle
 10
53.264317
 20
305.479553
 30
0.0
 40
0.5
210
0.0
220
0.0
230
1.0
100
AcDbArc
 50
283.99093
 51
193.990927
  0
LINE
  5
71
100
AcDbEntity
  8
0
370
    35
390
0
 62
     7
 48
0.10125
100
AcDbLine
 10
53.385201
 20
304.994385
 30
0.0
 11
54.364361
 21
301.064514
 31
0.0
210
0.0
220
0.0
230
1.0
  0
ARC
  5
72
100
AcDbEntity
  8
0
370
    35
390
0
 62
     7
100
AcDbCircle
 10
54.485245
 20
300.579346
 30
0.0
 40
0.5
210
0.0
220
0.0
230
1.0
100
AcDbArc
 50
193.990927
 51
103.990935
  0
LINE
  5
73
100
AcDbEntity
  8
0
370
    35
390
0
 62
     7
 48
0.05125
100
AcDbLine
 10
54.000076
 20
300.458466
 30
0.0
 11
52.010895
 21
299.96283
 31
0.0
210
0.0
220
0.0
230
1.0
  0
ARC
  5
74
100
AcDbEntity
  8
0
370
    35
390
0
 62
     7
100
AcDbCircle
 10
51.525726
 20
299.841949
 30
0.0
 40
0.5
210
0.0
220
0.0
230
1.0
100
AcDbArc
 50
103.990935
 51
13.990931
  0
LINE
  5
75
100
AcDbEntity
  8
0
370
    35
390
0
 62
     7
 48
0.10125
100
AcDbLine
 10
50.425678
 20
304.256958
 30
0.0
 11
51.404842
 21
300.327118
 31
0.0
210
0.0
220
0.0
230
1.0
  0
ARC
  5
76
100
AcDbEntity
  8
0
370
    35
390
0
 62
     7
100
AcDbCircle
 10
50.304794
 20
304.742126
 30
0.0
 40
0.5
210
0.0
220
0.0
230
1.0
100
AcDbArc
 50
13.990931
 51
283.99093
  0
ARC
  5
77
100
AcDbEntity
  8
0
370
    35
390
0
 62
     7
100
AcDbCircle
 10
62.684566
 20
302.622284
 30
0.0
 40
0.5
210
0.0
220
0.0
230
1.0
100
AcDbArc
 50
193.990927
 51
103.990935
  0
LINE
  5
78
100
AcDbEntity
  8
0
370
    35
390
0
 62
     7
 48
0.05125
100
AcDbLine
 10
60.210217
 20
302.005798
 30
0.0
 11
62.199402
 21
302.501404
 31
0.0
210
0.0
220
0.0
230
1.0
  0
ARC
  5
79
100
AcDbEntity
  8
0
370
    35
390
0
 62
     7
100
AcDbCircle
 10
59.725048
 20
301.884888
 30
0.0
 40
0.5
210
0.0
220
0.0
230
1.0
100
AcDbArc
 50
103.990935
 51
13.990931
  0
LINE
  5
7A
100
AcDbEntity
  8
0
370
    35
390
0
 62
     7
 48
0.10125
100
AcDbLine
 10
58.625004
 20
306.299927
 30
0.0
 11
59.604164
 21
302.370056
 31
0.0
210
0.0
220
0.0
230
1.0
  0
ARC
  5
7B
100
AcDbEntity
  8
0
370
    35
390
0
 62
     7
100
AcDbCircle
 10
58.50412
 20
306.785095
 30
0.0
 40
0.5
210
0.0
220
0.0
230
1.0
100
AcDbArc
 50
13.990931
 51
283.99093
  0
LINE
  5
7C
100
AcDbEntity
  8
0
370
    35
390
0
 62
     7
 48
0.05125
100
AcDbLine
 10
58.989285
 20
306.905945
 30
0.0
 11
60.97847
 21
307.401611
 31
0.0
210
0.0
220
0.0
230
1.0
  0
ARC
  5
7D
100
AcDbEntity
  8
0
370
    35
390
0
 62
     7
100
AcDbCircle
 10
61.463638
 20
307.522461
 30
0.0
 40
0.5
210
0.0
220
0.0
230
1.0
100
AcDbArc
 50
283.99093
 51
193.990927
  0
LINE
  5
7E
100
AcDbEntity
  8
0
370
    35
390
0
 62
     7
 48
0.10125
100
AcDbLine
 10
61.584522
 20
307.037292
 30
0.0
 11
62.563683
 21
303.107452
 31
0.0
210
0.0
220
0.0
230
1.0
  0
ARC
  5
7F
100
AcDbEntity
  8
0
370
    35
390
0
 62
     7
100
AcDbCircle
 10
53.689552
 20
291.157471
 30
0.0
 40
0.5
210
0.0
220
0.0
230
1.0
100
AcDbArc
 50
13.990931
 51
283.99093
  0
LINE
  5
80
100
AcDbEntity
  8
0
370
    35
390
0
 62
     7
 48
0.05125
100
AcDbLine
 10
56.163902
 20
291.773987
 30
0.0
 11
54.174721
 21
291.278351
 31
0.0
210
0.0
220
0.0
230
1.0
  0
ARC
  5
81
100
AcDbEntity
  8
0
370
    35
390
0
 62
     7
100
AcDbCircle
 10
56.649071
 20
291.894836
 30
0.0
 40
0.5
210
0.0
220
0.0
230
1.0
100
AcDbArc
 50
283.99093
 51
193.990927
  0
LINE
  5
82
100
AcDbEntity
  8
0
370
    35
390
0
 62
     7
 48
0.101249
100
AcDbLine
 10
57.749115
 20
287.479858
 30
0.0
 11
56.769955
 21
291.409668
 31
0.0
210
0.0
220
0.0
230
1.0
  0
ARC
  5
83
100
AcDbEntity
  8
0
370
    35
390
0
 62
     7
100
AcDbCircle
 10
57.870003
 20
286.99469
 30
0.0
 40
0.5
210
0.0
220
0.0
230
1.0
100
AcDbArc
 50
193.990927
 51
103.990935
  0
LINE
  5
84
100
AcDbEntity
  8
0
370
    35
390
0
 62
     7
 48
0.05125
100
AcDbLine
 10
57.384834
 20
286.873779
 30
0.0
 11
55.395649
 21
286.378174
 31
0.0
210
0.0
220
0.0
230
1.0
  0
ARC
  5
85
100
AcDbEntity
  8
0
370
    35
390
0
 62
     7
100
AcDbCircle
 10
54.91048
 20
286.257263
 30
0.0
 40
0.5
210
0.0
220
0.0
230
1.0
100
AcDbArc
 50
103.990935
 51
13.990931
  0
LINE
  5
86
100
AcDbEntity
  8
0
370
    35
390
0
 62
     7
 48
0.10125
100
AcDbLine
 10
54.789597
 20
286.742432
 30
0.0
 11
53.810436
 21
290.672302
 31
0.0
210
0.0
220
0.0
230
1.0
  0
LINE
  5
87
100
AcDbEntity
  8
0
370
    35
390
0
 62
     7
 48
0.05125
100
AcDbLine
 10
63.594971
 20
288.421082
 30
0.0
 11
65.584152
 21
288.916748
 31
0.0
210
0.0
220
0.0
230
1.0
  0
ARC
  5
88
100
AcDbEntity
  8
0
370
    35
390
0
 62
     7
100
AcDbCircle
 10
63.109806
 20
288.300232
 30
0.0
 40
0.5
210
0.0
220
0.0
230
1.0
100
AcDbArc
 50
103.990935
 51
13.990931
  0
LINE
  5
89
100
AcDbEntity
  8
0
370
    35
390
0
 62
     7
 48
0.10125
100
AcDbLine
 10
62.988922
 20
288.7854
 30
0.0
 11
62.009758
 21
292.71524
 31
0.0
210
0.0
220
0.0
230
1.0
  0
ARC
  5
8A
100
AcDbEntity
  8
0
370
    35
390
0
 62
     7
100
AcDbCircle
 10
61.888874
 20
293.200409
 30
0.0
 40
0.5
210
0.0
220
0.0
230
1.0
100
AcDbArc
 50
13.990931
 51
283.99093
  0
LINE
  5
8B
100
AcDbEntity
  8
0
370
    35
390
0
 62
     7
 48
0.05125
100
AcDbLine
 10
62.374043
 20
293.321289
 30
0.0
 11
64.363228
 21
293.816895
 31
0.0
210
0.0
220
0.0
230
1.0
  0
ARC
  5
8C
100
AcDbEntity
  8
0
370
    35
390
0
 62
     7
100
AcDbCircle
 10
64.848389
 20
293.937805
 30
0.0
 40
0.5
210
0.0
220
0.0
230
1.0
100
AcDbArc
 50
283.99093
 51
193.990927
  0
LINE
  5
8D
100
AcDbEntity
  8
0
370
    35
390
0
 62
     7
 48
0.10125
100
AcDbLine
 10
65.948441
 20
289.522766
 30
0.0
 11
64.969276
 21
293.452637
 31
0.0
210
0.0
220
0.0
230
1.0
  0
ARC
  5
8E
100
AcDbEntity
  8
0
370
    35
390
0
 62
     7
100
AcDbCircle
 10
66.069321
 20
289.037598
 30
0.0
 40
0.5
210
0.0
220
0.0
230
1.0
100
AcDbArc
 50
193.990927
 51
103.990935
  0
CIRCLE
  5
8F
100
AcDbEntity
  8
0
370
    35
390
0
 62
     7
100
AcDbCircle
 10
-32.458359
 20
220.125427
 30
0.0
 40
2.5
210
0.0
220
0.0
230
1.0
  0
CIRCLE
  5
90
100
AcDbEntity
  8
0
370
    35
390
0
 62
     7
100
AcDbCircle
 10
-19.411743
 20
218.94368
 30
0.0
 40
1.5
210
0.0
220
0.0
230
1.0
  0
CIRCLE
  5
91
100
AcDbEntity
  8
0
370
    35
390
0
 62
     7
100
AcDbCircle
 10
-22.847443
 20
211.223679
 30
0.0
 40
1.5
210
0.0
220
0.0
230
1.0
  0
CIRCLE
  5
92
100
AcDbEntity
  8
0
370
    35
390
0
 62
     7
100
AcDbCircle
 10
-2.941368
 20
242.176178
 30
0.0
 40
2.0
210
0.0
220
0.0
230
1.0
  0
CIRCLE
  5
93
100
AcDbEntity
  8
0
370
    35
390
0
 62
     7
100
AcDbCircle
 10
-33.647644
 20
183.189941
 30
0.0
 40
2.0
210
0.0
220
0.0
230
1.0
  0
CIRCLE
  5
94
100
AcDbEntity
  8
0
370
    35
390
0
 62
     7
100
AcDbCircle
 10
-42.807678
 20
101.832123
 30
0.0
 40
2.5
210
0.0
220
0.0
230
1.0
  0
CIRCLE
  5
95
100
AcDbEntity
  8
0
370
    35
390
0
 62
     7
100
AcDbCircle
 10
-29.754059
 20
100.730385
 30
0.0
 40
1.5
210
0.0
220
0.0
230
1.0
  0
CIRCLE
  5
96
100
AcDbEntity
  8
0
370
    35
390
0
 62
     7
100
AcDbCircle
 10
-31.797012
 20
108.92971
 30
0.0
 40
1.5
210
0.0
220
0.0
230
1.0
  0
CIRCLE
  5
97
100
AcDbEntity
  8
0
370
    35
390
0
 62
     7
100
AcDbCircle
 10
-17.568192
 20
74.990807
 30
0.0
 40
2.0
210
0.0
220
0.0
230
1.0
  0
CIRCLE
  5
98
100
AcDbEntity
  8
0
370
    35
390
0
 62
     7
100
AcDbCircle
 10
-37.565125
 20
138.412979
 30
0.0
 40
2.0
210
0.0
220
0.0
230
1.0
  0
ARC
  5
99
100
AcDbEntity
  8
0
370
    35
390
0
 62
     7
100
AcDbCircle
 10
-34.757019
 20
227.442139
 30
0.0
 40
0.5
210
0.0
220
0.0
230
1.0
100
AcDbArc
 50
246.009067
 51
156.009075
  0
LINE
  5
9A
100
AcDbEntity
  8
0
370
    35
390
0
 62
     7
 48
0.05125
100
AcDbLine
 10
-35.793823
 20
225.112427
 30
0.0
 11
-34.960312
 21
226.985321
 31
0.0
210
0.0
220
0.0
230
1.0
  0
ARC
  5
9B
100
AcDbEntity
  8
0
370
    35
390
0
 62
     7
100
AcDbCircle
 10
-35.997131
 20
224.655624
 30
0.0
 40
0.5
210
0.0
220
0.0
230
1.0
100
AcDbArc
 50
156.009075
 51
66.009065
  0
LINE
  5
9C
100
AcDbEntity
  8
0
370
    35
390
0
 62
     7
 48
0.10125
100
AcDbLine
 10
-40.154053
 20
226.505615
 30
0.0
 11
-36.453934
 21
224.858917
 31
0.0
210
0.0
220
0.0
230
1.0
  0
ARC
  5
9D
100
AcDbEntity
  8
0
370
    35
390
0
 62
     7
100
AcDbCircle
 10
-40.610855
 20
226.708923
 30
0.0
 40
0.5
210
0.0
220
0.0
230
1.0
100
AcDbArc
 50
66.009065
 51
336.009068
  0
LINE
  5
9E
100
AcDbEntity
  8
0
370
    35
390
0
 62
     7
 48
0.05125
100
AcDbLine
 10
-40.407562
 20
227.16571
 30
0.0
 11
-39.574051
 21
229.03862
 31
0.0
210
0.0
220
0.0
230
1.0
  0
ARC
  5
9F
100
AcDbEntity
  8
0
370
    35
390
0
 62
     7
100
AcDbCircle
 10
-39.370743
 20
229.495422
 30
0.0
 40
0.5
210
0.0
220
0.0
230
1.0
100
AcDbArc
 50
336.009068
 51
246.009067
  0
LINE
  5
A0
100
AcDbEntity
  8
0
370
    35
390
0
 62
     7
 48
0.10125
100
AcDbLine
 10
-38.91394
 20
229.29213
 30
0.0
 11
-35.213821
 21
227.645432
 31
0.0
210
0.0
220
0.0
230
1.0
  0
LINE
  5
A1
100
AcDbEntity
  8
0
370
    35
390
0
 62
     7
 48
0.05125
100
AcDbLine
 10
-43.00975
 20
221.318619
 30
0.0
 11
-43.843262
 21
219.445709
 31
0.0
210
0.0
220
0.0
230
1.0
  0
ARC
  5
A2
100
AcDbEntity
  8
0
370
    35
390
0
 62
     7
100
AcDbCircle
 10
-42.806458
 20
221.775421
 30
0.0
 40
0.5
210
0.0
220
0.0
230
1.0
100
AcDbArc
 50
336.009068
 51
246.009067
  0
LINE
  5
A3
100
AcDbEntity
  8
0
370
    35
390
0
 62
     7
 48
0.10125
100
AcDbLine
 10
-42.34964
 20
221.572128
 30
0.0
 11
-38.649521
 21
219.92543
 31
0.0
210
0.0
220
0.0
230
1.0
  0
ARC
  5
A4
100
AcDbEntity
  8
0
370
    35
390
0
 62
     7
100
AcDbCircle
 10
-38.192719
 20
219.722137
 30
0.0
 40
0.5
210
0.0
220
0.0
230
1.0
100
AcDbArc
 50
246.009067
 51
156.009075
  0
LINE
  5
A5
100
AcDbEntity
  8
0
370
    35
390
0
 62
     7
 48
0.05125
100
AcDbLine
 10
-38.396011
 20
219.26532
 30
0.0
 11
-39.229538
 21
217.392426
 31
0.0
210
0.0
220
0.0
230
1.0
  0
ARC
  5
A6
100
AcDbEntity
  8
0
370
    35
390
0
 62
     7
100
AcDbCircle
 10
-39.432831
 20
216.935623
 30
0.0
 40
0.5
210
0.0
220
0.0
230
1.0
100
AcDbArc
 50
156.009075
 51
66.009065
  0
LINE
  5
A7
100
AcDbEntity
  8
0
370
    35
390
0
 62
     7
 48
0.10125
100
AcDbLine
 10
-43.589752
 20
218.785614
 30
0.0
 11
-39.889633
 21
217.138916
 31
0.0
210
0.0
220
0.0
230
1.0
  0
ARC
  5
A8
100
AcDbEntity
  8
0
370
    35
390
0
 62
     7
100
AcDbCircle
 10
-44.046555
 20
218.988922
 30
0.0
 40
0.5
210
0.0
220
0.0
230
1.0
100
AcDbArc
 50
66.009065
 51
336.009068
  0
LINE
  5
A9
100
AcDbEntity
  8
0
370
    35
390
0
 62
     7
 48
0.05125
100
AcDbLine
 10
-23.003296
 20
219.420135
 30
0.0
 11
-22.169777
 21
221.29303
 31
0.0
210
0.0
220
0.0
230
1.0
  0
ARC
  5
AA
100
AcDbEntity
  8
0
370
    35
390
0
 62
     7
100
AcDbCircle
 10
-23.206589
 20
218.963333
 30
0.0
 40
0.5
210
0.0
220
0.0
230
1.0
100
AcDbArc
 50
156.009075
 51
66.009065
  0
LINE
  5
AB
100
AcDbEntity
  8
0
370
    35
390
0
 62
     7
 48
0.10125
100
AcDbLine
 10
-23.663391
 20
219.166626
 30
0.0
 11
-27.36351
 21
220.813324
 31
0.0
210
0.0
220
0.0
230
1.0
  0
ARC
  5
AC
100
AcDbEntity
  8
0
370
    35
390
0
 62
     7
100
AcDbCircle
 10
-27.820313
 20
221.016632
 30
0.0
 40
0.5
210
0.0
220
0.0
230
1.0
100
AcDbArc
 50
66.009065
 51
336.009068
  0
LINE
  5
AD
100
AcDbEntity
  8
0
370
    35
390
0
 62
     7
 48
0.05125
100
AcDbLine
 10
-27.61702
 20
221.473419
 30
0.0
 11
-26.783508
 21
223.346329
 31
0.0
210
0.0
220
0.0
230
1.0
  0
ARC
  5
AE
100
AcDbEntity
  8
0
370
    35
390
0
 62
     7
100
AcDbCircle
 10
-26.580215
 20
223.803131
 30
0.0
 40
0.5
210
0.0
220
0.0
230
1.0
100
AcDbArc
 50
336.009068
 51
246.009067
  0
LINE
  5
AF
100
AcDbEntity
  8
0
370
    35
390
0
 62
     7
 48
0.10125
100
AcDbLine
 10
-22.423286
 20
221.95314
 30
0.0
 11
-26.123413
 21
223.599838
 31
0.0
210
0.0
220
0.0
230
1.0
  0
ARC
  5
B0
100
AcDbEntity
  8
0
370
    35
390
0
 62
     7
100
AcDbCircle
 10
-21.966484
 20
221.749847
 30
0.0
 40
0.5
210
0.0
220
0.0
230
1.0
100
AcDbArc
 50
246.009067
 51
156.009075
  0
ARC
  5
B1
100
AcDbEntity
  8
0
370
    35
390
0
 62
     7
100
AcDbCircle
 10
-31.256012
 20
213.296631
 30
0.0
 40
0.5
210
0.0
220
0.0
230
1.0
100
AcDbArc
 50
66.009065
 51
336.009068
  0
LINE
  5
B2
100
AcDbEntity
  8
0
370
    35
390
0
 62
     7
 48
0.05125
100
AcDbLine
 10
-30.219208
 20
215.626328
 30
0.0
 11
-31.052719
 21
213.753418
 31
0.0
210
0.0
220
0.0
230
1.0
  0
ARC
  5
B3
100
AcDbEntity
  8
0
370
    35
390
0
 62
     7
100
AcDbCircle
 10
-30.015915
 20
216.08313
 30
0.0
 40
0.5
210
0.0
220
0.0
230
1.0
100
AcDbArc
 50
336.009068
 51
246.009067
  0
LINE
  5
B4
100
AcDbEntity
  8
0
370
    35
390
0
 62
     7
 48
0.10125
100
AcDbLine
 10
-25.858994
 20
214.233139
 30
0.0
 11
-29.559113
 21
215.879837
 31
0.0
210
0.0
220
0.0
230
1.0
  0
ARC
  5
B5
100
AcDbEntity
  8
0
370
    35
390
0
 62
     7
100
AcDbCircle
 10
-25.402191
 20
214.029846
 30
0.0
 40
0.5
210
0.0
220
0.0
230
1.0
100
AcDbArc
 50
246.009067
 51
156.009075
  0
LINE
  5
B6
100
AcDbEntity
  8
0
370
    35
390
0
 62
     7
 48
0.05125
100
AcDbLine
 10
-25.605484
 20
213.573029
 30
0.0
 11
-26.438995
 21
211.700134
 31
0.0
210
0.0
220
0.0
230
1.0
  0
ARC
  5
B7
100
AcDbEntity
  8
0
370
    35
390
0
 62
     7
100
AcDbCircle
 10
-26.642288
 20
211.243332
 30
0.0
 40
0.5
210
0.0
220
0.0
230
1.0
100
AcDbArc
 50
156.009075
 51
66.009065
  0
LINE
  5
B8
100
AcDbEntity
  8
0
370
    35
390
0
 62
     7
 48
0.10125
100
AcDbLine
 10
-27.099091
 20
211.446625
 30
0.0
 11
-30.79921
 21
213.093323
 31
0.0
210
0.0
220
0.0
230
1.0
  0
LINE
  5
B9
100
AcDbEntity
  8
0
370
    35
390
0
 62
     7
 48
0.05125
100
AcDbLine
 10
-51.858643
 20
96.279144
 30
0.0
 11
-51.363022
 21
94.289963
 31
0.0
210
0.0
220
0.0
230
1.0
  0
ARC
  5
BA
100
AcDbEntity
  8
0
370
    35
390
0
 62
     7
100
AcDbCircle
 10
-51.979538
 20
96.764313
 30
0.0
 40
0.5
210
0.0
220
0.0
230
1.0
100
AcDbArc
 50
13.990931
 51
283.99093
  0
LINE
  5
BB
100
AcDbEntity
  8
0
370
    35
390
0
 62
     7
 48
0.10125
100
AcDbLine
 10
-51.49437
 20
96.885201
 30
0.0
 11
-47.564514
 21
97.864365
 31
0.0
210
0.0
220
0.0
230
1.0
  0
ARC
  5
BC
100
AcDbEntity
  8
0
370
    35
390
0
 62
     7
100
AcDbCircle
 10
-47.079346
 20
97.985245
 30
0.0
 40
0.5
210
0.0
220
0.0
230
1.0
100
AcDbArc
 50
283.99093
 51
193.990927
  0
LINE
  5
BD
100
AcDbEntity
  8
0
370
    35
390
0
 62
     7
 48
0.05125
100
AcDbLine
 10
-46.958466
 20
97.500076
 30
0.0
 11
-46.462845
 21
95.510895
 31
0.0
210
0.0
220
0.0
230
1.0
  0
ARC
  5
BE
100
AcDbEntity
  8
0
370
    35
390
0
 62
     7
100
AcDbCircle
 10
-46.341949
 20
95.025726
 30
0.0
 40
0.5
210
0.0
220
0.0
230
1.0
100
AcDbArc
 50
193.990927
 51
103.990935
  0
LINE
  5
BF
100
AcDbEntity
  8
0
370
    35
390
0
 62
     7
 48
0.10125
100
AcDbLine
 10
-50.756973
 20
93.925674
 30
0.0
 11
-46.827118
 21
94.904846
 31
0.0
210
0.0
220
0.0
230
1.0
  0
ARC
  5
C0
100
AcDbEntity
  8
0
370
    35
390
0
 62
     7
100
AcDbCircle
 10
-51.242142
 20
93.804794
 30
0.0
 40
0.5
210
0.0
220
0.0
230
1.0
100
AcDbArc
 50
103.990935
 51
13.990931
  0
ARC
  5
C1
100
AcDbEntity
  8
0
370
    35
390
0
 62
     7
100
AcDbCircle
 10
-49.122284
 20
106.18457
 30
0.0
 40
0.5
210
0.0
220
0.0
230
1.0
100
AcDbArc
 50
283.99093
 51
193.990927
  0
LINE
  5
C2
100
AcDbEntity
  8
0
370
    35
390
0
 62
     7
 48
0.05125
100
AcDbLine
 10
-48.505783
 20
103.71022
 30
0.0
 11
-49.001404
 21
105.699402
 31
0.0
210
0.0
220
0.0
230
1.0
  0
ARC
  5
C3
100
AcDbEntity
  8
0
370
    35
390
0
 62
     7
100
AcDbCircle
 10
-48.384903
 20
103.225052
 30
0.0
 40
0.5
210
0.0
220
0.0
230
1.0
100
AcDbArc
 50
193.990927
 51
103.990935
  0
LINE
  5
C4
100
AcDbEntity
  8
0
370
    35
390
0
 62
     7
 48
0.10125
100
AcDbLine
 10
-52.799911
 20
102.125
 30
0.0
 11
-48.870056
 21
103.104164
 31
0.0
210
0.0
220
0.0
230
1.0
  0
ARC
  5
C5
100
AcDbEntity
  8
0
370
    35
390
0
 62
     7
100
AcDbCircle
 10
-53.28508
 20
102.00412
 30
0.0
 40
0.5
210
0.0
220
0.0
230
1.0
100
AcDbArc
 50
103.990935
 51
13.990931
  0
LINE
  5
C6
100
AcDbEntity
  8
0
370
    35
390
0
 62
     7
 48
0.05125
100
AcDbLine
 10
-53.40596
 20
102.489288
 30
0.0
 11
-53.901596
 21
104.47847
 31
0.0
210
0.0
220
0.0
230
1.0
  0
ARC
  5
C7
100
AcDbEntity
  8
0
370
    35
390
0
 62
     7
100
AcDbCircle
 10
-54.022476
 20
104.963638
 30
0.0
 40
0.5
210
0.0
220
0.0
230
1.0
100
AcDbArc
 50
13.990931
 51
283.99093
  0
LINE
  5
C8
100
AcDbEntity
  8
0
370
    35
390
0
 62
     7
 48
0.10125
100
AcDbLine
 10
-53.537308
 20
105.084518
 30
0.0
 11
-49.607452
 21
106.063683
 31
0.0
210
0.0
220
0.0
230
1.0
  0
ARC
  5
C9
100
AcDbEntity
  8
0
370
    35
390
0
 62
     7
100
AcDbCircle
 10
-37.657471
 20
97.189552
 30
0.0
 40
0.5
210
0.0
220
0.0
230
1.0
100
AcDbArc
 50
103.990935
 51
13.990931
  0
LINE
  5
CA
100
AcDbEntity
  8
0
370
    35
390
0
 62
     7
 48
0.05125
100
AcDbLine
 10
-38.273972
 20
99.663902
 30
0.0
 11
-37.778351
 21
97.674721
 31
0.0
210
0.0
220
0.0
230
1.0
  0
ARC
  5
CB
100
AcDbEntity
  8
0
370
    35
390
0
 62
     7
100
AcDbCircle
 10
-38.394852
 20
100.149071
 30
0.0
 40
0.5
210
0.0
220
0.0
230
1.0
100
AcDbArc
 50
13.990931
 51
283.99093
  0
LINE
  5
CC
100
AcDbEntity
  8
0
370
    35
390
0
 62
     7
 48
0.10125
100
AcDbLine
 10
-33.979843
 20
101.249115
 30
0.0
 11
-37.909683
 21
100.269958
 31
0.0
210
0.0
220
0.0
230
1.0
  0
ARC
  5
CD
100
AcDbEntity
  8
0
370
    35
390
0
 62
     7
100
AcDbCircle
 10
-33.494675
 20
101.370003
 30
0.0
 40
0.5
210
0.0
220
0.0
230
1.0
100
AcDbArc
 50
283.99093
 51
193.990927
  0
LINE
  5
CE
100
AcDbEntity
  8
0
370
    35
390
0
 62
     7
 48
0.05125
100
AcDbLine
 10
-33.373779
 20
100.884834
 30
0.0
 11
-32.878159
 21
98.895645
 31
0.0
210
0.0
220
0.0
230
1.0
  0
ARC
  5
CF
100
AcDbEntity
  8
0
370
    35
390
0
 62
     7
100
AcDbCircle
 10
-32.757278
 20
98.410477
 30
0.0
 40
0.5
210
0.0
220
0.0
230
1.0
100
AcDbArc
 50
193.990927
 51
103.990935
  0
LINE
  5
D0
100
AcDbEntity
  8
0
370
    35
390
0
 62
     7
 48
0.10125
100
AcDbLine
 10
-33.242447
 20
98.289597
 30
0.0
 11
-37.172302
 21
97.31044
 31
0.0
210
0.0
220
0.0
230
1.0
  0
LINE
  5
D1
100
AcDbEntity
  8
0
370
    35
390
0
 62
     7
 48
0.05125
100
AcDbLine
 10
-34.921097
 20
107.094971
 30
0.0
 11
-35.416733
 21
109.084152
 31
0.0
210
0.0
220
0.0
230
1.0
  0
ARC
  5
D2
100
AcDbEntity
  8
0
370
    35
390
0
 62
     7
100
AcDbCircle
 10
-34.800217
 20
106.609802
 30
0.0
 40
0.5
210
0.0
220
0.0
230
1.0
100
AcDbArc
 50
193.990927
 51
103.990935
  0
LINE
  5
D3
100
AcDbEntity
  8
0
370
    35
390
0
 62
     7
 48
0.10125
100
AcDbLine
 10
-35.285385
 20
106.488922
 30
0.0
 11
-39.21524
 21
105.509758
 31
0.0
210
0.0
220
0.0
230
1.0
  0
ARC
  5
D4
100
AcDbEntity
  8
0
370
    35
390
0
 62
     7
100
AcDbCircle
 10
-39.700409
 20
105.38887
 30
0.0
 40
0.5
210
0.0
220
0.0
230
1.0
100
AcDbArc
 50
103.990935
 51
13.990931
  0
LINE
  5
D5
100
AcDbEntity
  8
0
370
    35
390
0
 62
     7
 48
0.05125
100
AcDbLine
 10
-39.821289
 20
105.874039
 30
0.0
 11
-40.31691
 21
107.863228
 31
0.0
210
0.0
220
0.0
230
1.0
  0
ARC
  5
D6
100
AcDbEntity
  8
0
370
    35
390
0
 62
     7
100
AcDbCircle
 10
-40.437805
 20
108.348389
 30
0.0
 40
0.5
210
0.0
220
0.0
230
1.0
100
AcDbArc
 50
13.990931
 51
283.99093
  0
LINE
  5
D7
100
AcDbEntity
  8
0
370
    35
390
0
 62
     7
 48
0.10125
100
AcDbLine
 10
-36.022781
 20
109.448441
 30
0.0
 11
-39.952637
 21
108.469276
 31
0.0
210
0.0
220
0.0
230
1.0
  0
ARC
  5
D8
100
AcDbEntity
  8
0
370
    35
390
0
 62
     7
100
AcDbCircle
 10
-35.537613
 20
109.569321
 30
0.0
 40
0.5
210
0.0
220
0.0
230
1.0
100
AcDbArc
 50
283.99093
 51
193.990927
  0
CIRCLE
  5
D9
100
AcDbEntity
  8
0
370
    35
390
0
 62
     7
100
AcDbCircle
 10
33.37458
 20
11.041641
 30
0.0
 40
2.5
210
0.0
220
0.0
230
1.0
  0
CIRCLE
  5
DA
100
AcDbEntity
  8
0
370
    35
390
0
 62
     7
100
AcDbCircle
 10
34.55632
 20
24.088257
 30
0.0
 40
1.5
210
0.0
220
0.0
230
1.0
  0
CIRCLE
  5
DB
100
AcDbEntity
  8
0
370
    35
390
0
 62
     7
100
AcDbCircle
 10
42.276321
 20
20.652557
 30
0.0
 40
1.5
210
0.0
220
0.0
230
1.0
  0
CIRCLE
  5
DC
100
AcDbEntity
  8
0
370
    35
390
0
 62
     7
100
AcDbCircle
 10
11.32383
 20
40.558632
 30
0.0
 40
2.0
210
0.0
220
0.0
230
1.0
  0
CIRCLE
  5
DD
100
AcDbEntity
  8
0
370
    35
390
0
 62
     7
100
AcDbCircle
 10
70.310059
 20
9.852356
 30
0.0
 40
2.0
210
0.0
220
0.0
230
1.0
  0
CIRCLE
  5
DE
100
AcDbEntity
  8
0
370
    35
390
0
 62
     7
100
AcDbCircle
 10
151.667877
 20
0.692322
 30
0.0
 40
2.5
210
0.0
220
0.0
230
1.0
  0
CIRCLE
  5
DF
100
AcDbEntity
  8
0
370
    35
390
0
 62
     7
100
AcDbCircle
 10
152.769623
 20
13.745941
 30
0.0
 40
1.5
210
0.0
220
0.0
230
1.0
  0
CIRCLE
  5
E0
100
AcDbEntity
  8
0
370
    35
390
0
 62
     7
100
AcDbCircle
 10
144.570282
 20
11.702988
 30
0.0
 40
1.5
210
0.0
220
0.0
230
1.0
  0
CIRCLE
  5
E1
100
AcDbEntity
  8
0
370
    35
390
0
 62
     7
100
AcDbCircle
 10
178.509186
 20
25.931808
 30
0.0
 40
2.0
210
0.0
220
0.0
230
1.0
  0
CIRCLE
  5
E2
100
AcDbEntity
  8
0
370
    35
390
0
 62
     7
100
AcDbCircle
 10
115.087021
 20
5.934875
 30
0.0
 40
2.0
210
0.0
220
0.0
230
1.0
  0
ARC
  5
E3
100
AcDbEntity
  8
0
370
    35
390
0
 62
     7
100
AcDbCircle
 10
26.057869
 20
8.742981
 30
0.0
 40
0.5
210
0.0
220
0.0
230
1.0
100
AcDbArc
 50
336.009068
 51
246.009067
  0
LINE
  5
E4
100
AcDbEntity
  8
0
370
    35
390
0
 62
     7
 48
0.05125
100
AcDbLine
 10
28.387573
 20
7.706177
 30
0.0
 11
26.514671
 21
8.539688
 31
0.0
210
0.0
220
0.0
230
1.0
  0
ARC
  5
E5
100
AcDbEntity
  8
0
370
    35
390
0
 62
     7
100
AcDbCircle
 10
28.844376
 20
7.502869
 30
0.0
 40
0.5
210
0.0
220
0.0
230
1.0
100
AcDbArc
 50
246.009067
 51
156.009075
  0
LINE
  5
E6
100
AcDbEntity
  8
0
370
    35
390
0
 62
     7
 48
0.10125
100
AcDbLine
 10
26.994385
 20
3.345947
 30
0.0
 11
28.641083
 21
7.046066
 31
0.0
210
0.0
220
0.0
230
1.0
  0
ARC
  5
E7
100
AcDbEntity
  8
0
370
    35
390
0
 62
     7
100
AcDbCircle
 10
26.791084
 20
2.889145
 30
0.0
 40
0.5
210
0.0
220
0.0
230
1.0
100
AcDbArc
 50
156.009075
 51
66.009065
  0
LINE
  5
E8
100
AcDbEntity
  8
0
370
    35
390
0
 62
     7
 48
0.05125
100
AcDbLine
 10
26.334282
 20
3.092438
 30
0.0
 11
24.46138
 21
3.925949
 31
0.0
210
0.0
220
0.0
230
1.0
  0
ARC
  5
E9
100
AcDbEntity
  8
0
370
    35
390
0
 62
     7
100
AcDbCircle
 10
24.004578
 20
4.129257
 30
0.0
 40
0.5
210
0.0
220
0.0
230
1.0
100
AcDbArc
 50
66.009065
 51
336.009068
  0
LINE
  5
EA
100
AcDbEntity
  8
0
370
    35
390
0
 62
     7
 48
0.10125
100
AcDbLine
 10
24.20787
 20
4.58606
 30
0.0
 11
25.854568
 21
8.286179
 31
0.0
210
0.0
220
0.0
230
1.0
  0
LINE
  5
EB
100
AcDbEntity
  8
0
370
    35
390
0
 62
     7
 48
0.05125
100
AcDbLine
 10
32.181381
 20
0.49025
 30
0.0
 11
34.054283
 21
-0.343262
 31
0.0
210
0.0
220
0.0
230
1.0
  0
ARC
  5
EC
100
AcDbEntity
  8
0
370
    35
390
0
 62
     7
100
AcDbCircle
 10
31.724579
 20
0.693542
 30
0.0
 40
0.5
210
0.0
220
0.0
230
1.0
100
AcDbArc
 50
66.009065
 51
336.009068
  0
LINE
  5
ED
100
AcDbEntity
  8
0
370
    35
390
0
 62
     7
 48
0.10125
100
AcDbLine
 10
31.927872
 20
1.15036
 30
0.0
 11
33.57457
 21
4.850479
 31
0.0
210
0.0
220
0.0
230
1.0
  0
ARC
  5
EE
100
AcDbEntity
  8
0
370
    35
390
0
 62
     7
100
AcDbCircle
 10
33.77787
 20
5.307281
 30
0.0
 40
0.5
210
0.0
220
0.0
230
1.0
100
AcDbArc
 50
336.009068
 51
246.009067
  0
LINE
  5
EF
100
AcDbEntity
  8
0
370
    35
390
0
 62
     7
 48
0.05125
100
AcDbLine
 10
34.234673
 20
5.103989
 30
0.0
 11
36.107574
 21
4.270462
 31
0.0
210
0.0
220
0.0
230
1.0
  0
ARC
  5
F0
100
AcDbEntity
  8
0
370
    35
390
0
 62
     7
100
AcDbCircle
 10
36.564377
 20
4.067169
 30
0.0
 40
0.5
210
0.0
220
0.0
230
1.0
100
AcDbArc
 50
246.009067
 51
156.009075
  0
LINE
  5
F1
100
AcDbEntity
  8
0
370
    35
390
0
 62
     7
 48
0.10125
100
AcDbLine
 10
34.714386
 20
-0.089752
 30
0.0
 11
36.361084
 21
3.610367
 31
0.0
210
0.0
220
0.0
230
1.0
  0
ARC
  5
F2
100
AcDbEntity
  8
0
370
    35
390
0
 62
     7
100
AcDbCircle
 10
34.511086
 20
-0.546555
 30
0.0
 40
0.5
210
0.0
220
0.0
230
1.0
100
AcDbArc
 50
156.009075
 51
66.009065
  0
LINE
  5
F3
100
AcDbEntity
  8
0
370
    35
390
0
 62
     7
 48
0.05125
100
AcDbLine
 10
34.079857
 20
20.496704
 30
0.0
 11
32.206963
 21
21.330223
 31
0.0
210
0.0
220
0.0
230
1.0
  0
ARC
  5
F4
100
AcDbEntity
  8
0
370
    35
390
0
 62
     7
100
AcDbCircle
 10
34.536667
 20
20.293411
 30
0.0
 40
0.5
210
0.0
220
0.0
230
1.0
100
AcDbArc
 50
246.009067
 51
156.009075
  0
LINE
  5
F5
100
AcDbEntity
  8
0
370
    35
390
0
 62
     7
 48
0.10125
100
AcDbLine
 10
34.333366
 20
19.836609
 30
0.0
 11
32.686668
 21
16.13649
 31
0.0
210
0.0
220
0.0
230
1.0
  0
ARC
  5
F6
100
AcDbEntity
  8
0
370
    35
390
0
 62
     7
100
AcDbCircle
 10
32.483376
 20
15.679688
 30
0.0
 40
0.5
210
0.0
220
0.0
230
1.0
100
AcDbArc
 50
156.009075
 51
66.009065
  0
LINE
  5
F7
100
AcDbEntity
  8
0
370
    35
390
0
 62
     7
 48
0.05125
100
AcDbLine
 10
32.026573
 20
15.88298
 30
0.0
 11
30.153671
 21
16.716492
 31
0.0
210
0.0
220
0.0
230
1.0
  0
ARC
  5
F8
100
AcDbEntity
  8
0
370
    35
390
0
 62
     7
100
AcDbCircle
 10
29.696861
 20
16.919785
 30
0.0
 40
0.5
210
0.0
220
0.0
230
1.0
100
AcDbArc
 50
66.009065
 51
336.009068
  0
LINE
  5
F9
100
AcDbEntity
  8
0
370
    35
390
0
 62
     7
 48
0.10125
100
AcDbLine
 10
31.54686
 20
21.076714
 30
0.0
 11
29.900162
 21
17.376587
 31
0.0
210
0.0
220
0.0
230
1.0
  0
ARC
  5
FA
100
AcDbEntity
  8
0
370
    35
390
0
 62
     7
100
AcDbCircle
 10
31.750153
 20
21.533516
 30
0.0
 40
0.5
210
0.0
220
0.0
230
1.0
100
AcDbArc
 50
336.009068
 51
246.009067
  0
ARC
  5
FB
100
AcDbEntity
  8
0
370
    35
390
0
 62
     7
100
AcDbCircle
 10
40.203377
 20
12.243988
 30
0.0
 40
0.5
210
0.0
220
0.0
230
1.0
100
AcDbArc
 50
156.009075
 51
66.009065
  0
LINE
  5
FC
100
AcDbEntity
  8
0
370
    35
390
0
 62
     7
 48
0.05125
100
AcDbLine
 10
37.873672
 20
13.280792
 30
0.0
 11
39.746574
 21
12.447281
 31
0.0
210
0.0
220
0.0
230
1.0
  0
ARC
  5
FD
100
AcDbEntity
  8
0
370
    35
390
0
 62
     7
100
AcDbCircle
 10
37.41687
 20
13.484085
 30
0.0
 40
0.5
210
0.0
220
0.0
230
1.0
100
AcDbArc
 50
66.009065
 51
336.009068
  0
LINE
  5
FE
100
AcDbEntity
  8
0
370
    35
390
0
 62
     7
 48
0.10125
100
AcDbLine
 10
39.266861
 20
17.641006
 30
0.0
 11
37.620163
 21
13.940887
 31
0.0
210
0.0
220
0.0
230
1.0
  0
ARC
  5
FF
100
AcDbEntity
  8
0
370
    35
390
0
 62
     7
100
AcDbCircle
 10
39.470154
 20
18.097809
 30
0.0
 40
0.5
210
0.0
220
0.0
230
1.0
100
AcDbArc
 50
336.009068
 51
246.009067
  0
LINE
  5
100
100
AcDbEntity
  8
0
370
    35
390
0
 62
     7
 48
0.05125
100
AcDbLine
 10
39.926964
 20
17.894516
 30
0.0
 11
41.799862
 21
17.061005
 31
0.0
210
0.0
220
0.0
230
1.0
  0
ARC
  5
101
100
AcDbEntity
  8
0
370
    35
390
0
 62
     7
100
AcDbCircle
 10
42.256668
 20
16.857712
 30
0.0
 40
0.5
210
0.0
220
0.0
230
1.0
100
AcDbArc
 50
246.009067
 51
156.009075
  0
LINE
  5
102
100
AcDbEntity
  8
0
370
    35
390
0
 62
     7
 48
0.10125
100
AcDbLine
 10
42.053371
 20
16.400909
 30
0.0
 11
40.406677
 21
12.70079
 31
0.0
210
0.0
220
0.0
230
1.0
  0
LINE
  5
103
100
AcDbEntity
  8
0
370
    35
390
0
 62
     7
 48
0.05125
100
AcDbLine
 10
157.220856
 20
-8.358643
 30
0.0
 11
159.210037
 21
-7.863022
 31
0.0
210
0.0
220
0.0
230
1.0
  0
ARC
  5
104
100
AcDbEntity
  8
0
370
    35
390
0
 62
     7
100
AcDbCircle
 10
156.735687
 20
-8.479538
 30
0.0
 40
0.5
210
0.0
220
0.0
230
1.0
100
AcDbArc
 50
103.990935
 51
13.990931
  0
LINE
  5
105
100
AcDbEntity
  8
0
370
    35
390
0
 62
     7
 48
0.10125
100
AcDbLine
 10
156.614807
 20
-7.99437
 30
0.0
 11
155.635635
 21
-4.064514
 31
0.0
210
0.0
220
0.0
230
1.0
  0
ARC
  5
106
100
AcDbEntity
  8
0
370
    35
390
0
 62
     7
100
AcDbCircle
 10
155.514755
 20
-3.579346
 30
0.0
 40
0.5
210
0.0
220
0.0
230
1.0
100
AcDbArc
 50
13.990931
 51
283.99093
  0
LINE
  5
107
100
AcDbEntity
  8
0
370
    35
390
0
 62
     7
 48
0.05125
100
AcDbLine
 10
155.999924
 20
-3.458466
 30
0.0
 11
157.989105
 21
-2.962845
 31
0.0
210
0.0
220
0.0
230
1.0
  0
ARC
  5
108
100
AcDbEntity
  8
0
370
    35
390
0
 62
     7
100
AcDbCircle
 10
158.474274
 20
-2.841949
 30
0.0
 40
0.5
210
0.0
220
0.0
230
1.0
100
AcDbArc
 50
283.99093
 51
193.990927
  0
LINE
  5
109
100
AcDbEntity
  8
0
370
    35
390
0
 62
     7
 48
0.10125
100
AcDbLine
 10
159.574326
 20
-7.256973
 30
0.0
 11
158.595154
 21
-3.327118
 31
0.0
210
0.0
220
0.0
230
1.0
  0
ARC
  5
10A
100
AcDbEntity
  8
0
370
    35
390
0
 62
     7
100
AcDbCircle
 10
159.695206
 20
-7.742142
 30
0.0
 40
0.5
210
0.0
220
0.0
230
1.0
100
AcDbArc
 50
193.990927
 51
103.990935
  0
ARC
  5
10B
100
AcDbEntity
  8
0
370
    35
390
0
 62
     7
100
AcDbCircle
 10
147.31543
 20
-5.622284
 30
0.0
 40
0.5
210
0.0
220
0.0
230
1.0
100
AcDbArc
 50
13.990931
 51
283.99093
  0
LINE
  5
10C
100
AcDbEntity
  8
0
370
    35
390
0
 62
     7
 48
0.05125
100
AcDbLine
 10
149.78978
 20
-5.005783
 30
0.0
 11
147.800598
 21
-5.501404
 31
0.0
210
0.0
220
0.0
230
1.0
  0
ARC
  5
10D
100
AcDbEntity
  8
0
370
    35
390
0
 62
     7
100
AcDbCircle
 10
150.274948
 20
-4.884903
 30
0.0
 40
0.5
210
0.0
220
0.0
230
1.0
100
AcDbArc
 50
283.99093
 51
193.990927
  0
LINE
  5
10E
100
AcDbEntity
  8
0
370
    35
390
0
 62
     7
 48
0.10125
100
AcDbLine
 10
151.375
 20
-9.299911
 30
0.0
 11
150.395844
 21
-5.370056
 31
0.0
210
0.0
220
0.0
230
1.0
  0
ARC
  5
10F
100
AcDbEntity
  8
0
370
    35
390
0
 62
     7
100
AcDbCircle
 10
151.49588
 20
-9.78508
 30
0.0
 40
0.5
210
0.0
220
0.0
230
1.0
100
AcDbArc
 50
193.990927
 51
103.990935
  0
LINE
  5
110
100
AcDbEntity
  8
0
370
    35
390
0
 62
     7
 48
0.05125
100
AcDbLine
 10
151.010712
 20
-9.90596
 30
0.0
 11
149.02153
 21
-10.401596
 31
0.0
210
0.0
220
0.0
230
1.0
  0
ARC
  5
111
100
AcDbEntity
  8
0
370
    35
390
0
 62
     7
100
AcDbCircle
 10
148.536362
 20
-10.522476
 30
0.0
 40
0.5
210
0.0
220
0.0
230
1.0
100
AcDbArc
 50
103.990935
 51
13.990931
  0
LINE
  5
112
100
AcDbEntity
  8
0
370
    35
390
0
 62
     7
 48
0.10125
100
AcDbLine
 10
148.415482
 20
-10.037308
 30
0.0
 11
147.43631
 21
-6.107452
 31
0.0
210
0.0
220
0.0
230
1.0
  0
ARC
  5
113
100
AcDbEntity
  8
0
370
    35
390
0
 62
     7
100
AcDbCircle
 10
156.310455
 20
5.842529
 30
0.0
 40
0.5
210
0.0
220
0.0
230
1.0
100
AcDbArc
 50
193.990927
 51
103.990935
  0
LINE
  5
114
100
AcDbEntity
  8
0
370
    35
390
0
 62
     7
 48
0.05125
100
AcDbLine
 10
153.83609
 20
5.226028
 30
0.0
 11
155.825287
 21
5.721649
 31
0.0
210
0.0
220
0.0
230
1.0
  0
ARC
  5
115
100
AcDbEntity
  8
0
370
    35
390
0
 62
     7
100
AcDbCircle
 10
153.350922
 20
5.105148
 30
0.0
 40
0.5
210
0.0
220
0.0
230
1.0
100
AcDbArc
 50
103.990935
 51
13.990931
  0
LINE
  5
116
100
AcDbEntity
  8
0
370
    35
390
0
 62
     7
 48
0.10125
100
AcDbLine
 10
152.250885
 20
9.520157
 30
0.0
 11
153.230042
 21
5.590317
 31
0.0
210
0.0
220
0.0
230
1.0
  0
ARC
  5
117
100
AcDbEntity
  8
0
370
    35
390
0
 62
     7
100
AcDbCircle
 10
152.130005
 20
10.005325
 30
0.0
 40
0.5
210
0.0
220
0.0
230
1.0
100
AcDbArc
 50
13.990931
 51
283.99093
  0
LINE
  5
118
100
AcDbEntity
  8
0
370
    35
390
0
 62
     7
 48
0.05125
100
AcDbLine
 10
152.615173
 20
10.126221
 30
0.0
 11
154.604355
 21
10.621841
 31
0.0
210
0.0
220
0.0
230
1.0
  0
ARC
  5
119
100
AcDbEntity
  8
0
370
    35
390
0
 62
     7
100
AcDbCircle
 10
155.089523
 20
10.742722
 30
0.0
 40
0.5
210
0.0
220
0.0
230
1.0
100
AcDbArc
 50
283.99093
 51
193.990927
  0
LINE
  5
11A
100
AcDbEntity
  8
0
370
    35
390
0
 62
     7
 48
0.10125
100
AcDbLine
 10
155.210403
 20
10.257553
 30
0.0
 11
156.18956
 21
6.327698
 31
0.0
210
0.0
220
0.0
230
1.0
  0
LINE
  5
11B
100
AcDbEntity
  8
0
370
    35
390
0
 62
     7
 48
0.05125
100
AcDbLine
 10
146.405029
 20
8.578903
 30
0.0
 11
144.415848
 21
8.083267
 31
0.0
210
0.0
220
0.0
230
1.0
  0
ARC
  5
11C
100
AcDbEntity
  8
0
370
    35
390
0
 62
     7
100
AcDbCircle
 10
146.890198
 20
8.699783
 30
0.0
 40
0.5
210
0.0
220
0.0
230
1.0
100
AcDbArc
 50
283.99093
 51
193.990927
  0
LINE
  5
11D
100
AcDbEntity
  8
0
370
    35
390
0
 62
     7
 48
0.10125
100
AcDbLine
 10
147.011078
 20
8.214615
 30
0.0
 11
147.990234
 21
4.28476
 31
0.0
210
0.0
220
0.0
230
1.0
  0
ARC
  5
11E
100
AcDbEntity
  8
0
370
    35
390
0
 62
     7
100
AcDbCircle
 10
148.11113
 20
3.799591
 30
0.0
 40
0.5
210
0.0
220
0.0
230
1.0
100
AcDbArc
 50
193.990927
 51
103.990935
  0
LINE
  5
11F
100
AcDbEntity
  8
0
370
    35
390
0
 62
     7
 48
0.05125
100
AcDbLine
 10
147.625961
 20
3.678711
 30
0.0
 11
145.63678
 21
3.18309
 31
0.0
210
0.0
220
0.0
230
1.0
  0
ARC
  5
120
100
AcDbEntity
  8
0
370
    35
390
0
 62
     7
100
AcDbCircle
 10
145.151611
 20
3.062195
 30
0.0
 40
0.5
210
0.0
220
0.0
230
1.0
100
AcDbArc
 50
103.990935
 51
13.990931
  0
LINE
  5
121
100
AcDbEntity
  8
0
370
    35
390
0
 62
     7
 48
0.10125
100
AcDbLine
 10
144.051559
 20
7.477219
 30
0.0
 11
145.030731
 21
3.547363
 31
0.0
210
0.0
220
0.0
230
1.0
  0
ARC
  5
122
100
AcDbEntity
  8
0
370
    35
390
0
 62
     7
100
AcDbCircle
 10
143.930679
 20
7.962387
 30
0.0
 40
0.5
210
0.0
220
0.0
230
1.0
100
AcDbArc
 50
13.990931
 51
283.99093
  0
CIRCLE
  5
123
100
AcDbEntity
  8
0
370
    35
390
0
 62
     7
100
AcDbCircle
 10
242.458359
 20
76.87458
 30
0.0
 40
2.5
210
0.0
220
0.0
230
1.0
  0
CIRCLE
  5
124
100
AcDbEntity
  8
0
370
    35
390
0
 62
     7
100
AcDbCircle
 10
229.411743
 20
78.05632
 30
0.0
 40
1.5
210
0.0
220
0.0
230
1.0
  0
CIRCLE
  5
125
100
AcDbEntity
  8
0
370
    35
390
0
 62
     7
100
AcDbCircle
 10
232.847443
 20
85.776321
 30
0.0
 40
1.5
210
0.0
220
0.0
230
1.0
  0
CIRCLE
  5
126
100
AcDbEntity
  8
0
370
    35
390
0
 62
     7
100
AcDbCircle
 10
212.941376
 20
54.82383
 30
0.0
 40
2.0
210
0.0
220
0.0
230
1.0
  0
CIRCLE
  5
127
100
AcDbEntity
  8
0
370
    35
390
0
 62
     7
100
AcDbCircle
 10
243.647644
 20
113.810059
 30
0.0
 40
2.0
210
0.0
220
0.0
230
1.0
  0
CIRCLE
  5
128
100
AcDbEntity
  8
0
370
    35
390
0
 62
     7
100
AcDbCircle
 10
252.807678
 20
195.167877
 30
0.0
 40
2.5
210
0.0
220
0.0
230
1.0
  0
CIRCLE
  5
129
100
AcDbEntity
  8
0
370
    35
390
0
 62
     7
100
AcDbCircle
 10
239.754059
 20
196.269623
 30
0.0
 40
1.5
210
0.0
220
0.0
230
1.0
  0
CIRCLE
  5
12A
100
AcDbEntity
  8
0
370
    35
390
0
 62
     7
100
AcDbCircle
 10
241.797012
 20
188.070282
 30
0.0
 40
1.5
210
0.0
220
0.0
230
1.0
  0
CIRCLE
  5
12B
100
AcDbEntity
  8
0
370
    35
390
0
 62
     7
100
AcDbCircle
 10
227.568192
 20
222.009186
 30
0.0
 40
2.0
210
0.0
220
0.0
230
1.0
  0
CIRCLE
  5
12C
100
AcDbEntity
  8
0
370
    35
390
0
 62
     7
100
AcDbCircle
 10
247.565125
 20
158.587021
 30
0.0
 40
2.0
210
0.0
220
0.0
230
1.0
  0
ARC
  5
12D
100
AcDbEntity
  8
0
370
    35
390
0
 62
     7
100
AcDbCircle
 10
244.757019
 20
69.557869
 30
0.0
 40
0.5
210
0.0
220
0.0
230
1.0
100
AcDbArc
 50
66.009065
 51
336.009068
  0
LINE
  5
12E
100
AcDbEntity
  8
0
370
    35
390
0
 62
     7
 48
0.05125
100
AcDbLine
 10
245.793823
 20
71.887573
 30
0.0
 11
244.960312
 21
70.014671
 31
0.0
210
0.0
220
0.0
230
1.0
  0
ARC
  5
12F
100
AcDbEntity
  8
0
370
    35
390
0
 62
     7
100
AcDbCircle
 10
245.997131
 20
72.344376
 30
0.0
 40
0.5
210
0.0
220
0.0
230
1.0
100
AcDbArc
 50
336.009068
 51
246.009067
  0
LINE
  5
130
100
AcDbEntity
  8
0
370
    35
390
0
 62
     7
 48
0.10125
100
AcDbLine
 10
250.154053
 20
70.494385
 30
0.0
 11
246.453934
 21
72.141083
 31
0.0
210
0.0
220
0.0
230
1.0
  0
ARC
  5
131
100
AcDbEntity
  8
0
370
    35
390
0
 62
     7
100
AcDbCircle
 10
250.610855
 20
70.291084
 30
0.0
 40
0.5
210
0.0
220
0.0
230
1.0
100
AcDbArc
 50
246.009067
 51
156.009075
  0
LINE
  5
132
100
AcDbEntity
  8
0
370
    35
390
0
 62
     7
 48
0.05125
100
AcDbLine
 10
250.407562
 20
69.834282
 30
0.0
 11
249.574051
 21
67.96138
 31
0.0
210
0.0
220
0.0
230
1.0
  0
ARC
  5
133
100
AcDbEntity
  8
0
370
    35
390
0
 62
     7
100
AcDbCircle
 10
249.370743
 20
67.504578
 30
0.0
 40
0.5
210
0.0
220
0.0
230
1.0
100
AcDbArc
 50
156.009075
 51
66.009065
  0
LINE
  5
134
100
AcDbEntity
  8
0
370
    35
390
0
 62
     7
 48
0.10125
100
AcDbLine
 10
248.91394
 20
67.70787
 30
0.0
 11
245.213821
 21
69.354568
 31
0.0
210
0.0
220
0.0
230
1.0
  0
LINE
  5
135
100
AcDbEntity
  8
0
370
    35
390
0
 62
     7
 48
0.05125
100
AcDbLine
 10
253.00975
 20
75.681381
 30
0.0
 11
253.843262
 21
77.554283
 31
0.0
210
0.0
220
0.0
230
1.0
  0
ARC
  5
136
100
AcDbEntity
  8
0
370
    35
390
0
 62
     7
100
AcDbCircle
 10
252.806458
 20
75.224579
 30
0.0
 40
0.5
210
0.0
220
0.0
230
1.0
100
AcDbArc
 50
156.009075
 51
66.009065
  0
LINE
  5
137
100
AcDbEntity
  8
0
370
    35
390
0
 62
     7
 48
0.10125
100
AcDbLine
 10
252.34964
 20
75.427872
 30
0.0
 11
248.649521
 21
77.07457
 31
0.0
210
0.0
220
0.0
230
1.0
  0
ARC
  5
138
100
AcDbEntity
  8
0
370
    35
390
0
 62
     7
100
AcDbCircle
 10
248.192719
 20
77.27787
 30
0.0
 40
0.5
210
0.0
220
0.0
230
1.0
100
AcDbArc
 50
66.009065
 51
336.009068
  0
LINE
  5
139
100
AcDbEntity
  8
0
370
    35
390
0
 62
     7
 48
0.05125
100
AcDbLine
 10
248.396011
 20
77.734673
 30
0.0
 11
249.229538
 21
79.607574
 31
0.0
210
0.0
220
0.0
230
1.0
  0
ARC
  5
13A
100
AcDbEntity
  8
0
370
    35
390
0
 62
     7
100
AcDbCircle
 10
249.432831
 20
80.064377
 30
0.0
 40
0.5
210
0.0
220
0.0
230
1.0
100
AcDbArc
 50
336.009068
 51
246.009067
  0
LINE
  5
13B
100
AcDbEntity
  8
0
370
    35
390
0
 62
     7
 48
0.10125
100
AcDbLine
 10
253.589752
 20
78.214386
 30
0.0
 11
249.889633
 21
79.861084
 31
0.0
210
0.0
220
0.0
230
1.0
  0
ARC
  5
13C
100
AcDbEntity
  8
0
370
    35
390
0
 62
     7
100
AcDbCircle
 10
254.046555
 20
78.011086
 30
0.0
 40
0.5
210
0.0
220
0.0
230
1.0
100
AcDbArc
 50
246.009067
 51
156.009075
  0
LINE
  5
13D
100
AcDbEntity
  8
0
370
    35
390
0
 62
     7
 48
0.05125
100
AcDbLine
 10
233.003296
 20
77.579857
 30
0.0
 11
232.169769
 21
75.706963
 31
0.0
210
0.0
220
0.0
230
1.0
  0
ARC
  5
13E
100
AcDbEntity
  8
0
370
    35
390
0
 62
     7
100
AcDbCircle
 10
233.206589
 20
78.036667
 30
0.0
 40
0.5
210
0.0
220
0.0
230
1.0
100
AcDbArc
 50
336.009068
 51
246.009067
  0
LINE
  5
13F
100
AcDbEntity
  8
0
370
    35
390
0
 62
     7
 48
0.10125
100
AcDbLine
 10
233.663391
 20
77.833366
 30
0.0
 11
237.36351
 21
76.186668
 31
0.0
210
0.0
220
0.0
230
1.0
  0
ARC
  5
140
100
AcDbEntity
  8
0
370
    35
390
0
 62
     7
100
AcDbCircle
 10
237.820313
 20
75.983376
 30
0.0
 40
0.5
210
0.0
220
0.0
230
1.0
100
AcDbArc
 50
246.009067
 51
156.009075
  0
LINE
  5
141
100
AcDbEntity
  8
0
370
    35
390
0
 62
     7
 48
0.05125
100
AcDbLine
 10
237.61702
 20
75.526573
 30
0.0
 11
236.783508
 21
73.653671
 31
0.0
210
0.0
220
0.0
230
1.0
  0
ARC
  5
142
100
AcDbEntity
  8
0
370
    35
390
0
 62
     7
100
AcDbCircle
 10
236.580215
 20
73.196861
 30
0.0
 40
0.5
210
0.0
220
0.0
230
1.0
100
AcDbArc
 50
156.009075
 51
66.009065
  0
LINE
  5
143
100
AcDbEntity
  8
0
370
    35
390
0
 62
     7
 48
0.10125
100
AcDbLine
 10
232.423279
 20
75.04686
 30
0.0
 11
236.123413
 21
73.400162
 31
0.0
210
0.0
220
0.0
230
1.0
  0
ARC
  5
144
100
AcDbEntity
  8
0
370
    35
390
0
 62
     7
100
AcDbCircle
 10
231.966492
 20
75.250153
 30
0.0
 40
0.5
210
0.0
220
0.0
230
1.0
100
AcDbArc
 50
66.009065
 51
336.009068
  0
ARC
  5
145
100
AcDbEntity
  8
0
370
    35
390
0
 62
     7
100
AcDbCircle
 10
241.256012
 20
83.703377
 30
0.0
 40
0.5
210
0.0
220
0.0
230
1.0
100
AcDbArc
 50
246.009067
 51
156.009075
  0
LINE
  5
146
100
AcDbEntity
  8
0
370
    35
390
0
 62
     7
 48
0.05125
100
AcDbLine
 10
240.219208
 20
81.373672
 30
0.0
 11
241.052719
 21
83.246574
 31
0.0
210
0.0
220
0.0
230
1.0
  0
ARC
  5
147
100
AcDbEntity
  8
0
370
    35
390
0
 62
     7
100
AcDbCircle
 10
240.015915
 20
80.91687
 30
0.0
 40
0.5
210
0.0
220
0.0
230
1.0
100
AcDbArc
 50
156.009075
 51
66.009065
  0
LINE
  5
148
100
AcDbEntity
  8
0
370
    35
390
0
 62
     7
 48
0.10125
100
AcDbLine
 10
235.858994
 20
82.766861
 30
0.0
 11
239.559113
 21
81.120163
 31
0.0
210
0.0
220
0.0
230
1.0
  0
ARC
  5
149
100
AcDbEntity
  8
0
370
    35
390
0
 62
     7
100
AcDbCircle
 10
235.402191
 20
82.970154
 30
0.0
 40
0.5
210
0.0
220
0.0
230
1.0
100
AcDbArc
 50
66.009065
 51
336.009068
  0
LINE
  5
14A
100
AcDbEntity
  8
0
370
    35
390
0
 62
     7
 48
0.05125
100
AcDbLine
 10
235.605484
 20
83.426964
 30
0.0
 11
236.438995
 21
85.299866
 31
0.0
210
0.0
220
0.0
230
1.0
  0
ARC
  5
14B
100
AcDbEntity
  8
0
370
    35
390
0
 62
     7
100
AcDbCircle
 10
236.642288
 20
85.756668
 30
0.0
 40
0.5
210
0.0
220
0.0
230
1.0
100
AcDbArc
 50
336.009068
 51
246.009067
  0
LINE
  5
14C
100
AcDbEntity
  8
0
370
    35
390
0
 62
     7
 48
0.10125
100
AcDbLine
 10
237.099091
 20
85.553375
 30
0.0
 11
240.79921
 21
83.906677
 31
0.0
210
0.0
220
0.0
230
1.0
  0
LINE
  5
14D
100
AcDbEntity
  8
0
370
    35
390
0
 62
     7
 48
0.05125
100
AcDbLine
 10
261.858643
 20
200.720856
 30
0.0
 11
261.363037
 21
202.710037
 31
0.0
210
0.0
220
0.0
230
1.0
  0
ARC
  5
14E
100
AcDbEntity
  8
0
370
    35
390
0
 62
     7
100
AcDbCircle
 10
261.979553
 20
200.235687
 30
0.0
 40
0.5
210
0.0
220
0.0
230
1.0
100
AcDbArc
 50
193.990927
 51
103.990935
  0
LINE
  5
14F
100
AcDbEntity
  8
0
370
    35
390
0
 62
     7
 48
0.10125
100
AcDbLine
 10
261.494385
 20
200.114807
 30
0.0
 11
257.564514
 21
199.135635
 31
0.0
210
0.0
220
0.0
230
1.0
  0
ARC
  5
150
100
AcDbEntity
  8
0
370
    35
390
0
 62
     7
100
AcDbCircle
 10
257.079346
 20
199.014755
 30
0.0
 40
0.5
210
0.0
220
0.0
230
1.0
100
AcDbArc
 50
103.990935
 51
13.990931
  0
LINE
  5
151
100
AcDbEntity
  8
0
370
    35
390
0
 62
     7
 48
0.05125
100
AcDbLine
 10
256.958466
 20
199.499924
 30
0.0
 11
256.46283
 21
201.489105
 31
0.0
210
0.0
220
0.0
230
1.0
  0
ARC
  5
152
100
AcDbEntity
  8
0
370
    35
390
0
 62
     7
100
AcDbCircle
 10
256.341949
 20
201.974274
 30
0.0
 40
0.5
210
0.0
220
0.0
230
1.0
100
AcDbArc
 50
13.990931
 51
283.99093
  0
LINE
  5
153
100
AcDbEntity
  8
0
370
    35
390
0
 62
     7
 48
0.10125
100
AcDbLine
 10
260.756958
 20
203.074326
 30
0.0
 11
256.827118
 21
202.095154
 31
0.0
210
0.0
220
0.0
230
1.0
  0
ARC
  5
154
100
AcDbEntity
  8
0
370
    35
390
0
 62
     7
100
AcDbCircle
 10
261.242126
 20
203.195206
 30
0.0
 40
0.5
210
0.0
220
0.0
230
1.0
100
AcDbArc
 50
283.99093
 51
193.990927
  0
ARC
  5
155
100
AcDbEntity
  8
0
370
    35
390
0
 62
     7
100
AcDbCircle
 10
259.122284
 20
190.81543
 30
0.0
 40
0.5
210
0.0
220
0.0
230
1.0
100
AcDbArc
 50
103.990935
 51
13.990931
  0
LINE
  5
156
100
AcDbEntity
  8
0
370
    35
390
0
 62
     7
 48
0.05125
100
AcDbLine
 10
258.505798
 20
193.28978
 30
0.0
 11
259.001404
 21
191.300598
 31
0.0
210
0.0
220
0.0
230
1.0
  0
ARC
  5
157
100
AcDbEntity
  8
0
370
    35
390
0
 62
     7
100
AcDbCircle
 10
258.384888
 20
193.774948
 30
0.0
 40
0.5
210
0.0
220
0.0
230
1.0
100
AcDbArc
 50
13.990931
 51
283.99093
  0
LINE
  5
158
100
AcDbEntity
  8
0
370
    35
390
0
 62
     7
 48
0.10125
100
AcDbLine
 10
262.799927
 20
194.875
 30
0.0
 11
258.870056
 21
193.895844
 31
0.0
210
0.0
220
0.0
230
1.0
  0
ARC
  5
159
100
AcDbEntity
  8
0
370
    35
390
0
 62
     7
100
AcDbCircle
 10
263.285095
 20
194.99588
 30
0.0
 40
0.5
210
0.0
220
0.0
230
1.0
100
AcDbArc
 50
283.99093
 51
193.990927
  0
LINE
  5
15A
100
AcDbEntity
  8
0
370
    35
390
0
 62
     7
 48
0.05125
100
AcDbLine
 10
263.405945
 20
194.510712
 30
0.0
 11
263.901611
 21
192.52153
 31
0.0
210
0.0
220
0.0
230
1.0
  0
ARC
  5
15B
100
AcDbEntity
  8
0
370
    35
390
0
 62
     7
100
AcDbCircle
 10
264.022461
 20
192.036362
 30
0.0
 40
0.5
210
0.0
220
0.0
230
1.0
100
AcDbArc
 50
193.990927
 51
103.990935
  0
LINE
  5
15C
100
AcDbEntity
  8
0
370
    35
390
0
 62
     7
 48
0.10125
100
AcDbLine
 10
263.537292
 20
191.915482
 30
0.0
 11
259.607452
 21
190.93631
 31
0.0
210
0.0
220
0.0
230
1.0
  0
ARC
  5
15D
100
AcDbEntity
  8
0
370
    35
390
0
 62
     7
100
AcDbCircle
 10
247.657471
 20
199.810455
 30
0.0
 40
0.5
210
0.0
220
0.0
230
1.0
100
AcDbArc
 50
283.99093
 51
193.990927
  0
LINE
  5
15E
100
AcDbEntity
  8
0
370
    35
390
0
 62
     7
 48
0.05125
100
AcDbLine
 10
248.273972
 20
197.33609
 30
0.0
 11
247.778351
 21
199.325287
 31
0.0
210
0.0
220
0.0
230
1.0
  0
ARC
  5
15F
100
AcDbEntity
  8
0
370
    35
390
0
 62
     7
100
AcDbCircle
 10
248.394852
 20
196.850922
 30
0.0
 40
0.5
210
0.0
220
0.0
230
1.0
100
AcDbArc
 50
193.990927
 51
103.990935
  0
LINE
  5
160
100
AcDbEntity
  8
0
370
    35
390
0
 62
     7
 48
0.10125
100
AcDbLine
 10
243.979843
 20
195.750885
 30
0.0
 11
247.909683
 21
196.730042
 31
0.0
210
0.0
220
0.0
230
1.0
  0
ARC
  5
161
100
AcDbEntity
  8
0
370
    35
390
0
 62
     7
100
AcDbCircle
 10
243.494675
 20
195.630005
 30
0.0
 40
0.5
210
0.0
220
0.0
230
1.0
100
AcDbArc
 50
103.990935
 51
13.990931
  0
LINE
  5
162
100
AcDbEntity
  8
0
370
    35
390
0
 62
     7
 48
0.05125
100
AcDbLine
 10
243.373779
 20
196.115173
 30
0.0
 11
242.878159
 21
198.104355
 31
0.0
210
0.0
220
0.0
230
1.0
  0
ARC
  5
163
100
AcDbEntity
  8
0
370
    35
390
0
 62
     7
100
AcDbCircle
 10
242.757278
 20
198.589523
 30
0.0
 40
0.5
210
0.0
220
0.0
230
1.0
100
AcDbArc
 50
13.990931
 51
283.99093
  0
LINE
  5
164
100
AcDbEntity
  8
0
370
    35
390
0
 62
     7
 48
0.10125
100
AcDbLine
 10
243.242447
 20
198.710403
 30
0.0
 11
247.172302
 21
199.68956
 31
0.0
210
0.0
220
0.0
230
1.0
  0
LINE
  5
165
100
AcDbEntity
  8
0
370
    35
390
0
 62
     7
 48
0.05125
100
AcDbLine
 10
244.921097
 20
189.905029
 30
0.0
 11
245.416733
 21
187.915848
 31
0.0
210
0.0
220
0.0
230
1.0
  0
ARC
  5
166
100
AcDbEntity
  8
0
370
    35
390
0
 62
     7
100
AcDbCircle
 10
244.800217
 20
190.390198
 30
0.0
 40
0.5
210
0.0
220
0.0
230
1.0
100
AcDbArc
 50
13.990931
 51
283.99093
  0
LINE
  5
167
100
AcDbEntity
  8
0
370
    35
390
0
 62
     7
 48
0.10125
100
AcDbLine
 10
245.285385
 20
190.511078
 30
0.0
 11
249.21524
 21
191.490234
 31
0.0
210
0.0
220
0.0
230
1.0
  0
ARC
  5
168
100
AcDbEntity
  8
0
370
    35
390
0
 62
     7
100
AcDbCircle
 10
249.700409
 20
191.61113
 30
0.0
 40
0.5
210
0.0
220
0.0
230
1.0
100
AcDbArc
 50
283.99093
 51
193.990927
  0
LINE
  5
169
100
AcDbEntity
  8
0
370
    35
390
0
 62
     7
 48
0.05125
100
AcDbLine
 10
249.821289
 20
191.125961
 30
0.0
 11
250.31691
 21
189.13678
 31
0.0
210
0.0
220
0.0
230
1.0
  0
ARC
  5
16A
100
AcDbEntity
  8
0
370
    35
390
0
 62
     7
100
AcDbCircle
 10
250.437805
 20
188.651611
 30
0.0
 40
0.5
210
0.0
220
0.0
230
1.0
100
AcDbArc
 50
193.990927
 51
103.990935
  0
LINE
  5
16B
100
AcDbEntity
  8
0
370
    35
390
0
 62
     7
 48
0.10125
100
AcDbLine
 10
246.022781
 20
187.551559
 30
0.0
 11
249.952637
 21
188.530731
 31
0.0
210
0.0
220
0.0
230
1.0
  0
ARC
  5
16C
100
AcDbEntity
  8
0
370
    35
390
0
 62
     7
100
AcDbCircle
 10
245.537613
 20
187.430679
 30
0.0
 40
0.5
210
0.0
220
0.0
230
1.0
100
AcDbArc
 50
103.990935
 51
13.990931
  0
ENDSEC
  0
SECTION
  2
OBJECTS
  0
DICTIONARY
  5
19
100
AcDbDictionary
280
     0
281
     1
  3
ACAD_GROUP
350
1A
  3
ACAD_MLINESTYLE
350
1B
  3
ACAD_LAYOUT
350
1E
  3
ACAD_PLOTSETTINGS
350
22
  3
ACAD_PLOTSTYLENAME
350
1F
  3
ACAD_WIPEOUT_VARS
350
23
  0
DICTIONARY
  5
1A
102
{ACAD_REACTORS
330
19
102
}
100
AcDbDictionary
280
     0
281
     1
  0
DICTIONARY
  5
1B
102
{ACAD_REACTORS
330
19
102
}
100
AcDbDictionary
280
     0
281
     1
  3
Standard
350
1C
  0
MLINESTYLE
  5
1C
102
{ACAD_REACTORS
330
1B
102
}
100
AcDbMlineStyle
  2
Standard
 70
     0
  3

 62
     0
 51
90.0
 52
90.0
 71
     2
 49
0.5
 62
   256
  6
ByLayer
 49
-0.5
 62
   256
  6
ByLayer
  0
ACDBDICTIONARYWDFLT
  5
1F
102
{ACAD_REACTORS
330
19
102
}
100
AcDbDictionary
281
     1
  3
Normal
350
1D
100
AcDbDictionaryWithDefault
340
1D
  0
ACDBPLACEHOLDER
  5
1D
102
{ACAD_REACTORS
330
1F
102
}
  0
LAYOUT
  5
20
102
{ACAD_REACTORS
330
1E
102
}
100
AcDbPlotSettings
  1

  2

  4

  6

 40
0.0
 41
0.0
 42
0.0
 43
0.0
 44
0.0
 45
0.0
 46
0.0
 47
0.0
 48
0.0
 49
0.0
140
0.0
141
0.0
142
1.0
143
1.0
 70
  1024
 72
     0
 73
     0
 74
     0
  7

 75
     0
147
1.0
148
0.0
149
0.0
100
AcDbLayout
  1
Model
 70
     0
 71
     0
 10
0.0
 20
0.0
 11
0.0
 21
0.0
 12
0.0
 22
0.0
 32
0.0
 14
0.0
 24
0.0
 34
0.0
 15
0.0
 25
0.0
 35
0.0
146
0.0
 13
0.0
 23
0.0
 33
0.0
 16
0.0
 26
0.0
 36
0.0
 17
0.0
 27
0.0
 37
0.0
 76
     0
330
A
331
0
345
0
346
0
  0
LAYOUT
  5
21
102
{ACAD_REACTORS
330
1E
102
}
100
AcDbPlotSettings
  1

  2

  4

  6

 40
0.0
 41
0.0
 42
0.0
 43
0.0
 44
0.0
 45
0.0
 46
0.0
 47
0.0
 48
0.0
 49
0.0
140
0.0
141
0.0
142
1.0
143
1.0
 70
     0
 72
     0
 73
     0
 74
     0
  7

 75
     0
147
1.0
148
0.0
149
0.0
100
AcDbLayout
  1
Layout1
 70
     0
 71
     0
 10
0.0
 20
0.0
 11
0.0
 21
0.0
 12
0.0
 22
0.0
 32
0.0
 14
0.0
 24
0.0
 34
0.0
 15
0.0
 25
0.0
 35
0.0
146
0.0
 13
0.0
 23
0.0
 33
0.0
 16
0.0
 26
0.0
 36
0.0
 17
0.0
 27
0.0
 37
0.0
 76
     0
330
B
331
0
345
0
346
0
  0
DICTIONARY
  5
1E
102
{ACAD_REACTORS
330
19
102
}
100
AcDbDictionary
280
     0
281
     1
  3
Layout1
350
21
  3
Model
350
20
  0
DICTIONARY
  5
22
102
{ACAD_REACTORS
330
19
102
}
100
AcDbDictionary
280
     0
281
     1
  0
WIPEOUTVARIABLES
  5
23
100
AcDbWipeoutVariables
 70
     1
  0
ENDSEC
  0
EOF
