  0
SECTION
  2
HEADER
  9
$ACADVER
  1
AC1015
  9
$ACADMAINTVER
 70
     6
  9
$DWGCODEPAGE
  3
ANSI_1252
  9
$INSBASE
 10
0.0
 20
0.0
 30
0.0
  9
$EXTMIN
 10
0.0
 20
0.0
 30
0.0
  9
$EXTMAX
 10
352.5
 20
396.0
 30
2.0
  9
$LIMMIN
 10
0.0
 20
0.0
  9
$LIMMAX
 10
420.0
 20
297.0
  9
$ORTHOMODE
 70
     0
  9
$REGENMODE
 70
     1
  9
$FILLMODE
 70
     1
  9
$QTEXTMODE
 70
     0
  9
$MIRRTEXT
 70
     1
  9
$LTSCALE
 40
1.0
  9
$ATTMODE
 70
     1
  9
$TEXTSIZE
 40
2.5
  9
$TRACEWID
 40
1.0
  9
$TEXTSTYLE
  7
Standard
  9
$CLAYER
  8
0
  9
$CELTYPE
  6
ByLayer
  9
$CECOLOR
 62
   256
  9
$CELTSCALE
 40
1.0
  9
$DISPSILH
 70
     0
  9
$DIMSCALE
 40
1.0
  9
$DIMASZ
 40
2.5
  9
$DIMEXO
 40
0.625
  9
$DIMDLI
 40
3.75
  9
$DIMRND
 40
0.0
  9
$DIMDLE
 40
0.0
  9
$DIMEXE
 40
1.25
  9
$DIMTP
 40
0.0
  9
$DIMTM
 40
0.0
  9
$DIMTXT
 40
2.5
  9
$DIMCEN
 40
2.5
  9
$DIMTSZ
 40
0.0
  9
$DIMTOL
 70
     0
  9
$DIMLIM
 70
     0
  9
$DIMTIH
 70
     0
  9
$DIMTOH
 70
     0
  9
$DIMSE1
 70
     0
  9
$DIMSE2
 70
     0
  9
$DIMTAD
 70
     1
  9
$DIMZIN
 70
     8
  9
$DIMBLK
  1

  9
$DIMASO
 70
     1
  9
$DIMSHO
 70
     1
  9
$DIMPOST
  1

  9
$DIMAPOST
  1

  9
$DIMALT
 70
     0
  9
$DIMALTD
 70
     3
  9
$DIMALTF
 40
0.03937
  9
$DIMLFAC
 40
1.0
  9
$DIMTOFL
 70
     1
  9
$DIMTVP
 40
0.0
  9
$DIMTIX
 70
     0
  9
$DIMSOXD
 70
     0
  9
$DIMSAH
 70
     0
  9
$DIMBLK1
  1

  9
$DIMBLK2
  1

  9
$DIMSTYLE
  2

  9
$DIMCLRD
 70
     0
  9
$DIMCLRE
 70
     0
  9
$DIMCLRT
 70
     0
  9
$DIMTFAC
 40
1.0
  9
$DIMGAP
 40
0.625
  9
$DIMJUST
 70
     0
  9
$DIMSD1
 70
     0
  9
$DIMSD2
 70
     0
  9
$DIMTOLJ
 70
     0
  9
$DIMTZIN
 70
     8
  9
$DIMALTZ
 70
     0
  9
$DIMALTTZ
 70
     0
  9
$DIMUPT
 70
     0
  9
$DIMDEC
 70
     2
  9
$DIMTDEC
 70
     2
  9
$DIMALTU
 70
     2
  9
$DIMALTTD
 70
     3
  9
$DIMTXSTY
  7
Standard
  9
$DIMAUNIT
 70
     0
  9
$DIMADEC
 70
     0
  9
$DIMALTRND
 40
0.0
  9
$DIMAZIN
 70
     0
  9
$DIMDSEP
 70
    44
  9
$DIMATFIT
 70
     0
  9
$DIMFRAC
 70
     0
  9
$DIMLDRBLK
  1

  9
$DIMLUNIT
 70
     2
  9
$DIMLWD
 70
    -2
  9
$DIMLWE
 70
    -2
  9
$DIMTMOVE
 70
     0
  9
$LUNITS
 70
     2
  9
$LUPREC
 70
     4
  9
$SKETCHINC
 40
1.0
  9
$FILLETRAD
 40
2.5
  9
$AUNITS
 70
     0
  9
$AUPREC
 70
     0
  9
$MENU
  1
.
  9
$ELEVATION
 40
0.0
  9
$PELEVATION
 40
0.0
  9
$THICKNESS
 40
0.0
  9
$LIMCHECK
 70
     0
  9
$CHAMFERA
 40
2.5
  9
$CHAMFERB
 40
2.5
  9
$CHAMFERC
 40
0.0
  9
$CHAMFERD
 40
0.0
  9
$SKPOLY
 70
     0
  9
$TDCREATE
 40
0.000000000
  9
$TDUCREATE
 40
0.000000000
  9
$TDUPDATE
 40
0.000000000
  9
$TDUUPDATE
 40
0.000000000
  9
$TDINDWG
 40
0.0000000000
  9
$TDUSRTIMER
 40
0.0000000000
  9
$USRTIMER
 70
     1
  9
$ANGBASE
 50
0.0
  9
$ANGDIR
 70
     0
  9
$PDMODE
 70
     0
  9
$PDSIZE
 40
0.0
  9
$PLINEWID
 40
0.0
  9
$SPLFRAME
 70
     0
  9
$SPLINETYPE
 70
     6
  9
$SPLINESEGS
 70
     8
  9
$HANDSEED
  5
1FC
  9
$SURFTAB1
 70
     6
  9
$SURFTAB2
 70
     6
  9
$SURFTYPE
 70
     6
  9
$SURFU
 70
     6
  9
$SURFV
 70
     6
  9
$UCSBASE
  2

  9
$UCSNAME
  2

  9
$UCSORG
 10
0.0
 20
0.0
 30
0.0
  9
$UCSXDIR
 10
1.0
 20
0.0
 30
0.0
  9
$UCSYDIR
 10
0.0
 20
1.0
 30
0.0
  9
$UCSORTHOREF
  2

  9
$UCSORTHOVIEW
 70
     1
  9
$UCSORGTOP
 10
0.0
 20
0.0
 30
0.0
  9
$UCSORGBOTTOM
 10
0.0
 20
0.0
 30
0.0
  9
$UCSORGLEFT
 10
0.0
 20
0.0
 30
0.0
  9
$UCSORGRIGHT
 10
0.0
 20
0.0
 30
0.0
  9
$UCSORGFRONT
 10
0.0
 20
0.0
 30
0.0
  9
$UCSORGBACK
 10
0.0
 20
0.0
 30
0.0
  9
$PUCSBASE
  2

  9
$PUCSNAME
  2

  9
$PUCSORG
 10
0.0
 20
0.0
 30
0.0
  9
$PUCSXDIR
 10
1.0
 20
0.0
 30
0.0
  9
$PUCSYDIR
 10
0.0
 20
1.0
 30
0.0
  9
$PUCSORTHOREF
  2

  9
$PUCSORTHOVIEW
 70
     0
  9
$PUCSORGTOP
 10
0.0
 20
0.0
 30
0.0
  9
$PUCSORGBOTTOM
 10
0.0
 20
0.0
 30
0.0
  9
$PUCSORGLEFT
 10
0.0
 20
0.0
 30
0.0
  9
$PUCSORGRIGHT
 10
0.0
 20
0.0
 30
0.0
  9
$PUCSORGFRONT
 10
0.0
 20
0.0
 30
0.0
  9
$PUCSORGBACK
 10
0.0
 20
0.0
 30
0.0
  9
$USERI1
 70
     0
  9
$USERI2
 70
     0
  9
$USERI3
 70
     0
  9
$USERI4
 70
     0
  9
$USERI5
 70
     0
  9
$USERR1
 40
0.0
  9
$USERR2
 40
0.0
  9
$USERR3
 40
0.0
  9
$USERR4
 40
0.0
  9
$USERR5
 40
0.0
  9
$WORLDVIEW
 70
     1
  9
$SHADEDGE
 70
     3
  9
$SHADEDIF
 70
    70
  9
$TILEMODE
 70
     1
  9
$MAXACTVP
 70
    48
  9
$PINSBASE
 10
0.0
 20
0.0
 30
0.0
  9
$PLIMCHECK
 70
     0
  9
$PEXTMIN
 10
0.0
 20
0.0
 30
0.0
  9
$PEXTMAX
 10
352.5
 20
396.0
 30
2.0
  9
$PLIMMIN
 10
0.0
 20
0.0
  9
$PLIMMAX
 10
420.0
 20
297.0
  9
$UNITMODE
 70
     0
  9
$VISRETAIN
 70
     0
  9
$PLINEGEN
 70
     0
  9
$PSLTSCALE
 70
     1
  9
$TREEDEPTH
 70
  3020
  9
$CMLSTYLE
  2
Standard
  9
$CMLJUST
 70
     0
  9
$CMLSCALE
 40
20.0
  9
$PROXYGRAPHICS
 70
     1
  9
$MEASUREMENT
 70
     1
  9
$CELWEIGHT
370
    -1
  9
$ENDCAPS
280
     0
  9
$JOINSTYLE
280
     0
  9
$LWDISPLAY
290
     0
  9
$INSUNITS
 70
     0
  9
$HYPERLINKBASE
  1

  9
$STYLESHEET
  1

  9
$XEDIT
290
     1
  9
$CEPSNTYPE
380
     0
  9
$PSTYLEMODE
290
     0
  9
$FINGERPRINTGUID
  2

  9
$VERSIONGUID
  2

  9
$EXTNAMES
290
     0
  9
$PSVPSCALE
 40
0.0
  0
ENDSEC
  0
SECTION
  2
CLASSES
  0
CLASS
  1
LWPOLYLINE
  2
AcDbPolyline
  3
AutoCAD 2000
 90
        0
280
     0
281
     1
  0
CLASS
  1
IMAGE
  2
AcDbRasterImage
  3
ISM
 90
      127
280
     0
281
     1
  0
CLASS
  1
OLE2FRAME
  2
AcDbOle2Frame
  3
AutoCAD 2000
 90
        0
280
     0
281
     1
  0
CLASS
  1
HATCH
  2
AcDbHatch
  3
AutoCAD 2000
 90
        0
280
     0
281
     1
  0
CLASS
  1
DICTIONARYVAR
  2
AcDbDictionaryVar
  3
AutoCAD 2000
 90
        0
280
     0
281
     0
  0
CLASS
  1
RASTERVARIABLES
  2
AcDbRasterVariables
  3
ISM
 90
        0
280
     0
281
     0
  0
CLASS
  1
IMAGEDEF
  2
AcDbRasterImageDef
  3
ISM
 90
        0
280
     0
281
     0
  0
CLASS
  1
IMAGEDEF_REACTOR
  2
AcDbRasterImageDefReactor
  3
ISM
 90
        1
280
     0
281
     0
  0
CLASS
  1
IDBUFFER
  2
AcDbIdBuffer
  3
AutoCAD 2000
 90
        0
280
     0
281
     0
  0
CLASS
  1
SPATIAL_FILTER
  2
AcDbSpatialFilter
  3
AutoCAD 2000
 90
        0
280
     0
281
     0
  0
CLASS
  1
XRECORD
  2
AcDbXrecord
  3
AutoCAD 2000
 90
        0
280
     0
281
     0
  0
CLASS
  1
SORTENTSTABLE
  2
AcDbSortentsTable
  3
AutoCAD 2000
 90
        0
280
     0
281
     0
  0
CLASS
  1
LAYER_INDEX
  2
AcDbLayerIndex
  3
AutoCAD 2000
 90
        0
280
     0
281
     0
  0
CLASS
  1
SPATIAL_INDEX
  2
AcDbSpatialIndex
  3
AutoCAD 2000
 90
        0
280
     0
281
     0
  0
CLASS
  1
OBJECT_PTR
  2
CAseDLPNTableRecord
  3
"ASE-LPNTableRecord"
 90
        1
280
     0
281
     0
  0
CLASS
  1
LAYOUT
  2
AcDbLayout
  3
AutoCAD 2000
 90
        0
280
     0
281
     0
  0
CLASS
  1
PLOTSETTINGS
  2
AcDbPlotSettings
  3
AutoCAD 2000
 90
        0
280
     0
281
     0
  0
CLASS
  1
ACDBDICTIONARYWDFLT
  2
AcDbDictionaryWithDefault
  3
AutoCAD 2000
 90
        0
280
     0
281
     0
  0
CLASS
  1
ACDBPLACEHOLDER
  2
AcDbPlaceHolder
  3
AutoCAD 2000
 90
        0
280
     0
281
     0
  0
CLASS
  1
VBA_PROJECT
  2
AcDbVbaProject
  3
acadvba
 90
        0
280
     0
281
     0
  0
CLASS
  1
WIPEOUT
  2
AcDbWipeout
  3
WipeOut|AutoCAD Express Tool|expresstools@autodesk.com
 90
      127
280
     0
281
     1
  0
CLASS
  1
WIPEOUTVARIABLES
  2
AcDbWipeoutVariables
  3
WipeOut|AutoCAD Express Tool|expresstools@autodesk.com
 90
        0
280
     0
281
     0
  0
CLASS
  1
RTEXT
  2
RText
  3
RText|AutoCAD Express Tool|expresstools@autodesk.com
 90
        0
280
     0
281
     1
  0
CLASS
  1
ARCALIGNEDTEXT
  2
AcDbArcAlignedText
  3
ATEXT|AutoCAD Express Tool|expresstools@autodesk.com
 90
        0
280
     0
281
     1
  0
ENDSEC
  0
SECTION
  2
TABLES
  0
TABLE
  2
VPORT
  5
7
100
AcDbSymbolTable
 70
     1
  0
VPORT
  5
15
100
AcDbSymbolTableRecord
100
AcDbViewportTableRecord
  2
*ACTIVE
 70
     0
 10
0.0
 20
0.0
 11
1.0
 21
1.0
 12
6.591288
 22
4.579184
 13
0.0
 23
0.0
 14
1.0
 24
1.0
 15
0.0
 25
0.0
 16
0.0
 26
0.0
 36
1.0
 17
0.0
 27
0.0
 37
0.0
 40
9.158369
 41
0.688564
 42
50.0
 43
0.0
 44
0.0
 50
0.0
 51
0.0
 71
     0
 72
   100
 73
     1
 74
     1
 75
     0
 76
     0
 77
     0
 78
     0
281
     0
 65
     0
110
0.0
120
0.0
130
0.0
111
1.0
121
0.0
131
0.0
112
0.0
122
1.0
132
0.0
345
0
346
0
 79
     0
146
0.0
  0
ENDTAB
  0
TABLE
  2
LTYPE
  5
4
100
AcDbSymbolTable
 70
     3
  0
LTYPE
  5
11
100
AcDbSymbolTableRecord
100
AcDbLinetypeTableRecord
  2
ByBlock
 70
    64
  3

 72
    65
 73
     0
 40
0.0
  0
LTYPE
  5
12
100
AcDbSymbolTableRecord
100
AcDbLinetypeTableRecord
  2
ByLayer
 70
    64
  3

 72
    65
 73
     0
 40
0.0
  0
LTYPE
  5
13
100
AcDbSymbolTableRecord
100
AcDbLinetypeTableRecord
  2
Continuous
 70
    64
  3
Solid line
 72
    65
 73
     0
 40
0.0
  0
ENDTAB
  0
TABLE
  2
LAYER
  5
2
100
AcDbSymbolTable
 70
     1
  0
LAYER
  5
14
100
AcDbSymbolTableRecord
100
AcDbLayerTableRecord
  2
0
 70
     0
 62
     7
  6
Continuous
290
     1
370
    -3
390
1D
  0
ENDTAB
  0
TABLE
  2
STYLE
  5
3
100
AcDbSymbolTable
 70
     1
  0
STYLE
  5
17
100
AcDbSymbolTableRecord
100
AcDbTextStyleTableRecord
  2
Standard
 70
     0
 40
0.0
 41
1.0
 50
0.0
 71
     0
 42
0.0
  3
txt
  4

  0
ENDTAB
  0
TABLE
  2
VIEW
  5
5
100
AcDbSymbolTable
 70
     0
  0
ENDTAB
  0
TABLE
  2
UCS
  5
6
100
AcDbSymbolTable
 70
     0
  0
ENDTAB
  0
TABLE
  2
APPID
  5
8
100
AcDbSymbolTable
 70
     1
  0
APPID
  5
16
100
AcDbSymbolTableRecord
100
AcDbRegAppTableRecord
  2
ACAD
 70
     0
  0
ENDTAB
  0
TABLE
  2
DIMSTYLE
  5
9
100
AcDbSymbolTable
 70
     1
100
AcDbDimStyleTable
 71
     0
  0
DIMSTYLE
105
18
100
AcDbSymbolTableRecord
100
AcDbDimStyleTableRecord
  2
Standard
 70
     0
  3

  4

 40
1.0
 41
0.18
 42
0.0625
 43
0.38
 44
0.18
 45
0.0
 46
0.0
 47
0.0
 48
0.0
 71
     0
 72
     0
 73
     1
 74
     1
 75
     0
 76
     0
 77
     0
 78
     0
 79
     0
140
0.18
141
0.09
142
0.0
143
25.4
144
1.0
145
0.0
146
1.0
147
0.09
148
0.0
170
     0
171
     2
172
     0
173
     0
174
     0
175
     0
176
     0
177
     0
178
     0
179
     0
271
     4
272
     4
273
     2
274
     2
275
     0
276
     0
277
     2
278
    46
279
     0
280
     0
281
     0
282
     0
283
     1
284
     0
285
     0
286
     0
288
     0
289
     3
340
17
341
0
342
0
343
0
344
0
371
    -2
372
    -2
  0
ENDTAB
  0
TABLE
  2
BLOCK_RECORD
  5
1
100
AcDbSymbolTable
 70
     0
  0
BLOCK_RECORD
  5
A
100
AcDbSymbolTableRecord
100
AcDbBlockTableRecord
  2
*MODEL_SPACE
340
20
  0
BLOCK_RECORD
  5
B
100
AcDbSymbolTableRecord
100
AcDbBlockTableRecord
  2
*PAPER_SPACE
340
21
  0
ENDTAB
  0
ENDSEC
  0
SECTION
  2
BLOCKS
  0
BLOCK
  5
D
100
AcDbEntity
  8
0
390
0
100
AcDbBlockBegin
  2
*MODEL_SPACE
 70
     0
 10
0.0
 20
0.0
 30
0.0
  3
*MODEL_SPACE
  1

  0
ENDBLK
  5
E
100
AcDbEntity
  8
0
390
0
100
AcDbBlockEnd
  0
BLOCK
  5
F
100
AcDbEntity
 67
     1
  8
0
390
0
100
AcDbBlockBegin
  2
*PAPER_SPACE
 70
     0
 10
0.0
 20
0.0
 30
0.0
  3
*PAPER_SPACE
  1

  0
ENDBLK
  5
10
100
AcDbEntity
 67
     1
  8
0
390
0
100
AcDbBlockEnd
  0
ENDSEC
  0
SECTION
  2
ENTITIES
  0
VIEWPORT
  5
1FB
100
AcDbEntity
 67
     1
  8
0
370
     0
390
0
 62
     0
 48
0.0
100
AcDbViewport
 10
0.0
 20
0.0
 30
0.0
 40
1000.0
 41
1000.0
 68
     1
 69
     1
 12
0.0
 22
0.0
 13
0.0
 23
0.0
 14
1.0
 24
1.0
 15
1.0
 25
1.0
 16
0.0
 26
0.0
 36
1.0
 17
0.0
 27
0.0
 37
0.0
 42
50.0
 43
0.0
 44
0.0
 45
1000.0
 50
0.0
 51
0.0
 72
   100
 90
        0
340
0
  1

281
     0
 71
     0
 74
     1
110
0.0
120
0.0
130
0.0
111
1.0
121
0.0
131
0.0
112
0.0
122
1.0
132
0.0
345
0
346
0
 79
     0
146
0.0
  0
ARC
  5
24
100
AcDbEntity
  8
0
370
    35
390
0
 62
     7
100
AcDbCircle
 10
291.526489
 20
112.26947
 30
0.0
 40
7.0
210
0.0
220
0.0
230
1.0
100
AcDbArc
 50
346.280849
 51
34.306094
  0
CIRCLE
  5
25
100
AcDbEntity
  8
0
370
    35
390
0
 62
     7
100
AcDbCircle
 10
105.0
 20
148.5
 30
0.0
 40
247.5
210
0.0
220
0.0
230
1.0
  0
ARC
  5
26
100
AcDbEntity
  8
0
370
    35
390
0
 62
     7
100
AcDbCircle
 10
105.0
 20
148.5
 30
0.0
 40
228.0
210
0.0
220
0.0
230
1.0
100
AcDbArc
 50
346.280849
 51
348.719151
  0
ARC
  5
27
100
AcDbEntity
  8
0
370
    35
390
0
 62
     7
100
AcDbCircle
 10
335.459839
 20
102.529686
 30
0.0
 40
7.0
210
0.0
220
0.0
230
1.0
100
AcDbArc
 50
348.719151
 51
168.719155
  0
ARC
  5
28
100
AcDbEntity
  8
0
370
    35
390
0
 62
     7
100
AcDbCircle
 10
105.0
 20
148.5
 30
0.0
 40
242.0
210
0.0
220
0.0
230
1.0
100
AcDbArc
 50
346.280849
 51
348.719151
  0
ARC
  5
29
100
AcDbEntity
  8
0
370
    35
390
0
 62
     7
100
AcDbCircle
 10
333.29541
 20
92.766724
 30
0.0
 40
7.0
210
0.0
220
0.0
230
1.0
100
AcDbArc
 50
166.280846
 51
346.280849
  0
CIRCLE
  5
2A
100
AcDbEntity
  8
0
370
    35
390
0
 62
     7
100
AcDbCircle
 10
33.582375
 20
375.007782
 30
0.0
 40
2.0
210
0.0
220
0.0
230
1.0
  0
CIRCLE
  5
2B
100
AcDbEntity
  8
0
370
    35
390
0
 62
     7
100
AcDbCircle
 10
156.404404
 20
380.3703
 30
0.0
 40
2.0
210
0.0
220
0.0
230
1.0
  0
ARC
  5
2C
100
AcDbEntity
  8
0
370
    35
390
0
 62
     7
100
AcDbCircle
 10
105.0
 20
148.5
 30
0.0
 40
195.0
210
0.0
220
0.0
230
1.0
100
AcDbArc
 50
350.469924
 51
164.530077
  0
ARC
  5
2D
100
AcDbEntity
  8
0
370
    35
390
0
 62
     7
100
AcDbCircle
 10
519.821899
 20
56.536194
 30
0.0
 40
228.0
210
0.0
220
0.0
230
1.0
100
AcDbArc
 50
166.280846
 51
168.719155
  0
ARC
  5
2E
100
AcDbEntity
  8
0
370
    35
390
0
 62
     7
100
AcDbCircle
 10
289.362122
 20
102.506508
 30
0.0
 40
7.0
210
0.0
220
0.0
230
1.0
100
AcDbArc
 50
300.693911
 51
348.719151
  0
ARC
  5
2F
100
AcDbEntity
  8
0
370
    35
390
0
 62
     7
100
AcDbCircle
 10
105.0
 20
148.5
 30
0.0
 40
195.0
210
0.0
220
0.0
230
1.0
100
AcDbArc
 50
170.469924
 51
344.530076
  0
ARC
  5
30
100
AcDbEntity
  8
0
370
    35
390
0
 62
     7
100
AcDbCircle
 10
-81.526505
 20
184.73053
 30
0.0
 40
7.0
210
0.0
220
0.0
230
1.0
100
AcDbArc
 50
166.280846
 51
214.306095
  0
ARC
  5
31
100
AcDbEntity
  8
0
370
    35
390
0
 62
     7
100
AcDbCircle
 10
-309.82193
 20
240.463806
 30
0.0
 40
228.0
210
0.0
220
0.0
230
1.0
100
AcDbArc
 50
346.280849
 51
348.719151
  0
ARC
  5
32
100
AcDbEntity
  8
0
370
    35
390
0
 62
     7
100
AcDbCircle
 10
-79.362106
 20
194.4935
 30
0.0
 40
7.0
210
0.0
220
0.0
230
1.0
100
AcDbArc
 50
120.69391
 51
168.719155
  0
CIRCLE
  5
33
100
AcDbEntity
  8
0
370
    35
390
0
 62
     7
100
AcDbCircle
 10
209.355194
 20
348.964447
 30
0.0
 40
2.5
210
0.0
220
0.0
230
1.0
  0
CIRCLE
  5
34
100
AcDbEntity
  8
0
370
    35
390
0
 62
     7
100
AcDbCircle
 10
207.377121
 20
336.014648
 30
0.0
 40
1.5
210
0.0
220
0.0
230
1.0
  0
CIRCLE
  5
35
100
AcDbEntity
  8
0
370
    35
390
0
 62
     7
100
AcDbCircle
 10
199.881882
 20
339.916382
 30
0.0
 40
1.5
210
0.0
220
0.0
230
1.0
  0
CIRCLE
  5
36
100
AcDbEntity
  8
0
370
    35
390
0
 62
     7
100
AcDbCircle
 10
231.460327
 20
319.419128
 30
0.0
 40
2.0
210
0.0
220
0.0
230
1.0
  0
CIRCLE
  5
37
100
AcDbEntity
  8
0
370
    35
390
0
 62
     7
100
AcDbCircle
 10
172.474091
 20
350.125427
 30
0.0
 40
2.0
210
0.0
220
0.0
230
1.0
  0
ARC
  5
38
100
AcDbEntity
  8
0
370
    35
390
0
 62
     7
100
AcDbCircle
 10
216.798874
 20
350.810974
 30
0.0
 40
0.5
210
0.0
220
0.0
230
1.0
100
AcDbArc
 50
152.499997
 51
62.500001
  0
LINE
  5
39
100
AcDbEntity
  8
0
370
    35
390
0
 62
     7
 48
0.05125
100
AcDbLine
 10
214.536987
 20
351.988434
 30
0.0
 11
216.355377
 21
351.04187
 31
0.0
210
0.0
220
0.0
230
1.0
  0
ARC
  5
3A
100
AcDbEntity
  8
0
370
    35
390
0
 62
     7
100
AcDbCircle
 10
214.093491
 20
352.219299
 30
0.0
 40
0.5
210
0.0
220
0.0
230
1.0
100
AcDbArc
 50
62.500001
 51
332.5
  0
LINE
  5
3B
100
AcDbEntity
  8
0
370
    35
390
0
 62
     7
 48
0.101249
100
AcDbLine
 10
216.194443
 20
356.255188
 30
0.0
 11
214.324371
 21
352.662811
 31
0.0
210
0.0
220
0.0
230
1.0
  0
ARC
  5
3C
100
AcDbEntity
  8
0
370
    35
390
0
 62
     7
100
AcDbCircle
 10
216.425323
 20
356.69873
 30
0.0
 40
0.5
210
0.0
220
0.0
230
1.0
100
AcDbArc
 50
332.5
 51
242.499996
  0
LINE
  5
3D
100
AcDbEntity
  8
0
370
    35
390
0
 62
     7
 48
0.05125
100
AcDbLine
 10
216.868835
 20
356.467834
 30
0.0
 11
218.687195
 21
355.52124
 31
0.0
210
0.0
220
0.0
230
1.0
  0
ARC
  5
3E
100
AcDbEntity
  8
0
370
    35
390
0
 62
     7
100
AcDbCircle
 10
219.130707
 20
355.290375
 30
0.0
 40
0.5
210
0.0
220
0.0
230
1.0
100
AcDbArc
 50
242.499996
 51
152.499997
  0
LINE
  5
3F
100
AcDbEntity
  8
0
370
    35
390
0
 62
     7
 48
0.101249
100
AcDbLine
 10
218.899826
 20
354.846863
 30
0.0
 11
217.029755
 21
351.254486
 31
0.0
210
0.0
220
0.0
230
1.0
  0
LINE
  5
40
100
AcDbEntity
  8
0
370
    35
390
0
 62
     7
 48
0.05125
100
AcDbLine
 10
211.191956
 20
359.423035
 30
0.0
 11
209.373581
 21
360.369629
 31
0.0
210
0.0
220
0.0
230
1.0
  0
ARC
  5
41
100
AcDbEntity
  8
0
370
    35
390
0
 62
     7
100
AcDbCircle
 10
211.635468
 20
359.192139
 30
0.0
 40
0.5
210
0.0
220
0.0
230
1.0
100
AcDbArc
 50
242.499996
 51
152.499997
  0
LINE
  5
42
100
AcDbEntity
  8
0
370
    35
390
0
 62
     7
 48
0.10125
100
AcDbLine
 10
211.404587
 20
358.748657
 30
0.0
 11
209.534515
 21
355.15625
 31
0.0
210
0.0
220
0.0
230
1.0
  0
ARC
  5
43
100
AcDbEntity
  8
0
370
    35
390
0
 62
     7
100
AcDbCircle
 10
209.303635
 20
354.712769
 30
0.0
 40
0.5
210
0.0
220
0.0
230
1.0
100
AcDbArc
 50
152.499997
 51
62.500001
  0
LINE
  5
44
100
AcDbEntity
  8
0
370
    35
390
0
 62
     7
 48
0.05125
100
AcDbLine
 10
208.860123
 20
354.943604
 30
0.0
 11
207.041748
 21
355.890198
 31
0.0
210
0.0
220
0.0
230
1.0
  0
ARC
  5
45
100
AcDbEntity
  8
0
370
    35
390
0
 62
     7
100
AcDbCircle
 10
206.598251
 20
356.121094
 30
0.0
 40
0.5
210
0.0
220
0.0
230
1.0
100
AcDbArc
 50
62.500001
 51
332.5
  0
LINE
  5
46
100
AcDbEntity
  8
0
370
    35
390
0
 62
     7
 48
0.10125
100
AcDbLine
 10
208.699203
 20
360.156982
 30
0.0
 11
206.829132
 21
356.564575
 31
0.0
210
0.0
220
0.0
230
1.0
  0
ARC
  5
47
100
AcDbEntity
  8
0
370
    35
390
0
 62
     7
100
AcDbCircle
 10
208.930084
 20
360.600494
 30
0.0
 40
0.5
210
0.0
220
0.0
230
1.0
100
AcDbArc
 50
332.5
 51
242.499996
  0
LINE
  5
48
100
AcDbEntity
  8
0
370
    35
390
0
 62
     7
 48
0.05125
100
AcDbLine
 10
208.07251
 20
339.570282
 30
0.0
 11
209.890884
 21
338.623718
 31
0.0
210
0.0
220
0.0
230
1.0
  0
ARC
  5
49
100
AcDbEntity
  8
0
370
    35
390
0
 62
     7
100
AcDbCircle
 10
207.629013
 20
339.801147
 30
0.0
 40
0.5
210
0.0
220
0.0
230
1.0
100
AcDbArc
 50
62.500001
 51
332.5
  0
LINE
  5
4A
100
AcDbEntity
  8
0
370
    35
390
0
 62
     7
 48
0.101249
100
AcDbLine
 10
207.859894
 20
340.244659
 30
0.0
 11
209.729965
 21
343.837036
 31
0.0
210
0.0
220
0.0
230
1.0
  0
ARC
  5
4B
100
AcDbEntity
  8
0
370
    35
390
0
 62
     7
100
AcDbCircle
 10
209.960846
 20
344.280579
 30
0.0
 40
0.5
210
0.0
220
0.0
230
1.0
100
AcDbArc
 50
332.5
 51
242.499996
  0
LINE
  5
4C
100
AcDbEntity
  8
0
370
    35
390
0
 62
     7
 48
0.05125
100
AcDbLine
 10
210.404343
 20
344.049683
 30
0.0
 11
212.222717
 21
343.103088
 31
0.0
210
0.0
220
0.0
230
1.0
  0
ARC
  5
4D
100
AcDbEntity
  8
0
370
    35
390
0
 62
     7
100
AcDbCircle
 10
212.666229
 20
342.872223
 30
0.0
 40
0.5
210
0.0
220
0.0
230
1.0
100
AcDbArc
 50
242.499996
 51
152.499997
  0
LINE
  5
4E
100
AcDbEntity
  8
0
370
    35
390
0
 62
     7
 48
0.101249
100
AcDbLine
 10
210.565277
 20
338.836334
 30
0.0
 11
212.435349
 21
342.428711
 31
0.0
210
0.0
220
0.0
230
1.0
  0
ARC
  5
4F
100
AcDbEntity
  8
0
370
    35
390
0
 62
     7
100
AcDbCircle
 10
210.334381
 20
338.392822
 30
0.0
 40
0.5
210
0.0
220
0.0
230
1.0
100
AcDbArc
 50
152.499997
 51
62.500001
  0
ARC
  5
50
100
AcDbEntity
  8
0
370
    35
390
0
 62
     7
100
AcDbCircle
 10
202.465607
 20
348.182343
 30
0.0
 40
0.5
210
0.0
220
0.0
230
1.0
100
AcDbArc
 50
332.5
 51
242.499996
  0
LINE
  5
51
100
AcDbEntity
  8
0
370
    35
390
0
 62
     7
 48
0.05125
100
AcDbLine
 10
204.727478
 20
347.004883
 30
0.0
 11
202.909103
 21
347.951477
 31
0.0
210
0.0
220
0.0
230
1.0
  0
ARC
  5
52
100
AcDbEntity
  8
0
370
    35
390
0
 62
     7
100
AcDbCircle
 10
205.17099
 20
346.773987
 30
0.0
 40
0.5
210
0.0
220
0.0
230
1.0
100
AcDbArc
 50
242.499996
 51
152.499997
  0
LINE
  5
53
100
AcDbEntity
  8
0
370
    35
390
0
 62
     7
 48
0.10125
100
AcDbLine
 10
203.070023
 20
342.738098
 30
0.0
 11
204.940109
 21
346.330505
 31
0.0
210
0.0
220
0.0
230
1.0
  0
ARC
  5
54
100
AcDbEntity
  8
0
370
    35
390
0
 62
     7
100
AcDbCircle
 10
202.839142
 20
342.294617
 30
0.0
 40
0.5
210
0.0
220
0.0
230
1.0
100
AcDbArc
 50
152.499997
 51
62.500001
  0
LINE
  5
55
100
AcDbEntity
  8
0
370
    35
390
0
 62
     7
 48
0.05125
100
AcDbLine
 10
202.395645
 20
342.525452
 30
0.0
 11
200.577271
 21
343.472046
 31
0.0
210
0.0
220
0.0
230
1.0
  0
ARC
  5
56
100
AcDbEntity
  8
0
370
    35
390
0
 62
     7
100
AcDbCircle
 10
200.133759
 20
343.702942
 30
0.0
 40
0.5
210
0.0
220
0.0
230
1.0
100
AcDbArc
 50
62.500001
 51
332.5
  0
LINE
  5
57
100
AcDbEntity
  8
0
370
    35
390
0
 62
     7
 48
0.10125
100
AcDbLine
 10
200.364639
 20
344.146423
 30
0.0
 11
202.234726
 21
347.738831
 31
0.0
210
0.0
220
0.0
230
1.0
  0
CIRCLE
  5
58
100
AcDbEntity
  8
0
370
    35
390
0
 62
     7
100
AcDbCircle
 10
95.142021
 20
374.284912
 30
0.0
 40
2.5
210
0.0
220
0.0
230
1.0
  0
CIRCLE
  5
59
100
AcDbEntity
  8
0
370
    35
390
0
 62
     7
100
AcDbCircle
 10
99.903877
 20
362.080994
 30
0.0
 40
1.5
210
0.0
220
0.0
230
1.0
  0
CIRCLE
  5
5A
100
AcDbEntity
  8
0
370
    35
390
0
 62
     7
100
AcDbCircle
 10
91.461922
 20
361.712402
 30
0.0
 40
1.5
210
0.0
220
0.0
230
1.0
  0
CIRCLE
  5
5B
100
AcDbEntity
  8
0
370
    35
390
0
 62
     7
100
AcDbCircle
 10
129.058289
 20
359.750488
 30
0.0
 40
2.0
210
0.0
220
0.0
230
1.0
  0
CIRCLE
  5
5C
100
AcDbEntity
  8
0
370
    35
390
0
 62
     7
100
AcDbCircle
 10
62.621574
 20
356.849792
 30
0.0
 40
2.0
210
0.0
220
0.0
230
1.0
  0
ARC
  5
5D
100
AcDbEntity
  8
0
370
    35
390
0
 62
     7
100
AcDbCircle
 10
100.665176
 20
379.605896
 30
0.0
 40
0.5
210
0.0
220
0.0
230
1.0
100
AcDbArc
 50
182.499994
 51
92.500002
  0
LINE
  5
5E
100
AcDbEntity
  8
0
370
    35
390
0
 62
     7
 48
0.05125
100
AcDbLine
 10
98.117607
 20
379.494629
 30
0.0
 11
100.165649
 21
379.584076
 31
0.0
210
0.0
220
0.0
230
1.0
  0
ARC
  5
5F
100
AcDbEntity
  8
0
370
    35
390
0
 62
     7
100
AcDbCircle
 10
97.61808
 20
379.472839
 30
0.0
 40
0.5
210
0.0
220
0.0
230
1.0
100
AcDbArc
 50
92.500002
 51
2.5
  0
LINE
  5
60
100
AcDbEntity
  8
0
370
    35
390
0
 62
     7
 48
0.10125
100
AcDbLine
 10
97.419609
 20
384.018494
 30
0.0
 11
97.596268
 21
379.972351
 31
0.0
210
0.0
220
0.0
230
1.0
  0
ARC
  5
61
100
AcDbEntity
  8
0
370
    35
390
0
 62
     7
100
AcDbCircle
 10
97.397804
 20
384.518036
 30
0.0
 40
0.5
210
0.0
220
0.0
230
1.0
100
AcDbArc
 50
2.5
 51
272.499997
  0
LINE
  5
62
100
AcDbEntity
  8
0
370
    35
390
0
 62
     7
 48
0.05125
100
AcDbLine
 10
97.897324
 20
384.539856
 30
0.0
 11
99.945374
 21
384.629272
 31
0.0
210
0.0
220
0.0
230
1.0
  0
ARC
  5
63
100
AcDbEntity
  8
0
370
    35
390
0
 62
     7
100
AcDbCircle
 10
100.444901
 20
384.651062
 30
0.0
 40
0.5
210
0.0
220
0.0
230
1.0
100
AcDbArc
 50
272.499997
 51
182.499994
  0
LINE
  5
64
100
AcDbEntity
  8
0
370
    35
390
0
 62
     7
 48
0.10125
100
AcDbLine
 10
100.466705
 20
384.15155
 30
0.0
 11
100.643372
 21
380.105408
 31
0.0
210
0.0
220
0.0
230
1.0
  0
LINE
  5
65
100
AcDbEntity
  8
0
370
    35
390
0
 62
     7
 48
0.05125
100
AcDbLine
 10
91.503418
 20
384.260681
 30
0.0
 11
89.455368
 21
384.171265
 31
0.0
210
0.0
220
0.0
230
1.0
  0
ARC
  5
66
100
AcDbEntity
  8
0
370
    35
390
0
 62
     7
100
AcDbCircle
 10
92.002945
 20
384.282471
 30
0.0
 40
0.5
210
0.0
220
0.0
230
1.0
100
AcDbArc
 50
272.499997
 51
182.499994
  0
LINE
  5
67
100
AcDbEntity
  8
0
370
    35
390
0
 62
     7
 48
0.10125
100
AcDbLine
 10
92.02475
 20
383.782959
 30
0.0
 11
92.201408
 21
379.736816
 31
0.0
210
0.0
220
0.0
230
1.0
  0
ARC
  5
68
100
AcDbEntity
  8
0
370
    35
390
0
 62
     7
100
AcDbCircle
 10
92.223221
 20
379.237305
 30
0.0
 40
0.5
210
0.0
220
0.0
230
1.0
100
AcDbArc
 50
182.499994
 51
92.500002
  0
LINE
  5
69
100
AcDbEntity
  8
0
370
    35
390
0
 62
     7
 48
0.05125
100
AcDbLine
 10
91.723694
 20
379.215485
 30
0.0
 11
89.675644
 21
379.126068
 31
0.0
210
0.0
220
0.0
230
1.0
  0
ARC
  5
6A
100
AcDbEntity
  8
0
370
    35
390
0
 62
     7
100
AcDbCircle
 10
89.176125
 20
379.104248
 30
0.0
 40
0.5
210
0.0
220
0.0
230
1.0
100
AcDbArc
 50
92.500002
 51
2.5
  0
LINE
  5
6B
100
AcDbEntity
  8
0
370
    35
390
0
 62
     7
 48
0.101251
100
AcDbLine
 10
88.977654
 20
383.649933
 30
0.0
 11
89.154312
 21
379.60376
 31
0.0
210
0.0
220
0.0
230
1.0
  0
ARC
  5
6C
100
AcDbEntity
  8
0
370
    35
390
0
 62
     7
100
AcDbCircle
 10
88.955841
 20
384.149445
 30
0.0
 40
0.5
210
0.0
220
0.0
230
1.0
100
AcDbArc
 50
2.5
 51
272.499997
  0
LINE
  5
6D
100
AcDbEntity
  8
0
370
    35
390
0
 62
     7
 48
0.05125
100
AcDbLine
 10
98.728279
 20
365.507996
 30
0.0
 11
100.776321
 21
365.597412
 31
0.0
210
0.0
220
0.0
230
1.0
  0
ARC
  5
6E
100
AcDbEntity
  8
0
370
    35
390
0
 62
     7
100
AcDbCircle
 10
98.228752
 20
365.486145
 30
0.0
 40
0.5
210
0.0
220
0.0
230
1.0
100
AcDbArc
 50
92.500002
 51
2.5
  0
LINE
  5
6F
100
AcDbEntity
  8
0
370
    35
390
0
 62
     7
 48
0.10125
100
AcDbLine
 10
98.20694
 20
365.985687
 30
0.0
 11
98.030281
 21
370.03183
 31
0.0
210
0.0
220
0.0
230
1.0
  0
ARC
  5
70
100
AcDbEntity
  8
0
370
    35
390
0
 62
     7
100
AcDbCircle
 10
98.008476
 20
370.531372
 30
0.0
 40
0.5
210
0.0
220
0.0
230
1.0
100
AcDbArc
 50
2.5
 51
272.499997
  0
LINE
  5
71
100
AcDbEntity
  8
0
370
    35
390
0
 62
     7
 48
0.05125
100
AcDbLine
 10
98.507996
 20
370.553162
 30
0.0
 11
100.556046
 21
370.642578
 31
0.0
210
0.0
220
0.0
230
1.0
  0
ARC
  5
72
100
AcDbEntity
  8
0
370
    35
390
0
 62
     7
100
AcDbCircle
 10
101.055573
 20
370.664398
 30
0.0
 40
0.5
210
0.0
220
0.0
230
1.0
100
AcDbArc
 50
272.499997
 51
182.499994
  0
LINE
  5
73
100
AcDbEntity
  8
0
370
    35
390
0
 62
     7
 48
0.10125
100
AcDbLine
 10
101.254036
 20
366.118713
 30
0.0
 11
101.077377
 21
370.164856
 31
0.0
210
0.0
220
0.0
230
1.0
  0
ARC
  5
74
100
AcDbEntity
  8
0
370
    35
390
0
 62
     7
100
AcDbCircle
 10
101.275848
 20
365.619202
 30
0.0
 40
0.5
210
0.0
220
0.0
230
1.0
100
AcDbArc
 50
182.499994
 51
92.500002
  0
ARC
  5
75
100
AcDbEntity
  8
0
370
    35
390
0
 62
     7
100
AcDbCircle
 10
89.566513
 20
370.162781
 30
0.0
 40
0.5
210
0.0
220
0.0
230
1.0
100
AcDbArc
 50
2.5
 51
272.499997
  0
LINE
  5
76
100
AcDbEntity
  8
0
370
    35
390
0
 62
     7
 48
0.05125
100
AcDbLine
 10
92.11409
 20
370.273987
 30
0.0
 11
90.06604
 21
370.18457
 31
0.0
210
0.0
220
0.0
230
1.0
  0
ARC
  5
77
100
AcDbEntity
  8
0
370
    35
390
0
 62
     7
100
AcDbCircle
 10
92.613617
 20
370.295807
 30
0.0
 40
0.5
210
0.0
220
0.0
230
1.0
100
AcDbArc
 50
272.499997
 51
182.499994
  0
LINE
  5
78
100
AcDbEntity
  8
0
370
    35
390
0
 62
     7
 48
0.101251
100
AcDbLine
 10
92.81208
 20
365.750122
 30
0.0
 11
92.635422
 21
369.796295
 31
0.0
210
0.0
220
0.0
230
1.0
  0
ARC
  5
79
100
AcDbEntity
  8
0
370
    35
390
0
 62
     7
100
AcDbCircle
 10
92.833893
 20
365.25061
 30
0.0
 40
0.5
210
0.0
220
0.0
230
1.0
100
AcDbArc
 50
182.499994
 51
92.500002
  0
LINE
  5
7A
100
AcDbEntity
  8
0
370
    35
390
0
 62
     7
 48
0.05125
100
AcDbLine
 10
92.334366
 20
365.228821
 30
0.0
 11
90.286316
 21
365.139404
 31
0.0
210
0.0
220
0.0
230
1.0
  0
ARC
  5
7B
100
AcDbEntity
  8
0
370
    35
390
0
 62
     7
100
AcDbCircle
 10
89.786797
 20
365.117584
 30
0.0
 40
0.5
210
0.0
220
0.0
230
1.0
100
AcDbArc
 50
92.500002
 51
2.5
  0
LINE
  5
7C
100
AcDbEntity
  8
0
370
    35
390
0
 62
     7
 48
0.10125
100
AcDbLine
 10
89.764984
 20
365.617126
 30
0.0
 11
89.588326
 21
369.663269
 31
0.0
210
0.0
220
0.0
230
1.0
  0
CIRCLE
  5
7D
100
AcDbEntity
  8
0
370
    35
390
0
 62
     7
100
AcDbCircle
 10
-16.42971
 20
339.106445
 30
0.0
 40
2.5
210
0.0
220
0.0
230
1.0
  0
CIRCLE
  5
7E
100
AcDbEntity
  8
0
370
    35
390
0
 62
     7
100
AcDbCircle
 10
-6.203865
 20
330.918518
 30
0.0
 40
1.5
210
0.0
220
0.0
230
1.0
  0
CIRCLE
  5
7F
100
AcDbEntity
  8
0
370
    35
390
0
 62
     7
100
AcDbCircle
 10
-13.330528
 20
326.378326
 30
0.0
 40
1.5
210
0.0
220
0.0
230
1.0
  0
CIRCLE
  5
80
100
AcDbEntity
  8
0
370
    35
390
0
 62
     7
100
AcDbCircle
 10
20.209846
 20
343.477417
 30
0.0
 40
2.0
210
0.0
220
0.0
230
1.0
  0
CIRCLE
  5
81
100
AcDbEntity
  8
0
370
    35
390
0
 62
     7
100
AcDbCircle
 10
-35.875687
 20
307.747009
 30
0.0
 40
2.0
210
0.0
220
0.0
230
1.0
  0
ARC
  5
82
100
AcDbEntity
  8
0
370
    35
390
0
 62
     7
100
AcDbCircle
 10
-14.307007
 20
346.476135
 30
0.0
 40
0.5
210
0.0
220
0.0
230
1.0
100
AcDbArc
 50
212.500002
 51
122.500003
  0
LINE
  5
83
100
AcDbEntity
  8
0
370
    35
390
0
 62
     7
 48
0.051251
100
AcDbLine
 10
-16.457657
 20
345.106018
 30
0.0
 11
-14.728699
 21
346.20752
 31
0.0
210
0.0
220
0.0
230
1.0
  0
ARC
  5
84
100
AcDbEntity
  8
0
370
    35
390
0
 62
     7
100
AcDbCircle
 10
-16.879349
 20
344.837402
 30
0.0
 40
0.5
210
0.0
220
0.0
230
1.0
100
AcDbArc
 50
122.500003
 51
32.5
  0
LINE
  5
85
100
AcDbEntity
  8
0
370
    35
390
0
 62
     7
 48
0.101249
100
AcDbLine
 10
-19.324066
 20
348.674805
 30
0.0
 11
-17.148003
 21
345.259094
 31
0.0
210
0.0
220
0.0
230
1.0
  0
ARC
  5
86
100
AcDbEntity
  8
0
370
    35
390
0
 62
     7
100
AcDbCircle
 10
-19.592712
 20
349.096497
 30
0.0
 40
0.5
210
0.0
220
0.0
230
1.0
100
AcDbArc
 50
32.5
 51
302.500005
  0
LINE
  5
87
100
AcDbEntity
  8
0
370
    35
390
0
 62
     7
 48
0.05125
100
AcDbLine
 10
-19.171021
 20
349.365173
 30
0.0
 11
-17.442062
 21
350.466614
 31
0.0
210
0.0
220
0.0
230
1.0
  0
ARC
  5
88
100
AcDbEntity
  8
0
370
    35
390
0
 62
     7
100
AcDbCircle
 10
-17.02037
 20
350.735291
 30
0.0
 40
0.5
210
0.0
220
0.0
230
1.0
100
AcDbArc
 50
302.500005
 51
212.500002
  0
LINE
  5
89
100
AcDbEntity
  8
0
370
    35
390
0
 62
     7
 48
0.101251
100
AcDbLine
 10
-16.751717
 20
350.313599
 30
0.0
 11
-14.575653
 21
346.897827
 31
0.0
210
0.0
220
0.0
230
1.0
  0
LINE
  5
8A
100
AcDbEntity
  8
0
370
    35
390
0
 62
     7
 48
0.05125
100
AcDbLine
 10
-24.568726
 20
345.926453
 30
0.0
 11
-26.297668
 21
344.824982
 31
0.0
210
0.0
220
0.0
230
1.0
  0
ARC
  5
8B
100
AcDbEntity
  8
0
370
    35
390
0
 62
     7
100
AcDbCircle
 10
-24.147034
 20
346.195099
 30
0.0
 40
0.5
210
0.0
220
0.0
230
1.0
100
AcDbArc
 50
302.500005
 51
212.500002
  0
LINE
  5
8C
100
AcDbEntity
  8
0
370
    35
390
0
 62
     7
 48
0.10125
100
AcDbLine
 10
-23.878372
 20
345.773407
 30
0.0
 11
-21.702316
 21
342.357666
 31
0.0
210
0.0
220
0.0
230
1.0
  0
ARC
  5
8D
100
AcDbEntity
  8
0
370
    35
390
0
 62
     7
100
AcDbCircle
 10
-21.433662
 20
341.935974
 30
0.0
 40
0.5
210
0.0
220
0.0
230
1.0
100
AcDbArc
 50
212.500002
 51
122.500003
  0
LINE
  5
8E
100
AcDbEntity
  8
0
370
    35
390
0
 62
     7
 48
0.051249
100
AcDbLine
 10
-21.855362
 20
341.667297
 30
0.0
 11
-23.584305
 21
340.565857
 31
0.0
210
0.0
220
0.0
230
1.0
  0
ARC
  5
8F
100
AcDbEntity
  8
0
370
    35
390
0
 62
     7
100
AcDbCircle
 10
-24.006012
 20
340.297211
 30
0.0
 40
0.5
210
0.0
220
0.0
230
1.0
100
AcDbArc
 50
122.500003
 51
32.5
  0
LINE
  5
90
100
AcDbEntity
  8
0
370
    35
390
0
 62
     7
 48
0.10125
100
AcDbLine
 10
-26.450714
 20
344.134644
 30
0.0
 11
-24.274658
 21
340.718903
 31
0.0
210
0.0
220
0.0
230
1.0
  0
ARC
  5
91
100
AcDbEntity
  8
0
370
    35
390
0
 62
     7
100
AcDbCircle
 10
-26.719376
 20
344.556335
 30
0.0
 40
0.5
210
0.0
220
0.0
230
1.0
100
AcDbArc
 50
32.5
 51
302.500005
  0
LINE
  5
92
100
AcDbEntity
  8
0
370
    35
390
0
 62
     7
 48
0.05125
100
AcDbLine
 10
-8.935463
 20
333.298553
 30
0.0
 11
-7.206505
 21
334.400024
 31
0.0
210
0.0
220
0.0
230
1.0
  0
ARC
  5
93
100
AcDbEntity
  8
0
370
    35
390
0
 62
     7
100
AcDbCircle
 10
-9.357155
 20
333.029907
 30
0.0
 40
0.5
210
0.0
220
0.0
230
1.0
100
AcDbArc
 50
122.500003
 51
32.5
  0
LINE
  5
94
100
AcDbEntity
  8
0
370
    35
390
0
 62
     7
 48
0.10125
100
AcDbLine
 10
-9.625809
 20
333.451599
 30
0.0
 11
-11.801872
 21
336.86734
 31
0.0
210
0.0
220
0.0
230
1.0
  0
ARC
  5
95
100
AcDbEntity
  8
0
370
    35
390
0
 62
     7
100
AcDbCircle
 10
-12.070518
 20
337.289032
 30
0.0
 40
0.5
210
0.0
220
0.0
230
1.0
100
AcDbArc
 50
32.5
 51
302.500005
  0
LINE
  5
96
100
AcDbEntity
  8
0
370
    35
390
0
 62
     7
 48
0.05125
100
AcDbLine
 10
-11.648827
 20
337.557678
 30
0.0
 11
-9.919868
 21
338.659149
 31
0.0
210
0.0
220
0.0
230
1.0
  0
ARC
  5
97
100
AcDbEntity
  8
0
370
    35
390
0
 62
     7
100
AcDbCircle
 10
-9.498177
 20
338.927795
 30
0.0
 40
0.5
210
0.0
220
0.0
230
1.0
100
AcDbArc
 50
302.500005
 51
212.500002
  0
LINE
  5
98
100
AcDbEntity
  8
0
370
    35
390
0
 62
     7
 48
0.10125
100
AcDbLine
 10
-7.053459
 20
335.090363
 30
0.0
 11
-9.229523
 21
338.506104
 31
0.0
210
0.0
220
0.0
230
1.0
  0
ARC
  5
99
100
AcDbEntity
  8
0
370
    35
390
0
 62
     7
100
AcDbCircle
 10
-6.784813
 20
334.668671
 30
0.0
 40
0.5
210
0.0
220
0.0
230
1.0
100
AcDbArc
 50
212.500002
 51
122.500003
  0
ARC
  5
9A
100
AcDbEntity
  8
0
370
    35
390
0
 62
     7
100
AcDbCircle
 10
-19.197174
 20
332.74884
 30
0.0
 40
0.5
210
0.0
220
0.0
230
1.0
100
AcDbArc
 50
32.5
 51
302.500005
  0
LINE
  5
9B
100
AcDbEntity
  8
0
370
    35
390
0
 62
     7
 48
0.05125
100
AcDbLine
 10
-17.046532
 20
334.118958
 30
0.0
 11
-18.775482
 21
333.017517
 31
0.0
210
0.0
220
0.0
230
1.0
  0
ARC
  5
9C
100
AcDbEntity
  8
0
370
    35
390
0
 62
     7
100
AcDbCircle
 10
-16.624832
 20
334.387634
 30
0.0
 40
0.5
210
0.0
220
0.0
230
1.0
100
AcDbArc
 50
302.500005
 51
212.500002
  0
LINE
  5
9D
100
AcDbEntity
  8
0
370
    35
390
0
 62
     7
 48
0.101251
100
AcDbLine
 10
-14.180122
 20
330.550171
 30
0.0
 11
-16.356186
 21
333.965942
 31
0.0
210
0.0
220
0.0
230
1.0
  0
ARC
  5
9E
100
AcDbEntity
  8
0
370
    35
390
0
 62
     7
100
AcDbCircle
 10
-13.911469
 20
330.128479
 30
0.0
 40
0.5
210
0.0
220
0.0
230
1.0
100
AcDbArc
 50
212.500002
 51
122.500003
  0
LINE
  5
9F
100
AcDbEntity
  8
0
370
    35
390
0
 62
     7
 48
0.05125
100
AcDbLine
 10
-14.333168
 20
329.859833
 30
0.0
 11
-16.062119
 21
328.758362
 31
0.0
210
0.0
220
0.0
230
1.0
  0
ARC
  5
A0
100
AcDbEntity
  8
0
370
    35
390
0
 62
     7
100
AcDbCircle
 10
-16.48381
 20
328.489746
 30
0.0
 40
0.5
210
0.0
220
0.0
230
1.0
100
AcDbArc
 50
122.500003
 51
32.5
  0
LINE
  5
A1
100
AcDbEntity
  8
0
370
    35
390
0
 62
     7
 48
0.101249
100
AcDbLine
 10
-16.752464
 20
328.911438
 30
0.0
 11
-18.928528
 21
332.327148
 31
0.0
210
0.0
220
0.0
230
1.0
  0
CIRCLE
  5
A2
100
AcDbEntity
  8
0
370
    35
390
0
 62
     7
100
AcDbCircle
 10
-95.464447
 20
252.855194
 30
0.0
 40
2.5
210
0.0
220
0.0
230
1.0
  0
CIRCLE
  5
A3
100
AcDbEntity
  8
0
370
    35
390
0
 62
     7
100
AcDbCircle
 10
-82.514633
 20
250.877121
 30
0.0
 40
1.5
210
0.0
220
0.0
230
1.0
  0
CIRCLE
  5
A4
100
AcDbEntity
  8
0
370
    35
390
0
 62
     7
100
AcDbCircle
 10
-86.416397
 20
243.381882
 30
0.0
 40
1.5
210
0.0
220
0.0
230
1.0
  0
CIRCLE
  5
A5
100
AcDbEntity
  8
0
370
    35
390
0
 62
     7
100
AcDbCircle
 10
-65.919128
 20
274.960327
 30
0.0
 40
2.0
210
0.0
220
0.0
230
1.0
  0
CIRCLE
  5
A6
100
AcDbEntity
  8
0
370
    35
390
0
 62
     7
100
AcDbCircle
 10
-96.625412
 20
215.974091
 30
0.0
 40
2.0
210
0.0
220
0.0
230
1.0
  0
ARC
  5
A7
100
AcDbEntity
  8
0
370
    35
390
0
 62
     7
100
AcDbCircle
 10
-97.310974
 20
260.298889
 30
0.0
 40
0.5
210
0.0
220
0.0
230
1.0
100
AcDbArc
 50
242.499996
 51
152.499997
  0
LINE
  5
A8
100
AcDbEntity
  8
0
370
    35
390
0
 62
     7
 48
0.05125
100
AcDbLine
 10
-98.488434
 20
258.036987
 30
0.0
 11
-97.541855
 21
259.855377
 31
0.0
210
0.0
220
0.0
230
1.0
  0
ARC
  5
A9
100
AcDbEntity
  8
0
370
    35
390
0
 62
     7
100
AcDbCircle
 10
-98.719315
 20
257.593506
 30
0.0
 40
0.5
210
0.0
220
0.0
230
1.0
100
AcDbArc
 50
152.499997
 51
62.500001
  0
LINE
  5
AA
100
AcDbEntity
  8
0
370
    35
390
0
 62
     7
 48
0.10125
100
AcDbLine
 10
-102.755203
 20
259.694458
 30
0.0
 11
-99.162811
 21
257.824371
 31
0.0
210
0.0
220
0.0
230
1.0
  0
ARC
  5
AB
100
AcDbEntity
  8
0
370
    35
390
0
 62
     7
100
AcDbCircle
 10
-103.198715
 20
259.925323
 30
0.0
 40
0.5
210
0.0
220
0.0
230
1.0
100
AcDbArc
 50
62.500001
 51
332.5
  0
LINE
  5
AC
100
AcDbEntity
  8
0
370
    35
390
0
 62
     7
 48
0.05125
100
AcDbLine
 10
-102.967834
 20
260.368835
 30
0.0
 11
-102.021255
 21
262.187195
 31
0.0
210
0.0
220
0.0
230
1.0
  0
ARC
  5
AD
100
AcDbEntity
  8
0
370
    35
390
0
 62
     7
100
AcDbCircle
 10
-101.790375
 20
262.630707
 30
0.0
 40
0.5
210
0.0
220
0.0
230
1.0
100
AcDbArc
 50
332.5
 51
242.499996
  0
LINE
  5
AE
100
AcDbEntity
  8
0
370
    35
390
0
 62
     7
 48
0.10125
100
AcDbLine
 10
-101.346878
 20
262.399841
 30
0.0
 11
-97.754486
 21
260.529755
 31
0.0
210
0.0
220
0.0
230
1.0
  0
LINE
  5
AF
100
AcDbEntity
  8
0
370
    35
390
0
 62
     7
 48
0.05125
100
AcDbLine
 10
-105.923035
 20
254.691956
 30
0.0
 11
-106.869614
 21
252.873581
 31
0.0
210
0.0
220
0.0
230
1.0
  0
ARC
  5
B0
100
AcDbEntity
  8
0
370
    35
390
0
 62
     7
100
AcDbCircle
 10
-105.692154
 20
255.135468
 30
0.0
 40
0.5
210
0.0
220
0.0
230
1.0
100
AcDbArc
 50
332.5
 51
242.499996
  0
LINE
  5
B1
100
AcDbEntity
  8
0
370
    35
390
0
 62
     7
 48
0.10125
100
AcDbLine
 10
-105.248642
 20
254.904587
 30
0.0
 11
-101.65625
 21
253.034515
 31
0.0
210
0.0
220
0.0
230
1.0
  0
ARC
  5
B2
100
AcDbEntity
  8
0
370
    35
390
0
 62
     7
100
AcDbCircle
 10
-101.212753
 20
252.803635
 30
0.0
 40
0.5
210
0.0
220
0.0
230
1.0
100
AcDbArc
 50
242.499996
 51
152.499997
  0
LINE
  5
B3
100
AcDbEntity
  8
0
370
    35
390
0
 62
     7
 48
0.05125
100
AcDbLine
 10
-101.443619
 20
252.360123
 30
0.0
 11
-102.390213
 21
250.541748
 31
0.0
210
0.0
220
0.0
230
1.0
  0
ARC
  5
B4
100
AcDbEntity
  8
0
370
    35
390
0
 62
     7
100
AcDbCircle
 10
-102.621078
 20
250.098251
 30
0.0
 40
0.5
210
0.0
220
0.0
230
1.0
100
AcDbArc
 50
152.499997
 51
62.500001
  0
LINE
  5
B5
100
AcDbEntity
  8
0
370
    35
390
0
 62
     7
 48
0.10125
100
AcDbLine
 10
-106.656982
 20
252.199203
 30
0.0
 11
-103.06459
 21
250.329132
 31
0.0
210
0.0
220
0.0
230
1.0
  0
ARC
  5
B6
100
AcDbEntity
  8
0
370
    35
390
0
 62
     7
100
AcDbCircle
 10
-107.100494
 20
252.430084
 30
0.0
 40
0.5
210
0.0
220
0.0
230
1.0
100
AcDbArc
 50
62.500001
 51
332.5
  0
LINE
  5
B7
100
AcDbEntity
  8
0
370
    35
390
0
 62
     7
 48
0.05125
100
AcDbLine
 10
-86.070282
 20
251.57251
 30
0.0
 11
-85.123703
 21
253.390884
 31
0.0
210
0.0
220
0.0
230
1.0
  0
ARC
  5
B8
100
AcDbEntity
  8
0
370
    35
390
0
 62
     7
100
AcDbCircle
 10
-86.301163
 20
251.129013
 30
0.0
 40
0.5
210
0.0
220
0.0
230
1.0
100
AcDbArc
 50
152.499997
 51
62.500001
  0
LINE
  5
B9
100
AcDbEntity
  8
0
370
    35
390
0
 62
     7
 48
0.10125
100
AcDbLine
 10
-86.744659
 20
251.359894
 30
0.0
 11
-90.337051
 21
253.229965
 31
0.0
210
0.0
220
0.0
230
1.0
  0
ARC
  5
BA
100
AcDbEntity
  8
0
370
    35
390
0
 62
     7
100
AcDbCircle
 10
-90.780563
 20
253.460846
 30
0.0
 40
0.5
210
0.0
220
0.0
230
1.0
100
AcDbArc
 50
62.500001
 51
332.5
  0
LINE
  5
BB
100
AcDbEntity
  8
0
370
    35
390
0
 62
     7
 48
0.05125
100
AcDbLine
 10
-90.549683
 20
253.904343
 30
0.0
 11
-89.603104
 21
255.722717
 31
0.0
210
0.0
220
0.0
230
1.0
  0
ARC
  5
BC
100
AcDbEntity
  8
0
370
    35
390
0
 62
     7
100
AcDbCircle
 10
-89.372223
 20
256.166229
 30
0.0
 40
0.5
210
0.0
220
0.0
230
1.0
100
AcDbArc
 50
332.5
 51
242.499996
  0
LINE
  5
BD
100
AcDbEntity
  8
0
370
    35
390
0
 62
     7
 48
0.10125
100
AcDbLine
 10
-85.336334
 20
254.065277
 30
0.0
 11
-88.928726
 21
255.935349
 31
0.0
210
0.0
220
0.0
230
1.0
  0
ARC
  5
BE
100
AcDbEntity
  8
0
370
    35
390
0
 62
     7
100
AcDbCircle
 10
-84.892822
 20
253.834381
 30
0.0
 40
0.5
210
0.0
220
0.0
230
1.0
100
AcDbArc
 50
242.499996
 51
152.499997
  0
ARC
  5
BF
100
AcDbEntity
  8
0
370
    35
390
0
 62
     7
100
AcDbCircle
 10
-94.682343
 20
245.965607
 30
0.0
 40
0.5
210
0.0
220
0.0
230
1.0
100
AcDbArc
 50
62.500001
 51
332.5
  0
LINE
  5
C0
100
AcDbEntity
  8
0
370
    35
390
0
 62
     7
 48
0.05125
100
AcDbLine
 10
-93.504883
 20
248.227478
 30
0.0
 11
-94.451462
 21
246.409103
 31
0.0
210
0.0
220
0.0
230
1.0
  0
ARC
  5
C1
100
AcDbEntity
  8
0
370
    35
390
0
 62
     7
100
AcDbCircle
 10
-93.274002
 20
248.67099
 30
0.0
 40
0.5
210
0.0
220
0.0
230
1.0
100
AcDbArc
 50
332.5
 51
242.499996
  0
LINE
  5
C2
100
AcDbEntity
  8
0
370
    35
390
0
 62
     7
 48
0.10125
100
AcDbLine
 10
-89.238098
 20
246.570023
 30
0.0
 11
-92.83049
 21
248.440109
 31
0.0
210
0.0
220
0.0
230
1.0
  0
ARC
  5
C3
100
AcDbEntity
  8
0
370
    35
390
0
 62
     7
100
AcDbCircle
 10
-88.794601
 20
246.339142
 30
0.0
 40
0.5
210
0.0
220
0.0
230
1.0
100
AcDbArc
 50
242.499996
 51
152.499997
  0
LINE
  5
C4
100
AcDbEntity
  8
0
370
    35
390
0
 62
     7
 48
0.05125
100
AcDbLine
 10
-89.025467
 20
245.895645
 30
0.0
 11
-89.972061
 21
244.077271
 31
0.0
210
0.0
220
0.0
230
1.0
  0
ARC
  5
C5
100
AcDbEntity
  8
0
370
    35
390
0
 62
     7
100
AcDbCircle
 10
-90.202927
 20
243.633759
 30
0.0
 40
0.5
210
0.0
220
0.0
230
1.0
100
AcDbArc
 50
152.499997
 51
62.500001
  0
LINE
  5
C6
100
AcDbEntity
  8
0
370
    35
390
0
 62
     7
 48
0.10125
100
AcDbLine
 10
-90.646439
 20
243.864639
 30
0.0
 11
-94.238831
 21
245.734726
 31
0.0
210
0.0
220
0.0
230
1.0
  0
CIRCLE
  5
C7
100
AcDbEntity
  8
0
370
    35
390
0
 62
     7
100
AcDbCircle
 10
-120.784897
 20
138.642014
 30
0.0
 40
2.5
210
0.0
220
0.0
230
1.0
  0
CIRCLE
  5
C8
100
AcDbEntity
  8
0
370
    35
390
0
 62
     7
100
AcDbCircle
 10
-108.580994
 20
143.403885
 30
0.0
 40
1.5
210
0.0
220
0.0
230
1.0
  0
CIRCLE
  5
C9
100
AcDbEntity
  8
0
370
    35
390
0
 62
     7
100
AcDbCircle
 10
-108.212402
 20
134.961914
 30
0.0
 40
1.5
210
0.0
220
0.0
230
1.0
  0
CIRCLE
  5
CA
100
AcDbEntity
  8
0
370
    35
390
0
 62
     7
100
AcDbCircle
 10
-106.250473
 20
172.558289
 30
0.0
 40
2.0
210
0.0
220
0.0
230
1.0
  0
CIRCLE
  5
CB
100
AcDbEntity
  8
0
370
    35
390
0
 62
     7
100
AcDbCircle
 10
-103.349777
 20
106.121574
 30
0.0
 40
2.0
210
0.0
220
0.0
230
1.0
  0
ARC
  5
CC
100
AcDbEntity
  8
0
370
    35
390
0
 62
     7
100
AcDbCircle
 10
-126.105881
 20
144.165176
 30
0.0
 40
0.5
210
0.0
220
0.0
230
1.0
100
AcDbArc
 50
272.499997
 51
182.499994
  0
LINE
  5
CD
100
AcDbEntity
  8
0
370
    35
390
0
 62
     7
 48
0.05125
100
AcDbLine
 10
-125.994644
 20
141.617599
 30
0.0
 11
-126.084076
 21
143.665649
 31
0.0
210
0.0
220
0.0
230
1.0
  0
ARC
  5
CE
100
AcDbEntity
  8
0
370
    35
390
0
 62
     7
100
AcDbCircle
 10
-125.972839
 20
141.118073
 30
0.0
 40
0.5
210
0.0
220
0.0
230
1.0
100
AcDbArc
 50
182.499994
 51
92.500002
  0
LINE
  5
CF
100
AcDbEntity
  8
0
370
    35
390
0
 62
     7
 48
0.10125
100
AcDbLine
 10
-130.518509
 20
140.919617
 30
0.0
 11
-126.472366
 21
141.096268
 31
0.0
210
0.0
220
0.0
230
1.0
  0
ARC
  5
D0
100
AcDbEntity
  8
0
370
    35
390
0
 62
     7
100
AcDbCircle
 10
-131.018036
 20
140.897797
 30
0.0
 40
0.5
210
0.0
220
0.0
230
1.0
100
AcDbArc
 50
92.500002
 51
2.5
  0
LINE
  5
D1
100
AcDbEntity
  8
0
370
    35
390
0
 62
     7
 48
0.05125
100
AcDbLine
 10
-131.039841
 20
141.397324
 30
0.0
 11
-131.129257
 21
143.445374
 31
0.0
210
0.0
220
0.0
230
1.0
  0
ARC
  5
D2
100
AcDbEntity
  8
0
370
    35
390
0
 62
     7
100
AcDbCircle
 10
-131.151077
 20
143.944901
 30
0.0
 40
0.5
210
0.0
220
0.0
230
1.0
100
AcDbArc
 50
2.5
 51
272.499997
  0
LINE
  5
D3
100
AcDbEntity
  8
0
370
    35
390
0
 62
     7
 48
0.10125
100
AcDbLine
 10
-130.65155
 20
143.966705
 30
0.0
 11
-126.605408
 21
144.143372
 31
0.0
210
0.0
220
0.0
230
1.0
  0
LINE
  5
D4
100
AcDbEntity
  8
0
370
    35
390
0
 62
     7
 48
0.05125
100
AcDbLine
 10
-130.760681
 20
135.003418
 30
0.0
 11
-130.671265
 21
132.955368
 31
0.0
210
0.0
220
0.0
230
1.0
  0
ARC
  5
D5
100
AcDbEntity
  8
0
370
    35
390
0
 62
     7
100
AcDbCircle
 10
-130.782486
 20
135.502945
 30
0.0
 40
0.5
210
0.0
220
0.0
230
1.0
100
AcDbArc
 50
2.5
 51
272.499997
  0
LINE
  5
D6
100
AcDbEntity
  8
0
370
    35
390
0
 62
     7
 48
0.10125
100
AcDbLine
 10
-130.282959
 20
135.52475
 30
0.0
 11
-126.236816
 21
135.701416
 31
0.0
210
0.0
220
0.0
230
1.0
  0
ARC
  5
D7
100
AcDbEntity
  8
0
370
    35
390
0
 62
     7
100
AcDbCircle
 10
-125.737289
 20
135.723221
 30
0.0
 40
0.5
210
0.0
220
0.0
230
1.0
100
AcDbArc
 50
272.499997
 51
182.499994
  0
LINE
  5
D8
100
AcDbEntity
  8
0
370
    35
390
0
 62
     7
 48
0.05125
100
AcDbLine
 10
-125.715485
 20
135.223694
 30
0.0
 11
-125.626068
 21
133.175644
 31
0.0
210
0.0
220
0.0
230
1.0
  0
ARC
  5
D9
100
AcDbEntity
  8
0
370
    35
390
0
 62
     7
100
AcDbCircle
 10
-125.604263
 20
132.676117
 30
0.0
 40
0.5
210
0.0
220
0.0
230
1.0
100
AcDbArc
 50
182.499994
 51
92.500002
  0
LINE
  5
DA
100
AcDbEntity
  8
0
370
    35
390
0
 62
     7
 48
0.10125
100
AcDbLine
 10
-130.149933
 20
132.477661
 30
0.0
 11
-126.103775
 21
132.654312
 31
0.0
210
0.0
220
0.0
230
1.0
  0
ARC
  5
DB
100
AcDbEntity
  8
0
370
    35
390
0
 62
     7
100
AcDbCircle
 10
-130.649445
 20
132.455841
 30
0.0
 40
0.5
210
0.0
220
0.0
230
1.0
100
AcDbArc
 50
92.500002
 51
2.5
  0
LINE
  5
DC
100
AcDbEntity
  8
0
370
    35
390
0
 62
     7
 48
0.05125
100
AcDbLine
 10
-112.00798
 20
142.228271
 30
0.0
 11
-112.097397
 21
144.276321
 31
0.0
210
0.0
220
0.0
230
1.0
  0
ARC
  5
DD
100
AcDbEntity
  8
0
370
    35
390
0
 62
     7
100
AcDbCircle
 10
-111.98616
 20
141.728745
 30
0.0
 40
0.5
210
0.0
220
0.0
230
1.0
100
AcDbArc
 50
182.499994
 51
92.500002
  0
LINE
  5
DE
100
AcDbEntity
  8
0
370
    35
390
0
 62
     7
 48
0.10125
100
AcDbLine
 10
-112.485687
 20
141.70694
 30
0.0
 11
-116.53183
 21
141.530289
 31
0.0
210
0.0
220
0.0
230
1.0
  0
ARC
  5
DF
100
AcDbEntity
  8
0
370
    35
390
0
 62
     7
100
AcDbCircle
 10
-117.031357
 20
141.508469
 30
0.0
 40
0.5
210
0.0
220
0.0
230
1.0
100
AcDbArc
 50
92.500002
 51
2.5
  0
LINE
  5
E0
100
AcDbEntity
  8
0
370
    35
390
0
 62
     7
 48
0.05125
100
AcDbLine
 10
-117.053162
 20
142.007996
 30
0.0
 11
-117.142593
 21
144.056046
 31
0.0
210
0.0
220
0.0
230
1.0
  0
ARC
  5
E1
100
AcDbEntity
  8
0
370
    35
390
0
 62
     7
100
AcDbCircle
 10
-117.164398
 20
144.555573
 30
0.0
 40
0.5
210
0.0
220
0.0
230
1.0
100
AcDbArc
 50
2.5
 51
272.499997
  0
LINE
  5
E2
100
AcDbEntity
  8
0
370
    35
390
0
 62
     7
 48
0.10125
100
AcDbLine
 10
-112.618729
 20
144.754044
 30
0.0
 11
-116.664871
 21
144.577377
 31
0.0
210
0.0
220
0.0
230
1.0
  0
ARC
  5
E3
100
AcDbEntity
  8
0
370
    35
390
0
 62
     7
100
AcDbCircle
 10
-112.119202
 20
144.775848
 30
0.0
 40
0.5
210
0.0
220
0.0
230
1.0
100
AcDbArc
 50
272.499997
 51
182.499994
  0
ARC
  5
E4
100
AcDbEntity
  8
0
370
    35
390
0
 62
     7
100
AcDbCircle
 10
-116.662781
 20
133.066513
 30
0.0
 40
0.5
210
0.0
220
0.0
230
1.0
100
AcDbArc
 50
92.500002
 51
2.5
  0
LINE
  5
E5
100
AcDbEntity
  8
0
370
    35
390
0
 62
     7
 48
0.05125
100
AcDbLine
 10
-116.774002
 20
135.61409
 30
0.0
 11
-116.684586
 21
133.56604
 31
0.0
210
0.0
220
0.0
230
1.0
  0
ARC
  5
E6
100
AcDbEntity
  8
0
370
    35
390
0
 62
     7
100
AcDbCircle
 10
-116.795807
 20
136.113617
 30
0.0
 40
0.5
210
0.0
220
0.0
230
1.0
100
AcDbArc
 50
2.5
 51
272.499997
  0
LINE
  5
E7
100
AcDbEntity
  8
0
370
    35
390
0
 62
     7
 48
0.10125
100
AcDbLine
 10
-112.250137
 20
136.312088
 30
0.0
 11
-116.296295
 21
136.135422
 31
0.0
210
0.0
220
0.0
230
1.0
  0
ARC
  5
E8
100
AcDbEntity
  8
0
370
    35
390
0
 62
     7
100
AcDbCircle
 10
-111.750626
 20
136.333893
 30
0.0
 40
0.5
210
0.0
220
0.0
230
1.0
100
AcDbArc
 50
272.499997
 51
182.499994
  0
LINE
  5
E9
100
AcDbEntity
  8
0
370
    35
390
0
 62
     7
 48
0.05125
100
AcDbLine
 10
-111.728806
 20
135.834366
 30
0.0
 11
-111.639389
 21
133.786316
 31
0.0
210
0.0
220
0.0
230
1.0
  0
ARC
  5
EA
100
AcDbEntity
  8
0
370
    35
390
0
 62
     7
100
AcDbCircle
 10
-111.617584
 20
133.286789
 30
0.0
 40
0.5
210
0.0
220
0.0
230
1.0
100
AcDbArc
 50
182.499994
 51
92.500002
  0
LINE
  5
EB
100
AcDbEntity
  8
0
370
    35
390
0
 62
     7
 48
0.10125
100
AcDbLine
 10
-112.117111
 20
133.264984
 30
0.0
 11
-116.163254
 21
133.088333
 31
0.0
210
0.0
220
0.0
230
1.0
  0
CIRCLE
  5
EC
100
AcDbEntity
  8
0
370
    35
390
0
 62
     7
100
AcDbCircle
 10
-85.606461
 20
27.07029
 30
0.0
 40
2.5
210
0.0
220
0.0
230
1.0
  0
CIRCLE
  5
ED
100
AcDbEntity
  8
0
370
    35
390
0
 62
     7
100
AcDbCircle
 10
-77.418503
 20
37.296135
 30
0.0
 40
1.5
210
0.0
220
0.0
230
1.0
  0
CIRCLE
  5
EE
100
AcDbEntity
  8
0
370
    35
390
0
 62
     7
100
AcDbCircle
 10
-72.878326
 20
30.169472
 30
0.0
 40
1.5
210
0.0
220
0.0
230
1.0
  0
CIRCLE
  5
EF
100
AcDbEntity
  8
0
370
    35
390
0
 62
     7
100
AcDbCircle
 10
-89.977417
 20
63.709846
 30
0.0
 40
2.0
210
0.0
220
0.0
230
1.0
  0
CIRCLE
  5
F0
100
AcDbEntity
  8
0
370
    35
390
0
 62
     7
100
AcDbCircle
 10
-54.246994
 20
7.624313
 30
0.0
 40
2.0
210
0.0
220
0.0
230
1.0
  0
ARC
  5
F1
100
AcDbEntity
  8
0
370
    35
390
0
 62
     7
100
AcDbCircle
 10
-92.976151
 20
29.192993
 30
0.0
 40
0.5
210
0.0
220
0.0
230
1.0
100
AcDbArc
 50
302.500005
 51
212.500002
  0
LINE
  5
F2
100
AcDbEntity
  8
0
370
    35
390
0
 62
     7
 48
0.05125
100
AcDbLine
 10
-91.606033
 20
27.042343
 30
0.0
 11
-92.707504
 21
28.771301
 31
0.0
210
0.0
220
0.0
230
1.0
  0
ARC
  5
F3
100
AcDbEntity
  8
0
370
    35
390
0
 62
     7
100
AcDbCircle
 10
-91.337387
 20
26.620651
 30
0.0
 40
0.5
210
0.0
220
0.0
230
1.0
100
AcDbArc
 50
212.500002
 51
122.500003
  0
LINE
  5
F4
100
AcDbEntity
  8
0
370
    35
390
0
 62
     7
 48
0.10125
100
AcDbLine
 10
-95.17482
 20
24.175934
 30
0.0
 11
-91.759079
 21
26.351997
 31
0.0
210
0.0
220
0.0
230
1.0
  0
ARC
  5
F5
100
AcDbEntity
  8
0
370
    35
390
0
 62
     7
100
AcDbCircle
 10
-95.596512
 20
23.907288
 30
0.0
 40
0.5
210
0.0
220
0.0
230
1.0
100
AcDbArc
 50
122.500003
 51
32.5
  0
LINE
  5
F6
100
AcDbEntity
  8
0
370
    35
390
0
 62
     7
 48
0.05125
100
AcDbLine
 10
-95.865158
 20
24.328979
 30
0.0
 11
-96.966629
 21
26.057938
 31
0.0
210
0.0
220
0.0
230
1.0
  0
ARC
  5
F7
100
AcDbEntity
  8
0
370
    35
390
0
 62
     7
100
AcDbCircle
 10
-97.235275
 20
26.47963
 30
0.0
 40
0.5
210
0.0
220
0.0
230
1.0
100
AcDbArc
 50
32.5
 51
302.500005
  0
LINE
  5
F8
100
AcDbEntity
  8
0
370
    35
390
0
 62
     7
 48
0.10125
100
AcDbLine
 10
-96.813583
 20
26.748283
 30
0.0
 11
-93.397842
 21
28.924347
 31
0.0
210
0.0
220
0.0
230
1.0
  0
LINE
  5
F9
100
AcDbEntity
  8
0
370
    35
390
0
 62
     7
 48
0.05125
100
AcDbLine
 10
-92.426453
 20
18.931274
 30
0.0
 11
-91.324982
 21
17.202332
 31
0.0
210
0.0
220
0.0
230
1.0
  0
ARC
  5
FA
100
AcDbEntity
  8
0
370
    35
390
0
 62
     7
100
AcDbCircle
 10
-92.695099
 20
19.352966
 30
0.0
 40
0.5
210
0.0
220
0.0
230
1.0
100
AcDbArc
 50
32.5
 51
302.500005
  0
LINE
  5
FB
100
AcDbEntity
  8
0
370
    35
390
0
 62
     7
 48
0.10125
100
AcDbLine
 10
-92.273407
 20
19.621628
 30
0.0
 11
-88.857666
 21
21.797684
 31
0.0
210
0.0
220
0.0
230
1.0
  0
ARC
  5
FC
100
AcDbEntity
  8
0
370
    35
390
0
 62
     7
100
AcDbCircle
 10
-88.435974
 20
22.066338
 30
0.0
 40
0.5
210
0.0
220
0.0
230
1.0
100
AcDbArc
 50
302.500005
 51
212.500002
  0
LINE
  5
FD
100
AcDbEntity
  8
0
370
    35
390
0
 62
     7
 48
0.05125
100
AcDbLine
 10
-88.167313
 20
21.644638
 30
0.0
 11
-87.065857
 21
19.915695
 31
0.0
210
0.0
220
0.0
230
1.0
  0
ARC
  5
FE
100
AcDbEntity
  8
0
370
    35
390
0
 62
     7
100
AcDbCircle
 10
-86.797211
 20
19.493988
 30
0.0
 40
0.5
210
0.0
220
0.0
230
1.0
100
AcDbArc
 50
212.500002
 51
122.500003
  0
LINE
  5
FF
100
AcDbEntity
  8
0
370
    35
390
0
 62
     7
 48
0.10125
100
AcDbLine
 10
-90.634644
 20
17.049286
 30
0.0
 11
-87.218903
 21
19.225342
 31
0.0
210
0.0
220
0.0
230
1.0
  0
ARC
  5
100
100
AcDbEntity
  8
0
370
    35
390
0
 62
     7
100
AcDbCircle
 10
-91.056335
 20
16.780624
 30
0.0
 40
0.5
210
0.0
220
0.0
230
1.0
100
AcDbArc
 50
122.500003
 51
32.5
  0
LINE
  5
101
100
AcDbEntity
  8
0
370
    35
390
0
 62
     7
 48
0.05125
100
AcDbLine
 10
-79.798553
 20
34.564537
 30
0.0
 11
-80.900024
 21
36.293495
 31
0.0
210
0.0
220
0.0
230
1.0
  0
ARC
  5
102
100
AcDbEntity
  8
0
370
    35
390
0
 62
     7
100
AcDbCircle
 10
-79.529907
 20
34.142845
 30
0.0
 40
0.5
210
0.0
220
0.0
230
1.0
100
AcDbArc
 50
212.500002
 51
122.500003
  0
LINE
  5
103
100
AcDbEntity
  8
0
370
    35
390
0
 62
     7
 48
0.10125
100
AcDbLine
 10
-79.951599
 20
33.874191
 30
0.0
 11
-83.36734
 21
31.698128
 31
0.0
210
0.0
220
0.0
230
1.0
  0
ARC
  5
104
100
AcDbEntity
  8
0
370
    35
390
0
 62
     7
100
AcDbCircle
 10
-83.789032
 20
31.429482
 30
0.0
 40
0.5
210
0.0
220
0.0
230
1.0
100
AcDbArc
 50
122.500003
 51
32.5
  0
LINE
  5
105
100
AcDbEntity
  8
0
370
    35
390
0
 62
     7
 48
0.05125
100
AcDbLine
 10
-84.057678
 20
31.851173
 30
0.0
 11
-85.159149
 21
33.580132
 31
0.0
210
0.0
220
0.0
230
1.0
  0
ARC
  5
106
100
AcDbEntity
  8
0
370
    35
390
0
 62
     7
100
AcDbCircle
 10
-85.427795
 20
34.001823
 30
0.0
 40
0.5
210
0.0
220
0.0
230
1.0
100
AcDbArc
 50
32.5
 51
302.500005
  0
LINE
  5
107
100
AcDbEntity
  8
0
370
    35
390
0
 62
     7
 48
0.10125
100
AcDbLine
 10
-81.590363
 20
36.446541
 30
0.0
 11
-85.006104
 21
34.270477
 31
0.0
210
0.0
220
0.0
230
1.0
  0
ARC
  5
108
100
AcDbEntity
  8
0
370
    35
390
0
 62
     7
100
AcDbCircle
 10
-81.168671
 20
36.715187
 30
0.0
 40
0.5
210
0.0
220
0.0
230
1.0
100
AcDbArc
 50
302.500005
 51
212.500002
  0
ARC
  5
109
100
AcDbEntity
  8
0
370
    35
390
0
 62
     7
100
AcDbCircle
 10
-79.248856
 20
24.302826
 30
0.0
 40
0.5
210
0.0
220
0.0
230
1.0
100
AcDbArc
 50
122.500003
 51
32.5
  0
LINE
  5
10A
100
AcDbEntity
  8
0
370
    35
390
0
 62
     7
 48
0.05125
100
AcDbLine
 10
-80.618973
 20
26.453468
 30
0.0
 11
-79.517502
 21
24.724518
 31
0.0
210
0.0
220
0.0
230
1.0
  0
ARC
  5
10B
100
AcDbEntity
  8
0
370
    35
390
0
 62
     7
100
AcDbCircle
 10
-80.887619
 20
26.875168
 30
0.0
 40
0.5
210
0.0
220
0.0
230
1.0
100
AcDbArc
 50
32.5
 51
302.500005
  0
LINE
  5
10C
100
AcDbEntity
  8
0
370
    35
390
0
 62
     7
 48
0.10125
100
AcDbLine
 10
-77.050186
 20
29.319878
 30
0.0
 11
-80.465927
 21
27.143814
 31
0.0
210
0.0
220
0.0
230
1.0
  0
ARC
  5
10D
100
AcDbEntity
  8
0
370
    35
390
0
 62
     7
100
AcDbCircle
 10
-76.628494
 20
29.588531
 30
0.0
 40
0.5
210
0.0
220
0.0
230
1.0
100
AcDbArc
 50
302.500005
 51
212.500002
  0
LINE
  5
10E
100
AcDbEntity
  8
0
370
    35
390
0
 62
     7
 48
0.05125
100
AcDbLine
 10
-76.359833
 20
29.166832
 30
0.0
 11
-75.258377
 21
27.437881
 31
0.0
210
0.0
220
0.0
230
1.0
  0
ARC
  5
10F
100
AcDbEntity
  8
0
370
    35
390
0
 62
     7
100
AcDbCircle
 10
-74.989731
 20
27.01619
 30
0.0
 40
0.5
210
0.0
220
0.0
230
1.0
100
AcDbArc
 50
212.500002
 51
122.500003
  0
LINE
  5
110
100
AcDbEntity
  8
0
370
    35
390
0
 62
     7
 48
0.10125
100
AcDbLine
 10
-75.411423
 20
26.747536
 30
0.0
 11
-78.827164
 21
24.571472
 31
0.0
210
0.0
220
0.0
230
1.0
  0
CIRCLE
  5
111
100
AcDbEntity
  8
0
370
    35
390
0
 62
     7
100
AcDbCircle
 10
0.644814
 20
-51.964447
 30
0.0
 40
2.5
210
0.0
220
0.0
230
1.0
  0
CIRCLE
  5
112
100
AcDbEntity
  8
0
370
    35
390
0
 62
     7
100
AcDbCircle
 10
2.622879
 20
-39.014633
 30
0.0
 40
1.5
210
0.0
220
0.0
230
1.0
  0
CIRCLE
  5
113
100
AcDbEntity
  8
0
370
    35
390
0
 62
     7
100
AcDbCircle
 10
10.118118
 20
-42.916397
 30
0.0
 40
1.5
210
0.0
220
0.0
230
1.0
  0
CIRCLE
  5
114
100
AcDbEntity
  8
0
370
    35
390
0
 62
     7
100
AcDbCircle
 10
-21.46032
 20
-22.419128
 30
0.0
 40
2.0
210
0.0
220
0.0
230
1.0
  0
CIRCLE
  5
115
100
AcDbEntity
  8
0
370
    35
390
0
 62
     7
100
AcDbCircle
 10
37.525902
 20
-53.125412
 30
0.0
 40
2.0
210
0.0
220
0.0
230
1.0
  0
ARC
  5
116
100
AcDbEntity
  8
0
370
    35
390
0
 62
     7
100
AcDbCircle
 10
-6.798874
 20
-53.810974
 30
0.0
 40
0.5
210
0.0
220
0.0
230
1.0
100
AcDbArc
 50
332.5
 51
242.499996
  0
LINE
  5
117
100
AcDbEntity
  8
0
370
    35
390
0
 62
     7
 48
0.05125
100
AcDbLine
 10
-4.536995
 20
-54.988434
 30
0.0
 11
-6.35537
 21
-54.041855
 31
0.0
210
0.0
220
0.0
230
1.0
  0
ARC
  5
118
100
AcDbEntity
  8
0
370
    35
390
0
 62
     7
100
AcDbCircle
 10
-4.093491
 20
-55.219315
 30
0.0
 40
0.5
210
0.0
220
0.0
230
1.0
100
AcDbArc
 50
242.499996
 51
152.499997
  0
LINE
  5
119
100
AcDbEntity
  8
0
370
    35
390
0
 62
     7
 48
0.10125
100
AcDbLine
 10
-6.194443
 20
-59.255203
 30
0.0
 11
-4.324364
 21
-55.662811
 31
0.0
210
0.0
220
0.0
230
1.0
  0
ARC
  5
11A
100
AcDbEntity
  8
0
370
    35
390
0
 62
     7
100
AcDbCircle
 10
-6.425323
 20
-59.698715
 30
0.0
 40
0.5
210
0.0
220
0.0
230
1.0
100
AcDbArc
 50
152.499997
 51
62.500001
  0
LINE
  5
11B
100
AcDbEntity
  8
0
370
    35
390
0
 62
     7
 48
0.05125
100
AcDbLine
 10
-6.868828
 20
-59.467834
 30
0.0
 11
-8.687195
 21
-58.521255
 31
0.0
210
0.0
220
0.0
230
1.0
  0
ARC
  5
11C
100
AcDbEntity
  8
0
370
    35
390
0
 62
     7
100
AcDbCircle
 10
-9.130707
 20
-58.290375
 30
0.0
 40
0.5
210
0.0
220
0.0
230
1.0
100
AcDbArc
 50
62.500001
 51
332.5
  0
LINE
  5
11D
100
AcDbEntity
  8
0
370
    35
390
0
 62
     7
 48
0.10125
100
AcDbLine
 10
-8.899826
 20
-57.846878
 30
0.0
 11
-7.029747
 21
-54.254486
 31
0.0
210
0.0
220
0.0
230
1.0
  0
LINE
  5
11E
100
AcDbEntity
  8
0
370
    35
390
0
 62
     7
 48
0.05125
100
AcDbLine
 10
-1.191956
 20
-62.423035
 30
0.0
 11
0.626419
 21
-63.369614
 31
0.0
210
0.0
220
0.0
230
1.0
  0
ARC
  5
11F
100
AcDbEntity
  8
0
370
    35
390
0
 62
     7
100
AcDbCircle
 10
-1.63546
 20
-62.192154
 30
0.0
 40
0.5
210
0.0
220
0.0
230
1.0
100
AcDbArc
 50
62.500001
 51
332.5
  0
LINE
  5
120
100
AcDbEntity
  8
0
370
    35
390
0
 62
     7
 48
0.10125
100
AcDbLine
 10
-1.404587
 20
-61.748642
 30
0.0
 11
0.465492
 21
-58.15625
 31
0.0
210
0.0
220
0.0
230
1.0
  0
ARC
  5
121
100
AcDbEntity
  8
0
370
    35
390
0
 62
     7
100
AcDbCircle
 10
0.696365
 20
-57.712753
 30
0.0
 40
0.5
210
0.0
220
0.0
230
1.0
100
AcDbArc
 50
332.5
 51
242.499996
  0
LINE
  5
122
100
AcDbEntity
  8
0
370
    35
390
0
 62
     7
 48
0.05125
100
AcDbLine
 10
1.139877
 20
-57.943619
 30
0.0
 11
2.958244
 21
-58.890213
 31
0.0
210
0.0
220
0.0
230
1.0
  0
ARC
  5
123
100
AcDbEntity
  8
0
370
    35
390
0
 62
     7
100
AcDbCircle
 10
3.401749
 20
-59.121078
 30
0.0
 40
0.5
210
0.0
220
0.0
230
1.0
100
AcDbArc
 50
242.499996
 51
152.499997
  0
LINE
  5
124
100
AcDbEntity
  8
0
370
    35
390
0
 62
     7
 48
0.10125
100
AcDbLine
 10
1.300797
 20
-63.156982
 30
0.0
 11
3.170876
 21
-59.56459
 31
0.0
210
0.0
220
0.0
230
1.0
  0
ARC
  5
125
100
AcDbEntity
  8
0
370
    35
390
0
 62
     7
100
AcDbCircle
 10
1.069923
 20
-63.600494
 30
0.0
 40
0.5
210
0.0
220
0.0
230
1.0
100
AcDbArc
 50
152.499997
 51
62.500001
  0
LINE
  5
126
100
AcDbEntity
  8
0
370
    35
390
0
 62
     7
 48
0.05125
100
AcDbLine
 10
1.927483
 20
-42.570282
 30
0.0
 11
0.109116
 21
-41.623703
 31
0.0
210
0.0
220
0.0
230
1.0
  0
ARC
  5
127
100
AcDbEntity
  8
0
370
    35
390
0
 62
     7
100
AcDbCircle
 10
2.370987
 20
-42.801163
 30
0.0
 40
0.5
210
0.0
220
0.0
230
1.0
100
AcDbArc
 50
242.499996
 51
152.499997
  0
LINE
  5
128
100
AcDbEntity
  8
0
370
    35
390
0
 62
     7
 48
0.10125
100
AcDbLine
 10
2.140114
 20
-43.244659
 30
0.0
 11
0.270035
 21
-46.837051
 31
0.0
210
0.0
220
0.0
230
1.0
  0
ARC
  5
129
100
AcDbEntity
  8
0
370
    35
390
0
 62
     7
100
AcDbCircle
 10
0.039162
 20
-47.280563
 30
0.0
 40
0.5
210
0.0
220
0.0
230
1.0
100
AcDbArc
 50
152.499997
 51
62.500001
  0
LINE
  5
12A
100
AcDbEntity
  8
0
370
    35
390
0
 62
     7
 48
0.05125
100
AcDbLine
 10
-0.404343
 20
-47.049683
 30
0.0
 11
-2.222717
 21
-46.103104
 31
0.0
210
0.0
220
0.0
230
1.0
  0
ARC
  5
12B
100
AcDbEntity
  8
0
370
    35
390
0
 62
     7
100
AcDbCircle
 10
-2.666222
 20
-45.872223
 30
0.0
 40
0.5
210
0.0
220
0.0
230
1.0
100
AcDbArc
 50
62.500001
 51
332.5
  0
LINE
  5
12C
100
AcDbEntity
  8
0
370
    35
390
0
 62
     7
 48
0.10125
100
AcDbLine
 10
-0.565269
 20
-41.836334
 30
0.0
 11
-2.435349
 21
-45.428726
 31
0.0
210
0.0
220
0.0
230
1.0
  0
ARC
  5
12D
100
AcDbEntity
  8
0
370
    35
390
0
 62
     7
100
AcDbCircle
 10
-0.334389
 20
-41.392822
 30
0.0
 40
0.5
210
0.0
220
0.0
230
1.0
100
AcDbArc
 50
332.5
 51
242.499996
  0
ARC
  5
12E
100
AcDbEntity
  8
0
370
    35
390
0
 62
     7
100
AcDbCircle
 10
7.534401
 20
-51.182343
 30
0.0
 40
0.5
210
0.0
220
0.0
230
1.0
100
AcDbArc
 50
152.499997
 51
62.500001
  0
LINE
  5
12F
100
AcDbEntity
  8
0
370
    35
390
0
 62
     7
 48
0.05125
100
AcDbLine
 10
5.272522
 20
-50.004883
 30
0.0
 11
7.090897
 21
-50.951462
 31
0.0
210
0.0
220
0.0
230
1.0
  0
ARC
  5
130
100
AcDbEntity
  8
0
370
    35
390
0
 62
     7
100
AcDbCircle
 10
4.829018
 20
-49.774002
 30
0.0
 40
0.5
210
0.0
220
0.0
230
1.0
100
AcDbArc
 50
62.500001
 51
332.5
  0
LINE
  5
131
100
AcDbEntity
  8
0
370
    35
390
0
 62
     7
 48
0.10125
100
AcDbLine
 10
6.929977
 20
-45.738098
 30
0.0
 11
5.059891
 21
-49.33049
 31
0.0
210
0.0
220
0.0
230
1.0
  0
ARC
  5
132
100
AcDbEntity
  8
0
370
    35
390
0
 62
     7
100
AcDbCircle
 10
7.160851
 20
-45.294601
 30
0.0
 40
0.5
210
0.0
220
0.0
230
1.0
100
AcDbArc
 50
332.5
 51
242.499996
  0
LINE
  5
133
100
AcDbEntity
  8
0
370
    35
390
0
 62
     7
 48
0.05125
100
AcDbLine
 10
7.604355
 20
-45.525467
 30
0.0
 11
9.422729
 21
-46.472061
 31
0.0
210
0.0
220
0.0
230
1.0
  0
ARC
  5
134
100
AcDbEntity
  8
0
370
    35
390
0
 62
     7
100
AcDbCircle
 10
9.866234
 20
-46.702927
 30
0.0
 40
0.5
210
0.0
220
0.0
230
1.0
100
AcDbArc
 50
242.499996
 51
152.499997
  0
LINE
  5
135
100
AcDbEntity
  8
0
370
    35
390
0
 62
     7
 48
0.10125
100
AcDbLine
 10
9.635361
 20
-47.146439
 30
0.0
 11
7.765274
 21
-50.738831
 31
0.0
210
0.0
220
0.0
230
1.0
  0
CIRCLE
  5
136
100
AcDbEntity
  8
0
370
    35
390
0
 62
     7
100
AcDbCircle
 10
114.857979
 20
-77.284897
 30
0.0
 40
2.5
210
0.0
220
0.0
230
1.0
  0
CIRCLE
  5
137
100
AcDbEntity
  8
0
370
    35
390
0
 62
     7
100
AcDbCircle
 10
110.096123
 20
-65.080994
 30
0.0
 40
1.5
210
0.0
220
0.0
230
1.0
  0
CIRCLE
  5
138
100
AcDbEntity
  8
0
370
    35
390
0
 62
     7
100
AcDbCircle
 10
118.538078
 20
-64.712402
 30
0.0
 40
1.5
210
0.0
220
0.0
230
1.0
  0
CIRCLE
  5
139
100
AcDbEntity
  8
0
370
    35
390
0
 62
     7
100
AcDbCircle
 10
80.941719
 20
-62.750473
 30
0.0
 40
2.0
210
0.0
220
0.0
230
1.0
  0
CIRCLE
  5
13A
100
AcDbEntity
  8
0
370
    35
390
0
 62
     7
100
AcDbCircle
 10
147.378418
 20
-59.849777
 30
0.0
 40
2.0
210
0.0
220
0.0
230
1.0
  0
ARC
  5
13B
100
AcDbEntity
  8
0
370
    35
390
0
 62
     7
100
AcDbCircle
 10
109.334824
 20
-82.605881
 30
0.0
 40
0.5
210
0.0
220
0.0
230
1.0
100
AcDbArc
 50
2.5
 51
272.499997
  0
LINE
  5
13C
100
AcDbEntity
  8
0
370
    35
390
0
 62
     7
 48
0.05125
100
AcDbLine
 10
111.882393
 20
-82.494644
 30
0.0
 11
109.834351
 21
-82.584076
 31
0.0
210
0.0
220
0.0
230
1.0
  0
ARC
  5
13D
100
AcDbEntity
  8
0
370
    35
390
0
 62
     7
100
AcDbCircle
 10
112.38192
 20
-82.472839
 30
0.0
 40
0.5
210
0.0
220
0.0
230
1.0
100
AcDbArc
 50
272.499997
 51
182.499994
  0
LINE
  5
13E
100
AcDbEntity
  8
0
370
    35
390
0
 62
     7
 48
0.10125
100
AcDbLine
 10
112.580391
 20
-87.018509
 30
0.0
 11
112.403732
 21
-82.972366
 31
0.0
210
0.0
220
0.0
230
1.0
  0
ARC
  5
13F
100
AcDbEntity
  8
0
370
    35
390
0
 62
     7
100
AcDbCircle
 10
112.602196
 20
-87.518036
 30
0.0
 40
0.5
210
0.0
220
0.0
230
1.0
100
AcDbArc
 50
182.499994
 51
92.500002
  0
LINE
  5
140
100
AcDbEntity
  8
0
370
    35
390
0
 62
     7
 48
0.05125
100
AcDbLine
 10
112.102676
 20
-87.539841
 30
0.0
 11
110.054626
 21
-87.629257
 31
0.0
210
0.0
220
0.0
230
1.0
  0
ARC
  5
141
100
AcDbEntity
  8
0
370
    35
390
0
 62
     7
100
AcDbCircle
 10
109.555099
 20
-87.651077
 30
0.0
 40
0.5
210
0.0
220
0.0
230
1.0
100
AcDbArc
 50
92.500002
 51
2.5
  0
LINE
  5
142
100
AcDbEntity
  8
0
370
    35
390
0
 62
     7
 48
0.10125
100
AcDbLine
 10
109.533295
 20
-87.15155
 30
0.0
 11
109.356628
 21
-83.105408
 31
0.0
210
0.0
220
0.0
230
1.0
  0
LINE
  5
143
100
AcDbEntity
  8
0
370
    35
390
0
 62
     7
 48
0.05125
100
AcDbLine
 10
118.496582
 20
-87.260681
 30
0.0
 11
120.544632
 21
-87.171265
 31
0.0
210
0.0
220
0.0
230
1.0
  0
ARC
  5
144
100
AcDbEntity
  8
0
370
    35
390
0
 62
     7
100
AcDbCircle
 10
117.997055
 20
-87.282486
 30
0.0
 40
0.5
210
0.0
220
0.0
230
1.0
100
AcDbArc
 50
92.500002
 51
2.5
  0
LINE
  5
145
100
AcDbEntity
  8
0
370
    35
390
0
 62
     7
 48
0.10125
100
AcDbLine
 10
117.97525
 20
-86.782959
 30
0.0
 11
117.798592
 21
-82.736816
 31
0.0
210
0.0
220
0.0
230
1.0
  0
ARC
  5
146
100
AcDbEntity
  8
0
370
    35
390
0
 62
     7
100
AcDbCircle
 10
117.776779
 20
-82.237289
 30
0.0
 40
0.5
210
0.0
220
0.0
230
1.0
100
AcDbArc
 50
2.5
 51
272.499997
  0
LINE
  5
147
100
AcDbEntity
  8
0
370
    35
390
0
 62
     7
 48
0.05125
100
AcDbLine
 10
118.276306
 20
-82.215485
 30
0.0
 11
120.324356
 21
-82.126068
 31
0.0
210
0.0
220
0.0
230
1.0
  0
ARC
  5
148
100
AcDbEntity
  8
0
370
    35
390
0
 62
     7
100
AcDbCircle
 10
120.823875
 20
-82.104263
 30
0.0
 40
0.5
210
0.0
220
0.0
230
1.0
100
AcDbArc
 50
272.499997
 51
182.499994
  0
LINE
  5
149
100
AcDbEntity
  8
0
370
    35
390
0
 62
     7
 48
0.10125
100
AcDbLine
 10
121.022346
 20
-86.649933
 30
0.0
 11
120.845688
 21
-82.603775
 31
0.0
210
0.0
220
0.0
230
1.0
  0
ARC
  5
14A
100
AcDbEntity
  8
0
370
    35
390
0
 62
     7
100
AcDbCircle
 10
121.044159
 20
-87.149445
 30
0.0
 40
0.5
210
0.0
220
0.0
230
1.0
100
AcDbArc
 50
182.499994
 51
92.500002
  0
LINE
  5
14B
100
AcDbEntity
  8
0
370
    35
390
0
 62
     7
 48
0.05125
100
AcDbLine
 10
111.271721
 20
-68.50798
 30
0.0
 11
109.223679
 21
-68.597397
 31
0.0
210
0.0
220
0.0
230
1.0
  0
ARC
  5
14C
100
AcDbEntity
  8
0
370
    35
390
0
 62
     7
100
AcDbCircle
 10
111.771248
 20
-68.48616
 30
0.0
 40
0.5
210
0.0
220
0.0
230
1.0
100
AcDbArc
 50
272.499997
 51
182.499994
  0
LINE
  5
14D
100
AcDbEntity
  8
0
370
    35
390
0
 62
     7
 48
0.10125
100
AcDbLine
 10
111.79306
 20
-68.985687
 30
0.0
 11
111.969719
 21
-73.03183
 31
0.0
210
0.0
220
0.0
230
1.0
  0
ARC
  5
14E
100
AcDbEntity
  8
0
370
    35
390
0
 62
     7
100
AcDbCircle
 10
111.991524
 20
-73.531357
 30
0.0
 40
0.5
210
0.0
220
0.0
230
1.0
100
AcDbArc
 50
182.499994
 51
92.500002
  0
LINE
  5
14F
100
AcDbEntity
  8
0
370
    35
390
0
 62
     7
 48
0.05125
100
AcDbLine
 10
111.492004
 20
-73.553162
 30
0.0
 11
109.443954
 21
-73.642593
 31
0.0
210
0.0
220
0.0
230
1.0
  0
ARC
  5
150
100
AcDbEntity
  8
0
370
    35
390
0
 62
     7
100
AcDbCircle
 10
108.944427
 20
-73.664398
 30
0.0
 40
0.5
210
0.0
220
0.0
230
1.0
100
AcDbArc
 50
92.500002
 51
2.5
  0
LINE
  5
151
100
AcDbEntity
  8
0
370
    35
390
0
 62
     7
 48
0.10125
100
AcDbLine
 10
108.745964
 20
-69.118729
 30
0.0
 11
108.922623
 21
-73.164871
 31
0.0
210
0.0
220
0.0
230
1.0
  0
ARC
  5
152
100
AcDbEntity
  8
0
370
    35
390
0
 62
     7
100
AcDbCircle
 10
108.724152
 20
-68.619202
 30
0.0
 40
0.5
210
0.0
220
0.0
230
1.0
100
AcDbArc
 50
2.5
 51
272.499997
  0
ARC
  5
153
100
AcDbEntity
  8
0
370
    35
390
0
 62
     7
100
AcDbCircle
 10
120.433487
 20
-73.162781
 30
0.0
 40
0.5
210
0.0
220
0.0
230
1.0
100
AcDbArc
 50
182.499994
 51
92.500002
  0
LINE
  5
154
100
AcDbEntity
  8
0
370
    35
390
0
 62
     7
 48
0.05125
100
AcDbLine
 10
117.88591
 20
-73.274002
 30
0.0
 11
119.93396
 21
-73.184586
 31
0.0
210
0.0
220
0.0
230
1.0
  0
ARC
  5
155
100
AcDbEntity
  8
0
370
    35
390
0
 62
     7
100
AcDbCircle
 10
117.386383
 20
-73.295807
 30
0.0
 40
0.5
210
0.0
220
0.0
230
1.0
100
AcDbArc
 50
92.500002
 51
2.5
  0
LINE
  5
156
100
AcDbEntity
  8
0
370
    35
390
0
 62
     7
 48
0.10125
100
AcDbLine
 10
117.18792
 20
-68.750137
 30
0.0
 11
117.364578
 21
-72.796295
 31
0.0
210
0.0
220
0.0
230
1.0
  0
ARC
  5
157
100
AcDbEntity
  8
0
370
    35
390
0
 62
     7
100
AcDbCircle
 10
117.166107
 20
-68.250626
 30
0.0
 40
0.5
210
0.0
220
0.0
230
1.0
100
AcDbArc
 50
2.5
 51
272.499997
  0
LINE
  5
158
100
AcDbEntity
  8
0
370
    35
390
0
 62
     7
 48
0.05125
100
AcDbLine
 10
117.665634
 20
-68.228806
 30
0.0
 11
119.713684
 21
-68.139389
 31
0.0
210
0.0
220
0.0
230
1.0
  0
ARC
  5
159
100
AcDbEntity
  8
0
370
    35
390
0
 62
     7
100
AcDbCircle
 10
120.213203
 20
-68.117584
 30
0.0
 40
0.5
210
0.0
220
0.0
230
1.0
100
AcDbArc
 50
272.499997
 51
182.499994
  0
LINE
  5
15A
100
AcDbEntity
  8
0
370
    35
390
0
 62
     7
 48
0.10125
100
AcDbLine
 10
120.235016
 20
-68.617111
 30
0.0
 11
120.411674
 21
-72.663254
 31
0.0
210
0.0
220
0.0
230
1.0
  0
CIRCLE
  5
15B
100
AcDbEntity
  8
0
370
    35
390
0
 62
     7
100
AcDbCircle
 10
226.429718
 20
-42.106461
 30
0.0
 40
2.5
210
0.0
220
0.0
230
1.0
  0
CIRCLE
  5
15C
100
AcDbEntity
  8
0
370
    35
390
0
 62
     7
100
AcDbCircle
 10
216.203857
 20
-33.918503
 30
0.0
 40
1.5
210
0.0
220
0.0
230
1.0
  0
CIRCLE
  5
15D
100
AcDbEntity
  8
0
370
    35
390
0
 62
     7
100
AcDbCircle
 10
223.330536
 20
-29.378326
 30
0.0
 40
1.5
210
0.0
220
0.0
230
1.0
  0
CIRCLE
  5
15E
100
AcDbEntity
  8
0
370
    35
390
0
 62
     7
100
AcDbCircle
 10
189.790161
 20
-46.477417
 30
0.0
 40
2.0
210
0.0
220
0.0
230
1.0
  0
CIRCLE
  5
15F
100
AcDbEntity
  8
0
370
    35
390
0
 62
     7
100
AcDbCircle
 10
245.875687
 20
-10.746994
 30
0.0
 40
2.0
210
0.0
220
0.0
230
1.0
  0
ARC
  5
160
100
AcDbEntity
  8
0
370
    35
390
0
 62
     7
100
AcDbCircle
 10
224.307007
 20
-49.476151
 30
0.0
 40
0.5
210
0.0
220
0.0
230
1.0
100
AcDbArc
 50
32.5
 51
302.500005
  0
LINE
  5
161
100
AcDbEntity
  8
0
370
    35
390
0
 62
     7
 48
0.05125
100
AcDbLine
 10
226.457657
 20
-48.106033
 30
0.0
 11
224.728699
 21
-49.207504
 31
0.0
210
0.0
220
0.0
230
1.0
  0
ARC
  5
162
100
AcDbEntity
  8
0
370
    35
390
0
 62
     7
100
AcDbCircle
 10
226.879349
 20
-47.837387
 30
0.0
 40
0.5
210
0.0
220
0.0
230
1.0
100
AcDbArc
 50
302.500005
 51
212.500002
  0
LINE
  5
163
100
AcDbEntity
  8
0
370
    35
390
0
 62
     7
 48
0.10125
100
AcDbLine
 10
229.324066
 20
-51.67482
 30
0.0
 11
227.14801
 21
-48.259079
 31
0.0
210
0.0
220
0.0
230
1.0
  0
ARC
  5
164
100
AcDbEntity
  8
0
370
    35
390
0
 62
     7
100
AcDbCircle
 10
229.592712
 20
-52.096512
 30
0.0
 40
0.5
210
0.0
220
0.0
230
1.0
100
AcDbArc
 50
212.500002
 51
122.500003
  0
LINE
  5
165
100
AcDbEntity
  8
0
370
    35
390
0
 62
     7
 48
0.05125
100
AcDbLine
 10
229.171021
 20
-52.365158
 30
0.0
 11
227.442062
 21
-53.466629
 31
0.0
210
0.0
220
0.0
230
1.0
  0
ARC
  5
166
100
AcDbEntity
  8
0
370
    35
390
0
 62
     7
100
AcDbCircle
 10
227.02037
 20
-53.735275
 30
0.0
 40
0.5
210
0.0
220
0.0
230
1.0
100
AcDbArc
 50
122.500003
 51
32.5
  0
LINE
  5
167
100
AcDbEntity
  8
0
370
    35
390
0
 62
     7
 48
0.10125
100
AcDbLine
 10
226.751709
 20
-53.313583
 30
0.0
 11
224.575653
 21
-49.897842
 31
0.0
210
0.0
220
0.0
230
1.0
  0
LINE
  5
168
100
AcDbEntity
  8
0
370
    35
390
0
 62
     7
 48
0.05125
100
AcDbLine
 10
234.568726
 20
-48.926453
 30
0.0
 11
236.297668
 21
-47.824982
 31
0.0
210
0.0
220
0.0
230
1.0
  0
ARC
  5
169
100
AcDbEntity
  8
0
370
    35
390
0
 62
     7
100
AcDbCircle
 10
234.147034
 20
-49.195099
 30
0.0
 40
0.5
210
0.0
220
0.0
230
1.0
100
AcDbArc
 50
122.500003
 51
32.5
  0
LINE
  5
16A
100
AcDbEntity
  8
0
370
    35
390
0
 62
     7
 48
0.10125
100
AcDbLine
 10
233.878372
 20
-48.773407
 30
0.0
 11
231.702316
 21
-45.357666
 31
0.0
210
0.0
220
0.0
230
1.0
  0
ARC
  5
16B
100
AcDbEntity
  8
0
370
    35
390
0
 62
     7
100
AcDbCircle
 10
231.433655
 20
-44.935974
 30
0.0
 40
0.5
210
0.0
220
0.0
230
1.0
100
AcDbArc
 50
32.5
 51
302.500005
  0
LINE
  5
16C
100
AcDbEntity
  8
0
370
    35
390
0
 62
     7
 48
0.05125
100
AcDbLine
 10
231.855362
 20
-44.667313
 30
0.0
 11
233.584305
 21
-43.565857
 31
0.0
210
0.0
220
0.0
230
1.0
  0
ARC
  5
16D
100
AcDbEntity
  8
0
370
    35
390
0
 62
     7
100
AcDbCircle
 10
234.006012
 20
-43.297211
 30
0.0
 40
0.5
210
0.0
220
0.0
230
1.0
100
AcDbArc
 50
302.500005
 51
212.500002
  0
LINE
  5
16E
100
AcDbEntity
  8
0
370
    35
390
0
 62
     7
 48
0.10125
100
AcDbLine
 10
236.450714
 20
-47.134644
 30
0.0
 11
234.274658
 21
-43.718903
 31
0.0
210
0.0
220
0.0
230
1.0
  0
ARC
  5
16F
100
AcDbEntity
  8
0
370
    35
390
0
 62
     7
100
AcDbCircle
 10
236.719376
 20
-47.556335
 30
0.0
 40
0.5
210
0.0
220
0.0
230
1.0
100
AcDbArc
 50
212.500002
 51
122.500003
  0
LINE
  5
170
100
AcDbEntity
  8
0
370
    35
390
0
 62
     7
 48
0.05125
100
AcDbLine
 10
218.935455
 20
-36.298553
 30
0.0
 11
217.206512
 21
-37.400024
 31
0.0
210
0.0
220
0.0
230
1.0
  0
ARC
  5
171
100
AcDbEntity
  8
0
370
    35
390
0
 62
     7
100
AcDbCircle
 10
219.357147
 20
-36.029907
 30
0.0
 40
0.5
210
0.0
220
0.0
230
1.0
100
AcDbArc
 50
302.500005
 51
212.500002
  0
LINE
  5
172
100
AcDbEntity
  8
0
370
    35
390
0
 62
     7
 48
0.10125
100
AcDbLine
 10
219.625809
 20
-36.451599
 30
0.0
 11
221.80188
 21
-39.86734
 31
0.0
210
0.0
220
0.0
230
1.0
  0
ARC
  5
173
100
AcDbEntity
  8
0
370
    35
390
0
 62
     7
100
AcDbCircle
 10
222.070526
 20
-40.289032
 30
0.0
 40
0.5
210
0.0
220
0.0
230
1.0
100
AcDbArc
 50
212.500002
 51
122.500003
  0
LINE
  5
174
100
AcDbEntity
  8
0
370
    35
390
0
 62
     7
 48
0.051251
100
AcDbLine
 10
221.648834
 20
-40.557678
 30
0.0
 11
219.919861
 21
-41.659149
 31
0.0
210
0.0
220
0.0
230
1.0
  0
ARC
  5
175
100
AcDbEntity
  8
0
370
    35
390
0
 62
     7
100
AcDbCircle
 10
219.498169
 20
-41.927795
 30
0.0
 40
0.5
210
0.0
220
0.0
230
1.0
100
AcDbArc
 50
122.500003
 51
32.5
  0
LINE
  5
176
100
AcDbEntity
  8
0
370
    35
390
0
 62
     7
 48
0.10125
100
AcDbLine
 10
217.053467
 20
-38.090363
 30
0.0
 11
219.229523
 21
-41.506104
 31
0.0
210
0.0
220
0.0
230
1.0
  0
ARC
  5
177
100
AcDbEntity
  8
0
370
    35
390
0
 62
     7
100
AcDbCircle
 10
216.784821
 20
-37.668671
 30
0.0
 40
0.5
210
0.0
220
0.0
230
1.0
100
AcDbArc
 50
32.5
 51
302.500005
  0
ARC
  5
178
100
AcDbEntity
  8
0
370
    35
390
0
 62
     7
100
AcDbCircle
 10
229.197174
 20
-35.748856
 30
0.0
 40
0.5
210
0.0
220
0.0
230
1.0
100
AcDbArc
 50
212.500002
 51
122.500003
  0
LINE
  5
179
100
AcDbEntity
  8
0
370
    35
390
0
 62
     7
 48
0.05125
100
AcDbLine
 10
227.046539
 20
-37.118973
 30
0.0
 11
228.775482
 21
-36.017502
 31
0.0
210
0.0
220
0.0
230
1.0
  0
ARC
  5
17A
100
AcDbEntity
  8
0
370
    35
390
0
 62
     7
100
AcDbCircle
 10
226.624832
 20
-37.387619
 30
0.0
 40
0.5
210
0.0
220
0.0
230
1.0
100
AcDbArc
 50
122.500003
 51
32.5
  0
LINE
  5
17B
100
AcDbEntity
  8
0
370
    35
390
0
 62
     7
 48
0.10125
100
AcDbLine
 10
224.180115
 20
-33.550186
 30
0.0
 11
226.356186
 21
-36.965927
 31
0.0
210
0.0
220
0.0
230
1.0
  0
ARC
  5
17C
100
AcDbEntity
  8
0
370
    35
390
0
 62
     7
100
AcDbCircle
 10
223.911469
 20
-33.128494
 30
0.0
 40
0.5
210
0.0
220
0.0
230
1.0
100
AcDbArc
 50
32.5
 51
302.500005
  0
LINE
  5
17D
100
AcDbEntity
  8
0
370
    35
390
0
 62
     7
 48
0.05125
100
AcDbLine
 10
224.33316
 20
-32.859833
 30
0.0
 11
226.062119
 21
-31.758377
 31
0.0
210
0.0
220
0.0
230
1.0
  0
ARC
  5
17E
100
AcDbEntity
  8
0
370
    35
390
0
 62
     7
100
AcDbCircle
 10
226.48381
 20
-31.489731
 30
0.0
 40
0.5
210
0.0
220
0.0
230
1.0
100
AcDbArc
 50
302.500005
 51
212.500002
  0
LINE
  5
17F
100
AcDbEntity
  8
0
370
    35
390
0
 62
     7
 48
0.10125
100
AcDbLine
 10
226.752472
 20
-31.911423
 30
0.0
 11
228.928528
 21
-35.327164
 31
0.0
210
0.0
220
0.0
230
1.0
  0
CIRCLE
  5
180
100
AcDbEntity
  8
0
370
    35
390
0
 62
     7
100
AcDbCircle
 10
305.464447
 20
44.144814
 30
0.0
 40
2.5
210
0.0
220
0.0
230
1.0
  0
CIRCLE
  5
181
100
AcDbEntity
  8
0
370
    35
390
0
 62
     7
100
AcDbCircle
 10
292.514648
 20
46.122879
 30
0.0
 40
1.5
210
0.0
220
0.0
230
1.0
  0
CIRCLE
  5
182
100
AcDbEntity
  8
0
370
    35
390
0
 62
     7
100
AcDbCircle
 10
296.416382
 20
53.618118
 30
0.0
 40
1.5
210
0.0
220
0.0
230
1.0
  0
CIRCLE
  5
183
100
AcDbEntity
  8
0
370
    35
390
0
 62
     7
100
AcDbCircle
 10
275.919128
 20
22.03968
 30
0.0
 40
2.0
210
0.0
220
0.0
230
1.0
  0
CIRCLE
  5
184
100
AcDbEntity
  8
0
370
    35
390
0
 62
     7
100
AcDbCircle
 10
306.625427
 20
81.025902
 30
0.0
 40
2.0
210
0.0
220
0.0
230
1.0
  0
ARC
  5
185
100
AcDbEntity
  8
0
370
    35
390
0
 62
     7
100
AcDbCircle
 10
307.310974
 20
36.701126
 30
0.0
 40
0.5
210
0.0
220
0.0
230
1.0
100
AcDbArc
 50
62.500001
 51
332.5
  0
LINE
  5
186
100
AcDbEntity
  8
0
370
    35
390
0
 62
     7
 48
0.05125
100
AcDbLine
 10
308.488434
 20
38.963005
 30
0.0
 11
307.54187
 21
37.14463
 31
0.0
210
0.0
220
0.0
230
1.0
  0
ARC
  5
187
100
AcDbEntity
  8
0
370
    35
390
0
 62
     7
100
AcDbCircle
 10
308.719299
 20
39.406509
 30
0.0
 40
0.5
210
0.0
220
0.0
230
1.0
100
AcDbArc
 50
332.5
 51
242.499996
  0
LINE
  5
188
100
AcDbEntity
  8
0
370
    35
390
0
 62
     7
 48
0.10125
100
AcDbLine
 10
312.755188
 20
37.305557
 30
0.0
 11
309.162811
 21
39.175636
 31
0.0
210
0.0
220
0.0
230
1.0
  0
ARC
  5
189
100
AcDbEntity
  8
0
370
    35
390
0
 62
     7
100
AcDbCircle
 10
313.19873
 20
37.074677
 30
0.0
 40
0.5
210
0.0
220
0.0
230
1.0
100
AcDbArc
 50
242.499996
 51
152.499997
  0
LINE
  5
18A
100
AcDbEntity
  8
0
370
    35
390
0
 62
     7
 48
0.05125
100
AcDbLine
 10
312.967834
 20
36.631172
 30
0.0
 11
312.02124
 21
34.812805
 31
0.0
210
0.0
220
0.0
230
1.0
  0
ARC
  5
18B
100
AcDbEntity
  8
0
370
    35
390
0
 62
     7
100
AcDbCircle
 10
311.790375
 20
34.369293
 30
0.0
 40
0.5
210
0.0
220
0.0
230
1.0
100
AcDbArc
 50
152.499997
 51
62.500001
  0
LINE
  5
18C
100
AcDbEntity
  8
0
370
    35
390
0
 62
     7
 48
0.10125
100
AcDbLine
 10
311.346863
 20
34.600174
 30
0.0
 11
307.754486
 21
36.470253
 31
0.0
210
0.0
220
0.0
230
1.0
  0
LINE
  5
18D
100
AcDbEntity
  8
0
370
    35
390
0
 62
     7
 48
0.05125
100
AcDbLine
 10
315.923035
 20
42.308044
 30
0.0
 11
316.869629
 21
44.126419
 31
0.0
210
0.0
220
0.0
230
1.0
  0
ARC
  5
18E
100
AcDbEntity
  8
0
370
    35
390
0
 62
     7
100
AcDbCircle
 10
315.692139
 20
41.86454
 30
0.0
 40
0.5
210
0.0
220
0.0
230
1.0
100
AcDbArc
 50
152.499997
 51
62.500001
  0
LINE
  5
18F
100
AcDbEntity
  8
0
370
    35
390
0
 62
     7
 48
0.10125
100
AcDbLine
 10
315.248657
 20
42.095413
 30
0.0
 11
311.65625
 21
43.965492
 31
0.0
210
0.0
220
0.0
230
1.0
  0
ARC
  5
190
100
AcDbEntity
  8
0
370
    35
390
0
 62
     7
100
AcDbCircle
 10
311.212769
 20
44.196365
 30
0.0
 40
0.5
210
0.0
220
0.0
230
1.0
100
AcDbArc
 50
62.500001
 51
332.5
  0
LINE
  5
191
100
AcDbEntity
  8
0
370
    35
390
0
 62
     7
 48
0.05125
100
AcDbLine
 10
311.443604
 20
44.639877
 30
0.0
 11
312.390198
 21
46.458244
 31
0.0
210
0.0
220
0.0
230
1.0
  0
ARC
  5
192
100
AcDbEntity
  8
0
370
    35
390
0
 62
     7
100
AcDbCircle
 10
312.621094
 20
46.901749
 30
0.0
 40
0.5
210
0.0
220
0.0
230
1.0
100
AcDbArc
 50
332.5
 51
242.499996
  0
LINE
  5
193
100
AcDbEntity
  8
0
370
    35
390
0
 62
     7
 48
0.10125
100
AcDbLine
 10
316.656982
 20
44.800797
 30
0.0
 11
313.064575
 21
46.670876
 31
0.0
210
0.0
220
0.0
230
1.0
  0
ARC
  5
194
100
AcDbEntity
  8
0
370
    35
390
0
 62
     7
100
AcDbCircle
 10
317.100494
 20
44.569923
 30
0.0
 40
0.5
210
0.0
220
0.0
230
1.0
100
AcDbArc
 50
242.499996
 51
152.499997
  0
LINE
  5
195
100
AcDbEntity
  8
0
370
    35
390
0
 62
     7
 48
0.05125
100
AcDbLine
 10
296.070282
 20
45.427483
 30
0.0
 11
295.123718
 21
43.609116
 31
0.0
210
0.0
220
0.0
230
1.0
  0
ARC
  5
196
100
AcDbEntity
  8
0
370
    35
390
0
 62
     7
100
AcDbCircle
 10
296.301147
 20
45.870987
 30
0.0
 40
0.5
210
0.0
220
0.0
230
1.0
100
AcDbArc
 50
332.5
 51
242.499996
  0
LINE
  5
197
100
AcDbEntity
  8
0
370
    35
390
0
 62
     7
 48
0.10125
100
AcDbLine
 10
296.744659
 20
45.640114
 30
0.0
 11
300.337036
 21
43.770035
 31
0.0
210
0.0
220
0.0
230
1.0
  0
ARC
  5
198
100
AcDbEntity
  8
0
370
    35
390
0
 62
     7
100
AcDbCircle
 10
300.780579
 20
43.539162
 30
0.0
 40
0.5
210
0.0
220
0.0
230
1.0
100
AcDbArc
 50
242.499996
 51
152.499997
  0
LINE
  5
199
100
AcDbEntity
  8
0
370
    35
390
0
 62
     7
 48
0.05125
100
AcDbLine
 10
300.549683
 20
43.095657
 30
0.0
 11
299.603088
 21
41.277283
 31
0.0
210
0.0
220
0.0
230
1.0
  0
ARC
  5
19A
100
AcDbEntity
  8
0
370
    35
390
0
 62
     7
100
AcDbCircle
 10
299.372223
 20
40.833778
 30
0.0
 40
0.5
210
0.0
220
0.0
230
1.0
100
AcDbArc
 50
152.499997
 51
62.500001
  0
LINE
  5
19B
100
AcDbEntity
  8
0
370
    35
390
0
 62
     7
 48
0.10125
100
AcDbLine
 10
295.336334
 20
42.934731
 30
0.0
 11
298.928711
 21
41.064651
 31
0.0
210
0.0
220
0.0
230
1.0
  0
ARC
  5
19C
100
AcDbEntity
  8
0
370
    35
390
0
 62
     7
100
AcDbCircle
 10
294.892822
 20
43.165611
 30
0.0
 40
0.5
210
0.0
220
0.0
230
1.0
100
AcDbArc
 50
62.500001
 51
332.5
  0
ARC
  5
19D
100
AcDbEntity
  8
0
370
    35
390
0
 62
     7
100
AcDbCircle
 10
304.682343
 20
51.034401
 30
0.0
 40
0.5
210
0.0
220
0.0
230
1.0
100
AcDbArc
 50
242.499996
 51
152.499997
  0
LINE
  5
19E
100
AcDbEntity
  8
0
370
    35
390
0
 62
     7
 48
0.05125
100
AcDbLine
 10
303.504883
 20
48.772522
 30
0.0
 11
304.451477
 21
50.590897
 31
0.0
210
0.0
220
0.0
230
1.0
  0
ARC
  5
19F
100
AcDbEntity
  8
0
370
    35
390
0
 62
     7
100
AcDbCircle
 10
303.273987
 20
48.329018
 30
0.0
 40
0.5
210
0.0
220
0.0
230
1.0
100
AcDbArc
 50
152.499997
 51
62.500001
  0
LINE
  5
1A0
100
AcDbEntity
  8
0
370
    35
390
0
 62
     7
 48
0.10125
100
AcDbLine
 10
299.238098
 20
50.429977
 30
0.0
 11
302.830505
 21
48.559891
 31
0.0
210
0.0
220
0.0
230
1.0
  0
ARC
  5
1A1
100
AcDbEntity
  8
0
370
    35
390
0
 62
     7
100
AcDbCircle
 10
298.794617
 20
50.660851
 30
0.0
 40
0.5
210
0.0
220
0.0
230
1.0
100
AcDbArc
 50
62.500001
 51
332.5
  0
LINE
  5
1A2
100
AcDbEntity
  8
0
370
    35
390
0
 62
     7
 48
0.05125
100
AcDbLine
 10
299.025452
 20
51.104355
 30
0.0
 11
299.972046
 21
52.922729
 31
0.0
210
0.0
220
0.0
230
1.0
  0
ARC
  5
1A3
100
AcDbEntity
  8
0
370
    35
390
0
 62
     7
100
AcDbCircle
 10
300.202942
 20
53.366234
 30
0.0
 40
0.5
210
0.0
220
0.0
230
1.0
100
AcDbArc
 50
332.5
 51
242.499996
  0
LINE
  5
1A4
100
AcDbEntity
  8
0
370
    35
390
0
 62
     7
 48
0.10125
100
AcDbLine
 10
300.646423
 20
53.135361
 30
0.0
 11
304.238831
 21
51.265274
 31
0.0
210
0.0
220
0.0
230
1.0
  0
CIRCLE
  5
1A5
100
AcDbEntity
  8
0
370
    35
390
0
 62
     7
100
AcDbCircle
 10
330.784912
 20
158.357986
 30
0.0
 40
2.5
210
0.0
220
0.0
230
1.0
  0
CIRCLE
  5
1A6
100
AcDbEntity
  8
0
370
    35
390
0
 62
     7
100
AcDbCircle
 10
318.580994
 20
153.596115
 30
0.0
 40
1.5
210
0.0
220
0.0
230
1.0
  0
CIRCLE
  5
1A7
100
AcDbEntity
  8
0
370
    35
390
0
 62
     7
100
AcDbCircle
 10
318.212402
 20
162.038086
 30
0.0
 40
1.5
210
0.0
220
0.0
230
1.0
  0
CIRCLE
  5
1A8
100
AcDbEntity
  8
0
370
    35
390
0
 62
     7
100
AcDbCircle
 10
316.250488
 20
124.441719
 30
0.0
 40
2.0
210
0.0
220
0.0
230
1.0
  0
CIRCLE
  5
1A9
100
AcDbEntity
  8
0
370
    35
390
0
 62
     7
100
AcDbCircle
 10
313.349792
 20
190.878418
 30
0.0
 40
2.0
210
0.0
220
0.0
230
1.0
  0
ARC
  5
1AA
100
AcDbEntity
  8
0
370
    35
390
0
 62
     7
100
AcDbCircle
 10
336.105896
 20
152.834824
 30
0.0
 40
0.5
210
0.0
220
0.0
230
1.0
100
AcDbArc
 50
92.500002
 51
2.5
  0
LINE
  5
1AB
100
AcDbEntity
  8
0
370
    35
390
0
 62
     7
 48
0.05125
100
AcDbLine
 10
335.994629
 20
155.382401
 30
0.0
 11
336.084076
 21
153.334351
 31
0.0
210
0.0
220
0.0
230
1.0
  0
ARC
  5
1AC
100
AcDbEntity
  8
0
370
    35
390
0
 62
     7
100
AcDbCircle
 10
335.972839
 20
155.881927
 30
0.0
 40
0.5
210
0.0
220
0.0
230
1.0
100
AcDbArc
 50
2.5
 51
272.499997
  0
LINE
  5
1AD
100
AcDbEntity
  8
0
370
    35
390
0
 62
     7
 48
0.10125
100
AcDbLine
 10
340.518494
 20
156.080383
 30
0.0
 11
336.472351
 21
155.903732
 31
0.0
210
0.0
220
0.0
230
1.0
  0
ARC
  5
1AE
100
AcDbEntity
  8
0
370
    35
390
0
 62
     7
100
AcDbCircle
 10
341.018036
 20
156.102203
 30
0.0
 40
0.5
210
0.0
220
0.0
230
1.0
100
AcDbArc
 50
272.499997
 51
182.499994
  0
LINE
  5
1AF
100
AcDbEntity
  8
0
370
    35
390
0
 62
     7
 48
0.05125
100
AcDbLine
 10
341.039856
 20
155.602676
 30
0.0
 11
341.129272
 21
153.554626
 31
0.0
210
0.0
220
0.0
230
1.0
  0
ARC
  5
1B0
100
AcDbEntity
  8
0
370
    35
390
0
 62
     7
100
AcDbCircle
 10
341.151062
 20
153.055099
 30
0.0
 40
0.5
210
0.0
220
0.0
230
1.0
100
AcDbArc
 50
182.499994
 51
92.500002
  0
LINE
  5
1B1
100
AcDbEntity
  8
0
370
    35
390
0
 62
     7
 48
0.10125
100
AcDbLine
 10
340.65155
 20
153.033295
 30
0.0
 11
336.605408
 21
152.856628
 31
0.0
210
0.0
220
0.0
230
1.0
  0
LINE
  5
1B2
100
AcDbEntity
  8
0
370
    35
390
0
 62
     7
 48
0.05125
100
AcDbLine
 10
340.760681
 20
161.996582
 30
0.0
 11
340.671265
 21
164.044632
 31
0.0
210
0.0
220
0.0
230
1.0
  0
ARC
  5
1B3
100
AcDbEntity
  8
0
370
    35
390
0
 62
     7
100
AcDbCircle
 10
340.782471
 20
161.497055
 30
0.0
 40
0.5
210
0.0
220
0.0
230
1.0
100
AcDbArc
 50
182.499994
 51
92.500002
  0
LINE
  5
1B4
100
AcDbEntity
  8
0
370
    35
390
0
 62
     7
 48
0.10125
100
AcDbLine
 10
340.282959
 20
161.47525
 30
0.0
 11
336.236816
 21
161.298584
 31
0.0
210
0.0
220
0.0
230
1.0
  0
ARC
  5
1B5
100
AcDbEntity
  8
0
370
    35
390
0
 62
     7
100
AcDbCircle
 10
335.737305
 20
161.276779
 30
0.0
 40
0.5
210
0.0
220
0.0
230
1.0
100
AcDbArc
 50
92.500002
 51
2.5
  0
LINE
  5
1B6
100
AcDbEntity
  8
0
370
    35
390
0
 62
     7
 48
0.05125
100
AcDbLine
 10
335.715485
 20
161.776306
 30
0.0
 11
335.626068
 21
163.824356
 31
0.0
210
0.0
220
0.0
230
1.0
  0
ARC
  5
1B7
100
AcDbEntity
  8
0
370
    35
390
0
 62
     7
100
AcDbCircle
 10
335.604248
 20
164.323883
 30
0.0
 40
0.5
210
0.0
220
0.0
230
1.0
100
AcDbArc
 50
2.5
 51
272.499997
  0
LINE
  5
1B8
100
AcDbEntity
  8
0
370
    35
390
0
 62
     7
 48
0.101251
100
AcDbLine
 10
340.149933
 20
164.522339
 30
0.0
 11
336.10376
 21
164.345688
 31
0.0
210
0.0
220
0.0
230
1.0
  0
ARC
  5
1B9
100
AcDbEntity
  8
0
370
    35
390
0
 62
     7
100
AcDbCircle
 10
340.649445
 20
164.544159
 30
0.0
 40
0.5
210
0.0
220
0.0
230
1.0
100
AcDbArc
 50
272.499997
 51
182.499994
  0
LINE
  5
1BA
100
AcDbEntity
  8
0
370
    35
390
0
 62
     7
 48
0.05125
100
AcDbLine
 10
322.007996
 20
154.771729
 30
0.0
 11
322.097412
 21
152.723679
 31
0.0
210
0.0
220
0.0
230
1.0
  0
ARC
  5
1BB
100
AcDbEntity
  8
0
370
    35
390
0
 62
     7
100
AcDbCircle
 10
321.986145
 20
155.271255
 30
0.0
 40
0.5
210
0.0
220
0.0
230
1.0
100
AcDbArc
 50
2.5
 51
272.499997
  0
LINE
  5
1BC
100
AcDbEntity
  8
0
370
    35
390
0
 62
     7
 48
0.10125
100
AcDbLine
 10
322.485687
 20
155.29306
 30
0.0
 11
326.53183
 21
155.469711
 31
0.0
210
0.0
220
0.0
230
1.0
  0
ARC
  5
1BD
100
AcDbEntity
  8
0
370
    35
390
0
 62
     7
100
AcDbCircle
 10
327.031372
 20
155.491531
 30
0.0
 40
0.5
210
0.0
220
0.0
230
1.0
100
AcDbArc
 50
272.499997
 51
182.499994
  0
LINE
  5
1BE
100
AcDbEntity
  8
0
370
    35
390
0
 62
     7
 48
0.05125
100
AcDbLine
 10
327.053162
 20
154.992004
 30
0.0
 11
327.142578
 21
152.943954
 31
0.0
210
0.0
220
0.0
230
1.0
  0
ARC
  5
1BF
100
AcDbEntity
  8
0
370
    35
390
0
 62
     7
100
AcDbCircle
 10
327.164398
 20
152.444427
 30
0.0
 40
0.5
210
0.0
220
0.0
230
1.0
100
AcDbArc
 50
182.499994
 51
92.500002
  0
LINE
  5
1C0
100
AcDbEntity
  8
0
370
    35
390
0
 62
     7
 48
0.10125
100
AcDbLine
 10
322.618713
 20
152.245956
 30
0.0
 11
326.664856
 21
152.422623
 31
0.0
210
0.0
220
0.0
230
1.0
  0
ARC
  5
1C1
100
AcDbEntity
  8
0
370
    35
390
0
 62
     7
100
AcDbCircle
 10
322.119202
 20
152.224152
 30
0.0
 40
0.5
210
0.0
220
0.0
230
1.0
100
AcDbArc
 50
92.500002
 51
2.5
  0
ARC
  5
1C2
100
AcDbEntity
  8
0
370
    35
390
0
 62
     7
100
AcDbCircle
 10
326.662781
 20
163.933487
 30
0.0
 40
0.5
210
0.0
220
0.0
230
1.0
100
AcDbArc
 50
272.499997
 51
182.499994
  0
LINE
  5
1C3
100
AcDbEntity
  8
0
370
    35
390
0
 62
     7
 48
0.05125
100
AcDbLine
 10
326.773987
 20
161.38591
 30
0.0
 11
326.68457
 21
163.43396
 31
0.0
210
0.0
220
0.0
230
1.0
  0
ARC
  5
1C4
100
AcDbEntity
  8
0
370
    35
390
0
 62
     7
100
AcDbCircle
 10
326.795807
 20
160.886383
 30
0.0
 40
0.5
210
0.0
220
0.0
230
1.0
100
AcDbArc
 50
182.499994
 51
92.500002
  0
LINE
  5
1C5
100
AcDbEntity
  8
0
370
    35
390
0
 62
     7
 48
0.101251
100
AcDbLine
 10
322.250122
 20
160.687912
 30
0.0
 11
326.296295
 21
160.864578
 31
0.0
210
0.0
220
0.0
230
1.0
  0
ARC
  5
1C6
100
AcDbEntity
  8
0
370
    35
390
0
 62
     7
100
AcDbCircle
 10
321.75061
 20
160.666107
 30
0.0
 40
0.5
210
0.0
220
0.0
230
1.0
100
AcDbArc
 50
92.500002
 51
2.5
  0
LINE
  5
1C7
100
AcDbEntity
  8
0
370
    35
390
0
 62
     7
 48
0.05125
100
AcDbLine
 10
321.728821
 20
161.165634
 30
0.0
 11
321.639404
 21
163.213684
 31
0.0
210
0.0
220
0.0
230
1.0
  0
ARC
  5
1C8
100
AcDbEntity
  8
0
370
    35
390
0
 62
     7
100
AcDbCircle
 10
321.617584
 20
163.713211
 30
0.0
 40
0.5
210
0.0
220
0.0
230
1.0
100
AcDbArc
 50
2.5
 51
272.499997
  0
LINE
  5
1C9
100
AcDbEntity
  8
0
370
    35
390
0
 62
     7
 48
0.10125
100
AcDbLine
 10
322.117126
 20
163.735016
 30
0.0
 11
326.163269
 21
163.911667
 31
0.0
210
0.0
220
0.0
230
1.0
  0
CIRCLE
  5
1CA
100
AcDbEntity
  8
0
370
    35
390
0
 62
     7
100
AcDbCircle
 10
295.606445
 20
269.929718
 30
0.0
 40
2.5
210
0.0
220
0.0
230
1.0
  0
CIRCLE
  5
1CB
100
AcDbEntity
  8
0
370
    35
390
0
 62
     7
100
AcDbCircle
 10
287.418518
 20
259.703857
 30
0.0
 40
1.5
210
0.0
220
0.0
230
1.0
  0
CIRCLE
  5
1CC
100
AcDbEntity
  8
0
370
    35
390
0
 62
     7
100
AcDbCircle
 10
282.878326
 20
266.830536
 30
0.0
 40
1.5
210
0.0
220
0.0
230
1.0
  0
CIRCLE
  5
1CD
100
AcDbEntity
  8
0
370
    35
390
0
 62
     7
100
AcDbCircle
 10
299.977417
 20
233.290161
 30
0.0
 40
2.0
210
0.0
220
0.0
230
1.0
  0
CIRCLE
  5
1CE
100
AcDbEntity
  8
0
370
    35
390
0
 62
     7
100
AcDbCircle
 10
264.247009
 20
289.375671
 30
0.0
 40
2.0
210
0.0
220
0.0
230
1.0
  0
ARC
  5
1CF
100
AcDbEntity
  8
0
370
    35
390
0
 62
     7
100
AcDbCircle
 10
302.976135
 20
267.807007
 30
0.0
 40
0.5
210
0.0
220
0.0
230
1.0
100
AcDbArc
 50
122.500003
 51
32.5
  0
LINE
  5
1D0
100
AcDbEntity
  8
0
370
    35
390
0
 62
     7
 48
0.05125
100
AcDbLine
 10
301.606018
 20
269.957642
 30
0.0
 11
302.70752
 21
268.228699
 31
0.0
210
0.0
220
0.0
230
1.0
  0
ARC
  5
1D1
100
AcDbEntity
  8
0
370
    35
390
0
 62
     7
100
AcDbCircle
 10
301.337402
 20
270.379333
 30
0.0
 40
0.5
210
0.0
220
0.0
230
1.0
100
AcDbArc
 50
32.5
 51
302.500005
  0
LINE
  5
1D2
100
AcDbEntity
  8
0
370
    35
390
0
 62
     7
 48
0.101249
100
AcDbLine
 10
305.174805
 20
272.824066
 30
0.0
 11
301.759094
 21
270.64801
 31
0.0
210
0.0
220
0.0
230
1.0
  0
ARC
  5
1D3
100
AcDbEntity
  8
0
370
    35
390
0
 62
     7
100
AcDbCircle
 10
305.596497
 20
273.092712
 30
0.0
 40
0.5
210
0.0
220
0.0
230
1.0
100
AcDbArc
 50
302.500005
 51
212.500002
  0
LINE
  5
1D4
100
AcDbEntity
  8
0
370
    35
390
0
 62
     7
 48
0.051249
100
AcDbLine
 10
305.865173
 20
272.671021
 30
0.0
 11
306.966614
 21
270.942078
 31
0.0
210
0.0
220
0.0
230
1.0
  0
ARC
  5
1D5
100
AcDbEntity
  8
0
370
    35
390
0
 62
     7
100
AcDbCircle
 10
307.235291
 20
270.520386
 30
0.0
 40
0.5
210
0.0
220
0.0
230
1.0
100
AcDbArc
 50
212.500002
 51
122.500003
  0
LINE
  5
1D6
100
AcDbEntity
  8
0
370
    35
390
0
 62
     7
 48
0.101251
100
AcDbLine
 10
306.813599
 20
270.251709
 30
0.0
 11
303.397827
 21
268.075653
 31
0.0
210
0.0
220
0.0
230
1.0
  0
LINE
  5
1D7
100
AcDbEntity
  8
0
370
    35
390
0
 62
     7
 48
0.05125
100
AcDbLine
 10
302.426453
 20
278.068726
 30
0.0
 11
301.324982
 21
279.797668
 31
0.0
210
0.0
220
0.0
230
1.0
  0
ARC
  5
1D8
100
AcDbEntity
  8
0
370
    35
390
0
 62
     7
100
AcDbCircle
 10
302.695099
 20
277.647034
 30
0.0
 40
0.5
210
0.0
220
0.0
230
1.0
100
AcDbArc
 50
212.500002
 51
122.500003
  0
LINE
  5
1D9
100
AcDbEntity
  8
0
370
    35
390
0
 62
     7
 48
0.10125
100
AcDbLine
 10
302.273407
 20
277.378357
 30
0.0
 11
298.857666
 21
275.202332
 31
0.0
210
0.0
220
0.0
230
1.0
  0
ARC
  5
1DA
100
AcDbEntity
  8
0
370
    35
390
0
 62
     7
100
AcDbCircle
 10
298.435974
 20
274.933655
 30
0.0
 40
0.5
210
0.0
220
0.0
230
1.0
100
AcDbArc
 50
122.500003
 51
32.5
  0
LINE
  5
1DB
100
AcDbEntity
  8
0
370
    35
390
0
 62
     7
 48
0.051249
100
AcDbLine
 10
298.167297
 20
275.355347
 30
0.0
 11
297.065857
 21
277.08429
 31
0.0
210
0.0
220
0.0
230
1.0
  0
ARC
  5
1DC
100
AcDbEntity
  8
0
370
    35
390
0
 62
     7
100
AcDbCircle
 10
296.797211
 20
277.506012
 30
0.0
 40
0.5
210
0.0
220
0.0
230
1.0
100
AcDbArc
 50
32.5
 51
302.500005
  0
LINE
  5
1DD
100
AcDbEntity
  8
0
370
    35
390
0
 62
     7
 48
0.10125
100
AcDbLine
 10
300.634644
 20
279.950714
 30
0.0
 11
297.218903
 21
277.774658
 31
0.0
210
0.0
220
0.0
230
1.0
  0
ARC
  5
1DE
100
AcDbEntity
  8
0
370
    35
390
0
 62
     7
100
AcDbCircle
 10
301.056335
 20
280.21936
 30
0.0
 40
0.5
210
0.0
220
0.0
230
1.0
100
AcDbArc
 50
302.500005
 51
212.500002
  0
LINE
  5
1DF
100
AcDbEntity
  8
0
370
    35
390
0
 62
     7
 48
0.05125
100
AcDbLine
 10
289.798553
 20
262.435455
 30
0.0
 11
290.900024
 21
260.706512
 31
0.0
210
0.0
220
0.0
230
1.0
  0
ARC
  5
1E0
100
AcDbEntity
  8
0
370
    35
390
0
 62
     7
100
AcDbCircle
 10
289.529907
 20
262.857147
 30
0.0
 40
0.5
210
0.0
220
0.0
230
1.0
100
AcDbArc
 50
32.5
 51
302.500005
  0
LINE
  5
1E1
100
AcDbEntity
  8
0
370
    35
390
0
 62
     7
 48
0.10125
100
AcDbLine
 10
289.951599
 20
263.125793
 30
0.0
 11
293.36734
 21
265.30188
 31
0.0
210
0.0
220
0.0
230
1.0
  0
ARC
  5
1E2
100
AcDbEntity
  8
0
370
    35
390
0
 62
     7
100
AcDbCircle
 10
293.789032
 20
265.570526
 30
0.0
 40
0.5
210
0.0
220
0.0
230
1.0
100
AcDbArc
 50
302.500005
 51
212.500002
  0
LINE
  5
1E3
100
AcDbEntity
  8
0
370
    35
390
0
 62
     7
 48
0.051251
100
AcDbLine
 10
294.057678
 20
265.148834
 30
0.0
 11
295.159149
 21
263.419861
 31
0.0
210
0.0
220
0.0
230
1.0
  0
ARC
  5
1E4
100
AcDbEntity
  8
0
370
    35
390
0
 62
     7
100
AcDbCircle
 10
295.427795
 20
262.998169
 30
0.0
 40
0.5
210
0.0
220
0.0
230
1.0
100
AcDbArc
 50
212.500002
 51
122.500003
  0
LINE
  5
1E5
100
AcDbEntity
  8
0
370
    35
390
0
 62
     7
 48
0.10125
100
AcDbLine
 10
291.590363
 20
260.553467
 30
0.0
 11
295.006104
 21
262.729523
 31
0.0
210
0.0
220
0.0
230
1.0
  0
ARC
  5
1E6
100
AcDbEntity
  8
0
370
    35
390
0
 62
     7
100
AcDbCircle
 10
291.168671
 20
260.284821
 30
0.0
 40
0.5
210
0.0
220
0.0
230
1.0
100
AcDbArc
 50
122.500003
 51
32.5
  0
ARC
  5
1E7
100
AcDbEntity
  8
0
370
    35
390
0
 62
     7
100
AcDbCircle
 10
289.24884
 20
272.697174
 30
0.0
 40
0.5
210
0.0
220
0.0
230
1.0
100
AcDbArc
 50
302.500005
 51
212.500002
  0
LINE
  5
1E8
100
AcDbEntity
  8
0
370
    35
390
0
 62
     7
 48
0.051249
100
AcDbLine
 10
290.618958
 20
270.546539
 30
0.0
 11
289.517517
 21
272.275482
 31
0.0
210
0.0
220
0.0
230
1.0
  0
ARC
  5
1E9
100
AcDbEntity
  8
0
370
    35
390
0
 62
     7
100
AcDbCircle
 10
290.887634
 20
270.124817
 30
0.0
 40
0.5
210
0.0
220
0.0
230
1.0
100
AcDbArc
 50
212.500002
 51
122.500003
  0
LINE
  5
1EA
100
AcDbEntity
  8
0
370
    35
390
0
 62
     7
 48
0.101251
100
AcDbLine
 10
287.050171
 20
267.680115
 30
0.0
 11
290.465942
 21
269.856201
 31
0.0
210
0.0
220
0.0
230
1.0
  0
ARC
  5
1EB
100
AcDbEntity
  8
0
370
    35
390
0
 62
     7
100
AcDbCircle
 10
286.628479
 20
267.411469
 30
0.0
 40
0.5
210
0.0
220
0.0
230
1.0
100
AcDbArc
 50
122.500003
 51
32.5
  0
LINE
  5
1EC
100
AcDbEntity
  8
0
370
    35
390
0
 62
     7
 48
0.051251
100
AcDbLine
 10
286.359833
 20
267.83316
 30
0.0
 11
285.258362
 21
269.562134
 31
0.0
210
0.0
220
0.0
230
1.0
  0
ARC
  5
1ED
100
AcDbEntity
  8
0
370
    35
390
0
 62
     7
100
AcDbCircle
 10
284.989746
 20
269.983826
 30
0.0
 40
0.5
210
0.0
220
0.0
230
1.0
100
AcDbArc
 50
32.5
 51
302.500005
  0
LINE
  5
1EE
100
AcDbEntity
  8
0
370
    35
390
0
 62
     7
 48
0.101249
100
AcDbLine
 10
285.411438
 20
270.252472
 30
0.0
 11
288.827148
 21
272.428528
 31
0.0
210
0.0
220
0.0
230
1.0
  0
CIRCLE
  5
1EF
100
AcDbEntity
  8
0
370
    35
390
0
 62
     7
100
AcDbCircle
 10
-70.103363
 20
308.952667
 30
0.0
 40
2.0
210
0.0
220
0.0
230
1.0
  0
CIRCLE
  5
1F0
100
AcDbEntity
  8
0
370
    35
390
0
 62
     7
100
AcDbCircle
 10
-55.452667
 20
-26.603363
 30
0.0
 40
2.0
210
0.0
220
0.0
230
1.0
  0
CIRCLE
  5
1F1
100
AcDbEntity
  8
0
370
    35
390
0
 62
     7
100
AcDbCircle
 10
53.595592
 20
-83.3703
 30
0.0
 40
2.0
210
0.0
220
0.0
230
1.0
  0
CIRCLE
  5
1F2
100
AcDbEntity
  8
0
370
    35
390
0
 62
     7
100
AcDbCircle
 10
280.103363
 20
-11.952667
 30
0.0
 40
2.0
210
0.0
220
0.0
230
1.0
  0
CIRCLE
  5
1F3
100
AcDbEntity
  8
0
370
    35
390
0
 62
     7
100
AcDbCircle
 10
265.452667
 20
323.603363
 30
0.0
 40
2.0
210
0.0
220
0.0
230
1.0
  0
CIRCLE
  5
1F4
100
AcDbEntity
  8
0
370
    35
390
0
 62
     7
100
AcDbCircle
 10
-121.507782
 20
77.082375
 30
0.0
 40
2.0
210
0.0
220
0.0
230
1.0
  0
CIRCLE
  5
1F5
100
AcDbEntity
  8
0
370
    35
390
0
 62
     7
100
AcDbCircle
 10
176.417633
 20
-78.007782
 30
0.0
 40
2.0
210
0.0
220
0.0
230
1.0
  0
CIRCLE
  5
1F6
100
AcDbEntity
  8
0
370
    35
390
0
 62
     7
100
AcDbCircle
 10
331.507782
 20
219.917633
 30
0.0
 40
2.0
210
0.0
220
0.0
230
1.0
  0
ARC
  5
1F7
100
AcDbEntity
  8
0
370
    35
390
0
 62
     7
100
AcDbCircle
 10
105.0
 20
148.5
 30
0.0
 40
228.0
210
0.0
220
0.0
230
1.0
100
AcDbArc
 50
166.280846
 51
168.719155
  0
ARC
  5
1F8
100
AcDbEntity
  8
0
370
    35
390
0
 62
     7
100
AcDbCircle
 10
-125.459824
 20
194.470306
 30
0.0
 40
7.0
210
0.0
220
0.0
230
1.0
100
AcDbArc
 50
168.719155
 51
348.719151
  0
ARC
  5
1F9
100
AcDbEntity
  8
0
370
    35
390
0
 62
     7
100
AcDbCircle
 10
105.0
 20
148.5
 30
0.0
 40
242.0
210
0.0
220
0.0
230
1.0
100
AcDbArc
 50
166.280846
 51
168.719155
  0
ARC
  5
1FA
100
AcDbEntity
  8
0
370
    35
390
0
 62
     7
100
AcDbCircle
 10
-123.295425
 20
204.233276
 30
0.0
 40
7.0
210
0.0
220
0.0
230
1.0
100
AcDbArc
 50
346.280849
 51
166.280846
  0
ENDSEC
  0
SECTION
  2
OBJECTS
  0
DICTIONARY
  5
19
100
AcDbDictionary
280
     0
281
     1
  3
ACAD_GROUP
350
1A
  3
ACAD_MLINESTYLE
350
1B
  3
ACAD_LAYOUT
350
1E
  3
ACAD_PLOTSETTINGS
350
22
  3
ACAD_PLOTSTYLENAME
350
1F
  3
ACAD_WIPEOUT_VARS
350
23
  0
DICTIONARY
  5
1A
102
{ACAD_REACTORS
330
19
102
}
100
AcDbDictionary
280
     0
281
     1
  0
DICTIONARY
  5
1B
102
{ACAD_REACTORS
330
19
102
}
100
AcDbDictionary
280
     0
281
     1
  3
Standard
350
1C
  0
MLINESTYLE
  5
1C
102
{ACAD_REACTORS
330
1B
102
}
100
AcDbMlineStyle
  2
Standard
 70
     0
  3

 62
     0
 51
90.0
 52
90.0
 71
     2
 49
0.5
 62
   256
  6
ByLayer
 49
-0.5
 62
   256
  6
ByLayer
  0
ACDBDICTIONARYWDFLT
  5
1F
102
{ACAD_REACTORS
330
19
102
}
100
AcDbDictionary
281
     1
  3
Normal
350
1D
100
AcDbDictionaryWithDefault
340
1D
  0
ACDBPLACEHOLDER
  5
1D
102
{ACAD_REACTORS
330
1F
102
}
  0
LAYOUT
  5
20
102
{ACAD_REACTORS
330
1E
102
}
100
AcDbPlotSettings
  1

  2

  4

  6

 40
0.0
 41
0.0
 42
0.0
 43
0.0
 44
0.0
 45
0.0
 46
0.0
 47
0.0
 48
0.0
 49
0.0
140
0.0
141
0.0
142
1.0
143
1.0
 70
  1024
 72
     0
 73
     0
 74
     0
  7

 75
     0
147
1.0
148
0.0
149
0.0
100
AcDbLayout
  1
Model
 70
     0
 71
     0
 10
0.0
 20
0.0
 11
0.0
 21
0.0
 12
0.0
 22
0.0
 32
0.0
 14
0.0
 24
0.0
 34
0.0
 15
0.0
 25
0.0
 35
0.0
146
0.0
 13
0.0
 23
0.0
 33
0.0
 16
0.0
 26
0.0
 36
0.0
 17
0.0
 27
0.0
 37
0.0
 76
     0
330
A
331
0
345
0
346
0
  0
LAYOUT
  5
21
102
{ACAD_REACTORS
330
1E
102
}
100
AcDbPlotSettings
  1

  2

  4

  6

 40
0.0
 41
0.0
 42
0.0
 43
0.0
 44
0.0
 45
0.0
 46
0.0
 47
0.0
 48
0.0
 49
0.0
140
0.0
141
0.0
142
1.0
143
1.0
 70
     0
 72
     0
 73
     0
 74
     0
  7

 75
     0
147
1.0
148
0.0
149
0.0
100
AcDbLayout
  1
Layout1
 70
     0
 71
     0
 10
0.0
 20
0.0
 11
0.0
 21
0.0
 12
0.0
 22
0.0
 32
0.0
 14
0.0
 24
0.0
 34
0.0
 15
0.0
 25
0.0
 35
0.0
146
0.0
 13
0.0
 23
0.0
 33
0.0
 16
0.0
 26
0.0
 36
0.0
 17
0.0
 27
0.0
 37
0.0
 76
     0
330
B
331
0
345
0
346
0
  0
DICTIONARY
  5
1E
102
{ACAD_REACTORS
330
19
102
}
100
AcDbDictionary
280
     0
281
     1
  3
Layout1
350
21
  3
Model
350
20
  0
DICTIONARY
  5
22
102
{ACAD_REACTORS
330
19
102
}
100
AcDbDictionary
280
     0
281
     1
  0
WIPEOUTVARIABLES
  5
23
100
AcDbWipeoutVariables
 70
     1
  0
ENDSEC
  0
EOF
