  0
SECTION
  2
HEADER
  9
$ACADVER
  1
AC1015
  9
$ACADMAINTVER
 70
     6
  9
$DWGCODEPAGE
  3
ANSI_1252
  9
$INSBASE
 10
0.0
 20
0.0
 30
0.0
  9
$EXTMIN
 10
0.0
 20
0.0
 30
0.0
  9
$EXTMAX
 10
220.0
 20
263.5
 30
2.0
  9
$LIMMIN
 10
0.0
 20
0.0
  9
$LIMMAX
 10
420.0
 20
297.0
  9
$ORTHOMODE
 70
     0
  9
$REGENMODE
 70
     1
  9
$FILLMODE
 70
     1
  9
$QTEXTMODE
 70
     0
  9
$MIRRTEXT
 70
     1
  9
$LTSCALE
 40
1.0
  9
$ATTMODE
 70
     1
  9
$TEXTSIZE
 40
2.5
  9
$TRACEWID
 40
1.0
  9
$TEXTSTYLE
  7
Standard
  9
$CLAYER
  8
0
  9
$CELTYPE
  6
ByLayer
  9
$CECOLOR
 62
   256
  9
$CELTSCALE
 40
1.0
  9
$DISPSILH
 70
     0
  9
$DIMSCALE
 40
1.0
  9
$DIMASZ
 40
2.5
  9
$DIMEXO
 40
0.625
  9
$DIMDLI
 40
3.75
  9
$DIMRND
 40
0.0
  9
$DIMDLE
 40
0.0
  9
$DIMEXE
 40
1.25
  9
$DIMTP
 40
0.0
  9
$DIMTM
 40
0.0
  9
$DIMTXT
 40
2.5
  9
$DIMCEN
 40
2.5
  9
$DIMTSZ
 40
0.0
  9
$DIMTOL
 70
     0
  9
$DIMLIM
 70
     0
  9
$DIMTIH
 70
     0
  9
$DIMTOH
 70
     0
  9
$DIMSE1
 70
     0
  9
$DIMSE2
 70
     0
  9
$DIMTAD
 70
     1
  9
$DIMZIN
 70
     8
  9
$DIMBLK
  1

  9
$DIMASO
 70
     1
  9
$DIMSHO
 70
     1
  9
$DIMPOST
  1

  9
$DIMAPOST
  1

  9
$DIMALT
 70
     0
  9
$DIMALTD
 70
     3
  9
$DIMALTF
 40
0.03937
  9
$DIMLFAC
 40
1.0
  9
$DIMTOFL
 70
     1
  9
$DIMTVP
 40
0.0
  9
$DIMTIX
 70
     0
  9
$DIMSOXD
 70
     0
  9
$DIMSAH
 70
     0
  9
$DIMBLK1
  1

  9
$DIMBLK2
  1

  9
$DIMSTYLE
  2

  9
$DIMCLRD
 70
     0
  9
$DIMCLRE
 70
     0
  9
$DIMCLRT
 70
     0
  9
$DIMTFAC
 40
1.0
  9
$DIMGAP
 40
0.625
  9
$DIMJUST
 70
     0
  9
$DIMSD1
 70
     0
  9
$DIMSD2
 70
     0
  9
$DIMTOLJ
 70
     0
  9
$DIMTZIN
 70
     8
  9
$DIMALTZ
 70
     0
  9
$DIMALTTZ
 70
     0
  9
$DIMUPT
 70
     0
  9
$DIMDEC
 70
     2
  9
$DIMTDEC
 70
     2
  9
$DIMALTU
 70
     2
  9
$DIMALTTD
 70
     3
  9
$DIMTXSTY
  7
Standard
  9
$DIMAUNIT
 70
     0
  9
$DIMADEC
 70
     0
  9
$DIMALTRND
 40
0.0
  9
$DIMAZIN
 70
     0
  9
$DIMDSEP
 70
    44
  9
$DIMATFIT
 70
     0
  9
$DIMFRAC
 70
     0
  9
$DIMLDRBLK
  1

  9
$DIMLUNIT
 70
     2
  9
$DIMLWD
 70
    -2
  9
$DIMLWE
 70
    -2
  9
$DIMTMOVE
 70
     0
  9
$LUNITS
 70
     2
  9
$LUPREC
 70
     4
  9
$SKETCHINC
 40
1.0
  9
$FILLETRAD
 40
2.5
  9
$AUNITS
 70
     0
  9
$AUPREC
 70
     0
  9
$MENU
  1
.
  9
$ELEVATION
 40
0.0
  9
$PELEVATION
 40
0.0
  9
$THICKNESS
 40
0.0
  9
$LIMCHECK
 70
     0
  9
$CHAMFERA
 40
2.5
  9
$CHAMFERB
 40
2.5
  9
$CHAMFERC
 40
0.0
  9
$CHAMFERD
 40
0.0
  9
$SKPOLY
 70
     0
  9
$TDCREATE
 40
0.000000000
  9
$TDUCREATE
 40
0.000000000
  9
$TDUPDATE
 40
0.000000000
  9
$TDUUPDATE
 40
0.000000000
  9
$TDINDWG
 40
0.0000000000
  9
$TDUSRTIMER
 40
0.0000000000
  9
$USRTIMER
 70
     1
  9
$ANGBASE
 50
0.0
  9
$ANGDIR
 70
     0
  9
$PDMODE
 70
     0
  9
$PDSIZE
 40
0.0
  9
$PLINEWID
 40
0.0
  9
$SPLFRAME
 70
     0
  9
$SPLINETYPE
 70
     6
  9
$SPLINESEGS
 70
     8
  9
$HANDSEED
  5
ED
  9
$SURFTAB1
 70
     6
  9
$SURFTAB2
 70
     6
  9
$SURFTYPE
 70
     6
  9
$SURFU
 70
     6
  9
$SURFV
 70
     6
  9
$UCSBASE
  2

  9
$UCSNAME
  2

  9
$UCSORG
 10
0.0
 20
0.0
 30
0.0
  9
$UCSXDIR
 10
1.0
 20
0.0
 30
0.0
  9
$UCSYDIR
 10
0.0
 20
1.0
 30
0.0
  9
$UCSORTHOREF
  2

  9
$UCSORTHOVIEW
 70
     1
  9
$UCSORGTOP
 10
0.0
 20
0.0
 30
0.0
  9
$UCSORGBOTTOM
 10
0.0
 20
0.0
 30
0.0
  9
$UCSORGLEFT
 10
0.0
 20
0.0
 30
0.0
  9
$UCSORGRIGHT
 10
0.0
 20
0.0
 30
0.0
  9
$UCSORGFRONT
 10
0.0
 20
0.0
 30
0.0
  9
$UCSORGBACK
 10
0.0
 20
0.0
 30
0.0
  9
$PUCSBASE
  2

  9
$PUCSNAME
  2

  9
$PUCSORG
 10
0.0
 20
0.0
 30
0.0
  9
$PUCSXDIR
 10
1.0
 20
0.0
 30
0.0
  9
$PUCSYDIR
 10
0.0
 20
1.0
 30
0.0
  9
$PUCSORTHOREF
  2

  9
$PUCSORTHOVIEW
 70
     0
  9
$PUCSORGTOP
 10
0.0
 20
0.0
 30
0.0
  9
$PUCSORGBOTTOM
 10
0.0
 20
0.0
 30
0.0
  9
$PUCSORGLEFT
 10
0.0
 20
0.0
 30
0.0
  9
$PUCSORGRIGHT
 10
0.0
 20
0.0
 30
0.0
  9
$PUCSORGFRONT
 10
0.0
 20
0.0
 30
0.0
  9
$PUCSORGBACK
 10
0.0
 20
0.0
 30
0.0
  9
$USERI1
 70
     0
  9
$USERI2
 70
     0
  9
$USERI3
 70
     0
  9
$USERI4
 70
     0
  9
$USERI5
 70
     0
  9
$USERR1
 40
0.0
  9
$USERR2
 40
0.0
  9
$USERR3
 40
0.0
  9
$USERR4
 40
0.0
  9
$USERR5
 40
0.0
  9
$WORLDVIEW
 70
     1
  9
$SHADEDGE
 70
     3
  9
$SHADEDIF
 70
    70
  9
$TILEMODE
 70
     1
  9
$MAXACTVP
 70
    48
  9
$PINSBASE
 10
0.0
 20
0.0
 30
0.0
  9
$PLIMCHECK
 70
     0
  9
$PEXTMIN
 10
0.0
 20
0.0
 30
0.0
  9
$PEXTMAX
 10
220.0
 20
263.5
 30
2.0
  9
$PLIMMIN
 10
0.0
 20
0.0
  9
$PLIMMAX
 10
420.0
 20
297.0
  9
$UNITMODE
 70
     0
  9
$VISRETAIN
 70
     0
  9
$PLINEGEN
 70
     0
  9
$PSLTSCALE
 70
     1
  9
$TREEDEPTH
 70
  3020
  9
$CMLSTYLE
  2
Standard
  9
$CMLJUST
 70
     0
  9
$CMLSCALE
 40
20.0
  9
$PROXYGRAPHICS
 70
     1
  9
$MEASUREMENT
 70
     1
  9
$CELWEIGHT
370
    -1
  9
$ENDCAPS
280
     0
  9
$JOINSTYLE
280
     0
  9
$LWDISPLAY
290
     0
  9
$INSUNITS
 70
     0
  9
$HYPERLINKBASE
  1

  9
$STYLESHEET
  1

  9
$XEDIT
290
     1
  9
$CEPSNTYPE
380
     0
  9
$PSTYLEMODE
290
     0
  9
$FINGERPRINTGUID
  2

  9
$VERSIONGUID
  2

  9
$EXTNAMES
290
     0
  9
$PSVPSCALE
 40
0.0
  0
ENDSEC
  0
SECTION
  2
CLASSES
  0
CLASS
  1
LWPOLYLINE
  2
AcDbPolyline
  3
AutoCAD 2000
 90
        0
280
     0
281
     1
  0
CLASS
  1
IMAGE
  2
AcDbRasterImage
  3
ISM
 90
      127
280
     0
281
     1
  0
CLASS
  1
OLE2FRAME
  2
AcDbOle2Frame
  3
AutoCAD 2000
 90
        0
280
     0
281
     1
  0
CLASS
  1
HATCH
  2
AcDbHatch
  3
AutoCAD 2000
 90
        0
280
     0
281
     1
  0
CLASS
  1
DICTIONARYVAR
  2
AcDbDictionaryVar
  3
AutoCAD 2000
 90
        0
280
     0
281
     0
  0
CLASS
  1
RASTERVARIABLES
  2
AcDbRasterVariables
  3
ISM
 90
        0
280
     0
281
     0
  0
CLASS
  1
IMAGEDEF
  2
AcDbRasterImageDef
  3
ISM
 90
        0
280
     0
281
     0
  0
CLASS
  1
IMAGEDEF_REACTOR
  2
AcDbRasterImageDefReactor
  3
ISM
 90
        1
280
     0
281
     0
  0
CLASS
  1
IDBUFFER
  2
AcDbIdBuffer
  3
AutoCAD 2000
 90
        0
280
     0
281
     0
  0
CLASS
  1
SPATIAL_FILTER
  2
AcDbSpatialFilter
  3
AutoCAD 2000
 90
        0
280
     0
281
     0
  0
CLASS
  1
XRECORD
  2
AcDbXrecord
  3
AutoCAD 2000
 90
        0
280
     0
281
     0
  0
CLASS
  1
SORTENTSTABLE
  2
AcDbSortentsTable
  3
AutoCAD 2000
 90
        0
280
     0
281
     0
  0
CLASS
  1
LAYER_INDEX
  2
AcDbLayerIndex
  3
AutoCAD 2000
 90
        0
280
     0
281
     0
  0
CLASS
  1
SPATIAL_INDEX
  2
AcDbSpatialIndex
  3
AutoCAD 2000
 90
        0
280
     0
281
     0
  0
CLASS
  1
OBJECT_PTR
  2
CAseDLPNTableRecord
  3
"ASE-LPNTableRecord"
 90
        1
280
     0
281
     0
  0
CLASS
  1
LAYOUT
  2
AcDbLayout
  3
AutoCAD 2000
 90
        0
280
     0
281
     0
  0
CLASS
  1
PLOTSETTINGS
  2
AcDbPlotSettings
  3
AutoCAD 2000
 90
        0
280
     0
281
     0
  0
CLASS
  1
ACDBDICTIONARYWDFLT
  2
AcDbDictionaryWithDefault
  3
AutoCAD 2000
 90
        0
280
     0
281
     0
  0
CLASS
  1
ACDBPLACEHOLDER
  2
AcDbPlaceHolder
  3
AutoCAD 2000
 90
        0
280
     0
281
     0
  0
CLASS
  1
VBA_PROJECT
  2
AcDbVbaProject
  3
acadvba
 90
        0
280
     0
281
     0
  0
CLASS
  1
WIPEOUT
  2
AcDbWipeout
  3
WipeOut|AutoCAD Express Tool|expresstools@autodesk.com
 90
      127
280
     0
281
     1
  0
CLASS
  1
WIPEOUTVARIABLES
  2
AcDbWipeoutVariables
  3
WipeOut|AutoCAD Express Tool|expresstools@autodesk.com
 90
        0
280
     0
281
     0
  0
CLASS
  1
RTEXT
  2
RText
  3
RText|AutoCAD Express Tool|expresstools@autodesk.com
 90
        0
280
     0
281
     1
  0
CLASS
  1
ARCALIGNEDTEXT
  2
AcDbArcAlignedText
  3
ATEXT|AutoCAD Express Tool|expresstools@autodesk.com
 90
        0
280
     0
281
     1
  0
ENDSEC
  0
SECTION
  2
TABLES
  0
TABLE
  2
VPORT
  5
7
100
AcDbSymbolTable
 70
     1
  0
VPORT
  5
15
100
AcDbSymbolTableRecord
100
AcDbViewportTableRecord
  2
*ACTIVE
 70
     0
 10
0.0
 20
0.0
 11
1.0
 21
1.0
 12
6.591288
 22
4.579184
 13
0.0
 23
0.0
 14
1.0
 24
1.0
 15
0.0
 25
0.0
 16
0.0
 26
0.0
 36
1.0
 17
0.0
 27
0.0
 37
0.0
 40
9.158369
 41
0.688564
 42
50.0
 43
0.0
 44
0.0
 50
0.0
 51
0.0
 71
     0
 72
   100
 73
     1
 74
     1
 75
     0
 76
     0
 77
     0
 78
     0
281
     0
 65
     0
110
0.0
120
0.0
130
0.0
111
1.0
121
0.0
131
0.0
112
0.0
122
1.0
132
0.0
345
0
346
0
 79
     0
146
0.0
  0
ENDTAB
  0
TABLE
  2
LTYPE
  5
4
100
AcDbSymbolTable
 70
     3
  0
LTYPE
  5
11
100
AcDbSymbolTableRecord
100
AcDbLinetypeTableRecord
  2
ByBlock
 70
    64
  3

 72
    65
 73
     0
 40
0.0
  0
LTYPE
  5
12
100
AcDbSymbolTableRecord
100
AcDbLinetypeTableRecord
  2
ByLayer
 70
    64
  3

 72
    65
 73
     0
 40
0.0
  0
LTYPE
  5
13
100
AcDbSymbolTableRecord
100
AcDbLinetypeTableRecord
  2
Continuous
 70
    64
  3
Solid line
 72
    65
 73
     0
 40
0.0
  0
ENDTAB
  0
TABLE
  2
LAYER
  5
2
100
AcDbSymbolTable
 70
     1
  0
LAYER
  5
14
100
AcDbSymbolTableRecord
100
AcDbLayerTableRecord
  2
0
 70
     0
 62
     7
  6
Continuous
290
     1
370
    -3
390
1D
  0
ENDTAB
  0
TABLE
  2
STYLE
  5
3
100
AcDbSymbolTable
 70
     1
  0
STYLE
  5
17
100
AcDbSymbolTableRecord
100
AcDbTextStyleTableRecord
  2
Standard
 70
     0
 40
0.0
 41
1.0
 50
0.0
 71
     0
 42
0.0
  3
txt
  4

  0
ENDTAB
  0
TABLE
  2
VIEW
  5
5
100
AcDbSymbolTable
 70
     0
  0
ENDTAB
  0
TABLE
  2
UCS
  5
6
100
AcDbSymbolTable
 70
     0
  0
ENDTAB
  0
TABLE
  2
APPID
  5
8
100
AcDbSymbolTable
 70
     1
  0
APPID
  5
16
100
AcDbSymbolTableRecord
100
AcDbRegAppTableRecord
  2
ACAD
 70
     0
  0
ENDTAB
  0
TABLE
  2
DIMSTYLE
  5
9
100
AcDbSymbolTable
 70
     1
100
AcDbDimStyleTable
 71
     0
  0
DIMSTYLE
105
18
100
AcDbSymbolTableRecord
100
AcDbDimStyleTableRecord
  2
Standard
 70
     0
  3

  4

 40
1.0
 41
0.18
 42
0.0625
 43
0.38
 44
0.18
 45
0.0
 46
0.0
 47
0.0
 48
0.0
 71
     0
 72
     0
 73
     1
 74
     1
 75
     0
 76
     0
 77
     0
 78
     0
 79
     0
140
0.18
141
0.09
142
0.0
143
25.4
144
1.0
145
0.0
146
1.0
147
0.09
148
0.0
170
     0
171
     2
172
     0
173
     0
174
     0
175
     0
176
     0
177
     0
178
     0
179
     0
271
     4
272
     4
273
     2
274
     2
275
     0
276
     0
277
     2
278
    46
279
     0
280
     0
281
     0
282
     0
283
     1
284
     0
285
     0
286
     0
288
     0
289
     3
340
17
341
0
342
0
343
0
344
0
371
    -2
372
    -2
  0
ENDTAB
  0
TABLE
  2
BLOCK_RECORD
  5
1
100
AcDbSymbolTable
 70
     0
  0
BLOCK_RECORD
  5
A
100
AcDbSymbolTableRecord
100
AcDbBlockTableRecord
  2
*MODEL_SPACE
340
20
  0
BLOCK_RECORD
  5
B
100
AcDbSymbolTableRecord
100
AcDbBlockTableRecord
  2
*PAPER_SPACE
340
21
  0
ENDTAB
  0
ENDSEC
  0
SECTION
  2
BLOCKS
  0
BLOCK
  5
D
100
AcDbEntity
  8
0
390
0
100
AcDbBlockBegin
  2
*MODEL_SPACE
 70
     0
 10
0.0
 20
0.0
 30
0.0
  3
*MODEL_SPACE
  1

  0
ENDBLK
  5
E
100
AcDbEntity
  8
0
390
0
100
AcDbBlockEnd
  0
BLOCK
  5
F
100
AcDbEntity
 67
     1
  8
0
390
0
100
AcDbBlockBegin
  2
*PAPER_SPACE
 70
     0
 10
0.0
 20
0.0
 30
0.0
  3
*PAPER_SPACE
  1

  0
ENDBLK
  5
10
100
AcDbEntity
 67
     1
  8
0
390
0
100
AcDbBlockEnd
  0
ENDSEC
  0
SECTION
  2
ENTITIES
  0
VIEWPORT
  5
EC
100
AcDbEntity
 67
     1
  8
0
370
     0
390
0
 62
     0
 48
0.0
100
AcDbViewport
 10
0.0
 20
0.0
 30
0.0
 40
1000.0
 41
1000.0
 68
     1
 69
     1
 12
0.0
 22
0.0
 13
0.0
 23
0.0
 14
1.0
 24
1.0
 15
1.0
 25
1.0
 16
0.0
 26
0.0
 36
1.0
 17
0.0
 27
0.0
 37
0.0
 42
50.0
 43
0.0
 44
0.0
 45
1000.0
 50
0.0
 51
0.0
 72
   100
 90
        0
340
0
  1

281
     0
 71
     0
 74
     1
110
0.0
120
0.0
130
0.0
111
1.0
121
0.0
131
0.0
112
0.0
122
1.0
132
0.0
345
0
346
0
 79
     0
146
0.0
  0
ARC
  5
24
100
AcDbEntity
  8
0
370
    35
390
0
 62
     7
100
AcDbCircle
 10
213.064651
 20
187.832321
 30
0.0
 40
15.0
210
0.0
220
0.0
230
1.0
100
AcDbArc
 50
139.426345
 51
260.573653
  0
ARC
  5
25
100
AcDbEntity
  8
0
370
    35
390
0
 62
     7
100
AcDbCircle
 10
208.970154
 20
163.169891
 30
0.0
 40
10.0
210
0.0
220
0.0
230
1.0
100
AcDbArc
 50
8.031254
 51
80.573652
  0
ARC
  5
26
100
AcDbEntity
  8
0
370
    35
390
0
 62
     7
100
AcDbCircle
 10
105.0
 20
148.5
 30
0.0
 40
115.0
210
0.0
220
0.0
230
1.0
100
AcDbArc
 50
121.968737
 51
138.031252
  0
ARC
  5
27
100
AcDbEntity
  8
0
370
    35
390
0
 62
     7
100
AcDbCircle
 10
26.93148
 20
218.716141
 30
0.0
 40
10.0
210
0.0
220
0.0
230
1.0
100
AcDbArc
 50
138.031252
 51
210.573657
  0
ARC
  5
28
100
AcDbEntity
  8
0
370
    35
390
0
 62
     7
100
AcDbCircle
 10
5.407082
 20
206.0
 30
0.0
 40
15.0
210
0.0
220
0.0
230
1.0
100
AcDbArc
 50
269.42635
 51
30.573651
  0
ARC
  5
29
100
AcDbEntity
  8
0
370
    35
390
0
 62
     7
100
AcDbCircle
 10
5.156776
 20
181.001251
 30
0.0
 40
10.0
210
0.0
220
0.0
230
1.0
100
AcDbArc
 50
89.426349
 51
161.968743
  0
ARC
  5
2A
100
AcDbEntity
  8
0
370
    35
390
0
 62
     7
100
AcDbCircle
 10
105.0
 20
148.5
 30
0.0
 40
115.0
210
0.0
220
0.0
230
1.0
100
AcDbArc
 50
161.968743
 51
188.031259
  0
ARC
  5
2B
100
AcDbEntity
  8
0
370
    35
390
0
 62
     7
100
AcDbCircle
 10
1.029839
 20
133.830109
 30
0.0
 40
10.0
210
0.0
220
0.0
230
1.0
100
AcDbArc
 50
188.031259
 51
260.573653
  0
ARC
  5
2C
100
AcDbEntity
  8
0
370
    35
390
0
 62
     7
100
AcDbCircle
 10
-3.064651
 20
109.167679
 30
0.0
 40
15.0
210
0.0
220
0.0
230
1.0
100
AcDbArc
 50
319.426351
 51
80.573652
  0
ARC
  5
2D
100
AcDbEntity
  8
0
370
    35
390
0
 62
     7
100
AcDbCircle
 10
15.924614
 20
92.907059
 30
0.0
 40
10.0
210
0.0
220
0.0
230
1.0
100
AcDbArc
 50
139.426345
 51
211.96875
  0
ARC
  5
2E
100
AcDbEntity
  8
0
370
    35
390
0
 62
     7
100
AcDbCircle
 10
105.0
 20
148.5
 30
0.0
 40
115.0
210
0.0
220
0.0
230
1.0
100
AcDbArc
 50
211.96875
 51
228.031251
  0
ARC
  5
2F
100
AcDbEntity
  8
0
370
    35
390
0
 62
     7
100
AcDbCircle
 10
34.783859
 20
70.43148
 30
0.0
 40
10.0
210
0.0
220
0.0
230
1.0
100
AcDbArc
 50
228.031251
 51
300.573652
  0
ARC
  5
30
100
AcDbEntity
  8
0
370
    35
390
0
 62
     7
100
AcDbCircle
 10
47.5
 20
48.907082
 30
0.0
 40
15.0
210
0.0
220
0.0
230
1.0
100
AcDbArc
 50
359.426349
 51
120.573657
  0
ARC
  5
31
100
AcDbEntity
  8
0
370
    35
390
0
 62
     7
100
AcDbCircle
 10
72.498749
 20
48.656776
 30
0.0
 40
10.0
210
0.0
220
0.0
230
1.0
100
AcDbArc
 50
179.426351
 51
251.968742
  0
ARC
  5
32
100
AcDbEntity
  8
0
370
    35
390
0
 62
     7
100
AcDbCircle
 10
105.0
 20
148.5
 30
0.0
 40
115.0
210
0.0
220
0.0
230
1.0
100
AcDbArc
 50
251.968742
 51
278.031255
  0
ARC
  5
33
100
AcDbEntity
  8
0
370
    35
390
0
 62
     7
100
AcDbCircle
 10
119.669891
 20
44.529839
 30
0.0
 40
10.0
210
0.0
220
0.0
230
1.0
100
AcDbArc
 50
278.031255
 51
350.573651
  0
ARC
  5
34
100
AcDbEntity
  8
0
370
    35
390
0
 62
     7
100
AcDbCircle
 10
144.332321
 20
40.435349
 30
0.0
 40
15.0
210
0.0
220
0.0
230
1.0
100
AcDbArc
 50
49.42635
 51
170.573647
  0
ARC
  5
35
100
AcDbEntity
  8
0
370
    35
390
0
 62
     7
100
AcDbCircle
 10
160.592941
 20
59.424614
 30
0.0
 40
10.0
210
0.0
220
0.0
230
1.0
100
AcDbArc
 50
229.426345
 51
301.968746
  0
ARC
  5
36
100
AcDbEntity
  8
0
370
    35
390
0
 62
     7
100
AcDbCircle
 10
105.0
 20
148.5
 30
0.0
 40
115.0
210
0.0
220
0.0
230
1.0
100
AcDbArc
 50
301.968746
 51
318.031254
  0
ARC
  5
37
100
AcDbEntity
  8
0
370
    35
390
0
 62
     7
100
AcDbCircle
 10
183.068512
 20
78.283859
 30
0.0
 40
10.0
210
0.0
220
0.0
230
1.0
100
AcDbArc
 50
318.031254
 51
30.573651
  0
ARC
  5
38
100
AcDbEntity
  8
0
370
    35
390
0
 62
     7
100
AcDbCircle
 10
204.592926
 20
91.0
 30
0.0
 40
15.0
210
0.0
220
0.0
230
1.0
100
AcDbArc
 50
89.426349
 51
210.573657
  0
ARC
  5
39
100
AcDbEntity
  8
0
370
    35
390
0
 62
     7
100
AcDbCircle
 10
204.843231
 20
115.998749
 30
0.0
 40
10.0
210
0.0
220
0.0
230
1.0
100
AcDbArc
 50
269.42635
 51
341.968746
  0
ARC
  5
3A
100
AcDbEntity
  8
0
370
    35
390
0
 62
     7
100
AcDbCircle
 10
105.0
 20
148.5
 30
0.0
 40
115.0
210
0.0
220
0.0
230
1.0
100
AcDbArc
 50
341.968746
 51
8.031254
  0
ARC
  5
3B
100
AcDbEntity
  8
0
370
    35
390
0
 62
     7
100
AcDbCircle
 10
194.075378
 20
204.092941
 30
0.0
 40
10.0
210
0.0
220
0.0
230
1.0
100
AcDbArc
 50
319.426351
 51
31.968745
  0
ARC
  5
3C
100
AcDbEntity
  8
0
370
    35
390
0
 62
     7
100
AcDbCircle
 10
105.0
 20
148.5
 30
0.0
 40
115.0
210
0.0
220
0.0
230
1.0
100
AcDbArc
 50
31.968745
 51
48.031253
  0
ARC
  5
3D
100
AcDbEntity
  8
0
370
    35
390
0
 62
     7
100
AcDbCircle
 10
175.216141
 20
226.568512
 30
0.0
 40
10.0
210
0.0
220
0.0
230
1.0
100
AcDbArc
 50
48.031253
 51
120.573657
  0
ARC
  5
3E
100
AcDbEntity
  8
0
370
    35
390
0
 62
     7
100
AcDbCircle
 10
162.5
 20
248.092926
 30
0.0
 40
15.0
210
0.0
220
0.0
230
1.0
100
AcDbArc
 50
179.426351
 51
300.573652
  0
ARC
  5
3F
100
AcDbEntity
  8
0
370
    35
390
0
 62
     7
100
AcDbCircle
 10
137.501251
 20
248.343231
 30
0.0
 40
10.0
210
0.0
220
0.0
230
1.0
100
AcDbArc
 50
359.426349
 51
71.968747
  0
ARC
  5
40
100
AcDbEntity
  8
0
370
    35
390
0
 62
     7
100
AcDbCircle
 10
105.0
 20
148.5
 30
0.0
 40
115.0
210
0.0
220
0.0
230
1.0
100
AcDbArc
 50
71.968747
 51
98.031253
  0
ARC
  5
41
100
AcDbEntity
  8
0
370
    35
390
0
 62
     7
100
AcDbCircle
 10
90.330109
 20
252.470154
 30
0.0
 40
10.0
210
0.0
220
0.0
230
1.0
100
AcDbArc
 50
98.031253
 51
170.573647
  0
ARC
  5
42
100
AcDbEntity
  8
0
370
    35
390
0
 62
     7
100
AcDbCircle
 10
65.667679
 20
256.564636
 30
0.0
 40
15.0
210
0.0
220
0.0
230
1.0
100
AcDbArc
 50
229.426345
 51
350.573651
  0
ARC
  5
43
100
AcDbEntity
  8
0
370
    35
390
0
 62
     7
100
AcDbCircle
 10
49.407059
 20
237.575378
 30
0.0
 40
10.0
210
0.0
220
0.0
230
1.0
100
AcDbArc
 50
49.42635
 51
121.968737
  0
CIRCLE
  5
44
100
AcDbEntity
  8
0
370
    35
390
0
 62
     7
100
AcDbCircle
 10
40.721237
 20
225.104446
 30
0.0
 40
2.0
210
0.0
220
0.0
230
1.0
  0
ARC
  5
45
100
AcDbEntity
  8
0
370
    35
390
0
 62
     7
100
AcDbCircle
 10
105.0
 20
148.5
 30
0.0
 40
77.5
210
0.0
220
0.0
230
1.0
100
AcDbArc
 50
231.580873
 51
298.419131
  0
ARC
  5
46
100
AcDbEntity
  8
0
370
    35
390
0
 62
     7
100
AcDbCircle
 10
51.248081
 20
80.728462
 30
0.0
 40
9.0
210
0.0
220
0.0
230
1.0
100
AcDbArc
 50
51.580868
 51
114.735157
  0
ARC
  5
47
100
AcDbEntity
  8
0
370
    35
390
0
 62
     7
100
AcDbCircle
 10
43.716446
 20
97.076996
 30
0.0
 40
9.0
210
0.0
220
0.0
230
1.0
100
AcDbArc
 50
145.264846
 51
294.735152
  0
ARC
  5
48
100
AcDbEntity
  8
0
370
    35
390
0
 62
     7
100
AcDbCircle
 10
28.924141
 20
107.333099
 30
0.0
 40
9.0
210
0.0
220
0.0
230
1.0
100
AcDbArc
 50
325.264848
 51
28.419133
  0
ARC
  5
49
100
AcDbEntity
  8
0
370
    35
390
0
 62
     7
100
AcDbCircle
 10
105.0
 20
148.5
 30
0.0
 40
77.5
210
0.0
220
0.0
230
1.0
100
AcDbArc
 50
141.580874
 51
208.419128
  0
ARC
  5
4A
100
AcDbEntity
  8
0
370
    35
390
0
 62
     7
100
AcDbCircle
 10
37.228462
 20
202.251923
 30
0.0
 40
9.0
210
0.0
220
0.0
230
1.0
100
AcDbArc
 50
321.580869
 51
24.735151
  0
ARC
  5
4B
100
AcDbEntity
  8
0
370
    35
390
0
 62
     7
100
AcDbCircle
 10
53.576992
 20
209.783554
 30
0.0
 40
9.0
210
0.0
220
0.0
230
1.0
100
AcDbArc
 50
55.26485
 51
204.735156
  0
ARC
  5
4C
100
AcDbEntity
  8
0
370
    35
390
0
 62
     7
100
AcDbCircle
 10
63.833099
 20
224.575867
 30
0.0
 40
9.0
210
0.0
220
0.0
230
1.0
100
AcDbArc
 50
235.264845
 51
298.419131
  0
ARC
  5
4D
100
AcDbEntity
  8
0
370
    35
390
0
 62
     7
100
AcDbCircle
 10
105.0
 20
148.5
 30
0.0
 40
77.5
210
0.0
220
0.0
230
1.0
100
AcDbArc
 50
51.580868
 51
118.419129
  0
ARC
  5
4E
100
AcDbEntity
  8
0
370
    35
390
0
 62
     7
100
AcDbCircle
 10
158.751923
 20
216.271545
 30
0.0
 40
9.0
210
0.0
220
0.0
230
1.0
100
AcDbArc
 50
231.580873
 51
294.735152
  0
ARC
  5
4F
100
AcDbEntity
  8
0
370
    35
390
0
 62
     7
100
AcDbCircle
 10
166.283554
 20
199.923004
 30
0.0
 40
9.0
210
0.0
220
0.0
230
1.0
100
AcDbArc
 50
325.264848
 51
114.735157
  0
ARC
  5
50
100
AcDbEntity
  8
0
370
    35
390
0
 62
     7
100
AcDbCircle
 10
181.075867
 20
189.666901
 30
0.0
 40
9.0
210
0.0
220
0.0
230
1.0
100
AcDbArc
 50
145.264846
 51
208.419128
  0
ARC
  5
51
100
AcDbEntity
  8
0
370
    35
390
0
 62
     7
100
AcDbCircle
 10
105.0
 20
148.5
 30
0.0
 40
77.5
210
0.0
220
0.0
230
1.0
100
AcDbArc
 50
321.580869
 51
28.419133
  0
ARC
  5
52
100
AcDbEntity
  8
0
370
    35
390
0
 62
     7
100
AcDbCircle
 10
172.771545
 20
94.748077
 30
0.0
 40
9.0
210
0.0
220
0.0
230
1.0
100
AcDbArc
 50
141.580874
 51
204.735156
  0
ARC
  5
53
100
AcDbEntity
  8
0
370
    35
390
0
 62
     7
100
AcDbCircle
 10
156.423004
 20
87.216446
 30
0.0
 40
9.0
210
0.0
220
0.0
230
1.0
100
AcDbArc
 50
235.264845
 51
24.735151
  0
ARC
  5
54
100
AcDbEntity
  8
0
370
    35
390
0
 62
     7
100
AcDbCircle
 10
146.166901
 20
72.424141
 30
0.0
 40
9.0
210
0.0
220
0.0
230
1.0
100
AcDbArc
 50
55.26485
 51
118.419129
  0
CIRCLE
  5
55
100
AcDbEntity
  8
0
370
    35
390
0
 62
     7
100
AcDbCircle
 10
118.222023
 20
251.151978
 30
0.0
 40
1.5
210
0.0
220
0.0
230
1.0
  0
CIRCLE
  5
56
100
AcDbEntity
  8
0
370
    35
390
0
 62
     7
100
AcDbCircle
 10
109.804176
 20
251.888443
 30
0.0
 40
1.5
210
0.0
220
0.0
230
1.0
  0
CIRCLE
  5
57
100
AcDbEntity
  8
0
370
    35
390
0
 62
     7
100
AcDbCircle
 10
112.931175
 20
239.153717
 30
0.0
 40
2.5
210
0.0
220
0.0
230
1.0
  0
CIRCLE
  5
58
100
AcDbEntity
  8
0
370
    35
390
0
 62
     7
100
AcDbCircle
 10
144.660156
 20
220.316681
 30
0.0
 40
2.0
210
0.0
220
0.0
230
1.0
  0
CIRCLE
  5
59
100
AcDbEntity
  8
0
370
    35
390
0
 62
     7
100
AcDbCircle
 10
78.413208
 20
226.112518
 30
0.0
 40
2.0
210
0.0
220
0.0
230
1.0
  0
ARC
  5
5A
100
AcDbEntity
  8
0
370
    35
390
0
 62
     7
100
AcDbCircle
 10
116.399963
 20
247.82312
 30
0.0
 40
0.5
210
0.0
220
0.0
230
1.0
100
AcDbArc
 50
355.0
 51
264.999998
  0
LINE
  5
5B
100
AcDbEntity
  8
0
370
    35
390
0
 62
     7
 48
0.05125
100
AcDbLine
 10
116.898056
 20
247.779541
 30
0.0
 11
118.940254
 21
247.600861
 31
0.0
210
0.0
220
0.0
230
1.0
  0
ARC
  5
5C
100
AcDbEntity
  8
0
370
    35
390
0
 62
     7
100
AcDbCircle
 10
119.438354
 20
247.557281
 30
0.0
 40
0.5
210
0.0
220
0.0
230
1.0
100
AcDbArc
 50
264.999998
 51
175.000006
  0
LINE
  5
5D
100
AcDbEntity
  8
0
370
    35
390
0
 62
     7
 48
0.10125
100
AcDbLine
 10
119.394775
 20
247.059189
 30
0.0
 11
119.041794
 21
243.024597
 31
0.0
210
0.0
220
0.0
230
1.0
  0
ARC
  5
5E
100
AcDbEntity
  8
0
370
    35
390
0
 62
     7
100
AcDbCircle
 10
118.998215
 20
242.526505
 30
0.0
 40
0.5
210
0.0
220
0.0
230
1.0
100
AcDbArc
 50
175.000006
 51
84.999997
  0
LINE
  5
5F
100
AcDbEntity
  8
0
370
    35
390
0
 62
     7
 48
0.05125
100
AcDbLine
 10
116.457924
 20
242.748749
 30
0.0
 11
118.500122
 21
242.570084
 31
0.0
210
0.0
220
0.0
230
1.0
  0
ARC
  5
60
100
AcDbEntity
  8
0
370
    35
390
0
 62
     7
100
AcDbCircle
 10
115.959824
 20
242.792328
 30
0.0
 40
0.5
210
0.0
220
0.0
230
1.0
100
AcDbArc
 50
84.999997
 51
355.0
  0
LINE
  5
61
100
AcDbEntity
  8
0
370
    35
390
0
 62
     7
 48
0.10125
100
AcDbLine
 10
116.356384
 20
247.325012
 30
0.0
 11
116.003403
 21
243.290436
 31
0.0
210
0.0
220
0.0
230
1.0
  0
LINE
  5
62
100
AcDbEntity
  8
0
370
    35
390
0
 62
     7
 48
0.05125
100
AcDbLine
 10
110.522415
 20
248.337341
 30
0.0
 11
108.480209
 21
248.515991
 31
0.0
210
0.0
220
0.0
230
1.0
  0
ARC
  5
63
100
AcDbEntity
  8
0
370
    35
390
0
 62
     7
100
AcDbCircle
 10
111.020508
 20
248.293762
 30
0.0
 40
0.5
210
0.0
220
0.0
230
1.0
100
AcDbArc
 50
264.999998
 51
175.000006
  0
LINE
  5
64
100
AcDbEntity
  8
0
370
    35
390
0
 62
     7
 48
0.10125
100
AcDbLine
 10
110.976929
 20
247.795654
 30
0.0
 11
110.623947
 21
243.761078
 31
0.0
210
0.0
220
0.0
230
1.0
  0
ARC
  5
65
100
AcDbEntity
  8
0
370
    35
390
0
 62
     7
100
AcDbCircle
 10
110.580368
 20
243.26297
 30
0.0
 40
0.5
210
0.0
220
0.0
230
1.0
100
AcDbArc
 50
175.000006
 51
84.999997
  0
LINE
  5
66
100
AcDbEntity
  8
0
370
    35
390
0
 62
     7
 48
0.05125
100
AcDbLine
 10
110.082275
 20
243.306549
 30
0.0
 11
108.040077
 21
243.485214
 31
0.0
210
0.0
220
0.0
230
1.0
  0
ARC
  5
67
100
AcDbEntity
  8
0
370
    35
390
0
 62
     7
100
AcDbCircle
 10
107.541977
 20
243.528793
 30
0.0
 40
0.5
210
0.0
220
0.0
230
1.0
100
AcDbArc
 50
84.999997
 51
355.0
  0
LINE
  5
68
100
AcDbEntity
  8
0
370
    35
390
0
 62
     7
 48
0.10125
100
AcDbLine
 10
107.938538
 20
248.061478
 30
0.0
 11
107.585556
 21
244.026886
 31
0.0
210
0.0
220
0.0
230
1.0
  0
ARC
  5
69
100
AcDbEntity
  8
0
370
    35
390
0
 62
     7
100
AcDbCircle
 10
107.982117
 20
248.55957
 30
0.0
 40
0.5
210
0.0
220
0.0
230
1.0
100
AcDbArc
 50
355.0
 51
264.999998
  0
LINE
  5
6A
100
AcDbEntity
  8
0
370
    35
390
0
 62
     7
 48
0.05125
100
AcDbLine
 10
115.677879
 20
233.832809
 30
0.0
 11
117.720078
 21
233.654144
 31
0.0
210
0.0
220
0.0
230
1.0
  0
ARC
  5
6B
100
AcDbEntity
  8
0
370
    35
390
0
 62
     7
100
AcDbCircle
 10
118.21817
 20
233.610565
 30
0.0
 40
0.5
210
0.0
220
0.0
230
1.0
100
AcDbArc
 50
264.999998
 51
175.000006
  0
LINE
  5
6C
100
AcDbEntity
  8
0
370
    35
390
0
 62
     7
 48
0.10125
100
AcDbLine
 10
117.821617
 20
229.077881
 30
0.0
 11
118.174599
 21
233.112457
 31
0.0
210
0.0
220
0.0
230
1.0
  0
ARC
  5
6D
100
AcDbEntity
  8
0
370
    35
390
0
 62
     7
100
AcDbCircle
 10
117.778038
 20
228.579773
 30
0.0
 40
0.5
210
0.0
220
0.0
230
1.0
100
AcDbArc
 50
175.000006
 51
84.999997
  0
LINE
  5
6E
100
AcDbEntity
  8
0
370
    35
390
0
 62
     7
 48
0.05125
100
AcDbLine
 10
115.23774
 20
228.802032
 30
0.0
 11
117.279938
 21
228.623352
 31
0.0
210
0.0
220
0.0
230
1.0
  0
ARC
  5
6F
100
AcDbEntity
  8
0
370
    35
390
0
 62
     7
100
AcDbCircle
 10
114.739639
 20
228.845612
 30
0.0
 40
0.5
210
0.0
220
0.0
230
1.0
100
AcDbArc
 50
84.999997
 51
355.0
  0
LINE
  5
70
100
AcDbEntity
  8
0
370
    35
390
0
 62
     7
 48
0.10125
100
AcDbLine
 10
114.783218
 20
229.343689
 30
0.0
 11
115.1362
 21
233.378296
 31
0.0
210
0.0
220
0.0
230
1.0
  0
ARC
  5
71
100
AcDbEntity
  8
0
370
    35
390
0
 62
     7
100
AcDbCircle
 10
115.179779
 20
233.876389
 30
0.0
 40
0.5
210
0.0
220
0.0
230
1.0
100
AcDbArc
 50
355.0
 51
264.999998
  0
ARC
  5
72
100
AcDbEntity
  8
0
370
    35
390
0
 62
     7
100
AcDbCircle
 10
106.761932
 20
234.612854
 30
0.0
 40
0.5
210
0.0
220
0.0
230
1.0
100
AcDbArc
 50
355.0
 51
264.999998
  0
LINE
  5
73
100
AcDbEntity
  8
0
370
    35
390
0
 62
     7
 48
0.05125
100
AcDbLine
 10
109.302231
 20
234.390594
 30
0.0
 11
107.260033
 21
234.569275
 31
0.0
210
0.0
220
0.0
230
1.0
  0
ARC
  5
74
100
AcDbEntity
  8
0
370
    35
390
0
 62
     7
100
AcDbCircle
 10
109.800331
 20
234.347031
 30
0.0
 40
0.5
210
0.0
220
0.0
230
1.0
100
AcDbArc
 50
264.999998
 51
175.000006
  0
LINE
  5
75
100
AcDbEntity
  8
0
370
    35
390
0
 62
     7
 48
0.10125
100
AcDbLine
 10
109.40377
 20
229.814331
 30
0.0
 11
109.756752
 21
233.848938
 31
0.0
210
0.0
220
0.0
230
1.0
  0
ARC
  5
76
100
AcDbEntity
  8
0
370
    35
390
0
 62
     7
100
AcDbCircle
 10
109.360191
 20
229.316254
 30
0.0
 40
0.5
210
0.0
220
0.0
230
1.0
100
AcDbArc
 50
175.000006
 51
84.999997
  0
LINE
  5
77
100
AcDbEntity
  8
0
370
    35
390
0
 62
     7
 48
0.05125
100
AcDbLine
 10
108.862091
 20
229.359833
 30
0.0
 11
106.819893
 21
229.538483
 31
0.0
210
0.0
220
0.0
230
1.0
  0
ARC
  5
78
100
AcDbEntity
  8
0
370
    35
390
0
 62
     7
100
AcDbCircle
 10
106.3218
 20
229.582062
 30
0.0
 40
0.5
210
0.0
220
0.0
230
1.0
100
AcDbArc
 50
84.999997
 51
355.0
  0
LINE
  5
79
100
AcDbEntity
  8
0
370
    35
390
0
 62
     7
 48
0.10125
100
AcDbLine
 10
106.365379
 20
230.08017
 30
0.0
 11
106.718353
 21
234.114746
 31
0.0
210
0.0
220
0.0
230
1.0
  0
CIRCLE
  5
7A
100
AcDbEntity
  8
0
370
    35
390
0
 62
     7
100
AcDbCircle
 10
2.348022
 20
161.722015
 30
0.0
 40
1.5
210
0.0
220
0.0
230
1.0
  0
CIRCLE
  5
7B
100
AcDbEntity
  8
0
370
    35
390
0
 62
     7
100
AcDbCircle
 10
1.611557
 20
153.304184
 30
0.0
 40
1.5
210
0.0
220
0.0
230
1.0
  0
CIRCLE
  5
7C
100
AcDbEntity
  8
0
370
    35
390
0
 62
     7
100
AcDbCircle
 10
14.346283
 20
156.431168
 30
0.0
 40
2.5
210
0.0
220
0.0
230
1.0
  0
CIRCLE
  5
7D
100
AcDbEntity
  8
0
370
    35
390
0
 62
     7
100
AcDbCircle
 10
33.183327
 20
188.160156
 30
0.0
 40
2.0
210
0.0
220
0.0
230
1.0
  0
CIRCLE
  5
7E
100
AcDbEntity
  8
0
370
    35
390
0
 62
     7
100
AcDbCircle
 10
27.387474
 20
121.913208
 30
0.0
 40
2.0
210
0.0
220
0.0
230
1.0
  0
ARC
  5
7F
100
AcDbEntity
  8
0
370
    35
390
0
 62
     7
100
AcDbCircle
 10
5.676888
 20
159.899963
 30
0.0
 40
0.5
210
0.0
220
0.0
230
1.0
100
AcDbArc
 50
84.999997
 51
355.0
  0
LINE
  5
80
100
AcDbEntity
  8
0
370
    35
390
0
 62
     7
 48
0.05125
100
AcDbLine
 10
5.720467
 20
160.398056
 30
0.0
 11
5.899132
 21
162.440262
 31
0.0
210
0.0
220
0.0
230
1.0
  0
ARC
  5
81
100
AcDbEntity
  8
0
370
    35
390
0
 62
     7
100
AcDbCircle
 10
5.942711
 20
162.938354
 30
0.0
 40
0.5
210
0.0
220
0.0
230
1.0
100
AcDbArc
 50
355.0
 51
264.999998
  0
LINE
  5
82
100
AcDbEntity
  8
0
370
    35
390
0
 62
     7
 48
0.10125
100
AcDbLine
 10
6.440811
 20
162.894775
 30
0.0
 11
10.475403
 21
162.541794
 31
0.0
210
0.0
220
0.0
230
1.0
  0
ARC
  5
83
100
AcDbEntity
  8
0
370
    35
390
0
 62
     7
100
AcDbCircle
 10
10.973495
 20
162.498215
 30
0.0
 40
0.5
210
0.0
220
0.0
230
1.0
100
AcDbArc
 50
264.999998
 51
175.000006
  0
LINE
  5
84
100
AcDbEntity
  8
0
370
    35
390
0
 62
     7
 48
0.05125
100
AcDbLine
 10
10.751251
 20
159.957916
 30
0.0
 11
10.929916
 21
162.000122
 31
0.0
210
0.0
220
0.0
230
1.0
  0
ARC
  5
85
100
AcDbEntity
  8
0
370
    35
390
0
 62
     7
100
AcDbCircle
 10
10.707672
 20
159.459824
 30
0.0
 40
0.5
210
0.0
220
0.0
230
1.0
100
AcDbArc
 50
175.000006
 51
84.999997
  0
LINE
  5
86
100
AcDbEntity
  8
0
370
    35
390
0
 62
     7
 48
0.10125
100
AcDbLine
 10
6.174988
 20
159.856384
 30
0.0
 11
10.209572
 21
159.503403
 31
0.0
210
0.0
220
0.0
230
1.0
  0
LINE
  5
87
100
AcDbEntity
  8
0
370
    35
390
0
 62
     7
 48
0.05125
100
AcDbLine
 10
5.162666
 20
154.022415
 30
0.0
 11
4.984001
 21
151.980209
 31
0.0
210
0.0
220
0.0
230
1.0
  0
ARC
  5
88
100
AcDbEntity
  8
0
370
    35
390
0
 62
     7
100
AcDbCircle
 10
5.206245
 20
154.520508
 30
0.0
 40
0.5
210
0.0
220
0.0
230
1.0
100
AcDbArc
 50
355.0
 51
264.999998
  0
LINE
  5
89
100
AcDbEntity
  8
0
370
    35
390
0
 62
     7
 48
0.10125
100
AcDbLine
 10
5.704346
 20
154.476929
 30
0.0
 11
9.73893
 21
154.123947
 31
0.0
210
0.0
220
0.0
230
1.0
  0
ARC
  5
8A
100
AcDbEntity
  8
0
370
    35
390
0
 62
     7
100
AcDbCircle
 10
10.23703
 20
154.080368
 30
0.0
 40
0.5
210
0.0
220
0.0
230
1.0
100
AcDbArc
 50
264.999998
 51
175.000006
  0
LINE
  5
8B
100
AcDbEntity
  8
0
370
    35
390
0
 62
     7
 48
0.05125
100
AcDbLine
 10
10.193451
 20
153.582275
 30
0.0
 11
10.014786
 21
151.54007
 31
0.0
210
0.0
220
0.0
230
1.0
  0
ARC
  5
8C
100
AcDbEntity
  8
0
370
    35
390
0
 62
     7
100
AcDbCircle
 10
9.971207
 20
151.041977
 30
0.0
 40
0.5
210
0.0
220
0.0
230
1.0
100
AcDbArc
 50
175.000006
 51
84.999997
  0
LINE
  5
8D
100
AcDbEntity
  8
0
370
    35
390
0
 62
     7
 48
0.10125
100
AcDbLine
 10
5.438522
 20
151.438538
 30
0.0
 11
9.473106
 21
151.085556
 31
0.0
210
0.0
220
0.0
230
1.0
  0
ARC
  5
8E
100
AcDbEntity
  8
0
370
    35
390
0
 62
     7
100
AcDbCircle
 10
4.940422
 20
151.482117
 30
0.0
 40
0.5
210
0.0
220
0.0
230
1.0
100
AcDbArc
 50
84.999997
 51
355.0
  0
LINE
  5
8F
100
AcDbEntity
  8
0
370
    35
390
0
 62
     7
 48
0.05125
100
AcDbLine
 10
19.667191
 20
159.177872
 30
0.0
 11
19.845863
 21
161.220078
 31
0.0
210
0.0
220
0.0
230
1.0
  0
ARC
  5
90
100
AcDbEntity
  8
0
370
    35
390
0
 62
     7
100
AcDbCircle
 10
19.889442
 20
161.71817
 30
0.0
 40
0.5
210
0.0
220
0.0
230
1.0
100
AcDbArc
 50
355.0
 51
264.999998
  0
LINE
  5
91
100
AcDbEntity
  8
0
370
    35
390
0
 62
     7
 48
0.10125
100
AcDbLine
 10
24.422127
 20
161.321609
 30
0.0
 11
20.387535
 21
161.674591
 31
0.0
210
0.0
220
0.0
230
1.0
  0
ARC
  5
92
100
AcDbEntity
  8
0
370
    35
390
0
 62
     7
100
AcDbCircle
 10
24.920219
 20
161.27803
 30
0.0
 40
0.5
210
0.0
220
0.0
230
1.0
100
AcDbArc
 50
264.999998
 51
175.000006
  0
LINE
  5
93
100
AcDbEntity
  8
0
370
    35
390
0
 62
     7
 48
0.05125
100
AcDbLine
 10
24.697975
 20
158.737747
 30
0.0
 11
24.876648
 21
160.779938
 31
0.0
210
0.0
220
0.0
230
1.0
  0
ARC
  5
94
100
AcDbEntity
  8
0
370
    35
390
0
 62
     7
100
AcDbCircle
 10
24.654396
 20
158.239639
 30
0.0
 40
0.5
210
0.0
220
0.0
230
1.0
100
AcDbArc
 50
175.000006
 51
84.999997
  0
LINE
  5
95
100
AcDbEntity
  8
0
370
    35
390
0
 62
     7
 48
0.10125
100
AcDbLine
 10
24.156303
 20
158.283218
 30
0.0
 11
20.121712
 21
158.6362
 31
0.0
210
0.0
220
0.0
230
1.0
  0
ARC
  5
96
100
AcDbEntity
  8
0
370
    35
390
0
 62
     7
100
AcDbCircle
 10
19.623611
 20
158.679779
 30
0.0
 40
0.5
210
0.0
220
0.0
230
1.0
100
AcDbArc
 50
84.999997
 51
355.0
  0
ARC
  5
97
100
AcDbEntity
  8
0
370
    35
390
0
 62
     7
100
AcDbCircle
 10
18.887146
 20
150.261932
 30
0.0
 40
0.5
210
0.0
220
0.0
230
1.0
100
AcDbArc
 50
84.999997
 51
355.0
  0
LINE
  5
98
100
AcDbEntity
  8
0
370
    35
390
0
 62
     7
 48
0.05125
100
AcDbLine
 10
19.109398
 20
152.802231
 30
0.0
 11
18.930725
 21
150.760025
 31
0.0
210
0.0
220
0.0
230
1.0
  0
ARC
  5
99
100
AcDbEntity
  8
0
370
    35
390
0
 62
     7
100
AcDbCircle
 10
19.152969
 20
153.300323
 30
0.0
 40
0.5
210
0.0
220
0.0
230
1.0
100
AcDbArc
 50
355.0
 51
264.999998
  0
LINE
  5
9A
100
AcDbEntity
  8
0
370
    35
390
0
 62
     7
 48
0.10125
100
AcDbLine
 10
23.685661
 20
152.903763
 30
0.0
 11
19.65107
 21
153.256744
 31
0.0
210
0.0
220
0.0
230
1.0
  0
ARC
  5
9B
100
AcDbEntity
  8
0
370
    35
390
0
 62
     7
100
AcDbCircle
 10
24.183754
 20
152.860199
 30
0.0
 40
0.5
210
0.0
220
0.0
230
1.0
100
AcDbArc
 50
264.999998
 51
175.000006
  0
LINE
  5
9C
100
AcDbEntity
  8
0
370
    35
390
0
 62
     7
 48
0.05125
100
AcDbLine
 10
24.140175
 20
152.362091
 30
0.0
 11
23.96151
 21
150.319901
 31
0.0
210
0.0
220
0.0
230
1.0
  0
ARC
  5
9D
100
AcDbEntity
  8
0
370
    35
390
0
 62
     7
100
AcDbCircle
 10
23.917931
 20
149.821793
 30
0.0
 40
0.5
210
0.0
220
0.0
230
1.0
100
AcDbArc
 50
175.000006
 51
84.999997
  0
LINE
  5
9E
100
AcDbEntity
  8
0
370
    35
390
0
 62
     7
 48
0.10125
100
AcDbLine
 10
23.41983
 20
149.865372
 30
0.0
 11
19.385246
 21
150.218353
 31
0.0
210
0.0
220
0.0
230
1.0
  0
CIRCLE
  5
9F
100
AcDbEntity
  8
0
370
    35
390
0
 62
     7
100
AcDbCircle
 10
91.777977
 20
45.848022
 30
0.0
 40
1.5
210
0.0
220
0.0
230
1.0
  0
CIRCLE
  5
A0
100
AcDbEntity
  8
0
370
    35
390
0
 62
     7
100
AcDbCircle
 10
100.195824
 20
45.111557
 30
0.0
 40
1.5
210
0.0
220
0.0
230
1.0
  0
CIRCLE
  5
A1
100
AcDbEntity
  8
0
370
    35
390
0
 62
     7
100
AcDbCircle
 10
97.068825
 20
57.846283
 30
0.0
 40
2.5
210
0.0
220
0.0
230
1.0
  0
CIRCLE
  5
A2
100
AcDbEntity
  8
0
370
    35
390
0
 62
     7
100
AcDbCircle
 10
65.339844
 20
76.683327
 30
0.0
 40
2.0
210
0.0
220
0.0
230
1.0
  0
CIRCLE
  5
A3
100
AcDbEntity
  8
0
370
    35
390
0
 62
     7
100
AcDbCircle
 10
131.586792
 20
70.887474
 30
0.0
 40
2.0
210
0.0
220
0.0
230
1.0
  0
ARC
  5
A4
100
AcDbEntity
  8
0
370
    35
390
0
 62
     7
100
AcDbCircle
 10
93.600037
 20
49.176888
 30
0.0
 40
0.5
210
0.0
220
0.0
230
1.0
100
AcDbArc
 50
175.000006
 51
84.999997
  0
LINE
  5
A5
100
AcDbEntity
  8
0
370
    35
390
0
 62
     7
 48
0.05125
100
AcDbLine
 10
93.101944
 20
49.220467
 30
0.0
 11
91.059746
 21
49.399132
 31
0.0
210
0.0
220
0.0
230
1.0
  0
ARC
  5
A6
100
AcDbEntity
  8
0
370
    35
390
0
 62
     7
100
AcDbCircle
 10
90.561646
 20
49.442711
 30
0.0
 40
0.5
210
0.0
220
0.0
230
1.0
100
AcDbArc
 50
84.999997
 51
355.0
  0
LINE
  5
A7
100
AcDbEntity
  8
0
370
    35
390
0
 62
     7
 48
0.10125
100
AcDbLine
 10
90.605225
 20
49.940811
 30
0.0
 11
90.958206
 21
53.975403
 31
0.0
210
0.0
220
0.0
230
1.0
  0
ARC
  5
A8
100
AcDbEntity
  8
0
370
    35
390
0
 62
     7
100
AcDbCircle
 10
91.001785
 20
54.473495
 30
0.0
 40
0.5
210
0.0
220
0.0
230
1.0
100
AcDbArc
 50
355.0
 51
264.999998
  0
LINE
  5
A9
100
AcDbEntity
  8
0
370
    35
390
0
 62
     7
 48
0.05125
100
AcDbLine
 10
93.542076
 20
54.251251
 30
0.0
 11
91.499878
 21
54.429916
 31
0.0
210
0.0
220
0.0
230
1.0
  0
ARC
  5
AA
100
AcDbEntity
  8
0
370
    35
390
0
 62
     7
100
AcDbCircle
 10
94.040176
 20
54.207672
 30
0.0
 40
0.5
210
0.0
220
0.0
230
1.0
100
AcDbArc
 50
264.999998
 51
175.000006
  0
LINE
  5
AB
100
AcDbEntity
  8
0
370
    35
390
0
 62
     7
 48
0.10125
100
AcDbLine
 10
93.643616
 20
49.674988
 30
0.0
 11
93.996597
 21
53.709572
 31
0.0
210
0.0
220
0.0
230
1.0
  0
LINE
  5
AC
100
AcDbEntity
  8
0
370
    35
390
0
 62
     7
 48
0.05125
100
AcDbLine
 10
99.477585
 20
48.662666
 30
0.0
 11
101.519791
 21
48.484001
 31
0.0
210
0.0
220
0.0
230
1.0
  0
ARC
  5
AD
100
AcDbEntity
  8
0
370
    35
390
0
 62
     7
100
AcDbCircle
 10
98.979492
 20
48.706245
 30
0.0
 40
0.5
210
0.0
220
0.0
230
1.0
100
AcDbArc
 50
84.999997
 51
355.0
  0
LINE
  5
AE
100
AcDbEntity
  8
0
370
    35
390
0
 62
     7
 48
0.10125
100
AcDbLine
 10
99.023071
 20
49.204346
 30
0.0
 11
99.376053
 21
53.23893
 31
0.0
210
0.0
220
0.0
230
1.0
  0
ARC
  5
AF
100
AcDbEntity
  8
0
370
    35
390
0
 62
     7
100
AcDbCircle
 10
99.419632
 20
53.73703
 30
0.0
 40
0.5
210
0.0
220
0.0
230
1.0
100
AcDbArc
 50
355.0
 51
264.999998
  0
LINE
  5
B0
100
AcDbEntity
  8
0
370
    35
390
0
 62
     7
 48
0.05125
100
AcDbLine
 10
99.917725
 20
53.693451
 30
0.0
 11
101.959923
 21
53.514786
 31
0.0
210
0.0
220
0.0
230
1.0
  0
ARC
  5
B1
100
AcDbEntity
  8
0
370
    35
390
0
 62
     7
100
AcDbCircle
 10
102.458023
 20
53.471207
 30
0.0
 40
0.5
210
0.0
220
0.0
230
1.0
100
AcDbArc
 50
264.999998
 51
175.000006
  0
LINE
  5
B2
100
AcDbEntity
  8
0
370
    35
390
0
 62
     7
 48
0.10125
100
AcDbLine
 10
102.061462
 20
48.938522
 30
0.0
 11
102.414444
 21
52.973106
 31
0.0
210
0.0
220
0.0
230
1.0
  0
ARC
  5
B3
100
AcDbEntity
  8
0
370
    35
390
0
 62
     7
100
AcDbCircle
 10
102.017883
 20
48.440422
 30
0.0
 40
0.5
210
0.0
220
0.0
230
1.0
100
AcDbArc
 50
175.000006
 51
84.999997
  0
LINE
  5
B4
100
AcDbEntity
  8
0
370
    35
390
0
 62
     7
 48
0.05125
100
AcDbLine
 10
94.322121
 20
63.167191
 30
0.0
 11
92.279922
 21
63.345863
 31
0.0
210
0.0
220
0.0
230
1.0
  0
ARC
  5
B5
100
AcDbEntity
  8
0
370
    35
390
0
 62
     7
100
AcDbCircle
 10
91.78183
 20
63.389442
 30
0.0
 40
0.5
210
0.0
220
0.0
230
1.0
100
AcDbArc
 50
84.999997
 51
355.0
  0
LINE
  5
B6
100
AcDbEntity
  8
0
370
    35
390
0
 62
     7
 48
0.10125
100
AcDbLine
 10
92.178383
 20
67.922127
 30
0.0
 11
91.825401
 21
63.887535
 31
0.0
210
0.0
220
0.0
230
1.0
  0
ARC
  5
B7
100
AcDbEntity
  8
0
370
    35
390
0
 62
     7
100
AcDbCircle
 10
92.221962
 20
68.420219
 30
0.0
 40
0.5
210
0.0
220
0.0
230
1.0
100
AcDbArc
 50
355.0
 51
264.999998
  0
LINE
  5
B8
100
AcDbEntity
  8
0
370
    35
390
0
 62
     7
 48
0.05125
100
AcDbLine
 10
94.76226
 20
68.197975
 30
0.0
 11
92.720062
 21
68.376648
 31
0.0
210
0.0
220
0.0
230
1.0
  0
ARC
  5
B9
100
AcDbEntity
  8
0
370
    35
390
0
 62
     7
100
AcDbCircle
 10
95.260361
 20
68.154396
 30
0.0
 40
0.5
210
0.0
220
0.0
230
1.0
100
AcDbArc
 50
264.999998
 51
175.000006
  0
LINE
  5
BA
100
AcDbEntity
  8
0
370
    35
390
0
 62
     7
 48
0.10125
100
AcDbLine
 10
95.216782
 20
67.656303
 30
0.0
 11
94.8638
 21
63.621712
 31
0.0
210
0.0
220
0.0
230
1.0
  0
ARC
  5
BB
100
AcDbEntity
  8
0
370
    35
390
0
 62
     7
100
AcDbCircle
 10
94.820221
 20
63.123611
 30
0.0
 40
0.5
210
0.0
220
0.0
230
1.0
100
AcDbArc
 50
175.000006
 51
84.999997
  0
ARC
  5
BC
100
AcDbEntity
  8
0
370
    35
390
0
 62
     7
100
AcDbCircle
 10
103.238068
 20
62.387146
 30
0.0
 40
0.5
210
0.0
220
0.0
230
1.0
100
AcDbArc
 50
175.000006
 51
84.999997
  0
LINE
  5
BD
100
AcDbEntity
  8
0
370
    35
390
0
 62
     7
 48
0.05125
100
AcDbLine
 10
100.697769
 20
62.609398
 30
0.0
 11
102.739967
 21
62.430725
 31
0.0
210
0.0
220
0.0
230
1.0
  0
ARC
  5
BE
100
AcDbEntity
  8
0
370
    35
390
0
 62
     7
100
AcDbCircle
 10
100.199669
 20
62.652969
 30
0.0
 40
0.5
210
0.0
220
0.0
230
1.0
100
AcDbArc
 50
84.999997
 51
355.0
  0
LINE
  5
BF
100
AcDbEntity
  8
0
370
    35
390
0
 62
     7
 48
0.10125
100
AcDbLine
 10
100.59623
 20
67.185661
 30
0.0
 11
100.243248
 21
63.15107
 31
0.0
210
0.0
220
0.0
230
1.0
  0
ARC
  5
C0
100
AcDbEntity
  8
0
370
    35
390
0
 62
     7
100
AcDbCircle
 10
100.639809
 20
67.683754
 30
0.0
 40
0.5
210
0.0
220
0.0
230
1.0
100
AcDbArc
 50
355.0
 51
264.999998
  0
LINE
  5
C1
100
AcDbEntity
  8
0
370
    35
390
0
 62
     7
 48
0.05125
100
AcDbLine
 10
101.137909
 20
67.640175
 30
0.0
 11
103.180107
 21
67.46151
 31
0.0
210
0.0
220
0.0
230
1.0
  0
ARC
  5
C2
100
AcDbEntity
  8
0
370
    35
390
0
 62
     7
100
AcDbCircle
 10
103.6782
 20
67.417931
 30
0.0
 40
0.5
210
0.0
220
0.0
230
1.0
100
AcDbArc
 50
264.999998
 51
175.000006
  0
LINE
  5
C3
100
AcDbEntity
  8
0
370
    35
390
0
 62
     7
 48
0.10125
100
AcDbLine
 10
103.634621
 20
66.91983
 30
0.0
 11
103.281647
 21
62.885246
 31
0.0
210
0.0
220
0.0
230
1.0
  0
CIRCLE
  5
C4
100
AcDbEntity
  8
0
370
    35
390
0
 62
     7
100
AcDbCircle
 10
207.651978
 20
135.277985
 30
0.0
 40
1.5
210
0.0
220
0.0
230
1.0
  0
CIRCLE
  5
C5
100
AcDbEntity
  8
0
370
    35
390
0
 62
     7
100
AcDbCircle
 10
208.388443
 20
143.695816
 30
0.0
 40
1.5
210
0.0
220
0.0
230
1.0
  0
CIRCLE
  5
C6
100
AcDbEntity
  8
0
370
    35
390
0
 62
     7
100
AcDbCircle
 10
195.653717
 20
140.568832
 30
0.0
 40
2.5
210
0.0
220
0.0
230
1.0
  0
CIRCLE
  5
C7
100
AcDbEntity
  8
0
370
    35
390
0
 62
     7
100
AcDbCircle
 10
176.816681
 20
108.839844
 30
0.0
 40
2.0
210
0.0
220
0.0
230
1.0
  0
CIRCLE
  5
C8
100
AcDbEntity
  8
0
370
    35
390
0
 62
     7
100
AcDbCircle
 10
182.612518
 20
175.086792
 30
0.0
 40
2.0
210
0.0
220
0.0
230
1.0
  0
ARC
  5
C9
100
AcDbEntity
  8
0
370
    35
390
0
 62
     7
100
AcDbCircle
 10
204.32312
 20
137.100037
 30
0.0
 40
0.5
210
0.0
220
0.0
230
1.0
100
AcDbArc
 50
264.999998
 51
175.000006
  0
LINE
  5
CA
100
AcDbEntity
  8
0
370
    35
390
0
 62
     7
 48
0.05125
100
AcDbLine
 10
204.279541
 20
136.601944
 30
0.0
 11
204.100861
 21
134.559738
 31
0.0
210
0.0
220
0.0
230
1.0
  0
ARC
  5
CB
100
AcDbEntity
  8
0
370
    35
390
0
 62
     7
100
AcDbCircle
 10
204.057281
 20
134.061646
 30
0.0
 40
0.5
210
0.0
220
0.0
230
1.0
100
AcDbArc
 50
175.000006
 51
84.999997
  0
LINE
  5
CC
100
AcDbEntity
  8
0
370
    35
390
0
 62
     7
 48
0.10125
100
AcDbLine
 10
203.559189
 20
134.105225
 30
0.0
 11
199.524597
 21
134.458206
 31
0.0
210
0.0
220
0.0
230
1.0
  0
ARC
  5
CD
100
AcDbEntity
  8
0
370
    35
390
0
 62
     7
100
AcDbCircle
 10
199.026505
 20
134.501785
 30
0.0
 40
0.5
210
0.0
220
0.0
230
1.0
100
AcDbArc
 50
84.999997
 51
355.0
  0
LINE
  5
CE
100
AcDbEntity
  8
0
370
    35
390
0
 62
     7
 48
0.05125
100
AcDbLine
 10
199.248749
 20
137.042084
 30
0.0
 11
199.070084
 21
134.999878
 31
0.0
210
0.0
220
0.0
230
1.0
  0
ARC
  5
CF
100
AcDbEntity
  8
0
370
    35
390
0
 62
     7
100
AcDbCircle
 10
199.292328
 20
137.540176
 30
0.0
 40
0.5
210
0.0
220
0.0
230
1.0
100
AcDbArc
 50
355.0
 51
264.999998
  0
LINE
  5
D0
100
AcDbEntity
  8
0
370
    35
390
0
 62
     7
 48
0.10125
100
AcDbLine
 10
203.825012
 20
137.143616
 30
0.0
 11
199.790436
 21
137.496597
 31
0.0
210
0.0
220
0.0
230
1.0
  0
LINE
  5
D1
100
AcDbEntity
  8
0
370
    35
390
0
 62
     7
 48
0.05125
100
AcDbLine
 10
204.837341
 20
142.977585
 30
0.0
 11
205.015991
 21
145.019791
 31
0.0
210
0.0
220
0.0
230
1.0
  0
ARC
  5
D2
100
AcDbEntity
  8
0
370
    35
390
0
 62
     7
100
AcDbCircle
 10
204.793762
 20
142.479492
 30
0.0
 40
0.5
210
0.0
220
0.0
230
1.0
100
AcDbArc
 50
175.000006
 51
84.999997
  0
LINE
  5
D3
100
AcDbEntity
  8
0
370
    35
390
0
 62
     7
 48
0.10125
100
AcDbLine
 10
204.295654
 20
142.523071
 30
0.0
 11
200.261078
 21
142.876053
 31
0.0
210
0.0
220
0.0
230
1.0
  0
ARC
  5
D4
100
AcDbEntity
  8
0
370
    35
390
0
 62
     7
100
AcDbCircle
 10
199.76297
 20
142.919632
 30
0.0
 40
0.5
210
0.0
220
0.0
230
1.0
100
AcDbArc
 50
84.999997
 51
355.0
  0
LINE
  5
D5
100
AcDbEntity
  8
0
370
    35
390
0
 62
     7
 48
0.05125
100
AcDbLine
 10
199.806549
 20
143.417725
 30
0.0
 11
199.985214
 21
145.45993
 31
0.0
210
0.0
220
0.0
230
1.0
  0
ARC
  5
D6
100
AcDbEntity
  8
0
370
    35
390
0
 62
     7
100
AcDbCircle
 10
200.028793
 20
145.958023
 30
0.0
 40
0.5
210
0.0
220
0.0
230
1.0
100
AcDbArc
 50
355.0
 51
264.999998
  0
LINE
  5
D7
100
AcDbEntity
  8
0
370
    35
390
0
 62
     7
 48
0.10125
100
AcDbLine
 10
204.561478
 20
145.561462
 30
0.0
 11
200.526886
 21
145.914444
 31
0.0
210
0.0
220
0.0
230
1.0
  0
ARC
  5
D8
100
AcDbEntity
  8
0
370
    35
390
0
 62
     7
100
AcDbCircle
 10
205.05957
 20
145.517883
 30
0.0
 40
0.5
210
0.0
220
0.0
230
1.0
100
AcDbArc
 50
264.999998
 51
175.000006
  0
LINE
  5
D9
100
AcDbEntity
  8
0
370
    35
390
0
 62
     7
 48
0.05125
100
AcDbLine
 10
190.332809
 20
137.822128
 30
0.0
 11
190.154144
 21
135.779922
 31
0.0
210
0.0
220
0.0
230
1.0
  0
ARC
  5
DA
100
AcDbEntity
  8
0
370
    35
390
0
 62
     7
100
AcDbCircle
 10
190.110565
 20
135.28183
 30
0.0
 40
0.5
210
0.0
220
0.0
230
1.0
100
AcDbArc
 50
175.000006
 51
84.999997
  0
LINE
  5
DB
100
AcDbEntity
  8
0
370
    35
390
0
 62
     7
 48
0.10125
100
AcDbLine
 10
185.577881
 20
135.678391
 30
0.0
 11
189.612457
 21
135.325409
 31
0.0
210
0.0
220
0.0
230
1.0
  0
ARC
  5
DC
100
AcDbEntity
  8
0
370
    35
390
0
 62
     7
100
AcDbCircle
 10
185.079773
 20
135.72197
 30
0.0
 40
0.5
210
0.0
220
0.0
230
1.0
100
AcDbArc
 50
84.999997
 51
355.0
  0
LINE
  5
DD
100
AcDbEntity
  8
0
370
    35
390
0
 62
     7
 48
0.05125
100
AcDbLine
 10
185.302032
 20
138.262253
 30
0.0
 11
185.123352
 21
136.220062
 31
0.0
210
0.0
220
0.0
230
1.0
  0
ARC
  5
DE
100
AcDbEntity
  8
0
370
    35
390
0
 62
     7
100
AcDbCircle
 10
185.345612
 20
138.760361
 30
0.0
 40
0.5
210
0.0
220
0.0
230
1.0
100
AcDbArc
 50
355.0
 51
264.999998
  0
LINE
  5
DF
100
AcDbEntity
  8
0
370
    35
390
0
 62
     7
 48
0.10125
100
AcDbLine
 10
185.843689
 20
138.716782
 30
0.0
 11
189.878296
 21
138.3638
 31
0.0
210
0.0
220
0.0
230
1.0
  0
ARC
  5
E0
100
AcDbEntity
  8
0
370
    35
390
0
 62
     7
100
AcDbCircle
 10
190.376389
 20
138.320221
 30
0.0
 40
0.5
210
0.0
220
0.0
230
1.0
100
AcDbArc
 50
264.999998
 51
175.000006
  0
ARC
  5
E1
100
AcDbEntity
  8
0
370
    35
390
0
 62
     7
100
AcDbCircle
 10
191.112854
 20
146.738068
 30
0.0
 40
0.5
210
0.0
220
0.0
230
1.0
100
AcDbArc
 50
264.999998
 51
175.000006
  0
LINE
  5
E2
100
AcDbEntity
  8
0
370
    35
390
0
 62
     7
 48
0.05125
100
AcDbLine
 10
190.890594
 20
144.197769
 30
0.0
 11
191.069275
 21
146.239975
 31
0.0
210
0.0
220
0.0
230
1.0
  0
ARC
  5
E3
100
AcDbEntity
  8
0
370
    35
390
0
 62
     7
100
AcDbCircle
 10
190.847031
 20
143.699677
 30
0.0
 40
0.5
210
0.0
220
0.0
230
1.0
100
AcDbArc
 50
175.000006
 51
84.999997
  0
LINE
  5
E4
100
AcDbEntity
  8
0
370
    35
390
0
 62
     7
 48
0.10125
100
AcDbLine
 10
186.314331
 20
144.096237
 30
0.0
 11
190.348938
 21
143.743256
 31
0.0
210
0.0
220
0.0
230
1.0
  0
ARC
  5
E5
100
AcDbEntity
  8
0
370
    35
390
0
 62
     7
100
AcDbCircle
 10
185.816254
 20
144.139801
 30
0.0
 40
0.5
210
0.0
220
0.0
230
1.0
100
AcDbArc
 50
84.999997
 51
355.0
  0
LINE
  5
E6
100
AcDbEntity
  8
0
370
    35
390
0
 62
     7
 48
0.05125
100
AcDbLine
 10
185.859833
 20
144.637909
 30
0.0
 11
186.038483
 21
146.680099
 31
0.0
210
0.0
220
0.0
230
1.0
  0
ARC
  5
E7
100
AcDbEntity
  8
0
370
    35
390
0
 62
     7
100
AcDbCircle
 10
186.082062
 20
147.178207
 30
0.0
 40
0.5
210
0.0
220
0.0
230
1.0
100
AcDbArc
 50
355.0
 51
264.999998
  0
LINE
  5
E8
100
AcDbEntity
  8
0
370
    35
390
0
 62
     7
 48
0.10125
100
AcDbLine
 10
186.58017
 20
147.134628
 30
0.0
 11
190.614746
 21
146.781647
 31
0.0
210
0.0
220
0.0
230
1.0
  0
CIRCLE
  5
E9
100
AcDbEntity
  8
0
370
    35
390
0
 62
     7
100
AcDbCircle
 10
28.395554
 20
84.221237
 30
0.0
 40
2.0
210
0.0
220
0.0
230
1.0
  0
CIRCLE
  5
EA
100
AcDbEntity
  8
0
370
    35
390
0
 62
     7
100
AcDbCircle
 10
169.278763
 20
71.895554
 30
0.0
 40
2.0
210
0.0
220
0.0
230
1.0
  0
CIRCLE
  5
EB
100
AcDbEntity
  8
0
370
    35
390
0
 62
     7
100
AcDbCircle
 10
181.604446
 20
212.778763
 30
0.0
 40
2.0
210
0.0
220
0.0
230
1.0
  0
ENDSEC
  0
SECTION
  2
OBJECTS
  0
DICTIONARY
  5
19
100
AcDbDictionary
280
     0
281
     1
  3
ACAD_GROUP
350
1A
  3
ACAD_MLINESTYLE
350
1B
  3
ACAD_LAYOUT
350
1E
  3
ACAD_PLOTSETTINGS
350
22
  3
ACAD_PLOTSTYLENAME
350
1F
  3
ACAD_WIPEOUT_VARS
350
23
  0
DICTIONARY
  5
1A
102
{ACAD_REACTORS
330
19
102
}
100
AcDbDictionary
280
     0
281
     1
  0
DICTIONARY
  5
1B
102
{ACAD_REACTORS
330
19
102
}
100
AcDbDictionary
280
     0
281
     1
  3
Standard
350
1C
  0
MLINESTYLE
  5
1C
102
{ACAD_REACTORS
330
1B
102
}
100
AcDbMlineStyle
  2
Standard
 70
     0
  3

 62
     0
 51
90.0
 52
90.0
 71
     2
 49
0.5
 62
   256
  6
ByLayer
 49
-0.5
 62
   256
  6
ByLayer
  0
ACDBDICTIONARYWDFLT
  5
1F
102
{ACAD_REACTORS
330
19
102
}
100
AcDbDictionary
281
     1
  3
Normal
350
1D
100
AcDbDictionaryWithDefault
340
1D
  0
ACDBPLACEHOLDER
  5
1D
102
{ACAD_REACTORS
330
1F
102
}
  0
LAYOUT
  5
20
102
{ACAD_REACTORS
330
1E
102
}
100
AcDbPlotSettings
  1

  2

  4

  6

 40
0.0
 41
0.0
 42
0.0
 43
0.0
 44
0.0
 45
0.0
 46
0.0
 47
0.0
 48
0.0
 49
0.0
140
0.0
141
0.0
142
1.0
143
1.0
 70
  1024
 72
     0
 73
     0
 74
     0
  7

 75
     0
147
1.0
148
0.0
149
0.0
100
AcDbLayout
  1
Model
 70
     0
 71
     0
 10
0.0
 20
0.0
 11
0.0
 21
0.0
 12
0.0
 22
0.0
 32
0.0
 14
0.0
 24
0.0
 34
0.0
 15
0.0
 25
0.0
 35
0.0
146
0.0
 13
0.0
 23
0.0
 33
0.0
 16
0.0
 26
0.0
 36
0.0
 17
0.0
 27
0.0
 37
0.0
 76
     0
330
A
331
0
345
0
346
0
  0
LAYOUT
  5
21
102
{ACAD_REACTORS
330
1E
102
}
100
AcDbPlotSettings
  1

  2

  4

  6

 40
0.0
 41
0.0
 42
0.0
 43
0.0
 44
0.0
 45
0.0
 46
0.0
 47
0.0
 48
0.0
 49
0.0
140
0.0
141
0.0
142
1.0
143
1.0
 70
     0
 72
     0
 73
     0
 74
     0
  7

 75
     0
147
1.0
148
0.0
149
0.0
100
AcDbLayout
  1
Layout1
 70
     0
 71
     0
 10
0.0
 20
0.0
 11
0.0
 21
0.0
 12
0.0
 22
0.0
 32
0.0
 14
0.0
 24
0.0
 34
0.0
 15
0.0
 25
0.0
 35
0.0
146
0.0
 13
0.0
 23
0.0
 33
0.0
 16
0.0
 26
0.0
 36
0.0
 17
0.0
 27
0.0
 37
0.0
 76
     0
330
B
331
0
345
0
346
0
  0
DICTIONARY
  5
1E
102
{ACAD_REACTORS
330
19
102
}
100
AcDbDictionary
280
     0
281
     1
  3
Layout1
350
21
  3
Model
350
20
  0
DICTIONARY
  5
22
102
{ACAD_REACTORS
330
19
102
}
100
AcDbDictionary
280
     0
281
     1
  0
WIPEOUTVARIABLES
  5
23
100
AcDbWipeoutVariables
 70
     1
  0
ENDSEC
  0
EOF
