  0
SECTION
  2
HEADER
  9
$ACADVER
  1
AC1015
  9
$ACADMAINTVER
 70
     6
  9
$DWGCODEPAGE
  3
ANSI_1252
  9
$INSBASE
 10
0.0
 20
0.0
 30
0.0
  9
$EXTMIN
 10
0.0
 20
0.0
 30
0.0
  9
$EXTMAX
 10
232.5
 20
396.0
 30
2.0
  9
$LIMMIN
 10
0.0
 20
0.0
  9
$LIMMAX
 10
420.0
 20
297.0
  9
$ORTHOMODE
 70
     0
  9
$REGENMODE
 70
     1
  9
$FILLMODE
 70
     1
  9
$QTEXTMODE
 70
     0
  9
$MIRRTEXT
 70
     1
  9
$LTSCALE
 40
1.0
  9
$ATTMODE
 70
     1
  9
$TEXTSIZE
 40
2.5
  9
$TRACEWID
 40
1.0
  9
$TEXTSTYLE
  7
Standard
  9
$CLAYER
  8
0
  9
$CELTYPE
  6
ByLayer
  9
$CECOLOR
 62
   256
  9
$CELTSCALE
 40
1.0
  9
$DISPSILH
 70
     0
  9
$DIMSCALE
 40
1.0
  9
$DIMASZ
 40
2.5
  9
$DIMEXO
 40
0.625
  9
$DIMDLI
 40
3.75
  9
$DIMRND
 40
0.0
  9
$DIMDLE
 40
0.0
  9
$DIMEXE
 40
1.25
  9
$DIMTP
 40
0.0
  9
$DIMTM
 40
0.0
  9
$DIMTXT
 40
2.5
  9
$DIMCEN
 40
2.5
  9
$DIMTSZ
 40
0.0
  9
$DIMTOL
 70
     0
  9
$DIMLIM
 70
     0
  9
$DIMTIH
 70
     0
  9
$DIMTOH
 70
     0
  9
$DIMSE1
 70
     0
  9
$DIMSE2
 70
     0
  9
$DIMTAD
 70
     1
  9
$DIMZIN
 70
     8
  9
$DIMBLK
  1

  9
$DIMASO
 70
     1
  9
$DIMSHO
 70
     1
  9
$DIMPOST
  1

  9
$DIMAPOST
  1

  9
$DIMALT
 70
     0
  9
$DIMALTD
 70
     3
  9
$DIMALTF
 40
0.03937
  9
$DIMLFAC
 40
1.0
  9
$DIMTOFL
 70
     1
  9
$DIMTVP
 40
0.0
  9
$DIMTIX
 70
     0
  9
$DIMSOXD
 70
     0
  9
$DIMSAH
 70
     0
  9
$DIMBLK1
  1

  9
$DIMBLK2
  1

  9
$DIMSTYLE
  2

  9
$DIMCLRD
 70
     0
  9
$DIMCLRE
 70
     0
  9
$DIMCLRT
 70
     0
  9
$DIMTFAC
 40
1.0
  9
$DIMGAP
 40
0.625
  9
$DIMJUST
 70
     0
  9
$DIMSD1
 70
     0
  9
$DIMSD2
 70
     0
  9
$DIMTOLJ
 70
     0
  9
$DIMTZIN
 70
     8
  9
$DIMALTZ
 70
     0
  9
$DIMALTTZ
 70
     0
  9
$DIMUPT
 70
     0
  9
$DIMDEC
 70
     2
  9
$DIMTDEC
 70
     2
  9
$DIMALTU
 70
     2
  9
$DIMALTTD
 70
     3
  9
$DIMTXSTY
  7
Standard
  9
$DIMAUNIT
 70
     0
  9
$DIMADEC
 70
     0
  9
$DIMALTRND
 40
0.0
  9
$DIMAZIN
 70
     0
  9
$DIMDSEP
 70
    44
  9
$DIMATFIT
 70
     0
  9
$DIMFRAC
 70
     0
  9
$DIMLDRBLK
  1

  9
$DIMLUNIT
 70
     2
  9
$DIMLWD
 70
    -2
  9
$DIMLWE
 70
    -2
  9
$DIMTMOVE
 70
     0
  9
$LUNITS
 70
     2
  9
$LUPREC
 70
     4
  9
$SKETCHINC
 40
1.0
  9
$FILLETRAD
 40
2.5
  9
$AUNITS
 70
     0
  9
$AUPREC
 70
     0
  9
$MENU
  1
.
  9
$ELEVATION
 40
0.0
  9
$PELEVATION
 40
0.0
  9
$THICKNESS
 40
0.0
  9
$LIMCHECK
 70
     0
  9
$CHAMFERA
 40
2.5
  9
$CHAMFERB
 40
2.5
  9
$CHAMFERC
 40
0.0
  9
$CHAMFERD
 40
0.0
  9
$SKPOLY
 70
     0
  9
$TDCREATE
 40
0.000000000
  9
$TDUCREATE
 40
0.000000000
  9
$TDUPDATE
 40
0.000000000
  9
$TDUUPDATE
 40
0.000000000
  9
$TDINDWG
 40
0.0000000000
  9
$TDUSRTIMER
 40
0.0000000000
  9
$USRTIMER
 70
     1
  9
$ANGBASE
 50
0.0
  9
$ANGDIR
 70
     0
  9
$PDMODE
 70
     0
  9
$PDSIZE
 40
0.0
  9
$PLINEWID
 40
0.0
  9
$SPLFRAME
 70
     0
  9
$SPLINETYPE
 70
     6
  9
$SPLINESEGS
 70
     8
  9
$HANDSEED
  5
99
  9
$SURFTAB1
 70
     6
  9
$SURFTAB2
 70
     6
  9
$SURFTYPE
 70
     6
  9
$SURFU
 70
     6
  9
$SURFV
 70
     6
  9
$UCSBASE
  2

  9
$UCSNAME
  2

  9
$UCSORG
 10
0.0
 20
0.0
 30
0.0
  9
$UCSXDIR
 10
1.0
 20
0.0
 30
0.0
  9
$UCSYDIR
 10
0.0
 20
1.0
 30
0.0
  9
$UCSORTHOREF
  2

  9
$UCSORTHOVIEW
 70
     1
  9
$UCSORGTOP
 10
0.0
 20
0.0
 30
0.0
  9
$UCSORGBOTTOM
 10
0.0
 20
0.0
 30
0.0
  9
$UCSORGLEFT
 10
0.0
 20
0.0
 30
0.0
  9
$UCSORGRIGHT
 10
0.0
 20
0.0
 30
0.0
  9
$UCSORGFRONT
 10
0.0
 20
0.0
 30
0.0
  9
$UCSORGBACK
 10
0.0
 20
0.0
 30
0.0
  9
$PUCSBASE
  2

  9
$PUCSNAME
  2

  9
$PUCSORG
 10
0.0
 20
0.0
 30
0.0
  9
$PUCSXDIR
 10
1.0
 20
0.0
 30
0.0
  9
$PUCSYDIR
 10
0.0
 20
1.0
 30
0.0
  9
$PUCSORTHOREF
  2

  9
$PUCSORTHOVIEW
 70
     0
  9
$PUCSORGTOP
 10
0.0
 20
0.0
 30
0.0
  9
$PUCSORGBOTTOM
 10
0.0
 20
0.0
 30
0.0
  9
$PUCSORGLEFT
 10
0.0
 20
0.0
 30
0.0
  9
$PUCSORGRIGHT
 10
0.0
 20
0.0
 30
0.0
  9
$PUCSORGFRONT
 10
0.0
 20
0.0
 30
0.0
  9
$PUCSORGBACK
 10
0.0
 20
0.0
 30
0.0
  9
$USERI1
 70
     0
  9
$USERI2
 70
     0
  9
$USERI3
 70
     0
  9
$USERI4
 70
     0
  9
$USERI5
 70
     0
  9
$USERR1
 40
0.0
  9
$USERR2
 40
0.0
  9
$USERR3
 40
0.0
  9
$USERR4
 40
0.0
  9
$USERR5
 40
0.0
  9
$WORLDVIEW
 70
     1
  9
$SHADEDGE
 70
     3
  9
$SHADEDIF
 70
    70
  9
$TILEMODE
 70
     1
  9
$MAXACTVP
 70
    48
  9
$PINSBASE
 10
0.0
 20
0.0
 30
0.0
  9
$PLIMCHECK
 70
     0
  9
$PEXTMIN
 10
0.0
 20
0.0
 30
0.0
  9
$PEXTMAX
 10
232.5
 20
396.0
 30
2.0
  9
$PLIMMIN
 10
0.0
 20
0.0
  9
$PLIMMAX
 10
420.0
 20
297.0
  9
$UNITMODE
 70
     0
  9
$VISRETAIN
 70
     0
  9
$PLINEGEN
 70
     0
  9
$PSLTSCALE
 70
     1
  9
$TREEDEPTH
 70
  3020
  9
$CMLSTYLE
  2
Standard
  9
$CMLJUST
 70
     0
  9
$CMLSCALE
 40
20.0
  9
$PROXYGRAPHICS
 70
     1
  9
$MEASUREMENT
 70
     1
  9
$CELWEIGHT
370
    -1
  9
$ENDCAPS
280
     0
  9
$JOINSTYLE
280
     0
  9
$LWDISPLAY
290
     0
  9
$INSUNITS
 70
     0
  9
$HYPERLINKBASE
  1

  9
$STYLESHEET
  1

  9
$XEDIT
290
     1
  9
$CEPSNTYPE
380
     0
  9
$PSTYLEMODE
290
     0
  9
$FINGERPRINTGUID
  2

  9
$VERSIONGUID
  2

  9
$EXTNAMES
290
     0
  9
$PSVPSCALE
 40
0.0
  0
ENDSEC
  0
SECTION
  2
CLASSES
  0
CLASS
  1
LWPOLYLINE
  2
AcDbPolyline
  3
AutoCAD 2000
 90
        0
280
     0
281
     1
  0
CLASS
  1
IMAGE
  2
AcDbRasterImage
  3
ISM
 90
      127
280
     0
281
     1
  0
CLASS
  1
OLE2FRAME
  2
AcDbOle2Frame
  3
AutoCAD 2000
 90
        0
280
     0
281
     1
  0
CLASS
  1
HATCH
  2
AcDbHatch
  3
AutoCAD 2000
 90
        0
280
     0
281
     1
  0
CLASS
  1
DICTIONARYVAR
  2
AcDbDictionaryVar
  3
AutoCAD 2000
 90
        0
280
     0
281
     0
  0
CLASS
  1
RASTERVARIABLES
  2
AcDbRasterVariables
  3
ISM
 90
        0
280
     0
281
     0
  0
CLASS
  1
IMAGEDEF
  2
AcDbRasterImageDef
  3
ISM
 90
        0
280
     0
281
     0
  0
CLASS
  1
IMAGEDEF_REACTOR
  2
AcDbRasterImageDefReactor
  3
ISM
 90
        1
280
     0
281
     0
  0
CLASS
  1
IDBUFFER
  2
AcDbIdBuffer
  3
AutoCAD 2000
 90
        0
280
     0
281
     0
  0
CLASS
  1
SPATIAL_FILTER
  2
AcDbSpatialFilter
  3
AutoCAD 2000
 90
        0
280
     0
281
     0
  0
CLASS
  1
XRECORD
  2
AcDbXrecord
  3
AutoCAD 2000
 90
        0
280
     0
281
     0
  0
CLASS
  1
SORTENTSTABLE
  2
AcDbSortentsTable
  3
AutoCAD 2000
 90
        0
280
     0
281
     0
  0
CLASS
  1
LAYER_INDEX
  2
AcDbLayerIndex
  3
AutoCAD 2000
 90
        0
280
     0
281
     0
  0
CLASS
  1
SPATIAL_INDEX
  2
AcDbSpatialIndex
  3
AutoCAD 2000
 90
        0
280
     0
281
     0
  0
CLASS
  1
OBJECT_PTR
  2
CAseDLPNTableRecord
  3
"ASE-LPNTableRecord"
 90
        1
280
     0
281
     0
  0
CLASS
  1
LAYOUT
  2
AcDbLayout
  3
AutoCAD 2000
 90
        0
280
     0
281
     0
  0
CLASS
  1
PLOTSETTINGS
  2
AcDbPlotSettings
  3
AutoCAD 2000
 90
        0
280
     0
281
     0
  0
CLASS
  1
ACDBDICTIONARYWDFLT
  2
AcDbDictionaryWithDefault
  3
AutoCAD 2000
 90
        0
280
     0
281
     0
  0
CLASS
  1
ACDBPLACEHOLDER
  2
AcDbPlaceHolder
  3
AutoCAD 2000
 90
        0
280
     0
281
     0
  0
CLASS
  1
VBA_PROJECT
  2
AcDbVbaProject
  3
acadvba
 90
        0
280
     0
281
     0
  0
CLASS
  1
WIPEOUT
  2
AcDbWipeout
  3
WipeOut|AutoCAD Express Tool|expresstools@autodesk.com
 90
      127
280
     0
281
     1
  0
CLASS
  1
WIPEOUTVARIABLES
  2
AcDbWipeoutVariables
  3
WipeOut|AutoCAD Express Tool|expresstools@autodesk.com
 90
        0
280
     0
281
     0
  0
CLASS
  1
RTEXT
  2
RText
  3
RText|AutoCAD Express Tool|expresstools@autodesk.com
 90
        0
280
     0
281
     1
  0
CLASS
  1
ARCALIGNEDTEXT
  2
AcDbArcAlignedText
  3
ATEXT|AutoCAD Express Tool|expresstools@autodesk.com
 90
        0
280
     0
281
     1
  0
ENDSEC
  0
SECTION
  2
TABLES
  0
TABLE
  2
VPORT
  5
7
100
AcDbSymbolTable
 70
     1
  0
VPORT
  5
15
100
AcDbSymbolTableRecord
100
AcDbViewportTableRecord
  2
*ACTIVE
 70
     0
 10
0.0
 20
0.0
 11
1.0
 21
1.0
 12
6.591288
 22
4.579184
 13
0.0
 23
0.0
 14
1.0
 24
1.0
 15
0.0
 25
0.0
 16
0.0
 26
0.0
 36
1.0
 17
0.0
 27
0.0
 37
0.0
 40
9.158369
 41
0.688564
 42
50.0
 43
0.0
 44
0.0
 50
0.0
 51
0.0
 71
     0
 72
   100
 73
     1
 74
     1
 75
     0
 76
     0
 77
     0
 78
     0
281
     0
 65
     0
110
0.0
120
0.0
130
0.0
111
1.0
121
0.0
131
0.0
112
0.0
122
1.0
132
0.0
345
0
346
0
 79
     0
146
0.0
  0
ENDTAB
  0
TABLE
  2
LTYPE
  5
4
100
AcDbSymbolTable
 70
     3
  0
LTYPE
  5
11
100
AcDbSymbolTableRecord
100
AcDbLinetypeTableRecord
  2
ByBlock
 70
    64
  3

 72
    65
 73
     0
 40
0.0
  0
LTYPE
  5
12
100
AcDbSymbolTableRecord
100
AcDbLinetypeTableRecord
  2
ByLayer
 70
    64
  3

 72
    65
 73
     0
 40
0.0
  0
LTYPE
  5
13
100
AcDbSymbolTableRecord
100
AcDbLinetypeTableRecord
  2
Continuous
 70
    64
  3
Solid line
 72
    65
 73
     0
 40
0.0
  0
ENDTAB
  0
TABLE
  2
LAYER
  5
2
100
AcDbSymbolTable
 70
     1
  0
LAYER
  5
14
100
AcDbSymbolTableRecord
100
AcDbLayerTableRecord
  2
0
 70
     0
 62
     7
  6
Continuous
290
     1
370
    -3
390
1D
  0
ENDTAB
  0
TABLE
  2
STYLE
  5
3
100
AcDbSymbolTable
 70
     1
  0
STYLE
  5
17
100
AcDbSymbolTableRecord
100
AcDbTextStyleTableRecord
  2
Standard
 70
     0
 40
0.0
 41
1.0
 50
0.0
 71
     0
 42
0.0
  3
txt
  4

  0
ENDTAB
  0
TABLE
  2
VIEW
  5
5
100
AcDbSymbolTable
 70
     0
  0
ENDTAB
  0
TABLE
  2
UCS
  5
6
100
AcDbSymbolTable
 70
     0
  0
ENDTAB
  0
TABLE
  2
APPID
  5
8
100
AcDbSymbolTable
 70
     1
  0
APPID
  5
16
100
AcDbSymbolTableRecord
100
AcDbRegAppTableRecord
  2
ACAD
 70
     0
  0
ENDTAB
  0
TABLE
  2
DIMSTYLE
  5
9
100
AcDbSymbolTable
 70
     1
100
AcDbDimStyleTable
 71
     0
  0
DIMSTYLE
105
18
100
AcDbSymbolTableRecord
100
AcDbDimStyleTableRecord
  2
Standard
 70
     0
  3

  4

 40
1.0
 41
0.18
 42
0.0625
 43
0.38
 44
0.18
 45
0.0
 46
0.0
 47
0.0
 48
0.0
 71
     0
 72
     0
 73
     1
 74
     1
 75
     0
 76
     0
 77
     0
 78
     0
 79
     0
140
0.18
141
0.09
142
0.0
143
25.4
144
1.0
145
0.0
146
1.0
147
0.09
148
0.0
170
     0
171
     2
172
     0
173
     0
174
     0
175
     0
176
     0
177
     0
178
     0
179
     0
271
     4
272
     4
273
     2
274
     2
275
     0
276
     0
277
     2
278
    46
279
     0
280
     0
281
     0
282
     0
283
     1
284
     0
285
     0
286
     0
288
     0
289
     3
340
17
341
0
342
0
343
0
344
0
371
    -2
372
    -2
  0
ENDTAB
  0
TABLE
  2
BLOCK_RECORD
  5
1
100
AcDbSymbolTable
 70
     0
  0
BLOCK_RECORD
  5
A
100
AcDbSymbolTableRecord
100
AcDbBlockTableRecord
  2
*MODEL_SPACE
340
20
  0
BLOCK_RECORD
  5
B
100
AcDbSymbolTableRecord
100
AcDbBlockTableRecord
  2
*PAPER_SPACE
340
21
  0
ENDTAB
  0
ENDSEC
  0
SECTION
  2
BLOCKS
  0
BLOCK
  5
D
100
AcDbEntity
  8
0
390
0
100
AcDbBlockBegin
  2
*MODEL_SPACE
 70
     0
 10
0.0
 20
0.0
 30
0.0
  3
*MODEL_SPACE
  1

  0
ENDBLK
  5
E
100
AcDbEntity
  8
0
390
0
100
AcDbBlockEnd
  0
BLOCK
  5
F
100
AcDbEntity
 67
     1
  8
0
390
0
100
AcDbBlockBegin
  2
*PAPER_SPACE
 70
     0
 10
0.0
 20
0.0
 30
0.0
  3
*PAPER_SPACE
  1

  0
ENDBLK
  5
10
100
AcDbEntity
 67
     1
  8
0
390
0
100
AcDbBlockEnd
  0
ENDSEC
  0
SECTION
  2
ENTITIES
  0
VIEWPORT
  5
98
100
AcDbEntity
 67
     1
  8
0
370
     0
390
0
 62
     0
 48
0.0
100
AcDbViewport
 10
0.0
 20
0.0
 30
0.0
 40
1000.0
 41
1000.0
 68
     1
 69
     1
 12
0.0
 22
0.0
 13
0.0
 23
0.0
 14
1.0
 24
1.0
 15
1.0
 25
1.0
 16
0.0
 26
0.0
 36
1.0
 17
0.0
 27
0.0
 37
0.0
 42
50.0
 43
0.0
 44
0.0
 45
1000.0
 50
0.0
 51
0.0
 72
   100
 90
        0
340
0
  1

281
     0
 71
     0
 74
     1
110
0.0
120
0.0
130
0.0
111
1.0
121
0.0
131
0.0
112
0.0
122
1.0
132
0.0
345
0
346
0
 79
     0
146
0.0
  0
ARC
  5
24
100
AcDbEntity
  8
0
370
    35
390
0
 62
     7
100
AcDbCircle
 10
116.098076
 20
343.123657
 30
0.0
 40
2.0
210
0.0
220
0.0
230
1.0
100
AcDbArc
 50
30.000001
 51
120.000003
  0
LINE
  5
25
100
AcDbEntity
  8
0
370
    35
390
0
 62
     7
100
AcDbLine
 10
128.330124
 20
325.937134
 30
0.0
 11
117.830124
 21
344.123657
 31
0.0
210
0.0
220
0.0
230
1.0
  0
ARC
  5
26
100
AcDbEntity
  8
0
370
    35
390
0
 62
     7
100
AcDbCircle
 10
126.598076
 20
324.937134
 30
0.0
 40
2.0
210
0.0
220
0.0
230
1.0
100
AcDbArc
 50
299.999998
 51
30.000001
  0
ARC
  5
27
100
AcDbEntity
  8
0
370
    35
390
0
 62
     7
100
AcDbCircle
 10
225.0
 20
148.5
 30
0.0
 40
177.5
210
0.0
220
0.0
230
1.0
100
AcDbArc
 50
143.583581
 51
156.416414
  0
ARC
  5
28
100
AcDbEntity
  8
0
370
    35
390
0
 62
     7
100
AcDbCircle
 10
225.0
 20
148.5
 30
0.0
 40
177.5
210
0.0
220
0.0
230
1.0
100
AcDbArc
 50
173.583589
 51
186.416411
  0
ARC
  5
29
100
AcDbEntity
  8
0
370
    35
390
0
 62
     7
100
AcDbCircle
 10
225.0
 20
148.5
 30
0.0
 40
177.5
210
0.0
220
0.0
230
1.0
100
AcDbArc
 50
203.583586
 51
216.416419
  0
ARC
  5
2A
100
AcDbEntity
  8
0
370
    35
390
0
 62
     7
100
AcDbCircle
 10
225.0
 20
148.5
 30
0.0
 40
177.5
210
0.0
220
0.0
230
1.0
100
AcDbArc
 50
233.583594
 51
246.416413
  0
ARC
  5
2B
100
AcDbEntity
  8
0
370
    35
390
0
 62
     7
100
AcDbCircle
 10
225.0
 20
148.5
 30
0.0
 40
177.5
210
0.0
220
0.0
230
1.0
100
AcDbArc
 50
263.583588
 51
269.999997
  0
LINE
  5
2C
100
AcDbEntity
  8
0
370
    35
390
0
 62
     7
100
AcDbLine
 10
225.0
 20
-29.0
 30
0.0
 11
225.0
 21
-56.5
 31
0.0
210
0.0
220
0.0
230
1.0
  0
ARC
  5
2D
100
AcDbEntity
  8
0
370
    35
390
0
 62
     7
100
AcDbCircle
 10
225.0
 20
-64.0
 30
0.0
 40
7.5
210
0.0
220
0.0
230
1.0
100
AcDbArc
 50
90.000003
 51
269.999997
  0
LINE
  5
2E
100
AcDbEntity
  8
0
370
    35
390
0
 62
     7
100
AcDbLine
 10
225.0
 20
-71.5
 30
0.0
 11
225.0
 21
-99.0
 31
0.0
210
0.0
220
0.0
230
1.0
  0
ARC
  5
2F
100
AcDbEntity
  8
0
370
    35
390
0
 62
     7
100
AcDbCircle
 10
225.0
 20
148.5
 30
0.0
 40
247.5
210
0.0
220
0.0
230
1.0
100
AcDbArc
 50
90.000003
 51
269.999997
  0
LINE
  5
30
100
AcDbEntity
  8
0
370
    35
390
0
 62
     7
100
AcDbLine
 10
225.0
 20
396.0
 30
0.0
 11
225.0
 21
368.5
 31
0.0
210
0.0
220
0.0
230
1.0
  0
ARC
  5
31
100
AcDbEntity
  8
0
370
    35
390
0
 62
     7
100
AcDbCircle
 10
225.0
 20
361.0
 30
0.0
 40
7.5
210
0.0
220
0.0
230
1.0
100
AcDbArc
 50
269.999997
 51
90.000003
  0
LINE
  5
32
100
AcDbEntity
  8
0
370
    35
390
0
 62
     7
100
AcDbLine
 10
225.0
 20
353.5
 30
0.0
 11
225.0
 21
326.0
 31
0.0
210
0.0
220
0.0
230
1.0
  0
ARC
  5
33
100
AcDbEntity
  8
0
370
    35
390
0
 62
     7
100
AcDbCircle
 10
225.0
 20
148.5
 30
0.0
 40
177.5
210
0.0
220
0.0
230
1.0
100
AcDbArc
 50
90.000003
 51
96.416412
  0
ARC
  5
34
100
AcDbEntity
  8
0
370
    35
390
0
 62
     7
100
AcDbCircle
 10
225.0
 20
148.5
 30
0.0
 40
177.5
210
0.0
220
0.0
230
1.0
100
AcDbArc
 50
113.583587
 51
126.416406
  0
CIRCLE
  5
35
100
AcDbEntity
  8
0
370
    35
390
0
 62
     7
100
AcDbCircle
 10
220.0
 20
-86.5
 30
0.0
 40
2.0
210
0.0
220
0.0
230
1.0
  0
CIRCLE
  5
36
100
AcDbEntity
  8
0
370
    35
390
0
 62
     7
100
AcDbCircle
 10
220.0
 20
-41.5
 30
0.0
 40
2.0
210
0.0
220
0.0
230
1.0
  0
CIRCLE
  5
37
100
AcDbEntity
  8
0
370
    35
390
0
 62
     7
100
AcDbCircle
 10
220.0
 20
-76.5
 30
0.0
 40
1.65
210
0.0
220
0.0
230
1.0
  0
CIRCLE
  5
38
100
AcDbEntity
  8
0
370
    35
390
0
 62
     7
100
AcDbCircle
 10
220.0
 20
-51.5
 30
0.0
 40
1.65
210
0.0
220
0.0
230
1.0
  0
CIRCLE
  5
39
100
AcDbEntity
  8
0
370
    35
390
0
 62
     7
100
AcDbCircle
 10
86.282684
 20
339.428009
 30
0.0
 40
2.0
210
0.0
220
0.0
230
1.0
  0
CIRCLE
  5
3A
100
AcDbEntity
  8
0
370
    35
390
0
 62
     7
100
AcDbCircle
 10
129.010162
 20
364.096741
 30
0.0
 40
2.0
210
0.0
220
0.0
230
1.0
  0
CIRCLE
  5
3B
100
AcDbEntity
  8
0
370
    35
390
0
 62
     7
100
AcDbCircle
 10
200.331284
 20
383.207153
 30
0.0
 40
2.0
210
0.0
220
0.0
230
1.0
  0
CIRCLE
  5
3C
100
AcDbEntity
  8
0
370
    35
390
0
 62
     7
100
AcDbCircle
 10
200.331284
 20
-86.207169
 30
0.0
 40
2.0
210
0.0
220
0.0
230
1.0
  0
CIRCLE
  5
3D
100
AcDbEntity
  8
0
370
    35
390
0
 62
     7
100
AcDbCircle
 10
129.010162
 20
-67.096725
 30
0.0
 40
2.0
210
0.0
220
0.0
230
1.0
  0
CIRCLE
  5
3E
100
AcDbEntity
  8
0
370
    35
390
0
 62
     7
100
AcDbCircle
 10
86.282684
 20
-42.428009
 30
0.0
 40
2.0
210
0.0
220
0.0
230
1.0
  0
CIRCLE
  5
3F
100
AcDbEntity
  8
0
370
    35
390
0
 62
     7
100
AcDbCircle
 10
34.071991
 20
9.782684
 30
0.0
 40
2.0
210
0.0
220
0.0
230
1.0
  0
CIRCLE
  5
40
100
AcDbEntity
  8
0
370
    35
390
0
 62
     7
100
AcDbCircle
 10
9.403275
 20
52.510155
 30
0.0
 40
2.0
210
0.0
220
0.0
230
1.0
  0
CIRCLE
  5
41
100
AcDbEntity
  8
0
370
    35
390
0
 62
     7
100
AcDbCircle
 10
-9.707169
 20
123.831284
 30
0.0
 40
2.0
210
0.0
220
0.0
230
1.0
  0
CIRCLE
  5
42
100
AcDbEntity
  8
0
370
    35
390
0
 62
     7
100
AcDbCircle
 10
-9.707169
 20
173.168716
 30
0.0
 40
2.0
210
0.0
220
0.0
230
1.0
  0
CIRCLE
  5
43
100
AcDbEntity
  8
0
370
    35
390
0
 62
     7
100
AcDbCircle
 10
9.403275
 20
244.489838
 30
0.0
 40
2.0
210
0.0
220
0.0
230
1.0
  0
CIRCLE
  5
44
100
AcDbEntity
  8
0
370
    35
390
0
 62
     7
100
AcDbCircle
 10
34.071991
 20
287.217316
 30
0.0
 40
2.0
210
0.0
220
0.0
230
1.0
  0
CIRCLE
  5
45
100
AcDbEntity
  8
0
370
    35
390
0
 62
     7
100
AcDbCircle
 10
220.0
 20
348.5
 30
0.0
 40
1.65
210
0.0
220
0.0
230
1.0
  0
CIRCLE
  5
46
100
AcDbEntity
  8
0
370
    35
390
0
 62
     7
100
AcDbCircle
 10
220.0
 20
373.5
 30
0.0
 40
1.65
210
0.0
220
0.0
230
1.0
  0
CIRCLE
  5
47
100
AcDbEntity
  8
0
370
    35
390
0
 62
     7
100
AcDbCircle
 10
220.0
 20
338.5
 30
0.0
 40
2.0
210
0.0
220
0.0
230
1.0
  0
CIRCLE
  5
48
100
AcDbEntity
  8
0
370
    35
390
0
 62
     7
100
AcDbCircle
 10
220.0
 20
383.5
 30
0.0
 40
2.0
210
0.0
220
0.0
230
1.0
  0
CIRCLE
  5
49
100
AcDbEntity
  8
0
370
    35
390
0
 62
     7
100
AcDbCircle
 10
154.836914
 20
-41.100952
 30
0.0
 40
1.25
210
0.0
220
0.0
230
1.0
  0
CIRCLE
  5
4A
100
AcDbEntity
  8
0
370
    35
390
0
 62
     7
100
AcDbCircle
 10
190.96254
 20
-50.780792
 30
0.0
 40
1.25
210
0.0
220
0.0
230
1.0
  0
CIRCLE
  5
4B
100
AcDbEntity
  8
0
370
    35
390
0
 62
     7
100
AcDbCircle
 10
181.282715
 20
-86.906418
 30
0.0
 40
1.25
210
0.0
220
0.0
230
1.0
  0
CIRCLE
  5
4C
100
AcDbEntity
  8
0
370
    35
390
0
 62
     7
100
AcDbCircle
 10
145.157074
 20
-77.226578
 30
0.0
 40
1.25
210
0.0
220
0.0
230
1.0
  0
CIRCLE
  5
4D
100
AcDbEntity
  8
0
370
    35
390
0
 62
     7
100
AcDbCircle
 10
69.436508
 20
19.382309
 30
0.0
 40
1.25
210
0.0
220
0.0
230
1.0
  0
CIRCLE
  5
4E
100
AcDbEntity
  8
0
370
    35
390
0
 62
     7
100
AcDbCircle
 10
95.882309
 20
-7.063492
 30
0.0
 40
1.25
210
0.0
220
0.0
230
1.0
  0
CIRCLE
  5
4F
100
AcDbEntity
  8
0
370
    35
390
0
 62
     7
100
AcDbCircle
 10
69.436508
 20
-33.509293
 30
0.0
 40
1.25
210
0.0
220
0.0
230
1.0
  0
CIRCLE
  5
50
100
AcDbEntity
  8
0
370
    35
390
0
 62
     7
100
AcDbCircle
 10
42.990707
 20
-7.063492
 30
0.0
 40
1.25
210
0.0
220
0.0
230
1.0
  0
CIRCLE
  5
51
100
AcDbEntity
  8
0
370
    35
390
0
 62
     7
100
AcDbCircle
 10
25.719208
 20
114.46254
 30
0.0
 40
1.25
210
0.0
220
0.0
230
1.0
  0
CIRCLE
  5
52
100
AcDbEntity
  8
0
370
    35
390
0
 62
     7
100
AcDbCircle
 10
35.399048
 20
78.336914
 30
0.0
 40
1.25
210
0.0
220
0.0
230
1.0
  0
CIRCLE
  5
53
100
AcDbEntity
  8
0
370
    35
390
0
 62
     7
100
AcDbCircle
 10
-0.726578
 20
68.657082
 30
0.0
 40
1.25
210
0.0
220
0.0
230
1.0
  0
CIRCLE
  5
54
100
AcDbEntity
  8
0
370
    35
390
0
 62
     7
100
AcDbCircle
 10
-10.406418
 20
104.782707
 30
0.0
 40
1.25
210
0.0
220
0.0
230
1.0
  0
CIRCLE
  5
55
100
AcDbEntity
  8
0
370
    35
390
0
 62
     7
100
AcDbCircle
 10
35.399048
 20
218.663086
 30
0.0
 40
1.25
210
0.0
220
0.0
230
1.0
  0
CIRCLE
  5
56
100
AcDbEntity
  8
0
370
    35
390
0
 62
     7
100
AcDbCircle
 10
25.719208
 20
182.53746
 30
0.0
 40
1.25
210
0.0
220
0.0
230
1.0
  0
CIRCLE
  5
57
100
AcDbEntity
  8
0
370
    35
390
0
 62
     7
100
AcDbCircle
 10
-10.406418
 20
192.217285
 30
0.0
 40
1.25
210
0.0
220
0.0
230
1.0
  0
CIRCLE
  5
58
100
AcDbEntity
  8
0
370
    35
390
0
 62
     7
100
AcDbCircle
 10
-0.726578
 20
228.342926
 30
0.0
 40
1.25
210
0.0
220
0.0
230
1.0
  0
CIRCLE
  5
59
100
AcDbEntity
  8
0
370
    35
390
0
 62
     7
100
AcDbCircle
 10
95.882309
 20
304.063477
 30
0.0
 40
1.25
210
0.0
220
0.0
230
1.0
  0
CIRCLE
  5
5A
100
AcDbEntity
  8
0
370
    35
390
0
 62
     7
100
AcDbCircle
 10
69.436508
 20
277.617676
 30
0.0
 40
1.25
210
0.0
220
0.0
230
1.0
  0
CIRCLE
  5
5B
100
AcDbEntity
  8
0
370
    35
390
0
 62
     7
100
AcDbCircle
 10
42.990707
 20
304.063477
 30
0.0
 40
1.25
210
0.0
220
0.0
230
1.0
  0
CIRCLE
  5
5C
100
AcDbEntity
  8
0
370
    35
390
0
 62
     7
100
AcDbCircle
 10
69.436508
 20
330.509277
 30
0.0
 40
1.25
210
0.0
220
0.0
230
1.0
  0
CIRCLE
  5
5D
100
AcDbEntity
  8
0
370
    35
390
0
 62
     7
100
AcDbCircle
 10
190.96254
 20
347.780792
 30
0.0
 40
1.25
210
0.0
220
0.0
230
1.0
  0
CIRCLE
  5
5E
100
AcDbEntity
  8
0
370
    35
390
0
 62
     7
100
AcDbCircle
 10
154.836914
 20
338.100952
 30
0.0
 40
1.25
210
0.0
220
0.0
230
1.0
  0
CIRCLE
  5
5F
100
AcDbEntity
  8
0
370
    35
390
0
 62
     7
100
AcDbCircle
 10
145.157074
 20
374.226563
 30
0.0
 40
1.25
210
0.0
220
0.0
230
1.0
  0
CIRCLE
  5
60
100
AcDbEntity
  8
0
370
    35
390
0
 62
     7
100
AcDbCircle
 10
181.282715
 20
383.906433
 30
0.0
 40
1.25
210
0.0
220
0.0
230
1.0
  0
LINE
  5
61
100
AcDbEntity
  8
0
370
    35
390
0
 62
     7
 48
0.15
100
AcDbLine
 10
127.598076
 20
323.205078
 30
0.0
 11
122.401924
 21
320.205078
 31
0.0
210
0.0
220
0.0
230
1.0
  0
ARC
  5
62
100
AcDbEntity
  8
0
370
    35
390
0
 62
     7
100
AcDbCircle
 10
121.401924
 20
321.937134
 30
0.0
 40
2.0
210
0.0
220
0.0
230
1.0
100
AcDbArc
 50
210.000003
 51
299.999998
  0
LINE
  5
63
100
AcDbEntity
  8
0
370
    35
390
0
 62
     7
100
AcDbLine
 10
119.669876
 20
320.937134
 30
0.0
 11
109.169876
 21
339.123657
 31
0.0
210
0.0
220
0.0
230
1.0
  0
ARC
  5
64
100
AcDbEntity
  8
0
370
    35
390
0
 62
     7
100
AcDbCircle
 10
110.901924
 20
340.123657
 30
0.0
 40
2.0
210
0.0
220
0.0
230
1.0
100
AcDbArc
 50
120.000003
 51
210.000003
  0
ARC
  5
65
100
AcDbEntity
  8
0
370
    35
390
0
 62
     7
100
AcDbCircle
 10
89.027115
 20
262.594788
 30
0.0
 40
11.1
210
0.0
220
0.0
230
1.0
100
AcDbArc
 50
139.999999
 51
231.79179
  0
ARC
  5
66
100
AcDbEntity
  8
0
370
    35
390
0
 62
     7
100
AcDbCircle
 10
225.0
 20
148.5
 30
0.0
 40
188.6
210
0.0
220
0.0
230
1.0
100
AcDbArc
 50
130.000001
 51
139.999999
  0
ARC
  5
67
100
AcDbEntity
  8
0
370
    35
390
0
 62
     7
100
AcDbCircle
 10
110.905197
 20
284.4729
 30
0.0
 40
11.1
210
0.0
220
0.0
230
1.0
100
AcDbArc
 50
38.208205
 51
130.000001
  0
ARC
  5
68
100
AcDbEntity
  8
0
370
    35
390
0
 62
     7
100
AcDbCircle
 10
164.291428
 20
315.295441
 30
0.0
 40
11.1
210
0.0
220
0.0
230
1.0
100
AcDbArc
 50
109.999999
 51
201.791796
  0
ARC
  5
69
100
AcDbEntity
  8
0
370
    35
390
0
 62
     7
100
AcDbCircle
 10
225.0
 20
148.5
 30
0.0
 40
188.6
210
0.0
220
0.0
230
1.0
100
AcDbArc
 50
100.000001
 51
109.999999
  0
ARC
  5
6A
100
AcDbEntity
  8
0
370
    35
390
0
 62
     7
100
AcDbCircle
 10
194.177444
 20
323.303375
 30
0.0
 40
11.1
210
0.0
220
0.0
230
1.0
100
AcDbArc
 50
8.208206
 51
100.000001
  0
ARC
  5
6B
100
AcDbEntity
  8
0
370
    35
390
0
 62
     7
100
AcDbCircle
 10
194.177444
 20
-26.303375
 30
0.0
 40
11.1
210
0.0
220
0.0
230
1.0
100
AcDbArc
 50
259.999999
 51
351.791794
  0
ARC
  5
6C
100
AcDbEntity
  8
0
370
    35
390
0
 62
     7
100
AcDbCircle
 10
225.0
 20
148.5
 30
0.0
 40
188.6
210
0.0
220
0.0
230
1.0
100
AcDbArc
 50
250.000001
 51
259.999999
  0
ARC
  5
6D
100
AcDbEntity
  8
0
370
    35
390
0
 62
     7
100
AcDbCircle
 10
164.291428
 20
-18.295441
 30
0.0
 40
11.1
210
0.0
220
0.0
230
1.0
100
AcDbArc
 50
158.208204
 51
250.000001
  0
ARC
  5
6E
100
AcDbEntity
  8
0
370
    35
390
0
 62
     7
100
AcDbCircle
 10
110.905197
 20
12.527115
 30
0.0
 40
11.1
210
0.0
220
0.0
230
1.0
100
AcDbArc
 50
229.999999
 51
321.791795
  0
ARC
  5
6F
100
AcDbEntity
  8
0
370
    35
390
0
 62
     7
100
AcDbCircle
 10
225.0
 20
148.5
 30
0.0
 40
188.6
210
0.0
220
0.0
230
1.0
100
AcDbArc
 50
220.000001
 51
229.999999
  0
ARC
  5
70
100
AcDbEntity
  8
0
370
    35
390
0
 62
     7
100
AcDbCircle
 10
89.027115
 20
34.405197
 30
0.0
 40
11.1
210
0.0
220
0.0
230
1.0
100
AcDbArc
 50
128.20821
 51
220.000001
  0
ARC
  5
71
100
AcDbEntity
  8
0
370
    35
390
0
 62
     7
100
AcDbCircle
 10
58.204559
 20
87.791428
 30
0.0
 40
11.1
210
0.0
220
0.0
230
1.0
100
AcDbArc
 50
200.000005
 51
291.791798
  0
ARC
  5
72
100
AcDbEntity
  8
0
370
    35
390
0
 62
     7
100
AcDbCircle
 10
225.0
 20
148.5
 30
0.0
 40
188.6
210
0.0
220
0.0
230
1.0
100
AcDbArc
 50
190.000007
 51
200.000005
  0
ARC
  5
73
100
AcDbEntity
  8
0
370
    35
390
0
 62
     7
100
AcDbCircle
 10
50.196625
 20
117.677444
 30
0.0
 40
11.1
210
0.0
220
0.0
230
1.0
100
AcDbArc
 50
98.208203
 51
190.000007
  0
ARC
  5
74
100
AcDbEntity
  8
0
370
    35
390
0
 62
     7
100
AcDbCircle
 10
50.196625
 20
179.322556
 30
0.0
 40
11.1
210
0.0
220
0.0
230
1.0
100
AcDbArc
 50
169.999993
 51
261.791797
  0
ARC
  5
75
100
AcDbEntity
  8
0
370
    35
390
0
 62
     7
100
AcDbCircle
 10
225.0
 20
148.5
 30
0.0
 40
188.6
210
0.0
220
0.0
230
1.0
100
AcDbArc
 50
159.999995
 51
169.999993
  0
ARC
  5
76
100
AcDbEntity
  8
0
370
    35
390
0
 62
     7
100
AcDbCircle
 10
58.204559
 20
209.208572
 30
0.0
 40
11.1
210
0.0
220
0.0
230
1.0
100
AcDbArc
 50
68.208202
 51
159.999995
  0
LINE
  5
77
100
AcDbEntity
  8
0
370
    35
390
0
 62
     7
 48
0.15
100
AcDbLine
 10
115.098076
 20
344.855713
 30
0.0
 11
109.901924
 21
341.855713
 31
0.0
210
0.0
220
0.0
230
1.0
  0
ARC
  5
78
100
AcDbEntity
  8
0
370
    35
390
0
 62
     7
100
AcDbCircle
 10
30.376328
 20
257.401917
 30
0.0
 40
2.0
210
0.0
220
0.0
230
1.0
100
AcDbArc
 50
149.999997
 51
239.999997
  0
LINE
  5
79
100
AcDbEntity
  8
0
370
    35
390
0
 62
     7
100
AcDbLine
 10
47.562866
 20
245.169876
 30
0.0
 11
29.376328
 21
255.669876
 31
0.0
210
0.0
220
0.0
230
1.0
  0
ARC
  5
7A
100
AcDbEntity
  8
0
370
    35
390
0
 62
     7
100
AcDbCircle
 10
48.562866
 20
246.901917
 30
0.0
 40
2.0
210
0.0
220
0.0
230
1.0
100
AcDbArc
 50
239.999997
 51
329.999999
  0
LINE
  5
7B
100
AcDbEntity
  8
0
370
    35
390
0
 62
     7
 48
0.15
100
AcDbLine
 10
53.294922
 20
251.098083
 30
0.0
 11
50.294922
 21
245.901917
 31
0.0
210
0.0
220
0.0
230
1.0
  0
ARC
  5
7C
100
AcDbEntity
  8
0
370
    35
390
0
 62
     7
100
AcDbCircle
 10
51.562866
 20
252.098083
 30
0.0
 40
2.0
210
0.0
220
0.0
230
1.0
100
AcDbArc
 50
329.999999
 51
60.000002
  0
LINE
  5
7D
100
AcDbEntity
  8
0
370
    35
390
0
 62
     7
100
AcDbLine
 10
52.562866
 20
253.830124
 30
0.0
 11
34.376328
 21
264.330139
 31
0.0
210
0.0
220
0.0
230
1.0
  0
ARC
  5
7E
100
AcDbEntity
  8
0
370
    35
390
0
 62
     7
100
AcDbCircle
 10
33.376328
 20
262.598083
 30
0.0
 40
2.0
210
0.0
220
0.0
230
1.0
100
AcDbArc
 50
60.000002
 51
149.999997
  0
LINE
  5
7F
100
AcDbEntity
  8
0
370
    35
390
0
 62
     7
 48
0.15
100
AcDbLine
 10
31.644287
 20
263.598083
 30
0.0
 11
28.644287
 21
258.401917
 31
0.0
210
0.0
220
0.0
230
1.0
  0
ARC
  5
80
100
AcDbEntity
  8
0
370
    35
390
0
 62
     7
100
AcDbCircle
 10
2.0
 20
145.5
 30
0.0
 40
2.0
210
0.0
220
0.0
230
1.0
100
AcDbArc
 50
180.000005
 51
269.999997
  0
LINE
  5
81
100
AcDbEntity
  8
0
370
    35
390
0
 62
     7
100
AcDbLine
 10
23.0
 20
143.5
 30
0.0
 11
2.0
 21
143.5
 31
0.0
210
0.0
220
0.0
230
1.0
  0
ARC
  5
82
100
AcDbEntity
  8
0
370
    35
390
0
 62
     7
100
AcDbCircle
 10
23.0
 20
145.5
 30
0.0
 40
2.0
210
0.0
220
0.0
230
1.0
100
AcDbArc
 50
269.999997
 51
0.0
  0
LINE
  5
83
100
AcDbEntity
  8
0
370
    35
390
0
 62
     7
 48
0.15
100
AcDbLine
 10
25.0
 20
151.5
 30
0.0
 11
25.0
 21
145.5
 31
0.0
210
0.0
220
0.0
230
1.0
  0
ARC
  5
84
100
AcDbEntity
  8
0
370
    35
390
0
 62
     7
100
AcDbCircle
 10
23.0
 20
151.5
 30
0.0
 40
2.0
210
0.0
220
0.0
230
1.0
100
AcDbArc
 50
360.0
 51
90.000003
  0
LINE
  5
85
100
AcDbEntity
  8
0
370
    35
390
0
 62
     7
100
AcDbLine
 10
23.0
 20
153.5
 30
0.0
 11
2.0
 21
153.5
 31
0.0
210
0.0
220
0.0
230
1.0
  0
ARC
  5
86
100
AcDbEntity
  8
0
370
    35
390
0
 62
     7
100
AcDbCircle
 10
2.0
 20
151.5
 30
0.0
 40
2.0
210
0.0
220
0.0
230
1.0
100
AcDbArc
 50
90.000003
 51
180.000005
  0
LINE
  5
87
100
AcDbEntity
  8
0
370
    35
390
0
 62
     7
 48
0.15
100
AcDbLine
 10
0.0
 20
151.5
 30
0.0
 11
0.0
 21
145.5
 31
0.0
210
0.0
220
0.0
230
1.0
  0
ARC
  5
88
100
AcDbEntity
  8
0
370
    35
390
0
 62
     7
100
AcDbCircle
 10
33.376328
 20
34.401924
 30
0.0
 40
2.0
210
0.0
220
0.0
230
1.0
100
AcDbArc
 50
210.000003
 51
299.999998
  0
LINE
  5
89
100
AcDbEntity
  8
0
370
    35
390
0
 62
     7
100
AcDbLine
 10
52.562866
 20
43.169876
 30
0.0
 11
34.376328
 21
32.669876
 31
0.0
210
0.0
220
0.0
230
1.0
  0
ARC
  5
8A
100
AcDbEntity
  8
0
370
    35
390
0
 62
     7
100
AcDbCircle
 10
51.562866
 20
44.901924
 30
0.0
 40
2.0
210
0.0
220
0.0
230
1.0
100
AcDbArc
 50
299.999998
 51
30.000001
  0
LINE
  5
8B
100
AcDbEntity
  8
0
370
    35
390
0
 62
     7
 48
0.15
100
AcDbLine
 10
50.294922
 20
51.098076
 30
0.0
 11
53.294922
 21
45.901924
 31
0.0
210
0.0
220
0.0
230
1.0
  0
ARC
  5
8C
100
AcDbEntity
  8
0
370
    35
390
0
 62
     7
100
AcDbCircle
 10
48.562866
 20
50.098076
 30
0.0
 40
2.0
210
0.0
220
0.0
230
1.0
100
AcDbArc
 50
30.000001
 51
120.000003
  0
LINE
  5
8D
100
AcDbEntity
  8
0
370
    35
390
0
 62
     7
100
AcDbLine
 10
47.562866
 20
51.830124
 30
0.0
 11
29.376328
 21
41.330124
 31
0.0
210
0.0
220
0.0
230
1.0
  0
ARC
  5
8E
100
AcDbEntity
  8
0
370
    35
390
0
 62
     7
100
AcDbCircle
 10
30.376328
 20
39.598076
 30
0.0
 40
2.0
210
0.0
220
0.0
230
1.0
100
AcDbArc
 50
120.000003
 51
210.000003
  0
LINE
  5
8F
100
AcDbEntity
  8
0
370
    35
390
0
 62
     7
 48
0.15
100
AcDbLine
 10
28.644287
 20
38.598076
 30
0.0
 11
31.644287
 21
33.401924
 31
0.0
210
0.0
220
0.0
230
1.0
  0
ARC
  5
90
100
AcDbEntity
  8
0
370
    35
390
0
 62
     7
100
AcDbCircle
 10
116.098076
 20
-46.123672
 30
0.0
 40
2.0
210
0.0
220
0.0
230
1.0
100
AcDbArc
 50
239.999997
 51
329.999999
  0
LINE
  5
91
100
AcDbEntity
  8
0
370
    35
390
0
 62
     7
100
AcDbLine
 10
128.330124
 20
-28.937134
 30
0.0
 11
117.830124
 21
-47.123672
 31
0.0
210
0.0
220
0.0
230
1.0
  0
ARC
  5
92
100
AcDbEntity
  8
0
370
    35
390
0
 62
     7
100
AcDbCircle
 10
126.598076
 20
-27.937134
 30
0.0
 40
2.0
210
0.0
220
0.0
230
1.0
100
AcDbArc
 50
329.999999
 51
60.000002
  0
LINE
  5
93
100
AcDbEntity
  8
0
370
    35
390
0
 62
     7
 48
0.15
100
AcDbLine
 10
122.401924
 20
-23.205078
 30
0.0
 11
127.598076
 21
-26.205078
 31
0.0
210
0.0
220
0.0
230
1.0
  0
ARC
  5
94
100
AcDbEntity
  8
0
370
    35
390
0
 62
     7
100
AcDbCircle
 10
121.401924
 20
-24.937134
 30
0.0
 40
2.0
210
0.0
220
0.0
230
1.0
100
AcDbArc
 50
60.000002
 51
149.999997
  0
LINE
  5
95
100
AcDbEntity
  8
0
370
    35
390
0
 62
     7
100
AcDbLine
 10
119.669876
 20
-23.937134
 30
0.0
 11
109.169876
 21
-42.123672
 31
0.0
210
0.0
220
0.0
230
1.0
  0
ARC
  5
96
100
AcDbEntity
  8
0
370
    35
390
0
 62
     7
100
AcDbCircle
 10
110.901924
 20
-43.123672
 30
0.0
 40
2.0
210
0.0
220
0.0
230
1.0
100
AcDbArc
 50
149.999997
 51
239.999997
  0
LINE
  5
97
100
AcDbEntity
  8
0
370
    35
390
0
 62
     7
 48
0.15
100
AcDbLine
 10
109.901924
 20
-44.855713
 30
0.0
 11
115.098076
 21
-47.855713
 31
0.0
210
0.0
220
0.0
230
1.0
  0
ENDSEC
  0
SECTION
  2
OBJECTS
  0
DICTIONARY
  5
19
100
AcDbDictionary
280
     0
281
     1
  3
ACAD_GROUP
350
1A
  3
ACAD_MLINESTYLE
350
1B
  3
ACAD_LAYOUT
350
1E
  3
ACAD_PLOTSETTINGS
350
22
  3
ACAD_PLOTSTYLENAME
350
1F
  3
ACAD_WIPEOUT_VARS
350
23
  0
DICTIONARY
  5
1A
102
{ACAD_REACTORS
330
19
102
}
100
AcDbDictionary
280
     0
281
     1
  0
DICTIONARY
  5
1B
102
{ACAD_REACTORS
330
19
102
}
100
AcDbDictionary
280
     0
281
     1
  3
Standard
350
1C
  0
MLINESTYLE
  5
1C
102
{ACAD_REACTORS
330
1B
102
}
100
AcDbMlineStyle
  2
Standard
 70
     0
  3

 62
     0
 51
90.0
 52
90.0
 71
     2
 49
0.5
 62
   256
  6
ByLayer
 49
-0.5
 62
   256
  6
ByLayer
  0
ACDBDICTIONARYWDFLT
  5
1F
102
{ACAD_REACTORS
330
19
102
}
100
AcDbDictionary
281
     1
  3
Normal
350
1D
100
AcDbDictionaryWithDefault
340
1D
  0
ACDBPLACEHOLDER
  5
1D
102
{ACAD_REACTORS
330
1F
102
}
  0
LAYOUT
  5
20
102
{ACAD_REACTORS
330
1E
102
}
100
AcDbPlotSettings
  1

  2

  4

  6

 40
0.0
 41
0.0
 42
0.0
 43
0.0
 44
0.0
 45
0.0
 46
0.0
 47
0.0
 48
0.0
 49
0.0
140
0.0
141
0.0
142
1.0
143
1.0
 70
  1024
 72
     0
 73
     0
 74
     0
  7

 75
     0
147
1.0
148
0.0
149
0.0
100
AcDbLayout
  1
Model
 70
     0
 71
     0
 10
0.0
 20
0.0
 11
0.0
 21
0.0
 12
0.0
 22
0.0
 32
0.0
 14
0.0
 24
0.0
 34
0.0
 15
0.0
 25
0.0
 35
0.0
146
0.0
 13
0.0
 23
0.0
 33
0.0
 16
0.0
 26
0.0
 36
0.0
 17
0.0
 27
0.0
 37
0.0
 76
     0
330
A
331
0
345
0
346
0
  0
LAYOUT
  5
21
102
{ACAD_REACTORS
330
1E
102
}
100
AcDbPlotSettings
  1

  2

  4

  6

 40
0.0
 41
0.0
 42
0.0
 43
0.0
 44
0.0
 45
0.0
 46
0.0
 47
0.0
 48
0.0
 49
0.0
140
0.0
141
0.0
142
1.0
143
1.0
 70
     0
 72
     0
 73
     0
 74
     0
  7

 75
     0
147
1.0
148
0.0
149
0.0
100
AcDbLayout
  1
Layout1
 70
     0
 71
     0
 10
0.0
 20
0.0
 11
0.0
 21
0.0
 12
0.0
 22
0.0
 32
0.0
 14
0.0
 24
0.0
 34
0.0
 15
0.0
 25
0.0
 35
0.0
146
0.0
 13
0.0
 23
0.0
 33
0.0
 16
0.0
 26
0.0
 36
0.0
 17
0.0
 27
0.0
 37
0.0
 76
     0
330
B
331
0
345
0
346
0
  0
DICTIONARY
  5
1E
102
{ACAD_REACTORS
330
19
102
}
100
AcDbDictionary
280
     0
281
     1
  3
Layout1
350
21
  3
Model
350
20
  0
DICTIONARY
  5
22
102
{ACAD_REACTORS
330
19
102
}
100
AcDbDictionary
280
     0
281
     1
  0
WIPEOUTVARIABLES
  5
23
100
AcDbWipeoutVariables
 70
     1
  0
ENDSEC
  0
EOF
