  0
SECTION
  2
HEADER
  9
$ACADVER
  1
AC1015
  9
$ACADMAINTVER
 70
     6
  9
$DWGCODEPAGE
  3
ANSI_1252
  9
$INSBASE
 10
0.0
 20
0.0
 30
0.0
  9
$EXTMIN
 10
0.0
 20
0.0
 30
0.0
  9
$EXTMAX
 10
180.0
 20
223.5
 30
2.0
  9
$LIMMIN
 10
0.0
 20
0.0
  9
$LIMMAX
 10
420.0
 20
297.0
  9
$ORTHOMODE
 70
     0
  9
$REGENMODE
 70
     1
  9
$FILLMODE
 70
     1
  9
$QTEXTMODE
 70
     0
  9
$MIRRTEXT
 70
     1
  9
$LTSCALE
 40
1.0
  9
$ATTMODE
 70
     1
  9
$TEXTSIZE
 40
2.5
  9
$TRACEWID
 40
1.0
  9
$TEXTSTYLE
  7
Standard
  9
$CLAYER
  8
0
  9
$CELTYPE
  6
ByLayer
  9
$CECOLOR
 62
   256
  9
$CELTSCALE
 40
1.0
  9
$DISPSILH
 70
     0
  9
$DIMSCALE
 40
1.0
  9
$DIMASZ
 40
2.5
  9
$DIMEXO
 40
0.625
  9
$DIMDLI
 40
3.75
  9
$DIMRND
 40
0.0
  9
$DIMDLE
 40
0.0
  9
$DIMEXE
 40
1.25
  9
$DIMTP
 40
0.0
  9
$DIMTM
 40
0.0
  9
$DIMTXT
 40
2.5
  9
$DIMCEN
 40
2.5
  9
$DIMTSZ
 40
0.0
  9
$DIMTOL
 70
     0
  9
$DIMLIM
 70
     0
  9
$DIMTIH
 70
     0
  9
$DIMTOH
 70
     0
  9
$DIMSE1
 70
     0
  9
$DIMSE2
 70
     0
  9
$DIMTAD
 70
     1
  9
$DIMZIN
 70
     8
  9
$DIMBLK
  1

  9
$DIMASO
 70
     1
  9
$DIMSHO
 70
     1
  9
$DIMPOST
  1

  9
$DIMAPOST
  1

  9
$DIMALT
 70
     0
  9
$DIMALTD
 70
     3
  9
$DIMALTF
 40
0.03937
  9
$DIMLFAC
 40
1.0
  9
$DIMTOFL
 70
     1
  9
$DIMTVP
 40
0.0
  9
$DIMTIX
 70
     0
  9
$DIMSOXD
 70
     0
  9
$DIMSAH
 70
     0
  9
$DIMBLK1
  1

  9
$DIMBLK2
  1

  9
$DIMSTYLE
  2

  9
$DIMCLRD
 70
     0
  9
$DIMCLRE
 70
     0
  9
$DIMCLRT
 70
     0
  9
$DIMTFAC
 40
1.0
  9
$DIMGAP
 40
0.625
  9
$DIMJUST
 70
     0
  9
$DIMSD1
 70
     0
  9
$DIMSD2
 70
     0
  9
$DIMTOLJ
 70
     0
  9
$DIMTZIN
 70
     8
  9
$DIMALTZ
 70
     0
  9
$DIMALTTZ
 70
     0
  9
$DIMUPT
 70
     0
  9
$DIMDEC
 70
     2
  9
$DIMTDEC
 70
     2
  9
$DIMALTU
 70
     2
  9
$DIMALTTD
 70
     3
  9
$DIMTXSTY
  7
Standard
  9
$DIMAUNIT
 70
     0
  9
$DIMADEC
 70
     0
  9
$DIMALTRND
 40
0.0
  9
$DIMAZIN
 70
     0
  9
$DIMDSEP
 70
    44
  9
$DIMATFIT
 70
     0
  9
$DIMFRAC
 70
     0
  9
$DIMLDRBLK
  1

  9
$DIMLUNIT
 70
     2
  9
$DIMLWD
 70
    -2
  9
$DIMLWE
 70
    -2
  9
$DIMTMOVE
 70
     0
  9
$LUNITS
 70
     2
  9
$LUPREC
 70
     4
  9
$SKETCHINC
 40
1.0
  9
$FILLETRAD
 40
2.5
  9
$AUNITS
 70
     0
  9
$AUPREC
 70
     0
  9
$MENU
  1
.
  9
$ELEVATION
 40
0.0
  9
$PELEVATION
 40
0.0
  9
$THICKNESS
 40
0.0
  9
$LIMCHECK
 70
     0
  9
$CHAMFERA
 40
2.5
  9
$CHAMFERB
 40
2.5
  9
$CHAMFERC
 40
0.0
  9
$CHAMFERD
 40
0.0
  9
$SKPOLY
 70
     0
  9
$TDCREATE
 40
0.000000000
  9
$TDUCREATE
 40
0.000000000
  9
$TDUPDATE
 40
0.000000000
  9
$TDUUPDATE
 40
0.000000000
  9
$TDINDWG
 40
0.0000000000
  9
$TDUSRTIMER
 40
0.0000000000
  9
$USRTIMER
 70
     1
  9
$ANGBASE
 50
0.0
  9
$ANGDIR
 70
     0
  9
$PDMODE
 70
     0
  9
$PDSIZE
 40
0.0
  9
$PLINEWID
 40
0.0
  9
$SPLFRAME
 70
     0
  9
$SPLINETYPE
 70
     6
  9
$SPLINESEGS
 70
     8
  9
$HANDSEED
  5
1C5
  9
$SURFTAB1
 70
     6
  9
$SURFTAB2
 70
     6
  9
$SURFTYPE
 70
     6
  9
$SURFU
 70
     6
  9
$SURFV
 70
     6
  9
$UCSBASE
  2

  9
$UCSNAME
  2

  9
$UCSORG
 10
0.0
 20
0.0
 30
0.0
  9
$UCSXDIR
 10
1.0
 20
0.0
 30
0.0
  9
$UCSYDIR
 10
0.0
 20
1.0
 30
0.0
  9
$UCSORTHOREF
  2

  9
$UCSORTHOVIEW
 70
     1
  9
$UCSORGTOP
 10
0.0
 20
0.0
 30
0.0
  9
$UCSORGBOTTOM
 10
0.0
 20
0.0
 30
0.0
  9
$UCSORGLEFT
 10
0.0
 20
0.0
 30
0.0
  9
$UCSORGRIGHT
 10
0.0
 20
0.0
 30
0.0
  9
$UCSORGFRONT
 10
0.0
 20
0.0
 30
0.0
  9
$UCSORGBACK
 10
0.0
 20
0.0
 30
0.0
  9
$PUCSBASE
  2

  9
$PUCSNAME
  2

  9
$PUCSORG
 10
0.0
 20
0.0
 30
0.0
  9
$PUCSXDIR
 10
1.0
 20
0.0
 30
0.0
  9
$PUCSYDIR
 10
0.0
 20
1.0
 30
0.0
  9
$PUCSORTHOREF
  2

  9
$PUCSORTHOVIEW
 70
     0
  9
$PUCSORGTOP
 10
0.0
 20
0.0
 30
0.0
  9
$PUCSORGBOTTOM
 10
0.0
 20
0.0
 30
0.0
  9
$PUCSORGLEFT
 10
0.0
 20
0.0
 30
0.0
  9
$PUCSORGRIGHT
 10
0.0
 20
0.0
 30
0.0
  9
$PUCSORGFRONT
 10
0.0
 20
0.0
 30
0.0
  9
$PUCSORGBACK
 10
0.0
 20
0.0
 30
0.0
  9
$USERI1
 70
     0
  9
$USERI2
 70
     0
  9
$USERI3
 70
     0
  9
$USERI4
 70
     0
  9
$USERI5
 70
     0
  9
$USERR1
 40
0.0
  9
$USERR2
 40
0.0
  9
$USERR3
 40
0.0
  9
$USERR4
 40
0.0
  9
$USERR5
 40
0.0
  9
$WORLDVIEW
 70
     1
  9
$SHADEDGE
 70
     3
  9
$SHADEDIF
 70
    70
  9
$TILEMODE
 70
     1
  9
$MAXACTVP
 70
    48
  9
$PINSBASE
 10
0.0
 20
0.0
 30
0.0
  9
$PLIMCHECK
 70
     0
  9
$PEXTMIN
 10
0.0
 20
0.0
 30
0.0
  9
$PEXTMAX
 10
180.0
 20
223.5
 30
2.0
  9
$PLIMMIN
 10
0.0
 20
0.0
  9
$PLIMMAX
 10
420.0
 20
297.0
  9
$UNITMODE
 70
     0
  9
$VISRETAIN
 70
     0
  9
$PLINEGEN
 70
     0
  9
$PSLTSCALE
 70
     1
  9
$TREEDEPTH
 70
  3020
  9
$CMLSTYLE
  2
Standard
  9
$CMLJUST
 70
     0
  9
$CMLSCALE
 40
20.0
  9
$PROXYGRAPHICS
 70
     1
  9
$MEASUREMENT
 70
     1
  9
$CELWEIGHT
370
    -1
  9
$ENDCAPS
280
     0
  9
$JOINSTYLE
280
     0
  9
$LWDISPLAY
290
     0
  9
$INSUNITS
 70
     0
  9
$HYPERLINKBASE
  1

  9
$STYLESHEET
  1

  9
$XEDIT
290
     1
  9
$CEPSNTYPE
380
     0
  9
$PSTYLEMODE
290
     0
  9
$FINGERPRINTGUID
  2

  9
$VERSIONGUID
  2

  9
$EXTNAMES
290
     0
  9
$PSVPSCALE
 40
0.0
  0
ENDSEC
  0
SECTION
  2
CLASSES
  0
CLASS
  1
LWPOLYLINE
  2
AcDbPolyline
  3
AutoCAD 2000
 90
        0
280
     0
281
     1
  0
CLASS
  1
IMAGE
  2
AcDbRasterImage
  3
ISM
 90
      127
280
     0
281
     1
  0
CLASS
  1
OLE2FRAME
  2
AcDbOle2Frame
  3
AutoCAD 2000
 90
        0
280
     0
281
     1
  0
CLASS
  1
HATCH
  2
AcDbHatch
  3
AutoCAD 2000
 90
        0
280
     0
281
     1
  0
CLASS
  1
DICTIONARYVAR
  2
AcDbDictionaryVar
  3
AutoCAD 2000
 90
        0
280
     0
281
     0
  0
CLASS
  1
RASTERVARIABLES
  2
AcDbRasterVariables
  3
ISM
 90
        0
280
     0
281
     0
  0
CLASS
  1
IMAGEDEF
  2
AcDbRasterImageDef
  3
ISM
 90
        0
280
     0
281
     0
  0
CLASS
  1
IMAGEDEF_REACTOR
  2
AcDbRasterImageDefReactor
  3
ISM
 90
        1
280
     0
281
     0
  0
CLASS
  1
IDBUFFER
  2
AcDbIdBuffer
  3
AutoCAD 2000
 90
        0
280
     0
281
     0
  0
CLASS
  1
SPATIAL_FILTER
  2
AcDbSpatialFilter
  3
AutoCAD 2000
 90
        0
280
     0
281
     0
  0
CLASS
  1
XRECORD
  2
AcDbXrecord
  3
AutoCAD 2000
 90
        0
280
     0
281
     0
  0
CLASS
  1
SORTENTSTABLE
  2
AcDbSortentsTable
  3
AutoCAD 2000
 90
        0
280
     0
281
     0
  0
CLASS
  1
LAYER_INDEX
  2
AcDbLayerIndex
  3
AutoCAD 2000
 90
        0
280
     0
281
     0
  0
CLASS
  1
SPATIAL_INDEX
  2
AcDbSpatialIndex
  3
AutoCAD 2000
 90
        0
280
     0
281
     0
  0
CLASS
  1
OBJECT_PTR
  2
CAseDLPNTableRecord
  3
"ASE-LPNTableRecord"
 90
        1
280
     0
281
     0
  0
CLASS
  1
LAYOUT
  2
AcDbLayout
  3
AutoCAD 2000
 90
        0
280
     0
281
     0
  0
CLASS
  1
PLOTSETTINGS
  2
AcDbPlotSettings
  3
AutoCAD 2000
 90
        0
280
     0
281
     0
  0
CLASS
  1
ACDBDICTIONARYWDFLT
  2
AcDbDictionaryWithDefault
  3
AutoCAD 2000
 90
        0
280
     0
281
     0
  0
CLASS
  1
ACDBPLACEHOLDER
  2
AcDbPlaceHolder
  3
AutoCAD 2000
 90
        0
280
     0
281
     0
  0
CLASS
  1
VBA_PROJECT
  2
AcDbVbaProject
  3
acadvba
 90
        0
280
     0
281
     0
  0
CLASS
  1
WIPEOUT
  2
AcDbWipeout
  3
WipeOut|AutoCAD Express Tool|expresstools@autodesk.com
 90
      127
280
     0
281
     1
  0
CLASS
  1
WIPEOUTVARIABLES
  2
AcDbWipeoutVariables
  3
WipeOut|AutoCAD Express Tool|expresstools@autodesk.com
 90
        0
280
     0
281
     0
  0
CLASS
  1
RTEXT
  2
RText
  3
RText|AutoCAD Express Tool|expresstools@autodesk.com
 90
        0
280
     0
281
     1
  0
CLASS
  1
ARCALIGNEDTEXT
  2
AcDbArcAlignedText
  3
ATEXT|AutoCAD Express Tool|expresstools@autodesk.com
 90
        0
280
     0
281
     1
  0
ENDSEC
  0
SECTION
  2
TABLES
  0
TABLE
  2
VPORT
  5
7
100
AcDbSymbolTable
 70
     1
  0
VPORT
  5
15
100
AcDbSymbolTableRecord
100
AcDbViewportTableRecord
  2
*ACTIVE
 70
     0
 10
0.0
 20
0.0
 11
1.0
 21
1.0
 12
6.591288
 22
4.579184
 13
0.0
 23
0.0
 14
1.0
 24
1.0
 15
0.0
 25
0.0
 16
0.0
 26
0.0
 36
1.0
 17
0.0
 27
0.0
 37
0.0
 40
9.158369
 41
0.688564
 42
50.0
 43
0.0
 44
0.0
 50
0.0
 51
0.0
 71
     0
 72
   100
 73
     1
 74
     1
 75
     0
 76
     0
 77
     0
 78
     0
281
     0
 65
     0
110
0.0
120
0.0
130
0.0
111
1.0
121
0.0
131
0.0
112
0.0
122
1.0
132
0.0
345
0
346
0
 79
     0
146
0.0
  0
ENDTAB
  0
TABLE
  2
LTYPE
  5
4
100
AcDbSymbolTable
 70
     3
  0
LTYPE
  5
11
100
AcDbSymbolTableRecord
100
AcDbLinetypeTableRecord
  2
ByBlock
 70
    64
  3

 72
    65
 73
     0
 40
0.0
  0
LTYPE
  5
12
100
AcDbSymbolTableRecord
100
AcDbLinetypeTableRecord
  2
ByLayer
 70
    64
  3

 72
    65
 73
     0
 40
0.0
  0
LTYPE
  5
13
100
AcDbSymbolTableRecord
100
AcDbLinetypeTableRecord
  2
Continuous
 70
    64
  3
Solid line
 72
    65
 73
     0
 40
0.0
  0
ENDTAB
  0
TABLE
  2
LAYER
  5
2
100
AcDbSymbolTable
 70
     1
  0
LAYER
  5
14
100
AcDbSymbolTableRecord
100
AcDbLayerTableRecord
  2
0
 70
     0
 62
     7
  6
Continuous
290
     1
370
    -3
390
1D
  0
ENDTAB
  0
TABLE
  2
STYLE
  5
3
100
AcDbSymbolTable
 70
     1
  0
STYLE
  5
17
100
AcDbSymbolTableRecord
100
AcDbTextStyleTableRecord
  2
Standard
 70
     0
 40
0.0
 41
1.0
 50
0.0
 71
     0
 42
0.0
  3
txt
  4

  0
ENDTAB
  0
TABLE
  2
VIEW
  5
5
100
AcDbSymbolTable
 70
     0
  0
ENDTAB
  0
TABLE
  2
UCS
  5
6
100
AcDbSymbolTable
 70
     0
  0
ENDTAB
  0
TABLE
  2
APPID
  5
8
100
AcDbSymbolTable
 70
     1
  0
APPID
  5
16
100
AcDbSymbolTableRecord
100
AcDbRegAppTableRecord
  2
ACAD
 70
     0
  0
ENDTAB
  0
TABLE
  2
DIMSTYLE
  5
9
100
AcDbSymbolTable
 70
     1
100
AcDbDimStyleTable
 71
     0
  0
DIMSTYLE
105
18
100
AcDbSymbolTableRecord
100
AcDbDimStyleTableRecord
  2
Standard
 70
     0
  3

  4

 40
1.0
 41
0.18
 42
0.0625
 43
0.38
 44
0.18
 45
0.0
 46
0.0
 47
0.0
 48
0.0
 71
     0
 72
     0
 73
     1
 74
     1
 75
     0
 76
     0
 77
     0
 78
     0
 79
     0
140
0.18
141
0.09
142
0.0
143
25.4
144
1.0
145
0.0
146
1.0
147
0.09
148
0.0
170
     0
171
     2
172
     0
173
     0
174
     0
175
     0
176
     0
177
     0
178
     0
179
     0
271
     4
272
     4
273
     2
274
     2
275
     0
276
     0
277
     2
278
    46
279
     0
280
     0
281
     0
282
     0
283
     1
284
     0
285
     0
286
     0
288
     0
289
     3
340
17
341
0
342
0
343
0
344
0
371
    -2
372
    -2
  0
ENDTAB
  0
TABLE
  2
BLOCK_RECORD
  5
1
100
AcDbSymbolTable
 70
     0
  0
BLOCK_RECORD
  5
A
100
AcDbSymbolTableRecord
100
AcDbBlockTableRecord
  2
*MODEL_SPACE
340
20
  0
BLOCK_RECORD
  5
B
100
AcDbSymbolTableRecord
100
AcDbBlockTableRecord
  2
*PAPER_SPACE
340
21
  0
ENDTAB
  0
ENDSEC
  0
SECTION
  2
BLOCKS
  0
BLOCK
  5
D
100
AcDbEntity
  8
0
390
0
100
AcDbBlockBegin
  2
*MODEL_SPACE
 70
     0
 10
0.0
 20
0.0
 30
0.0
  3
*MODEL_SPACE
  1

  0
ENDBLK
  5
E
100
AcDbEntity
  8
0
390
0
100
AcDbBlockEnd
  0
BLOCK
  5
F
100
AcDbEntity
 67
     1
  8
0
390
0
100
AcDbBlockBegin
  2
*PAPER_SPACE
 70
     0
 10
0.0
 20
0.0
 30
0.0
  3
*PAPER_SPACE
  1

  0
ENDBLK
  5
10
100
AcDbEntity
 67
     1
  8
0
390
0
100
AcDbBlockEnd
  0
ENDSEC
  0
SECTION
  2
ENTITIES
  0
VIEWPORT
  5
1C4
100
AcDbEntity
 67
     1
  8
0
370
     0
390
0
 62
     0
 48
0.0
100
AcDbViewport
 10
0.0
 20
0.0
 30
0.0
 40
1000.0
 41
1000.0
 68
     1
 69
     1
 12
0.0
 22
0.0
 13
0.0
 23
0.0
 14
1.0
 24
1.0
 15
1.0
 25
1.0
 16
0.0
 26
0.0
 36
1.0
 17
0.0
 27
0.0
 37
0.0
 42
50.0
 43
0.0
 44
0.0
 45
1000.0
 50
0.0
 51
0.0
 72
   100
 90
        0
340
0
  1

281
     0
 71
     0
 74
     1
110
0.0
120
0.0
130
0.0
111
1.0
121
0.0
131
0.0
112
0.0
122
1.0
132
0.0
345
0
346
0
 79
     0
146
0.0
  0
ARC
  5
24
100
AcDbEntity
  8
0
370
    35
390
0
 62
     7
100
AcDbCircle
 10
43.716446
 20
199.923004
 30
0.0
 40
7.5
210
0.0
220
0.0
230
1.0
100
AcDbArc
 50
55.756586
 51
224.24342
  0
ARC
  5
25
100
AcDbEntity
  8
0
370
    35
390
0
 62
     7
100
AcDbCircle
 10
32.612518
 20
189.108536
 30
0.0
 40
8.0
210
0.0
220
0.0
230
1.0
100
AcDbArc
 50
330.708085
 51
44.243414
  0
ARC
  5
26
100
AcDbEntity
  8
0
370
    35
390
0
 62
     7
100
AcDbCircle
 10
52.43845
 20
212.736145
 30
0.0
 40
8.0
210
0.0
220
0.0
230
1.0
100
AcDbArc
 50
235.756591
 51
309.291917
  0
CIRCLE
  5
27
100
AcDbEntity
  8
0
370
    35
390
0
 62
     7
100
AcDbCircle
 10
43.716446
 20
199.923004
 30
0.0
 40
2.0
210
0.0
220
0.0
230
1.0
  0
LINE
  5
28
100
AcDbEntity
  8
0
370
    35
390
0
 62
     7
 48
0.145943
100
AcDbLine
 10
100.742012
 20
214.379578
 30
0.0
 11
100.233223
 21
220.195099
 31
0.0
210
0.0
220
0.0
230
1.0
  0
LINE
  5
29
100
AcDbEntity
  8
0
370
    35
390
0
 62
     7
 48
0.075
100
AcDbLine
 10
100.742012
 20
214.379578
 30
0.0
 11
97.753426
 21
214.118118
 31
0.0
210
0.0
220
0.0
230
1.0
  0
ARC
  5
2A
100
AcDbEntity
  8
0
370
    35
390
0
 62
     7
100
AcDbCircle
 10
98.463318
 20
223.2146
 30
0.0
 40
3.5
210
0.0
220
0.0
230
1.0
100
AcDbArc
 50
300.376929
 51
3.662977
  0
LINE
  5
2B
100
AcDbEntity
  8
0
370
    35
390
0
 62
     7
 48
0.145943
100
AcDbLine
 10
97.753426
 20
214.118118
 30
0.0
 11
97.244637
 21
219.933624
 31
0.0
210
0.0
220
0.0
230
1.0
  0
ARC
  5
2C
100
AcDbEntity
  8
0
370
    35
390
0
 62
     7
100
AcDbCircle
 10
105.0
 20
148.5
 30
0.0
 40
75.0
210
0.0
220
0.0
230
1.0
100
AcDbArc
 50
277.674043
 51
309.291917
  0
ARC
  5
2D
100
AcDbEntity
  8
0
370
    35
390
0
 62
     7
100
AcDbCircle
 10
111.536682
 20
73.7854
 30
0.0
 40
3.5
210
0.0
220
0.0
230
1.0
100
AcDbArc
 50
6.337023
 51
69.623069
  0
LINE
  5
2E
100
AcDbEntity
  8
0
370
    35
390
0
 62
     7
 48
0.145943
100
AcDbLine
 10
112.246574
 20
82.881882
 30
0.0
 11
112.755363
 21
77.066376
 31
0.0
210
0.0
220
0.0
230
1.0
  0
LINE
  5
2F
100
AcDbEntity
  8
0
370
    35
390
0
 62
     7
 48
0.075
100
AcDbLine
 10
109.257988
 20
82.620415
 30
0.0
 11
112.246574
 21
82.881882
 31
0.0
210
0.0
220
0.0
230
1.0
  0
LINE
  5
30
100
AcDbEntity
  8
0
370
    35
390
0
 62
     7
 48
0.145943
100
AcDbLine
 10
109.257988
 20
82.620415
 30
0.0
 11
109.766777
 21
76.804909
 31
0.0
210
0.0
220
0.0
230
1.0
  0
ARC
  5
31
100
AcDbEntity
  8
0
370
    35
390
0
 62
     7
100
AcDbCircle
 10
111.536682
 20
73.7854
 30
0.0
 40
3.5
210
0.0
220
0.0
230
1.0
100
AcDbArc
 50
120.376934
 51
183.662971
  0
ARC
  5
32
100
AcDbEntity
  8
0
370
    35
390
0
 62
     7
100
AcDbCircle
 10
105.0
 20
148.5
 30
0.0
 40
75.0
210
0.0
220
0.0
230
1.0
100
AcDbArc
 50
187.67404
 51
219.291915
  0
ARC
  5
33
100
AcDbEntity
  8
0
370
    35
390
0
 62
     7
100
AcDbCircle
 10
30.2854
 20
141.963318
 30
0.0
 40
3.5
210
0.0
220
0.0
230
1.0
100
AcDbArc
 50
276.33702
 51
339.623066
  0
LINE
  5
34
100
AcDbEntity
  8
0
370
    35
390
0
 62
     7
 48
0.145943
100
AcDbLine
 10
39.381882
 20
141.253433
 30
0.0
 11
33.566376
 21
140.744644
 31
0.0
210
0.0
220
0.0
230
1.0
  0
LINE
  5
35
100
AcDbEntity
  8
0
370
    35
390
0
 62
     7
 48
0.075
100
AcDbLine
 10
39.120415
 20
144.24202
 30
0.0
 11
39.381882
 21
141.253433
 31
0.0
210
0.0
220
0.0
230
1.0
  0
LINE
  5
36
100
AcDbEntity
  8
0
370
    35
390
0
 62
     7
 48
0.145943
100
AcDbLine
 10
39.120415
 20
144.24202
 30
0.0
 11
33.304909
 21
143.733215
 31
0.0
210
0.0
220
0.0
230
1.0
  0
ARC
  5
37
100
AcDbEntity
  8
0
370
    35
390
0
 62
     7
100
AcDbCircle
 10
30.2854
 20
141.963318
 30
0.0
 40
3.5
210
0.0
220
0.0
230
1.0
100
AcDbArc
 50
30.376932
 51
93.662978
  0
ARC
  5
38
100
AcDbEntity
  8
0
370
    35
390
0
 62
     7
100
AcDbCircle
 10
105.0
 20
148.5
 30
0.0
 40
75.0
210
0.0
220
0.0
230
1.0
100
AcDbArc
 50
150.708083
 51
182.325948
  0
ARC
  5
39
100
AcDbEntity
  8
0
370
    35
390
0
 62
     7
100
AcDbCircle
 10
105.0
 20
148.5
 30
0.0
 40
75.0
210
0.0
220
0.0
230
1.0
100
AcDbArc
 50
97.674048
 51
129.291916
  0
ARC
  5
3A
100
AcDbEntity
  8
0
370
    35
390
0
 62
     7
100
AcDbCircle
 10
98.463318
 20
223.2146
 30
0.0
 40
3.5
210
0.0
220
0.0
230
1.0
100
AcDbArc
 50
186.337017
 51
249.623064
  0
ARC
  5
3B
100
AcDbEntity
  8
0
370
    35
390
0
 62
     7
100
AcDbCircle
 10
105.0
 20
148.5
 30
0.0
 40
75.0
210
0.0
220
0.0
230
1.0
100
AcDbArc
 50
7.674045
 51
39.291917
  0
ARC
  5
3C
100
AcDbEntity
  8
0
370
    35
390
0
 62
     7
100
AcDbCircle
 10
179.7146
 20
155.036682
 30
0.0
 40
3.5
210
0.0
220
0.0
230
1.0
100
AcDbArc
 50
96.337025
 51
159.623065
  0
LINE
  5
3D
100
AcDbEntity
  8
0
370
    35
390
0
 62
     7
 48
0.145943
100
AcDbLine
 10
170.618118
 20
155.746567
 30
0.0
 11
176.433624
 21
156.255356
 31
0.0
210
0.0
220
0.0
230
1.0
  0
LINE
  5
3E
100
AcDbEntity
  8
0
370
    35
390
0
 62
     7
 48
0.075
100
AcDbLine
 10
170.879578
 20
152.75798
 30
0.0
 11
170.618118
 21
155.746567
 31
0.0
210
0.0
220
0.0
230
1.0
  0
LINE
  5
3F
100
AcDbEntity
  8
0
370
    35
390
0
 62
     7
 48
0.145943
100
AcDbLine
 10
170.879578
 20
152.75798
 30
0.0
 11
176.695099
 21
153.266785
 31
0.0
210
0.0
220
0.0
230
1.0
  0
ARC
  5
40
100
AcDbEntity
  8
0
370
    35
390
0
 62
     7
100
AcDbCircle
 10
179.7146
 20
155.036682
 30
0.0
 40
3.5
210
0.0
220
0.0
230
1.0
100
AcDbArc
 50
210.376933
 51
273.66298
  0
ARC
  5
41
100
AcDbEntity
  8
0
370
    35
390
0
 62
     7
100
AcDbCircle
 10
122.719009
 20
203.904877
 30
0.0
 40
0.5
210
0.0
220
0.0
230
1.0
100
AcDbArc
 50
346.009069
 51
256.009065
  0
LINE
  5
42
100
AcDbEntity
  8
0
370
    35
390
0
 62
     7
 48
0.10125
100
AcDbLine
 10
122.598129
 20
203.419708
 30
0.0
 11
121.618965
 21
199.489853
 31
0.0
210
0.0
220
0.0
230
1.0
  0
ARC
  5
43
100
AcDbEntity
  8
0
370
    35
390
0
 62
     7
100
AcDbCircle
 10
121.498085
 20
199.004684
 30
0.0
 40
0.5
210
0.0
220
0.0
230
1.0
100
AcDbArc
 50
76.00907
 51
346.009069
  0
LINE
  5
44
100
AcDbEntity
  8
0
370
    35
390
0
 62
     7
 48
0.05125
100
AcDbLine
 10
121.983246
 20
198.883804
 30
0.0
 11
123.972435
 21
198.388184
 31
0.0
210
0.0
220
0.0
230
1.0
  0
ARC
  5
45
100
AcDbEntity
  8
0
370
    35
390
0
 62
     7
100
AcDbCircle
 10
124.457603
 20
198.267288
 30
0.0
 40
0.5
210
0.0
220
0.0
230
1.0
100
AcDbArc
 50
166.009073
 51
76.00907
  0
LINE
  5
46
100
AcDbEntity
  8
0
370
    35
390
0
 62
     7
 48
0.10125
100
AcDbLine
 10
125.557648
 20
202.682312
 30
0.0
 11
124.578484
 21
198.752457
 31
0.0
210
0.0
220
0.0
230
1.0
  0
ARC
  5
47
100
AcDbEntity
  8
0
370
    35
390
0
 62
     7
100
AcDbCircle
 10
125.678528
 20
203.16748
 30
0.0
 40
0.5
210
0.0
220
0.0
230
1.0
100
AcDbArc
 50
256.009065
 51
166.009073
  0
ARC
  5
48
100
AcDbEntity
  8
0
370
    35
390
0
 62
     7
100
AcDbCircle
 10
130.918335
 20
201.861923
 30
0.0
 40
0.5
210
0.0
220
0.0
230
1.0
100
AcDbArc
 50
346.009069
 51
256.009065
  0
LINE
  5
49
100
AcDbEntity
  8
0
370
    35
390
0
 62
     7
 48
0.10125
100
AcDbLine
 10
130.797455
 20
201.37677
 30
0.0
 11
129.818283
 21
197.446899
 31
0.0
210
0.0
220
0.0
230
1.0
  0
ARC
  5
4A
100
AcDbEntity
  8
0
370
    35
390
0
 62
     7
100
AcDbCircle
 10
129.697403
 20
196.961746
 30
0.0
 40
0.5
210
0.0
220
0.0
230
1.0
100
AcDbArc
 50
76.00907
 51
346.009069
  0
LINE
  5
4B
100
AcDbEntity
  8
0
370
    35
390
0
 62
     7
 48
0.05125
100
AcDbLine
 10
130.182571
 20
196.840851
 30
0.0
 11
132.171753
 21
196.34523
 31
0.0
210
0.0
220
0.0
230
1.0
  0
ARC
  5
4C
100
AcDbEntity
  8
0
370
    35
390
0
 62
     7
100
AcDbCircle
 10
132.656921
 20
196.22435
 30
0.0
 40
0.5
210
0.0
220
0.0
230
1.0
100
AcDbArc
 50
166.009073
 51
76.00907
  0
LINE
  5
4D
100
AcDbEntity
  8
0
370
    35
390
0
 62
     7
 48
0.10125
100
AcDbLine
 10
133.756973
 20
200.639374
 30
0.0
 11
132.777802
 21
196.709518
 31
0.0
210
0.0
220
0.0
230
1.0
  0
ARC
  5
4E
100
AcDbEntity
  8
0
370
    35
390
0
 62
     7
100
AcDbCircle
 10
133.877853
 20
201.124542
 30
0.0
 40
0.5
210
0.0
220
0.0
230
1.0
100
AcDbArc
 50
256.009065
 51
166.009073
  0
ARC
  5
4F
100
AcDbEntity
  8
0
370
    35
390
0
 62
     7
100
AcDbCircle
 10
75.142715
 20
198.74617
 30
0.0
 40
0.5
210
0.0
220
0.0
230
1.0
100
AcDbArc
 50
23.990932
 51
293.990935
  0
LINE
  5
50
100
AcDbEntity
  8
0
370
    35
390
0
 62
     7
 48
0.10125
100
AcDbLine
 10
75.346008
 20
198.289368
 30
0.0
 11
76.992706
 21
194.589233
 31
0.0
210
0.0
220
0.0
230
1.0
  0
ARC
  5
51
100
AcDbEntity
  8
0
370
    35
390
0
 62
     7
100
AcDbCircle
 10
77.196007
 20
194.132431
 30
0.0
 40
0.5
210
0.0
220
0.0
230
1.0
100
AcDbArc
 50
113.990933
 51
23.990932
  0
LINE
  5
52
100
AcDbEntity
  8
0
370
    35
390
0
 62
     7
 48
0.05125
100
AcDbLine
 10
79.525711
 20
195.16925
 30
0.0
 11
77.652809
 21
194.335724
 31
0.0
210
0.0
220
0.0
230
1.0
  0
ARC
  5
53
100
AcDbEntity
  8
0
370
    35
390
0
 62
     7
100
AcDbCircle
 10
79.982513
 20
195.372543
 30
0.0
 40
0.5
210
0.0
220
0.0
230
1.0
100
AcDbArc
 50
203.990925
 51
113.990933
  0
LINE
  5
54
100
AcDbEntity
  8
0
370
    35
390
0
 62
     7
 48
0.10125
100
AcDbLine
 10
78.132523
 20
199.529465
 30
0.0
 11
79.779221
 21
195.829346
 31
0.0
210
0.0
220
0.0
230
1.0
  0
ARC
  5
55
100
AcDbEntity
  8
0
370
    35
390
0
 62
     7
100
AcDbCircle
 10
77.929222
 20
199.986267
 30
0.0
 40
0.5
210
0.0
220
0.0
230
1.0
100
AcDbArc
 50
293.990935
 51
203.990925
  0
ARC
  5
56
100
AcDbEntity
  8
0
370
    35
390
0
 62
     7
100
AcDbCircle
 10
67.422714
 20
195.310455
 30
0.0
 40
0.5
210
0.0
220
0.0
230
1.0
100
AcDbArc
 50
23.990932
 51
293.990935
  0
LINE
  5
57
100
AcDbEntity
  8
0
370
    35
390
0
 62
     7
 48
0.10125
100
AcDbLine
 10
67.626007
 20
194.853653
 30
0.0
 11
69.272705
 21
191.153534
 31
0.0
210
0.0
220
0.0
230
1.0
  0
ARC
  5
58
100
AcDbEntity
  8
0
370
    35
390
0
 62
     7
100
AcDbCircle
 10
69.475998
 20
190.696732
 30
0.0
 40
0.5
210
0.0
220
0.0
230
1.0
100
AcDbArc
 50
113.990933
 51
23.990932
  0
LINE
  5
59
100
AcDbEntity
  8
0
370
    35
390
0
 62
     7
 48
0.05125
100
AcDbLine
 10
71.80571
 20
191.733551
 30
0.0
 11
69.932808
 21
190.900024
 31
0.0
210
0.0
220
0.0
230
1.0
  0
ARC
  5
5A
100
AcDbEntity
  8
0
370
    35
390
0
 62
     7
100
AcDbCircle
 10
72.262512
 20
191.936844
 30
0.0
 40
0.5
210
0.0
220
0.0
230
1.0
100
AcDbArc
 50
203.990925
 51
113.990933
  0
LINE
  5
5B
100
AcDbEntity
  8
0
370
    35
390
0
 62
     7
 48
0.10125
100
AcDbLine
 10
70.412521
 20
196.093765
 30
0.0
 11
72.059219
 21
192.393646
 31
0.0
210
0.0
220
0.0
230
1.0
  0
ARC
  5
5C
100
AcDbEntity
  8
0
370
    35
390
0
 62
     7
100
AcDbCircle
 10
70.209221
 20
196.550568
 30
0.0
 40
0.5
210
0.0
220
0.0
230
1.0
100
AcDbArc
 50
293.990935
 51
203.990925
  0
ARC
  5
5D
100
AcDbEntity
  8
0
370
    35
390
0
 62
     7
100
AcDbCircle
 10
105.0
 20
148.5
 30
0.0
 40
40.0
210
0.0
220
0.0
230
1.0
100
AcDbArc
 50
316.476792
 51
323.523207
  0
LINE
  5
5E
100
AcDbEntity
  8
0
370
    35
390
0
 62
     7
 48
0.164654
100
AcDbLine
 10
143.554688
 20
123.127785
 30
0.0
 11
137.16391
 21
124.720116
 31
0.0
210
0.0
220
0.0
230
1.0
  0
ARC
  5
5F
100
AcDbEntity
  8
0
370
    35
390
0
 62
     7
100
AcDbCircle
 10
144.039856
 20
123.006905
 30
0.0
 40
0.5
210
0.0
220
0.0
230
1.0
100
AcDbArc
 50
166.009073
 51
76.00907
  0
LINE
  5
60
100
AcDbEntity
  8
0
370
    35
390
0
 62
     7
 48
0.05125
100
AcDbLine
 10
144.656372
 20
125.481255
 30
0.0
 11
144.160736
 21
123.492065
 31
0.0
210
0.0
220
0.0
230
1.0
  0
ARC
  5
61
100
AcDbEntity
  8
0
370
    35
390
0
 62
     7
100
AcDbCircle
 10
144.777252
 20
125.966423
 30
0.0
 40
0.5
210
0.0
220
0.0
230
1.0
100
AcDbArc
 50
256.009065
 51
166.009073
  0
LINE
  5
62
100
AcDbEntity
  8
0
370
    35
390
0
 62
     7
 48
0.136663
100
AcDbLine
 10
144.292084
 20
126.087303
 30
0.0
 11
138.987747
 21
127.408936
 31
0.0
210
0.0
220
0.0
230
1.0
  0
ARC
  5
63
100
AcDbEntity
  8
0
370
    35
390
0
 62
     7
100
AcDbCircle
 10
105.0
 20
148.5
 30
0.0
 40
40.0
210
0.0
220
0.0
230
1.0
100
AcDbArc
 50
328.178367
 51
336.151155
  0
LINE
  5
64
100
AcDbEntity
  8
0
370
    35
390
0
 62
     7
 48
0.103393
100
AcDbLine
 10
145.597626
 20
131.327103
 30
0.0
 11
141.58461
 21
132.326996
 31
0.0
210
0.0
220
0.0
230
1.0
  0
ARC
  5
65
100
AcDbEntity
  8
0
370
    35
390
0
 62
     7
100
AcDbCircle
 10
146.082794
 20
131.206223
 30
0.0
 40
0.5
210
0.0
220
0.0
230
1.0
100
AcDbArc
 50
166.009073
 51
76.00907
  0
LINE
  5
66
100
AcDbEntity
  8
0
370
    35
390
0
 62
     7
 48
0.05125
100
AcDbLine
 10
146.69931
 20
133.680573
 30
0.0
 11
146.20369
 21
131.691391
 31
0.0
210
0.0
220
0.0
230
1.0
  0
ARC
  5
67
100
AcDbEntity
  8
0
370
    35
390
0
 62
     7
100
AcDbCircle
 10
146.82019
 20
134.165741
 30
0.0
 40
0.5
210
0.0
220
0.0
230
1.0
100
AcDbArc
 50
256.009065
 51
166.009073
  0
LINE
  5
68
100
AcDbEntity
  8
0
370
    35
390
0
 62
     7
 48
0.093146
100
AcDbLine
 10
146.335022
 20
134.286621
 30
0.0
 11
142.719696
 21
135.187424
 31
0.0
210
0.0
220
0.0
230
1.0
  0
ARC
  5
69
100
AcDbEntity
  8
0
370
    35
390
0
 62
     7
100
AcDbCircle
 10
105.0
 20
148.5
 30
0.0
 40
40.0
210
0.0
220
0.0
230
1.0
100
AcDbArc
 50
340.560312
 51
356.735099
  0
LINE
  5
6A
100
AcDbEntity
  8
0
370
    35
390
0
 62
     7
 48
0.119937
100
AcDbLine
 10
149.714294
 20
146.64003
 30
0.0
 11
144.935074
 21
146.221909
 31
0.0
210
0.0
220
0.0
230
1.0
  0
ARC
  5
6B
100
AcDbEntity
  8
0
370
    35
390
0
 62
     7
100
AcDbCircle
 10
150.212387
 20
146.683609
 30
0.0
 40
0.5
210
0.0
220
0.0
230
1.0
100
AcDbArc
 50
184.999994
 51
95.000002
  0
LINE
  5
6C
100
AcDbEntity
  8
0
370
    35
390
0
 62
     7
 48
0.05125
100
AcDbLine
 10
150.168808
 20
147.181702
 30
0.0
 11
149.990143
 21
149.223907
 31
0.0
210
0.0
220
0.0
230
1.0
  0
ARC
  5
6D
100
AcDbEntity
  8
0
370
    35
390
0
 62
     7
100
AcDbCircle
 10
149.946564
 20
149.722
 30
0.0
 40
0.5
210
0.0
220
0.0
230
1.0
100
AcDbArc
 50
275.000003
 51
184.999994
  0
LINE
  5
6E
100
AcDbEntity
  8
0
370
    35
390
0
 62
     7
 48
0.111831
100
AcDbLine
 10
149.448456
 20
149.678421
 30
0.0
 11
144.992218
 21
149.288559
 31
0.0
210
0.0
220
0.0
230
1.0
  0
ARC
  5
6F
100
AcDbEntity
  8
0
370
    35
390
0
 62
     7
100
AcDbCircle
 10
105.0
 20
148.5
 30
0.0
 40
40.0
210
0.0
220
0.0
230
1.0
100
AcDbArc
 50
1.129592
 51
8.870409
  0
LINE
  5
70
100
AcDbEntity
  8
0
370
    35
390
0
 62
     7
 48
0.111832
100
AcDbLine
 10
148.977829
 20
155.057877
 30
0.0
 11
144.521591
 21
154.667999
 31
0.0
210
0.0
220
0.0
230
1.0
  0
ARC
  5
71
100
AcDbEntity
  8
0
370
    35
390
0
 62
     7
100
AcDbCircle
 10
149.475922
 20
155.101456
 30
0.0
 40
0.5
210
0.0
220
0.0
230
1.0
100
AcDbArc
 50
184.999994
 51
95.000002
  0
LINE
  5
72
100
AcDbEntity
  8
0
370
    35
390
0
 62
     7
 48
0.05125
100
AcDbLine
 10
149.432343
 20
155.599548
 30
0.0
 11
149.253677
 21
157.641754
 31
0.0
210
0.0
220
0.0
230
1.0
  0
ARC
  5
73
100
AcDbEntity
  8
0
370
    35
390
0
 62
     7
100
AcDbCircle
 10
149.210098
 20
158.139847
 30
0.0
 40
0.5
210
0.0
220
0.0
230
1.0
100
AcDbArc
 50
275.000003
 51
184.999994
  0
LINE
  5
74
100
AcDbEntity
  8
0
370
    35
390
0
 62
     7
 48
0.119937
100
AcDbLine
 10
148.712006
 20
158.096268
 30
0.0
 11
143.932785
 21
157.678146
 31
0.0
210
0.0
220
0.0
230
1.0
  0
ARC
  5
75
100
AcDbEntity
  8
0
370
    35
390
0
 62
     7
100
AcDbCircle
 10
105.0
 20
148.5
 30
0.0
 40
40.0
210
0.0
220
0.0
230
1.0
100
AcDbArc
 50
13.264902
 51
29.439686
  0
LINE
  5
76
100
AcDbEntity
  8
0
370
    35
390
0
 62
     7
 48
0.093146
100
AcDbLine
 10
143.238922
 20
169.675186
 30
0.0
 11
139.834946
 21
168.160278
 31
0.0
210
0.0
220
0.0
230
1.0
  0
ARC
  5
77
100
AcDbEntity
  8
0
370
    35
390
0
 62
     7
100
AcDbCircle
 10
143.69574
 20
169.878479
 30
0.0
 40
0.5
210
0.0
220
0.0
230
1.0
100
AcDbArc
 50
203.990925
 51
113.990933
  0
LINE
  5
78
100
AcDbEntity
  8
0
370
    35
390
0
 62
     7
 48
0.05125
100
AcDbLine
 10
143.492432
 20
170.335297
 30
0.0
 11
142.65892
 21
172.208191
 31
0.0
210
0.0
220
0.0
230
1.0
  0
ARC
  5
79
100
AcDbEntity
  8
0
370
    35
390
0
 62
     7
100
AcDbCircle
 10
142.455627
 20
172.664993
 30
0.0
 40
0.5
210
0.0
220
0.0
230
1.0
100
AcDbArc
 50
293.990935
 51
203.990925
  0
LINE
  5
7A
100
AcDbEntity
  8
0
370
    35
390
0
 62
     7
 48
0.103393
100
AcDbLine
 10
141.998825
 20
172.4617
 30
0.0
 11
138.220398
 21
170.780151
 31
0.0
210
0.0
220
0.0
230
1.0
  0
ARC
  5
7B
100
AcDbEntity
  8
0
370
    35
390
0
 62
     7
100
AcDbCircle
 10
105.0
 20
148.5
 30
0.0
 40
40.0
210
0.0
220
0.0
230
1.0
100
AcDbArc
 50
33.848847
 51
41.821634
  0
LINE
  5
7C
100
AcDbEntity
  8
0
370
    35
390
0
 62
     7
 48
0.136663
100
AcDbLine
 10
139.803223
 20
177.395203
 30
0.0
 11
134.808975
 21
175.172562
 31
0.0
210
0.0
220
0.0
230
1.0
  0
ARC
  5
7D
100
AcDbEntity
  8
0
370
    35
390
0
 62
     7
100
AcDbCircle
 10
140.26004
 20
177.598495
 30
0.0
 40
0.5
210
0.0
220
0.0
230
1.0
100
AcDbArc
 50
203.990925
 51
113.990933
  0
LINE
  5
7E
100
AcDbEntity
  8
0
370
    35
390
0
 62
     7
 48
0.05125
100
AcDbLine
 10
140.056732
 20
178.055298
 30
0.0
 11
139.223221
 21
179.928192
 31
0.0
210
0.0
220
0.0
230
1.0
  0
ARC
  5
7F
100
AcDbEntity
  8
0
370
    35
390
0
 62
     7
100
AcDbCircle
 10
139.019928
 20
180.384995
 30
0.0
 40
0.5
210
0.0
220
0.0
230
1.0
100
AcDbArc
 50
293.990935
 51
203.990925
  0
LINE
  5
80
100
AcDbEntity
  8
0
370
    35
390
0
 62
     7
 48
0.164654
100
AcDbLine
 10
138.563126
 20
180.181702
 30
0.0
 11
132.545929
 21
177.503815
 31
0.0
210
0.0
220
0.0
230
1.0
  0
ARC
  5
81
100
AcDbEntity
  8
0
370
    35
390
0
 62
     7
100
AcDbCircle
 10
105.0
 20
148.5
 30
0.0
 40
40.0
210
0.0
220
0.0
230
1.0
100
AcDbArc
 50
46.476794
 51
53.523206
  0
LINE
  5
82
100
AcDbEntity
  8
0
370
    35
390
0
 62
     7
 48
0.164654
100
AcDbLine
 10
130.372208
 20
187.054688
 30
0.0
 11
128.779892
 21
180.66391
 31
0.0
210
0.0
220
0.0
230
1.0
  0
ARC
  5
83
100
AcDbEntity
  8
0
370
    35
390
0
 62
     7
100
AcDbCircle
 10
130.493103
 20
187.539856
 30
0.0
 40
0.5
210
0.0
220
0.0
230
1.0
100
AcDbArc
 50
256.009065
 51
166.009073
  0
LINE
  5
84
100
AcDbEntity
  8
0
370
    35
390
0
 62
     7
 48
0.05125
100
AcDbLine
 10
128.018738
 20
188.156372
 30
0.0
 11
130.007935
 21
187.660736
 31
0.0
210
0.0
220
0.0
230
1.0
  0
ARC
  5
85
100
AcDbEntity
  8
0
370
    35
390
0
 62
     7
100
AcDbCircle
 10
127.533577
 20
188.277252
 30
0.0
 40
0.5
210
0.0
220
0.0
230
1.0
100
AcDbArc
 50
346.009069
 51
256.009065
  0
LINE
  5
86
100
AcDbEntity
  8
0
370
    35
390
0
 62
     7
 48
0.136663
100
AcDbLine
 10
127.412697
 20
187.792084
 30
0.0
 11
126.091064
 21
182.487747
 31
0.0
210
0.0
220
0.0
230
1.0
  0
ARC
  5
87
100
AcDbEntity
  8
0
370
    35
390
0
 62
     7
100
AcDbCircle
 10
105.0
 20
148.5
 30
0.0
 40
40.0
210
0.0
220
0.0
230
1.0
100
AcDbArc
 50
58.17837
 51
66.151154
  0
LINE
  5
88
100
AcDbEntity
  8
0
370
    35
390
0
 62
     7
 48
0.103393
100
AcDbLine
 10
122.17289
 20
189.097626
 30
0.0
 11
121.173004
 21
185.08461
 31
0.0
210
0.0
220
0.0
230
1.0
  0
ARC
  5
89
100
AcDbEntity
  8
0
370
    35
390
0
 62
     7
100
AcDbCircle
 10
122.293777
 20
189.582794
 30
0.0
 40
0.5
210
0.0
220
0.0
230
1.0
100
AcDbArc
 50
256.009065
 51
166.009073
  0
LINE
  5
8A
100
AcDbEntity
  8
0
370
    35
390
0
 62
     7
 48
0.05125
100
AcDbLine
 10
119.81942
 20
190.19931
 30
0.0
 11
121.808609
 21
189.70369
 31
0.0
210
0.0
220
0.0
230
1.0
  0
ARC
  5
8B
100
AcDbEntity
  8
0
370
    35
390
0
 62
     7
100
AcDbCircle
 10
119.334259
 20
190.32019
 30
0.0
 40
0.5
210
0.0
220
0.0
230
1.0
100
AcDbArc
 50
346.009069
 51
256.009065
  0
LINE
  5
8C
100
AcDbEntity
  8
0
370
    35
390
0
 62
     7
 48
0.093146
100
AcDbLine
 10
119.213371
 20
189.835022
 30
0.0
 11
118.312576
 21
186.219696
 31
0.0
210
0.0
220
0.0
230
1.0
  0
ARC
  5
8D
100
AcDbEntity
  8
0
370
    35
390
0
 62
     7
100
AcDbCircle
 10
105.0
 20
148.5
 30
0.0
 40
40.0
210
0.0
220
0.0
230
1.0
100
AcDbArc
 50
70.560314
 51
86.735097
  0
LINE
  5
8E
100
AcDbEntity
  8
0
370
    35
390
0
 62
     7
 48
0.119937
100
AcDbLine
 10
106.85997
 20
193.214294
 30
0.0
 11
107.278099
 21
188.435074
 31
0.0
210
0.0
220
0.0
230
1.0
  0
ARC
  5
8F
100
AcDbEntity
  8
0
370
    35
390
0
 62
     7
100
AcDbCircle
 10
106.816391
 20
193.712387
 30
0.0
 40
0.5
210
0.0
220
0.0
230
1.0
100
AcDbArc
 50
275.000003
 51
184.999994
  0
LINE
  5
90
100
AcDbEntity
  8
0
370
    35
390
0
 62
     7
 48
0.05125
100
AcDbLine
 10
106.318298
 20
193.668808
 30
0.0
 11
104.276093
 21
193.490143
 31
0.0
210
0.0
220
0.0
230
1.0
  0
ARC
  5
91
100
AcDbEntity
  8
0
370
    35
390
0
 62
     7
100
AcDbCircle
 10
103.778
 20
193.446564
 30
0.0
 40
0.5
210
0.0
220
0.0
230
1.0
100
AcDbArc
 50
5.0
 51
275.000003
  0
LINE
  5
92
100
AcDbEntity
  8
0
370
    35
390
0
 62
     7
 48
0.111831
100
AcDbLine
 10
103.821579
 20
192.948456
 30
0.0
 11
104.211449
 21
188.492218
 31
0.0
210
0.0
220
0.0
230
1.0
  0
ARC
  5
93
100
AcDbEntity
  8
0
370
    35
390
0
 62
     7
100
AcDbCircle
 10
105.0
 20
148.5
 30
0.0
 40
40.0
210
0.0
220
0.0
230
1.0
100
AcDbArc
 50
91.129593
 51
98.87041
  0
LINE
  5
94
100
AcDbEntity
  8
0
370
    35
390
0
 62
     7
 48
0.111831
100
AcDbLine
 10
98.442123
 20
192.477829
 30
0.0
 11
98.831993
 21
188.021591
 31
0.0
210
0.0
220
0.0
230
1.0
  0
ARC
  5
95
100
AcDbEntity
  8
0
370
    35
390
0
 62
     7
100
AcDbCircle
 10
98.398544
 20
192.975922
 30
0.0
 40
0.5
210
0.0
220
0.0
230
1.0
100
AcDbArc
 50
275.000003
 51
184.999994
  0
LINE
  5
96
100
AcDbEntity
  8
0
370
    35
390
0
 62
     7
 48
0.05125
100
AcDbLine
 10
97.900452
 20
192.932343
 30
0.0
 11
95.858253
 21
192.753677
 31
0.0
210
0.0
220
0.0
230
1.0
  0
ARC
  5
97
100
AcDbEntity
  8
0
370
    35
390
0
 62
     7
100
AcDbCircle
 10
95.360153
 20
192.710098
 30
0.0
 40
0.5
210
0.0
220
0.0
230
1.0
100
AcDbArc
 50
5.0
 51
275.000003
  0
LINE
  5
98
100
AcDbEntity
  8
0
370
    35
390
0
 62
     7
 48
0.119937
100
AcDbLine
 10
95.403732
 20
192.212006
 30
0.0
 11
95.821861
 21
187.432785
 31
0.0
210
0.0
220
0.0
230
1.0
  0
ARC
  5
99
100
AcDbEntity
  8
0
370
    35
390
0
 62
     7
100
AcDbCircle
 10
105.0
 20
148.5
 30
0.0
 40
40.0
210
0.0
220
0.0
230
1.0
100
AcDbArc
 50
103.264899
 51
119.439682
  0
LINE
  5
9A
100
AcDbEntity
  8
0
370
    35
390
0
 62
     7
 48
0.093146
100
AcDbLine
 10
83.824806
 20
186.738922
 30
0.0
 11
85.339714
 21
183.334946
 31
0.0
210
0.0
220
0.0
230
1.0
  0
ARC
  5
9B
100
AcDbEntity
  8
0
370
    35
390
0
 62
     7
100
AcDbCircle
 10
83.621513
 20
187.19574
 30
0.0
 40
0.5
210
0.0
220
0.0
230
1.0
100
AcDbArc
 50
293.990935
 51
203.990925
  0
LINE
  5
9C
100
AcDbEntity
  8
0
370
    35
390
0
 62
     7
 48
0.05125
100
AcDbLine
 10
83.164703
 20
186.992432
 30
0.0
 11
81.291809
 21
186.15892
 31
0.0
210
0.0
220
0.0
230
1.0
  0
ARC
  5
9D
100
AcDbEntity
  8
0
370
    35
390
0
 62
     7
100
AcDbCircle
 10
80.835007
 20
185.955627
 30
0.0
 40
0.5
210
0.0
220
0.0
230
1.0
100
AcDbArc
 50
23.990932
 51
293.990935
  0
LINE
  5
9E
100
AcDbEntity
  8
0
370
    35
390
0
 62
     7
 48
0.103393
100
AcDbLine
 10
81.0383
 20
185.498825
 30
0.0
 11
82.719849
 21
181.720398
 31
0.0
210
0.0
220
0.0
230
1.0
  0
ARC
  5
9F
100
AcDbEntity
  8
0
370
    35
390
0
 62
     7
100
AcDbCircle
 10
105.0
 20
148.5
 30
0.0
 40
40.0
210
0.0
220
0.0
230
1.0
100
AcDbArc
 50
123.848842
 51
131.82164
  0
LINE
  5
A0
100
AcDbEntity
  8
0
370
    35
390
0
 62
     7
 48
0.136663
100
AcDbLine
 10
76.104805
 20
183.303223
 30
0.0
 11
78.327446
 21
178.308975
 31
0.0
210
0.0
220
0.0
230
1.0
  0
ARC
  5
A1
100
AcDbEntity
  8
0
370
    35
390
0
 62
     7
100
AcDbCircle
 10
75.901512
 20
183.76004
 30
0.0
 40
0.5
210
0.0
220
0.0
230
1.0
100
AcDbArc
 50
293.990935
 51
203.990925
  0
LINE
  5
A2
100
AcDbEntity
  8
0
370
    35
390
0
 62
     7
 48
0.05125
100
AcDbLine
 10
75.444702
 20
183.556732
 30
0.0
 11
73.571808
 21
182.723221
 31
0.0
210
0.0
220
0.0
230
1.0
  0
ARC
  5
A3
100
AcDbEntity
  8
0
370
    35
390
0
 62
     7
100
AcDbCircle
 10
73.114998
 20
182.519928
 30
0.0
 40
0.5
210
0.0
220
0.0
230
1.0
100
AcDbArc
 50
23.990932
 51
293.990935
  0
LINE
  5
A4
100
AcDbEntity
  8
0
370
    35
390
0
 62
     7
 48
0.164654
100
AcDbLine
 10
73.318298
 20
182.063126
 30
0.0
 11
75.996178
 21
176.045929
 31
0.0
210
0.0
220
0.0
230
1.0
  0
ARC
  5
A5
100
AcDbEntity
  8
0
370
    35
390
0
 62
     7
100
AcDbCircle
 10
105.0
 20
148.5
 30
0.0
 40
40.0
210
0.0
220
0.0
230
1.0
100
AcDbArc
 50
136.476797
 51
143.523202
  0
LINE
  5
A6
100
AcDbEntity
  8
0
370
    35
390
0
 62
     7
 48
0.164654
100
AcDbLine
 10
66.445313
 20
173.872208
 30
0.0
 11
72.83609
 21
172.279892
 31
0.0
210
0.0
220
0.0
230
1.0
  0
ARC
  5
A7
100
AcDbEntity
  8
0
370
    35
390
0
 62
     7
100
AcDbCircle
 10
65.960144
 20
173.993103
 30
0.0
 40
0.5
210
0.0
220
0.0
230
1.0
100
AcDbArc
 50
346.009069
 51
256.009065
  0
LINE
  5
A8
100
AcDbEntity
  8
0
370
    35
390
0
 62
     7
 48
0.05125
100
AcDbLine
 10
65.343628
 20
171.518738
 30
0.0
 11
65.839256
 21
173.507935
 31
0.0
210
0.0
220
0.0
230
1.0
  0
ARC
  5
A9
100
AcDbEntity
  8
0
370
    35
390
0
 62
     7
100
AcDbCircle
 10
65.222748
 20
171.033585
 30
0.0
 40
0.5
210
0.0
220
0.0
230
1.0
100
AcDbArc
 50
76.00907
 51
346.009069
  0
LINE
  5
AA
100
AcDbEntity
  8
0
370
    35
390
0
 62
     7
 48
0.136663
100
AcDbLine
 10
65.707916
 20
170.912689
 30
0.0
 11
71.012253
 21
169.591064
 31
0.0
210
0.0
220
0.0
230
1.0
  0
ARC
  5
AB
100
AcDbEntity
  8
0
370
    35
390
0
 62
     7
100
AcDbCircle
 10
105.0
 20
148.5
 30
0.0
 40
40.0
210
0.0
220
0.0
230
1.0
100
AcDbArc
 50
148.178372
 51
156.151156
  0
LINE
  5
AC
100
AcDbEntity
  8
0
370
    35
390
0
 62
     7
 48
0.103393
100
AcDbLine
 10
64.402367
 20
165.672897
 30
0.0
 11
68.41539
 21
164.673004
 31
0.0
210
0.0
220
0.0
230
1.0
  0
ARC
  5
AD
100
AcDbEntity
  8
0
370
    35
390
0
 62
     7
100
AcDbCircle
 10
63.917198
 20
165.793777
 30
0.0
 40
0.5
210
0.0
220
0.0
230
1.0
100
AcDbArc
 50
346.009069
 51
256.009065
  0
LINE
  5
AE
100
AcDbEntity
  8
0
370
    35
390
0
 62
     7
 48
0.05125
100
AcDbLine
 10
63.30069
 20
163.319427
 30
0.0
 11
63.796314
 21
165.308609
 31
0.0
210
0.0
220
0.0
230
1.0
  0
ARC
  5
AF
100
AcDbEntity
  8
0
370
    35
390
0
 62
     7
100
AcDbCircle
 10
63.179806
 20
162.834259
 30
0.0
 40
0.5
210
0.0
220
0.0
230
1.0
100
AcDbArc
 50
76.00907
 51
346.009069
  0
LINE
  5
B0
100
AcDbEntity
  8
0
370
    35
390
0
 62
     7
 48
0.093147
100
AcDbLine
 10
63.664974
 20
162.713379
 30
0.0
 11
67.280304
 21
161.812576
 31
0.0
210
0.0
220
0.0
230
1.0
  0
ARC
  5
B1
100
AcDbEntity
  8
0
370
    35
390
0
 62
     7
100
AcDbCircle
 10
105.0
 20
148.5
 30
0.0
 40
40.0
210
0.0
220
0.0
230
1.0
100
AcDbArc
 50
160.560317
 51
176.735093
  0
LINE
  5
B2
100
AcDbEntity
  8
0
370
    35
390
0
 62
     7
 48
0.119937
100
AcDbLine
 10
60.285709
 20
150.35997
 30
0.0
 11
65.064926
 21
150.778091
 31
0.0
210
0.0
220
0.0
230
1.0
  0
ARC
  5
B3
100
AcDbEntity
  8
0
370
    35
390
0
 62
     7
100
AcDbCircle
 10
59.787613
 20
150.316391
 30
0.0
 40
0.5
210
0.0
220
0.0
230
1.0
100
AcDbArc
 50
5.0
 51
275.000003
  0
LINE
  5
B4
100
AcDbEntity
  8
0
370
    35
390
0
 62
     7
 48
0.05125
100
AcDbLine
 10
59.831192
 20
149.818298
 30
0.0
 11
60.009861
 21
147.776093
 31
0.0
210
0.0
220
0.0
230
1.0
  0
ARC
  5
B5
100
AcDbEntity
  8
0
370
    35
390
0
 62
     7
100
AcDbCircle
 10
60.053436
 20
147.278
 30
0.0
 40
0.5
210
0.0
220
0.0
230
1.0
100
AcDbArc
 50
95.000002
 51
5.0
  0
LINE
  5
B6
100
AcDbEntity
  8
0
370
    35
390
0
 62
     7
 48
0.111831
100
AcDbLine
 10
60.551537
 20
147.321579
 30
0.0
 11
65.007774
 21
147.711441
 31
0.0
210
0.0
220
0.0
230
1.0
  0
ARC
  5
B7
100
AcDbEntity
  8
0
370
    35
390
0
 62
     7
100
AcDbCircle
 10
105.0
 20
148.5
 30
0.0
 40
40.0
210
0.0
220
0.0
230
1.0
100
AcDbArc
 50
181.129585
 51
188.870403
  0
LINE
  5
B8
100
AcDbEntity
  8
0
370
    35
390
0
 62
     7
 48
0.111831
100
AcDbLine
 10
61.022175
 20
141.942123
 30
0.0
 11
65.478409
 21
142.332001
 31
0.0
210
0.0
220
0.0
230
1.0
  0
ARC
  5
B9
100
AcDbEntity
  8
0
370
    35
390
0
 62
     7
100
AcDbCircle
 10
60.524078
 20
141.898544
 30
0.0
 40
0.5
210
0.0
220
0.0
230
1.0
100
AcDbArc
 50
5.0
 51
275.000003
  0
LINE
  5
BA
100
AcDbEntity
  8
0
370
    35
390
0
 62
     7
 48
0.05125
100
AcDbLine
 10
60.567657
 20
141.400452
 30
0.0
 11
60.746326
 21
139.358246
 31
0.0
210
0.0
220
0.0
230
1.0
  0
ARC
  5
BB
100
AcDbEntity
  8
0
370
    35
390
0
 62
     7
100
AcDbCircle
 10
60.789906
 20
138.860153
 30
0.0
 40
0.5
210
0.0
220
0.0
230
1.0
100
AcDbArc
 50
95.000002
 51
5.0
  0
LINE
  5
BC
100
AcDbEntity
  8
0
370
    35
390
0
 62
     7
 48
0.119937
100
AcDbLine
 10
61.288002
 20
138.903732
 30
0.0
 11
66.067215
 21
139.321854
 31
0.0
210
0.0
220
0.0
230
1.0
  0
ARC
  5
BD
100
AcDbEntity
  8
0
370
    35
390
0
 62
     7
100
AcDbCircle
 10
105.0
 20
148.5
 30
0.0
 40
40.0
210
0.0
220
0.0
230
1.0
100
AcDbArc
 50
193.264905
 51
209.439681
  0
LINE
  5
BE
100
AcDbEntity
  8
0
370
    35
390
0
 62
     7
 48
0.093147
100
AcDbLine
 10
66.76107
 20
127.324806
 30
0.0
 11
70.165054
 21
128.839722
 31
0.0
210
0.0
220
0.0
230
1.0
  0
ARC
  5
BF
100
AcDbEntity
  8
0
370
    35
390
0
 62
     7
100
AcDbCircle
 10
66.30426
 20
127.121513
 30
0.0
 40
0.5
210
0.0
220
0.0
230
1.0
100
AcDbArc
 50
23.990932
 51
293.990935
  0
LINE
  5
C0
100
AcDbEntity
  8
0
370
    35
390
0
 62
     7
 48
0.05125
100
AcDbLine
 10
66.507561
 20
126.664703
 30
0.0
 11
67.34108
 21
124.791809
 31
0.0
210
0.0
220
0.0
230
1.0
  0
ARC
  5
C1
100
AcDbEntity
  8
0
370
    35
390
0
 62
     7
100
AcDbCircle
 10
67.544373
 20
124.335007
 30
0.0
 40
0.5
210
0.0
220
0.0
230
1.0
100
AcDbArc
 50
113.990933
 51
23.990932
  0
LINE
  5
C2
100
AcDbEntity
  8
0
370
    35
390
0
 62
     7
 48
0.103393
100
AcDbLine
 10
68.001175
 20
124.5383
 30
0.0
 11
71.779602
 21
126.219849
 31
0.0
210
0.0
220
0.0
230
1.0
  0
ARC
  5
C3
100
AcDbEntity
  8
0
370
    35
390
0
 62
     7
100
AcDbCircle
 10
105.0
 20
148.5
 30
0.0
 40
40.0
210
0.0
220
0.0
230
1.0
100
AcDbArc
 50
213.848842
 51
221.821639
  0
LINE
  5
C4
100
AcDbEntity
  8
0
370
    35
390
0
 62
     7
 48
0.136663
100
AcDbLine
 10
70.196777
 20
119.604805
 30
0.0
 11
75.191025
 21
121.827446
 31
0.0
210
0.0
220
0.0
230
1.0
  0
ARC
  5
C5
100
AcDbEntity
  8
0
370
    35
390
0
 62
     7
100
AcDbCircle
 10
69.739967
 20
119.401512
 30
0.0
 40
0.5
210
0.0
220
0.0
230
1.0
100
AcDbArc
 50
23.990932
 51
293.990935
  0
LINE
  5
C6
100
AcDbEntity
  8
0
370
    35
390
0
 62
     7
 48
0.05125
100
AcDbLine
 10
69.943268
 20
118.944702
 30
0.0
 11
70.776779
 21
117.071808
 31
0.0
210
0.0
220
0.0
230
1.0
  0
ARC
  5
C7
100
AcDbEntity
  8
0
370
    35
390
0
 62
     7
100
AcDbCircle
 10
70.980072
 20
116.614998
 30
0.0
 40
0.5
210
0.0
220
0.0
230
1.0
100
AcDbArc
 50
113.990933
 51
23.990932
  0
LINE
  5
C8
100
AcDbEntity
  8
0
370
    35
390
0
 62
     7
 48
0.164654
100
AcDbLine
 10
71.436874
 20
116.818298
 30
0.0
 11
77.454071
 21
119.496178
 31
0.0
210
0.0
220
0.0
230
1.0
  0
ARC
  5
C9
100
AcDbEntity
  8
0
370
    35
390
0
 62
     7
100
AcDbCircle
 10
105.0
 20
148.5
 30
0.0
 40
40.0
210
0.0
220
0.0
230
1.0
100
AcDbArc
 50
226.476796
 51
233.523201
  0
LINE
  5
CA
100
AcDbEntity
  8
0
370
    35
390
0
 62
     7
 48
0.164654
100
AcDbLine
 10
79.627785
 20
109.945313
 30
0.0
 11
81.220116
 21
116.33609
 31
0.0
210
0.0
220
0.0
230
1.0
  0
ARC
  5
CB
100
AcDbEntity
  8
0
370
    35
390
0
 62
     7
100
AcDbCircle
 10
79.506905
 20
109.460144
 30
0.0
 40
0.5
210
0.0
220
0.0
230
1.0
100
AcDbArc
 50
76.00907
 51
346.009069
  0
LINE
  5
CC
100
AcDbEntity
  8
0
370
    35
390
0
 62
     7
 48
0.05125
100
AcDbLine
 10
81.981255
 20
108.843628
 30
0.0
 11
79.992065
 21
109.339256
 31
0.0
210
0.0
220
0.0
230
1.0
  0
ARC
  5
CD
100
AcDbEntity
  8
0
370
    35
390
0
 62
     7
100
AcDbCircle
 10
82.466423
 20
108.722748
 30
0.0
 40
0.5
210
0.0
220
0.0
230
1.0
100
AcDbArc
 50
166.009073
 51
76.00907
  0
LINE
  5
CE
100
AcDbEntity
  8
0
370
    35
390
0
 62
     7
 48
0.136663
100
AcDbLine
 10
82.587303
 20
109.207916
 30
0.0
 11
83.908936
 21
114.512253
 31
0.0
210
0.0
220
0.0
230
1.0
  0
ARC
  5
CF
100
AcDbEntity
  8
0
370
    35
390
0
 62
     7
100
AcDbCircle
 10
105.0
 20
148.5
 30
0.0
 40
40.0
210
0.0
220
0.0
230
1.0
100
AcDbArc
 50
238.178372
 51
246.151156
  0
LINE
  5
D0
100
AcDbEntity
  8
0
370
    35
390
0
 62
     7
 48
0.103393
100
AcDbLine
 10
87.82711
 20
107.902367
 30
0.0
 11
88.826996
 21
111.91539
 31
0.0
210
0.0
220
0.0
230
1.0
  0
ARC
  5
D1
100
AcDbEntity
  8
0
370
    35
390
0
 62
     7
100
AcDbCircle
 10
87.706223
 20
107.417198
 30
0.0
 40
0.5
210
0.0
220
0.0
230
1.0
100
AcDbArc
 50
76.00907
 51
346.009069
  0
LINE
  5
D2
100
AcDbEntity
  8
0
370
    35
390
0
 62
     7
 48
0.05125
100
AcDbLine
 10
90.18058
 20
106.80069
 30
0.0
 11
88.191391
 21
107.29631
 31
0.0
210
0.0
220
0.0
230
1.0
  0
ARC
  5
D3
100
AcDbEntity
  8
0
370
    35
390
0
 62
     7
100
AcDbCircle
 10
90.665741
 20
106.67981
 30
0.0
 40
0.5
210
0.0
220
0.0
230
1.0
100
AcDbArc
 50
166.009073
 51
76.00907
  0
LINE
  5
D4
100
AcDbEntity
  8
0
370
    35
390
0
 62
     7
 48
0.093146
100
AcDbLine
 10
90.786629
 20
107.164978
 30
0.0
 11
91.687424
 21
110.780304
 31
0.0
210
0.0
220
0.0
230
1.0
  0
ARC
  5
D5
100
AcDbEntity
  8
0
370
    35
390
0
 62
     7
100
AcDbCircle
 10
105.0
 20
148.5
 30
0.0
 40
40.0
210
0.0
220
0.0
230
1.0
100
AcDbArc
 50
250.560309
 51
266.735099
  0
LINE
  5
D6
100
AcDbEntity
  8
0
370
    35
390
0
 62
     7
 48
0.119937
100
AcDbLine
 10
103.14003
 20
103.785706
 30
0.0
 11
102.721901
 21
108.564926
 31
0.0
210
0.0
220
0.0
230
1.0
  0
ARC
  5
D7
100
AcDbEntity
  8
0
370
    35
390
0
 62
     7
100
AcDbCircle
 10
103.183609
 20
103.287613
 30
0.0
 40
0.5
210
0.0
220
0.0
230
1.0
100
AcDbArc
 50
95.000002
 51
5.0
  0
LINE
  5
D8
100
AcDbEntity
  8
0
370
    35
390
0
 62
     7
 48
0.05125
100
AcDbLine
 10
103.681702
 20
103.331192
 30
0.0
 11
105.723907
 21
103.509857
 31
0.0
210
0.0
220
0.0
230
1.0
  0
ARC
  5
D9
100
AcDbEntity
  8
0
370
    35
390
0
 62
     7
100
AcDbCircle
 10
106.222
 20
103.553436
 30
0.0
 40
0.5
210
0.0
220
0.0
230
1.0
100
AcDbArc
 50
184.999994
 51
95.000002
  0
LINE
  5
DA
100
AcDbEntity
  8
0
370
    35
390
0
 62
     7
 48
0.111831
100
AcDbLine
 10
106.178421
 20
104.051537
 30
0.0
 11
105.788551
 21
108.507774
 31
0.0
210
0.0
220
0.0
230
1.0
  0
ARC
  5
DB
100
AcDbEntity
  8
0
370
    35
390
0
 62
     7
100
AcDbCircle
 10
105.0
 20
148.5
 30
0.0
 40
40.0
210
0.0
220
0.0
230
1.0
100
AcDbArc
 50
271.129595
 51
278.870405
  0
LINE
  5
DC
100
AcDbEntity
  8
0
370
    35
390
0
 62
     7
 48
0.111831
100
AcDbLine
 10
111.557877
 20
104.522171
 30
0.0
 11
111.168007
 21
108.978409
 31
0.0
210
0.0
220
0.0
230
1.0
  0
ARC
  5
DD
100
AcDbEntity
  8
0
370
    35
390
0
 62
     7
100
AcDbCircle
 10
111.601456
 20
104.024078
 30
0.0
 40
0.5
210
0.0
220
0.0
230
1.0
100
AcDbArc
 50
95.000002
 51
5.0
  0
LINE
  5
DE
100
AcDbEntity
  8
0
370
    35
390
0
 62
     7
 48
0.05125
100
AcDbLine
 10
112.099548
 20
104.067657
 30
0.0
 11
114.141747
 21
104.246323
 31
0.0
210
0.0
220
0.0
230
1.0
  0
ARC
  5
DF
100
AcDbEntity
  8
0
370
    35
390
0
 62
     7
100
AcDbCircle
 10
114.639847
 20
104.289902
 30
0.0
 40
0.5
210
0.0
220
0.0
230
1.0
100
AcDbArc
 50
184.999994
 51
95.000002
  0
LINE
  5
E0
100
AcDbEntity
  8
0
370
    35
390
0
 62
     7
 48
0.119937
100
AcDbLine
 10
114.596268
 20
104.788002
 30
0.0
 11
114.178139
 21
109.567215
 31
0.0
210
0.0
220
0.0
230
1.0
  0
ARC
  5
E1
100
AcDbEntity
  8
0
370
    35
390
0
 62
     7
100
AcDbCircle
 10
105.0
 20
148.5
 30
0.0
 40
40.0
210
0.0
220
0.0
230
1.0
100
AcDbArc
 50
283.264901
 51
299.439691
  0
LINE
  5
E2
100
AcDbEntity
  8
0
370
    35
390
0
 62
     7
 48
0.093147
100
AcDbLine
 10
126.175194
 20
110.26107
 30
0.0
 11
124.660286
 21
113.665054
 31
0.0
210
0.0
220
0.0
230
1.0
  0
ARC
  5
E3
100
AcDbEntity
  8
0
370
    35
390
0
 62
     7
100
AcDbCircle
 10
126.378487
 20
109.80426
 30
0.0
 40
0.5
210
0.0
220
0.0
230
1.0
100
AcDbArc
 50
113.990933
 51
23.990932
  0
LINE
  5
E4
100
AcDbEntity
  8
0
370
    35
390
0
 62
     7
 48
0.05125
100
AcDbLine
 10
126.835297
 20
110.007561
 30
0.0
 11
128.708191
 21
110.84108
 31
0.0
210
0.0
220
0.0
230
1.0
  0
ARC
  5
E5
100
AcDbEntity
  8
0
370
    35
390
0
 62
     7
100
AcDbCircle
 10
129.164993
 20
111.044373
 30
0.0
 40
0.5
210
0.0
220
0.0
230
1.0
100
AcDbArc
 50
203.990925
 51
113.990933
  0
LINE
  5
E6
100
AcDbEntity
  8
0
370
    35
390
0
 62
     7
 48
0.103393
100
AcDbLine
 10
128.9617
 20
111.501175
 30
0.0
 11
127.280151
 21
115.279602
 31
0.0
210
0.0
220
0.0
230
1.0
  0
ARC
  5
E7
100
AcDbEntity
  8
0
370
    35
390
0
 62
     7
100
AcDbCircle
 10
105.0
 20
148.5
 30
0.0
 40
40.0
210
0.0
220
0.0
230
1.0
100
AcDbArc
 50
303.848847
 51
311.821635
  0
LINE
  5
E8
100
AcDbEntity
  8
0
370
    35
390
0
 62
     7
 48
0.136663
100
AcDbLine
 10
133.895203
 20
113.696777
 30
0.0
 11
131.672562
 21
118.691025
 31
0.0
210
0.0
220
0.0
230
1.0
  0
ARC
  5
E9
100
AcDbEntity
  8
0
370
    35
390
0
 62
     7
100
AcDbCircle
 10
134.098495
 20
113.239967
 30
0.0
 40
0.5
210
0.0
220
0.0
230
1.0
100
AcDbArc
 50
113.990933
 51
23.990932
  0
LINE
  5
EA
100
AcDbEntity
  8
0
370
    35
390
0
 62
     7
 48
0.05125
100
AcDbLine
 10
134.555298
 20
113.443268
 30
0.0
 11
136.428192
 21
114.276779
 31
0.0
210
0.0
220
0.0
230
1.0
  0
ARC
  5
EB
100
AcDbEntity
  8
0
370
    35
390
0
 62
     7
100
AcDbCircle
 10
136.884995
 20
114.480072
 30
0.0
 40
0.5
210
0.0
220
0.0
230
1.0
100
AcDbArc
 50
203.990925
 51
113.990933
  0
LINE
  5
EC
100
AcDbEntity
  8
0
370
    35
390
0
 62
     7
 48
0.164654
100
AcDbLine
 10
136.681702
 20
114.936874
 30
0.0
 11
134.003815
 21
120.954071
 31
0.0
210
0.0
220
0.0
230
1.0
  0
CIRCLE
  5
ED
100
AcDbEntity
  8
0
370
    35
390
0
 62
     7
100
AcDbCircle
 10
126.130913
 20
193.815384
 30
0.0
 40
1.5
210
0.0
220
0.0
230
1.0
  0
CIRCLE
  5
EE
100
AcDbEntity
  8
0
370
    35
390
0
 62
     7
100
AcDbCircle
 10
100.642212
 20
198.309738
 30
0.0
 40
1.5
210
0.0
220
0.0
230
1.0
  0
CIRCLE
  5
EF
100
AcDbEntity
  8
0
370
    35
390
0
 62
     7
100
AcDbCircle
 10
145.957611
 20
177.178818
 30
0.0
 40
1.5
210
0.0
220
0.0
230
1.0
  0
CIRCLE
  5
F0
100
AcDbEntity
  8
0
370
    35
390
0
 62
     7
100
AcDbCircle
 10
154.809738
 20
152.857788
 30
0.0
 40
1.5
210
0.0
220
0.0
230
1.0
  0
CIRCLE
  5
F1
100
AcDbEntity
  8
0
370
    35
390
0
 62
     7
100
AcDbCircle
 10
150.315384
 20
127.369087
 30
0.0
 40
1.5
210
0.0
220
0.0
230
1.0
  0
CIRCLE
  5
F2
100
AcDbEntity
  8
0
370
    35
390
0
 62
     7
100
AcDbCircle
 10
133.678818
 20
107.542397
 30
0.0
 40
1.5
210
0.0
220
0.0
230
1.0
  0
CIRCLE
  5
F3
100
AcDbEntity
  8
0
370
    35
390
0
 62
     7
100
AcDbCircle
 10
109.357788
 20
98.690262
 30
0.0
 40
1.5
210
0.0
220
0.0
230
1.0
  0
CIRCLE
  5
F4
100
AcDbEntity
  8
0
370
    35
390
0
 62
     7
100
AcDbCircle
 10
83.869087
 20
103.184616
 30
0.0
 40
1.5
210
0.0
220
0.0
230
1.0
  0
CIRCLE
  5
F5
100
AcDbEntity
  8
0
370
    35
390
0
 62
     7
100
AcDbCircle
 10
64.042397
 20
119.821182
 30
0.0
 40
1.5
210
0.0
220
0.0
230
1.0
  0
CIRCLE
  5
F6
100
AcDbEntity
  8
0
370
    35
390
0
 62
     7
100
AcDbCircle
 10
55.190266
 20
144.142212
 30
0.0
 40
1.5
210
0.0
220
0.0
230
1.0
  0
CIRCLE
  5
F7
100
AcDbEntity
  8
0
370
    35
390
0
 62
     7
100
AcDbCircle
 10
59.684612
 20
169.63092
 30
0.0
 40
1.5
210
0.0
220
0.0
230
1.0
  0
CIRCLE
  5
F8
100
AcDbEntity
  8
0
370
    35
390
0
 62
     7
100
AcDbCircle
 10
76.321182
 20
189.457611
 30
0.0
 40
1.5
210
0.0
220
0.0
230
1.0
  0
ARC
  5
F9
100
AcDbEntity
  8
0
370
    35
390
0
 62
     7
100
AcDbCircle
 10
94.139977
 20
206.65683
 30
0.0
 40
0.5
210
0.0
220
0.0
230
1.0
100
AcDbArc
 50
5.0
 51
275.000003
  0
LINE
  5
FA
100
AcDbEntity
  8
0
370
    35
390
0
 62
     7
 48
0.10125
100
AcDbLine
 10
94.183548
 20
206.158722
 30
0.0
 11
94.53653
 21
202.124146
 31
0.0
210
0.0
220
0.0
230
1.0
  0
ARC
  5
FB
100
AcDbEntity
  8
0
370
    35
390
0
 62
     7
100
AcDbCircle
 10
94.580109
 20
201.626038
 30
0.0
 40
0.5
210
0.0
220
0.0
230
1.0
100
AcDbArc
 50
95.000002
 51
5.0
  0
LINE
  5
FC
100
AcDbEntity
  8
0
370
    35
390
0
 62
     7
 48
0.05125
100
AcDbLine
 10
97.120407
 20
201.848282
 30
0.0
 11
95.078209
 21
201.669617
 31
0.0
210
0.0
220
0.0
230
1.0
  0
ARC
  5
FD
100
AcDbEntity
  8
0
370
    35
390
0
 62
     7
100
AcDbCircle
 10
97.6185
 20
201.891861
 30
0.0
 40
0.5
210
0.0
220
0.0
230
1.0
100
AcDbArc
 50
184.999994
 51
95.000002
  0
LINE
  5
FE
100
AcDbEntity
  8
0
370
    35
390
0
 62
     7
 48
0.10125
100
AcDbLine
 10
97.221947
 20
206.424545
 30
0.0
 11
97.574928
 21
202.389954
 31
0.0
210
0.0
220
0.0
230
1.0
  0
ARC
  5
FF
100
AcDbEntity
  8
0
370
    35
390
0
 62
     7
100
AcDbCircle
 10
97.178368
 20
206.922638
 30
0.0
 40
0.5
210
0.0
220
0.0
230
1.0
100
AcDbArc
 50
275.000003
 51
184.999994
  0
ARC
  5
100
100
AcDbEntity
  8
0
370
    35
390
0
 62
     7
100
AcDbCircle
 10
102.557816
 20
207.39328
 30
0.0
 40
0.5
210
0.0
220
0.0
230
1.0
100
AcDbArc
 50
5.0
 51
275.000003
  0
LINE
  5
101
100
AcDbEntity
  8
0
370
    35
390
0
 62
     7
 48
0.10125
100
AcDbLine
 10
102.601395
 20
206.895187
 30
0.0
 11
102.954376
 21
202.860596
 31
0.0
210
0.0
220
0.0
230
1.0
  0
ARC
  5
102
100
AcDbEntity
  8
0
370
    35
390
0
 62
     7
100
AcDbCircle
 10
102.997955
 20
202.362503
 30
0.0
 40
0.5
210
0.0
220
0.0
230
1.0
100
AcDbArc
 50
95.000002
 51
5.0
  0
LINE
  5
103
100
AcDbEntity
  8
0
370
    35
390
0
 62
     7
 48
0.05125
100
AcDbLine
 10
105.538254
 20
202.584747
 30
0.0
 11
103.496056
 21
202.406082
 31
0.0
210
0.0
220
0.0
230
1.0
  0
ARC
  5
104
100
AcDbEntity
  8
0
370
    35
390
0
 62
     7
100
AcDbCircle
 10
106.036346
 20
202.628326
 30
0.0
 40
0.5
210
0.0
220
0.0
230
1.0
100
AcDbArc
 50
184.999994
 51
95.000002
  0
LINE
  5
105
100
AcDbEntity
  8
0
370
    35
390
0
 62
     7
 48
0.10125
100
AcDbLine
 10
105.639793
 20
207.161011
 30
0.0
 11
105.992767
 21
203.126434
 31
0.0
210
0.0
220
0.0
230
1.0
  0
ARC
  5
106
100
AcDbEntity
  8
0
370
    35
390
0
 62
     7
100
AcDbCircle
 10
105.596214
 20
207.659119
 30
0.0
 40
0.5
210
0.0
220
0.0
230
1.0
100
AcDbArc
 50
275.000003
 51
184.999994
  0
ARC
  5
107
100
AcDbEntity
  8
0
370
    35
390
0
 62
     7
100
AcDbCircle
 10
163.15683
 20
159.360031
 30
0.0
 40
0.5
210
0.0
220
0.0
230
1.0
100
AcDbArc
 50
275.000003
 51
184.999994
  0
LINE
  5
108
100
AcDbEntity
  8
0
370
    35
390
0
 62
     7
 48
0.10125
100
AcDbLine
 10
162.658722
 20
159.316452
 30
0.0
 11
158.624146
 21
158.96347
 31
0.0
210
0.0
220
0.0
230
1.0
  0
ARC
  5
109
100
AcDbEntity
  8
0
370
    35
390
0
 62
     7
100
AcDbCircle
 10
158.126038
 20
158.919891
 30
0.0
 40
0.5
210
0.0
220
0.0
230
1.0
100
AcDbArc
 50
5.0
 51
275.000003
  0
LINE
  5
10A
100
AcDbEntity
  8
0
370
    35
390
0
 62
     7
 48
0.05125
100
AcDbLine
 10
158.348282
 20
156.379593
 30
0.0
 11
158.169617
 21
158.421799
 31
0.0
210
0.0
220
0.0
230
1.0
  0
ARC
  5
10B
100
AcDbEntity
  8
0
370
    35
390
0
 62
     7
100
AcDbCircle
 10
158.391861
 20
155.8815
 30
0.0
 40
0.5
210
0.0
220
0.0
230
1.0
100
AcDbArc
 50
95.000002
 51
5.0
  0
LINE
  5
10C
100
AcDbEntity
  8
0
370
    35
390
0
 62
     7
 48
0.10125
100
AcDbLine
 10
162.924545
 20
156.278061
 30
0.0
 11
158.889954
 21
155.925079
 31
0.0
210
0.0
220
0.0
230
1.0
  0
ARC
  5
10D
100
AcDbEntity
  8
0
370
    35
390
0
 62
     7
100
AcDbCircle
 10
163.422638
 20
156.32164
 30
0.0
 40
0.5
210
0.0
220
0.0
230
1.0
100
AcDbArc
 50
184.999994
 51
95.000002
  0
ARC
  5
10E
100
AcDbEntity
  8
0
370
    35
390
0
 62
     7
100
AcDbCircle
 10
163.89328
 20
150.942184
 30
0.0
 40
0.5
210
0.0
220
0.0
230
1.0
100
AcDbArc
 50
275.000003
 51
184.999994
  0
LINE
  5
10F
100
AcDbEntity
  8
0
370
    35
390
0
 62
     7
 48
0.10125
100
AcDbLine
 10
163.395187
 20
150.898605
 30
0.0
 11
159.360596
 21
150.545624
 31
0.0
210
0.0
220
0.0
230
1.0
  0
ARC
  5
110
100
AcDbEntity
  8
0
370
    35
390
0
 62
     7
100
AcDbCircle
 10
158.862503
 20
150.502045
 30
0.0
 40
0.5
210
0.0
220
0.0
230
1.0
100
AcDbArc
 50
5.0
 51
275.000003
  0
LINE
  5
111
100
AcDbEntity
  8
0
370
    35
390
0
 62
     7
 48
0.05125
100
AcDbLine
 10
159.084747
 20
147.961746
 30
0.0
 11
158.906082
 21
150.003952
 31
0.0
210
0.0
220
0.0
230
1.0
  0
ARC
  5
112
100
AcDbEntity
  8
0
370
    35
390
0
 62
     7
100
AcDbCircle
 10
159.128326
 20
147.463654
 30
0.0
 40
0.5
210
0.0
220
0.0
230
1.0
100
AcDbArc
 50
95.000002
 51
5.0
  0
LINE
  5
113
100
AcDbEntity
  8
0
370
    35
390
0
 62
     7
 48
0.10125
100
AcDbLine
 10
163.661011
 20
147.860214
 30
0.0
 11
159.626434
 21
147.507233
 31
0.0
210
0.0
220
0.0
230
1.0
  0
ARC
  5
114
100
AcDbEntity
  8
0
370
    35
390
0
 62
     7
100
AcDbCircle
 10
164.159119
 20
147.903793
 30
0.0
 40
0.5
210
0.0
220
0.0
230
1.0
100
AcDbArc
 50
184.999994
 51
95.000002
  0
ARC
  5
115
100
AcDbEntity
  8
0
370
    35
390
0
 62
     7
100
AcDbCircle
 10
115.860023
 20
90.343178
 30
0.0
 40
0.5
210
0.0
220
0.0
230
1.0
100
AcDbArc
 50
184.999994
 51
95.000002
  0
LINE
  5
116
100
AcDbEntity
  8
0
370
    35
390
0
 62
     7
 48
0.10125
100
AcDbLine
 10
115.816452
 20
90.841278
 30
0.0
 11
115.46347
 21
94.875862
 31
0.0
210
0.0
220
0.0
230
1.0
  0
ARC
  5
117
100
AcDbEntity
  8
0
370
    35
390
0
 62
     7
100
AcDbCircle
 10
115.419891
 20
95.373962
 30
0.0
 40
0.5
210
0.0
220
0.0
230
1.0
100
AcDbArc
 50
275.000003
 51
184.999994
  0
LINE
  5
118
100
AcDbEntity
  8
0
370
    35
390
0
 62
     7
 48
0.05125
100
AcDbLine
 10
112.879593
 20
95.151718
 30
0.0
 11
114.921791
 21
95.330383
 31
0.0
210
0.0
220
0.0
230
1.0
  0
ARC
  5
119
100
AcDbEntity
  8
0
370
    35
390
0
 62
     7
100
AcDbCircle
 10
112.3815
 20
95.108139
 30
0.0
 40
0.5
210
0.0
220
0.0
230
1.0
100
AcDbArc
 50
5.0
 51
275.000003
  0
LINE
  5
11A
100
AcDbEntity
  8
0
370
    35
390
0
 62
     7
 48
0.10125
100
AcDbLine
 10
112.778053
 20
90.575455
 30
0.0
 11
112.425072
 21
94.610039
 31
0.0
210
0.0
220
0.0
230
1.0
  0
ARC
  5
11B
100
AcDbEntity
  8
0
370
    35
390
0
 62
     7
100
AcDbCircle
 10
112.821632
 20
90.077354
 30
0.0
 40
0.5
210
0.0
220
0.0
230
1.0
100
AcDbArc
 50
95.000002
 51
5.0
  0
ARC
  5
11C
100
AcDbEntity
  8
0
370
    35
390
0
 62
     7
100
AcDbCircle
 10
107.442184
 20
89.606712
 30
0.0
 40
0.5
210
0.0
220
0.0
230
1.0
100
AcDbArc
 50
184.999994
 51
95.000002
  0
LINE
  5
11D
100
AcDbEntity
  8
0
370
    35
390
0
 62
     7
 48
0.10125
100
AcDbLine
 10
107.398605
 20
90.104813
 30
0.0
 11
107.045624
 21
94.139397
 31
0.0
210
0.0
220
0.0
230
1.0
  0
ARC
  5
11E
100
AcDbEntity
  8
0
370
    35
390
0
 62
     7
100
AcDbCircle
 10
107.002045
 20
94.637497
 30
0.0
 40
0.5
210
0.0
220
0.0
230
1.0
100
AcDbArc
 50
275.000003
 51
184.999994
  0
LINE
  5
11F
100
AcDbEntity
  8
0
370
    35
390
0
 62
     7
 48
0.05125
100
AcDbLine
 10
104.461746
 20
94.415253
 30
0.0
 11
106.503944
 21
94.593918
 31
0.0
210
0.0
220
0.0
230
1.0
  0
ARC
  5
120
100
AcDbEntity
  8
0
370
    35
390
0
 62
     7
100
AcDbCircle
 10
103.963654
 20
94.371674
 30
0.0
 40
0.5
210
0.0
220
0.0
230
1.0
100
AcDbArc
 50
5.0
 51
275.000003
  0
LINE
  5
121
100
AcDbEntity
  8
0
370
    35
390
0
 62
     7
 48
0.10125
100
AcDbLine
 10
104.360207
 20
89.838989
 30
0.0
 11
104.007233
 21
93.873573
 31
0.0
210
0.0
220
0.0
230
1.0
  0
ARC
  5
122
100
AcDbEntity
  8
0
370
    35
390
0
 62
     7
100
AcDbCircle
 10
104.403786
 20
89.340881
 30
0.0
 40
0.5
210
0.0
220
0.0
230
1.0
100
AcDbArc
 50
95.000002
 51
5.0
  0
ARC
  5
123
100
AcDbEntity
  8
0
370
    35
390
0
 62
     7
100
AcDbCircle
 10
46.843178
 20
137.639969
 30
0.0
 40
0.5
210
0.0
220
0.0
230
1.0
100
AcDbArc
 50
95.000002
 51
5.0
  0
LINE
  5
124
100
AcDbEntity
  8
0
370
    35
390
0
 62
     7
 48
0.10125
100
AcDbLine
 10
47.341274
 20
137.683548
 30
0.0
 11
51.375862
 21
138.03653
 31
0.0
210
0.0
220
0.0
230
1.0
  0
ARC
  5
125
100
AcDbEntity
  8
0
370
    35
390
0
 62
     7
100
AcDbCircle
 10
51.873962
 20
138.080109
 30
0.0
 40
0.5
210
0.0
220
0.0
230
1.0
100
AcDbArc
 50
184.999994
 51
95.000002
  0
LINE
  5
126
100
AcDbEntity
  8
0
370
    35
390
0
 62
     7
 48
0.05125
100
AcDbLine
 10
51.651714
 20
140.620407
 30
0.0
 11
51.830383
 21
138.578201
 31
0.0
210
0.0
220
0.0
230
1.0
  0
ARC
  5
127
100
AcDbEntity
  8
0
370
    35
390
0
 62
     7
100
AcDbCircle
 10
51.608135
 20
141.1185
 30
0.0
 40
0.5
210
0.0
220
0.0
230
1.0
100
AcDbArc
 50
275.000003
 51
184.999994
  0
LINE
  5
128
100
AcDbEntity
  8
0
370
    35
390
0
 62
     7
 48
0.10125
100
AcDbLine
 10
47.075451
 20
140.721939
 30
0.0
 11
51.110039
 21
141.074921
 31
0.0
210
0.0
220
0.0
230
1.0
  0
ARC
  5
129
100
AcDbEntity
  8
0
370
    35
390
0
 62
     7
100
AcDbCircle
 10
46.577354
 20
140.67836
 30
0.0
 40
0.5
210
0.0
220
0.0
230
1.0
100
AcDbArc
 50
5.0
 51
275.000003
  0
ARC
  5
12A
100
AcDbEntity
  8
0
370
    35
390
0
 62
     7
100
AcDbCircle
 10
46.106712
 20
146.057816
 30
0.0
 40
0.5
210
0.0
220
0.0
230
1.0
100
AcDbArc
 50
95.000002
 51
5.0
  0
LINE
  5
12B
100
AcDbEntity
  8
0
370
    35
390
0
 62
     7
 48
0.10125
100
AcDbLine
 10
46.604809
 20
146.101395
 30
0.0
 11
50.639397
 21
146.454376
 31
0.0
210
0.0
220
0.0
230
1.0
  0
ARC
  5
12C
100
AcDbEntity
  8
0
370
    35
390
0
 62
     7
100
AcDbCircle
 10
51.137497
 20
146.497955
 30
0.0
 40
0.5
210
0.0
220
0.0
230
1.0
100
AcDbArc
 50
184.999994
 51
95.000002
  0
LINE
  5
12D
100
AcDbEntity
  8
0
370
    35
390
0
 62
     7
 48
0.05125
100
AcDbLine
 10
50.915249
 20
149.038254
 30
0.0
 11
51.093918
 21
146.996048
 31
0.0
210
0.0
220
0.0
230
1.0
  0
ARC
  5
12E
100
AcDbEntity
  8
0
370
    35
390
0
 62
     7
100
AcDbCircle
 10
50.87167
 20
149.536346
 30
0.0
 40
0.5
210
0.0
220
0.0
230
1.0
100
AcDbArc
 50
275.000003
 51
184.999994
  0
LINE
  5
12F
100
AcDbEntity
  8
0
370
    35
390
0
 62
     7
 48
0.10125
100
AcDbLine
 10
46.338985
 20
149.139786
 30
0.0
 11
50.373573
 21
149.492767
 31
0.0
210
0.0
220
0.0
230
1.0
  0
ARC
  5
130
100
AcDbEntity
  8
0
370
    35
390
0
 62
     7
100
AcDbCircle
 10
45.840885
 20
149.096207
 30
0.0
 40
0.5
210
0.0
220
0.0
230
1.0
100
AcDbArc
 50
5.0
 51
275.000003
  0
ARC
  5
131
100
AcDbEntity
  8
0
370
    35
390
0
 62
     7
100
AcDbCircle
 10
160.404877
 20
130.780991
 30
0.0
 40
0.5
210
0.0
220
0.0
230
1.0
100
AcDbArc
 50
256.009065
 51
166.009073
  0
LINE
  5
132
100
AcDbEntity
  8
0
370
    35
390
0
 62
     7
 48
0.10125
100
AcDbLine
 10
159.919708
 20
130.901871
 30
0.0
 11
155.989853
 21
131.881027
 31
0.0
210
0.0
220
0.0
230
1.0
  0
ARC
  5
133
100
AcDbEntity
  8
0
370
    35
390
0
 62
     7
100
AcDbCircle
 10
155.504684
 20
132.001923
 30
0.0
 40
0.5
210
0.0
220
0.0
230
1.0
100
AcDbArc
 50
346.009069
 51
256.009065
  0
LINE
  5
134
100
AcDbEntity
  8
0
370
    35
390
0
 62
     7
 48
0.05125
100
AcDbLine
 10
155.383804
 20
131.516754
 30
0.0
 11
154.888184
 21
129.527557
 31
0.0
210
0.0
220
0.0
230
1.0
  0
ARC
  5
135
100
AcDbEntity
  8
0
370
    35
390
0
 62
     7
100
AcDbCircle
 10
154.767288
 20
129.042404
 30
0.0
 40
0.5
210
0.0
220
0.0
230
1.0
100
AcDbArc
 50
76.00907
 51
346.009069
  0
LINE
  5
136
100
AcDbEntity
  8
0
370
    35
390
0
 62
     7
 48
0.10125
100
AcDbLine
 10
159.182312
 20
127.942352
 30
0.0
 11
155.252457
 21
128.921509
 31
0.0
210
0.0
220
0.0
230
1.0
  0
ARC
  5
137
100
AcDbEntity
  8
0
370
    35
390
0
 62
     7
100
AcDbCircle
 10
159.66748
 20
127.821472
 30
0.0
 40
0.5
210
0.0
220
0.0
230
1.0
100
AcDbArc
 50
166.009073
 51
76.00907
  0
ARC
  5
138
100
AcDbEntity
  8
0
370
    35
390
0
 62
     7
100
AcDbCircle
 10
158.361923
 20
122.581665
 30
0.0
 40
0.5
210
0.0
220
0.0
230
1.0
100
AcDbArc
 50
256.009065
 51
166.009073
  0
LINE
  5
139
100
AcDbEntity
  8
0
370
    35
390
0
 62
     7
 48
0.10125
100
AcDbLine
 10
157.87677
 20
122.702545
 30
0.0
 11
153.946899
 21
123.681709
 31
0.0
210
0.0
220
0.0
230
1.0
  0
ARC
  5
13A
100
AcDbEntity
  8
0
370
    35
390
0
 62
     7
100
AcDbCircle
 10
153.461746
 20
123.802597
 30
0.0
 40
0.5
210
0.0
220
0.0
230
1.0
100
AcDbArc
 50
346.009069
 51
256.009065
  0
LINE
  5
13B
100
AcDbEntity
  8
0
370
    35
390
0
 62
     7
 48
0.05125
100
AcDbLine
 10
153.340851
 20
123.317429
 30
0.0
 11
152.84523
 21
121.328247
 31
0.0
210
0.0
220
0.0
230
1.0
  0
ARC
  5
13C
100
AcDbEntity
  8
0
370
    35
390
0
 62
     7
100
AcDbCircle
 10
152.72435
 20
120.843079
 30
0.0
 40
0.5
210
0.0
220
0.0
230
1.0
100
AcDbArc
 50
76.00907
 51
346.009069
  0
LINE
  5
13D
100
AcDbEntity
  8
0
370
    35
390
0
 62
     7
 48
0.10125
100
AcDbLine
 10
157.139374
 20
119.743027
 30
0.0
 11
153.209518
 21
120.722191
 31
0.0
210
0.0
220
0.0
230
1.0
  0
ARC
  5
13E
100
AcDbEntity
  8
0
370
    35
390
0
 62
     7
100
AcDbCircle
 10
157.624542
 20
119.622147
 30
0.0
 40
0.5
210
0.0
220
0.0
230
1.0
100
AcDbArc
 50
166.009073
 51
76.00907
  0
ARC
  5
13F
100
AcDbEntity
  8
0
370
    35
390
0
 62
     7
100
AcDbCircle
 10
155.24617
 20
178.357285
 30
0.0
 40
0.5
210
0.0
220
0.0
230
1.0
100
AcDbArc
 50
293.990935
 51
203.990925
  0
LINE
  5
140
100
AcDbEntity
  8
0
370
    35
390
0
 62
     7
 48
0.10125
100
AcDbLine
 10
154.789368
 20
178.153992
 30
0.0
 11
151.089233
 21
176.507294
 31
0.0
210
0.0
220
0.0
230
1.0
  0
ARC
  5
141
100
AcDbEntity
  8
0
370
    35
390
0
 62
     7
100
AcDbCircle
 10
150.632431
 20
176.304001
 30
0.0
 40
0.5
210
0.0
220
0.0
230
1.0
100
AcDbArc
 50
23.990932
 51
293.990935
  0
LINE
  5
142
100
AcDbEntity
  8
0
370
    35
390
0
 62
     7
 48
0.05125
100
AcDbLine
 10
151.66925
 20
173.974289
 30
0.0
 11
150.835724
 21
175.847198
 31
0.0
210
0.0
220
0.0
230
1.0
  0
ARC
  5
143
100
AcDbEntity
  8
0
370
    35
390
0
 62
     7
100
AcDbCircle
 10
151.872543
 20
173.517487
 30
0.0
 40
0.5
210
0.0
220
0.0
230
1.0
100
AcDbArc
 50
113.990933
 51
23.990932
  0
LINE
  5
144
100
AcDbEntity
  8
0
370
    35
390
0
 62
     7
 48
0.10125
100
AcDbLine
 10
156.029465
 20
175.367477
 30
0.0
 11
152.329346
 21
173.720779
 31
0.0
210
0.0
220
0.0
230
1.0
  0
ARC
  5
145
100
AcDbEntity
  8
0
370
    35
390
0
 62
     7
100
AcDbCircle
 10
156.486267
 20
175.57077
 30
0.0
 40
0.5
210
0.0
220
0.0
230
1.0
100
AcDbArc
 50
203.990925
 51
113.990933
  0
ARC
  5
146
100
AcDbEntity
  8
0
370
    35
390
0
 62
     7
100
AcDbCircle
 10
151.810455
 20
186.077286
 30
0.0
 40
0.5
210
0.0
220
0.0
230
1.0
100
AcDbArc
 50
293.990935
 51
203.990925
  0
LINE
  5
147
100
AcDbEntity
  8
0
370
    35
390
0
 62
     7
 48
0.10125
100
AcDbLine
 10
151.353653
 20
185.873993
 30
0.0
 11
147.653534
 21
184.227295
 31
0.0
210
0.0
220
0.0
230
1.0
  0
ARC
  5
148
100
AcDbEntity
  8
0
370
    35
390
0
 62
     7
100
AcDbCircle
 10
147.196732
 20
184.024002
 30
0.0
 40
0.5
210
0.0
220
0.0
230
1.0
100
AcDbArc
 50
23.990932
 51
293.990935
  0
LINE
  5
149
100
AcDbEntity
  8
0
370
    35
390
0
 62
     7
 48
0.05125
100
AcDbLine
 10
148.233551
 20
181.69429
 30
0.0
 11
147.400024
 21
183.5672
 31
0.0
210
0.0
220
0.0
230
1.0
  0
ARC
  5
14A
100
AcDbEntity
  8
0
370
    35
390
0
 62
     7
100
AcDbCircle
 10
148.436844
 20
181.237488
 30
0.0
 40
0.5
210
0.0
220
0.0
230
1.0
100
AcDbArc
 50
113.990933
 51
23.990932
  0
LINE
  5
14B
100
AcDbEntity
  8
0
370
    35
390
0
 62
     7
 48
0.10125
100
AcDbLine
 10
152.593765
 20
183.087479
 30
0.0
 11
148.893646
 21
181.440781
 31
0.0
210
0.0
220
0.0
230
1.0
  0
ARC
  5
14C
100
AcDbEntity
  8
0
370
    35
390
0
 62
     7
100
AcDbCircle
 10
153.050568
 20
183.290771
 30
0.0
 40
0.5
210
0.0
220
0.0
230
1.0
100
AcDbArc
 50
203.990925
 51
113.990933
  0
ARC
  5
14D
100
AcDbEntity
  8
0
370
    35
390
0
 62
     7
100
AcDbCircle
 10
87.280991
 20
93.095131
 30
0.0
 40
0.5
210
0.0
220
0.0
230
1.0
100
AcDbArc
 50
166.009073
 51
76.00907
  0
LINE
  5
14E
100
AcDbEntity
  8
0
370
    35
390
0
 62
     7
 48
0.10125
100
AcDbLine
 10
87.401871
 20
93.580292
 30
0.0
 11
88.381035
 21
97.510147
 31
0.0
210
0.0
220
0.0
230
1.0
  0
ARC
  5
14F
100
AcDbEntity
  8
0
370
    35
390
0
 62
     7
100
AcDbCircle
 10
88.501915
 20
97.995316
 30
0.0
 40
0.5
210
0.0
220
0.0
230
1.0
100
AcDbArc
 50
256.009065
 51
166.009073
  0
LINE
  5
150
100
AcDbEntity
  8
0
370
    35
390
0
 62
     7
 48
0.05125
100
AcDbLine
 10
88.016754
 20
98.116196
 30
0.0
 11
86.027565
 21
98.611824
 31
0.0
210
0.0
220
0.0
230
1.0
  0
ARC
  5
151
100
AcDbEntity
  8
0
370
    35
390
0
 62
     7
100
AcDbCircle
 10
85.542397
 20
98.732712
 30
0.0
 40
0.5
210
0.0
220
0.0
230
1.0
100
AcDbArc
 50
346.009069
 51
256.009065
  0
LINE
  5
152
100
AcDbEntity
  8
0
370
    35
390
0
 62
     7
 48
0.10125
100
AcDbLine
 10
84.442352
 20
94.317688
 30
0.0
 11
85.421516
 21
98.247543
 31
0.0
210
0.0
220
0.0
230
1.0
  0
ARC
  5
153
100
AcDbEntity
  8
0
370
    35
390
0
 62
     7
100
AcDbCircle
 10
84.321472
 20
93.83252
 30
0.0
 40
0.5
210
0.0
220
0.0
230
1.0
100
AcDbArc
 50
76.00907
 51
346.009069
  0
ARC
  5
154
100
AcDbEntity
  8
0
370
    35
390
0
 62
     7
100
AcDbCircle
 10
79.081665
 20
95.138077
 30
0.0
 40
0.5
210
0.0
220
0.0
230
1.0
100
AcDbArc
 50
166.009073
 51
76.00907
  0
LINE
  5
155
100
AcDbEntity
  8
0
370
    35
390
0
 62
     7
 48
0.10125
100
AcDbLine
 10
79.202545
 20
95.623238
 30
0.0
 11
80.181709
 21
99.553093
 31
0.0
210
0.0
220
0.0
230
1.0
  0
ARC
  5
156
100
AcDbEntity
  8
0
370
    35
390
0
 62
     7
100
AcDbCircle
 10
80.302597
 20
100.038254
 30
0.0
 40
0.5
210
0.0
220
0.0
230
1.0
100
AcDbArc
 50
256.009065
 51
166.009073
  0
LINE
  5
157
100
AcDbEntity
  8
0
370
    35
390
0
 62
     7
 48
0.05125
100
AcDbLine
 10
79.817429
 20
100.159142
 30
0.0
 11
77.828247
 21
100.65477
 31
0.0
210
0.0
220
0.0
230
1.0
  0
ARC
  5
158
100
AcDbEntity
  8
0
370
    35
390
0
 62
     7
100
AcDbCircle
 10
77.343079
 20
100.77565
 30
0.0
 40
0.5
210
0.0
220
0.0
230
1.0
100
AcDbArc
 50
346.009069
 51
256.009065
  0
LINE
  5
159
100
AcDbEntity
  8
0
370
    35
390
0
 62
     7
 48
0.10125
100
AcDbLine
 10
76.243027
 20
96.360634
 30
0.0
 11
77.222191
 21
100.290482
 31
0.0
210
0.0
220
0.0
230
1.0
  0
ARC
  5
15A
100
AcDbEntity
  8
0
370
    35
390
0
 62
     7
100
AcDbCircle
 10
76.122147
 20
95.875465
 30
0.0
 40
0.5
210
0.0
220
0.0
230
1.0
100
AcDbArc
 50
76.00907
 51
346.009069
  0
ARC
  5
15B
100
AcDbEntity
  8
0
370
    35
390
0
 62
     7
100
AcDbCircle
 10
134.857285
 20
98.25383
 30
0.0
 40
0.5
210
0.0
220
0.0
230
1.0
100
AcDbArc
 50
203.990925
 51
113.990933
  0
LINE
  5
15C
100
AcDbEntity
  8
0
370
    35
390
0
 62
     7
 48
0.10125
100
AcDbLine
 10
134.653992
 20
98.71064
 30
0.0
 11
133.007294
 21
102.410759
 31
0.0
210
0.0
220
0.0
230
1.0
  0
ARC
  5
15D
100
AcDbEntity
  8
0
370
    35
390
0
 62
     7
100
AcDbCircle
 10
132.804001
 20
102.867569
 30
0.0
 40
0.5
210
0.0
220
0.0
230
1.0
100
AcDbArc
 50
293.990935
 51
203.990925
  0
LINE
  5
15E
100
AcDbEntity
  8
0
370
    35
390
0
 62
     7
 48
0.05125
100
AcDbLine
 10
130.474289
 20
101.83075
 30
0.0
 11
132.347198
 21
102.664268
 31
0.0
210
0.0
220
0.0
230
1.0
  0
ARC
  5
15F
100
AcDbEntity
  8
0
370
    35
390
0
 62
     7
100
AcDbCircle
 10
130.017487
 20
101.627457
 30
0.0
 40
0.5
210
0.0
220
0.0
230
1.0
100
AcDbArc
 50
23.990932
 51
293.990935
  0
LINE
  5
160
100
AcDbEntity
  8
0
370
    35
390
0
 62
     7
 48
0.10125
100
AcDbLine
 10
131.867477
 20
97.470535
 30
0.0
 11
130.220779
 21
101.170654
 31
0.0
210
0.0
220
0.0
230
1.0
  0
ARC
  5
161
100
AcDbEntity
  8
0
370
    35
390
0
 62
     7
100
AcDbCircle
 10
132.07077
 20
97.013733
 30
0.0
 40
0.5
210
0.0
220
0.0
230
1.0
100
AcDbArc
 50
113.990933
 51
23.990932
  0
ARC
  5
162
100
AcDbEntity
  8
0
370
    35
390
0
 62
     7
100
AcDbCircle
 10
142.577286
 20
101.689537
 30
0.0
 40
0.5
210
0.0
220
0.0
230
1.0
100
AcDbArc
 50
203.990925
 51
113.990933
  0
LINE
  5
163
100
AcDbEntity
  8
0
370
    35
390
0
 62
     7
 48
0.10125
100
AcDbLine
 10
142.373993
 20
102.146347
 30
0.0
 11
140.727295
 21
105.846466
 31
0.0
210
0.0
220
0.0
230
1.0
  0
ARC
  5
164
100
AcDbEntity
  8
0
370
    35
390
0
 62
     7
100
AcDbCircle
 10
140.524002
 20
106.303268
 30
0.0
 40
0.5
210
0.0
220
0.0
230
1.0
100
AcDbArc
 50
293.990935
 51
203.990925
  0
LINE
  5
165
100
AcDbEntity
  8
0
370
    35
390
0
 62
     7
 48
0.05125
100
AcDbLine
 10
138.19429
 20
105.266457
 30
0.0
 11
140.0672
 21
106.099976
 31
0.0
210
0.0
220
0.0
230
1.0
  0
ARC
  5
166
100
AcDbEntity
  8
0
370
    35
390
0
 62
     7
100
AcDbCircle
 10
137.737488
 20
105.063156
 30
0.0
 40
0.5
210
0.0
220
0.0
230
1.0
100
AcDbArc
 50
23.990932
 51
293.990935
  0
LINE
  5
167
100
AcDbEntity
  8
0
370
    35
390
0
 62
     7
 48
0.10125
100
AcDbLine
 10
139.587479
 20
100.906235
 30
0.0
 11
137.940781
 21
104.606354
 31
0.0
210
0.0
220
0.0
230
1.0
  0
ARC
  5
168
100
AcDbEntity
  8
0
370
    35
390
0
 62
     7
100
AcDbCircle
 10
139.790771
 20
100.449432
 30
0.0
 40
0.5
210
0.0
220
0.0
230
1.0
100
AcDbArc
 50
113.990933
 51
23.990932
  0
ARC
  5
169
100
AcDbEntity
  8
0
370
    35
390
0
 62
     7
100
AcDbCircle
 10
49.595131
 20
166.219009
 30
0.0
 40
0.5
210
0.0
220
0.0
230
1.0
100
AcDbArc
 50
76.00907
 51
346.009069
  0
LINE
  5
16A
100
AcDbEntity
  8
0
370
    35
390
0
 62
     7
 48
0.10125
100
AcDbLine
 10
50.080296
 20
166.098129
 30
0.0
 11
54.010151
 21
165.118973
 31
0.0
210
0.0
220
0.0
230
1.0
  0
ARC
  5
16B
100
AcDbEntity
  8
0
370
    35
390
0
 62
     7
100
AcDbCircle
 10
54.495316
 20
164.998077
 30
0.0
 40
0.5
210
0.0
220
0.0
230
1.0
100
AcDbArc
 50
166.009073
 51
76.00907
  0
LINE
  5
16C
100
AcDbEntity
  8
0
370
    35
390
0
 62
     7
 48
0.05125
100
AcDbLine
 10
54.616199
 20
165.483246
 30
0.0
 11
55.111824
 21
167.472443
 31
0.0
210
0.0
220
0.0
230
1.0
  0
ARC
  5
16D
100
AcDbEntity
  8
0
370
    35
390
0
 62
     7
100
AcDbCircle
 10
55.232708
 20
167.957596
 30
0.0
 40
0.5
210
0.0
220
0.0
230
1.0
100
AcDbArc
 50
256.009065
 51
166.009073
  0
LINE
  5
16E
100
AcDbEntity
  8
0
370
    35
390
0
 62
     7
 48
0.10125
100
AcDbLine
 10
50.817692
 20
169.057648
 30
0.0
 11
54.747543
 21
168.078491
 31
0.0
210
0.0
220
0.0
230
1.0
  0
ARC
  5
16F
100
AcDbEntity
  8
0
370
    35
390
0
 62
     7
100
AcDbCircle
 10
50.332523
 20
169.178528
 30
0.0
 40
0.5
210
0.0
220
0.0
230
1.0
100
AcDbArc
 50
346.009069
 51
256.009065
  0
ARC
  5
170
100
AcDbEntity
  8
0
370
    35
390
0
 62
     7
100
AcDbCircle
 10
51.638073
 20
174.418335
 30
0.0
 40
0.5
210
0.0
220
0.0
230
1.0
100
AcDbArc
 50
76.00907
 51
346.009069
  0
LINE
  5
171
100
AcDbEntity
  8
0
370
    35
390
0
 62
     7
 48
0.10125
100
AcDbLine
 10
52.123238
 20
174.297455
 30
0.0
 11
56.053093
 21
173.318283
 31
0.0
210
0.0
220
0.0
230
1.0
  0
ARC
  5
172
100
AcDbEntity
  8
0
370
    35
390
0
 62
     7
100
AcDbCircle
 10
56.538258
 20
173.197403
 30
0.0
 40
0.5
210
0.0
220
0.0
230
1.0
100
AcDbArc
 50
166.009073
 51
76.00907
  0
LINE
  5
173
100
AcDbEntity
  8
0
370
    35
390
0
 62
     7
 48
0.05125
100
AcDbLine
 10
56.659142
 20
173.682571
 30
0.0
 11
57.154766
 21
175.671753
 31
0.0
210
0.0
220
0.0
230
1.0
  0
ARC
  5
174
100
AcDbEntity
  8
0
370
    35
390
0
 62
     7
100
AcDbCircle
 10
57.27565
 20
176.156921
 30
0.0
 40
0.5
210
0.0
220
0.0
230
1.0
100
AcDbArc
 50
256.009065
 51
166.009073
  0
LINE
  5
175
100
AcDbEntity
  8
0
370
    35
390
0
 62
     7
 48
0.10125
100
AcDbLine
 10
52.860634
 20
177.256973
 30
0.0
 11
56.790485
 21
176.277802
 31
0.0
210
0.0
220
0.0
230
1.0
  0
ARC
  5
176
100
AcDbEntity
  8
0
370
    35
390
0
 62
     7
100
AcDbCircle
 10
52.375465
 20
177.377853
 30
0.0
 40
0.5
210
0.0
220
0.0
230
1.0
100
AcDbArc
 50
346.009069
 51
256.009065
  0
ARC
  5
177
100
AcDbEntity
  8
0
370
    35
390
0
 62
     7
100
AcDbCircle
 10
54.753834
 20
118.642715
 30
0.0
 40
0.5
210
0.0
220
0.0
230
1.0
100
AcDbArc
 50
113.990933
 51
23.990932
  0
LINE
  5
178
100
AcDbEntity
  8
0
370
    35
390
0
 62
     7
 48
0.10125
100
AcDbLine
 10
55.21064
 20
118.846008
 30
0.0
 11
58.910759
 21
120.492706
 31
0.0
210
0.0
220
0.0
230
1.0
  0
ARC
  5
179
100
AcDbEntity
  8
0
370
    35
390
0
 62
     7
100
AcDbCircle
 10
59.367565
 20
120.696007
 30
0.0
 40
0.5
210
0.0
220
0.0
230
1.0
100
AcDbArc
 50
203.990925
 51
113.990933
  0
LINE
  5
17A
100
AcDbEntity
  8
0
370
    35
390
0
 62
     7
 48
0.05125
100
AcDbLine
 10
58.330753
 20
123.025711
 30
0.0
 11
59.164268
 21
121.152809
 31
0.0
210
0.0
220
0.0
230
1.0
  0
ARC
  5
17B
100
AcDbEntity
  8
0
370
    35
390
0
 62
     7
100
AcDbCircle
 10
58.127457
 20
123.482513
 30
0.0
 40
0.5
210
0.0
220
0.0
230
1.0
100
AcDbArc
 50
293.990935
 51
203.990925
  0
LINE
  5
17C
100
AcDbEntity
  8
0
370
    35
390
0
 62
     7
 48
0.10125
100
AcDbLine
 10
53.970531
 20
121.632523
 30
0.0
 11
57.670654
 21
123.279221
 31
0.0
210
0.0
220
0.0
230
1.0
  0
ARC
  5
17D
100
AcDbEntity
  8
0
370
    35
390
0
 62
     7
100
AcDbCircle
 10
53.513729
 20
121.429222
 30
0.0
 40
0.5
210
0.0
220
0.0
230
1.0
100
AcDbArc
 50
23.990932
 51
293.990935
  0
ARC
  5
17E
100
AcDbEntity
  8
0
370
    35
390
0
 62
     7
100
AcDbCircle
 10
58.189537
 20
110.922714
 30
0.0
 40
0.5
210
0.0
220
0.0
230
1.0
100
AcDbArc
 50
113.990933
 51
23.990932
  0
LINE
  5
17F
100
AcDbEntity
  8
0
370
    35
390
0
 62
     7
 48
0.10125
100
AcDbLine
 10
58.646343
 20
111.126007
 30
0.0
 11
62.346462
 21
112.772705
 31
0.0
210
0.0
220
0.0
230
1.0
  0
ARC
  5
180
100
AcDbEntity
  8
0
370
    35
390
0
 62
     7
100
AcDbCircle
 10
62.803265
 20
112.975998
 30
0.0
 40
0.5
210
0.0
220
0.0
230
1.0
100
AcDbArc
 50
203.990925
 51
113.990933
  0
LINE
  5
181
100
AcDbEntity
  8
0
370
    35
390
0
 62
     7
 48
0.05125
100
AcDbLine
 10
61.766457
 20
115.30571
 30
0.0
 11
62.599972
 21
113.432808
 31
0.0
210
0.0
220
0.0
230
1.0
  0
ARC
  5
182
100
AcDbEntity
  8
0
370
    35
390
0
 62
     7
100
AcDbCircle
 10
61.56316
 20
115.762512
 30
0.0
 40
0.5
210
0.0
220
0.0
230
1.0
100
AcDbArc
 50
293.990935
 51
203.990925
  0
LINE
  5
183
100
AcDbEntity
  8
0
370
    35
390
0
 62
     7
 48
0.10125
100
AcDbLine
 10
57.406235
 20
113.912521
 30
0.0
 11
61.106358
 21
115.559219
 31
0.0
210
0.0
220
0.0
230
1.0
  0
ARC
  5
184
100
AcDbEntity
  8
0
370
    35
390
0
 62
     7
100
AcDbCircle
 10
56.949432
 20
113.709221
 30
0.0
 40
0.5
210
0.0
220
0.0
230
1.0
100
AcDbArc
 50
23.990932
 51
293.990935
  0
LINE
  5
185
100
AcDbEntity
  8
0
370
    35
390
0
 62
     7
 48
0.05125
100
AcDbLine
 10
123.204178
 20
203.783981
 30
0.0
 11
125.193367
 21
203.288361
 31
0.0
210
0.0
220
0.0
230
1.0
  0
LINE
  5
186
100
AcDbEntity
  8
0
370
    35
390
0
 62
     7
 48
0.05125
100
AcDbLine
 10
131.403503
 20
201.741043
 30
0.0
 11
133.392685
 21
201.245422
 31
0.0
210
0.0
220
0.0
230
1.0
  0
LINE
  5
187
100
AcDbEntity
  8
0
370
    35
390
0
 62
     7
 48
0.05125
100
AcDbLine
 10
77.47242
 20
199.782974
 30
0.0
 11
75.599518
 21
198.949463
 31
0.0
210
0.0
220
0.0
230
1.0
  0
LINE
  5
188
100
AcDbEntity
  8
0
370
    35
390
0
 62
     7
 48
0.05125
100
AcDbLine
 10
69.752411
 20
196.347275
 30
0.0
 11
67.879517
 21
195.513763
 31
0.0
210
0.0
220
0.0
230
1.0
  0
CIRCLE
  5
189
100
AcDbEntity
  8
0
370
    35
390
0
 62
     7
100
AcDbCircle
 10
125.038918
 20
206.908081
 30
0.0
 40
1.5
210
0.0
220
0.0
230
1.0
  0
CIRCLE
  5
18A
100
AcDbEntity
  8
0
370
    35
390
0
 62
     7
100
AcDbCircle
 10
133.238235
 20
204.865143
 30
0.0
 40
1.5
210
0.0
220
0.0
230
1.0
  0
CIRCLE
  5
18B
100
AcDbEntity
  8
0
370
    35
390
0
 62
     7
100
AcDbCircle
 10
75.123062
 20
202.541016
 30
0.0
 40
1.5
210
0.0
220
0.0
230
1.0
  0
CIRCLE
  5
18C
100
AcDbEntity
  8
0
370
    35
390
0
 62
     7
100
AcDbCircle
 10
67.403061
 20
199.105316
 30
0.0
 40
1.5
210
0.0
220
0.0
230
1.0
  0
CIRCLE
  5
18D
100
AcDbEntity
  8
0
370
    35
390
0
 62
     7
100
AcDbCircle
 10
95.356308
 20
210.251511
 30
0.0
 40
1.5
210
0.0
220
0.0
230
1.0
  0
CIRCLE
  5
18E
100
AcDbEntity
  8
0
370
    35
390
0
 62
     7
100
AcDbCircle
 10
103.774147
 20
210.987976
 30
0.0
 40
1.5
210
0.0
220
0.0
230
1.0
  0
LINE
  5
18F
100
AcDbEntity
  8
0
370
    35
390
0
 62
     7
 48
0.05125
100
AcDbLine
 10
96.680267
 20
206.879074
 30
0.0
 11
94.638069
 21
206.700409
 31
0.0
210
0.0
220
0.0
230
1.0
  0
LINE
  5
190
100
AcDbEntity
  8
0
370
    35
390
0
 62
     7
 48
0.05125
100
AcDbLine
 10
105.098114
 20
207.61554
 30
0.0
 11
103.055916
 21
207.436859
 31
0.0
210
0.0
220
0.0
230
1.0
  0
CIRCLE
  5
191
100
AcDbEntity
  8
0
370
    35
390
0
 62
     7
100
AcDbCircle
 10
166.751511
 20
158.143692
 30
0.0
 40
1.5
210
0.0
220
0.0
230
1.0
  0
CIRCLE
  5
192
100
AcDbEntity
  8
0
370
    35
390
0
 62
     7
100
AcDbCircle
 10
167.487976
 20
149.725845
 30
0.0
 40
1.5
210
0.0
220
0.0
230
1.0
  0
LINE
  5
193
100
AcDbEntity
  8
0
370
    35
390
0
 62
     7
 48
0.05125
100
AcDbLine
 10
163.379074
 20
156.819733
 30
0.0
 11
163.200409
 21
158.861923
 31
0.0
210
0.0
220
0.0
230
1.0
  0
LINE
  5
194
100
AcDbEntity
  8
0
370
    35
390
0
 62
     7
 48
0.05125
100
AcDbLine
 10
164.11554
 20
148.401886
 30
0.0
 11
163.936859
 21
150.444092
 31
0.0
210
0.0
220
0.0
230
1.0
  0
CIRCLE
  5
195
100
AcDbEntity
  8
0
370
    35
390
0
 62
     7
100
AcDbCircle
 10
114.643692
 20
86.748489
 30
0.0
 40
1.5
210
0.0
220
0.0
230
1.0
  0
CIRCLE
  5
196
100
AcDbEntity
  8
0
370
    35
390
0
 62
     7
100
AcDbCircle
 10
106.225853
 20
86.012024
 30
0.0
 40
1.5
210
0.0
220
0.0
230
1.0
  0
LINE
  5
197
100
AcDbEntity
  8
0
370
    35
390
0
 62
     7
 48
0.05125
100
AcDbLine
 10
113.319733
 20
90.120926
 30
0.0
 11
115.361931
 21
90.299599
 31
0.0
210
0.0
220
0.0
230
1.0
  0
LINE
  5
198
100
AcDbEntity
  8
0
370
    35
390
0
 62
     7
 48
0.05125
100
AcDbLine
 10
104.901886
 20
89.38446
 30
0.0
 11
106.944084
 21
89.563133
 31
0.0
210
0.0
220
0.0
230
1.0
  0
CIRCLE
  5
199
100
AcDbEntity
  8
0
370
    35
390
0
 62
     7
100
AcDbCircle
 10
43.248489
 20
138.856308
 30
0.0
 40
1.5
210
0.0
220
0.0
230
1.0
  0
CIRCLE
  5
19A
100
AcDbEntity
  8
0
370
    35
390
0
 62
     7
100
AcDbCircle
 10
42.512024
 20
147.274155
 30
0.0
 40
1.5
210
0.0
220
0.0
230
1.0
  0
LINE
  5
19B
100
AcDbEntity
  8
0
370
    35
390
0
 62
     7
 48
0.05125
100
AcDbLine
 10
46.62093
 20
140.180267
 30
0.0
 11
46.799599
 21
138.138077
 31
0.0
210
0.0
220
0.0
230
1.0
  0
LINE
  5
19C
100
AcDbEntity
  8
0
370
    35
390
0
 62
     7
 48
0.05125
100
AcDbLine
 10
45.884464
 20
148.598114
 30
0.0
 11
46.063133
 21
146.555908
 31
0.0
210
0.0
220
0.0
230
1.0
  0
LINE
  5
19D
100
AcDbEntity
  8
0
370
    35
390
0
 62
     7
 48
0.05125
100
AcDbLine
 10
160.283981
 20
130.295822
 30
0.0
 11
159.788361
 21
128.306641
 31
0.0
210
0.0
220
0.0
230
1.0
  0
LINE
  5
19E
100
AcDbEntity
  8
0
370
    35
390
0
 62
     7
 48
0.05125
100
AcDbLine
 10
158.241043
 20
122.096497
 30
0.0
 11
157.745422
 21
120.107315
 31
0.0
210
0.0
220
0.0
230
1.0
  0
LINE
  5
19F
100
AcDbEntity
  8
0
370
    35
390
0
 62
     7
 48
0.05125
100
AcDbLine
 10
156.282974
 20
176.027588
 30
0.0
 11
155.449463
 21
177.900482
 31
0.0
210
0.0
220
0.0
230
1.0
  0
LINE
  5
1A0
100
AcDbEntity
  8
0
370
    35
390
0
 62
     7
 48
0.05125
100
AcDbLine
 10
152.847275
 20
183.747589
 30
0.0
 11
152.013763
 21
185.620483
 31
0.0
210
0.0
220
0.0
230
1.0
  0
CIRCLE
  5
1A1
100
AcDbEntity
  8
0
370
    35
390
0
 62
     7
100
AcDbCircle
 10
163.408081
 20
128.46109
 30
0.0
 40
1.5
210
0.0
220
0.0
230
1.0
  0
CIRCLE
  5
1A2
100
AcDbEntity
  8
0
370
    35
390
0
 62
     7
100
AcDbCircle
 10
161.365143
 20
120.261765
 30
0.0
 40
1.5
210
0.0
220
0.0
230
1.0
  0
CIRCLE
  5
1A3
100
AcDbEntity
  8
0
370
    35
390
0
 62
     7
100
AcDbCircle
 10
159.041016
 20
178.376938
 30
0.0
 40
1.5
210
0.0
220
0.0
230
1.0
  0
CIRCLE
  5
1A4
100
AcDbEntity
  8
0
370
    35
390
0
 62
     7
100
AcDbCircle
 10
155.605316
 20
186.096939
 30
0.0
 40
1.5
210
0.0
220
0.0
230
1.0
  0
LINE
  5
1A5
100
AcDbEntity
  8
0
370
    35
390
0
 62
     7
 48
0.05125
100
AcDbLine
 10
86.795822
 20
93.216019
 30
0.0
 11
84.806633
 21
93.711639
 31
0.0
210
0.0
220
0.0
230
1.0
  0
LINE
  5
1A6
100
AcDbEntity
  8
0
370
    35
390
0
 62
     7
 48
0.05125
100
AcDbLine
 10
78.596497
 20
95.258957
 30
0.0
 11
76.607315
 21
95.754578
 31
0.0
210
0.0
220
0.0
230
1.0
  0
LINE
  5
1A7
100
AcDbEntity
  8
0
370
    35
390
0
 62
     7
 48
0.05125
100
AcDbLine
 10
132.527588
 20
97.217026
 30
0.0
 11
134.400482
 21
98.050537
 31
0.0
210
0.0
220
0.0
230
1.0
  0
LINE
  5
1A8
100
AcDbEntity
  8
0
370
    35
390
0
 62
     7
 48
0.05125
100
AcDbLine
 10
140.247589
 20
100.652725
 30
0.0
 11
142.120483
 21
101.486237
 31
0.0
210
0.0
220
0.0
230
1.0
  0
CIRCLE
  5
1A9
100
AcDbEntity
  8
0
370
    35
390
0
 62
     7
100
AcDbCircle
 10
84.961082
 20
90.091919
 30
0.0
 40
1.5
210
0.0
220
0.0
230
1.0
  0
CIRCLE
  5
1AA
100
AcDbEntity
  8
0
370
    35
390
0
 62
     7
100
AcDbCircle
 10
76.761765
 20
92.134857
 30
0.0
 40
1.5
210
0.0
220
0.0
230
1.0
  0
CIRCLE
  5
1AB
100
AcDbEntity
  8
0
370
    35
390
0
 62
     7
100
AcDbCircle
 10
134.876938
 20
94.458984
 30
0.0
 40
1.5
210
0.0
220
0.0
230
1.0
  0
CIRCLE
  5
1AC
100
AcDbEntity
  8
0
370
    35
390
0
 62
     7
100
AcDbCircle
 10
142.596939
 20
97.894691
 30
0.0
 40
1.5
210
0.0
220
0.0
230
1.0
  0
LINE
  5
1AD
100
AcDbEntity
  8
0
370
    35
390
0
 62
     7
 48
0.05125
100
AcDbLine
 10
49.716015
 20
166.704178
 30
0.0
 11
50.211639
 21
168.693359
 31
0.0
210
0.0
220
0.0
230
1.0
  0
LINE
  5
1AE
100
AcDbEntity
  8
0
370
    35
390
0
 62
     7
 48
0.05125
100
AcDbLine
 10
51.758957
 20
174.903503
 30
0.0
 11
52.254581
 21
176.892685
 31
0.0
210
0.0
220
0.0
230
1.0
  0
LINE
  5
1AF
100
AcDbEntity
  8
0
370
    35
390
0
 62
     7
 48
0.05125
100
AcDbLine
 10
53.717026
 20
120.97242
 30
0.0
 11
54.550537
 21
119.099518
 31
0.0
210
0.0
220
0.0
230
1.0
  0
LINE
  5
1B0
100
AcDbEntity
  8
0
370
    35
390
0
 62
     7
 48
0.05125
100
AcDbLine
 10
57.152725
 20
113.252411
 30
0.0
 11
57.98624
 21
111.379517
 31
0.0
210
0.0
220
0.0
230
1.0
  0
CIRCLE
  5
1B1
100
AcDbEntity
  8
0
370
    35
390
0
 62
     7
100
AcDbCircle
 10
46.591915
 20
168.53891
 30
0.0
 40
1.5
210
0.0
220
0.0
230
1.0
  0
CIRCLE
  5
1B2
100
AcDbEntity
  8
0
370
    35
390
0
 62
     7
100
AcDbCircle
 10
48.634857
 20
176.738235
 30
0.0
 40
1.5
210
0.0
220
0.0
230
1.0
  0
CIRCLE
  5
1B3
100
AcDbEntity
  8
0
370
    35
390
0
 62
     7
100
AcDbCircle
 10
50.958988
 20
118.623062
 30
0.0
 40
1.5
210
0.0
220
0.0
230
1.0
  0
CIRCLE
  5
1B4
100
AcDbEntity
  8
0
370
    35
390
0
 62
     7
100
AcDbCircle
 10
54.394691
 20
110.903061
 30
0.0
 40
1.5
210
0.0
220
0.0
230
1.0
  0
ARC
  5
1B5
100
AcDbEntity
  8
0
370
    35
390
0
 62
     7
100
AcDbCircle
 10
156.423004
 20
209.783554
 30
0.0
 40
7.5
210
0.0
220
0.0
230
1.0
100
AcDbArc
 50
325.756584
 51
134.24342
  0
ARC
  5
1B6
100
AcDbEntity
  8
0
370
    35
390
0
 62
     7
100
AcDbCircle
 10
145.608536
 20
220.887482
 30
0.0
 40
8.0
210
0.0
220
0.0
230
1.0
100
AcDbArc
 50
240.708082
 51
314.243415
  0
ARC
  5
1B7
100
AcDbEntity
  8
0
370
    35
390
0
 62
     7
100
AcDbCircle
 10
169.236145
 20
201.061554
 30
0.0
 40
8.0
210
0.0
220
0.0
230
1.0
100
AcDbArc
 50
145.756578
 51
219.291915
  0
CIRCLE
  5
1B8
100
AcDbEntity
  8
0
370
    35
390
0
 62
     7
100
AcDbCircle
 10
156.423004
 20
209.783554
 30
0.0
 40
2.0
210
0.0
220
0.0
230
1.0
  0
ARC
  5
1B9
100
AcDbEntity
  8
0
370
    35
390
0
 62
     7
100
AcDbCircle
 10
166.283554
 20
97.076996
 30
0.0
 40
7.5
210
0.0
220
0.0
230
1.0
100
AcDbArc
 50
235.756591
 51
44.243414
  0
ARC
  5
1BA
100
AcDbEntity
  8
0
370
    35
390
0
 62
     7
100
AcDbCircle
 10
177.387482
 20
107.891464
 30
0.0
 40
8.0
210
0.0
220
0.0
230
1.0
100
AcDbArc
 50
150.708083
 51
224.24342
  0
ARC
  5
1BB
100
AcDbEntity
  8
0
370
    35
390
0
 62
     7
100
AcDbCircle
 10
157.561554
 20
84.263847
 30
0.0
 40
8.0
210
0.0
220
0.0
230
1.0
100
AcDbArc
 50
55.756586
 51
129.291916
  0
CIRCLE
  5
1BC
100
AcDbEntity
  8
0
370
    35
390
0
 62
     7
100
AcDbCircle
 10
166.283554
 20
97.076996
 30
0.0
 40
2.0
210
0.0
220
0.0
230
1.0
  0
ARC
  5
1BD
100
AcDbEntity
  8
0
370
    35
390
0
 62
     7
100
AcDbCircle
 10
53.576992
 20
87.216446
 30
0.0
 40
7.5
210
0.0
220
0.0
230
1.0
100
AcDbArc
 50
145.756578
 51
314.243415
  0
ARC
  5
1BE
100
AcDbEntity
  8
0
370
    35
390
0
 62
     7
100
AcDbCircle
 10
64.391464
 20
76.112518
 30
0.0
 40
8.0
210
0.0
220
0.0
230
1.0
100
AcDbArc
 50
60.708081
 51
134.24342
  0
ARC
  5
1BF
100
AcDbEntity
  8
0
370
    35
390
0
 62
     7
100
AcDbCircle
 10
40.763847
 20
95.938446
 30
0.0
 40
8.0
210
0.0
220
0.0
230
1.0
100
AcDbArc
 50
325.756584
 51
39.291917
  0
CIRCLE
  5
1C0
100
AcDbEntity
  8
0
370
    35
390
0
 62
     7
100
AcDbCircle
 10
53.576992
 20
87.216446
 30
0.0
 40
2.0
210
0.0
220
0.0
230
1.0
  0
ARC
  5
1C1
100
AcDbEntity
  8
0
370
    35
390
0
 62
     7
100
AcDbCircle
 10
105.0
 20
148.5
 30
0.0
 40
75.0
210
0.0
220
0.0
230
1.0
100
AcDbArc
 50
60.708081
 51
92.325955
  0
ARC
  5
1C2
100
AcDbEntity
  8
0
370
    35
390
0
 62
     7
100
AcDbCircle
 10
105.0
 20
148.5
 30
0.0
 40
75.0
210
0.0
220
0.0
230
1.0
100
AcDbArc
 50
330.708085
 51
2.325954
  0
ARC
  5
1C3
100
AcDbEntity
  8
0
370
    35
390
0
 62
     7
100
AcDbCircle
 10
105.0
 20
148.5
 30
0.0
 40
75.0
210
0.0
220
0.0
230
1.0
100
AcDbArc
 50
240.708082
 51
272.325957
  0
ENDSEC
  0
SECTION
  2
OBJECTS
  0
DICTIONARY
  5
19
100
AcDbDictionary
280
     0
281
     1
  3
ACAD_GROUP
350
1A
  3
ACAD_MLINESTYLE
350
1B
  3
ACAD_LAYOUT
350
1E
  3
ACAD_PLOTSETTINGS
350
22
  3
ACAD_PLOTSTYLENAME
350
1F
  3
ACAD_WIPEOUT_VARS
350
23
  0
DICTIONARY
  5
1A
102
{ACAD_REACTORS
330
19
102
}
100
AcDbDictionary
280
     0
281
     1
  0
DICTIONARY
  5
1B
102
{ACAD_REACTORS
330
19
102
}
100
AcDbDictionary
280
     0
281
     1
  3
Standard
350
1C
  0
MLINESTYLE
  5
1C
102
{ACAD_REACTORS
330
1B
102
}
100
AcDbMlineStyle
  2
Standard
 70
     0
  3

 62
     0
 51
90.0
 52
90.0
 71
     2
 49
0.5
 62
   256
  6
ByLayer
 49
-0.5
 62
   256
  6
ByLayer
  0
ACDBDICTIONARYWDFLT
  5
1F
102
{ACAD_REACTORS
330
19
102
}
100
AcDbDictionary
281
     1
  3
Normal
350
1D
100
AcDbDictionaryWithDefault
340
1D
  0
ACDBPLACEHOLDER
  5
1D
102
{ACAD_REACTORS
330
1F
102
}
  0
LAYOUT
  5
20
102
{ACAD_REACTORS
330
1E
102
}
100
AcDbPlotSettings
  1

  2

  4

  6

 40
0.0
 41
0.0
 42
0.0
 43
0.0
 44
0.0
 45
0.0
 46
0.0
 47
0.0
 48
0.0
 49
0.0
140
0.0
141
0.0
142
1.0
143
1.0
 70
  1024
 72
     0
 73
     0
 74
     0
  7

 75
     0
147
1.0
148
0.0
149
0.0
100
AcDbLayout
  1
Model
 70
     0
 71
     0
 10
0.0
 20
0.0
 11
0.0
 21
0.0
 12
0.0
 22
0.0
 32
0.0
 14
0.0
 24
0.0
 34
0.0
 15
0.0
 25
0.0
 35
0.0
146
0.0
 13
0.0
 23
0.0
 33
0.0
 16
0.0
 26
0.0
 36
0.0
 17
0.0
 27
0.0
 37
0.0
 76
     0
330
A
331
0
345
0
346
0
  0
LAYOUT
  5
21
102
{ACAD_REACTORS
330
1E
102
}
100
AcDbPlotSettings
  1

  2

  4

  6

 40
0.0
 41
0.0
 42
0.0
 43
0.0
 44
0.0
 45
0.0
 46
0.0
 47
0.0
 48
0.0
 49
0.0
140
0.0
141
0.0
142
1.0
143
1.0
 70
     0
 72
     0
 73
     0
 74
     0
  7

 75
     0
147
1.0
148
0.0
149
0.0
100
AcDbLayout
  1
Layout1
 70
     0
 71
     0
 10
0.0
 20
0.0
 11
0.0
 21
0.0
 12
0.0
 22
0.0
 32
0.0
 14
0.0
 24
0.0
 34
0.0
 15
0.0
 25
0.0
 35
0.0
146
0.0
 13
0.0
 23
0.0
 33
0.0
 16
0.0
 26
0.0
 36
0.0
 17
0.0
 27
0.0
 37
0.0
 76
     0
330
B
331
0
345
0
346
0
  0
DICTIONARY
  5
1E
102
{ACAD_REACTORS
330
19
102
}
100
AcDbDictionary
280
     0
281
     1
  3
Layout1
350
21
  3
Model
350
20
  0
DICTIONARY
  5
22
102
{ACAD_REACTORS
330
19
102
}
100
AcDbDictionary
280
     0
281
     1
  0
WIPEOUTVARIABLES
  5
23
100
AcDbWipeoutVariables
 70
     1
  0
ENDSEC
  0
EOF
