G04 Layer_Physical_Order=1*
G04 Layer_Color=255*
%FSLAX25Y25*%
%MOIN*%
G70*
G01*
G75*
%ADD10R,0.04724X0.03150*%
%ADD11R,0.05512X0.04724*%
%ADD12C,0.07874*%
%ADD13C,0.03150*%
%ADD14C,0.05669*%
%ADD15C,0.01000*%
%ADD16O,0.10000X0.15000*%
%ADD17O,0.15000X0.10000*%
%ADD18R,0.05905X0.05905*%
%ADD19C,0.05905*%
%ADD20C,0.23622*%
%ADD21O,0.19685X0.31496*%
G36*
X260866Y266829D02*
X266884Y260811D01*
X271675Y255700D01*
Y19891D01*
X266884Y14780D01*
X260866Y8762D01*
X255755Y3971D01*
X19946D01*
X14835Y8762D01*
X8817Y14780D01*
X4026Y19891D01*
Y255700D01*
X8817Y260811D01*
X14835Y266829D01*
X19946Y271620D01*
X255755D01*
X260866Y266829D01*
D02*
G37*
%LPC*%
G36*
X231832Y94183D02*
X231378Y93996D01*
X230374Y93226D01*
X229604Y92222D01*
X229120Y91054D01*
X228955Y89800D01*
Y89268D01*
X231832D01*
Y94183D01*
D02*
G37*
G36*
X78768D02*
Y89268D01*
X81645D01*
Y89800D01*
X81480Y91054D01*
X80996Y92222D01*
X80226Y93226D01*
X79222Y93996D01*
X78768Y94183D01*
D02*
G37*
G36*
X235769D02*
Y89268D01*
X238645D01*
Y89800D01*
X238479Y91054D01*
X237996Y92222D01*
X237226Y93226D01*
X236222Y93996D01*
X235769Y94183D01*
D02*
G37*
G36*
X74831D02*
X74378Y93996D01*
X73374Y93226D01*
X72604Y92222D01*
X72120Y91054D01*
X71955Y89800D01*
Y89268D01*
X74831D01*
Y94183D01*
D02*
G37*
G36*
Y85331D02*
X71955D01*
Y84800D01*
X72120Y83546D01*
X72604Y82378D01*
X73374Y81374D01*
X74378Y80604D01*
X74831Y80417D01*
Y85331D01*
D02*
G37*
G36*
X81645D02*
X78768D01*
Y80417D01*
X79222Y80604D01*
X80226Y81374D01*
X80996Y82378D01*
X81480Y83546D01*
X81645Y84800D01*
Y85331D01*
D02*
G37*
G36*
X238645D02*
X235769D01*
Y80417D01*
X236222Y80604D01*
X237226Y81374D01*
X237996Y82378D01*
X238479Y83546D01*
X238645Y84800D01*
Y85331D01*
D02*
G37*
G36*
X80000Y158987D02*
X78968Y158851D01*
X78007Y158453D01*
X77181Y157819D01*
X76547Y156993D01*
X76149Y156032D01*
X76013Y155000D01*
X76149Y153968D01*
X76547Y153007D01*
X77181Y152181D01*
X78007Y151547D01*
X78968Y151149D01*
X80000Y151013D01*
X81032Y151149D01*
X81993Y151547D01*
X82819Y152181D01*
X83453Y153007D01*
X83851Y153968D01*
X83987Y155000D01*
X83851Y156032D01*
X83453Y156993D01*
X82819Y157819D01*
X81993Y158453D01*
X81032Y158851D01*
X80000Y158987D01*
D02*
G37*
G36*
X90000D02*
X88968Y158851D01*
X88007Y158453D01*
X87181Y157819D01*
X86547Y156993D01*
X86149Y156032D01*
X86013Y155000D01*
X86149Y153968D01*
X86547Y153007D01*
X87181Y152181D01*
X88007Y151547D01*
X88968Y151149D01*
X90000Y151013D01*
X91032Y151149D01*
X91993Y151547D01*
X92819Y152181D01*
X93453Y153007D01*
X93851Y153968D01*
X93987Y155000D01*
X93851Y156032D01*
X93453Y156993D01*
X92819Y157819D01*
X91993Y158453D01*
X91032Y158851D01*
X90000Y158987D01*
D02*
G37*
G36*
X100000D02*
X98968Y158851D01*
X98007Y158453D01*
X97181Y157819D01*
X96547Y156993D01*
X96149Y156032D01*
X96013Y155000D01*
X96149Y153968D01*
X96547Y153007D01*
X97181Y152181D01*
X98007Y151547D01*
X98968Y151149D01*
X100000Y151013D01*
X101032Y151149D01*
X101993Y151547D01*
X102819Y152181D01*
X103453Y153007D01*
X103851Y153968D01*
X103987Y155000D01*
X103851Y156032D01*
X103453Y156993D01*
X102819Y157819D01*
X101993Y158453D01*
X101032Y158851D01*
X100000Y158987D01*
D02*
G37*
G36*
X141756Y164456D02*
X134244D01*
Y157732D01*
X136471D01*
Y152118D01*
X134638D01*
Y146968D01*
X141362D01*
Y152118D01*
X139529D01*
Y157732D01*
X141756D01*
Y164456D01*
D02*
G37*
G36*
X60800Y103629D02*
X55800D01*
X54624Y103513D01*
X53493Y103170D01*
X52451Y102613D01*
X51537Y101863D01*
X50787Y100950D01*
X50230Y99907D01*
X49887Y98776D01*
X49771Y97600D01*
X49887Y96424D01*
X50230Y95293D01*
X50787Y94251D01*
X51537Y93337D01*
X52451Y92587D01*
X53493Y92030D01*
X54624Y91687D01*
X55800Y91571D01*
X60800D01*
X61976Y91687D01*
X63107Y92030D01*
X64149Y92587D01*
X65063Y93337D01*
X65813Y94251D01*
X66370Y95293D01*
X66713Y96424D01*
X66829Y97600D01*
X66713Y98776D01*
X66370Y99907D01*
X65813Y100950D01*
X65063Y101863D01*
X64149Y102613D01*
X63107Y103170D01*
X61976Y103513D01*
X60800Y103629D01*
D02*
G37*
G36*
X217800D02*
X212800D01*
X211624Y103513D01*
X210493Y103170D01*
X209451Y102613D01*
X208537Y101863D01*
X207787Y100950D01*
X207230Y99907D01*
X206887Y98776D01*
X206771Y97600D01*
X206887Y96424D01*
X207230Y95293D01*
X207787Y94251D01*
X208537Y93337D01*
X209451Y92587D01*
X210493Y92030D01*
X211624Y91687D01*
X212800Y91571D01*
X217800D01*
X218976Y91687D01*
X220107Y92030D01*
X221149Y92587D01*
X222063Y93337D01*
X222813Y94251D01*
X223370Y95293D01*
X223713Y96424D01*
X223829Y97600D01*
X223713Y98776D01*
X223370Y99907D01*
X222813Y100950D01*
X222063Y101863D01*
X221149Y102613D01*
X220107Y103170D01*
X218976Y103513D01*
X217800Y103629D01*
D02*
G37*
G36*
X125140Y227980D02*
X125140Y227980D01*
X110000D01*
X108711Y227810D01*
X107510Y227312D01*
X107041Y226953D01*
X106047D01*
Y225959D01*
X105687Y225490D01*
X105190Y224289D01*
X105020Y223000D01*
X105190Y221711D01*
X105687Y220510D01*
X106047Y220041D01*
Y219047D01*
X107041D01*
X107510Y218688D01*
X108711Y218190D01*
X110000Y218020D01*
X123078D01*
X146983Y194115D01*
Y147026D01*
X141824Y141866D01*
X141362Y142058D01*
Y145032D01*
X138167D01*
X138000Y145054D01*
X137833Y145032D01*
X134638D01*
Y139882D01*
X135403D01*
Y139000D01*
X135492Y138328D01*
X135751Y137701D01*
X136164Y137164D01*
X136643Y136685D01*
X116077Y116120D01*
X115286Y115088D01*
X114788Y113887D01*
X114619Y112598D01*
X114619Y112598D01*
Y91570D01*
X113206Y90704D01*
X111908Y89596D01*
X110800Y88298D01*
X109908Y86843D01*
X109255Y85266D01*
X108856Y83607D01*
X108722Y81906D01*
Y70095D01*
X108856Y68393D01*
X109255Y66734D01*
X109908Y65157D01*
X110800Y63702D01*
X111908Y62404D01*
X113206Y61296D01*
X114661Y60404D01*
X116238Y59751D01*
X117897Y59352D01*
X119598Y59218D01*
X121300Y59352D01*
X122959Y59751D01*
X124536Y60404D01*
X125991Y61296D01*
X127289Y62404D01*
X128397Y63702D01*
X129289Y65157D01*
X129942Y66734D01*
X130341Y68393D01*
X130474Y70095D01*
Y81906D01*
X130341Y83607D01*
X129942Y85266D01*
X129289Y86843D01*
X128397Y88298D01*
X127289Y89596D01*
X125991Y90704D01*
X124578Y91570D01*
Y110536D01*
X145521Y131479D01*
X145521Y131479D01*
X155484Y141442D01*
X156275Y142473D01*
X156773Y143674D01*
X156943Y144963D01*
X156943Y144963D01*
Y196177D01*
X156943Y196177D01*
X156773Y197466D01*
X156275Y198667D01*
X155484Y199698D01*
X155484Y199698D01*
X128661Y226521D01*
X127630Y227312D01*
X126429Y227810D01*
X125140Y227980D01*
D02*
G37*
G36*
X231832Y85331D02*
X228955D01*
Y84800D01*
X229120Y83546D01*
X229604Y82378D01*
X230374Y81374D01*
X231378Y80604D01*
X231832Y80417D01*
Y85331D01*
D02*
G37*
G36*
X56331Y69332D02*
X51416D01*
X51604Y68878D01*
X52374Y67874D01*
X53378Y67104D01*
X54546Y66620D01*
X55800Y66455D01*
X56331D01*
Y69332D01*
D02*
G37*
G36*
X65184D02*
X60268D01*
Y66455D01*
X60800D01*
X62054Y66620D01*
X63222Y67104D01*
X64226Y67874D01*
X64996Y68878D01*
X65184Y69332D01*
D02*
G37*
G36*
X213332D02*
X208417D01*
X208604Y68878D01*
X209374Y67874D01*
X210378Y67104D01*
X211546Y66620D01*
X212800Y66455D01*
X213332D01*
Y69332D01*
D02*
G37*
G36*
X166692Y74032D02*
X158968D01*
Y60612D01*
X160709Y61140D01*
X162385Y62036D01*
X163854Y63241D01*
X165059Y64710D01*
X165954Y66385D01*
X166506Y68204D01*
X166692Y70095D01*
Y74032D01*
D02*
G37*
G36*
X26748Y67969D02*
X24738Y67811D01*
X22777Y67340D01*
X20914Y66568D01*
X19195Y65515D01*
X17661Y64205D01*
X16352Y62672D01*
X15298Y60952D01*
X14526Y59089D01*
X14056Y57129D01*
X13897Y55118D01*
X14056Y53108D01*
X14526Y51147D01*
X15298Y49284D01*
X16352Y47565D01*
X17661Y46031D01*
X19195Y44722D01*
X20914Y43668D01*
X22777Y42897D01*
X24738Y42426D01*
X26748Y42268D01*
X28758Y42426D01*
X30719Y42897D01*
X32582Y43668D01*
X34301Y44722D01*
X35835Y46031D01*
X37144Y47565D01*
X38198Y49284D01*
X38970Y51147D01*
X39440Y53108D01*
X39599Y55118D01*
X39440Y57129D01*
X38970Y59089D01*
X38198Y60952D01*
X37144Y62672D01*
X35835Y64205D01*
X34301Y65515D01*
X32582Y66568D01*
X30719Y67340D01*
X28758Y67811D01*
X26748Y67969D01*
D02*
G37*
G36*
X247220D02*
X245210Y67811D01*
X243249Y67340D01*
X241386Y66568D01*
X239667Y65515D01*
X238134Y64205D01*
X236824Y62672D01*
X235770Y60952D01*
X234999Y59089D01*
X234528Y57129D01*
X234370Y55118D01*
X234528Y53108D01*
X234999Y51147D01*
X235770Y49284D01*
X236824Y47565D01*
X238134Y46031D01*
X239667Y44722D01*
X241386Y43668D01*
X243249Y42897D01*
X245210Y42426D01*
X247220Y42268D01*
X249231Y42426D01*
X251191Y42897D01*
X253054Y43668D01*
X254774Y44722D01*
X256307Y46031D01*
X257617Y47565D01*
X258670Y49284D01*
X259442Y51147D01*
X259913Y53108D01*
X260071Y55118D01*
X259913Y57129D01*
X259442Y59089D01*
X258670Y60952D01*
X257617Y62672D01*
X256307Y64205D01*
X254774Y65515D01*
X253054Y66568D01*
X251191Y67340D01*
X249231Y67811D01*
X247220Y67969D01*
D02*
G37*
G36*
X155032Y74032D02*
X147308D01*
Y70095D01*
X147494Y68204D01*
X148046Y66385D01*
X148941Y64710D01*
X150146Y63241D01*
X151615Y62036D01*
X153291Y61140D01*
X155032Y60612D01*
Y74032D01*
D02*
G37*
G36*
X60800Y76145D02*
X60268D01*
Y73269D01*
X65184D01*
X64996Y73722D01*
X64226Y74726D01*
X63222Y75496D01*
X62054Y75980D01*
X60800Y76145D01*
D02*
G37*
G36*
X155032Y91388D02*
X153291Y90860D01*
X151615Y89964D01*
X150146Y88759D01*
X148941Y87290D01*
X148046Y85615D01*
X147494Y83796D01*
X147308Y81906D01*
Y77969D01*
X155032D01*
Y91388D01*
D02*
G37*
G36*
X158968D02*
Y77969D01*
X166692D01*
Y81906D01*
X166506Y83796D01*
X165954Y85615D01*
X165059Y87290D01*
X163854Y88759D01*
X162385Y89964D01*
X160709Y90860D01*
X158968Y91388D01*
D02*
G37*
G36*
X217800Y76145D02*
X217268D01*
Y73269D01*
X222183D01*
X221996Y73722D01*
X221226Y74726D01*
X220222Y75496D01*
X219054Y75980D01*
X217800Y76145D01*
D02*
G37*
G36*
X222183Y69332D02*
X217268D01*
Y66455D01*
X217800D01*
X219054Y66620D01*
X220222Y67104D01*
X221226Y67874D01*
X221996Y68878D01*
X222183Y69332D01*
D02*
G37*
G36*
X213332Y76145D02*
X212800D01*
X211546Y75980D01*
X210378Y75496D01*
X209374Y74726D01*
X208604Y73722D01*
X208417Y73269D01*
X213332D01*
Y76145D01*
D02*
G37*
G36*
X56331D02*
X55800D01*
X54546Y75980D01*
X53378Y75496D01*
X52374Y74726D01*
X51604Y73722D01*
X51416Y73269D01*
X56331D01*
Y76145D01*
D02*
G37*
G36*
X176000Y216987D02*
X174968Y216851D01*
X174007Y216453D01*
X173181Y215819D01*
X172547Y214993D01*
X172149Y214032D01*
X172013Y213000D01*
X172149Y211968D01*
X172547Y211007D01*
X173181Y210181D01*
X174007Y209547D01*
X174968Y209149D01*
X176000Y209013D01*
X177032Y209149D01*
X177993Y209547D01*
X178819Y210181D01*
X179453Y211007D01*
X179851Y211968D01*
X179987Y213000D01*
X179851Y214032D01*
X179453Y214993D01*
X178819Y215819D01*
X177993Y216453D01*
X177032Y216851D01*
X176000Y216987D01*
D02*
G37*
G36*
X186000D02*
X184968Y216851D01*
X184007Y216453D01*
X183181Y215819D01*
X182547Y214993D01*
X182149Y214032D01*
X182013Y213000D01*
X182149Y211968D01*
X182547Y211007D01*
X183181Y210181D01*
X184007Y209547D01*
X184968Y209149D01*
X186000Y209013D01*
X187032Y209149D01*
X187993Y209547D01*
X188819Y210181D01*
X189453Y211007D01*
X189851Y211968D01*
X189987Y213000D01*
X189851Y214032D01*
X189453Y214993D01*
X188819Y215819D01*
X187993Y216453D01*
X187032Y216851D01*
X186000Y216987D01*
D02*
G37*
G36*
X26748Y237260D02*
X24738Y237102D01*
X22777Y236631D01*
X20914Y235859D01*
X19195Y234806D01*
X17661Y233496D01*
X16352Y231963D01*
X15298Y230243D01*
X14526Y228380D01*
X14056Y226420D01*
X13897Y224409D01*
X14056Y222399D01*
X14526Y220438D01*
X15298Y218575D01*
X16352Y216856D01*
X17661Y215323D01*
X19195Y214013D01*
X20914Y212959D01*
X22777Y212188D01*
X24738Y211717D01*
X26748Y211559D01*
X28758Y211717D01*
X30719Y212188D01*
X32582Y212959D01*
X34301Y214013D01*
X35835Y215323D01*
X37144Y216856D01*
X38198Y218575D01*
X38970Y220438D01*
X39440Y222399D01*
X39599Y224409D01*
X39440Y226420D01*
X38970Y228380D01*
X38198Y230243D01*
X37144Y231963D01*
X35835Y233496D01*
X34301Y234806D01*
X32582Y235859D01*
X30719Y236631D01*
X28758Y237102D01*
X26748Y237260D01*
D02*
G37*
G36*
X166000Y216987D02*
X164968Y216851D01*
X164007Y216453D01*
X163181Y215819D01*
X162547Y214993D01*
X162149Y214032D01*
X162013Y213000D01*
X162149Y211968D01*
X162547Y211007D01*
X163181Y210181D01*
X164007Y209547D01*
X164968Y209149D01*
X166000Y209013D01*
X167032Y209149D01*
X167993Y209547D01*
X168819Y210181D01*
X169453Y211007D01*
X169851Y211968D01*
X169987Y213000D01*
X169851Y214032D01*
X169453Y214993D01*
X168819Y215819D01*
X167993Y216453D01*
X167032Y216851D01*
X166000Y216987D01*
D02*
G37*
G36*
X80000D02*
X78968Y216851D01*
X78007Y216453D01*
X77181Y215819D01*
X76547Y214993D01*
X76149Y214032D01*
X76013Y213000D01*
X76149Y211968D01*
X76547Y211007D01*
X77181Y210181D01*
X78007Y209547D01*
X78968Y209149D01*
X80000Y209013D01*
X81032Y209149D01*
X81993Y209547D01*
X82819Y210181D01*
X83453Y211007D01*
X83851Y211968D01*
X83987Y213000D01*
X83851Y214032D01*
X83453Y214993D01*
X82819Y215819D01*
X81993Y216453D01*
X81032Y216851D01*
X80000Y216987D01*
D02*
G37*
G36*
X90000D02*
X88968Y216851D01*
X88007Y216453D01*
X87181Y215819D01*
X86547Y214993D01*
X86149Y214032D01*
X86013Y213000D01*
X86149Y211968D01*
X86547Y211007D01*
X87181Y210181D01*
X88007Y209547D01*
X88968Y209149D01*
X90000Y209013D01*
X91032Y209149D01*
X91993Y209547D01*
X92819Y210181D01*
X93453Y211007D01*
X93851Y211968D01*
X93987Y213000D01*
X93851Y214032D01*
X93453Y214993D01*
X92819Y215819D01*
X91993Y216453D01*
X91032Y216851D01*
X90000Y216987D01*
D02*
G37*
G36*
X100000D02*
X98968Y216851D01*
X98007Y216453D01*
X97181Y215819D01*
X96547Y214993D01*
X96149Y214032D01*
X96013Y213000D01*
X96149Y211968D01*
X96547Y211007D01*
X97181Y210181D01*
X98007Y209547D01*
X98968Y209149D01*
X100000Y209013D01*
X101032Y209149D01*
X101993Y209547D01*
X102819Y210181D01*
X103453Y211007D01*
X103851Y211968D01*
X103987Y213000D01*
X103851Y214032D01*
X103453Y214993D01*
X102819Y215819D01*
X101993Y216453D01*
X101032Y216851D01*
X100000Y216987D01*
D02*
G37*
G36*
X247220Y237260D02*
X245210Y237102D01*
X243249Y236631D01*
X241386Y235859D01*
X239667Y234806D01*
X238134Y233496D01*
X236824Y231963D01*
X235770Y230243D01*
X234999Y228380D01*
X234528Y226420D01*
X234370Y224409D01*
X234528Y222399D01*
X234999Y220438D01*
X235770Y218575D01*
X236824Y216856D01*
X238134Y215323D01*
X239667Y214013D01*
X241386Y212959D01*
X243249Y212188D01*
X245210Y211717D01*
X247220Y211559D01*
X249231Y211717D01*
X251191Y212188D01*
X253054Y212959D01*
X254774Y214013D01*
X256307Y215323D01*
X257617Y216856D01*
X258670Y218575D01*
X259442Y220438D01*
X259913Y222399D01*
X260071Y224409D01*
X259913Y226420D01*
X259442Y228380D01*
X258670Y230243D01*
X257617Y231963D01*
X256307Y233496D01*
X254774Y234806D01*
X253054Y235859D01*
X251191Y236631D01*
X249231Y237102D01*
X247220Y237260D01*
D02*
G37*
G36*
X176000Y226987D02*
X174968Y226851D01*
X174007Y226453D01*
X173181Y225819D01*
X172547Y224993D01*
X172149Y224032D01*
X172013Y223000D01*
X172149Y221968D01*
X172547Y221007D01*
X173181Y220181D01*
X174007Y219547D01*
X174968Y219149D01*
X176000Y219013D01*
X177032Y219149D01*
X177993Y219547D01*
X178819Y220181D01*
X179453Y221007D01*
X179851Y221968D01*
X179987Y223000D01*
X179851Y224032D01*
X179453Y224993D01*
X178819Y225819D01*
X177993Y226453D01*
X177032Y226851D01*
X176000Y226987D01*
D02*
G37*
G36*
X186000D02*
X184968Y226851D01*
X184007Y226453D01*
X183181Y225819D01*
X182547Y224993D01*
X182149Y224032D01*
X182013Y223000D01*
X182149Y221968D01*
X182547Y221007D01*
X183181Y220181D01*
X184007Y219547D01*
X184968Y219149D01*
X186000Y219013D01*
X187032Y219149D01*
X187993Y219547D01*
X188819Y220181D01*
X189453Y221007D01*
X189851Y221968D01*
X189987Y223000D01*
X189851Y224032D01*
X189453Y224993D01*
X188819Y225819D01*
X187993Y226453D01*
X187032Y226851D01*
X186000Y226987D01*
D02*
G37*
G36*
X199953Y226953D02*
X192047D01*
Y219047D01*
X199953D01*
Y226953D01*
D02*
G37*
G36*
X166000Y226987D02*
X164968Y226851D01*
X164007Y226453D01*
X163181Y225819D01*
X162547Y224993D01*
X162149Y224032D01*
X162013Y223000D01*
X162149Y221968D01*
X162547Y221007D01*
X163181Y220181D01*
X164007Y219547D01*
X164968Y219149D01*
X166000Y219013D01*
X167032Y219149D01*
X167993Y219547D01*
X168819Y220181D01*
X169453Y221007D01*
X169851Y221968D01*
X169987Y223000D01*
X169851Y224032D01*
X169453Y224993D01*
X168819Y225819D01*
X167993Y226453D01*
X167032Y226851D01*
X166000Y226987D01*
D02*
G37*
G36*
X80000D02*
X78968Y226851D01*
X78007Y226453D01*
X77181Y225819D01*
X76547Y224993D01*
X76149Y224032D01*
X76013Y223000D01*
X76149Y221968D01*
X76547Y221007D01*
X77181Y220181D01*
X78007Y219547D01*
X78968Y219149D01*
X80000Y219013D01*
X81032Y219149D01*
X81993Y219547D01*
X82819Y220181D01*
X83453Y221007D01*
X83851Y221968D01*
X83987Y223000D01*
X83851Y224032D01*
X83453Y224993D01*
X82819Y225819D01*
X81993Y226453D01*
X81032Y226851D01*
X80000Y226987D01*
D02*
G37*
G36*
X90000D02*
X88968Y226851D01*
X88007Y226453D01*
X87181Y225819D01*
X86547Y224993D01*
X86149Y224032D01*
X86013Y223000D01*
X86149Y221968D01*
X86547Y221007D01*
X87181Y220181D01*
X88007Y219547D01*
X88968Y219149D01*
X90000Y219013D01*
X91032Y219149D01*
X91993Y219547D01*
X92819Y220181D01*
X93453Y221007D01*
X93851Y221968D01*
X93987Y223000D01*
X93851Y224032D01*
X93453Y224993D01*
X92819Y225819D01*
X91993Y226453D01*
X91032Y226851D01*
X90000Y226987D01*
D02*
G37*
G36*
X100000D02*
X98968Y226851D01*
X98007Y226453D01*
X97181Y225819D01*
X96547Y224993D01*
X96149Y224032D01*
X96013Y223000D01*
X96149Y221968D01*
X96547Y221007D01*
X97181Y220181D01*
X98007Y219547D01*
X98968Y219149D01*
X100000Y219013D01*
X101032Y219149D01*
X101993Y219547D01*
X102819Y220181D01*
X103453Y221007D01*
X103851Y221968D01*
X103987Y223000D01*
X103851Y224032D01*
X103453Y224993D01*
X102819Y225819D01*
X101993Y226453D01*
X101032Y226851D01*
X100000Y226987D01*
D02*
G37*
G36*
X90000Y168987D02*
X88968Y168851D01*
X88007Y168453D01*
X87181Y167819D01*
X86547Y166993D01*
X86149Y166032D01*
X86013Y165000D01*
X86149Y163968D01*
X86547Y163007D01*
X87181Y162181D01*
X88007Y161547D01*
X88968Y161149D01*
X90000Y161013D01*
X91032Y161149D01*
X91993Y161547D01*
X92819Y162181D01*
X93453Y163007D01*
X93851Y163968D01*
X93987Y165000D01*
X93851Y166032D01*
X93453Y166993D01*
X92819Y167819D01*
X91993Y168453D01*
X91032Y168851D01*
X90000Y168987D01*
D02*
G37*
G36*
X100000D02*
X98968Y168851D01*
X98007Y168453D01*
X97181Y167819D01*
X96547Y166993D01*
X96149Y166032D01*
X96013Y165000D01*
X96149Y163968D01*
X96547Y163007D01*
X97181Y162181D01*
X98007Y161547D01*
X98968Y161149D01*
X100000Y161013D01*
X101032Y161149D01*
X101993Y161547D01*
X102819Y162181D01*
X103453Y163007D01*
X103851Y163968D01*
X103987Y165000D01*
X103851Y166032D01*
X103453Y166993D01*
X102819Y167819D01*
X101993Y168453D01*
X101032Y168851D01*
X100000Y168987D01*
D02*
G37*
G36*
X166000D02*
X164968Y168851D01*
X164007Y168453D01*
X163181Y167819D01*
X162547Y166993D01*
X162149Y166032D01*
X162013Y165000D01*
X162149Y163968D01*
X162547Y163007D01*
X163181Y162181D01*
X164007Y161547D01*
X164968Y161149D01*
X166000Y161013D01*
X167032Y161149D01*
X167993Y161547D01*
X168819Y162181D01*
X169453Y163007D01*
X169851Y163968D01*
X169987Y165000D01*
X169851Y166032D01*
X169453Y166993D01*
X168819Y167819D01*
X167993Y168453D01*
X167032Y168851D01*
X166000Y168987D01*
D02*
G37*
G36*
X80000D02*
X78968Y168851D01*
X78007Y168453D01*
X77181Y167819D01*
X76547Y166993D01*
X76149Y166032D01*
X76013Y165000D01*
X76149Y163968D01*
X76547Y163007D01*
X77181Y162181D01*
X78007Y161547D01*
X78968Y161149D01*
X80000Y161013D01*
X81032Y161149D01*
X81993Y161547D01*
X82819Y162181D01*
X83453Y163007D01*
X83851Y163968D01*
X83987Y165000D01*
X83851Y166032D01*
X83453Y166993D01*
X82819Y167819D01*
X81993Y168453D01*
X81032Y168851D01*
X80000Y168987D01*
D02*
G37*
G36*
X166000Y158987D02*
X164968Y158851D01*
X164007Y158453D01*
X163181Y157819D01*
X162547Y156993D01*
X162149Y156032D01*
X162013Y155000D01*
X162149Y153968D01*
X162547Y153007D01*
X163181Y152181D01*
X164007Y151547D01*
X164968Y151149D01*
X166000Y151013D01*
X167032Y151149D01*
X167993Y151547D01*
X168819Y152181D01*
X169453Y153007D01*
X169851Y153968D01*
X169987Y155000D01*
X169851Y156032D01*
X169453Y156993D01*
X168819Y157819D01*
X167993Y158453D01*
X167032Y158851D01*
X166000Y158987D01*
D02*
G37*
G36*
X176000D02*
X174968Y158851D01*
X174007Y158453D01*
X173181Y157819D01*
X172547Y156993D01*
X172149Y156032D01*
X172013Y155000D01*
X172149Y153968D01*
X172547Y153007D01*
X173181Y152181D01*
X174007Y151547D01*
X174968Y151149D01*
X176000Y151013D01*
X177032Y151149D01*
X177993Y151547D01*
X178819Y152181D01*
X179453Y153007D01*
X179851Y153968D01*
X179987Y155000D01*
X179851Y156032D01*
X179453Y156993D01*
X178819Y157819D01*
X177993Y158453D01*
X177032Y158851D01*
X176000Y158987D01*
D02*
G37*
G36*
X186000D02*
X184968Y158851D01*
X184007Y158453D01*
X183181Y157819D01*
X182547Y156993D01*
X182149Y156032D01*
X182013Y155000D01*
X182149Y153968D01*
X182547Y153007D01*
X183181Y152181D01*
X184007Y151547D01*
X184968Y151149D01*
X186000Y151013D01*
X187032Y151149D01*
X187993Y151547D01*
X188819Y152181D01*
X189453Y153007D01*
X189851Y153968D01*
X189987Y155000D01*
X189851Y156032D01*
X189453Y156993D01*
X188819Y157819D01*
X187993Y158453D01*
X187032Y158851D01*
X186000Y158987D01*
D02*
G37*
G36*
X176000Y168987D02*
X174968Y168851D01*
X174007Y168453D01*
X173181Y167819D01*
X172547Y166993D01*
X172149Y166032D01*
X172013Y165000D01*
X172149Y163968D01*
X172547Y163007D01*
X173181Y162181D01*
X174007Y161547D01*
X174968Y161149D01*
X176000Y161013D01*
X177032Y161149D01*
X177993Y161547D01*
X178819Y162181D01*
X179453Y163007D01*
X179851Y163968D01*
X179987Y165000D01*
X179851Y166032D01*
X179453Y166993D01*
X178819Y167819D01*
X177993Y168453D01*
X177032Y168851D01*
X176000Y168987D01*
D02*
G37*
G36*
X140559Y170938D02*
X139969D01*
Y170741D01*
X140559D01*
Y170938D01*
D02*
G37*
G36*
X136031Y175071D02*
X135441D01*
Y174874D01*
X136031D01*
Y175071D01*
D02*
G37*
G36*
X140559D02*
X139969D01*
Y174874D01*
X140559D01*
Y175071D01*
D02*
G37*
G36*
X136031Y170938D02*
X135441D01*
Y170741D01*
X136031D01*
Y170938D01*
D02*
G37*
G36*
X186000Y168987D02*
X184968Y168851D01*
X184007Y168453D01*
X183181Y167819D01*
X182547Y166993D01*
X182149Y166032D01*
X182013Y165000D01*
X182149Y163968D01*
X182547Y163007D01*
X183181Y162181D01*
X184007Y161547D01*
X184968Y161149D01*
X186000Y161013D01*
X187032Y161149D01*
X187993Y161547D01*
X188819Y162181D01*
X189453Y163007D01*
X189851Y163968D01*
X189987Y165000D01*
X189851Y166032D01*
X189453Y166993D01*
X188819Y167819D01*
X187993Y168453D01*
X187032Y168851D01*
X186000Y168987D01*
D02*
G37*
G36*
X113953Y168953D02*
X106047D01*
Y161047D01*
X113953D01*
Y168953D01*
D02*
G37*
G36*
X199953D02*
X192047D01*
Y161047D01*
X199953D01*
Y168953D01*
D02*
G37*
%LPD*%
D10*
X138000Y142457D02*
D03*
Y149543D02*
D03*
D11*
Y172906D02*
D03*
Y161094D02*
D03*
D12*
X142000Y135000D02*
X151963Y144963D01*
X119598Y112598D02*
X142000Y135000D01*
X151963Y144963D02*
Y196177D01*
X119598Y76000D02*
Y112598D01*
X117563Y172906D02*
Y205437D01*
X196000Y155000D02*
X199086D01*
X203663Y159577D01*
Y205337D01*
X196000Y213000D02*
X203663Y205337D01*
X113686Y155000D02*
X117563Y158877D01*
Y172906D01*
X110000Y213000D02*
X117563Y205437D01*
X110000Y223000D02*
X125140D01*
X151963Y196177D01*
X76800Y87300D02*
Y101977D01*
X110000Y135177D01*
Y155000D01*
D13*
X138000Y139000D02*
X142000Y135000D01*
X138000Y139000D02*
Y142457D01*
D14*
X110000Y155000D02*
X113686D01*
X117563Y172906D02*
X138000D01*
D15*
Y149543D02*
Y161094D01*
D16*
X76800Y87300D02*
D03*
X233800D02*
D03*
D17*
X58300Y71300D02*
D03*
Y97600D02*
D03*
X215300Y71300D02*
D03*
Y97600D02*
D03*
D18*
X110000Y165000D02*
D03*
X196000Y223000D02*
D03*
X110000D02*
D03*
X196000Y165000D02*
D03*
D19*
X110000Y155000D02*
D03*
X100000Y165000D02*
D03*
Y155000D02*
D03*
X90000Y165000D02*
D03*
Y155000D02*
D03*
X80000Y165000D02*
D03*
Y155000D02*
D03*
X196000Y213000D02*
D03*
X186000Y223000D02*
D03*
Y213000D02*
D03*
X176000Y223000D02*
D03*
Y213000D02*
D03*
X166000Y223000D02*
D03*
Y213000D02*
D03*
X110000D02*
D03*
X100000Y223000D02*
D03*
Y213000D02*
D03*
X90000Y223000D02*
D03*
Y213000D02*
D03*
X80000Y223000D02*
D03*
Y213000D02*
D03*
X196000Y155000D02*
D03*
X186000Y165000D02*
D03*
Y155000D02*
D03*
X176000Y165000D02*
D03*
Y155000D02*
D03*
X166000Y165000D02*
D03*
Y155000D02*
D03*
D20*
X247220Y224409D02*
D03*
X26748Y55118D02*
D03*
Y224409D02*
D03*
X247220Y55118D02*
D03*
D21*
X119598Y76000D02*
D03*
X157000D02*
D03*
M02*
