G04 Layer_Color=65535*
%FSLAX25Y25*%
%MOIN*%
G70*
G01*
G75*
%ADD15C,0.01000*%
%ADD22C,0.00600*%
%ADD23C,0.00800*%
%ADD24C,0.00787*%
D15*
X40567Y99900D02*
X76000D01*
Y43995D02*
Y99900D01*
X40500Y44000D02*
X75933D01*
X40500D02*
Y99905D01*
X197567Y99900D02*
X233000D01*
Y43995D02*
Y99900D01*
X197500Y44000D02*
X232933D01*
X197500D02*
Y99905D01*
X95976Y107496D02*
X180622D01*
X95976Y44504D02*
Y107496D01*
Y44504D02*
X180622D01*
Y107496D01*
X43587Y109757D02*
X42931Y110413D01*
X41619D01*
X40963Y109757D01*
Y107133D01*
X41619Y106477D01*
X42931D01*
X43587Y107133D01*
X47523Y106477D02*
X44899D01*
X47523Y109101D01*
Y109757D01*
X46867Y110413D01*
X45555D01*
X44899Y109757D01*
X200587D02*
X199931Y110413D01*
X198619D01*
X197963Y109757D01*
Y107133D01*
X198619Y106477D01*
X199931D01*
X200587Y107133D01*
X201899Y106477D02*
X203211D01*
X202555D01*
Y110413D01*
X201899Y109757D01*
X136064Y179000D02*
X138688D01*
X140000Y180312D01*
X138688Y181624D01*
X136064D01*
X140000Y182936D02*
Y184248D01*
Y183592D01*
X137376D01*
Y182936D01*
X140000Y186215D02*
X137376D01*
Y188183D01*
X138032Y188839D01*
X140000D01*
X60000Y238000D02*
Y241936D01*
X61968D01*
X62624Y241280D01*
Y239968D01*
X61968Y239312D01*
X60000D01*
X63936Y238000D02*
X65248D01*
X64592D01*
Y241936D01*
X63936Y241280D01*
X206000Y180000D02*
Y183936D01*
X207968D01*
X208624Y183280D01*
Y181968D01*
X207968Y181312D01*
X206000D01*
X211904Y180000D02*
Y183936D01*
X209936Y181968D01*
X212560D01*
X60000Y180000D02*
Y183936D01*
X61968D01*
X62624Y183280D01*
Y181968D01*
X61968Y181312D01*
X60000D01*
X63936Y183280D02*
X64592Y183936D01*
X65904D01*
X66560Y183280D01*
Y182624D01*
X65904Y181968D01*
X65248D01*
X65904D01*
X66560Y181312D01*
Y180656D01*
X65904Y180000D01*
X64592D01*
X63936Y180656D01*
X206000Y238000D02*
Y241936D01*
X207968D01*
X208624Y241280D01*
Y239968D01*
X207968Y239312D01*
X206000D01*
X212560Y238000D02*
X209936D01*
X212560Y240624D01*
Y241280D01*
X211904Y241936D01*
X210592D01*
X209936Y241280D01*
X140000Y132000D02*
X136064D01*
Y133968D01*
X136720Y134624D01*
X138032D01*
X138688Y133968D01*
Y132000D01*
Y133312D02*
X140000Y134624D01*
Y138560D02*
Y135936D01*
X137376Y138560D01*
X136720D01*
X136064Y137904D01*
Y136592D01*
X136720Y135936D01*
X96463Y114913D02*
Y110977D01*
X97775Y112289D01*
X99087Y110977D01*
Y114913D01*
X103023D02*
X101711D01*
X102367D01*
Y111633D01*
X101711Y110977D01*
X101055D01*
X100399Y111633D01*
X106302Y110977D02*
Y114913D01*
X104334Y112945D01*
X106958D01*
X110894Y114913D02*
X108270D01*
Y112945D01*
X109582Y113601D01*
X110238D01*
X110894Y112945D01*
Y111633D01*
X110238Y110977D01*
X108926D01*
X108270Y111633D01*
X114830Y114257D02*
X114174Y114913D01*
X112862D01*
X112206Y114257D01*
Y111633D01*
X112862Y110977D01*
X114174D01*
X114830Y111633D01*
X116142Y112945D02*
X118765D01*
X120077Y114913D02*
Y110977D01*
X122045D01*
X122701Y111633D01*
Y112289D01*
X122045Y112945D01*
X120077D01*
X122045D01*
X122701Y113601D01*
Y114257D01*
X122045Y114913D01*
X120077D01*
X124013Y112945D02*
X126637D01*
X130573Y110977D02*
X127949D01*
X130573Y113601D01*
Y114257D01*
X129917Y114913D01*
X128605D01*
X127949Y114257D01*
X131885Y110977D02*
Y114913D01*
X133853D01*
X134509Y114257D01*
Y112945D01*
X133853Y112289D01*
X131885D01*
X111000Y41998D02*
Y37999D01*
X112999Y36000D01*
X114999Y37999D01*
Y41998D01*
X116998Y36000D02*
X118997D01*
X117998D01*
Y39999D01*
X116998D01*
X121996Y36000D02*
Y39999D01*
X124996D01*
X125995Y38999D01*
Y36000D01*
X153999Y40998D02*
X152999Y41998D01*
X151000D01*
X150000Y40998D01*
Y37000D01*
X151000Y36000D01*
X152999D01*
X153999Y37000D01*
Y38999D01*
X151999D01*
X155998Y36000D02*
Y41998D01*
X159997Y36000D01*
Y41998D01*
X161996D02*
Y36000D01*
X164995D01*
X165995Y37000D01*
Y40998D01*
X164995Y41998D01*
X161996D01*
X89936Y16000D02*
X86000Y19936D01*
Y23871D01*
X89936Y27807D01*
X95839D02*
X103711D01*
Y25839D01*
X95839Y17968D01*
Y16000D01*
X107647D02*
Y17968D01*
X109614D01*
Y16000D01*
X107647D01*
X125357Y27807D02*
X117486D01*
Y21904D01*
X121422Y23871D01*
X123389D01*
X125357Y21904D01*
Y17968D01*
X123389Y16000D01*
X119454D01*
X117486Y17968D01*
X129293Y27807D02*
Y19936D01*
X133229Y16000D01*
X137165Y19936D01*
Y27807D01*
X141100Y21904D02*
X148972D01*
X152908Y16000D02*
X156843D01*
X154875D01*
Y27807D01*
X152908Y25839D01*
X170618Y16000D02*
X162747D01*
X170618Y23871D01*
Y25839D01*
X168650Y27807D01*
X164715D01*
X162747Y25839D01*
X174554Y27807D02*
Y19936D01*
X178490Y16000D01*
X182425Y19936D01*
Y27807D01*
X186361Y16000D02*
X190297Y19936D01*
Y23871D01*
X186361Y27807D01*
D22*
X135638Y144819D02*
Y147181D01*
X140362Y144819D02*
Y147181D01*
D23*
X138000Y168181D02*
X140362Y165819D01*
X135638D02*
X140362D01*
X135638D02*
X138000Y168181D01*
X140756D01*
X135244D02*
X138000D01*
X141937Y170937D02*
Y176449D01*
X134063D02*
X141937D01*
X134063Y170937D02*
Y176449D01*
X141937Y157551D02*
Y163063D01*
X134063Y157551D02*
X141937D01*
X134063D02*
Y163063D01*
D24*
X59961Y142283D02*
Y177717D01*
X130039Y142283D02*
Y177717D01*
X59961Y142283D02*
X130039D01*
X59961Y177717D02*
X130039D01*
X145961Y200283D02*
Y235717D01*
X216039Y200283D02*
Y235717D01*
X145961Y200283D02*
X216039D01*
X145961Y235717D02*
X216039D01*
X59961Y200283D02*
Y235717D01*
X130039Y200283D02*
Y235717D01*
X59961Y200283D02*
X130039D01*
X59961Y235717D02*
X130039D01*
X145961Y142283D02*
Y177717D01*
X216039Y142283D02*
Y177717D01*
X145961Y142283D02*
X216039D01*
X145961Y177717D02*
X216039D01*
M02*
