M48
;Layer_Color=9474304
;FILE_FORMAT=2:5
INCH,TZ
;TYPE=PLATED
T1F00S00C0.03543
T3F00S00C0.07874
T4F00S00C0.12992
%
T01
X80000Y155000
X90000
Y165000
X80000
Y213000
X90000
Y223000
X80000
X100000
X110000
Y213000
X100000
Y165000
X110000
Y155000
X100000
X166000
X176000
X186000
X196000
Y165000
X186000
X176000
X166000
Y213000
X176000
X186000
X196000
Y223000
X186000
X176000
X166000
T03
X119598Y76000
X157000
T04
X247220Y55118
X26748
Y224409
X247220
M30
