solid CATIA STL
  facet normal  0.000000e+000  -0.000000e+000  9.999999e-001
    outer loop
      vertex  1.507350e+000  6.711155e-001  3.400000e+000
      vertex  1.613944e+000  3.430543e-001  3.400000e+000
      vertex  2.963065e+000  4.693034e-001  3.400000e+000
    endloop
  endfacet
  facet normal  0.000000e+000  0.000000e+000  1.000000e+000
    outer loop
      vertex -2.427051e+000  1.763356e+000  3.400000e+000
      vertex -4.693034e-001  2.963065e+000  3.400000e+000
      vertex -9.270510e-001  2.853169e+000  3.400000e+000
    endloop
  endfacet
  facet normal  0.000000e+000  0.000000e+000  1.000000e+000
    outer loop
      vertex -2.427051e+000  1.763356e+000  3.400000e+000
      vertex -9.270510e-001  2.853169e+000  3.400000e+000
      vertex -1.361971e+000  2.673020e+000  3.400000e+000
    endloop
  endfacet
  facet normal  0.000000e+000  0.000000e+000  1.000000e+000
    outer loop
      vertex -2.427051e+000  1.763356e+000  3.400000e+000
      vertex -1.361971e+000  2.673020e+000  3.400000e+000
      vertex -1.763356e+000  2.427051e+000  3.400000e+000
    endloop
  endfacet
  facet normal  0.000000e+000  0.000000e+000  1.000000e+000
    outer loop
      vertex -2.427051e+000  1.763356e+000  3.400000e+000
      vertex -1.763356e+000  2.427051e+000  3.400000e+000
      vertex -2.121320e+000  2.121320e+000  3.400000e+000
    endloop
  endfacet
  facet normal  -0.000000e+000  -0.000000e+000  1.000000e+000
    outer loop
      vertex  1.724720e-001  1.640961e+000  3.400000e+000
      vertex  5.098780e-001  1.569243e+000  3.400000e+000
      vertex  2.673020e+000  1.361971e+000  3.400000e+000
    endloop
  endfacet
  facet normal  0.000000e+000  0.000000e+000  1.000000e+000
    outer loop
      vertex  1.724720e-001  1.640961e+000  3.400000e+000
      vertex  2.673020e+000  1.361971e+000  3.400000e+000
      vertex  2.427051e+000  1.763356e+000  3.400000e+000
    endloop
  endfacet
  facet normal  0.000000e+000  0.000000e+000  9.999999e-001
    outer loop
      vertex  1.724720e-001  1.640961e+000  3.400000e+000
      vertex  2.427051e+000  1.763356e+000  3.400000e+000
      vertex  2.121320e+000  2.121320e+000  3.400000e+000
    endloop
  endfacet
  facet normal  0.000000e+000  0.000000e+000  1.000000e+000
    outer loop
      vertex  1.724720e-001  1.640961e+000  3.400000e+000
      vertex  2.121320e+000  2.121320e+000  3.400000e+000
      vertex  1.763356e+000  2.427051e+000  3.400000e+000
    endloop
  endfacet
  facet normal  0.000000e+000  0.000000e+000  1.000000e+000
    outer loop
      vertex  1.724720e-001  1.640961e+000  3.400000e+000
      vertex  1.763356e+000  2.427051e+000  3.400000e+000
      vertex  1.361971e+000  2.673020e+000  3.400000e+000
    endloop
  endfacet
  facet normal  0.000000e+000  0.000000e+000  1.000000e+000
    outer loop
      vertex  1.724720e-001  1.640961e+000  3.400000e+000
      vertex  1.361971e+000  2.673020e+000  3.400000e+000
      vertex  9.270510e-001  2.853169e+000  3.400000e+000
    endloop
  endfacet
  facet normal  0.000000e+000  0.000000e+000  9.999999e-001
    outer loop
      vertex  1.724720e-001  1.640961e+000  3.400000e+000
      vertex  9.270510e-001  2.853169e+000  3.400000e+000
      vertex  4.693034e-001  2.963065e+000  3.400000e+000
    endloop
  endfacet
  facet normal  0.000000e+000  -0.000000e+000  1.000000e+000
    outer loop
      vertex -5.510729e-016 -3.000000e+000  3.400000e+000
      vertex  4.693034e-001 -2.963065e+000  3.400000e+000
      vertex  9.270510e-001 -2.853169e+000  3.400000e+000
    endloop
  endfacet
  facet normal  0.000000e+000  -0.000000e+000  1.000000e+000
    outer loop
      vertex -5.510729e-016 -3.000000e+000  3.400000e+000
      vertex  9.270510e-001 -2.853169e+000  3.400000e+000
      vertex  1.361971e+000 -2.673020e+000  3.400000e+000
    endloop
  endfacet
  facet normal  0.000000e+000  -0.000000e+000  1.000000e+000
    outer loop
      vertex -5.510729e-016 -3.000000e+000  3.400000e+000
      vertex  1.361971e+000 -2.673020e+000  3.400000e+000
      vertex  1.763356e+000 -2.427051e+000  3.400000e+000
    endloop
  endfacet
  facet normal  0.000000e+000  -0.000000e+000  1.000000e+000
    outer loop
      vertex -5.510729e-016 -3.000000e+000  3.400000e+000
      vertex  1.763356e+000 -2.427051e+000  3.400000e+000
      vertex  2.121320e+000 -2.121320e+000  3.400000e+000
    endloop
  endfacet
  facet normal  0.000000e+000  -0.000000e+000  1.000000e+000
    outer loop
      vertex -5.510729e-016 -3.000000e+000  3.400000e+000
      vertex  2.121320e+000 -2.121320e+000  3.400000e+000
      vertex  2.427051e+000 -1.763356e+000  3.400000e+000
    endloop
  endfacet
  facet normal  0.000000e+000  0.000000e+000  1.000000e+000
    outer loop
      vertex -5.510729e-016 -3.000000e+000  3.400000e+000
      vertex  2.427051e+000 -1.763356e+000  3.400000e+000
      vertex  1.724720e-001 -1.640961e+000  3.400000e+000
    endloop
  endfacet
  facet normal  0.000000e+000  0.000000e+000  1.000000e+000
    outer loop
      vertex -5.510729e-016 -3.000000e+000  3.400000e+000
      vertex  1.724720e-001 -1.640961e+000  3.400000e+000
      vertex -1.724720e-001 -1.640961e+000  3.400000e+000
    endloop
  endfacet
  facet normal  0.000000e+000  0.000000e+000  1.000000e+000
    outer loop
      vertex -5.510729e-016 -3.000000e+000  3.400000e+000
      vertex -1.724720e-001 -1.640961e+000  3.400000e+000
      vertex -2.427051e+000 -1.763356e+000  3.400000e+000
    endloop
  endfacet
  facet normal  0.000000e+000  0.000000e+000  1.000000e+000
    outer loop
      vertex -5.510729e-016 -3.000000e+000  3.400000e+000
      vertex -2.427051e+000 -1.763356e+000  3.400000e+000
      vertex -2.121320e+000 -2.121320e+000  3.400000e+000
    endloop
  endfacet
  facet normal  0.000000e+000  0.000000e+000  1.000000e+000
    outer loop
      vertex -5.510729e-016 -3.000000e+000  3.400000e+000
      vertex -2.121320e+000 -2.121320e+000  3.400000e+000
      vertex -1.763356e+000 -2.427051e+000  3.400000e+000
    endloop
  endfacet
  facet normal  0.000000e+000  0.000000e+000  1.000000e+000
    outer loop
      vertex -5.510729e-016 -3.000000e+000  3.400000e+000
      vertex -1.763356e+000 -2.427051e+000  3.400000e+000
      vertex -1.361971e+000 -2.673020e+000  3.400000e+000
    endloop
  endfacet
  facet normal  0.000000e+000  0.000000e+000  1.000000e+000
    outer loop
      vertex -5.510729e-016 -3.000000e+000  3.400000e+000
      vertex -1.361971e+000 -2.673020e+000  3.400000e+000
      vertex -9.270510e-001 -2.853169e+000  3.400000e+000
    endloop
  endfacet
  facet normal  0.000000e+000  0.000000e+000  1.000000e+000
    outer loop
      vertex -5.510729e-016 -3.000000e+000  3.400000e+000
      vertex -9.270510e-001 -2.853169e+000  3.400000e+000
      vertex -4.693034e-001 -2.963065e+000  3.400000e+000
    endloop
  endfacet
  facet normal  0.000000e+000  0.000000e+000  1.000000e+000
    outer loop
      vertex -2.427051e+000 -1.763356e+000  3.400000e+000
      vertex -1.724720e-001 -1.640961e+000  3.400000e+000
      vertex -5.098780e-001 -1.569243e+000  3.400000e+000
    endloop
  endfacet
  facet normal  0.000000e+000  0.000000e+000  1.000000e+000
    outer loop
      vertex -2.427051e+000 -1.763356e+000  3.400000e+000
      vertex -5.098780e-001 -1.569243e+000  3.400000e+000
      vertex -8.250000e-001 -1.428942e+000  3.400000e+000
    endloop
  endfacet
  facet normal  0.000000e+000  0.000000e+000  1.000000e+000
    outer loop
      vertex -2.427051e+000 -1.763356e+000  3.400000e+000
      vertex -8.250000e-001 -1.428942e+000  3.400000e+000
      vertex -2.673020e+000 -1.361971e+000  3.400000e+000
    endloop
  endfacet
  facet normal  0.000000e+000  0.000000e+000  1.000000e+000
    outer loop
      vertex  2.427051e+000 -1.763356e+000  3.400000e+000
      vertex  2.673020e+000 -1.361971e+000  3.400000e+000
      vertex  8.250000e-001 -1.428942e+000  3.400000e+000
    endloop
  endfacet
  facet normal  0.000000e+000  0.000000e+000  1.000000e+000
    outer loop
      vertex  2.427051e+000 -1.763356e+000  3.400000e+000
      vertex  8.250000e-001 -1.428942e+000  3.400000e+000
      vertex  5.098780e-001 -1.569243e+000  3.400000e+000
    endloop
  endfacet
  facet normal  0.000000e+000  0.000000e+000  1.000000e+000
    outer loop
      vertex  2.427051e+000 -1.763356e+000  3.400000e+000
      vertex  5.098780e-001 -1.569243e+000  3.400000e+000
      vertex  1.724720e-001 -1.640961e+000  3.400000e+000
    endloop
  endfacet
  facet normal  0.000000e+000  0.000000e+000  1.000000e+000
    outer loop
      vertex  1.724720e-001  1.640961e+000  3.400000e+000
      vertex  4.693034e-001  2.963065e+000  3.400000e+000
      vertex -1.724720e-001  1.640961e+000  3.400000e+000
    endloop
  endfacet
  facet normal  0.000000e+000  0.000000e+000  1.000000e+000
    outer loop
      vertex -1.724720e-001  1.640961e+000  3.400000e+000
      vertex  4.693034e-001  2.963065e+000  3.400000e+000
      vertex  1.836910e-016  3.000000e+000  3.400000e+000
    endloop
  endfacet
  facet normal  0.000000e+000  0.000000e+000  1.000000e+000
    outer loop
      vertex -1.724720e-001  1.640961e+000  3.400000e+000
      vertex  1.836910e-016  3.000000e+000  3.400000e+000
      vertex -2.427051e+000  1.763356e+000  3.400000e+000
    endloop
  endfacet
  facet normal  0.000000e+000  0.000000e+000  1.000000e+000
    outer loop
      vertex -2.427051e+000  1.763356e+000  3.400000e+000
      vertex  1.836910e-016  3.000000e+000  3.400000e+000
      vertex -4.693034e-001  2.963065e+000  3.400000e+000
    endloop
  endfacet
  facet normal  0.000000e+000  0.000000e+000  1.000000e+000
    outer loop
      vertex -1.724720e-001  1.640961e+000  3.400000e+000
      vertex -2.427051e+000  1.763356e+000  3.400000e+000
      vertex -5.098780e-001  1.569243e+000  3.400000e+000
    endloop
  endfacet
  facet normal  0.000000e+000  0.000000e+000  9.999999e-001
    outer loop
      vertex -5.098780e-001  1.569243e+000  3.400000e+000
      vertex -2.427051e+000  1.763356e+000  3.400000e+000
      vertex -2.673020e+000  1.361971e+000  3.400000e+000
    endloop
  endfacet
  facet normal  0.000000e+000  0.000000e+000  1.000000e+000
    outer loop
      vertex -5.098780e-001  1.569243e+000  3.400000e+000
      vertex -2.673020e+000  1.361971e+000  3.400000e+000
      vertex -8.250000e-001  1.428942e+000  3.400000e+000
    endloop
  endfacet
  facet normal  -0.000000e+000  0.000000e+000  1.000000e+000
    outer loop
      vertex -8.250000e-001  1.428942e+000  3.400000e+000
      vertex -2.673020e+000  1.361971e+000  3.400000e+000
      vertex -1.104066e+000  1.226189e+000  3.400000e+000
    endloop
  endfacet
  facet normal  0.000000e+000  0.000000e+000  1.000000e+000
    outer loop
      vertex -1.104066e+000  1.226189e+000  3.400000e+000
      vertex -2.673020e+000  1.361971e+000  3.400000e+000
      vertex -2.853169e+000  9.270510e-001  3.400000e+000
    endloop
  endfacet
  facet normal  0.000000e+000  0.000000e+000  1.000000e+000
    outer loop
      vertex -1.104066e+000  1.226189e+000  3.400000e+000
      vertex -2.853169e+000  9.270510e-001  3.400000e+000
      vertex -1.334878e+000  9.698457e-001  3.400000e+000
    endloop
  endfacet
  facet normal  -0.000000e+000  0.000000e+000  1.000000e+000
    outer loop
      vertex -1.334878e+000  9.698457e-001  3.400000e+000
      vertex -2.853169e+000  9.270510e-001  3.400000e+000
      vertex -1.507350e+000  6.711155e-001  3.400000e+000
    endloop
  endfacet
  facet normal  0.000000e+000  0.000000e+000  1.000000e+000
    outer loop
      vertex -1.507350e+000  6.711155e-001  3.400000e+000
      vertex -2.853169e+000  9.270510e-001  3.400000e+000
      vertex -2.963065e+000  4.693034e-001  3.400000e+000
    endloop
  endfacet
  facet normal  -0.000000e+000  0.000000e+000  9.999999e-001
    outer loop
      vertex -1.507350e+000  6.711155e-001  3.400000e+000
      vertex -2.963065e+000  4.693034e-001  3.400000e+000
      vertex -1.613944e+000  3.430543e-001  3.400000e+000
    endloop
  endfacet
  facet normal  0.000000e+000  0.000000e+000  1.000000e+000
    outer loop
      vertex -1.613944e+000  3.430543e-001  3.400000e+000
      vertex -2.963065e+000  4.693034e-001  3.400000e+000
      vertex -1.650000e+000  2.020601e-016  3.400000e+000
    endloop
  endfacet
  facet normal  0.000000e+000  0.000000e+000  1.000000e+000
    outer loop
      vertex -1.650000e+000  2.020601e-016  3.400000e+000
      vertex -2.963065e+000  4.693034e-001  3.400000e+000
      vertex -3.000000e+000  3.673819e-016  3.400000e+000
    endloop
  endfacet
  facet normal  0.000000e+000  0.000000e+000  1.000000e+000
    outer loop
      vertex -1.650000e+000  2.020601e-016  3.400000e+000
      vertex -3.000000e+000  3.673819e-016  3.400000e+000
      vertex -1.613944e+000 -3.430543e-001  3.400000e+000
    endloop
  endfacet
  facet normal  0.000000e+000  0.000000e+000  9.999999e-001
    outer loop
      vertex -1.613944e+000 -3.430543e-001  3.400000e+000
      vertex -3.000000e+000  3.673819e-016  3.400000e+000
      vertex -2.963065e+000 -4.693034e-001  3.400000e+000
    endloop
  endfacet
  facet normal  -0.000000e+000  0.000000e+000  9.999999e-001
    outer loop
      vertex -1.613944e+000 -3.430543e-001  3.400000e+000
      vertex -2.963065e+000 -4.693034e-001  3.400000e+000
      vertex -1.507350e+000 -6.711155e-001  3.400000e+000
    endloop
  endfacet
  facet normal  0.000000e+000  0.000000e+000  1.000000e+000
    outer loop
      vertex -1.507350e+000 -6.711155e-001  3.400000e+000
      vertex -2.963065e+000 -4.693034e-001  3.400000e+000
      vertex -2.853169e+000 -9.270510e-001  3.400000e+000
    endloop
  endfacet
  facet normal  -0.000000e+000  0.000000e+000  1.000000e+000
    outer loop
      vertex -1.507350e+000 -6.711155e-001  3.400000e+000
      vertex -2.853169e+000 -9.270510e-001  3.400000e+000
      vertex -1.334878e+000 -9.698457e-001  3.400000e+000
    endloop
  endfacet
  facet normal  0.000000e+000  0.000000e+000  1.000000e+000
    outer loop
      vertex -1.334878e+000 -9.698457e-001  3.400000e+000
      vertex -2.853169e+000 -9.270510e-001  3.400000e+000
      vertex -1.104066e+000 -1.226189e+000  3.400000e+000
    endloop
  endfacet
  facet normal  0.000000e+000  0.000000e+000  1.000000e+000
    outer loop
      vertex -1.104066e+000 -1.226189e+000  3.400000e+000
      vertex -2.853169e+000 -9.270510e-001  3.400000e+000
      vertex -2.673020e+000 -1.361971e+000  3.400000e+000
    endloop
  endfacet
  facet normal  -0.000000e+000  0.000000e+000  1.000000e+000
    outer loop
      vertex -1.104066e+000 -1.226189e+000  3.400000e+000
      vertex -2.673020e+000 -1.361971e+000  3.400000e+000
      vertex -8.250000e-001 -1.428942e+000  3.400000e+000
    endloop
  endfacet
  facet normal  0.000000e+000  0.000000e+000  1.000000e+000
    outer loop
      vertex  1.104066e+000  1.226189e+000  3.400000e+000
      vertex  2.853169e+000  9.270510e-001  3.400000e+000
      vertex  8.250000e-001  1.428942e+000  3.400000e+000
    endloop
  endfacet
  facet normal  0.000000e+000  0.000000e+000  1.000000e+000
    outer loop
      vertex  8.250000e-001  1.428942e+000  3.400000e+000
      vertex  2.853169e+000  9.270510e-001  3.400000e+000
      vertex  2.673020e+000  1.361971e+000  3.400000e+000
    endloop
  endfacet
  facet normal  0.000000e+000  0.000000e+000  1.000000e+000
    outer loop
      vertex  8.250000e-001  1.428942e+000  3.400000e+000
      vertex  2.673020e+000  1.361971e+000  3.400000e+000
      vertex  5.098780e-001  1.569243e+000  3.400000e+000
    endloop
  endfacet
  facet normal  0.000000e+000  0.000000e+000  1.000000e+000
    outer loop
      vertex  1.507350e+000  6.711155e-001  3.400000e+000
      vertex  2.963065e+000  4.693034e-001  3.400000e+000
      vertex  1.334878e+000  9.698457e-001  3.400000e+000
    endloop
  endfacet
  facet normal  0.000000e+000  0.000000e+000  1.000000e+000
    outer loop
      vertex  1.334878e+000  9.698457e-001  3.400000e+000
      vertex  2.963065e+000  4.693034e-001  3.400000e+000
      vertex  2.853169e+000  9.270510e-001  3.400000e+000
    endloop
  endfacet
  facet normal  0.000000e+000  0.000000e+000  1.000000e+000
    outer loop
      vertex  1.334878e+000  9.698457e-001  3.400000e+000
      vertex  2.853169e+000  9.270510e-001  3.400000e+000
      vertex  1.104066e+000  1.226189e+000  3.400000e+000
    endloop
  endfacet
  facet normal  -0.000000e+000  0.000000e+000  9.999999e-001
    outer loop
      vertex  2.963065e+000  4.693034e-001  3.400000e+000
      vertex  1.613944e+000  3.430543e-001  3.400000e+000
      vertex  3.000000e+000  0.000000e+000  3.400000e+000
    endloop
  endfacet
  facet normal  0.000000e+000  0.000000e+000  1.000000e+000
    outer loop
      vertex  3.000000e+000  0.000000e+000  3.400000e+000
      vertex  1.613944e+000  3.430543e-001  3.400000e+000
      vertex  1.650000e+000  0.000000e+000  3.400000e+000
    endloop
  endfacet
  facet normal  -0.000000e+000  0.000000e+000  1.000000e+000
    outer loop
      vertex  3.000000e+000  0.000000e+000  3.400000e+000
      vertex  1.650000e+000  0.000000e+000  3.400000e+000
      vertex  2.963065e+000 -4.693034e-001  3.400000e+000
    endloop
  endfacet
  facet normal  0.000000e+000  0.000000e+000  1.000000e+000
    outer loop
      vertex  2.963065e+000 -4.693034e-001  3.400000e+000
      vertex  1.650000e+000  0.000000e+000  3.400000e+000
      vertex  1.613944e+000 -3.430543e-001  3.400000e+000
    endloop
  endfacet
  facet normal  0.000000e+000  0.000000e+000  1.000000e+000
    outer loop
      vertex  2.963065e+000 -4.693034e-001  3.400000e+000
      vertex  1.613944e+000 -3.430543e-001  3.400000e+000
      vertex  2.853169e+000 -9.270510e-001  3.400000e+000
    endloop
  endfacet
  facet normal  0.000000e+000  0.000000e+000  1.000000e+000
    outer loop
      vertex  2.853169e+000 -9.270510e-001  3.400000e+000
      vertex  1.613944e+000 -3.430543e-001  3.400000e+000
      vertex  1.507350e+000 -6.711155e-001  3.400000e+000
    endloop
  endfacet
  facet normal  0.000000e+000  0.000000e+000  1.000000e+000
    outer loop
      vertex  2.853169e+000 -9.270510e-001  3.400000e+000
      vertex  1.507350e+000 -6.711155e-001  3.400000e+000
      vertex  1.334878e+000 -9.698457e-001  3.400000e+000
    endloop
  endfacet
  facet normal  -0.000000e+000  0.000000e+000  1.000000e+000
    outer loop
      vertex  2.853169e+000 -9.270510e-001  3.400000e+000
      vertex  1.334878e+000 -9.698457e-001  3.400000e+000
      vertex  2.673020e+000 -1.361971e+000  3.400000e+000
    endloop
  endfacet
  facet normal  0.000000e+000  0.000000e+000  1.000000e+000
    outer loop
      vertex  2.673020e+000 -1.361971e+000  3.400000e+000
      vertex  1.334878e+000 -9.698457e-001  3.400000e+000
      vertex  1.104066e+000 -1.226189e+000  3.400000e+000
    endloop
  endfacet
  facet normal  0.000000e+000  0.000000e+000  1.000000e+000
    outer loop
      vertex  2.673020e+000 -1.361971e+000  3.400000e+000
      vertex  1.104066e+000 -1.226189e+000  3.400000e+000
      vertex  8.250000e-001 -1.428942e+000  3.400000e+000
    endloop
  endfacet
  facet normal  0.000000e+000  0.000000e+000 -9.999999e-001
    outer loop
      vertex  2.963065e+000  4.693034e-001  0.000000e+000
      vertex  1.613944e+000  3.430543e-001  0.000000e+000
      vertex  1.507350e+000  6.711155e-001  0.000000e+000
    endloop
  endfacet
  facet normal  0.000000e+000  -0.000000e+000 -1.000000e+000
    outer loop
      vertex -2.427051e+000  1.763356e+000  0.000000e+000
      vertex -2.121320e+000  2.121320e+000  0.000000e+000
      vertex -1.763356e+000  2.427051e+000  0.000000e+000
    endloop
  endfacet
  facet normal  0.000000e+000  -0.000000e+000 -1.000000e+000
    outer loop
      vertex -2.427051e+000  1.763356e+000  0.000000e+000
      vertex -1.763356e+000  2.427051e+000  0.000000e+000
      vertex -1.361971e+000  2.673020e+000  0.000000e+000
    endloop
  endfacet
  facet normal  0.000000e+000  -0.000000e+000 -1.000000e+000
    outer loop
      vertex -2.427051e+000  1.763356e+000  0.000000e+000
      vertex -1.361971e+000  2.673020e+000  0.000000e+000
      vertex -9.270510e-001  2.853169e+000  0.000000e+000
    endloop
  endfacet
  facet normal  0.000000e+000  -0.000000e+000 -1.000000e+000
    outer loop
      vertex -2.427051e+000  1.763356e+000  0.000000e+000
      vertex -9.270510e-001  2.853169e+000  0.000000e+000
      vertex -4.693034e-001  2.963065e+000  0.000000e+000
    endloop
  endfacet
  facet normal  0.000000e+000  -0.000000e+000 -9.999999e-001
    outer loop
      vertex  1.724720e-001  1.640961e+000  0.000000e+000
      vertex  4.693034e-001  2.963065e+000  0.000000e+000
      vertex  9.270510e-001  2.853169e+000  0.000000e+000
    endloop
  endfacet
  facet normal  0.000000e+000  -0.000000e+000 -1.000000e+000
    outer loop
      vertex  1.724720e-001  1.640961e+000  0.000000e+000
      vertex  9.270510e-001  2.853169e+000  0.000000e+000
      vertex  1.361971e+000  2.673020e+000  0.000000e+000
    endloop
  endfacet
  facet normal  0.000000e+000  -0.000000e+000 -1.000000e+000
    outer loop
      vertex  1.724720e-001  1.640961e+000  0.000000e+000
      vertex  1.361971e+000  2.673020e+000  0.000000e+000
      vertex  1.763356e+000  2.427051e+000  0.000000e+000
    endloop
  endfacet
  facet normal  0.000000e+000  -0.000000e+000 -1.000000e+000
    outer loop
      vertex  1.724720e-001  1.640961e+000  0.000000e+000
      vertex  1.763356e+000  2.427051e+000  0.000000e+000
      vertex  2.121320e+000  2.121320e+000  0.000000e+000
    endloop
  endfacet
  facet normal  0.000000e+000  -0.000000e+000 -9.999999e-001
    outer loop
      vertex  1.724720e-001  1.640961e+000  0.000000e+000
      vertex  2.121320e+000  2.121320e+000  0.000000e+000
      vertex  2.427051e+000  1.763356e+000  0.000000e+000
    endloop
  endfacet
  facet normal  0.000000e+000  -0.000000e+000 -1.000000e+000
    outer loop
      vertex  1.724720e-001  1.640961e+000  0.000000e+000
      vertex  2.427051e+000  1.763356e+000  0.000000e+000
      vertex  2.673020e+000  1.361971e+000  0.000000e+000
    endloop
  endfacet
  facet normal  0.000000e+000  0.000000e+000 -1.000000e+000
    outer loop
      vertex  1.724720e-001  1.640961e+000  0.000000e+000
      vertex  2.673020e+000  1.361971e+000  0.000000e+000
      vertex  5.098780e-001  1.569243e+000  0.000000e+000
    endloop
  endfacet
  facet normal  0.000000e+000  0.000000e+000 -1.000000e+000
    outer loop
      vertex -5.510729e-016 -3.000000e+000  0.000000e+000
      vertex -4.693034e-001 -2.963065e+000  0.000000e+000
      vertex -9.270510e-001 -2.853169e+000  0.000000e+000
    endloop
  endfacet
  facet normal  0.000000e+000  0.000000e+000 -1.000000e+000
    outer loop
      vertex -5.510729e-016 -3.000000e+000  0.000000e+000
      vertex -9.270510e-001 -2.853169e+000  0.000000e+000
      vertex -1.361971e+000 -2.673020e+000  0.000000e+000
    endloop
  endfacet
  facet normal  0.000000e+000  0.000000e+000 -1.000000e+000
    outer loop
      vertex -5.510729e-016 -3.000000e+000  0.000000e+000
      vertex -1.361971e+000 -2.673020e+000  0.000000e+000
      vertex -1.763356e+000 -2.427051e+000  0.000000e+000
    endloop
  endfacet
  facet normal  0.000000e+000  0.000000e+000 -1.000000e+000
    outer loop
      vertex -5.510729e-016 -3.000000e+000  0.000000e+000
      vertex -1.763356e+000 -2.427051e+000  0.000000e+000
      vertex -2.121320e+000 -2.121320e+000  0.000000e+000
    endloop
  endfacet
  facet normal  0.000000e+000  0.000000e+000 -1.000000e+000
    outer loop
      vertex -5.510729e-016 -3.000000e+000  0.000000e+000
      vertex -2.121320e+000 -2.121320e+000  0.000000e+000
      vertex -2.427051e+000 -1.763356e+000  0.000000e+000
    endloop
  endfacet
  facet normal  0.000000e+000  0.000000e+000 -1.000000e+000
    outer loop
      vertex -5.510729e-016 -3.000000e+000  0.000000e+000
      vertex -2.427051e+000 -1.763356e+000  0.000000e+000
      vertex -1.724720e-001 -1.640961e+000  0.000000e+000
    endloop
  endfacet
  facet normal  0.000000e+000  0.000000e+000 -1.000000e+000
    outer loop
      vertex -5.510729e-016 -3.000000e+000  0.000000e+000
      vertex -1.724720e-001 -1.640961e+000  0.000000e+000
      vertex  1.724720e-001 -1.640961e+000  0.000000e+000
    endloop
  endfacet
  facet normal  0.000000e+000  -0.000000e+000 -1.000000e+000
    outer loop
      vertex -5.510729e-016 -3.000000e+000  0.000000e+000
      vertex  1.724720e-001 -1.640961e+000  0.000000e+000
      vertex  2.427051e+000 -1.763356e+000  0.000000e+000
    endloop
  endfacet
  facet normal  0.000000e+000  0.000000e+000 -1.000000e+000
    outer loop
      vertex -5.510729e-016 -3.000000e+000  0.000000e+000
      vertex  2.427051e+000 -1.763356e+000  0.000000e+000
      vertex  2.121320e+000 -2.121320e+000  0.000000e+000
    endloop
  endfacet
  facet normal  0.000000e+000  0.000000e+000 -1.000000e+000
    outer loop
      vertex -5.510729e-016 -3.000000e+000  0.000000e+000
      vertex  2.121320e+000 -2.121320e+000  0.000000e+000
      vertex  1.763356e+000 -2.427051e+000  0.000000e+000
    endloop
  endfacet
  facet normal  0.000000e+000  0.000000e+000 -1.000000e+000
    outer loop
      vertex -5.510729e-016 -3.000000e+000  0.000000e+000
      vertex  1.763356e+000 -2.427051e+000  0.000000e+000
      vertex  1.361971e+000 -2.673020e+000  0.000000e+000
    endloop
  endfacet
  facet normal  0.000000e+000  0.000000e+000 -1.000000e+000
    outer loop
      vertex -5.510729e-016 -3.000000e+000  0.000000e+000
      vertex  1.361971e+000 -2.673020e+000  0.000000e+000
      vertex  9.270510e-001 -2.853169e+000  0.000000e+000
    endloop
  endfacet
  facet normal  0.000000e+000  0.000000e+000 -1.000000e+000
    outer loop
      vertex -5.510729e-016 -3.000000e+000  0.000000e+000
      vertex  9.270510e-001 -2.853169e+000  0.000000e+000
      vertex  4.693034e-001 -2.963065e+000  0.000000e+000
    endloop
  endfacet
  facet normal  0.000000e+000  0.000000e+000 -1.000000e+000
    outer loop
      vertex -2.427051e+000 -1.763356e+000  0.000000e+000
      vertex -2.673020e+000 -1.361971e+000  0.000000e+000
      vertex -8.250000e-001 -1.428942e+000  0.000000e+000
    endloop
  endfacet
  facet normal  0.000000e+000  -0.000000e+000 -1.000000e+000
    outer loop
      vertex -2.427051e+000 -1.763356e+000  0.000000e+000
      vertex -8.250000e-001 -1.428942e+000  0.000000e+000
      vertex -5.098780e-001 -1.569243e+000  0.000000e+000
    endloop
  endfacet
  facet normal  0.000000e+000  -0.000000e+000 -1.000000e+000
    outer loop
      vertex -2.427051e+000 -1.763356e+000  0.000000e+000
      vertex -5.098780e-001 -1.569243e+000  0.000000e+000
      vertex -1.724720e-001 -1.640961e+000  0.000000e+000
    endloop
  endfacet
  facet normal  0.000000e+000  0.000000e+000 -1.000000e+000
    outer loop
      vertex  2.427051e+000 -1.763356e+000  0.000000e+000
      vertex  1.724720e-001 -1.640961e+000  0.000000e+000
      vertex  5.098780e-001 -1.569243e+000  0.000000e+000
    endloop
  endfacet
  facet normal  0.000000e+000  0.000000e+000 -1.000000e+000
    outer loop
      vertex  2.427051e+000 -1.763356e+000  0.000000e+000
      vertex  5.098780e-001 -1.569243e+000  0.000000e+000
      vertex  8.250000e-001 -1.428942e+000  0.000000e+000
    endloop
  endfacet
  facet normal  0.000000e+000  0.000000e+000 -1.000000e+000
    outer loop
      vertex  2.427051e+000 -1.763356e+000  0.000000e+000
      vertex  8.250000e-001 -1.428942e+000  0.000000e+000
      vertex  2.673020e+000 -1.361971e+000  0.000000e+000
    endloop
  endfacet
  facet normal  0.000000e+000  0.000000e+000 -1.000000e+000
    outer loop
      vertex  1.724720e-001  1.640961e+000  0.000000e+000
      vertex -1.724720e-001  1.640961e+000  0.000000e+000
      vertex  4.693034e-001  2.963065e+000  0.000000e+000
    endloop
  endfacet
  facet normal  -0.000000e+000  0.000000e+000 -1.000000e+000
    outer loop
      vertex  4.693034e-001  2.963065e+000  0.000000e+000
      vertex -1.724720e-001  1.640961e+000  0.000000e+000
      vertex  1.836910e-016  3.000000e+000  0.000000e+000
    endloop
  endfacet
  facet normal  0.000000e+000  0.000000e+000 -1.000000e+000
    outer loop
      vertex -1.724720e-001  1.640961e+000  0.000000e+000
      vertex -2.427051e+000  1.763356e+000  0.000000e+000
      vertex  1.836910e-016  3.000000e+000  0.000000e+000
    endloop
  endfacet
  facet normal  0.000000e+000  0.000000e+000 -1.000000e+000
    outer loop
      vertex  1.836910e-016  3.000000e+000  0.000000e+000
      vertex -2.427051e+000  1.763356e+000  0.000000e+000
      vertex -4.693034e-001  2.963065e+000  0.000000e+000
    endloop
  endfacet
  facet normal  0.000000e+000  0.000000e+000 -1.000000e+000
    outer loop
      vertex -8.250000e-001  1.428942e+000  0.000000e+000
      vertex -2.673020e+000  1.361971e+000  0.000000e+000
      vertex -5.098780e-001  1.569243e+000  0.000000e+000
    endloop
  endfacet
  facet normal  -0.000000e+000  0.000000e+000 -9.999999e-001
    outer loop
      vertex -5.098780e-001  1.569243e+000  0.000000e+000
      vertex -2.673020e+000  1.361971e+000  0.000000e+000
      vertex -2.427051e+000  1.763356e+000  0.000000e+000
    endloop
  endfacet
  facet normal  0.000000e+000  0.000000e+000 -1.000000e+000
    outer loop
      vertex -5.098780e-001  1.569243e+000  0.000000e+000
      vertex -2.427051e+000  1.763356e+000  0.000000e+000
      vertex -1.724720e-001  1.640961e+000  0.000000e+000
    endloop
  endfacet
  facet normal  0.000000e+000  0.000000e+000 -1.000000e+000
    outer loop
      vertex -1.334878e+000  9.698457e-001  0.000000e+000
      vertex -2.853169e+000  9.270510e-001  0.000000e+000
      vertex -1.104066e+000  1.226189e+000  0.000000e+000
    endloop
  endfacet
  facet normal  -0.000000e+000  0.000000e+000 -1.000000e+000
    outer loop
      vertex -1.104066e+000  1.226189e+000  0.000000e+000
      vertex -2.853169e+000  9.270510e-001  0.000000e+000
      vertex -2.673020e+000  1.361971e+000  0.000000e+000
    endloop
  endfacet
  facet normal  0.000000e+000  0.000000e+000 -1.000000e+000
    outer loop
      vertex -1.104066e+000  1.226189e+000  0.000000e+000
      vertex -2.673020e+000  1.361971e+000  0.000000e+000
      vertex -8.250000e-001  1.428942e+000  0.000000e+000
    endloop
  endfacet
  facet normal  0.000000e+000  0.000000e+000 -9.999999e-001
    outer loop
      vertex -1.613944e+000  3.430543e-001  0.000000e+000
      vertex -2.963065e+000  4.693034e-001  0.000000e+000
      vertex -1.507350e+000  6.711155e-001  0.000000e+000
    endloop
  endfacet
  facet normal  -0.000000e+000  0.000000e+000 -1.000000e+000
    outer loop
      vertex -1.507350e+000  6.711155e-001  0.000000e+000
      vertex -2.963065e+000  4.693034e-001  0.000000e+000
      vertex -2.853169e+000  9.270510e-001  0.000000e+000
    endloop
  endfacet
  facet normal  0.000000e+000  0.000000e+000 -1.000000e+000
    outer loop
      vertex -1.507350e+000  6.711155e-001  0.000000e+000
      vertex -2.853169e+000  9.270510e-001  0.000000e+000
      vertex -1.334878e+000  9.698457e-001  0.000000e+000
    endloop
  endfacet
  facet normal  0.000000e+000  0.000000e+000 -1.000000e+000
    outer loop
      vertex -1.334878e+000 -9.698457e-001  0.000000e+000
      vertex -2.853169e+000 -9.270510e-001  0.000000e+000
      vertex -1.507350e+000 -6.711155e-001  0.000000e+000
    endloop
  endfacet
  facet normal  -0.000000e+000  0.000000e+000 -1.000000e+000
    outer loop
      vertex -1.507350e+000 -6.711155e-001  0.000000e+000
      vertex -2.853169e+000 -9.270510e-001  0.000000e+000
      vertex -2.963065e+000 -4.693034e-001  0.000000e+000
    endloop
  endfacet
  facet normal  0.000000e+000  0.000000e+000 -9.999999e-001
    outer loop
      vertex -1.507350e+000 -6.711155e-001  0.000000e+000
      vertex -2.963065e+000 -4.693034e-001  0.000000e+000
      vertex -1.613944e+000 -3.430543e-001  0.000000e+000
    endloop
  endfacet
  facet normal  -0.000000e+000  0.000000e+000 -9.999999e-001
    outer loop
      vertex -1.613944e+000 -3.430543e-001  0.000000e+000
      vertex -2.963065e+000 -4.693034e-001  0.000000e+000
      vertex -3.000000e+000  3.673819e-016  0.000000e+000
    endloop
  endfacet
  facet normal  0.000000e+000  0.000000e+000 -1.000000e+000
    outer loop
      vertex -1.613944e+000 -3.430543e-001  0.000000e+000
      vertex -3.000000e+000  3.673819e-016  0.000000e+000
      vertex -1.650000e+000  2.020601e-016  0.000000e+000
    endloop
  endfacet
  facet normal  0.000000e+000  0.000000e+000 -1.000000e+000
    outer loop
      vertex -1.650000e+000  2.020601e-016  0.000000e+000
      vertex -3.000000e+000  3.673819e-016  0.000000e+000
      vertex -2.963065e+000  4.693034e-001  0.000000e+000
    endloop
  endfacet
  facet normal  0.000000e+000  0.000000e+000 -1.000000e+000
    outer loop
      vertex -1.650000e+000  2.020601e-016  0.000000e+000
      vertex -2.963065e+000  4.693034e-001  0.000000e+000
      vertex -1.613944e+000  3.430543e-001  0.000000e+000
    endloop
  endfacet
  facet normal  0.000000e+000  0.000000e+000 -1.000000e+000
    outer loop
      vertex -8.250000e-001 -1.428942e+000  0.000000e+000
      vertex -2.673020e+000 -1.361971e+000  0.000000e+000
      vertex -1.104066e+000 -1.226189e+000  0.000000e+000
    endloop
  endfacet
  facet normal  -0.000000e+000  0.000000e+000 -1.000000e+000
    outer loop
      vertex -1.104066e+000 -1.226189e+000  0.000000e+000
      vertex -2.673020e+000 -1.361971e+000  0.000000e+000
      vertex -2.853169e+000 -9.270510e-001  0.000000e+000
    endloop
  endfacet
  facet normal  0.000000e+000  0.000000e+000 -1.000000e+000
    outer loop
      vertex -1.104066e+000 -1.226189e+000  0.000000e+000
      vertex -2.853169e+000 -9.270510e-001  0.000000e+000
      vertex -1.334878e+000 -9.698457e-001  0.000000e+000
    endloop
  endfacet
  facet normal  0.000000e+000  0.000000e+000 -1.000000e+000
    outer loop
      vertex  5.098780e-001  1.569243e+000  0.000000e+000
      vertex  2.673020e+000  1.361971e+000  0.000000e+000
      vertex  8.250000e-001  1.428942e+000  0.000000e+000
    endloop
  endfacet
  facet normal  0.000000e+000  0.000000e+000 -1.000000e+000
    outer loop
      vertex  8.250000e-001  1.428942e+000  0.000000e+000
      vertex  2.673020e+000  1.361971e+000  0.000000e+000
      vertex  2.853169e+000  9.270510e-001  0.000000e+000
    endloop
  endfacet
  facet normal  0.000000e+000  0.000000e+000 -1.000000e+000
    outer loop
      vertex  8.250000e-001  1.428942e+000  0.000000e+000
      vertex  2.853169e+000  9.270510e-001  0.000000e+000
      vertex  1.104066e+000  1.226189e+000  0.000000e+000
    endloop
  endfacet
  facet normal  0.000000e+000  0.000000e+000 -1.000000e+000
    outer loop
      vertex  1.104066e+000  1.226189e+000  0.000000e+000
      vertex  2.853169e+000  9.270510e-001  0.000000e+000
      vertex  1.334878e+000  9.698457e-001  0.000000e+000
    endloop
  endfacet
  facet normal  0.000000e+000  0.000000e+000 -1.000000e+000
    outer loop
      vertex  1.334878e+000  9.698457e-001  0.000000e+000
      vertex  2.853169e+000  9.270510e-001  0.000000e+000
      vertex  2.963065e+000  4.693034e-001  0.000000e+000
    endloop
  endfacet
  facet normal  0.000000e+000  0.000000e+000 -1.000000e+000
    outer loop
      vertex  1.334878e+000  9.698457e-001  0.000000e+000
      vertex  2.963065e+000  4.693034e-001  0.000000e+000
      vertex  1.507350e+000  6.711155e-001  0.000000e+000
    endloop
  endfacet
  facet normal  0.000000e+000  -0.000000e+000 -1.000000e+000
    outer loop
      vertex  1.334878e+000 -9.698457e-001  0.000000e+000
      vertex  1.507350e+000 -6.711155e-001  0.000000e+000
      vertex  2.853169e+000 -9.270510e-001  0.000000e+000
    endloop
  endfacet
  facet normal  0.000000e+000  0.000000e+000 -1.000000e+000
    outer loop
      vertex  2.853169e+000 -9.270510e-001  0.000000e+000
      vertex  1.507350e+000 -6.711155e-001  0.000000e+000
      vertex  1.613944e+000 -3.430543e-001  0.000000e+000
    endloop
  endfacet
  facet normal  0.000000e+000  0.000000e+000 -1.000000e+000
    outer loop
      vertex  2.853169e+000 -9.270510e-001  0.000000e+000
      vertex  1.613944e+000 -3.430543e-001  0.000000e+000
      vertex  2.963065e+000 -4.693034e-001  0.000000e+000
    endloop
  endfacet
  facet normal  0.000000e+000  0.000000e+000 -1.000000e+000
    outer loop
      vertex  2.963065e+000 -4.693034e-001  0.000000e+000
      vertex  1.613944e+000 -3.430543e-001  0.000000e+000
      vertex  1.650000e+000  0.000000e+000  0.000000e+000
    endloop
  endfacet
  facet normal  0.000000e+000  0.000000e+000 -1.000000e+000
    outer loop
      vertex  2.963065e+000 -4.693034e-001  0.000000e+000
      vertex  1.650000e+000  0.000000e+000  0.000000e+000
      vertex  3.000000e+000  0.000000e+000  0.000000e+000
    endloop
  endfacet
  facet normal  0.000000e+000  0.000000e+000 -1.000000e+000
    outer loop
      vertex  3.000000e+000  0.000000e+000  0.000000e+000
      vertex  1.650000e+000  0.000000e+000  0.000000e+000
      vertex  1.613944e+000  3.430543e-001  0.000000e+000
    endloop
  endfacet
  facet normal  0.000000e+000  0.000000e+000 -9.999999e-001
    outer loop
      vertex  3.000000e+000  0.000000e+000  0.000000e+000
      vertex  1.613944e+000  3.430543e-001  0.000000e+000
      vertex  2.963065e+000  4.693034e-001  0.000000e+000
    endloop
  endfacet
  facet normal  0.000000e+000  -0.000000e+000 -1.000000e+000
    outer loop
      vertex  8.250000e-001 -1.428942e+000  0.000000e+000
      vertex  1.104066e+000 -1.226189e+000  0.000000e+000
      vertex  2.673020e+000 -1.361971e+000  0.000000e+000
    endloop
  endfacet
  facet normal  0.000000e+000  0.000000e+000 -1.000000e+000
    outer loop
      vertex  2.673020e+000 -1.361971e+000  0.000000e+000
      vertex  1.104066e+000 -1.226189e+000  0.000000e+000
      vertex  1.334878e+000 -9.698457e-001  0.000000e+000
    endloop
  endfacet
  facet normal  0.000000e+000  0.000000e+000 -1.000000e+000
    outer loop
      vertex  2.673020e+000 -1.361971e+000  0.000000e+000
      vertex  1.334878e+000 -9.698457e-001  0.000000e+000
      vertex  2.853169e+000 -9.270510e-001  0.000000e+000
    endloop
  endfacet
  facet normal  2.079120e-001 -9.781475e-001  0.000000e+000
    outer loop
      vertex -1.724720e-001  1.640961e+000  0.000000e+000
      vertex -5.098780e-001  1.569243e+000  3.400000e+000
      vertex -5.098780e-001  1.569243e+000  0.000000e+000
    endloop
  endfacet
  facet normal  4.067364e-001 -9.135455e-001  0.000000e+000
    outer loop
      vertex -5.098780e-001  1.569243e+000  0.000000e+000
      vertex -5.098780e-001  1.569243e+000  3.400000e+000
      vertex -8.250000e-001  1.428942e+000  3.400000e+000
    endloop
  endfacet
  facet normal  4.067364e-001 -9.135455e-001  0.000000e+000
    outer loop
      vertex -5.098780e-001  1.569243e+000  0.000000e+000
      vertex -8.250000e-001  1.428942e+000  3.400000e+000
      vertex -8.250000e-001  1.428942e+000  0.000000e+000
    endloop
  endfacet
  facet normal  5.877852e-001 -8.090171e-001  0.000000e+000
    outer loop
      vertex -8.250000e-001  1.428942e+000  0.000000e+000
      vertex -8.250000e-001  1.428942e+000  3.400000e+000
      vertex -1.104066e+000  1.226189e+000  3.400000e+000
    endloop
  endfacet
  facet normal  5.877852e-001 -8.090171e-001  0.000000e+000
    outer loop
      vertex -8.250000e-001  1.428942e+000  0.000000e+000
      vertex -1.104066e+000  1.226189e+000  3.400000e+000
      vertex -1.104066e+000  1.226189e+000  0.000000e+000
    endloop
  endfacet
  facet normal  7.431449e-001 -6.691305e-001  0.000000e+000
    outer loop
      vertex -1.104066e+000  1.226189e+000  0.000000e+000
      vertex -1.104066e+000  1.226189e+000  3.400000e+000
      vertex -1.334878e+000  9.698457e-001  3.400000e+000
    endloop
  endfacet
  facet normal  7.431449e-001 -6.691305e-001  0.000000e+000
    outer loop
      vertex -1.104066e+000  1.226189e+000  0.000000e+000
      vertex -1.334878e+000  9.698457e-001  3.400000e+000
      vertex -1.334878e+000  9.698457e-001  0.000000e+000
    endloop
  endfacet
  facet normal  8.660254e-001 -4.999998e-001  0.000000e+000
    outer loop
      vertex -1.334878e+000  9.698457e-001  0.000000e+000
      vertex -1.334878e+000  9.698457e-001  3.400000e+000
      vertex -1.507350e+000  6.711155e-001  3.400000e+000
    endloop
  endfacet
  facet normal  8.660254e-001 -4.999998e-001  0.000000e+000
    outer loop
      vertex -1.334878e+000  9.698457e-001  0.000000e+000
      vertex -1.507350e+000  6.711155e-001  3.400000e+000
      vertex -1.507350e+000  6.711155e-001  0.000000e+000
    endloop
  endfacet
  facet normal  9.510565e-001 -3.090172e-001  0.000000e+000
    outer loop
      vertex -1.507350e+000  6.711155e-001  0.000000e+000
      vertex -1.507350e+000  6.711155e-001  3.400000e+000
      vertex -1.613944e+000  3.430543e-001  3.400000e+000
    endloop
  endfacet
  facet normal  9.510565e-001 -3.090172e-001  0.000000e+000
    outer loop
      vertex -1.507350e+000  6.711155e-001  0.000000e+000
      vertex -1.613944e+000  3.430543e-001  3.400000e+000
      vertex -1.613944e+000  3.430543e-001  0.000000e+000
    endloop
  endfacet
  facet normal  9.945219e-001 -1.045283e-001  0.000000e+000
    outer loop
      vertex -1.613944e+000  3.430543e-001  0.000000e+000
      vertex -1.613944e+000  3.430543e-001  3.400000e+000
      vertex -1.650000e+000  2.020601e-016  3.400000e+000
    endloop
  endfacet
  facet normal  9.945219e-001 -1.045283e-001  0.000000e+000
    outer loop
      vertex -1.613944e+000  3.430543e-001  0.000000e+000
      vertex -1.650000e+000  2.020601e-016  3.400000e+000
      vertex -1.650000e+000  2.020601e-016  0.000000e+000
    endloop
  endfacet
  facet normal  2.079120e-001 -9.781475e-001  0.000000e+000
    outer loop
      vertex -5.098780e-001  1.569243e+000  3.400000e+000
      vertex -1.724720e-001  1.640961e+000  0.000000e+000
      vertex -1.724720e-001  1.640961e+000  3.400000e+000
    endloop
  endfacet
  facet normal  0.000000e+000 -1.000000e+000  0.000000e+000
    outer loop
      vertex -1.724720e-001  1.640961e+000  3.400000e+000
      vertex -1.724720e-001  1.640961e+000  0.000000e+000
      vertex  1.724720e-001  1.640961e+000  0.000000e+000
    endloop
  endfacet
  facet normal  0.000000e+000 -1.000000e+000  0.000000e+000
    outer loop
      vertex -1.724720e-001  1.640961e+000  3.400000e+000
      vertex  1.724720e-001  1.640961e+000  0.000000e+000
      vertex  1.724720e-001  1.640961e+000  3.400000e+000
    endloop
  endfacet
  facet normal -2.079120e-001 -9.781475e-001  -0.000000e+000
    outer loop
      vertex  1.724720e-001  1.640961e+000  3.400000e+000
      vertex  1.724720e-001  1.640961e+000  0.000000e+000
      vertex  5.098780e-001  1.569243e+000  0.000000e+000
    endloop
  endfacet
  facet normal -2.079120e-001 -9.781475e-001  0.000000e+000
    outer loop
      vertex  1.724720e-001  1.640961e+000  3.400000e+000
      vertex  5.098780e-001  1.569243e+000  0.000000e+000
      vertex  5.098780e-001  1.569243e+000  3.400000e+000
    endloop
  endfacet
  facet normal -4.067364e-001 -9.135455e-001  -0.000000e+000
    outer loop
      vertex  5.098780e-001  1.569243e+000  3.400000e+000
      vertex  5.098780e-001  1.569243e+000  0.000000e+000
      vertex  8.250000e-001  1.428942e+000  0.000000e+000
    endloop
  endfacet
  facet normal -4.067364e-001 -9.135455e-001  0.000000e+000
    outer loop
      vertex  5.098780e-001  1.569243e+000  3.400000e+000
      vertex  8.250000e-001  1.428942e+000  0.000000e+000
      vertex  8.250000e-001  1.428942e+000  3.400000e+000
    endloop
  endfacet
  facet normal -5.877852e-001 -8.090171e-001  -0.000000e+000
    outer loop
      vertex  8.250000e-001  1.428942e+000  3.400000e+000
      vertex  8.250000e-001  1.428942e+000  0.000000e+000
      vertex  1.104066e+000  1.226189e+000  0.000000e+000
    endloop
  endfacet
  facet normal -5.877852e-001 -8.090171e-001  0.000000e+000
    outer loop
      vertex  8.250000e-001  1.428942e+000  3.400000e+000
      vertex  1.104066e+000  1.226189e+000  0.000000e+000
      vertex  1.104066e+000  1.226189e+000  3.400000e+000
    endloop
  endfacet
  facet normal -7.431449e-001 -6.691305e-001  -0.000000e+000
    outer loop
      vertex  1.104066e+000  1.226189e+000  3.400000e+000
      vertex  1.104066e+000  1.226189e+000  0.000000e+000
      vertex  1.334878e+000  9.698457e-001  0.000000e+000
    endloop
  endfacet
  facet normal -7.431449e-001 -6.691305e-001  0.000000e+000
    outer loop
      vertex  1.104066e+000  1.226189e+000  3.400000e+000
      vertex  1.334878e+000  9.698457e-001  0.000000e+000
      vertex  1.334878e+000  9.698457e-001  3.400000e+000
    endloop
  endfacet
  facet normal -8.660254e-001 -4.999998e-001  -0.000000e+000
    outer loop
      vertex  1.334878e+000  9.698457e-001  3.400000e+000
      vertex  1.334878e+000  9.698457e-001  0.000000e+000
      vertex  1.507350e+000  6.711155e-001  0.000000e+000
    endloop
  endfacet
  facet normal -8.660254e-001 -4.999998e-001  0.000000e+000
    outer loop
      vertex  1.334878e+000  9.698457e-001  3.400000e+000
      vertex  1.507350e+000  6.711155e-001  0.000000e+000
      vertex  1.507350e+000  6.711155e-001  3.400000e+000
    endloop
  endfacet
  facet normal -9.510565e-001 -3.090172e-001  -0.000000e+000
    outer loop
      vertex  1.507350e+000  6.711155e-001  3.400000e+000
      vertex  1.507350e+000  6.711155e-001  0.000000e+000
      vertex  1.613944e+000  3.430543e-001  0.000000e+000
    endloop
  endfacet
  facet normal -9.510565e-001 -3.090172e-001  0.000000e+000
    outer loop
      vertex  1.507350e+000  6.711155e-001  3.400000e+000
      vertex  1.613944e+000  3.430543e-001  0.000000e+000
      vertex  1.613944e+000  3.430543e-001  3.400000e+000
    endloop
  endfacet
  facet normal -9.945219e-001 -1.045283e-001  -0.000000e+000
    outer loop
      vertex  1.613944e+000  3.430543e-001  3.400000e+000
      vertex  1.613944e+000  3.430543e-001  0.000000e+000
      vertex  1.650000e+000  0.000000e+000  0.000000e+000
    endloop
  endfacet
  facet normal -9.945219e-001 -1.045283e-001  0.000000e+000
    outer loop
      vertex  1.613944e+000  3.430543e-001  3.400000e+000
      vertex  1.650000e+000  0.000000e+000  0.000000e+000
      vertex  1.650000e+000  0.000000e+000  3.400000e+000
    endloop
  endfacet
  facet normal -2.079120e-001  9.781475e-001  0.000000e+000
    outer loop
      vertex  1.724720e-001 -1.640961e+000  0.000000e+000
      vertex  5.098780e-001 -1.569243e+000  3.400000e+000
      vertex  5.098780e-001 -1.569243e+000  0.000000e+000
    endloop
  endfacet
  facet normal -4.067364e-001  9.135455e-001  0.000000e+000
    outer loop
      vertex  5.098780e-001 -1.569243e+000  0.000000e+000
      vertex  5.098780e-001 -1.569243e+000  3.400000e+000
      vertex  8.250000e-001 -1.428942e+000  3.400000e+000
    endloop
  endfacet
  facet normal -4.067364e-001  9.135455e-001  0.000000e+000
    outer loop
      vertex  5.098780e-001 -1.569243e+000  0.000000e+000
      vertex  8.250000e-001 -1.428942e+000  3.400000e+000
      vertex  8.250000e-001 -1.428942e+000  0.000000e+000
    endloop
  endfacet
  facet normal -5.877852e-001  8.090171e-001  0.000000e+000
    outer loop
      vertex  8.250000e-001 -1.428942e+000  0.000000e+000
      vertex  8.250000e-001 -1.428942e+000  3.400000e+000
      vertex  1.104066e+000 -1.226189e+000  3.400000e+000
    endloop
  endfacet
  facet normal -5.877852e-001  8.090171e-001  0.000000e+000
    outer loop
      vertex  8.250000e-001 -1.428942e+000  0.000000e+000
      vertex  1.104066e+000 -1.226189e+000  3.400000e+000
      vertex  1.104066e+000 -1.226189e+000  0.000000e+000
    endloop
  endfacet
  facet normal -7.431449e-001  6.691305e-001  0.000000e+000
    outer loop
      vertex  1.104066e+000 -1.226189e+000  0.000000e+000
      vertex  1.104066e+000 -1.226189e+000  3.400000e+000
      vertex  1.334878e+000 -9.698457e-001  3.400000e+000
    endloop
  endfacet
  facet normal -7.431449e-001  6.691305e-001  0.000000e+000
    outer loop
      vertex  1.104066e+000 -1.226189e+000  0.000000e+000
      vertex  1.334878e+000 -9.698457e-001  3.400000e+000
      vertex  1.334878e+000 -9.698457e-001  0.000000e+000
    endloop
  endfacet
  facet normal -8.660254e-001  4.999998e-001  0.000000e+000
    outer loop
      vertex  1.334878e+000 -9.698457e-001  0.000000e+000
      vertex  1.334878e+000 -9.698457e-001  3.400000e+000
      vertex  1.507350e+000 -6.711155e-001  3.400000e+000
    endloop
  endfacet
  facet normal -8.660254e-001  4.999998e-001  0.000000e+000
    outer loop
      vertex  1.334878e+000 -9.698457e-001  0.000000e+000
      vertex  1.507350e+000 -6.711155e-001  3.400000e+000
      vertex  1.507350e+000 -6.711155e-001  0.000000e+000
    endloop
  endfacet
  facet normal -9.510565e-001  3.090172e-001  0.000000e+000
    outer loop
      vertex  1.507350e+000 -6.711155e-001  0.000000e+000
      vertex  1.507350e+000 -6.711155e-001  3.400000e+000
      vertex  1.613944e+000 -3.430543e-001  3.400000e+000
    endloop
  endfacet
  facet normal -9.510565e-001  3.090172e-001  0.000000e+000
    outer loop
      vertex  1.507350e+000 -6.711155e-001  0.000000e+000
      vertex  1.613944e+000 -3.430543e-001  3.400000e+000
      vertex  1.613944e+000 -3.430543e-001  0.000000e+000
    endloop
  endfacet
  facet normal -9.945219e-001  1.045283e-001  0.000000e+000
    outer loop
      vertex  1.613944e+000 -3.430543e-001  0.000000e+000
      vertex  1.613944e+000 -3.430543e-001  3.400000e+000
      vertex  1.650000e+000  0.000000e+000  3.400000e+000
    endloop
  endfacet
  facet normal -9.945219e-001  1.045283e-001  0.000000e+000
    outer loop
      vertex  1.613944e+000 -3.430543e-001  0.000000e+000
      vertex  1.650000e+000  0.000000e+000  3.400000e+000
      vertex  1.650000e+000  0.000000e+000  0.000000e+000
    endloop
  endfacet
  facet normal -2.079120e-001  9.781475e-001  0.000000e+000
    outer loop
      vertex  5.098780e-001 -1.569243e+000  3.400000e+000
      vertex  1.724720e-001 -1.640961e+000  0.000000e+000
      vertex  1.724720e-001 -1.640961e+000  3.400000e+000
    endloop
  endfacet
  facet normal  0.000000e+000  1.000000e+000  0.000000e+000
    outer loop
      vertex  1.724720e-001 -1.640961e+000  3.400000e+000
      vertex  1.724720e-001 -1.640961e+000  0.000000e+000
      vertex -1.724720e-001 -1.640961e+000  0.000000e+000
    endloop
  endfacet
  facet normal  0.000000e+000  1.000000e+000  0.000000e+000
    outer loop
      vertex  1.724720e-001 -1.640961e+000  3.400000e+000
      vertex -1.724720e-001 -1.640961e+000  0.000000e+000
      vertex -1.724720e-001 -1.640961e+000  3.400000e+000
    endloop
  endfacet
  facet normal  2.079120e-001  9.781475e-001  0.000000e+000
    outer loop
      vertex -1.724720e-001 -1.640961e+000  3.400000e+000
      vertex -1.724720e-001 -1.640961e+000  0.000000e+000
      vertex -5.098780e-001 -1.569243e+000  0.000000e+000
    endloop
  endfacet
  facet normal  2.079120e-001  9.781475e-001  -0.000000e+000
    outer loop
      vertex -1.724720e-001 -1.640961e+000  3.400000e+000
      vertex -5.098780e-001 -1.569243e+000  0.000000e+000
      vertex -5.098780e-001 -1.569243e+000  3.400000e+000
    endloop
  endfacet
  facet normal  4.067364e-001  9.135455e-001  0.000000e+000
    outer loop
      vertex -5.098780e-001 -1.569243e+000  3.400000e+000
      vertex -5.098780e-001 -1.569243e+000  0.000000e+000
      vertex -8.250000e-001 -1.428942e+000  0.000000e+000
    endloop
  endfacet
  facet normal  4.067364e-001  9.135455e-001  -0.000000e+000
    outer loop
      vertex -5.098780e-001 -1.569243e+000  3.400000e+000
      vertex -8.250000e-001 -1.428942e+000  0.000000e+000
      vertex -8.250000e-001 -1.428942e+000  3.400000e+000
    endloop
  endfacet
  facet normal  5.877852e-001  8.090171e-001  0.000000e+000
    outer loop
      vertex -8.250000e-001 -1.428942e+000  3.400000e+000
      vertex -8.250000e-001 -1.428942e+000  0.000000e+000
      vertex -1.104066e+000 -1.226189e+000  0.000000e+000
    endloop
  endfacet
  facet normal  5.877852e-001  8.090171e-001  -0.000000e+000
    outer loop
      vertex -8.250000e-001 -1.428942e+000  3.400000e+000
      vertex -1.104066e+000 -1.226189e+000  0.000000e+000
      vertex -1.104066e+000 -1.226189e+000  3.400000e+000
    endloop
  endfacet
  facet normal  7.431449e-001  6.691305e-001  0.000000e+000
    outer loop
      vertex -1.104066e+000 -1.226189e+000  3.400000e+000
      vertex -1.104066e+000 -1.226189e+000  0.000000e+000
      vertex -1.334878e+000 -9.698457e-001  0.000000e+000
    endloop
  endfacet
  facet normal  7.431449e-001  6.691305e-001  -0.000000e+000
    outer loop
      vertex -1.104066e+000 -1.226189e+000  3.400000e+000
      vertex -1.334878e+000 -9.698457e-001  0.000000e+000
      vertex -1.334878e+000 -9.698457e-001  3.400000e+000
    endloop
  endfacet
  facet normal  8.660254e-001  4.999998e-001  0.000000e+000
    outer loop
      vertex -1.334878e+000 -9.698457e-001  3.400000e+000
      vertex -1.334878e+000 -9.698457e-001  0.000000e+000
      vertex -1.507350e+000 -6.711155e-001  0.000000e+000
    endloop
  endfacet
  facet normal  8.660254e-001  4.999998e-001  -0.000000e+000
    outer loop
      vertex -1.334878e+000 -9.698457e-001  3.400000e+000
      vertex -1.507350e+000 -6.711155e-001  0.000000e+000
      vertex -1.507350e+000 -6.711155e-001  3.400000e+000
    endloop
  endfacet
  facet normal  9.510565e-001  3.090172e-001  0.000000e+000
    outer loop
      vertex -1.507350e+000 -6.711155e-001  3.400000e+000
      vertex -1.507350e+000 -6.711155e-001  0.000000e+000
      vertex -1.613944e+000 -3.430543e-001  0.000000e+000
    endloop
  endfacet
  facet normal  9.510565e-001  3.090172e-001  -0.000000e+000
    outer loop
      vertex -1.507350e+000 -6.711155e-001  3.400000e+000
      vertex -1.613944e+000 -3.430543e-001  0.000000e+000
      vertex -1.613944e+000 -3.430543e-001  3.400000e+000
    endloop
  endfacet
  facet normal  9.945219e-001  1.045283e-001  0.000000e+000
    outer loop
      vertex -1.613944e+000 -3.430543e-001  3.400000e+000
      vertex -1.613944e+000 -3.430543e-001  0.000000e+000
      vertex -1.650000e+000  2.020601e-016  0.000000e+000
    endloop
  endfacet
  facet normal  9.945219e-001  1.045283e-001  -0.000000e+000
    outer loop
      vertex -1.613944e+000 -3.430543e-001  3.400000e+000
      vertex -1.650000e+000  2.020601e-016  0.000000e+000
      vertex -1.650000e+000  2.020601e-016  3.400000e+000
    endloop
  endfacet
  facet normal  9.969174e-001 -7.845934e-002  0.000000e+000
    outer loop
      vertex  3.000000e+000  0.000000e+000  0.000000e+000
      vertex  3.000000e+000  0.000000e+000  3.400000e+000
      vertex  2.963065e+000 -4.693034e-001  0.000000e+000
    endloop
  endfacet
  facet normal  9.969174e-001 -7.845934e-002  0.000000e+000
    outer loop
      vertex  2.963065e+000 -4.693034e-001  0.000000e+000
      vertex  3.000000e+000  0.000000e+000  3.400000e+000
      vertex  2.963065e+000 -4.693034e-001  3.400000e+000
    endloop
  endfacet
  facet normal  9.723700e-001 -2.334454e-001  0.000000e+000
    outer loop
      vertex  2.963065e+000 -4.693034e-001  0.000000e+000
      vertex  2.963065e+000 -4.693034e-001  3.400000e+000
      vertex  2.853169e+000 -9.270510e-001  0.000000e+000
    endloop
  endfacet
  facet normal  9.723700e-001 -2.334454e-001  0.000000e+000
    outer loop
      vertex  2.853169e+000 -9.270510e-001  0.000000e+000
      vertex  2.963065e+000 -4.693034e-001  3.400000e+000
      vertex  2.853169e+000 -9.270510e-001  3.400000e+000
    endloop
  endfacet
  facet normal  9.238796e-001 -3.826831e-001  0.000000e+000
    outer loop
      vertex  2.853169e+000 -9.270510e-001  0.000000e+000
      vertex  2.853169e+000 -9.270510e-001  3.400000e+000
      vertex  2.673020e+000 -1.361971e+000  0.000000e+000
    endloop
  endfacet
  facet normal  9.238796e-001 -3.826831e-001  0.000000e+000
    outer loop
      vertex  2.673020e+000 -1.361971e+000  0.000000e+000
      vertex  2.853169e+000 -9.270510e-001  3.400000e+000
      vertex  2.673020e+000 -1.361971e+000  3.400000e+000
    endloop
  endfacet
  facet normal  8.526402e-001 -5.224986e-001  0.000000e+000
    outer loop
      vertex  2.673020e+000 -1.361971e+000  0.000000e+000
      vertex  2.673020e+000 -1.361971e+000  3.400000e+000
      vertex  2.427051e+000 -1.763356e+000  0.000000e+000
    endloop
  endfacet
  facet normal  8.526402e-001 -5.224986e-001  0.000000e+000
    outer loop
      vertex  2.427051e+000 -1.763356e+000  0.000000e+000
      vertex  2.673020e+000 -1.361971e+000  3.400000e+000
      vertex  2.427051e+000 -1.763356e+000  3.400000e+000
    endloop
  endfacet
  facet normal  7.604057e-001 -6.494483e-001  0.000000e+000
    outer loop
      vertex  2.427051e+000 -1.763356e+000  0.000000e+000
      vertex  2.427051e+000 -1.763356e+000  3.400000e+000
      vertex  2.121320e+000 -2.121320e+000  0.000000e+000
    endloop
  endfacet
  facet normal  7.604057e-001 -6.494483e-001  0.000000e+000
    outer loop
      vertex  2.121320e+000 -2.121320e+000  0.000000e+000
      vertex  2.427051e+000 -1.763356e+000  3.400000e+000
      vertex  2.121320e+000 -2.121320e+000  3.400000e+000
    endloop
  endfacet
  facet normal  6.494483e-001 -7.604057e-001  0.000000e+000
    outer loop
      vertex  2.121320e+000 -2.121320e+000  0.000000e+000
      vertex  2.121320e+000 -2.121320e+000  3.400000e+000
      vertex  1.763356e+000 -2.427051e+000  0.000000e+000
    endloop
  endfacet
  facet normal  6.494483e-001 -7.604057e-001  0.000000e+000
    outer loop
      vertex  1.763356e+000 -2.427051e+000  0.000000e+000
      vertex  2.121320e+000 -2.121320e+000  3.400000e+000
      vertex  1.763356e+000 -2.427051e+000  3.400000e+000
    endloop
  endfacet
  facet normal  5.224986e-001 -8.526402e-001  0.000000e+000
    outer loop
      vertex  1.763356e+000 -2.427051e+000  0.000000e+000
      vertex  1.763356e+000 -2.427051e+000  3.400000e+000
      vertex  1.361971e+000 -2.673020e+000  0.000000e+000
    endloop
  endfacet
  facet normal  5.224986e-001 -8.526402e-001  0.000000e+000
    outer loop
      vertex  1.361971e+000 -2.673020e+000  0.000000e+000
      vertex  1.763356e+000 -2.427051e+000  3.400000e+000
      vertex  1.361971e+000 -2.673020e+000  3.400000e+000
    endloop
  endfacet
  facet normal  3.826831e-001 -9.238796e-001  0.000000e+000
    outer loop
      vertex  1.361971e+000 -2.673020e+000  0.000000e+000
      vertex  1.361971e+000 -2.673020e+000  3.400000e+000
      vertex  9.270510e-001 -2.853169e+000  0.000000e+000
    endloop
  endfacet
  facet normal  3.826831e-001 -9.238796e-001  0.000000e+000
    outer loop
      vertex  9.270510e-001 -2.853169e+000  0.000000e+000
      vertex  1.361971e+000 -2.673020e+000  3.400000e+000
      vertex  9.270510e-001 -2.853169e+000  3.400000e+000
    endloop
  endfacet
  facet normal  2.334454e-001 -9.723700e-001  0.000000e+000
    outer loop
      vertex  9.270510e-001 -2.853169e+000  0.000000e+000
      vertex  9.270510e-001 -2.853169e+000  3.400000e+000
      vertex  4.693034e-001 -2.963065e+000  0.000000e+000
    endloop
  endfacet
  facet normal  2.334454e-001 -9.723700e-001  0.000000e+000
    outer loop
      vertex  4.693034e-001 -2.963065e+000  0.000000e+000
      vertex  9.270510e-001 -2.853169e+000  3.400000e+000
      vertex  4.693034e-001 -2.963065e+000  3.400000e+000
    endloop
  endfacet
  facet normal  7.845934e-002 -9.969174e-001  0.000000e+000
    outer loop
      vertex  4.693034e-001 -2.963065e+000  0.000000e+000
      vertex  4.693034e-001 -2.963065e+000  3.400000e+000
      vertex -5.510729e-016 -3.000000e+000  0.000000e+000
    endloop
  endfacet
  facet normal  7.845934e-002 -9.969174e-001  0.000000e+000
    outer loop
      vertex -5.510729e-016 -3.000000e+000  0.000000e+000
      vertex  4.693034e-001 -2.963065e+000  3.400000e+000
      vertex -5.510729e-016 -3.000000e+000  3.400000e+000
    endloop
  endfacet
  facet normal -7.845934e-002 -9.969174e-001  -0.000000e+000
    outer loop
      vertex -5.510729e-016 -3.000000e+000  0.000000e+000
      vertex -5.510729e-016 -3.000000e+000  3.400000e+000
      vertex -4.693034e-001 -2.963065e+000  0.000000e+000
    endloop
  endfacet
  facet normal -7.845934e-002 -9.969174e-001  0.000000e+000
    outer loop
      vertex -4.693034e-001 -2.963065e+000  0.000000e+000
      vertex -5.510729e-016 -3.000000e+000  3.400000e+000
      vertex -4.693034e-001 -2.963065e+000  3.400000e+000
    endloop
  endfacet
  facet normal -2.334454e-001 -9.723700e-001  -0.000000e+000
    outer loop
      vertex -4.693034e-001 -2.963065e+000  0.000000e+000
      vertex -4.693034e-001 -2.963065e+000  3.400000e+000
      vertex -9.270510e-001 -2.853169e+000  0.000000e+000
    endloop
  endfacet
  facet normal -2.334454e-001 -9.723700e-001  0.000000e+000
    outer loop
      vertex -9.270510e-001 -2.853169e+000  0.000000e+000
      vertex -4.693034e-001 -2.963065e+000  3.400000e+000
      vertex -9.270510e-001 -2.853169e+000  3.400000e+000
    endloop
  endfacet
  facet normal -3.826831e-001 -9.238796e-001  -0.000000e+000
    outer loop
      vertex -9.270510e-001 -2.853169e+000  0.000000e+000
      vertex -9.270510e-001 -2.853169e+000  3.400000e+000
      vertex -1.361971e+000 -2.673020e+000  0.000000e+000
    endloop
  endfacet
  facet normal -3.826831e-001 -9.238796e-001  0.000000e+000
    outer loop
      vertex -1.361971e+000 -2.673020e+000  0.000000e+000
      vertex -9.270510e-001 -2.853169e+000  3.400000e+000
      vertex -1.361971e+000 -2.673020e+000  3.400000e+000
    endloop
  endfacet
  facet normal -5.224986e-001 -8.526402e-001  -0.000000e+000
    outer loop
      vertex -1.361971e+000 -2.673020e+000  0.000000e+000
      vertex -1.361971e+000 -2.673020e+000  3.400000e+000
      vertex -1.763356e+000 -2.427051e+000  0.000000e+000
    endloop
  endfacet
  facet normal -5.224986e-001 -8.526402e-001  0.000000e+000
    outer loop
      vertex -1.763356e+000 -2.427051e+000  0.000000e+000
      vertex -1.361971e+000 -2.673020e+000  3.400000e+000
      vertex -1.763356e+000 -2.427051e+000  3.400000e+000
    endloop
  endfacet
  facet normal -6.494483e-001 -7.604057e-001  -0.000000e+000
    outer loop
      vertex -1.763356e+000 -2.427051e+000  0.000000e+000
      vertex -1.763356e+000 -2.427051e+000  3.400000e+000
      vertex -2.121320e+000 -2.121320e+000  0.000000e+000
    endloop
  endfacet
  facet normal -6.494483e-001 -7.604057e-001  0.000000e+000
    outer loop
      vertex -2.121320e+000 -2.121320e+000  0.000000e+000
      vertex -1.763356e+000 -2.427051e+000  3.400000e+000
      vertex -2.121320e+000 -2.121320e+000  3.400000e+000
    endloop
  endfacet
  facet normal -7.604057e-001 -6.494483e-001  -0.000000e+000
    outer loop
      vertex -2.121320e+000 -2.121320e+000  0.000000e+000
      vertex -2.121320e+000 -2.121320e+000  3.400000e+000
      vertex -2.427051e+000 -1.763356e+000  0.000000e+000
    endloop
  endfacet
  facet normal -7.604057e-001 -6.494483e-001  0.000000e+000
    outer loop
      vertex -2.427051e+000 -1.763356e+000  0.000000e+000
      vertex -2.121320e+000 -2.121320e+000  3.400000e+000
      vertex -2.427051e+000 -1.763356e+000  3.400000e+000
    endloop
  endfacet
  facet normal -8.526402e-001 -5.224986e-001  -0.000000e+000
    outer loop
      vertex -2.427051e+000 -1.763356e+000  0.000000e+000
      vertex -2.427051e+000 -1.763356e+000  3.400000e+000
      vertex -2.673020e+000 -1.361971e+000  0.000000e+000
    endloop
  endfacet
  facet normal -8.526402e-001 -5.224986e-001  0.000000e+000
    outer loop
      vertex -2.673020e+000 -1.361971e+000  0.000000e+000
      vertex -2.427051e+000 -1.763356e+000  3.400000e+000
      vertex -2.673020e+000 -1.361971e+000  3.400000e+000
    endloop
  endfacet
  facet normal -9.238796e-001 -3.826831e-001  -0.000000e+000
    outer loop
      vertex -2.673020e+000 -1.361971e+000  0.000000e+000
      vertex -2.673020e+000 -1.361971e+000  3.400000e+000
      vertex -2.853169e+000 -9.270510e-001  0.000000e+000
    endloop
  endfacet
  facet normal -9.238796e-001 -3.826831e-001  0.000000e+000
    outer loop
      vertex -2.853169e+000 -9.270510e-001  0.000000e+000
      vertex -2.673020e+000 -1.361971e+000  3.400000e+000
      vertex -2.853169e+000 -9.270510e-001  3.400000e+000
    endloop
  endfacet
  facet normal -9.723700e-001 -2.334454e-001  -0.000000e+000
    outer loop
      vertex -2.853169e+000 -9.270510e-001  0.000000e+000
      vertex -2.853169e+000 -9.270510e-001  3.400000e+000
      vertex -2.963065e+000 -4.693034e-001  0.000000e+000
    endloop
  endfacet
  facet normal -9.723700e-001 -2.334454e-001  0.000000e+000
    outer loop
      vertex -2.963065e+000 -4.693034e-001  0.000000e+000
      vertex -2.853169e+000 -9.270510e-001  3.400000e+000
      vertex -2.963065e+000 -4.693034e-001  3.400000e+000
    endloop
  endfacet
  facet normal -9.969174e-001 -7.845934e-002  -0.000000e+000
    outer loop
      vertex -2.963065e+000 -4.693034e-001  0.000000e+000
      vertex -2.963065e+000 -4.693034e-001  3.400000e+000
      vertex -3.000000e+000  3.673819e-016  0.000000e+000
    endloop
  endfacet
  facet normal -9.969174e-001 -7.845934e-002  0.000000e+000
    outer loop
      vertex -3.000000e+000  3.673819e-016  0.000000e+000
      vertex -2.963065e+000 -4.693034e-001  3.400000e+000
      vertex -3.000000e+000  3.673819e-016  3.400000e+000
    endloop
  endfacet
  facet normal -9.969174e-001  7.845934e-002  0.000000e+000
    outer loop
      vertex -3.000000e+000  3.673819e-016  0.000000e+000
      vertex -3.000000e+000  3.673819e-016  3.400000e+000
      vertex -2.963065e+000  4.693034e-001  0.000000e+000
    endloop
  endfacet
  facet normal -9.969174e-001  7.845934e-002  0.000000e+000
    outer loop
      vertex -2.963065e+000  4.693034e-001  0.000000e+000
      vertex -3.000000e+000  3.673819e-016  3.400000e+000
      vertex -2.963065e+000  4.693034e-001  3.400000e+000
    endloop
  endfacet
  facet normal -9.723700e-001  2.334454e-001  0.000000e+000
    outer loop
      vertex -2.963065e+000  4.693034e-001  0.000000e+000
      vertex -2.963065e+000  4.693034e-001  3.400000e+000
      vertex -2.853169e+000  9.270510e-001  0.000000e+000
    endloop
  endfacet
  facet normal -9.723700e-001  2.334454e-001  0.000000e+000
    outer loop
      vertex -2.853169e+000  9.270510e-001  0.000000e+000
      vertex -2.963065e+000  4.693034e-001  3.400000e+000
      vertex -2.853169e+000  9.270510e-001  3.400000e+000
    endloop
  endfacet
  facet normal -9.238796e-001  3.826831e-001  0.000000e+000
    outer loop
      vertex -2.853169e+000  9.270510e-001  0.000000e+000
      vertex -2.853169e+000  9.270510e-001  3.400000e+000
      vertex -2.673020e+000  1.361971e+000  0.000000e+000
    endloop
  endfacet
  facet normal -9.238796e-001  3.826831e-001  0.000000e+000
    outer loop
      vertex -2.673020e+000  1.361971e+000  0.000000e+000
      vertex -2.853169e+000  9.270510e-001  3.400000e+000
      vertex -2.673020e+000  1.361971e+000  3.400000e+000
    endloop
  endfacet
  facet normal -8.526402e-001  5.224986e-001  0.000000e+000
    outer loop
      vertex -2.673020e+000  1.361971e+000  0.000000e+000
      vertex -2.673020e+000  1.361971e+000  3.400000e+000
      vertex -2.427051e+000  1.763356e+000  0.000000e+000
    endloop
  endfacet
  facet normal -8.526402e-001  5.224986e-001  0.000000e+000
    outer loop
      vertex -2.427051e+000  1.763356e+000  0.000000e+000
      vertex -2.673020e+000  1.361971e+000  3.400000e+000
      vertex -2.427051e+000  1.763356e+000  3.400000e+000
    endloop
  endfacet
  facet normal -7.604057e-001  6.494483e-001  0.000000e+000
    outer loop
      vertex -2.427051e+000  1.763356e+000  0.000000e+000
      vertex -2.427051e+000  1.763356e+000  3.400000e+000
      vertex -2.121320e+000  2.121320e+000  0.000000e+000
    endloop
  endfacet
  facet normal -7.604057e-001  6.494483e-001  0.000000e+000
    outer loop
      vertex -2.121320e+000  2.121320e+000  0.000000e+000
      vertex -2.427051e+000  1.763356e+000  3.400000e+000
      vertex -2.121320e+000  2.121320e+000  3.400000e+000
    endloop
  endfacet
  facet normal -6.494483e-001  7.604057e-001  0.000000e+000
    outer loop
      vertex -2.121320e+000  2.121320e+000  0.000000e+000
      vertex -2.121320e+000  2.121320e+000  3.400000e+000
      vertex -1.763356e+000  2.427051e+000  0.000000e+000
    endloop
  endfacet
  facet normal -6.494483e-001  7.604057e-001  0.000000e+000
    outer loop
      vertex -1.763356e+000  2.427051e+000  0.000000e+000
      vertex -2.121320e+000  2.121320e+000  3.400000e+000
      vertex -1.763356e+000  2.427051e+000  3.400000e+000
    endloop
  endfacet
  facet normal -5.224986e-001  8.526402e-001  0.000000e+000
    outer loop
      vertex -1.763356e+000  2.427051e+000  0.000000e+000
      vertex -1.763356e+000  2.427051e+000  3.400000e+000
      vertex -1.361971e+000  2.673020e+000  0.000000e+000
    endloop
  endfacet
  facet normal -5.224986e-001  8.526402e-001  0.000000e+000
    outer loop
      vertex -1.361971e+000  2.673020e+000  0.000000e+000
      vertex -1.763356e+000  2.427051e+000  3.400000e+000
      vertex -1.361971e+000  2.673020e+000  3.400000e+000
    endloop
  endfacet
  facet normal -3.826831e-001  9.238796e-001  0.000000e+000
    outer loop
      vertex -1.361971e+000  2.673020e+000  0.000000e+000
      vertex -1.361971e+000  2.673020e+000  3.400000e+000
      vertex -9.270510e-001  2.853169e+000  0.000000e+000
    endloop
  endfacet
  facet normal -3.826831e-001  9.238796e-001  0.000000e+000
    outer loop
      vertex -9.270510e-001  2.853169e+000  0.000000e+000
      vertex -1.361971e+000  2.673020e+000  3.400000e+000
      vertex -9.270510e-001  2.853169e+000  3.400000e+000
    endloop
  endfacet
  facet normal -2.334454e-001  9.723700e-001  0.000000e+000
    outer loop
      vertex -9.270510e-001  2.853169e+000  0.000000e+000
      vertex -9.270510e-001  2.853169e+000  3.400000e+000
      vertex -4.693034e-001  2.963065e+000  0.000000e+000
    endloop
  endfacet
  facet normal -2.334454e-001  9.723700e-001  0.000000e+000
    outer loop
      vertex -4.693034e-001  2.963065e+000  0.000000e+000
      vertex -9.270510e-001  2.853169e+000  3.400000e+000
      vertex -4.693034e-001  2.963065e+000  3.400000e+000
    endloop
  endfacet
  facet normal -7.845934e-002  9.969174e-001  0.000000e+000
    outer loop
      vertex -4.693034e-001  2.963065e+000  0.000000e+000
      vertex -4.693034e-001  2.963065e+000  3.400000e+000
      vertex  1.836910e-016  3.000000e+000  0.000000e+000
    endloop
  endfacet
  facet normal -7.845934e-002  9.969174e-001  0.000000e+000
    outer loop
      vertex  1.836910e-016  3.000000e+000  0.000000e+000
      vertex -4.693034e-001  2.963065e+000  3.400000e+000
      vertex  1.836910e-016  3.000000e+000  3.400000e+000
    endloop
  endfacet
  facet normal  7.845934e-002  9.969174e-001  0.000000e+000
    outer loop
      vertex  1.836910e-016  3.000000e+000  0.000000e+000
      vertex  1.836910e-016  3.000000e+000  3.400000e+000
      vertex  4.693034e-001  2.963065e+000  0.000000e+000
    endloop
  endfacet
  facet normal  7.845934e-002  9.969174e-001  -0.000000e+000
    outer loop
      vertex  4.693034e-001  2.963065e+000  0.000000e+000
      vertex  1.836910e-016  3.000000e+000  3.400000e+000
      vertex  4.693034e-001  2.963065e+000  3.400000e+000
    endloop
  endfacet
  facet normal  2.334454e-001  9.723700e-001  0.000000e+000
    outer loop
      vertex  4.693034e-001  2.963065e+000  0.000000e+000
      vertex  4.693034e-001  2.963065e+000  3.400000e+000
      vertex  9.270510e-001  2.853169e+000  0.000000e+000
    endloop
  endfacet
  facet normal  2.334454e-001  9.723700e-001  -0.000000e+000
    outer loop
      vertex  9.270510e-001  2.853169e+000  0.000000e+000
      vertex  4.693034e-001  2.963065e+000  3.400000e+000
      vertex  9.270510e-001  2.853169e+000  3.400000e+000
    endloop
  endfacet
  facet normal  3.826831e-001  9.238796e-001  0.000000e+000
    outer loop
      vertex  9.270510e-001  2.853169e+000  0.000000e+000
      vertex  9.270510e-001  2.853169e+000  3.400000e+000
      vertex  1.361971e+000  2.673020e+000  0.000000e+000
    endloop
  endfacet
  facet normal  3.826831e-001  9.238796e-001  -0.000000e+000
    outer loop
      vertex  1.361971e+000  2.673020e+000  0.000000e+000
      vertex  9.270510e-001  2.853169e+000  3.400000e+000
      vertex  1.361971e+000  2.673020e+000  3.400000e+000
    endloop
  endfacet
  facet normal  5.224986e-001  8.526402e-001  0.000000e+000
    outer loop
      vertex  1.361971e+000  2.673020e+000  0.000000e+000
      vertex  1.361971e+000  2.673020e+000  3.400000e+000
      vertex  1.763356e+000  2.427051e+000  0.000000e+000
    endloop
  endfacet
  facet normal  5.224986e-001  8.526402e-001  -0.000000e+000
    outer loop
      vertex  1.763356e+000  2.427051e+000  0.000000e+000
      vertex  1.361971e+000  2.673020e+000  3.400000e+000
      vertex  1.763356e+000  2.427051e+000  3.400000e+000
    endloop
  endfacet
  facet normal  6.494483e-001  7.604057e-001  0.000000e+000
    outer loop
      vertex  1.763356e+000  2.427051e+000  0.000000e+000
      vertex  1.763356e+000  2.427051e+000  3.400000e+000
      vertex  2.121320e+000  2.121320e+000  0.000000e+000
    endloop
  endfacet
  facet normal  6.494483e-001  7.604057e-001  -0.000000e+000
    outer loop
      vertex  2.121320e+000  2.121320e+000  0.000000e+000
      vertex  1.763356e+000  2.427051e+000  3.400000e+000
      vertex  2.121320e+000  2.121320e+000  3.400000e+000
    endloop
  endfacet
  facet normal  7.604057e-001  6.494483e-001  0.000000e+000
    outer loop
      vertex  2.121320e+000  2.121320e+000  0.000000e+000
      vertex  2.121320e+000  2.121320e+000  3.400000e+000
      vertex  2.427051e+000  1.763356e+000  0.000000e+000
    endloop
  endfacet
  facet normal  7.604057e-001  6.494483e-001  -0.000000e+000
    outer loop
      vertex  2.427051e+000  1.763356e+000  0.000000e+000
      vertex  2.121320e+000  2.121320e+000  3.400000e+000
      vertex  2.427051e+000  1.763356e+000  3.400000e+000
    endloop
  endfacet
  facet normal  8.526402e-001  5.224986e-001  0.000000e+000
    outer loop
      vertex  2.427051e+000  1.763356e+000  0.000000e+000
      vertex  2.427051e+000  1.763356e+000  3.400000e+000
      vertex  2.673020e+000  1.361971e+000  0.000000e+000
    endloop
  endfacet
  facet normal  8.526402e-001  5.224986e-001  -0.000000e+000
    outer loop
      vertex  2.673020e+000  1.361971e+000  0.000000e+000
      vertex  2.427051e+000  1.763356e+000  3.400000e+000
      vertex  2.673020e+000  1.361971e+000  3.400000e+000
    endloop
  endfacet
  facet normal  9.238796e-001  3.826831e-001  0.000000e+000
    outer loop
      vertex  2.673020e+000  1.361971e+000  0.000000e+000
      vertex  2.673020e+000  1.361971e+000  3.400000e+000
      vertex  2.853169e+000  9.270510e-001  0.000000e+000
    endloop
  endfacet
  facet normal  9.238796e-001  3.826831e-001  -0.000000e+000
    outer loop
      vertex  2.853169e+000  9.270510e-001  0.000000e+000
      vertex  2.673020e+000  1.361971e+000  3.400000e+000
      vertex  2.853169e+000  9.270510e-001  3.400000e+000
    endloop
  endfacet
  facet normal  9.723700e-001  2.334454e-001  0.000000e+000
    outer loop
      vertex  2.853169e+000  9.270510e-001  0.000000e+000
      vertex  2.853169e+000  9.270510e-001  3.400000e+000
      vertex  2.963065e+000  4.693034e-001  0.000000e+000
    endloop
  endfacet
  facet normal  9.723700e-001  2.334454e-001  -0.000000e+000
    outer loop
      vertex  2.963065e+000  4.693034e-001  0.000000e+000
      vertex  2.853169e+000  9.270510e-001  3.400000e+000
      vertex  2.963065e+000  4.693034e-001  3.400000e+000
    endloop
  endfacet
  facet normal  9.969174e-001  7.845934e-002  0.000000e+000
    outer loop
      vertex  2.963065e+000  4.693034e-001  0.000000e+000
      vertex  2.963065e+000  4.693034e-001  3.400000e+000
      vertex  3.000000e+000  0.000000e+000  0.000000e+000
    endloop
  endfacet
  facet normal  9.969174e-001  7.845934e-002  -0.000000e+000
    outer loop
      vertex  3.000000e+000  0.000000e+000  0.000000e+000
      vertex  2.963065e+000  4.693034e-001  3.400000e+000
      vertex  3.000000e+000  0.000000e+000  3.400000e+000
    endloop
  endfacet
endsolid CATIA STL
