G04 Layer_Color=8388736*
%FSLAX25Y25*%
%MOIN*%
G70*
G01*
G75*
%ADD60R,0.05918X0.03556*%
%ADD61R,0.07100X0.07900*%
%ADD62R,0.05524X0.03950*%
%ADD63R,0.03950X0.05524*%
%ADD64O,0.03162X0.09461*%
%ADD65R,0.06312X0.05524*%
G04:AMPARAMS|DCode=66|XSize=70.99mil|YSize=94.22mil|CornerRadius=19.75mil|HoleSize=0mil|Usage=FLASHONLY|Rotation=0.000|XOffset=0mil|YOffset=0mil|HoleType=Round|Shape=RoundedRectangle|*
%AMROUNDEDRECTD66*
21,1,0.07099,0.05472,0,0,0.0*
21,1,0.03150,0.09422,0,0,0.0*
1,1,0.03950,0.01575,-0.02736*
1,1,0.03950,-0.01575,-0.02736*
1,1,0.03950,-0.01575,0.02736*
1,1,0.03950,0.01575,0.02736*
%
%ADD66ROUNDEDRECTD66*%
%ADD67R,0.06312X0.05524*%
G04:AMPARAMS|DCode=68|XSize=29.65mil|YSize=72.96mil|CornerRadius=0mil|HoleSize=0mil|Usage=FLASHONLY|Rotation=135.000|XOffset=0mil|YOffset=0mil|HoleType=Round|Shape=Round|*
%AMOVALD68*
21,1,0.04331,0.02965,0.00000,0.00000,225.0*
1,1,0.02965,0.01531,0.01531*
1,1,0.02965,-0.01531,-0.01531*
%
%ADD68OVALD68*%

G04:AMPARAMS|DCode=69|XSize=29.65mil|YSize=72.96mil|CornerRadius=0mil|HoleSize=0mil|Usage=FLASHONLY|Rotation=45.000|XOffset=0mil|YOffset=0mil|HoleType=Round|Shape=Round|*
%AMOVALD69*
21,1,0.04331,0.02965,0.00000,0.00000,135.0*
1,1,0.02965,0.01531,-0.01531*
1,1,0.02965,-0.01531,0.01531*
%
%ADD69OVALD69*%

%ADD70O,0.09855X0.03162*%
%ADD71R,0.05524X0.06312*%
%ADD72R,0.07099X0.09461*%
%ADD73R,0.06312X0.12611*%
%ADD74R,0.14973X0.09461*%
%ADD75R,0.05600X0.09600*%
%ADD76R,0.09461X0.03162*%
%ADD77R,0.04343X0.04540*%
%ADD78R,0.03300X0.05800*%
%ADD79R,0.15367X0.10642*%
%ADD80R,0.16548X0.05958*%
%ADD81R,0.40170X0.34265*%
%ADD82R,0.05524X0.02965*%
%ADD83C,0.05556*%
%ADD84R,0.05556X0.05556*%
%ADD85C,0.09658*%
%ADD86C,0.06706*%
%ADD87R,0.06706X0.06706*%
%ADD88R,0.06706X0.06706*%
%ADD89C,0.05792*%
%ADD90R,0.05792X0.05792*%
%ADD91R,0.05792X0.05792*%
%ADD92C,0.24422*%
%ADD93C,0.03162*%
%ADD94C,0.03950*%
D60*
X168173Y101000D02*
D03*
Y96000D02*
D03*
Y106000D02*
D03*
Y111000D02*
D03*
X189827Y101000D02*
D03*
Y96000D02*
D03*
Y106000D02*
D03*
Y111000D02*
D03*
D61*
X61450Y137000D02*
D03*
X46550D02*
D03*
X87050Y199500D02*
D03*
X101950D02*
D03*
X217000Y63000D02*
D03*
X202100D02*
D03*
D62*
X68000Y175500D02*
D03*
Y168414D02*
D03*
X131500Y107000D02*
D03*
Y99914D02*
D03*
X58500Y190543D02*
D03*
Y183457D02*
D03*
Y175543D02*
D03*
Y168457D02*
D03*
X22000Y35043D02*
D03*
Y27957D02*
D03*
X48500Y183457D02*
D03*
Y190543D02*
D03*
Y175543D02*
D03*
Y168457D02*
D03*
X223500Y118957D02*
D03*
Y126043D02*
D03*
Y111543D02*
D03*
Y104457D02*
D03*
X215000D02*
D03*
Y111543D02*
D03*
X53000Y253543D02*
D03*
Y246457D02*
D03*
X131500Y61043D02*
D03*
Y53957D02*
D03*
X80000Y178457D02*
D03*
Y185543D02*
D03*
X116500Y61043D02*
D03*
Y53957D02*
D03*
X90000Y178457D02*
D03*
Y185543D02*
D03*
X181500Y160957D02*
D03*
Y168043D02*
D03*
X108500Y67957D02*
D03*
Y75043D02*
D03*
X104000Y11457D02*
D03*
Y18543D02*
D03*
X156500Y107000D02*
D03*
Y99914D02*
D03*
X68000Y190586D02*
D03*
Y183500D02*
D03*
X206000Y104457D02*
D03*
Y111543D02*
D03*
X160000Y215457D02*
D03*
Y222543D02*
D03*
X73000Y131000D02*
D03*
Y138086D02*
D03*
X82000Y131000D02*
D03*
Y138086D02*
D03*
X91000Y130957D02*
D03*
Y138043D02*
D03*
X20000Y123914D02*
D03*
Y131000D02*
D03*
D63*
X63957Y20500D02*
D03*
X71043D02*
D03*
X36957Y52000D02*
D03*
X44043D02*
D03*
X71043Y11500D02*
D03*
X63957D02*
D03*
X210043Y219500D02*
D03*
X202957D02*
D03*
X210043Y211500D02*
D03*
X202957D02*
D03*
Y203500D02*
D03*
X210043D02*
D03*
Y236000D02*
D03*
X202957D02*
D03*
X210043Y228000D02*
D03*
X202957D02*
D03*
X189957Y86000D02*
D03*
X197043D02*
D03*
X209957Y77000D02*
D03*
X217043D02*
D03*
X194043Y24000D02*
D03*
X186957D02*
D03*
X168043Y86000D02*
D03*
X160957D02*
D03*
D64*
X33000Y21051D02*
D03*
X38000D02*
D03*
X43000D02*
D03*
X48000D02*
D03*
X33000Y39949D02*
D03*
X38000D02*
D03*
X43000D02*
D03*
X48000D02*
D03*
D65*
X131500Y26188D02*
D03*
Y38000D02*
D03*
X116500Y26094D02*
D03*
Y37906D02*
D03*
X181500Y151406D02*
D03*
Y139594D02*
D03*
X20000Y114406D02*
D03*
Y102594D02*
D03*
D66*
X39500Y268091D02*
D03*
Y231909D02*
D03*
D67*
X83169Y11850D02*
D03*
Y18150D02*
D03*
X91831Y11850D02*
D03*
Y18150D02*
D03*
D68*
X124513Y152103D02*
D03*
X126740Y149876D02*
D03*
X128967Y147648D02*
D03*
X131194Y145421D02*
D03*
X133421Y143194D02*
D03*
X135648Y140967D02*
D03*
X137875Y138740D02*
D03*
X140103Y136513D02*
D03*
X163487Y159898D02*
D03*
X161260Y162125D02*
D03*
X159033Y164352D02*
D03*
X156806Y166579D02*
D03*
X154579Y168806D02*
D03*
X152352Y171033D02*
D03*
X150124Y173260D02*
D03*
X147897Y175487D02*
D03*
D69*
Y136513D02*
D03*
X150124Y138740D02*
D03*
X152352Y140967D02*
D03*
X154579Y143194D02*
D03*
X156806Y145421D02*
D03*
X159033Y147648D02*
D03*
X161260Y149876D02*
D03*
X163487Y152103D02*
D03*
X140103Y175487D02*
D03*
X137875Y173260D02*
D03*
X135648Y171033D02*
D03*
X133421Y168806D02*
D03*
X131194Y166579D02*
D03*
X128967Y164352D02*
D03*
X126740Y162125D02*
D03*
X124513Y159898D02*
D03*
D70*
X60587Y74000D02*
D03*
Y69000D02*
D03*
Y64000D02*
D03*
Y59000D02*
D03*
Y54000D02*
D03*
Y49000D02*
D03*
Y44000D02*
D03*
Y39000D02*
D03*
Y34000D02*
D03*
X96413Y74000D02*
D03*
Y69000D02*
D03*
Y64000D02*
D03*
Y59000D02*
D03*
Y54000D02*
D03*
Y49000D02*
D03*
Y44000D02*
D03*
Y39000D02*
D03*
Y34000D02*
D03*
D71*
X140850Y108831D02*
D03*
X147150D02*
D03*
X140850Y100169D02*
D03*
X147150D02*
D03*
D72*
X160500Y32402D02*
D03*
Y57598D02*
D03*
D73*
X51500Y113449D02*
D03*
Y94551D02*
D03*
X111500Y113898D02*
D03*
Y95000D02*
D03*
X139500Y201051D02*
D03*
Y219949D02*
D03*
D74*
X81500Y115701D02*
D03*
D75*
X90600Y91300D02*
D03*
X81500D02*
D03*
X72400D02*
D03*
D76*
X193236Y211500D02*
D03*
X172764D02*
D03*
X193236Y206500D02*
D03*
Y216500D02*
D03*
Y221500D02*
D03*
X172764Y206500D02*
D03*
Y216500D02*
D03*
Y221500D02*
D03*
D77*
X189201Y196000D02*
D03*
X176799D02*
D03*
D78*
X242000Y81500D02*
D03*
X238797D02*
D03*
Y96000D02*
D03*
X242000D02*
D03*
D79*
X83500Y264244D02*
D03*
Y219756D02*
D03*
D80*
X175500Y265500D02*
D03*
Y258807D02*
D03*
Y252114D02*
D03*
Y245421D02*
D03*
Y238728D02*
D03*
D81*
X136130Y252114D02*
D03*
D82*
X169618Y70260D02*
D03*
Y74000D02*
D03*
Y77740D02*
D03*
X159382D02*
D03*
Y70260D02*
D03*
Y74000D02*
D03*
D83*
X214500Y14563D02*
D03*
D84*
Y22437D02*
D03*
D85*
X212500Y253000D02*
D03*
X197500D02*
D03*
D86*
X25000Y81000D02*
D03*
X240000Y116000D02*
D03*
Y126000D02*
D03*
Y136000D02*
D03*
Y146000D02*
D03*
Y156000D02*
D03*
X25000Y191500D02*
D03*
X15000Y181500D02*
D03*
X25000D02*
D03*
X15000Y171500D02*
D03*
X25000D02*
D03*
X15000Y161500D02*
D03*
X25000D02*
D03*
X241000Y189500D02*
D03*
D87*
X15000Y81000D02*
D03*
D88*
X240000Y166000D02*
D03*
X15000Y191500D02*
D03*
X241000Y199500D02*
D03*
D89*
X209000Y168000D02*
D03*
Y158000D02*
D03*
X203500Y43000D02*
D03*
X193500D02*
D03*
D90*
X209000Y148000D02*
D03*
D91*
X213500Y43000D02*
D03*
D92*
X15748Y55118D02*
D03*
Y224409D02*
D03*
X236221D02*
D03*
Y55118D02*
D03*
D93*
X107500Y184000D02*
D03*
X39500Y191000D02*
D03*
X140500Y123000D02*
D03*
X150000Y86000D02*
D03*
X138000Y76500D02*
D03*
X58500Y148500D02*
D03*
X102500Y152000D02*
D03*
X135500Y159500D02*
D03*
X142500Y158000D02*
D03*
X141000Y147000D02*
D03*
X146000Y151000D02*
D03*
X132500Y155500D02*
D03*
X152000Y158500D02*
D03*
X144000Y181000D02*
D03*
X145000Y192000D02*
D03*
X124000Y174000D02*
D03*
X109500Y160500D02*
D03*
X156500Y135500D02*
D03*
X161000Y94500D02*
D03*
X87500Y49500D02*
D03*
X154000Y118000D02*
D03*
X158500Y120000D02*
D03*
X159500Y124500D02*
D03*
X74000Y175500D02*
D03*
X11500Y144000D02*
D03*
X94500Y206500D02*
D03*
X90000Y148500D02*
D03*
X162800Y265500D02*
D03*
X116720Y159898D02*
D03*
X165849Y131287D02*
D03*
X128500Y130300D02*
D03*
X161000Y114200D02*
D03*
X128480Y112080D02*
D03*
X64100Y212900D02*
D03*
X220000Y152807D02*
D03*
X171000Y131700D02*
D03*
X39206Y102594D02*
D03*
X153400Y221200D02*
D03*
X19500Y176000D02*
D03*
X53500Y187000D02*
D03*
X41500Y182500D02*
D03*
X63500Y187000D02*
D03*
X118000Y104500D02*
D03*
X123000Y97500D02*
D03*
X121000Y101000D02*
D03*
D94*
X184000Y229500D02*
D03*
X72700Y235900D02*
D03*
M02*
