M48
;Layer_Color=9474304
;FILE_FORMAT=2:5
INCH,LZ
;TYPE=PLATED
T1F00S00C0.01181
T2F00S00C0.01968
T3F00S00C0.02756
T4F00S00C0.02992
T5F00S00C0.03543
T6F00S00C0.05512
T7F00S00C0.12992
%
T01
X00875Y00495
X022Y0152807
X0171Y01317
X0165849Y0131287
X01595Y01245
X01585Y012
X0154Y0118
X0161Y01142
Y00945
X015Y0086
X0138Y00765
X0123Y00975
X0121Y0101
X0118Y01045
X012848Y011208
X01285Y01303
X01405Y0123
X0141Y0147
X0146Y0151
X01425Y0158
X01355Y01595
X01325Y01555
X011672Y0159898
X01095Y01605
X01025Y0152
X009Y01485
X00585
X0074Y01755
X00635Y0187
X00535
X01075Y0184
X0124Y0174
X0144Y0181
X0145Y0192
X0152Y01585
X01565Y01355
X00945Y02065
X00395Y0191
X00415Y01825
X00195Y0176
X00115Y0144
X0039206Y0102594
X00641Y02129
X01534Y02212
X01628Y02655
T02
X00727Y02359
X0184Y02295
T03
X02145Y0014563
Y0022437
T04
X01935Y0043
X02035
X02135
X0209Y0148
Y0158
Y0168
T05
X024Y0116
Y0126
Y0136
Y0146
Y0156
Y0166
X0241Y01895
Y01995
X0025Y01915
X0015
Y01815
X0025
Y01715
X0015
Y01615
X0025
Y0081
X0015
T06
X01975Y0253
X02125
T07
X0015748Y0055118
X0236221
X0015748Y0224409
X0236221
M30
