G04 Layer_Color=0*
%FSLAX25Y25*%
%MOIN*%
G70*
G01*
G75*
%ADD53C,0.00400*%
%ADD56C,0.00500*%
%ADD95C,0.00197*%
%ADD96R,0.02756X0.02362*%
G36*
X52500Y103000D02*
X51500D01*
Y104000D01*
X52500D01*
Y103000D01*
D02*
G37*
G36*
X112500Y103449D02*
X111500D01*
Y104449D01*
X112500D01*
Y103449D01*
D02*
G37*
G36*
X139500Y210500D02*
X138500D01*
Y211500D01*
X139500D01*
Y210500D01*
D02*
G37*
D53*
X63705Y104000D02*
G03*
X63705Y104000I-12205J0D01*
G01*
X123705Y104449D02*
G03*
X123705Y104449I-12205J0D01*
G01*
X151705Y210500D02*
G03*
X151705Y210500I-12205J0D01*
G01*
X42839Y112268D02*
X60358D01*
X38705Y116795D02*
X64295D01*
X38705Y97898D02*
Y116795D01*
Y97898D02*
X45398Y91205D01*
X57602D01*
X64295Y97898D01*
Y116795D01*
X102839Y112717D02*
X120358D01*
X98705Y117244D02*
X124295D01*
X98705Y98347D02*
Y117244D01*
Y98347D02*
X105398Y91654D01*
X117602D01*
X124295Y98347D01*
Y117244D01*
X130642Y202232D02*
X148161D01*
X126705Y197705D02*
X152295D01*
Y216602D01*
X145602Y223295D02*
X152295Y216602D01*
X133398Y223295D02*
X145602D01*
X126705Y216602D02*
X133398Y223295D01*
X126705Y197705D02*
Y216602D01*
D56*
X177685Y192949D02*
X188315D01*
X177685D02*
Y199051D01*
X188315D01*
Y192949D02*
Y199051D01*
D95*
X188909Y5902D02*
Y31098D01*
X220799D01*
Y5902D02*
Y31098D01*
X188909Y5902D02*
X220799D01*
X198488Y138256D02*
X219472D01*
Y177744D01*
X198488D02*
X219472D01*
X198488Y138256D02*
Y177744D01*
X183756Y32488D02*
X223244D01*
X183756D02*
Y53472D01*
X223244D01*
Y32488D02*
Y53472D01*
D96*
X51500Y90811D02*
D03*
Y117189D02*
D03*
X111500Y91260D02*
D03*
Y117638D02*
D03*
X139500Y223689D02*
D03*
Y197311D02*
D03*
M02*
