G04 Layer_Color=32768*
%FSLAX25Y25*%
%MOIN*%
G70*
G01*
G75*
%ADD50C,0.00787*%
%ADD51C,0.00394*%
%ADD95C,0.00197*%
D50*
X186000Y245500D02*
Y286000D01*
X224000D01*
X186000Y245500D02*
X224000D01*
Y286000D01*
X205000Y263500D02*
Y268500D01*
X202500Y266000D02*
X207500D01*
X25500Y225500D02*
Y274500D01*
X53500D01*
Y225500D02*
Y274500D01*
X25500Y225500D02*
X53500D01*
X39500Y247500D02*
Y252500D01*
X37000Y250000D02*
X42000D01*
D51*
X38532Y30500D02*
X42469D01*
X40500Y28532D02*
Y32469D01*
X29673Y15736D02*
Y45264D01*
X51327Y15736D02*
Y45264D01*
X29673Y15736D02*
X51327D01*
X29673Y45264D02*
X51327D01*
X85531Y15000D02*
X89468D01*
X87500Y13032D02*
Y16969D01*
X114769Y156000D02*
X144000Y126769D01*
X144000Y185231D02*
X173231Y156000D01*
X114769Y156000D02*
X144000Y185231D01*
X144000Y126769D02*
X173231Y156000D01*
X142608Y154608D02*
X145392Y157392D01*
X142608D02*
X145392Y154608D01*
X55075Y29591D02*
Y78409D01*
X101925Y29591D02*
Y78409D01*
X55075D02*
X101925D01*
X55075Y29591D02*
X101925D01*
X76532Y54000D02*
X80469D01*
X78500Y52032D02*
Y55969D01*
X144000Y102532D02*
Y106469D01*
X142032Y104500D02*
X145969D01*
D95*
X78051Y7520D02*
Y22480D01*
X96949Y7520D02*
Y22480D01*
X78051D02*
X96949D01*
X78051Y7520D02*
X96949D01*
X136520Y113949D02*
X151480D01*
X136520Y95051D02*
X151480D01*
Y113949D01*
X136520Y95051D02*
Y113949D01*
M02*
