G04 Layer_Color=8421504*
%FSLAX25Y25*%
%MOIN*%
G70*
G01*
G75*
%ADD10R,0.05118X0.02756*%
%ADD11R,0.06300X0.07100*%
%ADD12R,0.04724X0.03150*%
%ADD13R,0.03150X0.04724*%
%ADD14O,0.02362X0.08661*%
%ADD15R,0.05512X0.04724*%
G04:AMPARAMS|DCode=16|XSize=62.99mil|YSize=86.22mil|CornerRadius=15.75mil|HoleSize=0mil|Usage=FLASHONLY|Rotation=0.000|XOffset=0mil|YOffset=0mil|HoleType=Round|Shape=RoundedRectangle|*
%AMROUNDEDRECTD16*
21,1,0.06299,0.05472,0,0,0.0*
21,1,0.03150,0.08622,0,0,0.0*
1,1,0.03150,0.01575,-0.02736*
1,1,0.03150,-0.01575,-0.02736*
1,1,0.03150,-0.01575,0.02736*
1,1,0.03150,0.01575,0.02736*
%
%ADD16ROUNDEDRECTD16*%
%ADD17R,0.05512X0.04724*%
G04:AMPARAMS|DCode=18|XSize=21.65mil|YSize=64.96mil|CornerRadius=0mil|HoleSize=0mil|Usage=FLASHONLY|Rotation=135.000|XOffset=0mil|YOffset=0mil|HoleType=Round|Shape=Round|*
%AMOVALD18*
21,1,0.04331,0.02165,0.00000,0.00000,225.0*
1,1,0.02165,0.01531,0.01531*
1,1,0.02165,-0.01531,-0.01531*
%
%ADD18OVALD18*%

G04:AMPARAMS|DCode=19|XSize=21.65mil|YSize=64.96mil|CornerRadius=0mil|HoleSize=0mil|Usage=FLASHONLY|Rotation=45.000|XOffset=0mil|YOffset=0mil|HoleType=Round|Shape=Round|*
%AMOVALD19*
21,1,0.04331,0.02165,0.00000,0.00000,135.0*
1,1,0.02165,0.01531,-0.01531*
1,1,0.02165,-0.01531,0.01531*
%
%ADD19OVALD19*%

%ADD20O,0.09055X0.02362*%
%ADD21R,0.04724X0.05512*%
%ADD22R,0.06299X0.08661*%
%ADD23R,0.05512X0.11811*%
%ADD24R,0.14173X0.08661*%
%ADD25R,0.04800X0.08800*%
%ADD26R,0.08661X0.02362*%
%ADD27R,0.03543X0.03740*%
%ADD28R,0.02500X0.05000*%
%ADD29R,0.14567X0.09842*%
%ADD30R,0.15748X0.05158*%
%ADD31R,0.39370X0.33465*%
%ADD32R,0.04724X0.02165*%
%ADD59R,0.09600X0.08000*%
D10*
X168173Y101000D02*
D03*
Y96000D02*
D03*
Y106000D02*
D03*
Y111000D02*
D03*
X189827Y101000D02*
D03*
Y96000D02*
D03*
Y106000D02*
D03*
Y111000D02*
D03*
D11*
X61450Y137000D02*
D03*
X46550D02*
D03*
X87050Y199500D02*
D03*
X101950D02*
D03*
X217000Y63000D02*
D03*
X202100D02*
D03*
D12*
X68000Y175500D02*
D03*
Y168414D02*
D03*
X131500Y107000D02*
D03*
Y99914D02*
D03*
X58500Y190543D02*
D03*
Y183457D02*
D03*
Y175543D02*
D03*
Y168457D02*
D03*
X22000Y35043D02*
D03*
Y27957D02*
D03*
X48500Y183457D02*
D03*
Y190543D02*
D03*
Y175543D02*
D03*
Y168457D02*
D03*
X223500Y118957D02*
D03*
Y126043D02*
D03*
Y111543D02*
D03*
Y104457D02*
D03*
X215000D02*
D03*
Y111543D02*
D03*
X53000Y253543D02*
D03*
Y246457D02*
D03*
X131500Y61043D02*
D03*
Y53957D02*
D03*
X80000Y178457D02*
D03*
Y185543D02*
D03*
X116500Y61043D02*
D03*
Y53957D02*
D03*
X90000Y178457D02*
D03*
Y185543D02*
D03*
X181500Y160957D02*
D03*
Y168043D02*
D03*
X108500Y67957D02*
D03*
Y75043D02*
D03*
X104000Y11457D02*
D03*
Y18543D02*
D03*
X156500Y107000D02*
D03*
Y99914D02*
D03*
X68000Y190586D02*
D03*
Y183500D02*
D03*
X206000Y104457D02*
D03*
Y111543D02*
D03*
X160000Y215457D02*
D03*
Y222543D02*
D03*
X73000Y131000D02*
D03*
Y138086D02*
D03*
X82000Y131000D02*
D03*
Y138086D02*
D03*
X91000Y130957D02*
D03*
Y138043D02*
D03*
X20000Y123914D02*
D03*
Y131000D02*
D03*
D13*
X63957Y20500D02*
D03*
X71043D02*
D03*
X36957Y52000D02*
D03*
X44043D02*
D03*
X71043Y11500D02*
D03*
X63957D02*
D03*
X210043Y219500D02*
D03*
X202957D02*
D03*
X210043Y211500D02*
D03*
X202957D02*
D03*
Y203500D02*
D03*
X210043D02*
D03*
Y236000D02*
D03*
X202957D02*
D03*
X210043Y228000D02*
D03*
X202957D02*
D03*
X189957Y86000D02*
D03*
X197043D02*
D03*
X209957Y77000D02*
D03*
X217043D02*
D03*
X194043Y24000D02*
D03*
X186957D02*
D03*
X168043Y86000D02*
D03*
X160957D02*
D03*
D14*
X33000Y21051D02*
D03*
X38000D02*
D03*
X43000D02*
D03*
X48000D02*
D03*
X33000Y39949D02*
D03*
X38000D02*
D03*
X43000D02*
D03*
X48000D02*
D03*
D15*
X131500Y26188D02*
D03*
Y38000D02*
D03*
X116500Y26094D02*
D03*
Y37906D02*
D03*
X181500Y151406D02*
D03*
Y139594D02*
D03*
X20000Y114406D02*
D03*
Y102594D02*
D03*
D16*
X39500Y268091D02*
D03*
Y231909D02*
D03*
D17*
X83169Y11850D02*
D03*
Y18150D02*
D03*
X91831Y11850D02*
D03*
Y18150D02*
D03*
D18*
X124513Y152103D02*
D03*
X126740Y149876D02*
D03*
X128967Y147648D02*
D03*
X131194Y145421D02*
D03*
X133421Y143194D02*
D03*
X135648Y140967D02*
D03*
X137875Y138740D02*
D03*
X140103Y136513D02*
D03*
X163487Y159898D02*
D03*
X161260Y162125D02*
D03*
X159033Y164352D02*
D03*
X156806Y166579D02*
D03*
X154579Y168806D02*
D03*
X152352Y171033D02*
D03*
X150124Y173260D02*
D03*
X147897Y175487D02*
D03*
D19*
Y136513D02*
D03*
X150124Y138740D02*
D03*
X152352Y140967D02*
D03*
X154579Y143194D02*
D03*
X156806Y145421D02*
D03*
X159033Y147648D02*
D03*
X161260Y149876D02*
D03*
X163487Y152103D02*
D03*
X140103Y175487D02*
D03*
X137875Y173260D02*
D03*
X135648Y171033D02*
D03*
X133421Y168806D02*
D03*
X131194Y166579D02*
D03*
X128967Y164352D02*
D03*
X126740Y162125D02*
D03*
X124513Y159898D02*
D03*
D20*
X60587Y74000D02*
D03*
Y69000D02*
D03*
Y64000D02*
D03*
Y59000D02*
D03*
Y54000D02*
D03*
Y49000D02*
D03*
Y44000D02*
D03*
Y39000D02*
D03*
Y34000D02*
D03*
X96413Y74000D02*
D03*
Y69000D02*
D03*
Y64000D02*
D03*
Y59000D02*
D03*
Y54000D02*
D03*
Y49000D02*
D03*
Y44000D02*
D03*
Y39000D02*
D03*
Y34000D02*
D03*
D21*
X140850Y108831D02*
D03*
X147150D02*
D03*
X140850Y100169D02*
D03*
X147150D02*
D03*
D22*
X160500Y32402D02*
D03*
Y57598D02*
D03*
D23*
X51500Y113449D02*
D03*
Y94551D02*
D03*
X111500Y113898D02*
D03*
Y95000D02*
D03*
X139500Y201051D02*
D03*
Y219949D02*
D03*
D24*
X81500Y115701D02*
D03*
D25*
X90600Y91300D02*
D03*
X81500D02*
D03*
X72400D02*
D03*
D26*
X193236Y211500D02*
D03*
X172764D02*
D03*
X193236Y206500D02*
D03*
Y216500D02*
D03*
Y221500D02*
D03*
X172764Y206500D02*
D03*
Y216500D02*
D03*
Y221500D02*
D03*
D27*
X189201Y196000D02*
D03*
X176799D02*
D03*
D28*
X242000Y81500D02*
D03*
X238797D02*
D03*
Y96000D02*
D03*
X242000D02*
D03*
D29*
X83500Y264244D02*
D03*
Y219756D02*
D03*
D30*
X175500Y265500D02*
D03*
Y258807D02*
D03*
Y252114D02*
D03*
Y245421D02*
D03*
Y238728D02*
D03*
D31*
X136130Y252114D02*
D03*
D32*
X169618Y70260D02*
D03*
Y74000D02*
D03*
Y77740D02*
D03*
X159382D02*
D03*
Y70260D02*
D03*
Y74000D02*
D03*
D59*
X240375Y81500D02*
D03*
X240422Y96000D02*
D03*
M02*
