G04 Layer_Color=32896*
%FSLAX25Y25*%
%MOIN*%
G70*
G01*
G75*
%ADD50C,0.00787*%
%ADD55C,0.01575*%
%ADD56C,0.00500*%
%ADD57C,0.00600*%
G36*
X161153Y72819D02*
X158595D01*
Y74787D01*
X161153D01*
Y72819D01*
D02*
G37*
G36*
X170405Y69276D02*
X167847D01*
Y71244D01*
X170405D01*
Y69276D01*
D02*
G37*
G36*
X161153D02*
X158595D01*
Y71244D01*
X161153D01*
Y69276D01*
D02*
G37*
G36*
X170405Y76756D02*
X167847D01*
Y78724D01*
X170405D01*
Y76756D01*
D02*
G37*
G36*
X161153D02*
X158595D01*
Y78724D01*
X161153D01*
Y76756D01*
D02*
G37*
G36*
X170405Y73016D02*
X167847D01*
Y74984D01*
X170405D01*
Y73016D01*
D02*
G37*
D50*
X222374Y22437D02*
G03*
X222374Y22437I-394J0D01*
G01*
D02*
G03*
X222374Y22437I-394J0D01*
G01*
D55*
X214394Y148000D02*
G03*
X214394Y148000I-394J0D01*
G01*
D02*
G03*
X214394Y148000I-394J0D01*
G01*
X213894Y48000D02*
G03*
X213894Y48000I-394J0D01*
G01*
D02*
G03*
X213894Y48000I-394J0D01*
G01*
D56*
X189894Y6886D02*
Y30114D01*
X219815D01*
Y6886D02*
Y30114D01*
X189894Y6886D02*
X219815D01*
X189894D02*
Y30114D01*
X219815D01*
Y6886D02*
Y30114D01*
X189894Y6886D02*
X219815D01*
X218488Y139240D02*
Y176760D01*
X199472D02*
X218488D01*
X199472Y139240D02*
Y176760D01*
Y139240D02*
X218488D01*
Y176760D01*
X199472D02*
X218488D01*
X199472Y139240D02*
Y176760D01*
Y139240D02*
X218488D01*
X222260Y33472D02*
Y52488D01*
X184740Y33472D02*
X222260D01*
X184740D02*
Y52488D01*
X222260D01*
Y33472D02*
Y52488D01*
X184740Y33472D02*
X222260D01*
X184740D02*
Y52488D01*
X222260D01*
D57*
X167689Y68402D02*
Y79598D01*
X161311Y68402D02*
Y79598D01*
X167689Y68402D02*
Y79598D01*
X161311Y68402D02*
Y79598D01*
M02*
