solid CATIA STL
  facet normal  -0.000000e+000  0.000000e+000  1.000000e+000
    outer loop
      vertex -8.750000e-001  1.515544e+000  3.200000e+000
      vertex -2.673020e+000  1.361971e+000  3.200000e+000
      vertex -1.170979e+000  1.300503e+000  3.200000e+000
    endloop
  endfacet
  facet normal  0.000000e+000  0.000000e+000  1.000000e+000
    outer loop
      vertex  2.673020e+000  1.361971e+000  3.200000e+000
      vertex  5.407798e-001  1.664349e+000  3.200000e+000
      vertex  8.750000e-001  1.515544e+000  3.200000e+000
    endloop
  endfacet
  facet normal  0.000000e+000  -0.000000e+000  1.000000e+000
    outer loop
      vertex  8.750000e-001  1.515544e+000  3.200000e+000
      vertex  1.170979e+000  1.300503e+000  3.200000e+000
      vertex  2.673020e+000  1.361971e+000  3.200000e+000
    endloop
  endfacet
  facet normal  0.000000e+000  0.000000e+000  1.000000e+000
    outer loop
      vertex -2.427051e+000  1.763356e+000  3.200000e+000
      vertex -4.693034e-001  2.963065e+000  3.200000e+000
      vertex -9.270510e-001  2.853169e+000  3.200000e+000
    endloop
  endfacet
  facet normal  0.000000e+000  0.000000e+000  1.000000e+000
    outer loop
      vertex -2.427051e+000  1.763356e+000  3.200000e+000
      vertex -9.270510e-001  2.853169e+000  3.200000e+000
      vertex -1.361971e+000  2.673020e+000  3.200000e+000
    endloop
  endfacet
  facet normal  0.000000e+000  0.000000e+000  1.000000e+000
    outer loop
      vertex -2.427051e+000  1.763356e+000  3.200000e+000
      vertex -1.361971e+000  2.673020e+000  3.200000e+000
      vertex -1.763356e+000  2.427051e+000  3.200000e+000
    endloop
  endfacet
  facet normal  0.000000e+000  0.000000e+000  1.000000e+000
    outer loop
      vertex -2.427051e+000  1.763356e+000  3.200000e+000
      vertex -1.763356e+000  2.427051e+000  3.200000e+000
      vertex -2.121320e+000  2.121320e+000  3.200000e+000
    endloop
  endfacet
  facet normal  -0.000000e+000  -0.000000e+000  1.000000e+000
    outer loop
      vertex  1.829248e-001  1.740413e+000  3.200000e+000
      vertex  5.407798e-001  1.664349e+000  3.200000e+000
      vertex  2.673020e+000  1.361971e+000  3.200000e+000
    endloop
  endfacet
  facet normal  0.000000e+000  0.000000e+000  1.000000e+000
    outer loop
      vertex  1.829248e-001  1.740413e+000  3.200000e+000
      vertex  2.673020e+000  1.361971e+000  3.200000e+000
      vertex  2.427051e+000  1.763356e+000  3.200000e+000
    endloop
  endfacet
  facet normal  0.000000e+000  0.000000e+000  9.999999e-001
    outer loop
      vertex  1.829248e-001  1.740413e+000  3.200000e+000
      vertex  2.427051e+000  1.763356e+000  3.200000e+000
      vertex  2.121320e+000  2.121320e+000  3.200000e+000
    endloop
  endfacet
  facet normal  0.000000e+000  0.000000e+000  1.000000e+000
    outer loop
      vertex  1.829248e-001  1.740413e+000  3.200000e+000
      vertex  2.121320e+000  2.121320e+000  3.200000e+000
      vertex  1.763356e+000  2.427051e+000  3.200000e+000
    endloop
  endfacet
  facet normal  0.000000e+000  0.000000e+000  1.000000e+000
    outer loop
      vertex  1.829248e-001  1.740413e+000  3.200000e+000
      vertex  1.763356e+000  2.427051e+000  3.200000e+000
      vertex  1.361971e+000  2.673020e+000  3.200000e+000
    endloop
  endfacet
  facet normal  0.000000e+000  0.000000e+000  1.000000e+000
    outer loop
      vertex  1.829248e-001  1.740413e+000  3.200000e+000
      vertex  1.361971e+000  2.673020e+000  3.200000e+000
      vertex  9.270510e-001  2.853169e+000  3.200000e+000
    endloop
  endfacet
  facet normal  0.000000e+000  0.000000e+000  1.000000e+000
    outer loop
      vertex  1.829248e-001  1.740413e+000  3.200000e+000
      vertex  9.270510e-001  2.853169e+000  3.200000e+000
      vertex  4.693034e-001  2.963065e+000  3.200000e+000
    endloop
  endfacet
  facet normal  0.000000e+000  -0.000000e+000  1.000000e+000
    outer loop
      vertex -5.510729e-016 -3.000000e+000  3.200000e+000
      vertex  4.693034e-001 -2.963065e+000  3.200000e+000
      vertex  9.270510e-001 -2.853169e+000  3.200000e+000
    endloop
  endfacet
  facet normal  0.000000e+000  -0.000000e+000  1.000000e+000
    outer loop
      vertex -5.510729e-016 -3.000000e+000  3.200000e+000
      vertex  9.270510e-001 -2.853169e+000  3.200000e+000
      vertex  1.361971e+000 -2.673020e+000  3.200000e+000
    endloop
  endfacet
  facet normal  0.000000e+000  -0.000000e+000  1.000000e+000
    outer loop
      vertex -5.510729e-016 -3.000000e+000  3.200000e+000
      vertex  1.361971e+000 -2.673020e+000  3.200000e+000
      vertex  1.763356e+000 -2.427051e+000  3.200000e+000
    endloop
  endfacet
  facet normal  0.000000e+000  -0.000000e+000  1.000000e+000
    outer loop
      vertex -5.510729e-016 -3.000000e+000  3.200000e+000
      vertex  1.763356e+000 -2.427051e+000  3.200000e+000
      vertex  2.121320e+000 -2.121320e+000  3.200000e+000
    endloop
  endfacet
  facet normal  0.000000e+000  -0.000000e+000  1.000000e+000
    outer loop
      vertex -5.510729e-016 -3.000000e+000  3.200000e+000
      vertex  2.121320e+000 -2.121320e+000  3.200000e+000
      vertex  2.427051e+000 -1.763356e+000  3.200000e+000
    endloop
  endfacet
  facet normal  0.000000e+000  0.000000e+000  1.000000e+000
    outer loop
      vertex -5.510729e-016 -3.000000e+000  3.200000e+000
      vertex  2.427051e+000 -1.763356e+000  3.200000e+000
      vertex  1.829248e-001 -1.740413e+000  3.200000e+000
    endloop
  endfacet
  facet normal  0.000000e+000  0.000000e+000  1.000000e+000
    outer loop
      vertex -5.510729e-016 -3.000000e+000  3.200000e+000
      vertex  1.829248e-001 -1.740413e+000  3.200000e+000
      vertex -1.829248e-001 -1.740413e+000  3.200000e+000
    endloop
  endfacet
  facet normal  0.000000e+000  0.000000e+000  1.000000e+000
    outer loop
      vertex -5.510729e-016 -3.000000e+000  3.200000e+000
      vertex -1.829248e-001 -1.740413e+000  3.200000e+000
      vertex -2.427051e+000 -1.763356e+000  3.200000e+000
    endloop
  endfacet
  facet normal  0.000000e+000  0.000000e+000  1.000000e+000
    outer loop
      vertex -5.510729e-016 -3.000000e+000  3.200000e+000
      vertex -2.427051e+000 -1.763356e+000  3.200000e+000
      vertex -2.121320e+000 -2.121320e+000  3.200000e+000
    endloop
  endfacet
  facet normal  0.000000e+000  0.000000e+000  1.000000e+000
    outer loop
      vertex -5.510729e-016 -3.000000e+000  3.200000e+000
      vertex -2.121320e+000 -2.121320e+000  3.200000e+000
      vertex -1.763356e+000 -2.427051e+000  3.200000e+000
    endloop
  endfacet
  facet normal  0.000000e+000  0.000000e+000  1.000000e+000
    outer loop
      vertex -5.510729e-016 -3.000000e+000  3.200000e+000
      vertex -1.763356e+000 -2.427051e+000  3.200000e+000
      vertex -1.361971e+000 -2.673020e+000  3.200000e+000
    endloop
  endfacet
  facet normal  0.000000e+000  0.000000e+000  1.000000e+000
    outer loop
      vertex -5.510729e-016 -3.000000e+000  3.200000e+000
      vertex -1.361971e+000 -2.673020e+000  3.200000e+000
      vertex -9.270510e-001 -2.853169e+000  3.200000e+000
    endloop
  endfacet
  facet normal  0.000000e+000  0.000000e+000  1.000000e+000
    outer loop
      vertex -5.510729e-016 -3.000000e+000  3.200000e+000
      vertex -9.270510e-001 -2.853169e+000  3.200000e+000
      vertex -4.693034e-001 -2.963065e+000  3.200000e+000
    endloop
  endfacet
  facet normal  0.000000e+000  0.000000e+000  9.999999e-001
    outer loop
      vertex -2.427051e+000 -1.763356e+000  3.200000e+000
      vertex -1.829248e-001 -1.740413e+000  3.200000e+000
      vertex -5.407798e-001 -1.664349e+000  3.200000e+000
    endloop
  endfacet
  facet normal  0.000000e+000  0.000000e+000  1.000000e+000
    outer loop
      vertex -2.427051e+000 -1.763356e+000  3.200000e+000
      vertex -5.407798e-001 -1.664349e+000  3.200000e+000
      vertex -8.750000e-001 -1.515544e+000  3.200000e+000
    endloop
  endfacet
  facet normal  0.000000e+000  0.000000e+000  1.000000e+000
    outer loop
      vertex -2.427051e+000 -1.763356e+000  3.200000e+000
      vertex -8.750000e-001 -1.515544e+000  3.200000e+000
      vertex -1.170979e+000 -1.300503e+000  3.200000e+000
    endloop
  endfacet
  facet normal  0.000000e+000  0.000000e+000  1.000000e+000
    outer loop
      vertex -2.427051e+000 -1.763356e+000  3.200000e+000
      vertex -1.170979e+000 -1.300503e+000  3.200000e+000
      vertex -2.673020e+000 -1.361971e+000  3.200000e+000
    endloop
  endfacet
  facet normal  0.000000e+000  0.000000e+000  1.000000e+000
    outer loop
      vertex  2.427051e+000 -1.763356e+000  3.200000e+000
      vertex  2.673020e+000 -1.361971e+000  3.200000e+000
      vertex  1.170979e+000 -1.300503e+000  3.200000e+000
    endloop
  endfacet
  facet normal  0.000000e+000  0.000000e+000  1.000000e+000
    outer loop
      vertex  2.427051e+000 -1.763356e+000  3.200000e+000
      vertex  1.170979e+000 -1.300503e+000  3.200000e+000
      vertex  8.750000e-001 -1.515544e+000  3.200000e+000
    endloop
  endfacet
  facet normal  0.000000e+000  0.000000e+000  1.000000e+000
    outer loop
      vertex  2.427051e+000 -1.763356e+000  3.200000e+000
      vertex  8.750000e-001 -1.515544e+000  3.200000e+000
      vertex  5.407798e-001 -1.664349e+000  3.200000e+000
    endloop
  endfacet
  facet normal  0.000000e+000  0.000000e+000  9.999999e-001
    outer loop
      vertex  2.427051e+000 -1.763356e+000  3.200000e+000
      vertex  5.407798e-001 -1.664349e+000  3.200000e+000
      vertex  1.829248e-001 -1.740413e+000  3.200000e+000
    endloop
  endfacet
  facet normal  0.000000e+000  0.000000e+000  1.000000e+000
    outer loop
      vertex  1.829248e-001  1.740413e+000  3.200000e+000
      vertex  4.693034e-001  2.963065e+000  3.200000e+000
      vertex -1.829248e-001  1.740413e+000  3.200000e+000
    endloop
  endfacet
  facet normal  0.000000e+000  0.000000e+000  9.999999e-001
    outer loop
      vertex -1.829248e-001  1.740413e+000  3.200000e+000
      vertex  4.693034e-001  2.963065e+000  3.200000e+000
      vertex  1.836910e-016  3.000000e+000  3.200000e+000
    endloop
  endfacet
  facet normal  0.000000e+000  0.000000e+000  1.000000e+000
    outer loop
      vertex -1.829248e-001  1.740413e+000  3.200000e+000
      vertex  1.836910e-016  3.000000e+000  3.200000e+000
      vertex -2.427051e+000  1.763356e+000  3.200000e+000
    endloop
  endfacet
  facet normal  0.000000e+000  0.000000e+000  1.000000e+000
    outer loop
      vertex -2.427051e+000  1.763356e+000  3.200000e+000
      vertex  1.836910e-016  3.000000e+000  3.200000e+000
      vertex -4.693034e-001  2.963065e+000  3.200000e+000
    endloop
  endfacet
  facet normal  0.000000e+000  0.000000e+000  9.999999e-001
    outer loop
      vertex -1.829248e-001  1.740413e+000  3.200000e+000
      vertex -2.427051e+000  1.763356e+000  3.200000e+000
      vertex -5.407798e-001  1.664349e+000  3.200000e+000
    endloop
  endfacet
  facet normal  0.000000e+000  0.000000e+000  1.000000e+000
    outer loop
      vertex -5.407798e-001  1.664349e+000  3.200000e+000
      vertex -2.427051e+000  1.763356e+000  3.200000e+000
      vertex -2.673020e+000  1.361971e+000  3.200000e+000
    endloop
  endfacet
  facet normal  0.000000e+000  0.000000e+000  1.000000e+000
    outer loop
      vertex -5.407798e-001  1.664349e+000  3.200000e+000
      vertex -2.673020e+000  1.361971e+000  3.200000e+000
      vertex -8.750000e-001  1.515544e+000  3.200000e+000
    endloop
  endfacet
  facet normal  0.000000e+000  0.000000e+000  1.000000e+000
    outer loop
      vertex -1.170979e+000  1.300503e+000  3.200000e+000
      vertex -2.673020e+000  1.361971e+000  3.200000e+000
      vertex -1.415780e+000  1.028624e+000  3.200000e+000
    endloop
  endfacet
  facet normal  0.000000e+000  0.000000e+000  1.000000e+000
    outer loop
      vertex -1.415780e+000  1.028624e+000  3.200000e+000
      vertex -2.673020e+000  1.361971e+000  3.200000e+000
      vertex -2.853169e+000  9.270510e-001  3.200000e+000
    endloop
  endfacet
  facet normal  -0.000000e+000  0.000000e+000  1.000000e+000
    outer loop
      vertex -1.415780e+000  1.028624e+000  3.200000e+000
      vertex -2.853169e+000  9.270510e-001  3.200000e+000
      vertex -1.598705e+000  7.117891e-001  3.200000e+000
    endloop
  endfacet
  facet normal  0.000000e+000  0.000000e+000  1.000000e+000
    outer loop
      vertex -1.598705e+000  7.117891e-001  3.200000e+000
      vertex -2.853169e+000  9.270510e-001  3.200000e+000
      vertex -2.963065e+000  4.693034e-001  3.200000e+000
    endloop
  endfacet
  facet normal  -0.000000e+000  0.000000e+000  1.000000e+000
    outer loop
      vertex -1.598705e+000  7.117891e-001  3.200000e+000
      vertex -2.963065e+000  4.693034e-001  3.200000e+000
      vertex -1.711758e+000  3.638455e-001  3.200000e+000
    endloop
  endfacet
  facet normal  0.000000e+000  0.000000e+000  9.999999e-001
    outer loop
      vertex -1.711758e+000  3.638455e-001  3.200000e+000
      vertex -2.963065e+000  4.693034e-001  3.200000e+000
      vertex -1.750000e+000  2.143061e-016  3.200000e+000
    endloop
  endfacet
  facet normal  0.000000e+000  0.000000e+000  1.000000e+000
    outer loop
      vertex -1.750000e+000  2.143061e-016  3.200000e+000
      vertex -2.963065e+000  4.693034e-001  3.200000e+000
      vertex -3.000000e+000  3.673819e-016  3.200000e+000
    endloop
  endfacet
  facet normal  0.000000e+000  0.000000e+000  1.000000e+000
    outer loop
      vertex -1.750000e+000  2.143061e-016  3.200000e+000
      vertex -3.000000e+000  3.673819e-016  3.200000e+000
      vertex -1.711758e+000 -3.638455e-001  3.200000e+000
    endloop
  endfacet
  facet normal  0.000000e+000  0.000000e+000  1.000000e+000
    outer loop
      vertex -1.711758e+000 -3.638455e-001  3.200000e+000
      vertex -3.000000e+000  3.673819e-016  3.200000e+000
      vertex -2.963065e+000 -4.693034e-001  3.200000e+000
    endloop
  endfacet
  facet normal  -0.000000e+000  0.000000e+000  1.000000e+000
    outer loop
      vertex -1.711758e+000 -3.638455e-001  3.200000e+000
      vertex -2.963065e+000 -4.693034e-001  3.200000e+000
      vertex -1.598705e+000 -7.117891e-001  3.200000e+000
    endloop
  endfacet
  facet normal  0.000000e+000  0.000000e+000  1.000000e+000
    outer loop
      vertex -1.598705e+000 -7.117891e-001  3.200000e+000
      vertex -2.963065e+000 -4.693034e-001  3.200000e+000
      vertex -2.853169e+000 -9.270510e-001  3.200000e+000
    endloop
  endfacet
  facet normal  -0.000000e+000  0.000000e+000  1.000000e+000
    outer loop
      vertex -1.598705e+000 -7.117891e-001  3.200000e+000
      vertex -2.853169e+000 -9.270510e-001  3.200000e+000
      vertex -1.415780e+000 -1.028624e+000  3.200000e+000
    endloop
  endfacet
  facet normal  0.000000e+000  0.000000e+000  1.000000e+000
    outer loop
      vertex -2.673020e+000 -1.361971e+000  3.200000e+000
      vertex -1.170979e+000 -1.300503e+000  3.200000e+000
      vertex -2.853169e+000 -9.270510e-001  3.200000e+000
    endloop
  endfacet
  facet normal  0.000000e+000  0.000000e+000  9.999999e-001
    outer loop
      vertex -2.853169e+000 -9.270510e-001  3.200000e+000
      vertex -1.170979e+000 -1.300503e+000  3.200000e+000
      vertex -1.415780e+000 -1.028624e+000  3.200000e+000
    endloop
  endfacet
  facet normal  -0.000000e+000  0.000000e+000  1.000000e+000
    outer loop
      vertex  2.673020e+000  1.361971e+000  3.200000e+000
      vertex  1.170979e+000  1.300503e+000  3.200000e+000
      vertex  2.853169e+000  9.270510e-001  3.200000e+000
    endloop
  endfacet
  facet normal  0.000000e+000  0.000000e+000  9.999999e-001
    outer loop
      vertex  2.853169e+000  9.270510e-001  3.200000e+000
      vertex  1.170979e+000  1.300503e+000  3.200000e+000
      vertex  1.415780e+000  1.028624e+000  3.200000e+000
    endloop
  endfacet
  facet normal  0.000000e+000  0.000000e+000  1.000000e+000
    outer loop
      vertex  2.853169e+000  9.270510e-001  3.200000e+000
      vertex  1.415780e+000  1.028624e+000  3.200000e+000
      vertex  2.963065e+000  4.693034e-001  3.200000e+000
    endloop
  endfacet
  facet normal  0.000000e+000  0.000000e+000  9.999999e-001
    outer loop
      vertex  2.963065e+000  4.693034e-001  3.200000e+000
      vertex  1.415780e+000  1.028624e+000  3.200000e+000
      vertex  1.598705e+000  7.117891e-001  3.200000e+000
    endloop
  endfacet
  facet normal  0.000000e+000  0.000000e+000  1.000000e+000
    outer loop
      vertex  2.963065e+000  4.693034e-001  3.200000e+000
      vertex  1.598705e+000  7.117891e-001  3.200000e+000
      vertex  1.711758e+000  3.638455e-001  3.200000e+000
    endloop
  endfacet
  facet normal  -0.000000e+000  0.000000e+000  1.000000e+000
    outer loop
      vertex  2.963065e+000  4.693034e-001  3.200000e+000
      vertex  1.711758e+000  3.638455e-001  3.200000e+000
      vertex  3.000000e+000  0.000000e+000  3.200000e+000
    endloop
  endfacet
  facet normal  0.000000e+000  0.000000e+000  1.000000e+000
    outer loop
      vertex  3.000000e+000  0.000000e+000  3.200000e+000
      vertex  1.711758e+000  3.638455e-001  3.200000e+000
      vertex  1.750000e+000  0.000000e+000  3.200000e+000
    endloop
  endfacet
  facet normal  -0.000000e+000  0.000000e+000  1.000000e+000
    outer loop
      vertex  3.000000e+000  0.000000e+000  3.200000e+000
      vertex  1.750000e+000  0.000000e+000  3.200000e+000
      vertex  2.963065e+000 -4.693034e-001  3.200000e+000
    endloop
  endfacet
  facet normal  0.000000e+000  0.000000e+000  9.999999e-001
    outer loop
      vertex  2.963065e+000 -4.693034e-001  3.200000e+000
      vertex  1.750000e+000  0.000000e+000  3.200000e+000
      vertex  1.711758e+000 -3.638455e-001  3.200000e+000
    endloop
  endfacet
  facet normal  0.000000e+000  0.000000e+000  1.000000e+000
    outer loop
      vertex  2.963065e+000 -4.693034e-001  3.200000e+000
      vertex  1.711758e+000 -3.638455e-001  3.200000e+000
      vertex  2.853169e+000 -9.270510e-001  3.200000e+000
    endloop
  endfacet
  facet normal  0.000000e+000  0.000000e+000  1.000000e+000
    outer loop
      vertex  2.853169e+000 -9.270510e-001  3.200000e+000
      vertex  1.711758e+000 -3.638455e-001  3.200000e+000
      vertex  1.598705e+000 -7.117891e-001  3.200000e+000
    endloop
  endfacet
  facet normal  0.000000e+000  0.000000e+000  1.000000e+000
    outer loop
      vertex  2.853169e+000 -9.270510e-001  3.200000e+000
      vertex  1.598705e+000 -7.117891e-001  3.200000e+000
      vertex  1.415780e+000 -1.028624e+000  3.200000e+000
    endloop
  endfacet
  facet normal  0.000000e+000  0.000000e+000  9.999999e-001
    outer loop
      vertex  1.415780e+000 -1.028624e+000  3.200000e+000
      vertex  1.170979e+000 -1.300503e+000  3.200000e+000
      vertex  2.853169e+000 -9.270510e-001  3.200000e+000
    endloop
  endfacet
  facet normal  0.000000e+000  0.000000e+000  1.000000e+000
    outer loop
      vertex  2.853169e+000 -9.270510e-001  3.200000e+000
      vertex  1.170979e+000 -1.300503e+000  3.200000e+000
      vertex  2.673020e+000 -1.361971e+000  3.200000e+000
    endloop
  endfacet
  facet normal  0.000000e+000  0.000000e+000 -1.000000e+000
    outer loop
      vertex -1.170979e+000  1.300503e+000  0.000000e+000
      vertex -2.673020e+000  1.361971e+000  0.000000e+000
      vertex -8.750000e-001  1.515544e+000  0.000000e+000
    endloop
  endfacet
  facet normal  0.000000e+000  0.000000e+000 -1.000000e+000
    outer loop
      vertex  8.750000e-001  1.515544e+000  0.000000e+000
      vertex  5.407798e-001  1.664349e+000  0.000000e+000
      vertex  2.673020e+000  1.361971e+000  0.000000e+000
    endloop
  endfacet
  facet normal  0.000000e+000  0.000000e+000 -1.000000e+000
    outer loop
      vertex  2.673020e+000  1.361971e+000  0.000000e+000
      vertex  1.170979e+000  1.300503e+000  0.000000e+000
      vertex  8.750000e-001  1.515544e+000  0.000000e+000
    endloop
  endfacet
  facet normal  0.000000e+000  -0.000000e+000 -1.000000e+000
    outer loop
      vertex -2.427051e+000  1.763356e+000  0.000000e+000
      vertex -2.121320e+000  2.121320e+000  0.000000e+000
      vertex -1.763356e+000  2.427051e+000  0.000000e+000
    endloop
  endfacet
  facet normal  0.000000e+000  -0.000000e+000 -1.000000e+000
    outer loop
      vertex -2.427051e+000  1.763356e+000  0.000000e+000
      vertex -1.763356e+000  2.427051e+000  0.000000e+000
      vertex -1.361971e+000  2.673020e+000  0.000000e+000
    endloop
  endfacet
  facet normal  0.000000e+000  -0.000000e+000 -1.000000e+000
    outer loop
      vertex -2.427051e+000  1.763356e+000  0.000000e+000
      vertex -1.361971e+000  2.673020e+000  0.000000e+000
      vertex -9.270510e-001  2.853169e+000  0.000000e+000
    endloop
  endfacet
  facet normal  0.000000e+000  -0.000000e+000 -1.000000e+000
    outer loop
      vertex -2.427051e+000  1.763356e+000  0.000000e+000
      vertex -9.270510e-001  2.853169e+000  0.000000e+000
      vertex -4.693034e-001  2.963065e+000  0.000000e+000
    endloop
  endfacet
  facet normal  0.000000e+000  -0.000000e+000 -1.000000e+000
    outer loop
      vertex  1.829248e-001  1.740413e+000  0.000000e+000
      vertex  4.693034e-001  2.963065e+000  0.000000e+000
      vertex  9.270510e-001  2.853169e+000  0.000000e+000
    endloop
  endfacet
  facet normal  0.000000e+000  -0.000000e+000 -1.000000e+000
    outer loop
      vertex  1.829248e-001  1.740413e+000  0.000000e+000
      vertex  9.270510e-001  2.853169e+000  0.000000e+000
      vertex  1.361971e+000  2.673020e+000  0.000000e+000
    endloop
  endfacet
  facet normal  0.000000e+000  -0.000000e+000 -1.000000e+000
    outer loop
      vertex  1.829248e-001  1.740413e+000  0.000000e+000
      vertex  1.361971e+000  2.673020e+000  0.000000e+000
      vertex  1.763356e+000  2.427051e+000  0.000000e+000
    endloop
  endfacet
  facet normal  0.000000e+000  -0.000000e+000 -1.000000e+000
    outer loop
      vertex  1.829248e-001  1.740413e+000  0.000000e+000
      vertex  1.763356e+000  2.427051e+000  0.000000e+000
      vertex  2.121320e+000  2.121320e+000  0.000000e+000
    endloop
  endfacet
  facet normal  0.000000e+000  -0.000000e+000 -9.999999e-001
    outer loop
      vertex  1.829248e-001  1.740413e+000  0.000000e+000
      vertex  2.121320e+000  2.121320e+000  0.000000e+000
      vertex  2.427051e+000  1.763356e+000  0.000000e+000
    endloop
  endfacet
  facet normal  0.000000e+000  -0.000000e+000 -1.000000e+000
    outer loop
      vertex  1.829248e-001  1.740413e+000  0.000000e+000
      vertex  2.427051e+000  1.763356e+000  0.000000e+000
      vertex  2.673020e+000  1.361971e+000  0.000000e+000
    endloop
  endfacet
  facet normal  0.000000e+000  0.000000e+000 -1.000000e+000
    outer loop
      vertex  1.829248e-001  1.740413e+000  0.000000e+000
      vertex  2.673020e+000  1.361971e+000  0.000000e+000
      vertex  5.407798e-001  1.664349e+000  0.000000e+000
    endloop
  endfacet
  facet normal  0.000000e+000  0.000000e+000 -1.000000e+000
    outer loop
      vertex -5.510729e-016 -3.000000e+000  0.000000e+000
      vertex -4.693034e-001 -2.963065e+000  0.000000e+000
      vertex -9.270510e-001 -2.853169e+000  0.000000e+000
    endloop
  endfacet
  facet normal  0.000000e+000  0.000000e+000 -1.000000e+000
    outer loop
      vertex -5.510729e-016 -3.000000e+000  0.000000e+000
      vertex -9.270510e-001 -2.853169e+000  0.000000e+000
      vertex -1.361971e+000 -2.673020e+000  0.000000e+000
    endloop
  endfacet
  facet normal  0.000000e+000  0.000000e+000 -1.000000e+000
    outer loop
      vertex -5.510729e-016 -3.000000e+000  0.000000e+000
      vertex -1.361971e+000 -2.673020e+000  0.000000e+000
      vertex -1.763356e+000 -2.427051e+000  0.000000e+000
    endloop
  endfacet
  facet normal  0.000000e+000  0.000000e+000 -1.000000e+000
    outer loop
      vertex -5.510729e-016 -3.000000e+000  0.000000e+000
      vertex -1.763356e+000 -2.427051e+000  0.000000e+000
      vertex -2.121320e+000 -2.121320e+000  0.000000e+000
    endloop
  endfacet
  facet normal  0.000000e+000  0.000000e+000 -1.000000e+000
    outer loop
      vertex -5.510729e-016 -3.000000e+000  0.000000e+000
      vertex -2.121320e+000 -2.121320e+000  0.000000e+000
      vertex -2.427051e+000 -1.763356e+000  0.000000e+000
    endloop
  endfacet
  facet normal  0.000000e+000  0.000000e+000 -1.000000e+000
    outer loop
      vertex -5.510729e-016 -3.000000e+000  0.000000e+000
      vertex -2.427051e+000 -1.763356e+000  0.000000e+000
      vertex -1.829248e-001 -1.740413e+000  0.000000e+000
    endloop
  endfacet
  facet normal  0.000000e+000  0.000000e+000 -1.000000e+000
    outer loop
      vertex -5.510729e-016 -3.000000e+000  0.000000e+000
      vertex -1.829248e-001 -1.740413e+000  0.000000e+000
      vertex  1.829248e-001 -1.740413e+000  0.000000e+000
    endloop
  endfacet
  facet normal  0.000000e+000  -0.000000e+000 -1.000000e+000
    outer loop
      vertex -5.510729e-016 -3.000000e+000  0.000000e+000
      vertex  1.829248e-001 -1.740413e+000  0.000000e+000
      vertex  2.427051e+000 -1.763356e+000  0.000000e+000
    endloop
  endfacet
  facet normal  0.000000e+000  0.000000e+000 -1.000000e+000
    outer loop
      vertex -5.510729e-016 -3.000000e+000  0.000000e+000
      vertex  2.427051e+000 -1.763356e+000  0.000000e+000
      vertex  2.121320e+000 -2.121320e+000  0.000000e+000
    endloop
  endfacet
  facet normal  0.000000e+000  0.000000e+000 -1.000000e+000
    outer loop
      vertex -5.510729e-016 -3.000000e+000  0.000000e+000
      vertex  2.121320e+000 -2.121320e+000  0.000000e+000
      vertex  1.763356e+000 -2.427051e+000  0.000000e+000
    endloop
  endfacet
  facet normal  0.000000e+000  0.000000e+000 -1.000000e+000
    outer loop
      vertex -5.510729e-016 -3.000000e+000  0.000000e+000
      vertex  1.763356e+000 -2.427051e+000  0.000000e+000
      vertex  1.361971e+000 -2.673020e+000  0.000000e+000
    endloop
  endfacet
  facet normal  0.000000e+000  0.000000e+000 -1.000000e+000
    outer loop
      vertex -5.510729e-016 -3.000000e+000  0.000000e+000
      vertex  1.361971e+000 -2.673020e+000  0.000000e+000
      vertex  9.270510e-001 -2.853169e+000  0.000000e+000
    endloop
  endfacet
  facet normal  0.000000e+000  0.000000e+000 -1.000000e+000
    outer loop
      vertex -5.510729e-016 -3.000000e+000  0.000000e+000
      vertex  9.270510e-001 -2.853169e+000  0.000000e+000
      vertex  4.693034e-001 -2.963065e+000  0.000000e+000
    endloop
  endfacet
  facet normal  0.000000e+000  0.000000e+000 -1.000000e+000
    outer loop
      vertex -2.427051e+000 -1.763356e+000  0.000000e+000
      vertex -2.673020e+000 -1.361971e+000  0.000000e+000
      vertex -1.170979e+000 -1.300503e+000  0.000000e+000
    endloop
  endfacet
  facet normal  0.000000e+000  -0.000000e+000 -1.000000e+000
    outer loop
      vertex -2.427051e+000 -1.763356e+000  0.000000e+000
      vertex -1.170979e+000 -1.300503e+000  0.000000e+000
      vertex -8.750000e-001 -1.515544e+000  0.000000e+000
    endloop
  endfacet
  facet normal  0.000000e+000  -0.000000e+000 -1.000000e+000
    outer loop
      vertex -2.427051e+000 -1.763356e+000  0.000000e+000
      vertex -8.750000e-001 -1.515544e+000  0.000000e+000
      vertex -5.407798e-001 -1.664349e+000  0.000000e+000
    endloop
  endfacet
  facet normal  0.000000e+000  -0.000000e+000 -9.999999e-001
    outer loop
      vertex -2.427051e+000 -1.763356e+000  0.000000e+000
      vertex -5.407798e-001 -1.664349e+000  0.000000e+000
      vertex -1.829248e-001 -1.740413e+000  0.000000e+000
    endloop
  endfacet
  facet normal  0.000000e+000  0.000000e+000 -9.999999e-001
    outer loop
      vertex  2.427051e+000 -1.763356e+000  0.000000e+000
      vertex  1.829248e-001 -1.740413e+000  0.000000e+000
      vertex  5.407798e-001 -1.664349e+000  0.000000e+000
    endloop
  endfacet
  facet normal  0.000000e+000  0.000000e+000 -1.000000e+000
    outer loop
      vertex  2.427051e+000 -1.763356e+000  0.000000e+000
      vertex  5.407798e-001 -1.664349e+000  0.000000e+000
      vertex  8.750000e-001 -1.515544e+000  0.000000e+000
    endloop
  endfacet
  facet normal  0.000000e+000  0.000000e+000 -1.000000e+000
    outer loop
      vertex  2.427051e+000 -1.763356e+000  0.000000e+000
      vertex  8.750000e-001 -1.515544e+000  0.000000e+000
      vertex  1.170979e+000 -1.300503e+000  0.000000e+000
    endloop
  endfacet
  facet normal  0.000000e+000  0.000000e+000 -1.000000e+000
    outer loop
      vertex  2.427051e+000 -1.763356e+000  0.000000e+000
      vertex  1.170979e+000 -1.300503e+000  0.000000e+000
      vertex  2.673020e+000 -1.361971e+000  0.000000e+000
    endloop
  endfacet
  facet normal  0.000000e+000  0.000000e+000 -1.000000e+000
    outer loop
      vertex  1.829248e-001  1.740413e+000  0.000000e+000
      vertex -1.829248e-001  1.740413e+000  0.000000e+000
      vertex  4.693034e-001  2.963065e+000  0.000000e+000
    endloop
  endfacet
  facet normal  -0.000000e+000  0.000000e+000 -1.000000e+000
    outer loop
      vertex  4.693034e-001  2.963065e+000  0.000000e+000
      vertex -1.829248e-001  1.740413e+000  0.000000e+000
      vertex  1.836910e-016  3.000000e+000  0.000000e+000
    endloop
  endfacet
  facet normal  0.000000e+000  0.000000e+000 -1.000000e+000
    outer loop
      vertex -1.829248e-001  1.740413e+000  0.000000e+000
      vertex -2.427051e+000  1.763356e+000  0.000000e+000
      vertex  1.836910e-016  3.000000e+000  0.000000e+000
    endloop
  endfacet
  facet normal  0.000000e+000  0.000000e+000 -1.000000e+000
    outer loop
      vertex  1.836910e-016  3.000000e+000  0.000000e+000
      vertex -2.427051e+000  1.763356e+000  0.000000e+000
      vertex -4.693034e-001  2.963065e+000  0.000000e+000
    endloop
  endfacet
  facet normal  0.000000e+000  0.000000e+000 -1.000000e+000
    outer loop
      vertex -8.750000e-001  1.515544e+000  0.000000e+000
      vertex -2.673020e+000  1.361971e+000  0.000000e+000
      vertex -5.407798e-001  1.664349e+000  0.000000e+000
    endloop
  endfacet
  facet normal  -0.000000e+000  0.000000e+000 -1.000000e+000
    outer loop
      vertex -5.407798e-001  1.664349e+000  0.000000e+000
      vertex -2.673020e+000  1.361971e+000  0.000000e+000
      vertex -2.427051e+000  1.763356e+000  0.000000e+000
    endloop
  endfacet
  facet normal  0.000000e+000  0.000000e+000 -9.999999e-001
    outer loop
      vertex -5.407798e-001  1.664349e+000  0.000000e+000
      vertex -2.427051e+000  1.763356e+000  0.000000e+000
      vertex -1.829248e-001  1.740413e+000  0.000000e+000
    endloop
  endfacet
  facet normal  0.000000e+000  0.000000e+000 -1.000000e+000
    outer loop
      vertex -1.711758e+000  3.638455e-001  0.000000e+000
      vertex -2.963065e+000  4.693034e-001  0.000000e+000
      vertex -1.598705e+000  7.117891e-001  0.000000e+000
    endloop
  endfacet
  facet normal  -0.000000e+000  0.000000e+000 -1.000000e+000
    outer loop
      vertex -1.598705e+000  7.117891e-001  0.000000e+000
      vertex -2.963065e+000  4.693034e-001  0.000000e+000
      vertex -2.853169e+000  9.270510e-001  0.000000e+000
    endloop
  endfacet
  facet normal  0.000000e+000  0.000000e+000 -1.000000e+000
    outer loop
      vertex -1.598705e+000  7.117891e-001  0.000000e+000
      vertex -2.853169e+000  9.270510e-001  0.000000e+000
      vertex -1.415780e+000  1.028624e+000  0.000000e+000
    endloop
  endfacet
  facet normal  -0.000000e+000  0.000000e+000 -1.000000e+000
    outer loop
      vertex -1.415780e+000  1.028624e+000  0.000000e+000
      vertex -2.853169e+000  9.270510e-001  0.000000e+000
      vertex -2.673020e+000  1.361971e+000  0.000000e+000
    endloop
  endfacet
  facet normal  0.000000e+000  0.000000e+000 -1.000000e+000
    outer loop
      vertex -1.415780e+000  1.028624e+000  0.000000e+000
      vertex -2.673020e+000  1.361971e+000  0.000000e+000
      vertex -1.170979e+000  1.300503e+000  0.000000e+000
    endloop
  endfacet
  facet normal  0.000000e+000  0.000000e+000 -1.000000e+000
    outer loop
      vertex -1.415780e+000 -1.028624e+000  0.000000e+000
      vertex -2.853169e+000 -9.270510e-001  0.000000e+000
      vertex -1.598705e+000 -7.117891e-001  0.000000e+000
    endloop
  endfacet
  facet normal  -0.000000e+000  0.000000e+000 -1.000000e+000
    outer loop
      vertex -1.598705e+000 -7.117891e-001  0.000000e+000
      vertex -2.853169e+000 -9.270510e-001  0.000000e+000
      vertex -2.963065e+000 -4.693034e-001  0.000000e+000
    endloop
  endfacet
  facet normal  0.000000e+000  0.000000e+000 -1.000000e+000
    outer loop
      vertex -1.598705e+000 -7.117891e-001  0.000000e+000
      vertex -2.963065e+000 -4.693034e-001  0.000000e+000
      vertex -1.711758e+000 -3.638455e-001  0.000000e+000
    endloop
  endfacet
  facet normal  -0.000000e+000  0.000000e+000 -1.000000e+000
    outer loop
      vertex -1.711758e+000 -3.638455e-001  0.000000e+000
      vertex -2.963065e+000 -4.693034e-001  0.000000e+000
      vertex -3.000000e+000  3.673819e-016  0.000000e+000
    endloop
  endfacet
  facet normal  0.000000e+000  0.000000e+000 -1.000000e+000
    outer loop
      vertex -1.711758e+000 -3.638455e-001  0.000000e+000
      vertex -3.000000e+000  3.673819e-016  0.000000e+000
      vertex -1.750000e+000  2.143061e-016  0.000000e+000
    endloop
  endfacet
  facet normal  0.000000e+000  0.000000e+000 -1.000000e+000
    outer loop
      vertex -1.750000e+000  2.143061e-016  0.000000e+000
      vertex -3.000000e+000  3.673819e-016  0.000000e+000
      vertex -2.963065e+000  4.693034e-001  0.000000e+000
    endloop
  endfacet
  facet normal  0.000000e+000  0.000000e+000 -9.999999e-001
    outer loop
      vertex -1.750000e+000  2.143061e-016  0.000000e+000
      vertex -2.963065e+000  4.693034e-001  0.000000e+000
      vertex -1.711758e+000  3.638455e-001  0.000000e+000
    endloop
  endfacet
  facet normal  0.000000e+000  0.000000e+000 -1.000000e+000
    outer loop
      vertex -2.673020e+000 -1.361971e+000  0.000000e+000
      vertex -2.853169e+000 -9.270510e-001  0.000000e+000
      vertex -1.170979e+000 -1.300503e+000  0.000000e+000
    endloop
  endfacet
  facet normal  0.000000e+000  0.000000e+000 -9.999999e-001
    outer loop
      vertex -1.170979e+000 -1.300503e+000  0.000000e+000
      vertex -2.853169e+000 -9.270510e-001  0.000000e+000
      vertex -1.415780e+000 -1.028624e+000  0.000000e+000
    endloop
  endfacet
  facet normal  0.000000e+000  0.000000e+000 -1.000000e+000
    outer loop
      vertex  1.711758e+000  3.638455e-001  0.000000e+000
      vertex  1.598705e+000  7.117891e-001  0.000000e+000
      vertex  2.963065e+000  4.693034e-001  0.000000e+000
    endloop
  endfacet
  facet normal  0.000000e+000  0.000000e+000 -9.999999e-001
    outer loop
      vertex  2.963065e+000  4.693034e-001  0.000000e+000
      vertex  1.598705e+000  7.117891e-001  0.000000e+000
      vertex  1.415780e+000  1.028624e+000  0.000000e+000
    endloop
  endfacet
  facet normal  0.000000e+000  0.000000e+000 -1.000000e+000
    outer loop
      vertex  2.963065e+000  4.693034e-001  0.000000e+000
      vertex  1.415780e+000  1.028624e+000  0.000000e+000
      vertex  2.853169e+000  9.270510e-001  0.000000e+000
    endloop
  endfacet
  facet normal  0.000000e+000  0.000000e+000 -9.999999e-001
    outer loop
      vertex  2.853169e+000  9.270510e-001  0.000000e+000
      vertex  1.415780e+000  1.028624e+000  0.000000e+000
      vertex  1.170979e+000  1.300503e+000  0.000000e+000
    endloop
  endfacet
  facet normal  0.000000e+000  0.000000e+000 -1.000000e+000
    outer loop
      vertex  2.853169e+000  9.270510e-001  0.000000e+000
      vertex  1.170979e+000  1.300503e+000  0.000000e+000
      vertex  2.673020e+000  1.361971e+000  0.000000e+000
    endloop
  endfacet
  facet normal  0.000000e+000  -0.000000e+000 -1.000000e+000
    outer loop
      vertex  1.415780e+000 -1.028624e+000  0.000000e+000
      vertex  1.598705e+000 -7.117891e-001  0.000000e+000
      vertex  2.853169e+000 -9.270510e-001  0.000000e+000
    endloop
  endfacet
  facet normal  0.000000e+000  0.000000e+000 -1.000000e+000
    outer loop
      vertex  2.853169e+000 -9.270510e-001  0.000000e+000
      vertex  1.598705e+000 -7.117891e-001  0.000000e+000
      vertex  1.711758e+000 -3.638455e-001  0.000000e+000
    endloop
  endfacet
  facet normal  0.000000e+000  0.000000e+000 -1.000000e+000
    outer loop
      vertex  2.853169e+000 -9.270510e-001  0.000000e+000
      vertex  1.711758e+000 -3.638455e-001  0.000000e+000
      vertex  2.963065e+000 -4.693034e-001  0.000000e+000
    endloop
  endfacet
  facet normal  0.000000e+000  0.000000e+000 -9.999999e-001
    outer loop
      vertex  2.963065e+000 -4.693034e-001  0.000000e+000
      vertex  1.711758e+000 -3.638455e-001  0.000000e+000
      vertex  1.750000e+000  0.000000e+000  0.000000e+000
    endloop
  endfacet
  facet normal  0.000000e+000  0.000000e+000 -1.000000e+000
    outer loop
      vertex  2.963065e+000 -4.693034e-001  0.000000e+000
      vertex  1.750000e+000  0.000000e+000  0.000000e+000
      vertex  3.000000e+000  0.000000e+000  0.000000e+000
    endloop
  endfacet
  facet normal  0.000000e+000  0.000000e+000 -1.000000e+000
    outer loop
      vertex  3.000000e+000  0.000000e+000  0.000000e+000
      vertex  1.750000e+000  0.000000e+000  0.000000e+000
      vertex  1.711758e+000  3.638455e-001  0.000000e+000
    endloop
  endfacet
  facet normal  0.000000e+000  0.000000e+000 -1.000000e+000
    outer loop
      vertex  3.000000e+000  0.000000e+000  0.000000e+000
      vertex  1.711758e+000  3.638455e-001  0.000000e+000
      vertex  2.963065e+000  4.693034e-001  0.000000e+000
    endloop
  endfacet
  facet normal  0.000000e+000  0.000000e+000 -9.999999e-001
    outer loop
      vertex  1.415780e+000 -1.028624e+000  0.000000e+000
      vertex  2.853169e+000 -9.270510e-001  0.000000e+000
      vertex  1.170979e+000 -1.300503e+000  0.000000e+000
    endloop
  endfacet
  facet normal  0.000000e+000  0.000000e+000 -1.000000e+000
    outer loop
      vertex  1.170979e+000 -1.300503e+000  0.000000e+000
      vertex  2.853169e+000 -9.270510e-001  0.000000e+000
      vertex  2.673020e+000 -1.361971e+000  0.000000e+000
    endloop
  endfacet
  facet normal  2.079115e-001 -9.781477e-001  0.000000e+000
    outer loop
      vertex -1.829248e-001  1.740413e+000  0.000000e+000
      vertex -5.407798e-001  1.664349e+000  3.200000e+000
      vertex -5.407798e-001  1.664349e+000  0.000000e+000
    endloop
  endfacet
  facet normal  4.067369e-001 -9.135454e-001  0.000000e+000
    outer loop
      vertex -5.407798e-001  1.664349e+000  0.000000e+000
      vertex -5.407798e-001  1.664349e+000  3.200000e+000
      vertex -8.750000e-001  1.515544e+000  3.200000e+000
    endloop
  endfacet
  facet normal  4.067369e-001 -9.135454e-001  0.000000e+000
    outer loop
      vertex -5.407798e-001  1.664349e+000  0.000000e+000
      vertex -8.750000e-001  1.515544e+000  3.200000e+000
      vertex -8.750000e-001  1.515544e+000  0.000000e+000
    endloop
  endfacet
  facet normal  5.877852e-001 -8.090171e-001  0.000000e+000
    outer loop
      vertex -8.750000e-001  1.515544e+000  0.000000e+000
      vertex -8.750000e-001  1.515544e+000  3.200000e+000
      vertex -1.170979e+000  1.300503e+000  3.200000e+000
    endloop
  endfacet
  facet normal  5.877852e-001 -8.090171e-001  0.000000e+000
    outer loop
      vertex -8.750000e-001  1.515544e+000  0.000000e+000
      vertex -1.170979e+000  1.300503e+000  3.200000e+000
      vertex -1.170979e+000  1.300503e+000  0.000000e+000
    endloop
  endfacet
  facet normal  7.431449e-001 -6.691305e-001  0.000000e+000
    outer loop
      vertex -1.170979e+000  1.300503e+000  0.000000e+000
      vertex -1.170979e+000  1.300503e+000  3.200000e+000
      vertex -1.415780e+000  1.028624e+000  3.200000e+000
    endloop
  endfacet
  facet normal  7.431449e-001 -6.691305e-001  0.000000e+000
    outer loop
      vertex -1.170979e+000  1.300503e+000  0.000000e+000
      vertex -1.415780e+000  1.028624e+000  3.200000e+000
      vertex -1.415780e+000  1.028624e+000  0.000000e+000
    endloop
  endfacet
  facet normal  8.660254e-001 -5.000002e-001  0.000000e+000
    outer loop
      vertex -1.415780e+000  1.028624e+000  0.000000e+000
      vertex -1.415780e+000  1.028624e+000  3.200000e+000
      vertex -1.598705e+000  7.117891e-001  3.200000e+000
    endloop
  endfacet
  facet normal  8.660254e-001 -5.000002e-001  0.000000e+000
    outer loop
      vertex -1.415780e+000  1.028624e+000  0.000000e+000
      vertex -1.598705e+000  7.117891e-001  3.200000e+000
      vertex -1.598705e+000  7.117891e-001  0.000000e+000
    endloop
  endfacet
  facet normal  9.510565e-001 -3.090168e-001  0.000000e+000
    outer loop
      vertex -1.598705e+000  7.117891e-001  0.000000e+000
      vertex -1.598705e+000  7.117891e-001  3.200000e+000
      vertex -1.711758e+000  3.638455e-001  3.200000e+000
    endloop
  endfacet
  facet normal  9.510565e-001 -3.090168e-001  0.000000e+000
    outer loop
      vertex -1.598705e+000  7.117891e-001  0.000000e+000
      vertex -1.711758e+000  3.638455e-001  3.200000e+000
      vertex -1.711758e+000  3.638455e-001  0.000000e+000
    endloop
  endfacet
  facet normal  9.945219e-001 -1.045286e-001  0.000000e+000
    outer loop
      vertex -1.711758e+000  3.638455e-001  0.000000e+000
      vertex -1.711758e+000  3.638455e-001  3.200000e+000
      vertex -1.750000e+000  2.143061e-016  3.200000e+000
    endloop
  endfacet
  facet normal  9.945219e-001 -1.045286e-001  0.000000e+000
    outer loop
      vertex -1.711758e+000  3.638455e-001  0.000000e+000
      vertex -1.750000e+000  2.143061e-016  3.200000e+000
      vertex -1.750000e+000  2.143061e-016  0.000000e+000
    endloop
  endfacet
  facet normal  2.079115e-001 -9.781477e-001  0.000000e+000
    outer loop
      vertex -5.407798e-001  1.664349e+000  3.200000e+000
      vertex -1.829248e-001  1.740413e+000  0.000000e+000
      vertex -1.829248e-001  1.740413e+000  3.200000e+000
    endloop
  endfacet
  facet normal  0.000000e+000 -1.000000e+000  0.000000e+000
    outer loop
      vertex -1.829248e-001  1.740413e+000  3.200000e+000
      vertex -1.829248e-001  1.740413e+000  0.000000e+000
      vertex  1.829248e-001  1.740413e+000  0.000000e+000
    endloop
  endfacet
  facet normal  0.000000e+000 -1.000000e+000  0.000000e+000
    outer loop
      vertex -1.829248e-001  1.740413e+000  3.200000e+000
      vertex  1.829248e-001  1.740413e+000  0.000000e+000
      vertex  1.829248e-001  1.740413e+000  3.200000e+000
    endloop
  endfacet
  facet normal -2.079115e-001 -9.781477e-001  -0.000000e+000
    outer loop
      vertex  1.829248e-001  1.740413e+000  3.200000e+000
      vertex  1.829248e-001  1.740413e+000  0.000000e+000
      vertex  5.407798e-001  1.664349e+000  0.000000e+000
    endloop
  endfacet
  facet normal -2.079115e-001 -9.781477e-001  0.000000e+000
    outer loop
      vertex  1.829248e-001  1.740413e+000  3.200000e+000
      vertex  5.407798e-001  1.664349e+000  0.000000e+000
      vertex  5.407798e-001  1.664349e+000  3.200000e+000
    endloop
  endfacet
  facet normal -4.067369e-001 -9.135454e-001  -0.000000e+000
    outer loop
      vertex  5.407798e-001  1.664349e+000  3.200000e+000
      vertex  5.407798e-001  1.664349e+000  0.000000e+000
      vertex  8.750000e-001  1.515544e+000  0.000000e+000
    endloop
  endfacet
  facet normal -4.067369e-001 -9.135454e-001  0.000000e+000
    outer loop
      vertex  5.407798e-001  1.664349e+000  3.200000e+000
      vertex  8.750000e-001  1.515544e+000  0.000000e+000
      vertex  8.750000e-001  1.515544e+000  3.200000e+000
    endloop
  endfacet
  facet normal -5.877852e-001 -8.090171e-001  -0.000000e+000
    outer loop
      vertex  8.750000e-001  1.515544e+000  3.200000e+000
      vertex  8.750000e-001  1.515544e+000  0.000000e+000
      vertex  1.170979e+000  1.300503e+000  0.000000e+000
    endloop
  endfacet
  facet normal -5.877852e-001 -8.090171e-001  0.000000e+000
    outer loop
      vertex  8.750000e-001  1.515544e+000  3.200000e+000
      vertex  1.170979e+000  1.300503e+000  0.000000e+000
      vertex  1.170979e+000  1.300503e+000  3.200000e+000
    endloop
  endfacet
  facet normal -7.431449e-001 -6.691305e-001  -0.000000e+000
    outer loop
      vertex  1.170979e+000  1.300503e+000  3.200000e+000
      vertex  1.170979e+000  1.300503e+000  0.000000e+000
      vertex  1.415780e+000  1.028624e+000  0.000000e+000
    endloop
  endfacet
  facet normal -7.431449e-001 -6.691305e-001  0.000000e+000
    outer loop
      vertex  1.170979e+000  1.300503e+000  3.200000e+000
      vertex  1.415780e+000  1.028624e+000  0.000000e+000
      vertex  1.415780e+000  1.028624e+000  3.200000e+000
    endloop
  endfacet
  facet normal -8.660254e-001 -5.000002e-001  -0.000000e+000
    outer loop
      vertex  1.415780e+000  1.028624e+000  3.200000e+000
      vertex  1.415780e+000  1.028624e+000  0.000000e+000
      vertex  1.598705e+000  7.117891e-001  0.000000e+000
    endloop
  endfacet
  facet normal -8.660254e-001 -5.000002e-001  0.000000e+000
    outer loop
      vertex  1.415780e+000  1.028624e+000  3.200000e+000
      vertex  1.598705e+000  7.117891e-001  0.000000e+000
      vertex  1.598705e+000  7.117891e-001  3.200000e+000
    endloop
  endfacet
  facet normal -9.510565e-001 -3.090168e-001  -0.000000e+000
    outer loop
      vertex  1.598705e+000  7.117891e-001  3.200000e+000
      vertex  1.598705e+000  7.117891e-001  0.000000e+000
      vertex  1.711758e+000  3.638455e-001  0.000000e+000
    endloop
  endfacet
  facet normal -9.510565e-001 -3.090168e-001  0.000000e+000
    outer loop
      vertex  1.598705e+000  7.117891e-001  3.200000e+000
      vertex  1.711758e+000  3.638455e-001  0.000000e+000
      vertex  1.711758e+000  3.638455e-001  3.200000e+000
    endloop
  endfacet
  facet normal -9.945219e-001 -1.045286e-001  -0.000000e+000
    outer loop
      vertex  1.711758e+000  3.638455e-001  3.200000e+000
      vertex  1.711758e+000  3.638455e-001  0.000000e+000
      vertex  1.750000e+000  0.000000e+000  0.000000e+000
    endloop
  endfacet
  facet normal -9.945219e-001 -1.045286e-001  0.000000e+000
    outer loop
      vertex  1.711758e+000  3.638455e-001  3.200000e+000
      vertex  1.750000e+000  0.000000e+000  0.000000e+000
      vertex  1.750000e+000  0.000000e+000  3.200000e+000
    endloop
  endfacet
  facet normal -2.079115e-001  9.781477e-001  0.000000e+000
    outer loop
      vertex  1.829248e-001 -1.740413e+000  0.000000e+000
      vertex  5.407798e-001 -1.664349e+000  3.200000e+000
      vertex  5.407798e-001 -1.664349e+000  0.000000e+000
    endloop
  endfacet
  facet normal -4.067369e-001  9.135454e-001  0.000000e+000
    outer loop
      vertex  5.407798e-001 -1.664349e+000  0.000000e+000
      vertex  5.407798e-001 -1.664349e+000  3.200000e+000
      vertex  8.750000e-001 -1.515544e+000  3.200000e+000
    endloop
  endfacet
  facet normal -4.067369e-001  9.135454e-001  0.000000e+000
    outer loop
      vertex  5.407798e-001 -1.664349e+000  0.000000e+000
      vertex  8.750000e-001 -1.515544e+000  3.200000e+000
      vertex  8.750000e-001 -1.515544e+000  0.000000e+000
    endloop
  endfacet
  facet normal -5.877852e-001  8.090171e-001  0.000000e+000
    outer loop
      vertex  8.750000e-001 -1.515544e+000  0.000000e+000
      vertex  8.750000e-001 -1.515544e+000  3.200000e+000
      vertex  1.170979e+000 -1.300503e+000  3.200000e+000
    endloop
  endfacet
  facet normal -5.877852e-001  8.090171e-001  0.000000e+000
    outer loop
      vertex  8.750000e-001 -1.515544e+000  0.000000e+000
      vertex  1.170979e+000 -1.300503e+000  3.200000e+000
      vertex  1.170979e+000 -1.300503e+000  0.000000e+000
    endloop
  endfacet
  facet normal -7.431449e-001  6.691305e-001  0.000000e+000
    outer loop
      vertex  1.170979e+000 -1.300503e+000  0.000000e+000
      vertex  1.170979e+000 -1.300503e+000  3.200000e+000
      vertex  1.415780e+000 -1.028624e+000  3.200000e+000
    endloop
  endfacet
  facet normal -7.431449e-001  6.691305e-001  0.000000e+000
    outer loop
      vertex  1.170979e+000 -1.300503e+000  0.000000e+000
      vertex  1.415780e+000 -1.028624e+000  3.200000e+000
      vertex  1.415780e+000 -1.028624e+000  0.000000e+000
    endloop
  endfacet
  facet normal -8.660254e-001  5.000002e-001  0.000000e+000
    outer loop
      vertex  1.415780e+000 -1.028624e+000  0.000000e+000
      vertex  1.415780e+000 -1.028624e+000  3.200000e+000
      vertex  1.598705e+000 -7.117891e-001  3.200000e+000
    endloop
  endfacet
  facet normal -8.660254e-001  5.000002e-001  0.000000e+000
    outer loop
      vertex  1.415780e+000 -1.028624e+000  0.000000e+000
      vertex  1.598705e+000 -7.117891e-001  3.200000e+000
      vertex  1.598705e+000 -7.117891e-001  0.000000e+000
    endloop
  endfacet
  facet normal -9.510565e-001  3.090168e-001  0.000000e+000
    outer loop
      vertex  1.598705e+000 -7.117891e-001  0.000000e+000
      vertex  1.598705e+000 -7.117891e-001  3.200000e+000
      vertex  1.711758e+000 -3.638455e-001  3.200000e+000
    endloop
  endfacet
  facet normal -9.510565e-001  3.090168e-001  0.000000e+000
    outer loop
      vertex  1.598705e+000 -7.117891e-001  0.000000e+000
      vertex  1.711758e+000 -3.638455e-001  3.200000e+000
      vertex  1.711758e+000 -3.638455e-001  0.000000e+000
    endloop
  endfacet
  facet normal -9.945219e-001  1.045286e-001  0.000000e+000
    outer loop
      vertex  1.711758e+000 -3.638455e-001  0.000000e+000
      vertex  1.711758e+000 -3.638455e-001  3.200000e+000
      vertex  1.750000e+000  0.000000e+000  3.200000e+000
    endloop
  endfacet
  facet normal -9.945219e-001  1.045286e-001  0.000000e+000
    outer loop
      vertex  1.711758e+000 -3.638455e-001  0.000000e+000
      vertex  1.750000e+000  0.000000e+000  3.200000e+000
      vertex  1.750000e+000  0.000000e+000  0.000000e+000
    endloop
  endfacet
  facet normal -2.079115e-001  9.781477e-001  0.000000e+000
    outer loop
      vertex  5.407798e-001 -1.664349e+000  3.200000e+000
      vertex  1.829248e-001 -1.740413e+000  0.000000e+000
      vertex  1.829248e-001 -1.740413e+000  3.200000e+000
    endloop
  endfacet
  facet normal  0.000000e+000  1.000000e+000  0.000000e+000
    outer loop
      vertex  1.829248e-001 -1.740413e+000  3.200000e+000
      vertex  1.829248e-001 -1.740413e+000  0.000000e+000
      vertex -1.829248e-001 -1.740413e+000  0.000000e+000
    endloop
  endfacet
  facet normal  0.000000e+000  1.000000e+000  0.000000e+000
    outer loop
      vertex  1.829248e-001 -1.740413e+000  3.200000e+000
      vertex -1.829248e-001 -1.740413e+000  0.000000e+000
      vertex -1.829248e-001 -1.740413e+000  3.200000e+000
    endloop
  endfacet
  facet normal  2.079115e-001  9.781477e-001  0.000000e+000
    outer loop
      vertex -1.829248e-001 -1.740413e+000  3.200000e+000
      vertex -1.829248e-001 -1.740413e+000  0.000000e+000
      vertex -5.407798e-001 -1.664349e+000  0.000000e+000
    endloop
  endfacet
  facet normal  2.079115e-001  9.781477e-001  -0.000000e+000
    outer loop
      vertex -1.829248e-001 -1.740413e+000  3.200000e+000
      vertex -5.407798e-001 -1.664349e+000  0.000000e+000
      vertex -5.407798e-001 -1.664349e+000  3.200000e+000
    endloop
  endfacet
  facet normal  4.067369e-001  9.135454e-001  0.000000e+000
    outer loop
      vertex -5.407798e-001 -1.664349e+000  3.200000e+000
      vertex -5.407798e-001 -1.664349e+000  0.000000e+000
      vertex -8.750000e-001 -1.515544e+000  0.000000e+000
    endloop
  endfacet
  facet normal  4.067369e-001  9.135454e-001  -0.000000e+000
    outer loop
      vertex -5.407798e-001 -1.664349e+000  3.200000e+000
      vertex -8.750000e-001 -1.515544e+000  0.000000e+000
      vertex -8.750000e-001 -1.515544e+000  3.200000e+000
    endloop
  endfacet
  facet normal  5.877852e-001  8.090171e-001  0.000000e+000
    outer loop
      vertex -8.750000e-001 -1.515544e+000  3.200000e+000
      vertex -8.750000e-001 -1.515544e+000  0.000000e+000
      vertex -1.170979e+000 -1.300503e+000  0.000000e+000
    endloop
  endfacet
  facet normal  5.877852e-001  8.090171e-001  -0.000000e+000
    outer loop
      vertex -8.750000e-001 -1.515544e+000  3.200000e+000
      vertex -1.170979e+000 -1.300503e+000  0.000000e+000
      vertex -1.170979e+000 -1.300503e+000  3.200000e+000
    endloop
  endfacet
  facet normal  7.431449e-001  6.691305e-001  0.000000e+000
    outer loop
      vertex -1.170979e+000 -1.300503e+000  3.200000e+000
      vertex -1.170979e+000 -1.300503e+000  0.000000e+000
      vertex -1.415780e+000 -1.028624e+000  0.000000e+000
    endloop
  endfacet
  facet normal  7.431449e-001  6.691305e-001  -0.000000e+000
    outer loop
      vertex -1.170979e+000 -1.300503e+000  3.200000e+000
      vertex -1.415780e+000 -1.028624e+000  0.000000e+000
      vertex -1.415780e+000 -1.028624e+000  3.200000e+000
    endloop
  endfacet
  facet normal  8.660254e-001  5.000002e-001  0.000000e+000
    outer loop
      vertex -1.415780e+000 -1.028624e+000  3.200000e+000
      vertex -1.415780e+000 -1.028624e+000  0.000000e+000
      vertex -1.598705e+000 -7.117891e-001  0.000000e+000
    endloop
  endfacet
  facet normal  8.660254e-001  5.000002e-001  -0.000000e+000
    outer loop
      vertex -1.415780e+000 -1.028624e+000  3.200000e+000
      vertex -1.598705e+000 -7.117891e-001  0.000000e+000
      vertex -1.598705e+000 -7.117891e-001  3.200000e+000
    endloop
  endfacet
  facet normal  9.510565e-001  3.090168e-001  0.000000e+000
    outer loop
      vertex -1.598705e+000 -7.117891e-001  3.200000e+000
      vertex -1.598705e+000 -7.117891e-001  0.000000e+000
      vertex -1.711758e+000 -3.638455e-001  0.000000e+000
    endloop
  endfacet
  facet normal  9.510565e-001  3.090168e-001  -0.000000e+000
    outer loop
      vertex -1.598705e+000 -7.117891e-001  3.200000e+000
      vertex -1.711758e+000 -3.638455e-001  0.000000e+000
      vertex -1.711758e+000 -3.638455e-001  3.200000e+000
    endloop
  endfacet
  facet normal  9.945219e-001  1.045286e-001  0.000000e+000
    outer loop
      vertex -1.711758e+000 -3.638455e-001  3.200000e+000
      vertex -1.711758e+000 -3.638455e-001  0.000000e+000
      vertex -1.750000e+000  2.143061e-016  0.000000e+000
    endloop
  endfacet
  facet normal  9.945219e-001  1.045286e-001  -0.000000e+000
    outer loop
      vertex -1.711758e+000 -3.638455e-001  3.200000e+000
      vertex -1.750000e+000  2.143061e-016  0.000000e+000
      vertex -1.750000e+000  2.143061e-016  3.200000e+000
    endloop
  endfacet
  facet normal  9.969173e-001 -7.845934e-002  0.000000e+000
    outer loop
      vertex  3.000000e+000  0.000000e+000  0.000000e+000
      vertex  3.000000e+000  0.000000e+000  3.200000e+000
      vertex  2.963065e+000 -4.693034e-001  0.000000e+000
    endloop
  endfacet
  facet normal  9.969173e-001 -7.845934e-002  0.000000e+000
    outer loop
      vertex  2.963065e+000 -4.693034e-001  0.000000e+000
      vertex  3.000000e+000  0.000000e+000  3.200000e+000
      vertex  2.963065e+000 -4.693034e-001  3.200000e+000
    endloop
  endfacet
  facet normal  9.723700e-001 -2.334453e-001  0.000000e+000
    outer loop
      vertex  2.963065e+000 -4.693034e-001  0.000000e+000
      vertex  2.963065e+000 -4.693034e-001  3.200000e+000
      vertex  2.853169e+000 -9.270510e-001  0.000000e+000
    endloop
  endfacet
  facet normal  9.723700e-001 -2.334453e-001  0.000000e+000
    outer loop
      vertex  2.853169e+000 -9.270510e-001  0.000000e+000
      vertex  2.963065e+000 -4.693034e-001  3.200000e+000
      vertex  2.853169e+000 -9.270510e-001  3.200000e+000
    endloop
  endfacet
  facet normal  9.238796e-001 -3.826831e-001  0.000000e+000
    outer loop
      vertex  2.853169e+000 -9.270510e-001  0.000000e+000
      vertex  2.853169e+000 -9.270510e-001  3.200000e+000
      vertex  2.673020e+000 -1.361971e+000  0.000000e+000
    endloop
  endfacet
  facet normal  9.238796e-001 -3.826831e-001  0.000000e+000
    outer loop
      vertex  2.673020e+000 -1.361971e+000  0.000000e+000
      vertex  2.853169e+000 -9.270510e-001  3.200000e+000
      vertex  2.673020e+000 -1.361971e+000  3.200000e+000
    endloop
  endfacet
  facet normal  8.526401e-001 -5.224985e-001  0.000000e+000
    outer loop
      vertex  2.673020e+000 -1.361971e+000  0.000000e+000
      vertex  2.673020e+000 -1.361971e+000  3.200000e+000
      vertex  2.427051e+000 -1.763356e+000  0.000000e+000
    endloop
  endfacet
  facet normal  8.526401e-001 -5.224985e-001  0.000000e+000
    outer loop
      vertex  2.427051e+000 -1.763356e+000  0.000000e+000
      vertex  2.673020e+000 -1.361971e+000  3.200000e+000
      vertex  2.427051e+000 -1.763356e+000  3.200000e+000
    endloop
  endfacet
  facet normal  7.604057e-001 -6.494483e-001  0.000000e+000
    outer loop
      vertex  2.427051e+000 -1.763356e+000  0.000000e+000
      vertex  2.427051e+000 -1.763356e+000  3.200000e+000
      vertex  2.121320e+000 -2.121320e+000  0.000000e+000
    endloop
  endfacet
  facet normal  7.604057e-001 -6.494483e-001  0.000000e+000
    outer loop
      vertex  2.121320e+000 -2.121320e+000  0.000000e+000
      vertex  2.427051e+000 -1.763356e+000  3.200000e+000
      vertex  2.121320e+000 -2.121320e+000  3.200000e+000
    endloop
  endfacet
  facet normal  6.494483e-001 -7.604057e-001  0.000000e+000
    outer loop
      vertex  2.121320e+000 -2.121320e+000  0.000000e+000
      vertex  2.121320e+000 -2.121320e+000  3.200000e+000
      vertex  1.763356e+000 -2.427051e+000  0.000000e+000
    endloop
  endfacet
  facet normal  6.494483e-001 -7.604057e-001  0.000000e+000
    outer loop
      vertex  1.763356e+000 -2.427051e+000  0.000000e+000
      vertex  2.121320e+000 -2.121320e+000  3.200000e+000
      vertex  1.763356e+000 -2.427051e+000  3.200000e+000
    endloop
  endfacet
  facet normal  5.224985e-001 -8.526401e-001  0.000000e+000
    outer loop
      vertex  1.763356e+000 -2.427051e+000  0.000000e+000
      vertex  1.763356e+000 -2.427051e+000  3.200000e+000
      vertex  1.361971e+000 -2.673020e+000  0.000000e+000
    endloop
  endfacet
  facet normal  5.224985e-001 -8.526401e-001  0.000000e+000
    outer loop
      vertex  1.361971e+000 -2.673020e+000  0.000000e+000
      vertex  1.763356e+000 -2.427051e+000  3.200000e+000
      vertex  1.361971e+000 -2.673020e+000  3.200000e+000
    endloop
  endfacet
  facet normal  3.826831e-001 -9.238796e-001  0.000000e+000
    outer loop
      vertex  1.361971e+000 -2.673020e+000  0.000000e+000
      vertex  1.361971e+000 -2.673020e+000  3.200000e+000
      vertex  9.270510e-001 -2.853169e+000  0.000000e+000
    endloop
  endfacet
  facet normal  3.826831e-001 -9.238796e-001  0.000000e+000
    outer loop
      vertex  9.270510e-001 -2.853169e+000  0.000000e+000
      vertex  1.361971e+000 -2.673020e+000  3.200000e+000
      vertex  9.270510e-001 -2.853169e+000  3.200000e+000
    endloop
  endfacet
  facet normal  2.334453e-001 -9.723700e-001  0.000000e+000
    outer loop
      vertex  9.270510e-001 -2.853169e+000  0.000000e+000
      vertex  9.270510e-001 -2.853169e+000  3.200000e+000
      vertex  4.693034e-001 -2.963065e+000  0.000000e+000
    endloop
  endfacet
  facet normal  2.334453e-001 -9.723700e-001  0.000000e+000
    outer loop
      vertex  4.693034e-001 -2.963065e+000  0.000000e+000
      vertex  9.270510e-001 -2.853169e+000  3.200000e+000
      vertex  4.693034e-001 -2.963065e+000  3.200000e+000
    endloop
  endfacet
  facet normal  7.845934e-002 -9.969173e-001  0.000000e+000
    outer loop
      vertex  4.693034e-001 -2.963065e+000  0.000000e+000
      vertex  4.693034e-001 -2.963065e+000  3.200000e+000
      vertex -5.510729e-016 -3.000000e+000  0.000000e+000
    endloop
  endfacet
  facet normal  7.845934e-002 -9.969173e-001  0.000000e+000
    outer loop
      vertex -5.510729e-016 -3.000000e+000  0.000000e+000
      vertex  4.693034e-001 -2.963065e+000  3.200000e+000
      vertex -5.510729e-016 -3.000000e+000  3.200000e+000
    endloop
  endfacet
  facet normal -7.845934e-002 -9.969173e-001  -0.000000e+000
    outer loop
      vertex -5.510729e-016 -3.000000e+000  0.000000e+000
      vertex -5.510729e-016 -3.000000e+000  3.200000e+000
      vertex -4.693034e-001 -2.963065e+000  0.000000e+000
    endloop
  endfacet
  facet normal -7.845934e-002 -9.969173e-001  0.000000e+000
    outer loop
      vertex -4.693034e-001 -2.963065e+000  0.000000e+000
      vertex -5.510729e-016 -3.000000e+000  3.200000e+000
      vertex -4.693034e-001 -2.963065e+000  3.200000e+000
    endloop
  endfacet
  facet normal -2.334453e-001 -9.723700e-001  -0.000000e+000
    outer loop
      vertex -4.693034e-001 -2.963065e+000  0.000000e+000
      vertex -4.693034e-001 -2.963065e+000  3.200000e+000
      vertex -9.270510e-001 -2.853169e+000  0.000000e+000
    endloop
  endfacet
  facet normal -2.334453e-001 -9.723700e-001  0.000000e+000
    outer loop
      vertex -9.270510e-001 -2.853169e+000  0.000000e+000
      vertex -4.693034e-001 -2.963065e+000  3.200000e+000
      vertex -9.270510e-001 -2.853169e+000  3.200000e+000
    endloop
  endfacet
  facet normal -3.826831e-001 -9.238796e-001  -0.000000e+000
    outer loop
      vertex -9.270510e-001 -2.853169e+000  0.000000e+000
      vertex -9.270510e-001 -2.853169e+000  3.200000e+000
      vertex -1.361971e+000 -2.673020e+000  0.000000e+000
    endloop
  endfacet
  facet normal -3.826831e-001 -9.238796e-001  0.000000e+000
    outer loop
      vertex -1.361971e+000 -2.673020e+000  0.000000e+000
      vertex -9.270510e-001 -2.853169e+000  3.200000e+000
      vertex -1.361971e+000 -2.673020e+000  3.200000e+000
    endloop
  endfacet
  facet normal -5.224985e-001 -8.526401e-001  -0.000000e+000
    outer loop
      vertex -1.361971e+000 -2.673020e+000  0.000000e+000
      vertex -1.361971e+000 -2.673020e+000  3.200000e+000
      vertex -1.763356e+000 -2.427051e+000  0.000000e+000
    endloop
  endfacet
  facet normal -5.224985e-001 -8.526401e-001  0.000000e+000
    outer loop
      vertex -1.763356e+000 -2.427051e+000  0.000000e+000
      vertex -1.361971e+000 -2.673020e+000  3.200000e+000
      vertex -1.763356e+000 -2.427051e+000  3.200000e+000
    endloop
  endfacet
  facet normal -6.494483e-001 -7.604057e-001  -0.000000e+000
    outer loop
      vertex -1.763356e+000 -2.427051e+000  0.000000e+000
      vertex -1.763356e+000 -2.427051e+000  3.200000e+000
      vertex -2.121320e+000 -2.121320e+000  0.000000e+000
    endloop
  endfacet
  facet normal -6.494483e-001 -7.604057e-001  0.000000e+000
    outer loop
      vertex -2.121320e+000 -2.121320e+000  0.000000e+000
      vertex -1.763356e+000 -2.427051e+000  3.200000e+000
      vertex -2.121320e+000 -2.121320e+000  3.200000e+000
    endloop
  endfacet
  facet normal -7.604057e-001 -6.494483e-001  -0.000000e+000
    outer loop
      vertex -2.121320e+000 -2.121320e+000  0.000000e+000
      vertex -2.121320e+000 -2.121320e+000  3.200000e+000
      vertex -2.427051e+000 -1.763356e+000  0.000000e+000
    endloop
  endfacet
  facet normal -7.604057e-001 -6.494483e-001  0.000000e+000
    outer loop
      vertex -2.427051e+000 -1.763356e+000  0.000000e+000
      vertex -2.121320e+000 -2.121320e+000  3.200000e+000
      vertex -2.427051e+000 -1.763356e+000  3.200000e+000
    endloop
  endfacet
  facet normal -8.526401e-001 -5.224985e-001  -0.000000e+000
    outer loop
      vertex -2.427051e+000 -1.763356e+000  0.000000e+000
      vertex -2.427051e+000 -1.763356e+000  3.200000e+000
      vertex -2.673020e+000 -1.361971e+000  0.000000e+000
    endloop
  endfacet
  facet normal -8.526401e-001 -5.224985e-001  0.000000e+000
    outer loop
      vertex -2.673020e+000 -1.361971e+000  0.000000e+000
      vertex -2.427051e+000 -1.763356e+000  3.200000e+000
      vertex -2.673020e+000 -1.361971e+000  3.200000e+000
    endloop
  endfacet
  facet normal -9.238796e-001 -3.826831e-001  -0.000000e+000
    outer loop
      vertex -2.673020e+000 -1.361971e+000  0.000000e+000
      vertex -2.673020e+000 -1.361971e+000  3.200000e+000
      vertex -2.853169e+000 -9.270510e-001  0.000000e+000
    endloop
  endfacet
  facet normal -9.238796e-001 -3.826831e-001  0.000000e+000
    outer loop
      vertex -2.853169e+000 -9.270510e-001  0.000000e+000
      vertex -2.673020e+000 -1.361971e+000  3.200000e+000
      vertex -2.853169e+000 -9.270510e-001  3.200000e+000
    endloop
  endfacet
  facet normal -9.723700e-001 -2.334453e-001  -0.000000e+000
    outer loop
      vertex -2.853169e+000 -9.270510e-001  0.000000e+000
      vertex -2.853169e+000 -9.270510e-001  3.200000e+000
      vertex -2.963065e+000 -4.693034e-001  0.000000e+000
    endloop
  endfacet
  facet normal -9.723700e-001 -2.334453e-001  0.000000e+000
    outer loop
      vertex -2.963065e+000 -4.693034e-001  0.000000e+000
      vertex -2.853169e+000 -9.270510e-001  3.200000e+000
      vertex -2.963065e+000 -4.693034e-001  3.200000e+000
    endloop
  endfacet
  facet normal -9.969173e-001 -7.845934e-002  -0.000000e+000
    outer loop
      vertex -2.963065e+000 -4.693034e-001  0.000000e+000
      vertex -2.963065e+000 -4.693034e-001  3.200000e+000
      vertex -3.000000e+000  3.673819e-016  0.000000e+000
    endloop
  endfacet
  facet normal -9.969173e-001 -7.845934e-002  0.000000e+000
    outer loop
      vertex -3.000000e+000  3.673819e-016  0.000000e+000
      vertex -2.963065e+000 -4.693034e-001  3.200000e+000
      vertex -3.000000e+000  3.673819e-016  3.200000e+000
    endloop
  endfacet
  facet normal -9.969173e-001  7.845934e-002  0.000000e+000
    outer loop
      vertex -3.000000e+000  3.673819e-016  0.000000e+000
      vertex -3.000000e+000  3.673819e-016  3.200000e+000
      vertex -2.963065e+000  4.693034e-001  0.000000e+000
    endloop
  endfacet
  facet normal -9.969173e-001  7.845934e-002  0.000000e+000
    outer loop
      vertex -2.963065e+000  4.693034e-001  0.000000e+000
      vertex -3.000000e+000  3.673819e-016  3.200000e+000
      vertex -2.963065e+000  4.693034e-001  3.200000e+000
    endloop
  endfacet
  facet normal -9.723700e-001  2.334453e-001  0.000000e+000
    outer loop
      vertex -2.963065e+000  4.693034e-001  0.000000e+000
      vertex -2.963065e+000  4.693034e-001  3.200000e+000
      vertex -2.853169e+000  9.270510e-001  0.000000e+000
    endloop
  endfacet
  facet normal -9.723700e-001  2.334453e-001  0.000000e+000
    outer loop
      vertex -2.853169e+000  9.270510e-001  0.000000e+000
      vertex -2.963065e+000  4.693034e-001  3.200000e+000
      vertex -2.853169e+000  9.270510e-001  3.200000e+000
    endloop
  endfacet
  facet normal -9.238796e-001  3.826831e-001  0.000000e+000
    outer loop
      vertex -2.853169e+000  9.270510e-001  0.000000e+000
      vertex -2.853169e+000  9.270510e-001  3.200000e+000
      vertex -2.673020e+000  1.361971e+000  0.000000e+000
    endloop
  endfacet
  facet normal -9.238796e-001  3.826831e-001  0.000000e+000
    outer loop
      vertex -2.673020e+000  1.361971e+000  0.000000e+000
      vertex -2.853169e+000  9.270510e-001  3.200000e+000
      vertex -2.673020e+000  1.361971e+000  3.200000e+000
    endloop
  endfacet
  facet normal -8.526401e-001  5.224985e-001  0.000000e+000
    outer loop
      vertex -2.673020e+000  1.361971e+000  0.000000e+000
      vertex -2.673020e+000  1.361971e+000  3.200000e+000
      vertex -2.427051e+000  1.763356e+000  0.000000e+000
    endloop
  endfacet
  facet normal -8.526401e-001  5.224985e-001  0.000000e+000
    outer loop
      vertex -2.427051e+000  1.763356e+000  0.000000e+000
      vertex -2.673020e+000  1.361971e+000  3.200000e+000
      vertex -2.427051e+000  1.763356e+000  3.200000e+000
    endloop
  endfacet
  facet normal -7.604057e-001  6.494483e-001  0.000000e+000
    outer loop
      vertex -2.427051e+000  1.763356e+000  0.000000e+000
      vertex -2.427051e+000  1.763356e+000  3.200000e+000
      vertex -2.121320e+000  2.121320e+000  0.000000e+000
    endloop
  endfacet
  facet normal -7.604057e-001  6.494483e-001  0.000000e+000
    outer loop
      vertex -2.121320e+000  2.121320e+000  0.000000e+000
      vertex -2.427051e+000  1.763356e+000  3.200000e+000
      vertex -2.121320e+000  2.121320e+000  3.200000e+000
    endloop
  endfacet
  facet normal -6.494483e-001  7.604057e-001  0.000000e+000
    outer loop
      vertex -2.121320e+000  2.121320e+000  0.000000e+000
      vertex -2.121320e+000  2.121320e+000  3.200000e+000
      vertex -1.763356e+000  2.427051e+000  0.000000e+000
    endloop
  endfacet
  facet normal -6.494483e-001  7.604057e-001  0.000000e+000
    outer loop
      vertex -1.763356e+000  2.427051e+000  0.000000e+000
      vertex -2.121320e+000  2.121320e+000  3.200000e+000
      vertex -1.763356e+000  2.427051e+000  3.200000e+000
    endloop
  endfacet
  facet normal -5.224985e-001  8.526401e-001  0.000000e+000
    outer loop
      vertex -1.763356e+000  2.427051e+000  0.000000e+000
      vertex -1.763356e+000  2.427051e+000  3.200000e+000
      vertex -1.361971e+000  2.673020e+000  0.000000e+000
    endloop
  endfacet
  facet normal -5.224985e-001  8.526401e-001  0.000000e+000
    outer loop
      vertex -1.361971e+000  2.673020e+000  0.000000e+000
      vertex -1.763356e+000  2.427051e+000  3.200000e+000
      vertex -1.361971e+000  2.673020e+000  3.200000e+000
    endloop
  endfacet
  facet normal -3.826831e-001  9.238796e-001  0.000000e+000
    outer loop
      vertex -1.361971e+000  2.673020e+000  0.000000e+000
      vertex -1.361971e+000  2.673020e+000  3.200000e+000
      vertex -9.270510e-001  2.853169e+000  0.000000e+000
    endloop
  endfacet
  facet normal -3.826831e-001  9.238796e-001  0.000000e+000
    outer loop
      vertex -9.270510e-001  2.853169e+000  0.000000e+000
      vertex -1.361971e+000  2.673020e+000  3.200000e+000
      vertex -9.270510e-001  2.853169e+000  3.200000e+000
    endloop
  endfacet
  facet normal -2.334453e-001  9.723700e-001  0.000000e+000
    outer loop
      vertex -9.270510e-001  2.853169e+000  0.000000e+000
      vertex -9.270510e-001  2.853169e+000  3.200000e+000
      vertex -4.693034e-001  2.963065e+000  0.000000e+000
    endloop
  endfacet
  facet normal -2.334453e-001  9.723700e-001  0.000000e+000
    outer loop
      vertex -4.693034e-001  2.963065e+000  0.000000e+000
      vertex -9.270510e-001  2.853169e+000  3.200000e+000
      vertex -4.693034e-001  2.963065e+000  3.200000e+000
    endloop
  endfacet
  facet normal -7.845934e-002  9.969173e-001  0.000000e+000
    outer loop
      vertex -4.693034e-001  2.963065e+000  0.000000e+000
      vertex -4.693034e-001  2.963065e+000  3.200000e+000
      vertex  1.836910e-016  3.000000e+000  0.000000e+000
    endloop
  endfacet
  facet normal -7.845934e-002  9.969173e-001  0.000000e+000
    outer loop
      vertex  1.836910e-016  3.000000e+000  0.000000e+000
      vertex -4.693034e-001  2.963065e+000  3.200000e+000
      vertex  1.836910e-016  3.000000e+000  3.200000e+000
    endloop
  endfacet
  facet normal  7.845934e-002  9.969173e-001  0.000000e+000
    outer loop
      vertex  1.836910e-016  3.000000e+000  0.000000e+000
      vertex  1.836910e-016  3.000000e+000  3.200000e+000
      vertex  4.693034e-001  2.963065e+000  0.000000e+000
    endloop
  endfacet
  facet normal  7.845934e-002  9.969173e-001  -0.000000e+000
    outer loop
      vertex  4.693034e-001  2.963065e+000  0.000000e+000
      vertex  1.836910e-016  3.000000e+000  3.200000e+000
      vertex  4.693034e-001  2.963065e+000  3.200000e+000
    endloop
  endfacet
  facet normal  2.334453e-001  9.723700e-001  0.000000e+000
    outer loop
      vertex  4.693034e-001  2.963065e+000  0.000000e+000
      vertex  4.693034e-001  2.963065e+000  3.200000e+000
      vertex  9.270510e-001  2.853169e+000  0.000000e+000
    endloop
  endfacet
  facet normal  2.334453e-001  9.723700e-001  -0.000000e+000
    outer loop
      vertex  9.270510e-001  2.853169e+000  0.000000e+000
      vertex  4.693034e-001  2.963065e+000  3.200000e+000
      vertex  9.270510e-001  2.853169e+000  3.200000e+000
    endloop
  endfacet
  facet normal  3.826831e-001  9.238796e-001  0.000000e+000
    outer loop
      vertex  9.270510e-001  2.853169e+000  0.000000e+000
      vertex  9.270510e-001  2.853169e+000  3.200000e+000
      vertex  1.361971e+000  2.673020e+000  0.000000e+000
    endloop
  endfacet
  facet normal  3.826831e-001  9.238796e-001  -0.000000e+000
    outer loop
      vertex  1.361971e+000  2.673020e+000  0.000000e+000
      vertex  9.270510e-001  2.853169e+000  3.200000e+000
      vertex  1.361971e+000  2.673020e+000  3.200000e+000
    endloop
  endfacet
  facet normal  5.224985e-001  8.526401e-001  0.000000e+000
    outer loop
      vertex  1.361971e+000  2.673020e+000  0.000000e+000
      vertex  1.361971e+000  2.673020e+000  3.200000e+000
      vertex  1.763356e+000  2.427051e+000  0.000000e+000
    endloop
  endfacet
  facet normal  5.224985e-001  8.526401e-001  -0.000000e+000
    outer loop
      vertex  1.763356e+000  2.427051e+000  0.000000e+000
      vertex  1.361971e+000  2.673020e+000  3.200000e+000
      vertex  1.763356e+000  2.427051e+000  3.200000e+000
    endloop
  endfacet
  facet normal  6.494483e-001  7.604057e-001  0.000000e+000
    outer loop
      vertex  1.763356e+000  2.427051e+000  0.000000e+000
      vertex  1.763356e+000  2.427051e+000  3.200000e+000
      vertex  2.121320e+000  2.121320e+000  0.000000e+000
    endloop
  endfacet
  facet normal  6.494483e-001  7.604057e-001  -0.000000e+000
    outer loop
      vertex  2.121320e+000  2.121320e+000  0.000000e+000
      vertex  1.763356e+000  2.427051e+000  3.200000e+000
      vertex  2.121320e+000  2.121320e+000  3.200000e+000
    endloop
  endfacet
  facet normal  7.604057e-001  6.494483e-001  0.000000e+000
    outer loop
      vertex  2.121320e+000  2.121320e+000  0.000000e+000
      vertex  2.121320e+000  2.121320e+000  3.200000e+000
      vertex  2.427051e+000  1.763356e+000  0.000000e+000
    endloop
  endfacet
  facet normal  7.604057e-001  6.494483e-001  -0.000000e+000
    outer loop
      vertex  2.427051e+000  1.763356e+000  0.000000e+000
      vertex  2.121320e+000  2.121320e+000  3.200000e+000
      vertex  2.427051e+000  1.763356e+000  3.200000e+000
    endloop
  endfacet
  facet normal  8.526401e-001  5.224985e-001  0.000000e+000
    outer loop
      vertex  2.427051e+000  1.763356e+000  0.000000e+000
      vertex  2.427051e+000  1.763356e+000  3.200000e+000
      vertex  2.673020e+000  1.361971e+000  0.000000e+000
    endloop
  endfacet
  facet normal  8.526401e-001  5.224985e-001  -0.000000e+000
    outer loop
      vertex  2.673020e+000  1.361971e+000  0.000000e+000
      vertex  2.427051e+000  1.763356e+000  3.200000e+000
      vertex  2.673020e+000  1.361971e+000  3.200000e+000
    endloop
  endfacet
  facet normal  9.238796e-001  3.826831e-001  0.000000e+000
    outer loop
      vertex  2.673020e+000  1.361971e+000  0.000000e+000
      vertex  2.673020e+000  1.361971e+000  3.200000e+000
      vertex  2.853169e+000  9.270510e-001  0.000000e+000
    endloop
  endfacet
  facet normal  9.238796e-001  3.826831e-001  -0.000000e+000
    outer loop
      vertex  2.853169e+000  9.270510e-001  0.000000e+000
      vertex  2.673020e+000  1.361971e+000  3.200000e+000
      vertex  2.853169e+000  9.270510e-001  3.200000e+000
    endloop
  endfacet
  facet normal  9.723700e-001  2.334453e-001  0.000000e+000
    outer loop
      vertex  2.853169e+000  9.270510e-001  0.000000e+000
      vertex  2.853169e+000  9.270510e-001  3.200000e+000
      vertex  2.963065e+000  4.693034e-001  0.000000e+000
    endloop
  endfacet
  facet normal  9.723700e-001  2.334453e-001  -0.000000e+000
    outer loop
      vertex  2.963065e+000  4.693034e-001  0.000000e+000
      vertex  2.853169e+000  9.270510e-001  3.200000e+000
      vertex  2.963065e+000  4.693034e-001  3.200000e+000
    endloop
  endfacet
  facet normal  9.969173e-001  7.845934e-002  0.000000e+000
    outer loop
      vertex  2.963065e+000  4.693034e-001  0.000000e+000
      vertex  2.963065e+000  4.693034e-001  3.200000e+000
      vertex  3.000000e+000  0.000000e+000  0.000000e+000
    endloop
  endfacet
  facet normal  9.969173e-001  7.845934e-002  -0.000000e+000
    outer loop
      vertex  3.000000e+000  0.000000e+000  0.000000e+000
      vertex  2.963065e+000  4.693034e-001  3.200000e+000
      vertex  3.000000e+000  0.000000e+000  3.200000e+000
    endloop
  endfacet
endsolid CATIA STL
