G04 Layer_Physical_Order=2*
G04 Layer_Color=16711680*
%FSLAX25Y25*%
%MOIN*%
G70*
G01*
G75*
%ADD21C,0.01500*%
%ADD22C,0.01000*%
%ADD24R,0.05905X0.05905*%
%ADD25C,0.05905*%
%ADD26R,0.05905X0.05905*%
%ADD27C,0.06000*%
%ADD28O,0.06890X0.09842*%
%ADD29C,0.23622*%
%ADD30C,0.01968*%
G36*
X378858Y266931D02*
X384876Y260913D01*
X389667Y255802D01*
Y19993D01*
X384876Y14882D01*
X378858Y8864D01*
X373747Y4073D01*
X19828D01*
X14717Y8864D01*
X8699Y14882D01*
X3908Y19993D01*
Y48964D01*
X4408Y49105D01*
X5352Y47565D01*
X6661Y46031D01*
X8195Y44722D01*
X9914Y43668D01*
X11777Y42897D01*
X13738Y42426D01*
X15748Y42268D01*
X17758Y42426D01*
X19719Y42897D01*
X21582Y43668D01*
X23301Y44722D01*
X24835Y46031D01*
X26144Y47565D01*
X27198Y49284D01*
X27970Y51147D01*
X28440Y53108D01*
X28599Y55118D01*
X28440Y57129D01*
X27970Y59089D01*
X27198Y60952D01*
X26144Y62672D01*
X24835Y64205D01*
X23301Y65515D01*
X21582Y66568D01*
X19719Y67340D01*
X17758Y67811D01*
X15748Y67969D01*
X13738Y67811D01*
X11777Y67340D01*
X9914Y66568D01*
X8195Y65515D01*
X6661Y64205D01*
X5352Y62672D01*
X4408Y61132D01*
X3908Y61273D01*
Y195422D01*
Y218255D01*
X4408Y218396D01*
X5352Y216856D01*
X6661Y215323D01*
X8195Y214013D01*
X9914Y212959D01*
X11777Y212188D01*
X13738Y211717D01*
X15748Y211559D01*
X17758Y211717D01*
X19719Y212188D01*
X21582Y212959D01*
X23301Y214013D01*
X24835Y215323D01*
X26144Y216856D01*
X27198Y218575D01*
X27970Y220438D01*
X28440Y222399D01*
X28599Y224409D01*
X28440Y226420D01*
X27970Y228380D01*
X27198Y230243D01*
X26144Y231963D01*
X24835Y233496D01*
X23301Y234806D01*
X21582Y235859D01*
X19719Y236631D01*
X17758Y237102D01*
X15748Y237260D01*
X13738Y237102D01*
X11777Y236631D01*
X9914Y235859D01*
X8195Y234806D01*
X6661Y233496D01*
X5352Y231963D01*
X4408Y230423D01*
X3908Y230564D01*
Y255802D01*
X8699Y260913D01*
X14717Y266931D01*
X19828Y271722D01*
X373747D01*
X378858Y266931D01*
D02*
G37*
%LPC*%
G36*
X27214Y190500D02*
X25000D01*
Y188286D01*
X25219Y188315D01*
X25890Y188593D01*
X26465Y189034D01*
X26907Y189610D01*
X27185Y190281D01*
X27214Y190500D01*
D02*
G37*
G36*
X150000Y87534D02*
X148956Y87397D01*
X147983Y86994D01*
X147147Y86353D01*
X146506Y85517D01*
X146103Y84544D01*
X145966Y83500D01*
X146103Y82456D01*
X146506Y81483D01*
X147147Y80647D01*
X147983Y80006D01*
X148956Y79603D01*
X150000Y79466D01*
X151044Y79603D01*
X152017Y80006D01*
X152853Y80647D01*
X153494Y81483D01*
X153897Y82456D01*
X154034Y83500D01*
X153897Y84544D01*
X153494Y85517D01*
X152853Y86353D01*
X152017Y86994D01*
X151044Y87397D01*
X150000Y87534D01*
D02*
G37*
G36*
X160000D02*
X158956Y87397D01*
X157983Y86994D01*
X157147Y86353D01*
X156506Y85517D01*
X156103Y84544D01*
X155965Y83500D01*
X156103Y82456D01*
X156506Y81483D01*
X157147Y80647D01*
X157983Y80006D01*
X158956Y79603D01*
X160000Y79466D01*
X161044Y79603D01*
X162017Y80006D01*
X162853Y80647D01*
X163494Y81483D01*
X163897Y82456D01*
X164034Y83500D01*
X163897Y84544D01*
X163494Y85517D01*
X162853Y86353D01*
X162017Y86994D01*
X161044Y87397D01*
X160000Y87534D01*
D02*
G37*
G36*
X18453Y194953D02*
X10547D01*
Y187047D01*
X18453D01*
Y194953D01*
D02*
G37*
G36*
X24000Y190500D02*
X21786D01*
X21815Y190281D01*
X22093Y189610D01*
X22535Y189034D01*
X23110Y188593D01*
X23781Y188315D01*
X24000Y188286D01*
Y190500D01*
D02*
G37*
G36*
X140000Y87534D02*
X138956Y87397D01*
X137983Y86994D01*
X137147Y86353D01*
X136506Y85517D01*
X136103Y84544D01*
X135966Y83500D01*
X136103Y82456D01*
X136506Y81483D01*
X137147Y80647D01*
X137983Y80006D01*
X138956Y79603D01*
X140000Y79466D01*
X141044Y79603D01*
X142017Y80006D01*
X142853Y80647D01*
X143494Y81483D01*
X143897Y82456D01*
X144035Y83500D01*
X143897Y84544D01*
X143494Y85517D01*
X142853Y86353D01*
X142017Y86994D01*
X141044Y87397D01*
X140000Y87534D01*
D02*
G37*
G36*
X120000D02*
X118956Y87397D01*
X117983Y86994D01*
X117147Y86353D01*
X116506Y85517D01*
X116103Y84544D01*
X115965Y83500D01*
X116103Y82456D01*
X116506Y81483D01*
X117147Y80647D01*
X117983Y80006D01*
X118956Y79603D01*
X120000Y79466D01*
X121044Y79603D01*
X122017Y80006D01*
X122853Y80647D01*
X123494Y81483D01*
X123897Y82456D01*
X124035Y83500D01*
X123897Y84544D01*
X123494Y85517D01*
X122853Y86353D01*
X122017Y86994D01*
X121044Y87397D01*
X120000Y87534D01*
D02*
G37*
G36*
X110500Y76262D02*
Y74000D01*
X112761D01*
X112731Y74232D01*
X112449Y74914D01*
X111999Y75499D01*
X111414Y75949D01*
X110732Y76231D01*
X110500Y76262D01*
D02*
G37*
G36*
X109500D02*
X109268Y76231D01*
X108586Y75949D01*
X108001Y75499D01*
X107551Y74914D01*
X107269Y74232D01*
X107238Y74000D01*
X109500D01*
Y76262D01*
D02*
G37*
G36*
X24000Y193714D02*
X23781Y193685D01*
X23110Y193407D01*
X22535Y192965D01*
X22093Y192390D01*
X21815Y191719D01*
X21786Y191500D01*
X24000D01*
Y193714D01*
D02*
G37*
G36*
X25000D02*
Y191500D01*
X27214D01*
X27185Y191719D01*
X26907Y192390D01*
X26465Y192965D01*
X25890Y193407D01*
X25219Y193685D01*
X25000Y193714D01*
D02*
G37*
G36*
X130000Y87534D02*
X128956Y87397D01*
X127983Y86994D01*
X127147Y86353D01*
X126506Y85517D01*
X126103Y84544D01*
X125965Y83500D01*
X126103Y82456D01*
X126506Y81483D01*
X127147Y80647D01*
X127983Y80006D01*
X128956Y79603D01*
X130000Y79466D01*
X131044Y79603D01*
X132017Y80006D01*
X132853Y80647D01*
X133494Y81483D01*
X133897Y82456D01*
X134035Y83500D01*
X133897Y84544D01*
X133494Y85517D01*
X132853Y86353D01*
X132017Y86994D01*
X131044Y87397D01*
X130000Y87534D01*
D02*
G37*
G36*
X170000D02*
X168956Y87397D01*
X167983Y86994D01*
X167147Y86353D01*
X166506Y85517D01*
X166103Y84544D01*
X165965Y83500D01*
X166103Y82456D01*
X166506Y81483D01*
X167147Y80647D01*
X167983Y80006D01*
X168956Y79603D01*
X170000Y79466D01*
X171044Y79603D01*
X172017Y80006D01*
X172853Y80647D01*
X173494Y81483D01*
X173897Y82456D01*
X174035Y83500D01*
X173897Y84544D01*
X173494Y85517D01*
X172853Y86353D01*
X172017Y86994D01*
X171044Y87397D01*
X170000Y87534D01*
D02*
G37*
G36*
X109500Y86261D02*
X109268Y86231D01*
X108586Y85949D01*
X108001Y85499D01*
X107551Y84914D01*
X107269Y84232D01*
X107238Y84000D01*
X109500D01*
Y86261D01*
D02*
G37*
G36*
X110500D02*
Y84000D01*
X112761D01*
X112731Y84232D01*
X112449Y84914D01*
X111999Y85499D01*
X111414Y85949D01*
X110732Y86231D01*
X110500Y86261D01*
D02*
G37*
G36*
X230000Y87534D02*
X228956Y87397D01*
X227983Y86994D01*
X227147Y86353D01*
X226506Y85517D01*
X226103Y84544D01*
X225965Y83500D01*
X226103Y82456D01*
X226506Y81483D01*
X227147Y80647D01*
X227983Y80006D01*
X228956Y79603D01*
X230000Y79466D01*
X231044Y79603D01*
X232017Y80006D01*
X232853Y80647D01*
X233494Y81483D01*
X233897Y82456D01*
X234034Y83500D01*
X233897Y84544D01*
X233494Y85517D01*
X232853Y86353D01*
X232017Y86994D01*
X231044Y87397D01*
X230000Y87534D01*
D02*
G37*
G36*
X280000D02*
X278956Y87397D01*
X277983Y86994D01*
X277147Y86353D01*
X276506Y85517D01*
X276103Y84544D01*
X275965Y83500D01*
X276103Y82456D01*
X276506Y81483D01*
X277147Y80647D01*
X277983Y80006D01*
X278956Y79603D01*
X280000Y79466D01*
X281044Y79603D01*
X282017Y80006D01*
X282853Y80647D01*
X283494Y81483D01*
X283897Y82456D01*
X284034Y83500D01*
X283897Y84544D01*
X283494Y85517D01*
X282853Y86353D01*
X282017Y86994D01*
X281044Y87397D01*
X280000Y87534D01*
D02*
G37*
G36*
X109500Y83000D02*
X107238D01*
X107269Y82768D01*
X107551Y82086D01*
X108001Y81501D01*
X108586Y81051D01*
X109268Y80769D01*
X109500Y80739D01*
Y83000D01*
D02*
G37*
G36*
X112761D02*
X110500D01*
Y80739D01*
X110732Y80769D01*
X111414Y81051D01*
X111999Y81501D01*
X112449Y82086D01*
X112731Y82768D01*
X112761Y83000D01*
D02*
G37*
G36*
X190000Y87534D02*
X188956Y87397D01*
X187983Y86994D01*
X187147Y86353D01*
X186506Y85517D01*
X186103Y84544D01*
X185966Y83500D01*
X186103Y82456D01*
X186506Y81483D01*
X187147Y80647D01*
X187983Y80006D01*
X188956Y79603D01*
X190000Y79466D01*
X191044Y79603D01*
X192017Y80006D01*
X192853Y80647D01*
X193494Y81483D01*
X193897Y82456D01*
X194035Y83500D01*
X193897Y84544D01*
X193494Y85517D01*
X192853Y86353D01*
X192017Y86994D01*
X191044Y87397D01*
X190000Y87534D01*
D02*
G37*
G36*
X180000D02*
X178956Y87397D01*
X177983Y86994D01*
X177147Y86353D01*
X176506Y85517D01*
X176103Y84544D01*
X175965Y83500D01*
X176103Y82456D01*
X176506Y81483D01*
X177147Y80647D01*
X177983Y80006D01*
X178956Y79603D01*
X180000Y79466D01*
X181044Y79603D01*
X182017Y80006D01*
X182853Y80647D01*
X183494Y81483D01*
X183897Y82456D01*
X184035Y83500D01*
X183897Y84544D01*
X183494Y85517D01*
X182853Y86353D01*
X182017Y86994D01*
X181044Y87397D01*
X180000Y87534D01*
D02*
G37*
G36*
X14500Y184987D02*
X13468Y184851D01*
X12507Y184453D01*
X11681Y183819D01*
X11047Y182993D01*
X10649Y182032D01*
X10513Y181000D01*
X10649Y179968D01*
X11047Y179007D01*
X11681Y178181D01*
X12507Y177547D01*
X13468Y177149D01*
X14500Y177013D01*
X15532Y177149D01*
X16493Y177547D01*
X17319Y178181D01*
X17953Y179007D01*
X18351Y179968D01*
X18487Y181000D01*
X18351Y182032D01*
X17953Y182993D01*
X17319Y183819D01*
X16493Y184453D01*
X15532Y184851D01*
X14500Y184987D01*
D02*
G37*
G36*
X220000Y87534D02*
X218956Y87397D01*
X217983Y86994D01*
X217147Y86353D01*
X216506Y85517D01*
X216103Y84544D01*
X215966Y83500D01*
X216103Y82456D01*
X216506Y81483D01*
X217147Y80647D01*
X217983Y80006D01*
X218956Y79603D01*
X220000Y79466D01*
X221044Y79603D01*
X222017Y80006D01*
X222853Y80647D01*
X223494Y81483D01*
X223897Y82456D01*
X224035Y83500D01*
X223897Y84544D01*
X223494Y85517D01*
X222853Y86353D01*
X222017Y86994D01*
X221044Y87397D01*
X220000Y87534D01*
D02*
G37*
G36*
X210000D02*
X208956Y87397D01*
X207983Y86994D01*
X207147Y86353D01*
X206506Y85517D01*
X206103Y84544D01*
X205965Y83500D01*
X206103Y82456D01*
X206506Y81483D01*
X207147Y80647D01*
X207983Y80006D01*
X208956Y79603D01*
X210000Y79466D01*
X211044Y79603D01*
X212017Y80006D01*
X212853Y80647D01*
X213494Y81483D01*
X213897Y82456D01*
X214035Y83500D01*
X213897Y84544D01*
X213494Y85517D01*
X212853Y86353D01*
X212017Y86994D01*
X211044Y87397D01*
X210000Y87534D01*
D02*
G37*
G36*
X200000D02*
X198956Y87397D01*
X197983Y86994D01*
X197147Y86353D01*
X196506Y85517D01*
X196103Y84544D01*
X195966Y83500D01*
X196103Y82456D01*
X196506Y81483D01*
X197147Y80647D01*
X197983Y80006D01*
X198956Y79603D01*
X200000Y79466D01*
X201044Y79603D01*
X202017Y80006D01*
X202853Y80647D01*
X203494Y81483D01*
X203897Y82456D01*
X204034Y83500D01*
X203897Y84544D01*
X203494Y85517D01*
X202853Y86353D01*
X202017Y86994D01*
X201044Y87397D01*
X200000Y87534D01*
D02*
G37*
G36*
X166085Y35129D02*
X47600D01*
X47015Y35013D01*
X46519Y34681D01*
X39919Y28081D01*
X39587Y27585D01*
X39471Y27000D01*
Y21402D01*
X38758Y21107D01*
X37830Y20394D01*
X37117Y19466D01*
X36669Y18385D01*
X36517Y17224D01*
Y14272D01*
X36669Y13111D01*
X37117Y12030D01*
X37830Y11101D01*
X38758Y10389D01*
X39840Y9941D01*
X41000Y9788D01*
X42160Y9941D01*
X43242Y10389D01*
X44170Y11101D01*
X44883Y12030D01*
X45331Y13111D01*
X45483Y14272D01*
Y17224D01*
X45331Y18385D01*
X44883Y19466D01*
X44170Y20394D01*
X43242Y21107D01*
X42529Y21402D01*
Y26366D01*
X48234Y32071D01*
X64454D01*
X64646Y31609D01*
X59919Y26881D01*
X59587Y26385D01*
X59471Y25800D01*
Y21402D01*
X58758Y21107D01*
X57830Y20394D01*
X57117Y19466D01*
X56669Y18385D01*
X56517Y17224D01*
Y14272D01*
X56669Y13111D01*
X57117Y12030D01*
X57830Y11101D01*
X58758Y10389D01*
X59314Y10159D01*
X59214Y9659D01*
X53448D01*
X53263Y9874D01*
X53257Y10018D01*
X53354Y10475D01*
X54170Y11101D01*
X54883Y12030D01*
X55330Y13111D01*
X55483Y14272D01*
Y17224D01*
X55330Y18385D01*
X54883Y19466D01*
X54170Y20394D01*
X53242Y21107D01*
X52160Y21555D01*
X51000Y21708D01*
X49840Y21555D01*
X48758Y21107D01*
X47830Y20394D01*
X47117Y19466D01*
X46670Y18385D01*
X46517Y17224D01*
Y14272D01*
X46670Y13111D01*
X47117Y12030D01*
X47830Y11101D01*
X48758Y10389D01*
X49471Y10094D01*
Y9700D01*
X49587Y9115D01*
X49919Y8619D01*
X51489Y7048D01*
X51985Y6717D01*
X52570Y6600D01*
X168445D01*
X169030Y6717D01*
X169526Y7048D01*
X173504Y11026D01*
X173968Y10834D01*
X175000Y10698D01*
X176032Y10834D01*
X176993Y11232D01*
X177819Y11866D01*
X178453Y12692D01*
X178851Y13653D01*
X178987Y14685D01*
X178851Y15717D01*
X178453Y16678D01*
X177819Y17504D01*
X176993Y18138D01*
X176032Y18536D01*
X175000Y18672D01*
X173968Y18536D01*
X173007Y18138D01*
X172181Y17504D01*
X171547Y16678D01*
X171149Y15717D01*
X171013Y14685D01*
X171149Y13653D01*
X171341Y13189D01*
X167811Y9659D01*
X162790D01*
X162599Y10121D01*
X163504Y11026D01*
X163968Y10834D01*
X165000Y10698D01*
X166032Y10834D01*
X166993Y11232D01*
X167819Y11866D01*
X168453Y12692D01*
X168851Y13653D01*
X168987Y14685D01*
X168851Y15717D01*
X168453Y16678D01*
X167819Y17504D01*
X166993Y18138D01*
X166032Y18536D01*
X165000Y18672D01*
X163968Y18536D01*
X163007Y18138D01*
X162181Y17504D01*
X161547Y16678D01*
X161149Y15717D01*
X161013Y14685D01*
X161149Y13653D01*
X161341Y13189D01*
X159410Y11258D01*
X157804D01*
X157643Y11731D01*
X157819Y11866D01*
X158453Y12692D01*
X158851Y13653D01*
X158987Y14685D01*
X158851Y15717D01*
X158453Y16678D01*
X157819Y17504D01*
X156993Y18138D01*
X156032Y18536D01*
X155000Y18672D01*
X153968Y18536D01*
X153504Y18344D01*
X150629Y21218D01*
Y23769D01*
X151129Y23802D01*
X151149Y23653D01*
X151547Y22692D01*
X152181Y21866D01*
X153007Y21232D01*
X153968Y20834D01*
X155000Y20698D01*
X156032Y20834D01*
X156993Y21232D01*
X157819Y21866D01*
X158453Y22692D01*
X158851Y23653D01*
X158987Y24685D01*
X158851Y25717D01*
X158453Y26678D01*
X157819Y27504D01*
X156993Y28138D01*
X156032Y28536D01*
X155000Y28672D01*
X153968Y28536D01*
X153504Y28344D01*
X151906Y29942D01*
X152097Y30404D01*
X157118D01*
X161341Y26181D01*
X161149Y25717D01*
X161013Y24685D01*
X161149Y23653D01*
X161547Y22692D01*
X162181Y21866D01*
X163007Y21232D01*
X163968Y20834D01*
X165000Y20698D01*
X166032Y20834D01*
X166993Y21232D01*
X167819Y21866D01*
X168453Y22692D01*
X168851Y23653D01*
X168987Y24685D01*
X168851Y25717D01*
X168453Y26678D01*
X167819Y27504D01*
X166993Y28138D01*
X166032Y28536D01*
X165000Y28672D01*
X163968Y28536D01*
X163504Y28344D01*
X160239Y31609D01*
X160431Y32071D01*
X165452D01*
X171341Y26181D01*
X171149Y25717D01*
X171013Y24685D01*
X171149Y23653D01*
X171547Y22692D01*
X172181Y21866D01*
X173007Y21232D01*
X173968Y20834D01*
X175000Y20698D01*
X176032Y20834D01*
X176993Y21232D01*
X177819Y21866D01*
X178453Y22692D01*
X178851Y23653D01*
X178987Y24685D01*
X178851Y25717D01*
X178453Y26678D01*
X177819Y27504D01*
X176993Y28138D01*
X176032Y28536D01*
X175000Y28672D01*
X173968Y28536D01*
X173504Y28344D01*
X167166Y34681D01*
X166670Y35013D01*
X166085Y35129D01*
D02*
G37*
G36*
X106500Y264714D02*
X106281Y264685D01*
X105610Y264407D01*
X105034Y263966D01*
X104593Y263390D01*
X104315Y262719D01*
X104286Y262500D01*
X106500D01*
Y264714D01*
D02*
G37*
G36*
X374016Y67969D02*
X372006Y67811D01*
X370045Y67340D01*
X368182Y66568D01*
X366462Y65515D01*
X364929Y64205D01*
X363619Y62672D01*
X362566Y60952D01*
X361794Y59089D01*
X361323Y57129D01*
X361165Y55118D01*
X361323Y53108D01*
X361794Y51147D01*
X362566Y49284D01*
X363619Y47565D01*
X364929Y46031D01*
X366462Y44722D01*
X368182Y43668D01*
X370045Y42897D01*
X372006Y42426D01*
X374016Y42268D01*
X376026Y42426D01*
X377987Y42897D01*
X379850Y43668D01*
X381569Y44722D01*
X383103Y46031D01*
X384412Y47565D01*
X385466Y49284D01*
X386238Y51147D01*
X386708Y53108D01*
X386866Y55118D01*
X386708Y57129D01*
X386238Y59089D01*
X385466Y60952D01*
X384412Y62672D01*
X383103Y64205D01*
X381569Y65515D01*
X379850Y66568D01*
X377987Y67340D01*
X376026Y67811D01*
X374016Y67969D01*
D02*
G37*
G36*
X107500Y264714D02*
Y262500D01*
X109714D01*
X109685Y262719D01*
X109407Y263390D01*
X108966Y263966D01*
X108390Y264407D01*
X107719Y264685D01*
X107500Y264714D01*
D02*
G37*
G36*
X309700Y92029D02*
X277000D01*
X276415Y91913D01*
X275919Y91581D01*
X271532Y87195D01*
X271044Y87397D01*
X270000Y87534D01*
X268956Y87397D01*
X267983Y86994D01*
X267147Y86353D01*
X266506Y85517D01*
X266103Y84544D01*
X265966Y83500D01*
X266103Y82456D01*
X266506Y81483D01*
X267147Y80647D01*
X267983Y80006D01*
X268956Y79603D01*
X270000Y79466D01*
X271044Y79603D01*
X272017Y80006D01*
X272853Y80647D01*
X273494Y81483D01*
X273897Y82456D01*
X274035Y83500D01*
X273897Y84544D01*
X273695Y85032D01*
X277634Y88971D01*
X309067D01*
X354071Y43966D01*
Y20288D01*
X353622Y20067D01*
X353242Y20359D01*
X352529Y20654D01*
Y29200D01*
X352413Y29785D01*
X352081Y30281D01*
X348681Y33681D01*
X348185Y34013D01*
X347600Y34129D01*
X273400D01*
X272815Y34013D01*
X272319Y33681D01*
X260566Y21929D01*
X253433D01*
X253212Y22378D01*
X253453Y22692D01*
X253851Y23653D01*
X253987Y24685D01*
X253851Y25717D01*
X253659Y26181D01*
X288248Y60771D01*
X299600D01*
X300185Y60887D01*
X300681Y61219D01*
X305281Y65819D01*
X305613Y66315D01*
X305729Y66900D01*
Y79300D01*
X305613Y79885D01*
X305281Y80381D01*
X303695Y81968D01*
X303897Y82456D01*
X304034Y83500D01*
X303897Y84544D01*
X303494Y85517D01*
X302853Y86353D01*
X302017Y86994D01*
X301044Y87397D01*
X300000Y87534D01*
X298956Y87397D01*
X297983Y86994D01*
X297147Y86353D01*
X296506Y85517D01*
X296103Y84544D01*
X295966Y83500D01*
X296103Y82456D01*
X296506Y81483D01*
X297147Y80647D01*
X297983Y80006D01*
X298956Y79603D01*
X300000Y79466D01*
X301044Y79603D01*
X301532Y79805D01*
X302671Y78667D01*
Y77058D01*
X302222Y76837D01*
X302017Y76994D01*
X301044Y77397D01*
X300000Y77535D01*
X298956Y77397D01*
X297983Y76994D01*
X297147Y76353D01*
X296506Y75517D01*
X296103Y74544D01*
X295966Y73500D01*
X296103Y72456D01*
X296506Y71483D01*
X297147Y70647D01*
X297983Y70006D01*
X298956Y69603D01*
X300000Y69466D01*
X301044Y69603D01*
X302017Y70006D01*
X302222Y70163D01*
X302671Y69942D01*
Y67533D01*
X298967Y63829D01*
X287615D01*
X287030Y63713D01*
X286534Y63381D01*
X251496Y28344D01*
X251032Y28536D01*
X250000Y28672D01*
X248968Y28536D01*
X248007Y28138D01*
X247181Y27504D01*
X246547Y26678D01*
X246149Y25717D01*
X246013Y24685D01*
X246149Y23653D01*
X246547Y22692D01*
X246788Y22378D01*
X246567Y21929D01*
X243433D01*
X243212Y22378D01*
X243453Y22692D01*
X243851Y23653D01*
X243987Y24685D01*
X243851Y25717D01*
X243659Y26181D01*
X286081Y68604D01*
X286413Y69100D01*
X286529Y69685D01*
Y70675D01*
X287003Y70835D01*
X287147Y70647D01*
X287983Y70006D01*
X288956Y69603D01*
X290000Y69466D01*
X291044Y69603D01*
X292017Y70006D01*
X292853Y70647D01*
X293494Y71483D01*
X293897Y72456D01*
X294035Y73500D01*
X293897Y74544D01*
X293494Y75517D01*
X292853Y76353D01*
X292017Y76994D01*
X291044Y77397D01*
X290000Y77535D01*
X288956Y77397D01*
X287983Y76994D01*
X287147Y76353D01*
X287003Y76165D01*
X286529Y76326D01*
Y77867D01*
X288468Y79805D01*
X288956Y79603D01*
X290000Y79466D01*
X291044Y79603D01*
X292017Y80006D01*
X292853Y80647D01*
X293494Y81483D01*
X293897Y82456D01*
X294035Y83500D01*
X293897Y84544D01*
X293494Y85517D01*
X292853Y86353D01*
X292017Y86994D01*
X291044Y87397D01*
X290000Y87534D01*
X288956Y87397D01*
X287983Y86994D01*
X287147Y86353D01*
X286506Y85517D01*
X286103Y84544D01*
X285965Y83500D01*
X286103Y82456D01*
X286305Y81968D01*
X283919Y79581D01*
X283587Y79085D01*
X283471Y78500D01*
Y76326D01*
X282997Y76165D01*
X282853Y76353D01*
X282017Y76994D01*
X281044Y77397D01*
X280000Y77535D01*
X278956Y77397D01*
X277983Y76994D01*
X277147Y76353D01*
X276506Y75517D01*
X276103Y74544D01*
X275965Y73500D01*
X276103Y72456D01*
X276506Y71483D01*
X277147Y70647D01*
X277983Y70006D01*
X278956Y69603D01*
X280000Y69466D01*
X281044Y69603D01*
X282017Y70006D01*
X282794Y70602D01*
X283047Y70561D01*
X283323Y70438D01*
X283356Y70204D01*
X241496Y28344D01*
X241032Y28536D01*
X240000Y28672D01*
X238968Y28536D01*
X238007Y28138D01*
X237181Y27504D01*
X236547Y26678D01*
X236149Y25717D01*
X236013Y24685D01*
X236149Y23653D01*
X236547Y22692D01*
X236788Y22378D01*
X236567Y21929D01*
X233433D01*
X233212Y22378D01*
X233453Y22692D01*
X233851Y23653D01*
X233987Y24685D01*
X233851Y25717D01*
X233453Y26678D01*
X232819Y27504D01*
X231993Y28138D01*
X231032Y28536D01*
X230000Y28672D01*
X228968Y28536D01*
X228007Y28138D01*
X227181Y27504D01*
X226547Y26678D01*
X226355Y26214D01*
X226285D01*
X225700Y26098D01*
X225204Y25766D01*
X224448Y25011D01*
X223920Y25190D01*
X223851Y25717D01*
X223453Y26678D01*
X222819Y27504D01*
X221993Y28138D01*
X221032Y28536D01*
X220000Y28672D01*
X218968Y28536D01*
X218007Y28138D01*
X217181Y27504D01*
X216547Y26678D01*
X216149Y25717D01*
X216013Y24685D01*
X216149Y23653D01*
X216547Y22692D01*
X217181Y21866D01*
X218007Y21232D01*
X218496Y21029D01*
X218397Y20529D01*
X216700D01*
X216115Y20413D01*
X215619Y20081D01*
X214719Y19181D01*
X214387Y18685D01*
X214271Y18100D01*
Y10700D01*
X214387Y10115D01*
X214719Y9619D01*
X219119Y5219D01*
X219615Y4887D01*
X220200Y4771D01*
X318700D01*
X319285Y4887D01*
X319781Y5219D01*
X322081Y7519D01*
X322413Y8015D01*
X322529Y8600D01*
Y9346D01*
X323242Y9641D01*
X324170Y10353D01*
X324883Y11282D01*
X325330Y12363D01*
X325483Y13524D01*
Y16476D01*
X325330Y17637D01*
X324883Y18718D01*
X324170Y19647D01*
X323242Y20359D01*
X322160Y20807D01*
X321000Y20960D01*
X319840Y20807D01*
X318758Y20359D01*
X317830Y19647D01*
X317117Y18718D01*
X316670Y17637D01*
X316517Y16476D01*
Y13524D01*
X316670Y12363D01*
X317117Y11282D01*
X317830Y10353D01*
X318758Y9641D01*
X319050Y9520D01*
X319167Y8930D01*
X318067Y7829D01*
X305846D01*
X305654Y8291D01*
X306234Y8871D01*
X311000D01*
X311585Y8987D01*
X311828Y9149D01*
X312160Y9193D01*
X313242Y9641D01*
X314170Y10353D01*
X314883Y11282D01*
X315331Y12363D01*
X315483Y13524D01*
Y16476D01*
X315331Y17637D01*
X314883Y18718D01*
X314170Y19647D01*
X313242Y20359D01*
X312160Y20807D01*
X311000Y20960D01*
X309840Y20807D01*
X308758Y20359D01*
X307830Y19647D01*
X307117Y18718D01*
X306669Y17637D01*
X306517Y16476D01*
Y13524D01*
X306661Y12429D01*
X306597Y12225D01*
X306399Y11929D01*
X305692D01*
X305308Y12308D01*
X305330Y12363D01*
X305483Y13524D01*
Y16476D01*
X305330Y17637D01*
X304883Y18718D01*
X304170Y19647D01*
X303242Y20359D01*
X302160Y20807D01*
X301000Y20960D01*
X299840Y20807D01*
X298758Y20359D01*
X297830Y19647D01*
X297117Y18718D01*
X296670Y17637D01*
X296517Y16476D01*
Y13524D01*
X296670Y12363D01*
X297117Y11282D01*
X297428Y10878D01*
X297206Y10429D01*
X294794D01*
X294572Y10878D01*
X294883Y11282D01*
X295331Y12363D01*
X295483Y13524D01*
Y16476D01*
X295331Y17637D01*
X294883Y18718D01*
X294170Y19647D01*
X293242Y20359D01*
X292518Y20659D01*
X292413Y21185D01*
X292081Y21681D01*
X291281Y22481D01*
X290785Y22813D01*
X290200Y22929D01*
X269299D01*
X269092Y23429D01*
X269934Y24271D01*
X325167D01*
X328633Y20804D01*
X328539Y20191D01*
X327830Y19647D01*
X327117Y18718D01*
X326670Y17637D01*
X326517Y16476D01*
Y13524D01*
X326670Y12363D01*
X327117Y11282D01*
X327830Y10353D01*
X328758Y9641D01*
X329840Y9193D01*
X331000Y9040D01*
X332160Y9193D01*
X333242Y9641D01*
X334170Y10353D01*
X334883Y11282D01*
X335331Y12363D01*
X335483Y13524D01*
Y16476D01*
X335331Y17637D01*
X334883Y18718D01*
X334170Y19647D01*
X333242Y20359D01*
X332518Y20659D01*
X332413Y21185D01*
X332081Y21681D01*
X326881Y26881D01*
X326385Y27213D01*
X325800Y27329D01*
X270946D01*
X270754Y27791D01*
X274033Y31071D01*
X346967D01*
X349471Y28567D01*
Y20654D01*
X348758Y20359D01*
X347830Y19647D01*
X347117Y18718D01*
X346670Y17637D01*
X346517Y16476D01*
Y13524D01*
X346670Y12363D01*
X347117Y11282D01*
X347428Y10878D01*
X347206Y10429D01*
X344794D01*
X344572Y10878D01*
X344883Y11282D01*
X345331Y12363D01*
X345483Y13524D01*
Y16476D01*
X345331Y17637D01*
X344883Y18718D01*
X344170Y19647D01*
X343242Y20359D01*
X342160Y20807D01*
X341000Y20960D01*
X339840Y20807D01*
X338758Y20359D01*
X337830Y19647D01*
X337117Y18718D01*
X336669Y17637D01*
X336517Y16476D01*
Y13524D01*
X336669Y12363D01*
X337117Y11282D01*
X337830Y10353D01*
X338758Y9641D01*
X339603Y9291D01*
X339919Y8819D01*
X340919Y7819D01*
X341415Y7487D01*
X342000Y7371D01*
X354000D01*
X354585Y7487D01*
X355081Y7819D01*
X356681Y9419D01*
X357013Y9915D01*
X357129Y10500D01*
Y44600D01*
X357013Y45185D01*
X356681Y45681D01*
X310781Y91581D01*
X310285Y91913D01*
X309700Y92029D01*
D02*
G37*
G36*
X106500Y261500D02*
X104286D01*
X104315Y261281D01*
X104593Y260610D01*
X105034Y260034D01*
X105610Y259593D01*
X106281Y259315D01*
X106500Y259286D01*
Y261500D01*
D02*
G37*
G36*
X374016Y237260D02*
X372006Y237102D01*
X370045Y236631D01*
X368182Y235859D01*
X366462Y234806D01*
X364929Y233496D01*
X363619Y231963D01*
X362566Y230243D01*
X361794Y228380D01*
X361323Y226420D01*
X361165Y224409D01*
X361323Y222399D01*
X361794Y220438D01*
X362566Y218575D01*
X363619Y216856D01*
X364929Y215323D01*
X366462Y214013D01*
X368182Y212959D01*
X370045Y212188D01*
X372006Y211717D01*
X374016Y211559D01*
X376026Y211717D01*
X377987Y212188D01*
X379850Y212959D01*
X381569Y214013D01*
X383103Y215323D01*
X384412Y216856D01*
X385466Y218575D01*
X386238Y220438D01*
X386708Y222399D01*
X386866Y224409D01*
X386708Y226420D01*
X386238Y228380D01*
X385466Y230243D01*
X384412Y231963D01*
X383103Y233496D01*
X381569Y234806D01*
X379850Y235859D01*
X377987Y236631D01*
X376026Y237102D01*
X374016Y237260D01*
D02*
G37*
G36*
X137000Y265987D02*
X135968Y265851D01*
X135007Y265453D01*
X134181Y264819D01*
X133547Y263993D01*
X133149Y263032D01*
X133013Y262000D01*
X133149Y260968D01*
X133547Y260007D01*
X133681Y259833D01*
X133459Y259384D01*
X130541D01*
X130319Y259833D01*
X130453Y260007D01*
X130851Y260968D01*
X130987Y262000D01*
X130851Y263032D01*
X130453Y263993D01*
X129819Y264819D01*
X128993Y265453D01*
X128032Y265851D01*
X127000Y265987D01*
X125968Y265851D01*
X125007Y265453D01*
X124181Y264819D01*
X123547Y263993D01*
X123149Y263032D01*
X123013Y262000D01*
X123149Y260968D01*
X123547Y260007D01*
X123681Y259833D01*
X123459Y259384D01*
X120540D01*
X120319Y259833D01*
X120453Y260007D01*
X120851Y260968D01*
X120987Y262000D01*
X120851Y263032D01*
X120453Y263993D01*
X119819Y264819D01*
X118993Y265453D01*
X118032Y265851D01*
X117000Y265987D01*
X115968Y265851D01*
X115007Y265453D01*
X114181Y264819D01*
X113547Y263993D01*
X113149Y263032D01*
X113013Y262000D01*
X113149Y260968D01*
X113547Y260007D01*
X114181Y259181D01*
X115007Y258547D01*
X115216Y258461D01*
Y257135D01*
X115351Y256452D01*
X115738Y255873D01*
X147120Y224491D01*
X146929Y224029D01*
X137134D01*
X100659Y260504D01*
X100851Y260968D01*
X100987Y262000D01*
X100851Y263032D01*
X100453Y263993D01*
X99819Y264819D01*
X98993Y265453D01*
X98032Y265851D01*
X97000Y265987D01*
X95968Y265851D01*
X95007Y265453D01*
X94181Y264819D01*
X93547Y263993D01*
X93149Y263032D01*
X93013Y262000D01*
X93149Y260968D01*
X93547Y260007D01*
X94181Y259181D01*
X95007Y258547D01*
X95968Y258149D01*
X97000Y258013D01*
X98032Y258149D01*
X98496Y258341D01*
X135419Y221419D01*
X135915Y221087D01*
X136500Y220971D01*
X230867D01*
X233471Y218367D01*
Y216325D01*
X232997Y216165D01*
X232853Y216353D01*
X232017Y216994D01*
X231044Y217397D01*
X230000Y217534D01*
X228956Y217397D01*
X228468Y217195D01*
X226881Y218781D01*
X226385Y219113D01*
X225800Y219229D01*
X141500D01*
X140915Y219113D01*
X140419Y218781D01*
X84167Y162529D01*
X28145D01*
X27953Y162993D01*
X27319Y163819D01*
X26493Y164453D01*
X25532Y164851D01*
X24500Y164987D01*
X23468Y164851D01*
X22507Y164453D01*
X21681Y163819D01*
X21047Y162993D01*
X20649Y162032D01*
X20629Y161883D01*
X20129Y161916D01*
Y170084D01*
X20629Y170117D01*
X20649Y169968D01*
X21047Y169007D01*
X21681Y168181D01*
X22507Y167547D01*
X23468Y167149D01*
X24500Y167013D01*
X25532Y167149D01*
X26493Y167547D01*
X27319Y168181D01*
X27953Y169007D01*
X28145Y169471D01*
X32600D01*
X33185Y169587D01*
X33681Y169919D01*
X53281Y189519D01*
X53613Y190015D01*
X53729Y190600D01*
Y202800D01*
X53613Y203385D01*
X53281Y203881D01*
X51659Y205504D01*
X51851Y205968D01*
X51987Y207000D01*
X51851Y208032D01*
X51453Y208993D01*
X50819Y209819D01*
X49993Y210453D01*
X49032Y210851D01*
X48000Y210987D01*
X46968Y210851D01*
X46007Y210453D01*
X45181Y209819D01*
X44547Y208993D01*
X44149Y208032D01*
X44013Y207000D01*
X44149Y205968D01*
X44547Y205007D01*
X45181Y204181D01*
X46007Y203547D01*
X46968Y203149D01*
X48000Y203013D01*
X49032Y203149D01*
X49496Y203341D01*
X50671Y202167D01*
Y200953D01*
X44047D01*
Y193047D01*
X50671D01*
Y191234D01*
X31967Y172529D01*
X28145D01*
X27953Y172993D01*
X27319Y173819D01*
X26493Y174453D01*
X25532Y174851D01*
X24500Y174987D01*
X23468Y174851D01*
X22507Y174453D01*
X21681Y173819D01*
X21047Y172993D01*
X20649Y172032D01*
X20629Y171883D01*
X20129Y171916D01*
Y174467D01*
X23004Y177341D01*
X23468Y177149D01*
X24500Y177013D01*
X25532Y177149D01*
X26493Y177547D01*
X27319Y178181D01*
X27953Y179007D01*
X28351Y179968D01*
X28487Y181000D01*
X28351Y182032D01*
X27953Y182993D01*
X27319Y183819D01*
X26493Y184453D01*
X25532Y184851D01*
X24500Y184987D01*
X23468Y184851D01*
X22507Y184453D01*
X21681Y183819D01*
X21047Y182993D01*
X20649Y182032D01*
X20513Y181000D01*
X20649Y179968D01*
X20841Y179504D01*
X17519Y176181D01*
X17187Y175685D01*
X17071Y175100D01*
Y174575D01*
X16622Y174354D01*
X16493Y174453D01*
X15532Y174851D01*
X14500Y174987D01*
X13468Y174851D01*
X12507Y174453D01*
X11681Y173819D01*
X11047Y172993D01*
X10649Y172032D01*
X10513Y171000D01*
X10649Y169968D01*
X11047Y169007D01*
X11681Y168181D01*
X12507Y167547D01*
X13468Y167149D01*
X14500Y167013D01*
X15532Y167149D01*
X16493Y167547D01*
X16622Y167646D01*
X17071Y167425D01*
Y164575D01*
X16622Y164354D01*
X16493Y164453D01*
X15532Y164851D01*
X14500Y164987D01*
X13468Y164851D01*
X12507Y164453D01*
X11681Y163819D01*
X11047Y162993D01*
X10649Y162032D01*
X10513Y161000D01*
X10649Y159968D01*
X11047Y159007D01*
X11681Y158181D01*
X12507Y157547D01*
X13468Y157149D01*
X14500Y157013D01*
X15532Y157149D01*
X16493Y157547D01*
X16622Y157646D01*
X17071Y157425D01*
Y122953D01*
X10547D01*
Y117571D01*
X8738Y115762D01*
X8352Y115183D01*
X8216Y114500D01*
Y95900D01*
X8352Y95217D01*
X8738Y94638D01*
X11238Y92138D01*
X11238Y92138D01*
X11276Y92113D01*
X11388Y91437D01*
X11047Y90993D01*
X10649Y90032D01*
X10513Y89000D01*
X10649Y87968D01*
X11047Y87007D01*
X11681Y86181D01*
X12507Y85547D01*
X13468Y85149D01*
X14500Y85013D01*
X15532Y85149D01*
X16493Y85547D01*
X17319Y86181D01*
X17953Y87007D01*
X18351Y87968D01*
X18487Y89000D01*
X18351Y90032D01*
X17953Y90993D01*
X17819Y91167D01*
X18041Y91616D01*
X20959D01*
X21181Y91167D01*
X21047Y90993D01*
X20649Y90032D01*
X20513Y89000D01*
X20649Y87968D01*
X21047Y87007D01*
X21681Y86181D01*
X22507Y85547D01*
X23468Y85149D01*
X24500Y85013D01*
X25532Y85149D01*
X26493Y85547D01*
X27319Y86181D01*
X27953Y87007D01*
X28351Y87968D01*
X28487Y89000D01*
X28351Y90032D01*
X27953Y90993D01*
X27819Y91167D01*
X28041Y91616D01*
X89361D01*
X96200Y84777D01*
X96103Y84544D01*
X95965Y83500D01*
X96103Y82456D01*
X96506Y81483D01*
X97147Y80647D01*
X97983Y80006D01*
X98956Y79603D01*
X100000Y79466D01*
X101044Y79603D01*
X102017Y80006D01*
X102853Y80647D01*
X103494Y81483D01*
X103897Y82456D01*
X104034Y83500D01*
X103897Y84544D01*
X103494Y85517D01*
X102853Y86353D01*
X102017Y86994D01*
X101044Y87397D01*
X100000Y87534D01*
X98956Y87397D01*
X98723Y87300D01*
X91362Y94662D01*
X90783Y95048D01*
X90100Y95184D01*
X26842D01*
X26672Y95684D01*
X27319Y96181D01*
X27953Y97007D01*
X28351Y97968D01*
X28487Y99000D01*
X28351Y100032D01*
X27953Y100993D01*
X27319Y101819D01*
X26493Y102453D01*
X25726Y102771D01*
X25825Y103271D01*
X224166D01*
X239514Y87923D01*
X239353Y87449D01*
X238956Y87397D01*
X237983Y86994D01*
X237147Y86353D01*
X236506Y85517D01*
X236103Y84544D01*
X235965Y83500D01*
X236103Y82456D01*
X236506Y81483D01*
X237147Y80647D01*
X237983Y80006D01*
X238956Y79603D01*
X240000Y79466D01*
X241044Y79603D01*
X242017Y80006D01*
X242222Y80163D01*
X242671Y79942D01*
Y79300D01*
X242787Y78715D01*
X243119Y78219D01*
X246305Y75032D01*
X246103Y74544D01*
X245966Y73500D01*
X246103Y72456D01*
X246506Y71483D01*
X246586Y71378D01*
X246365Y70929D01*
X243635D01*
X243413Y71378D01*
X243494Y71483D01*
X243897Y72456D01*
X244035Y73500D01*
X243897Y74544D01*
X243494Y75517D01*
X242853Y76353D01*
X242017Y76994D01*
X241044Y77397D01*
X240000Y77535D01*
X238956Y77397D01*
X237983Y76994D01*
X237147Y76353D01*
X236506Y75517D01*
X236103Y74544D01*
X235965Y73500D01*
X236103Y72456D01*
X236506Y71483D01*
X236586Y71378D01*
X236365Y70929D01*
X233635D01*
X233414Y71378D01*
X233494Y71483D01*
X233897Y72456D01*
X234034Y73500D01*
X233897Y74544D01*
X233494Y75517D01*
X232853Y76353D01*
X232017Y76994D01*
X231044Y77397D01*
X230000Y77535D01*
X228956Y77397D01*
X227983Y76994D01*
X227147Y76353D01*
X226506Y75517D01*
X226103Y74544D01*
X225965Y73500D01*
X226103Y72456D01*
X226506Y71483D01*
X226587Y71378D01*
X226365Y70929D01*
X223635D01*
X223413Y71378D01*
X223494Y71483D01*
X223897Y72456D01*
X224035Y73500D01*
X223897Y74544D01*
X223494Y75517D01*
X222853Y76353D01*
X222017Y76994D01*
X221044Y77397D01*
X220000Y77535D01*
X218956Y77397D01*
X217983Y76994D01*
X217147Y76353D01*
X216506Y75517D01*
X216103Y74544D01*
X215966Y73500D01*
X216103Y72456D01*
X216506Y71483D01*
X216586Y71378D01*
X216365Y70929D01*
X213635D01*
X213414Y71378D01*
X213494Y71483D01*
X213897Y72456D01*
X214035Y73500D01*
X213897Y74544D01*
X213494Y75517D01*
X212853Y76353D01*
X212017Y76994D01*
X211044Y77397D01*
X210000Y77535D01*
X208956Y77397D01*
X207983Y76994D01*
X207147Y76353D01*
X206506Y75517D01*
X206103Y74544D01*
X205965Y73500D01*
X206103Y72456D01*
X206506Y71483D01*
X206587Y71378D01*
X206365Y70929D01*
X203635D01*
X203414Y71378D01*
X203494Y71483D01*
X203897Y72456D01*
X204034Y73500D01*
X203897Y74544D01*
X203494Y75517D01*
X202853Y76353D01*
X202017Y76994D01*
X201044Y77397D01*
X200000Y77535D01*
X198956Y77397D01*
X197983Y76994D01*
X197147Y76353D01*
X196506Y75517D01*
X196103Y74544D01*
X195966Y73500D01*
X196103Y72456D01*
X196506Y71483D01*
X196587Y71378D01*
X196365Y70929D01*
X193635D01*
X193413Y71378D01*
X193494Y71483D01*
X193897Y72456D01*
X194035Y73500D01*
X193897Y74544D01*
X193494Y75517D01*
X192853Y76353D01*
X192017Y76994D01*
X191044Y77397D01*
X190000Y77535D01*
X188956Y77397D01*
X187983Y76994D01*
X187147Y76353D01*
X186506Y75517D01*
X186103Y74544D01*
X185966Y73500D01*
X186103Y72456D01*
X186506Y71483D01*
X186586Y71378D01*
X186365Y70929D01*
X184733D01*
X183695Y71968D01*
X183897Y72456D01*
X184035Y73500D01*
X183897Y74544D01*
X183494Y75517D01*
X182853Y76353D01*
X182017Y76994D01*
X181044Y77397D01*
X180000Y77535D01*
X178956Y77397D01*
X177983Y76994D01*
X177147Y76353D01*
X176506Y75517D01*
X176103Y74544D01*
X175965Y73500D01*
X176103Y72456D01*
X176506Y71483D01*
X177147Y70647D01*
X177983Y70006D01*
X178650Y69729D01*
X178551Y69229D01*
X176434D01*
X173695Y71968D01*
X173897Y72456D01*
X174035Y73500D01*
X173897Y74544D01*
X173494Y75517D01*
X172853Y76353D01*
X172017Y76994D01*
X171044Y77397D01*
X170000Y77535D01*
X168956Y77397D01*
X167983Y76994D01*
X167147Y76353D01*
X166506Y75517D01*
X166103Y74544D01*
X165965Y73500D01*
X166103Y72456D01*
X166506Y71483D01*
X167147Y70647D01*
X167983Y70006D01*
X168956Y69603D01*
X170000Y69466D01*
X171044Y69603D01*
X171532Y69805D01*
X174719Y66619D01*
X175215Y66287D01*
X175800Y66171D01*
X253400D01*
X253985Y66287D01*
X254481Y66619D01*
X256881Y69019D01*
X257213Y69515D01*
X257291Y69907D01*
X257790Y70154D01*
X257983Y70006D01*
X258956Y69603D01*
X260000Y69466D01*
X261044Y69603D01*
X262017Y70006D01*
X262853Y70647D01*
X263494Y71483D01*
X263897Y72456D01*
X264035Y73500D01*
X263897Y74544D01*
X263494Y75517D01*
X262853Y76353D01*
X262017Y76994D01*
X261044Y77397D01*
X260000Y77535D01*
X258956Y77397D01*
X257983Y76994D01*
X257778Y76837D01*
X257329Y77058D01*
Y79942D01*
X257778Y80163D01*
X257983Y80006D01*
X258956Y79603D01*
X260000Y79466D01*
X261044Y79603D01*
X262017Y80006D01*
X262853Y80647D01*
X263494Y81483D01*
X263897Y82456D01*
X264035Y83500D01*
X263897Y84544D01*
X263494Y85517D01*
X262853Y86353D01*
X262017Y86994D01*
X261044Y87397D01*
X260000Y87534D01*
X258956Y87397D01*
X258292Y87122D01*
X258009Y87546D01*
X318381Y147919D01*
X318713Y148415D01*
X318829Y149000D01*
Y226800D01*
X318819Y226850D01*
X319280Y227096D01*
X357201Y189175D01*
X357231Y189026D01*
X357669Y188369D01*
X358326Y187931D01*
X359100Y187777D01*
X359874Y187931D01*
X360531Y188369D01*
X360969Y189026D01*
X361123Y189800D01*
X360969Y190574D01*
X360531Y191231D01*
X359874Y191669D01*
X359724Y191699D01*
X292562Y258862D01*
X291983Y259248D01*
X291300Y259384D01*
X150953D01*
Y265953D01*
X143047D01*
Y259384D01*
X140541D01*
X140319Y259833D01*
X140453Y260007D01*
X140851Y260968D01*
X140987Y262000D01*
X140851Y263032D01*
X140453Y263993D01*
X139819Y264819D01*
X138993Y265453D01*
X138032Y265851D01*
X137000Y265987D01*
D02*
G37*
G36*
X109714Y261500D02*
X107500D01*
Y259286D01*
X107719Y259315D01*
X108390Y259593D01*
X108966Y260034D01*
X109407Y260610D01*
X109685Y261281D01*
X109714Y261500D01*
D02*
G37*
G36*
X270000Y77535D02*
X268956Y77397D01*
X267983Y76994D01*
X267147Y76353D01*
X266506Y75517D01*
X266103Y74544D01*
X265966Y73500D01*
X266103Y72456D01*
X266506Y71483D01*
X267147Y70647D01*
X267983Y70006D01*
X268956Y69603D01*
X270000Y69466D01*
X271044Y69603D01*
X272017Y70006D01*
X272853Y70647D01*
X273494Y71483D01*
X273897Y72456D01*
X274035Y73500D01*
X273897Y74544D01*
X273494Y75517D01*
X272853Y76353D01*
X272017Y76994D01*
X271044Y77397D01*
X270000Y77535D01*
D02*
G37*
G36*
X160000D02*
X158956Y77397D01*
X157983Y76994D01*
X157147Y76353D01*
X156506Y75517D01*
X156103Y74544D01*
X155965Y73500D01*
X156103Y72456D01*
X156506Y71483D01*
X157147Y70647D01*
X157983Y70006D01*
X158956Y69603D01*
X160000Y69466D01*
X161044Y69603D01*
X162017Y70006D01*
X162853Y70647D01*
X163494Y71483D01*
X163897Y72456D01*
X164034Y73500D01*
X163897Y74544D01*
X163494Y75517D01*
X162853Y76353D01*
X162017Y76994D01*
X161044Y77397D01*
X160000Y77535D01*
D02*
G37*
G36*
X112761Y73000D02*
X110500D01*
Y70739D01*
X110732Y70769D01*
X111414Y71051D01*
X111999Y71501D01*
X112449Y72086D01*
X112731Y72768D01*
X112761Y73000D01*
D02*
G37*
G36*
X109500D02*
X107238D01*
X107269Y72768D01*
X107551Y72086D01*
X108001Y71501D01*
X108586Y71051D01*
X109268Y70769D01*
X109500Y70739D01*
Y73000D01*
D02*
G37*
G36*
X150000Y77535D02*
X148956Y77397D01*
X147983Y76994D01*
X147147Y76353D01*
X146506Y75517D01*
X146103Y74544D01*
X145966Y73500D01*
X146103Y72456D01*
X146506Y71483D01*
X147147Y70647D01*
X147983Y70006D01*
X148956Y69603D01*
X150000Y69466D01*
X151044Y69603D01*
X152017Y70006D01*
X152853Y70647D01*
X153494Y71483D01*
X153897Y72456D01*
X154034Y73500D01*
X153897Y74544D01*
X153494Y75517D01*
X152853Y76353D01*
X152017Y76994D01*
X151044Y77397D01*
X150000Y77535D01*
D02*
G37*
G36*
X120000D02*
X118956Y77397D01*
X117983Y76994D01*
X117147Y76353D01*
X116506Y75517D01*
X116103Y74544D01*
X115965Y73500D01*
X116103Y72456D01*
X116506Y71483D01*
X117147Y70647D01*
X117983Y70006D01*
X118956Y69603D01*
X120000Y69466D01*
X121044Y69603D01*
X122017Y70006D01*
X122853Y70647D01*
X123494Y71483D01*
X123897Y72456D01*
X124035Y73500D01*
X123897Y74544D01*
X123494Y75517D01*
X122853Y76353D01*
X122017Y76994D01*
X121044Y77397D01*
X120000Y77535D01*
D02*
G37*
G36*
X100000D02*
X98956Y77397D01*
X97983Y76994D01*
X97147Y76353D01*
X96506Y75517D01*
X96103Y74544D01*
X95965Y73500D01*
X96103Y72456D01*
X96506Y71483D01*
X97147Y70647D01*
X97983Y70006D01*
X98956Y69603D01*
X100000Y69466D01*
X101044Y69603D01*
X102017Y70006D01*
X102853Y70647D01*
X103494Y71483D01*
X103897Y72456D01*
X104034Y73500D01*
X103897Y74544D01*
X103494Y75517D01*
X102853Y76353D01*
X102017Y76994D01*
X101044Y77397D01*
X100000Y77535D01*
D02*
G37*
G36*
X140000D02*
X138956Y77397D01*
X137983Y76994D01*
X137147Y76353D01*
X136506Y75517D01*
X136103Y74544D01*
X135966Y73500D01*
X136103Y72456D01*
X136506Y71483D01*
X137147Y70647D01*
X137983Y70006D01*
X138956Y69603D01*
X140000Y69466D01*
X141044Y69603D01*
X142017Y70006D01*
X142853Y70647D01*
X143494Y71483D01*
X143897Y72456D01*
X144035Y73500D01*
X143897Y74544D01*
X143494Y75517D01*
X142853Y76353D01*
X142017Y76994D01*
X141044Y77397D01*
X140000Y77535D01*
D02*
G37*
G36*
X130000D02*
X128956Y77397D01*
X127983Y76994D01*
X127147Y76353D01*
X126506Y75517D01*
X126103Y74544D01*
X125965Y73500D01*
X126103Y72456D01*
X126506Y71483D01*
X127147Y70647D01*
X127983Y70006D01*
X128956Y69603D01*
X130000Y69466D01*
X131044Y69603D01*
X132017Y70006D01*
X132853Y70647D01*
X133494Y71483D01*
X133897Y72456D01*
X134035Y73500D01*
X133897Y74544D01*
X133494Y75517D01*
X132853Y76353D01*
X132017Y76994D01*
X131044Y77397D01*
X130000Y77535D01*
D02*
G37*
%LPD*%
G36*
X141547Y22692D02*
X142181Y21866D01*
X143007Y21232D01*
X143968Y20834D01*
X145000Y20698D01*
X146032Y20834D01*
X146993Y21232D01*
X147122Y21331D01*
X147571Y21110D01*
Y20585D01*
X147687Y20000D01*
X148019Y19504D01*
X148422Y19100D01*
X148231Y18638D01*
X141047D01*
Y16214D01*
X129096D01*
X127621Y17690D01*
X127125Y18021D01*
X126540Y18138D01*
X115363D01*
X115331Y18385D01*
X114883Y19466D01*
X114170Y20394D01*
X113242Y21107D01*
X112160Y21555D01*
X111000Y21708D01*
X109840Y21555D01*
X109562Y21440D01*
X109279Y21864D01*
X110571Y23156D01*
X141355D01*
X141547Y22692D01*
D02*
G37*
G36*
X141609Y26758D02*
X141547Y26678D01*
X141355Y26214D01*
X109937D01*
X109352Y26098D01*
X108856Y25766D01*
X103782Y20693D01*
X103242Y21107D01*
X102160Y21555D01*
X101000Y21708D01*
X99840Y21555D01*
X98758Y21107D01*
X97830Y20394D01*
X97117Y19466D01*
X96670Y18385D01*
X96517Y17224D01*
Y14272D01*
X96670Y13111D01*
X97117Y12030D01*
X97366Y11706D01*
X97145Y11258D01*
X94855D01*
X94634Y11706D01*
X94883Y12030D01*
X95331Y13111D01*
X95483Y14272D01*
Y17224D01*
X95331Y18385D01*
X94883Y19466D01*
X94170Y20394D01*
X93242Y21107D01*
X92529Y21402D01*
Y26066D01*
X93670Y27207D01*
X141387D01*
X141609Y26758D01*
D02*
G37*
G36*
X86979Y29942D02*
X79919Y22881D01*
X79587Y22385D01*
X79471Y21800D01*
Y21402D01*
X78758Y21107D01*
X77830Y20394D01*
X77117Y19466D01*
X76670Y18385D01*
X76517Y17224D01*
Y14272D01*
X76540Y14092D01*
X76092Y13871D01*
X75483Y14480D01*
Y17224D01*
X75331Y18385D01*
X74883Y19466D01*
X74170Y20394D01*
X73242Y21107D01*
X72160Y21555D01*
X71000Y21708D01*
X69840Y21555D01*
X68758Y21107D01*
X67830Y20394D01*
X67117Y19466D01*
X66669Y18385D01*
X66517Y17224D01*
Y14272D01*
X66669Y13111D01*
X67117Y12030D01*
X67830Y11101D01*
X68758Y10389D01*
X69314Y10159D01*
X69214Y9659D01*
X62786D01*
X62686Y10159D01*
X63242Y10389D01*
X64170Y11101D01*
X64883Y12030D01*
X65330Y13111D01*
X65483Y14272D01*
Y17224D01*
X65330Y18385D01*
X64883Y19466D01*
X64170Y20394D01*
X63242Y21107D01*
X62529Y21402D01*
Y25166D01*
X67767Y30404D01*
X86788D01*
X86979Y29942D01*
D02*
G37*
G36*
X277618Y19371D02*
X277117Y18718D01*
X276670Y17637D01*
X276517Y16476D01*
Y13524D01*
X276670Y12363D01*
X277117Y11282D01*
X277428Y10878D01*
X277206Y10429D01*
X251362D01*
X251262Y10929D01*
X251993Y11232D01*
X252819Y11866D01*
X253453Y12692D01*
X253645Y13156D01*
X262000D01*
X262585Y13272D01*
X263081Y13604D01*
X269349Y19871D01*
X277372D01*
X277618Y19371D01*
D02*
G37*
G36*
X224508Y106829D02*
X224301Y106329D01*
X27998D01*
X27777Y106778D01*
X27953Y107007D01*
X28145Y107471D01*
X223867D01*
X224508Y106829D01*
D02*
G37*
G36*
X299496Y246880D02*
X299250Y246419D01*
X299200Y246429D01*
X134083D01*
X133574Y246769D01*
X132800Y246923D01*
X132026Y246769D01*
X131369Y246331D01*
X131171Y246034D01*
X130673Y245985D01*
X121304Y255354D01*
X121495Y255816D01*
X290561D01*
X299496Y246880D01*
D02*
G37*
G36*
X226305Y215032D02*
X226103Y214544D01*
X225965Y213500D01*
X226103Y212456D01*
X226506Y211483D01*
X227147Y210647D01*
X227983Y210006D01*
X228956Y209603D01*
X230000Y209466D01*
X231044Y209603D01*
X232017Y210006D01*
X232853Y210647D01*
X232997Y210835D01*
X233471Y210675D01*
Y206326D01*
X232997Y206165D01*
X232853Y206353D01*
X232017Y206994D01*
X231044Y207397D01*
X230000Y207535D01*
X228956Y207397D01*
X227983Y206994D01*
X227147Y206353D01*
X226506Y205517D01*
X226103Y204544D01*
X225965Y203500D01*
X226103Y202456D01*
X226506Y201483D01*
X227147Y200647D01*
X227983Y200006D01*
X228956Y199603D01*
X230000Y199466D01*
X231044Y199603D01*
X232017Y200006D01*
X232853Y200647D01*
X232997Y200835D01*
X233471Y200675D01*
Y114400D01*
X233587Y113815D01*
X233919Y113319D01*
X252671Y94567D01*
Y87058D01*
X252222Y86837D01*
X252017Y86994D01*
X251044Y87397D01*
X250000Y87534D01*
X248956Y87397D01*
X248468Y87195D01*
X225581Y110081D01*
X225085Y110413D01*
X224500Y110529D01*
X28145D01*
X27953Y110993D01*
X27319Y111819D01*
X26493Y112453D01*
X25532Y112851D01*
X24500Y112987D01*
X23468Y112851D01*
X23004Y112659D01*
X20129Y115533D01*
Y160084D01*
X20629Y160117D01*
X20649Y159968D01*
X21047Y159007D01*
X21681Y158181D01*
X22507Y157547D01*
X23468Y157149D01*
X24500Y157013D01*
X25532Y157149D01*
X26493Y157547D01*
X27319Y158181D01*
X27953Y159007D01*
X28145Y159471D01*
X84800D01*
X85385Y159587D01*
X85881Y159919D01*
X142133Y216171D01*
X146442D01*
X146663Y215722D01*
X146506Y215517D01*
X146103Y214544D01*
X145966Y213500D01*
X146103Y212456D01*
X146506Y211483D01*
X147147Y210647D01*
X147983Y210006D01*
X148956Y209603D01*
X150000Y209466D01*
X151044Y209603D01*
X152017Y210006D01*
X152853Y210647D01*
X153494Y211483D01*
X153897Y212456D01*
X154034Y213500D01*
X153897Y214544D01*
X153494Y215517D01*
X153337Y215722D01*
X153558Y216171D01*
X156442D01*
X156663Y215722D01*
X156506Y215517D01*
X156103Y214544D01*
X155965Y213500D01*
X156103Y212456D01*
X156506Y211483D01*
X157147Y210647D01*
X157983Y210006D01*
X158956Y209603D01*
X160000Y209466D01*
X161044Y209603D01*
X162017Y210006D01*
X162853Y210647D01*
X163494Y211483D01*
X163897Y212456D01*
X164034Y213500D01*
X163897Y214544D01*
X163494Y215517D01*
X163337Y215722D01*
X163558Y216171D01*
X166442D01*
X166663Y215722D01*
X166506Y215517D01*
X166103Y214544D01*
X165965Y213500D01*
X166103Y212456D01*
X166506Y211483D01*
X167147Y210647D01*
X167983Y210006D01*
X168956Y209603D01*
X170000Y209466D01*
X171044Y209603D01*
X172017Y210006D01*
X172853Y210647D01*
X173494Y211483D01*
X173897Y212456D01*
X174035Y213500D01*
X173897Y214544D01*
X173494Y215517D01*
X173337Y215722D01*
X173558Y216171D01*
X176442D01*
X176663Y215722D01*
X176506Y215517D01*
X176103Y214544D01*
X175965Y213500D01*
X176103Y212456D01*
X176506Y211483D01*
X177147Y210647D01*
X177983Y210006D01*
X178956Y209603D01*
X180000Y209466D01*
X181044Y209603D01*
X182017Y210006D01*
X182853Y210647D01*
X183494Y211483D01*
X183897Y212456D01*
X184035Y213500D01*
X183897Y214544D01*
X183494Y215517D01*
X183337Y215722D01*
X183558Y216171D01*
X186442D01*
X186663Y215722D01*
X186506Y215517D01*
X186103Y214544D01*
X185966Y213500D01*
X186103Y212456D01*
X186506Y211483D01*
X187147Y210647D01*
X187983Y210006D01*
X188956Y209603D01*
X190000Y209466D01*
X191044Y209603D01*
X192017Y210006D01*
X192853Y210647D01*
X193494Y211483D01*
X193897Y212456D01*
X194035Y213500D01*
X193897Y214544D01*
X193494Y215517D01*
X193337Y215722D01*
X193558Y216171D01*
X196442D01*
X196663Y215722D01*
X196506Y215517D01*
X196103Y214544D01*
X195966Y213500D01*
X196103Y212456D01*
X196506Y211483D01*
X197147Y210647D01*
X197983Y210006D01*
X198956Y209603D01*
X200000Y209466D01*
X201044Y209603D01*
X202017Y210006D01*
X202853Y210647D01*
X203494Y211483D01*
X203897Y212456D01*
X204034Y213500D01*
X203897Y214544D01*
X203494Y215517D01*
X203337Y215722D01*
X203558Y216171D01*
X206442D01*
X206663Y215722D01*
X206506Y215517D01*
X206103Y214544D01*
X205965Y213500D01*
X206103Y212456D01*
X206506Y211483D01*
X207147Y210647D01*
X207983Y210006D01*
X208956Y209603D01*
X210000Y209466D01*
X211044Y209603D01*
X212017Y210006D01*
X212853Y210647D01*
X213494Y211483D01*
X213897Y212456D01*
X214035Y213500D01*
X213897Y214544D01*
X213494Y215517D01*
X213337Y215722D01*
X213558Y216171D01*
X216442D01*
X216663Y215722D01*
X216506Y215517D01*
X216103Y214544D01*
X215966Y213500D01*
X216103Y212456D01*
X216506Y211483D01*
X217147Y210647D01*
X217983Y210006D01*
X218956Y209603D01*
X220000Y209466D01*
X221044Y209603D01*
X222017Y210006D01*
X222853Y210647D01*
X223494Y211483D01*
X223897Y212456D01*
X224035Y213500D01*
X223897Y214544D01*
X223494Y215517D01*
X223337Y215722D01*
X223558Y216171D01*
X225167D01*
X226305Y215032D01*
D02*
G37*
G36*
X315771Y226167D02*
Y149634D01*
X256191Y90054D01*
X255729Y90246D01*
Y95200D01*
X255613Y95785D01*
X255281Y96281D01*
X236529Y115033D01*
Y200675D01*
X237003Y200835D01*
X237147Y200647D01*
X237983Y200006D01*
X238956Y199603D01*
X240000Y199466D01*
X241044Y199603D01*
X242017Y200006D01*
X242853Y200647D01*
X243494Y201483D01*
X243897Y202456D01*
X244035Y203500D01*
X243897Y204544D01*
X243494Y205517D01*
X242853Y206353D01*
X242017Y206994D01*
X241044Y207397D01*
X240000Y207535D01*
X238956Y207397D01*
X237983Y206994D01*
X237147Y206353D01*
X237003Y206165D01*
X236529Y206326D01*
Y210675D01*
X237003Y210835D01*
X237147Y210647D01*
X237983Y210006D01*
X238956Y209603D01*
X240000Y209466D01*
X241044Y209603D01*
X242017Y210006D01*
X242853Y210647D01*
X243494Y211483D01*
X243897Y212456D01*
X244035Y213500D01*
X243897Y214544D01*
X243494Y215517D01*
X242853Y216353D01*
X242017Y216994D01*
X241044Y217397D01*
X240000Y217534D01*
X238956Y217397D01*
X237983Y216994D01*
X237147Y216353D01*
X237003Y216165D01*
X236529Y216325D01*
Y219000D01*
X236413Y219585D01*
X236081Y220081D01*
X233909Y222254D01*
X234101Y222716D01*
X307699D01*
X307826Y222631D01*
X308600Y222477D01*
X309374Y222631D01*
X310031Y223069D01*
X310469Y223726D01*
X310623Y224500D01*
X310469Y225274D01*
X310031Y225931D01*
X309374Y226369D01*
X308600Y226523D01*
X307826Y226369D01*
X307699Y226284D01*
X150374D01*
X133885Y242773D01*
X133934Y243271D01*
X134083Y243371D01*
X298567D01*
X315771Y226167D01*
D02*
G37*
%LPC*%
G36*
X200000Y207535D02*
X198956Y207397D01*
X197983Y206994D01*
X197147Y206353D01*
X196506Y205517D01*
X196103Y204544D01*
X195966Y203500D01*
X196103Y202456D01*
X196506Y201483D01*
X197147Y200647D01*
X197983Y200006D01*
X198956Y199603D01*
X200000Y199466D01*
X201044Y199603D01*
X202017Y200006D01*
X202853Y200647D01*
X203494Y201483D01*
X203897Y202456D01*
X204034Y203500D01*
X203897Y204544D01*
X203494Y205517D01*
X202853Y206353D01*
X202017Y206994D01*
X201044Y207397D01*
X200000Y207535D01*
D02*
G37*
G36*
X210000D02*
X208956Y207397D01*
X207983Y206994D01*
X207147Y206353D01*
X206506Y205517D01*
X206103Y204544D01*
X205965Y203500D01*
X206103Y202456D01*
X206506Y201483D01*
X207147Y200647D01*
X207983Y200006D01*
X208956Y199603D01*
X210000Y199466D01*
X211044Y199603D01*
X212017Y200006D01*
X212853Y200647D01*
X213494Y201483D01*
X213897Y202456D01*
X214035Y203500D01*
X213897Y204544D01*
X213494Y205517D01*
X212853Y206353D01*
X212017Y206994D01*
X211044Y207397D01*
X210000Y207535D01*
D02*
G37*
G36*
X220000D02*
X218956Y207397D01*
X217983Y206994D01*
X217147Y206353D01*
X216506Y205517D01*
X216103Y204544D01*
X215966Y203500D01*
X216103Y202456D01*
X216506Y201483D01*
X217147Y200647D01*
X217983Y200006D01*
X218956Y199603D01*
X220000Y199466D01*
X221044Y199603D01*
X222017Y200006D01*
X222853Y200647D01*
X223494Y201483D01*
X223897Y202456D01*
X224035Y203500D01*
X223897Y204544D01*
X223494Y205517D01*
X222853Y206353D01*
X222017Y206994D01*
X221044Y207397D01*
X220000Y207535D01*
D02*
G37*
G36*
X25000Y121714D02*
Y119500D01*
X27214D01*
X27185Y119719D01*
X26907Y120390D01*
X26465Y120966D01*
X25890Y121407D01*
X25219Y121685D01*
X25000Y121714D01*
D02*
G37*
G36*
X24000Y118500D02*
X21786D01*
X21815Y118281D01*
X22093Y117610D01*
X22535Y117034D01*
X23110Y116593D01*
X23781Y116315D01*
X24000Y116286D01*
Y118500D01*
D02*
G37*
G36*
X27214D02*
X25000D01*
Y116286D01*
X25219Y116315D01*
X25890Y116593D01*
X26465Y117034D01*
X26907Y117610D01*
X27185Y118281D01*
X27214Y118500D01*
D02*
G37*
G36*
X24000Y121714D02*
X23781Y121685D01*
X23110Y121407D01*
X22535Y120966D01*
X22093Y120390D01*
X21815Y119719D01*
X21786Y119500D01*
X24000D01*
Y121714D01*
D02*
G37*
G36*
X170000Y207535D02*
X168956Y207397D01*
X167983Y206994D01*
X167147Y206353D01*
X166506Y205517D01*
X166103Y204544D01*
X165965Y203500D01*
X166103Y202456D01*
X166506Y201483D01*
X167147Y200647D01*
X167983Y200006D01*
X168956Y199603D01*
X170000Y199466D01*
X171044Y199603D01*
X172017Y200006D01*
X172853Y200647D01*
X173494Y201483D01*
X173897Y202456D01*
X174035Y203500D01*
X173897Y204544D01*
X173494Y205517D01*
X172853Y206353D01*
X172017Y206994D01*
X171044Y207397D01*
X170000Y207535D01*
D02*
G37*
G36*
X180000D02*
X178956Y207397D01*
X177983Y206994D01*
X177147Y206353D01*
X176506Y205517D01*
X176103Y204544D01*
X175965Y203500D01*
X176103Y202456D01*
X176506Y201483D01*
X177147Y200647D01*
X177983Y200006D01*
X178956Y199603D01*
X180000Y199466D01*
X181044Y199603D01*
X182017Y200006D01*
X182853Y200647D01*
X183494Y201483D01*
X183897Y202456D01*
X184035Y203500D01*
X183897Y204544D01*
X183494Y205517D01*
X182853Y206353D01*
X182017Y206994D01*
X181044Y207397D01*
X180000Y207535D01*
D02*
G37*
G36*
X190000D02*
X188956Y207397D01*
X187983Y206994D01*
X187147Y206353D01*
X186506Y205517D01*
X186103Y204544D01*
X185966Y203500D01*
X186103Y202456D01*
X186506Y201483D01*
X187147Y200647D01*
X187983Y200006D01*
X188956Y199603D01*
X190000Y199466D01*
X191044Y199603D01*
X192017Y200006D01*
X192853Y200647D01*
X193494Y201483D01*
X193897Y202456D01*
X194035Y203500D01*
X193897Y204544D01*
X193494Y205517D01*
X192853Y206353D01*
X192017Y206994D01*
X191044Y207397D01*
X190000Y207535D01*
D02*
G37*
G36*
X160000D02*
X158956Y207397D01*
X157983Y206994D01*
X157147Y206353D01*
X156506Y205517D01*
X156103Y204544D01*
X155965Y203500D01*
X156103Y202456D01*
X156506Y201483D01*
X157147Y200647D01*
X157983Y200006D01*
X158956Y199603D01*
X160000Y199466D01*
X161044Y199603D01*
X162017Y200006D01*
X162853Y200647D01*
X163494Y201483D01*
X163897Y202456D01*
X164034Y203500D01*
X163897Y204544D01*
X163494Y205517D01*
X162853Y206353D01*
X162017Y206994D01*
X161044Y207397D01*
X160000Y207535D01*
D02*
G37*
G36*
X150000D02*
X148956Y207397D01*
X147983Y206994D01*
X147147Y206353D01*
X146506Y205517D01*
X146103Y204544D01*
X145966Y203500D01*
X146103Y202456D01*
X146506Y201483D01*
X147147Y200647D01*
X147983Y200006D01*
X148956Y199603D01*
X150000Y199466D01*
X151044Y199603D01*
X152017Y200006D01*
X152853Y200647D01*
X153494Y201483D01*
X153897Y202456D01*
X154034Y203500D01*
X153897Y204544D01*
X153494Y205517D01*
X152853Y206353D01*
X152017Y206994D01*
X151044Y207397D01*
X150000Y207535D01*
D02*
G37*
G36*
X260000D02*
X258956Y207397D01*
X257983Y206994D01*
X257147Y206353D01*
X256506Y205517D01*
X256103Y204544D01*
X255965Y203500D01*
X256103Y202456D01*
X256506Y201483D01*
X257147Y200647D01*
X257983Y200006D01*
X258956Y199603D01*
X260000Y199466D01*
X261044Y199603D01*
X262017Y200006D01*
X262853Y200647D01*
X263494Y201483D01*
X263897Y202456D01*
X264035Y203500D01*
X263897Y204544D01*
X263494Y205517D01*
X262853Y206353D01*
X262017Y206994D01*
X261044Y207397D01*
X260000Y207535D01*
D02*
G37*
G36*
X270000D02*
X268956Y207397D01*
X267983Y206994D01*
X267147Y206353D01*
X266506Y205517D01*
X266103Y204544D01*
X265966Y203500D01*
X266103Y202456D01*
X266506Y201483D01*
X267147Y200647D01*
X267983Y200006D01*
X268956Y199603D01*
X270000Y199466D01*
X271044Y199603D01*
X272017Y200006D01*
X272853Y200647D01*
X273494Y201483D01*
X273897Y202456D01*
X274035Y203500D01*
X273897Y204544D01*
X273494Y205517D01*
X272853Y206353D01*
X272017Y206994D01*
X271044Y207397D01*
X270000Y207535D01*
D02*
G37*
G36*
X280000D02*
X278956Y207397D01*
X277983Y206994D01*
X277147Y206353D01*
X276506Y205517D01*
X276103Y204544D01*
X275965Y203500D01*
X276103Y202456D01*
X276506Y201483D01*
X277147Y200647D01*
X277983Y200006D01*
X278956Y199603D01*
X280000Y199466D01*
X281044Y199603D01*
X282017Y200006D01*
X282853Y200647D01*
X283494Y201483D01*
X283897Y202456D01*
X284034Y203500D01*
X283897Y204544D01*
X283494Y205517D01*
X282853Y206353D01*
X282017Y206994D01*
X281044Y207397D01*
X280000Y207535D01*
D02*
G37*
G36*
X250000D02*
X248956Y207397D01*
X247983Y206994D01*
X247147Y206353D01*
X246506Y205517D01*
X246103Y204544D01*
X245966Y203500D01*
X246103Y202456D01*
X246506Y201483D01*
X247147Y200647D01*
X247983Y200006D01*
X248956Y199603D01*
X250000Y199466D01*
X251044Y199603D01*
X252017Y200006D01*
X252853Y200647D01*
X253494Y201483D01*
X253897Y202456D01*
X254034Y203500D01*
X253897Y204544D01*
X253494Y205517D01*
X252853Y206353D01*
X252017Y206994D01*
X251044Y207397D01*
X250000Y207535D01*
D02*
G37*
G36*
X290000D02*
X288956Y207397D01*
X287983Y206994D01*
X287147Y206353D01*
X286506Y205517D01*
X286103Y204544D01*
X285965Y203500D01*
X286103Y202456D01*
X286506Y201483D01*
X287147Y200647D01*
X287983Y200006D01*
X288956Y199603D01*
X290000Y199466D01*
X291044Y199603D01*
X292017Y200006D01*
X292853Y200647D01*
X293494Y201483D01*
X293897Y202456D01*
X294035Y203500D01*
X293897Y204544D01*
X293494Y205517D01*
X292853Y206353D01*
X292017Y206994D01*
X291044Y207397D01*
X290000Y207535D01*
D02*
G37*
G36*
X280000Y217534D02*
X278956Y217397D01*
X277983Y216994D01*
X277147Y216353D01*
X276506Y215517D01*
X276103Y214544D01*
X275965Y213500D01*
X276103Y212456D01*
X276506Y211483D01*
X277147Y210647D01*
X277983Y210006D01*
X278956Y209603D01*
X280000Y209466D01*
X281044Y209603D01*
X282017Y210006D01*
X282853Y210647D01*
X283494Y211483D01*
X283897Y212456D01*
X284034Y213500D01*
X283897Y214544D01*
X283494Y215517D01*
X282853Y216353D01*
X282017Y216994D01*
X281044Y217397D01*
X280000Y217534D01*
D02*
G37*
G36*
X290000D02*
X288956Y217397D01*
X287983Y216994D01*
X287147Y216353D01*
X286506Y215517D01*
X286103Y214544D01*
X285965Y213500D01*
X286103Y212456D01*
X286506Y211483D01*
X287147Y210647D01*
X287983Y210006D01*
X288956Y209603D01*
X290000Y209466D01*
X291044Y209603D01*
X292017Y210006D01*
X292853Y210647D01*
X293494Y211483D01*
X293897Y212456D01*
X294035Y213500D01*
X293897Y214544D01*
X293494Y215517D01*
X292853Y216353D01*
X292017Y216994D01*
X291044Y217397D01*
X290000Y217534D01*
D02*
G37*
G36*
X300000D02*
X298956Y217397D01*
X297983Y216994D01*
X297147Y216353D01*
X296506Y215517D01*
X296103Y214544D01*
X295966Y213500D01*
X296103Y212456D01*
X296506Y211483D01*
X297147Y210647D01*
X297983Y210006D01*
X298956Y209603D01*
X300000Y209466D01*
X301044Y209603D01*
X302017Y210006D01*
X302853Y210647D01*
X303494Y211483D01*
X303897Y212456D01*
X304034Y213500D01*
X303897Y214544D01*
X303494Y215517D01*
X302853Y216353D01*
X302017Y216994D01*
X301044Y217397D01*
X300000Y217534D01*
D02*
G37*
G36*
X270000D02*
X268956Y217397D01*
X267983Y216994D01*
X267147Y216353D01*
X266506Y215517D01*
X266103Y214544D01*
X265966Y213500D01*
X266103Y212456D01*
X266506Y211483D01*
X267147Y210647D01*
X267983Y210006D01*
X268956Y209603D01*
X270000Y209466D01*
X271044Y209603D01*
X272017Y210006D01*
X272853Y210647D01*
X273494Y211483D01*
X273897Y212456D01*
X274035Y213500D01*
X273897Y214544D01*
X273494Y215517D01*
X272853Y216353D01*
X272017Y216994D01*
X271044Y217397D01*
X270000Y217534D01*
D02*
G37*
G36*
X300000Y207535D02*
X298956Y207397D01*
X297983Y206994D01*
X297147Y206353D01*
X296506Y205517D01*
X296103Y204544D01*
X295966Y203500D01*
X296103Y202456D01*
X296506Y201483D01*
X297147Y200647D01*
X297983Y200006D01*
X298956Y199603D01*
X300000Y199466D01*
X301044Y199603D01*
X302017Y200006D01*
X302853Y200647D01*
X303494Y201483D01*
X303897Y202456D01*
X304034Y203500D01*
X303897Y204544D01*
X303494Y205517D01*
X302853Y206353D01*
X302017Y206994D01*
X301044Y207397D01*
X300000Y207535D01*
D02*
G37*
G36*
X250000Y217534D02*
X248956Y217397D01*
X247983Y216994D01*
X247147Y216353D01*
X246506Y215517D01*
X246103Y214544D01*
X245966Y213500D01*
X246103Y212456D01*
X246506Y211483D01*
X247147Y210647D01*
X247983Y210006D01*
X248956Y209603D01*
X250000Y209466D01*
X251044Y209603D01*
X252017Y210006D01*
X252853Y210647D01*
X253494Y211483D01*
X253897Y212456D01*
X254034Y213500D01*
X253897Y214544D01*
X253494Y215517D01*
X252853Y216353D01*
X252017Y216994D01*
X251044Y217397D01*
X250000Y217534D01*
D02*
G37*
G36*
X260000D02*
X258956Y217397D01*
X257983Y216994D01*
X257147Y216353D01*
X256506Y215517D01*
X256103Y214544D01*
X255965Y213500D01*
X256103Y212456D01*
X256506Y211483D01*
X257147Y210647D01*
X257983Y210006D01*
X258956Y209603D01*
X260000Y209466D01*
X261044Y209603D01*
X262017Y210006D01*
X262853Y210647D01*
X263494Y211483D01*
X263897Y212456D01*
X264035Y213500D01*
X263897Y214544D01*
X263494Y215517D01*
X262853Y216353D01*
X262017Y216994D01*
X261044Y217397D01*
X260000Y217534D01*
D02*
G37*
G36*
X290000Y177534D02*
X288956Y177397D01*
X287983Y176994D01*
X287147Y176353D01*
X286506Y175517D01*
X286103Y174544D01*
X285965Y173500D01*
X286103Y172456D01*
X286506Y171483D01*
X287147Y170647D01*
X287983Y170006D01*
X288956Y169603D01*
X290000Y169465D01*
X291044Y169603D01*
X292017Y170006D01*
X292853Y170647D01*
X293494Y171483D01*
X293897Y172456D01*
X294035Y173500D01*
X293897Y174544D01*
X293494Y175517D01*
X292853Y176353D01*
X292017Y176994D01*
X291044Y177397D01*
X290000Y177534D01*
D02*
G37*
G36*
X300000D02*
X298956Y177397D01*
X297983Y176994D01*
X297147Y176353D01*
X296506Y175517D01*
X296103Y174544D01*
X295966Y173500D01*
X296103Y172456D01*
X296506Y171483D01*
X297147Y170647D01*
X297983Y170006D01*
X298956Y169603D01*
X300000Y169465D01*
X301044Y169603D01*
X302017Y170006D01*
X302853Y170647D01*
X303494Y171483D01*
X303897Y172456D01*
X304034Y173500D01*
X303897Y174544D01*
X303494Y175517D01*
X302853Y176353D01*
X302017Y176994D01*
X301044Y177397D01*
X300000Y177534D01*
D02*
G37*
G36*
X290000Y187534D02*
X288956Y187397D01*
X287983Y186994D01*
X287147Y186353D01*
X286506Y185517D01*
X286103Y184544D01*
X285965Y183500D01*
X286103Y182456D01*
X286506Y181483D01*
X287147Y180647D01*
X287983Y180006D01*
X288956Y179603D01*
X290000Y179465D01*
X291044Y179603D01*
X292017Y180006D01*
X292853Y180647D01*
X293494Y181483D01*
X293897Y182456D01*
X294035Y183500D01*
X293897Y184544D01*
X293494Y185517D01*
X292853Y186353D01*
X292017Y186994D01*
X291044Y187397D01*
X290000Y187534D01*
D02*
G37*
G36*
X300000D02*
X298956Y187397D01*
X297983Y186994D01*
X297147Y186353D01*
X296506Y185517D01*
X296103Y184544D01*
X295966Y183500D01*
X296103Y182456D01*
X296506Y181483D01*
X297147Y180647D01*
X297983Y180006D01*
X298956Y179603D01*
X300000Y179465D01*
X301044Y179603D01*
X302017Y180006D01*
X302853Y180647D01*
X303494Y181483D01*
X303897Y182456D01*
X304034Y183500D01*
X303897Y184544D01*
X303494Y185517D01*
X302853Y186353D01*
X302017Y186994D01*
X301044Y187397D01*
X300000Y187534D01*
D02*
G37*
G36*
X290000Y197535D02*
X288956Y197397D01*
X287983Y196994D01*
X287147Y196353D01*
X286506Y195517D01*
X286103Y194544D01*
X285965Y193500D01*
X286103Y192456D01*
X286506Y191483D01*
X287147Y190647D01*
X287983Y190006D01*
X288956Y189603D01*
X290000Y189465D01*
X291044Y189603D01*
X292017Y190006D01*
X292853Y190647D01*
X293494Y191483D01*
X293897Y192456D01*
X294035Y193500D01*
X293897Y194544D01*
X293494Y195517D01*
X292853Y196353D01*
X292017Y196994D01*
X291044Y197397D01*
X290000Y197535D01*
D02*
G37*
G36*
X300000D02*
X298956Y197397D01*
X297983Y196994D01*
X297147Y196353D01*
X296506Y195517D01*
X296103Y194544D01*
X295966Y193500D01*
X296103Y192456D01*
X296506Y191483D01*
X297147Y190647D01*
X297983Y190006D01*
X298956Y189603D01*
X300000Y189465D01*
X301044Y189603D01*
X302017Y190006D01*
X302853Y190647D01*
X303494Y191483D01*
X303897Y192456D01*
X304034Y193500D01*
X303897Y194544D01*
X303494Y195517D01*
X302853Y196353D01*
X302017Y196994D01*
X301044Y197397D01*
X300000Y197535D01*
D02*
G37*
%LPD*%
D21*
X90100Y93400D02*
X100000Y83500D01*
X12500Y93400D02*
X90100D01*
X10000Y95900D02*
X12500Y93400D01*
X10000Y95900D02*
Y114500D01*
X14500Y119000D01*
X24500Y191000D02*
Y202800D01*
X89400Y267700D01*
X101300D01*
X107000Y262000D01*
X117000Y257135D02*
X149635Y224500D01*
X308600D01*
X291300Y257600D02*
X359100Y189800D01*
X117000Y257600D02*
X291300D01*
X117000Y257135D02*
Y257600D01*
Y262000D01*
D22*
X240000Y14685D02*
X245785Y8900D01*
X304100D01*
X305600Y10400D01*
X311000D02*
Y15000D01*
X111000Y15748D02*
Y16608D01*
X126540D02*
X128463Y14685D01*
X145000D01*
X51000Y9700D02*
Y15748D01*
Y9700D02*
X52570Y8130D01*
X168445D01*
X175000Y14685D01*
X224500Y109000D02*
X250000Y83500D01*
X24500Y109000D02*
X224500D01*
X101000Y15748D02*
X109937Y24685D01*
X145000D01*
X270000Y83500D02*
X277000Y90500D01*
X309700D01*
X355600Y44600D01*
Y10500D02*
Y44600D01*
X354000Y8900D02*
X355600Y10500D01*
X342000Y8900D02*
X354000D01*
X341000Y9900D02*
X342000Y8900D01*
X341000Y9900D02*
Y15000D01*
X149350Y30335D02*
X155000Y24685D01*
X89535Y30335D02*
X149350D01*
X81000Y21800D02*
X89535Y30335D01*
X81000Y15748D02*
Y21800D01*
X61000Y15748D02*
Y25800D01*
X67133Y31933D01*
X157752D01*
X165000Y24685D01*
X18600Y175100D02*
X24500Y181000D01*
X18600Y114900D02*
Y175100D01*
Y114900D02*
X24500Y109000D01*
X225800Y217700D02*
X230000Y213500D01*
X141500Y217700D02*
X225800D01*
X84800Y161000D02*
X141500Y217700D01*
X24500Y161000D02*
X84800D01*
X48000Y207000D02*
X52200Y202800D01*
Y190600D02*
Y202800D01*
X32600Y171000D02*
X52200Y190600D01*
X24500Y171000D02*
X32600D01*
X14500Y109000D02*
X18700Y104800D01*
X224800D01*
X244200Y85400D01*
Y79300D02*
Y85400D01*
Y79300D02*
X250000Y73500D01*
X91000Y15748D02*
Y26700D01*
X93036Y28736D01*
X147315D01*
X149100Y26951D01*
Y20585D02*
Y26951D01*
Y20585D02*
X155000Y14685D01*
X166085Y33600D02*
X175000Y24685D01*
X47600Y33600D02*
X166085D01*
X41000Y27000D02*
X47600Y33600D01*
X41000Y15748D02*
Y27000D01*
X230000Y14685D02*
X234051Y18736D01*
X262236D01*
X269300Y25800D01*
X325800D01*
X331000Y20600D01*
Y15000D02*
Y20600D01*
X226285Y24685D02*
X230000D01*
X220600Y19000D02*
X226285Y24685D01*
X216700Y19000D02*
X220600D01*
X215800Y18100D02*
X216700Y19000D01*
X215800Y10700D02*
Y18100D01*
Y10700D02*
X220200Y6300D01*
X318700D01*
X321000Y8600D01*
Y15000D01*
X250000Y14685D02*
X262000D01*
X268715Y21400D01*
X290200D01*
X291000Y20600D01*
Y15000D02*
Y20600D01*
X180000Y73500D02*
X184100Y69400D01*
X251700D01*
X254200Y71900D01*
Y95200D01*
X235000Y114400D02*
X254200Y95200D01*
X235000Y114400D02*
Y219000D01*
X231500Y222500D02*
X235000Y219000D01*
X136500Y222500D02*
X231500D01*
X97000Y262000D02*
X136500Y222500D01*
X170000Y73500D02*
X175800Y67700D01*
X253400D01*
X255800Y70100D01*
Y87500D01*
X317300Y149000D01*
Y226800D01*
X299200Y244900D02*
X317300Y226800D01*
X132800Y244900D02*
X299200D01*
X160043Y9728D02*
X165000Y14685D01*
X78072Y9728D02*
X160043D01*
X74000Y13800D02*
X78072Y9728D01*
X71000Y13800D02*
Y15748D01*
X220000Y14685D02*
X225715Y20400D01*
X261200D01*
X273400Y32600D01*
X347600D01*
X351000Y29200D01*
Y15000D02*
Y29200D01*
X240000Y24685D02*
X285000Y69685D01*
Y78500D01*
X290000Y83500D01*
X300000D02*
X304200Y79300D01*
Y66900D02*
Y79300D01*
X299600Y62300D02*
X304200Y66900D01*
X287615Y62300D02*
X299600D01*
X250000Y24685D02*
X287615Y62300D01*
X111000Y16608D02*
X126540D01*
X71000Y13800D02*
X74000D01*
X305600Y10400D02*
X311000D01*
D24*
X147000Y262000D02*
D03*
X145000Y14685D02*
D03*
X220000D02*
D03*
D25*
X137000Y262000D02*
D03*
X127000D02*
D03*
X117000D02*
D03*
X107000D02*
D03*
X97000D02*
D03*
X48000Y207000D02*
D03*
X175000Y24685D02*
D03*
Y14685D02*
D03*
X165000Y24685D02*
D03*
Y14685D02*
D03*
X155000Y24685D02*
D03*
Y14685D02*
D03*
X145000Y24685D02*
D03*
X24500Y161000D02*
D03*
X14500D02*
D03*
X24500Y171000D02*
D03*
X14500D02*
D03*
X24500Y181000D02*
D03*
X14500D02*
D03*
X24500Y191000D02*
D03*
Y89000D02*
D03*
X14500D02*
D03*
X24500Y99000D02*
D03*
X14500D02*
D03*
X24500Y109000D02*
D03*
X14500D02*
D03*
X24500Y119000D02*
D03*
X250000Y24685D02*
D03*
Y14685D02*
D03*
X240000Y24685D02*
D03*
Y14685D02*
D03*
X230000Y24685D02*
D03*
Y14685D02*
D03*
X220000Y24685D02*
D03*
D26*
X48000Y197000D02*
D03*
X14500Y191000D02*
D03*
Y119000D02*
D03*
D27*
X150000Y73500D02*
D03*
Y83500D02*
D03*
X140000Y73500D02*
D03*
Y83500D02*
D03*
X130000Y73500D02*
D03*
Y83500D02*
D03*
X120000Y73500D02*
D03*
Y83500D02*
D03*
X110000Y73500D02*
D03*
Y83500D02*
D03*
X220000Y203500D02*
D03*
Y213500D02*
D03*
X210000Y203500D02*
D03*
Y213500D02*
D03*
X200000Y203500D02*
D03*
Y213500D02*
D03*
X190000Y203500D02*
D03*
Y213500D02*
D03*
X180000Y203500D02*
D03*
Y213500D02*
D03*
X170000Y203500D02*
D03*
Y213500D02*
D03*
X160000Y203500D02*
D03*
Y213500D02*
D03*
X150000Y203500D02*
D03*
Y213500D02*
D03*
X230000D02*
D03*
X290000Y173500D02*
D03*
X300000D02*
D03*
X290000Y183500D02*
D03*
X300000D02*
D03*
X290000Y193500D02*
D03*
X300000D02*
D03*
Y203500D02*
D03*
Y213500D02*
D03*
X290000Y203500D02*
D03*
Y213500D02*
D03*
X280000Y203500D02*
D03*
Y213500D02*
D03*
X270000Y203500D02*
D03*
Y213500D02*
D03*
X260000Y203500D02*
D03*
Y213500D02*
D03*
X250000Y203500D02*
D03*
Y213500D02*
D03*
X240000Y203500D02*
D03*
Y213500D02*
D03*
X230000Y203500D02*
D03*
X160000Y73500D02*
D03*
X300000D02*
D03*
Y83500D02*
D03*
X290000Y73500D02*
D03*
Y83500D02*
D03*
X280000Y73500D02*
D03*
Y83500D02*
D03*
X270000Y73500D02*
D03*
Y83500D02*
D03*
X260000Y73500D02*
D03*
Y83500D02*
D03*
X250000Y73500D02*
D03*
Y83500D02*
D03*
X240000Y73500D02*
D03*
Y83500D02*
D03*
X230000Y73500D02*
D03*
Y83500D02*
D03*
X220000Y73500D02*
D03*
Y83500D02*
D03*
X210000Y73500D02*
D03*
Y83500D02*
D03*
X200000Y73500D02*
D03*
Y83500D02*
D03*
X190000Y73500D02*
D03*
Y83500D02*
D03*
X180000Y73500D02*
D03*
Y83500D02*
D03*
X170000Y73500D02*
D03*
Y83500D02*
D03*
X160000D02*
D03*
X100000Y73500D02*
D03*
Y83500D02*
D03*
D28*
X51000Y15748D02*
D03*
X71000D02*
D03*
X81000D02*
D03*
X111000D02*
D03*
X101000D02*
D03*
X91000D02*
D03*
X61000D02*
D03*
X41000D02*
D03*
X291000Y15000D02*
D03*
X311000D02*
D03*
X321000D02*
D03*
X351000D02*
D03*
X341000D02*
D03*
X331000D02*
D03*
X301000D02*
D03*
X281000D02*
D03*
D29*
X15748Y55118D02*
D03*
X374016D02*
D03*
X15748Y224409D02*
D03*
X374016D02*
D03*
D30*
X308600Y224500D02*
D03*
X359100Y189800D02*
D03*
X132800Y244900D02*
D03*
M02*
