M48
;Layer_Color=9474304
;FILE_FORMAT=2:5
INCH,TZ
;TYPE=PLATED
T1F00S00C0.01181
T2F00S00C0.03543
T3F00S00C0.03600
T4F00S00C0.04331
T5F00S00C0.12992
%
T01
X132800Y244900
X308600Y224500
X359100Y189800
T02
X220000Y14685
X230000
X240000
X250000
Y24685
X240000
X230000
X220000
X175000
Y14685
X165000
Y24685
X155000
Y14685
X145000
Y24685
X24500Y89000
X14500
Y99000
X24500
Y109000
X14500
Y119000
X24500
Y161000
X14500
Y171000
X24500
Y181000
X14500
Y191000
X24500
X48000Y197000
Y207000
X97000Y262000
X107000
X117000
X127000
X137000
X147000
T03
X220000Y73500
X230000
X240000
X250000
X260000
X270000
X280000
X290000
X300000
Y83500
X290000
X280000
X270000
X260000
X250000
X240000
X230000
X220000
X210000
Y73500
X200000
Y83500
X190000
Y73500
X180000
Y83500
X170000
Y73500
X160000
X150000
Y83500
X140000
Y73500
X130000
Y83500
X120000
Y73500
X110000
Y83500
X100000
Y73500
X160000Y83500
Y203500
X170000
X180000
X190000
X200000
X210000
Y213500
X200000
X190000
X180000
X170000
X160000
X150000
Y203500
X220000
Y213500
X230000
X240000
X250000
X260000
X270000
X280000
X290000
X300000
Y203500
Y193500
Y183500
Y173500
X290000
Y183500
Y193500
Y203500
X280000
X270000
X260000
X250000
X240000
X230000
T04
X281000Y15000
X291000
X301000
X311000
X321000
X331000
X341000
X351000
X111000Y15748
X101000
X91000
X81000
X71000
X61000
X51000
X41000
T05
X374016Y55118
X15748
Y224409
X374016
M30
