G04 Layer_Color=8388736*
%FSLAX25Y25*%
%MOIN*%
G70*
G01*
G75*
%ADD38R,0.05524X0.03950*%
%ADD39O,0.09855X0.03162*%
%ADD40R,0.06312X0.05524*%
%ADD41O,0.03162X0.09461*%
%ADD42R,0.06312X0.05524*%
%ADD43R,0.05209X0.01863*%
%ADD44R,0.03950X0.05524*%
%ADD45R,0.04540X0.04343*%
%ADD46R,0.12611X0.06312*%
%ADD47R,0.09600X0.05600*%
%ADD48R,0.09461X0.14973*%
%ADD49R,0.06706X0.06706*%
%ADD50C,0.06706*%
%ADD51R,0.06706X0.06706*%
%ADD52C,0.06800*%
%ADD53O,0.07690X0.10642*%
%ADD54C,0.24422*%
%ADD55C,0.02768*%
D38*
X345000Y216457D02*
D03*
Y223543D02*
D03*
X336000D02*
D03*
Y216457D02*
D03*
X343000Y152543D02*
D03*
Y145457D02*
D03*
X312000D02*
D03*
Y152543D02*
D03*
X67000Y198457D02*
D03*
Y205543D02*
D03*
X353000Y119543D02*
D03*
Y112457D02*
D03*
X345000D02*
D03*
Y119543D02*
D03*
X343000Y60543D02*
D03*
Y53457D02*
D03*
X332000Y60543D02*
D03*
Y53457D02*
D03*
X320000Y60543D02*
D03*
Y53457D02*
D03*
X118000Y233457D02*
D03*
Y240543D02*
D03*
X110000Y233457D02*
D03*
Y240543D02*
D03*
X101000D02*
D03*
Y233457D02*
D03*
D39*
X315087Y207000D02*
D03*
Y202000D02*
D03*
Y197000D02*
D03*
Y192000D02*
D03*
Y187000D02*
D03*
Y182000D02*
D03*
Y177000D02*
D03*
Y172000D02*
D03*
Y167000D02*
D03*
X350913Y207000D02*
D03*
Y202000D02*
D03*
Y197000D02*
D03*
Y192000D02*
D03*
Y187000D02*
D03*
Y182000D02*
D03*
Y177000D02*
D03*
Y172000D02*
D03*
Y167000D02*
D03*
D40*
X332331Y152650D02*
D03*
Y146350D02*
D03*
X323669Y152650D02*
D03*
Y146350D02*
D03*
D41*
X318500Y104551D02*
D03*
X323500D02*
D03*
X328500D02*
D03*
X333500D02*
D03*
X318500Y123449D02*
D03*
X323500D02*
D03*
X328500D02*
D03*
X333500D02*
D03*
D42*
X343000Y68094D02*
D03*
Y79906D02*
D03*
X332000Y68094D02*
D03*
Y79906D02*
D03*
X320000Y68094D02*
D03*
Y79906D02*
D03*
D43*
X131469Y237984D02*
D03*
X142532D02*
D03*
X131469Y239953D02*
D03*
Y236016D02*
D03*
Y234047D02*
D03*
X142532Y239953D02*
D03*
Y236016D02*
D03*
Y234047D02*
D03*
D44*
X117543Y147000D02*
D03*
X110457D02*
D03*
X117543Y139000D02*
D03*
X110457D02*
D03*
X117543Y131000D02*
D03*
X110457D02*
D03*
D45*
X50500Y130201D02*
D03*
Y117799D02*
D03*
D46*
X84449Y109000D02*
D03*
X65551D02*
D03*
X84449Y171500D02*
D03*
X65551D02*
D03*
D47*
X62800Y148600D02*
D03*
Y139500D02*
D03*
Y130400D02*
D03*
D48*
X87201Y139500D02*
D03*
D49*
X147000Y262000D02*
D03*
X145000Y14685D02*
D03*
X220000D02*
D03*
D50*
X137000Y262000D02*
D03*
X127000D02*
D03*
X117000D02*
D03*
X107000D02*
D03*
X97000D02*
D03*
X48000Y207000D02*
D03*
X175000Y24685D02*
D03*
Y14685D02*
D03*
X165000Y24685D02*
D03*
Y14685D02*
D03*
X155000Y24685D02*
D03*
Y14685D02*
D03*
X145000Y24685D02*
D03*
X24500Y161000D02*
D03*
X14500D02*
D03*
X24500Y171000D02*
D03*
X14500D02*
D03*
X24500Y181000D02*
D03*
X14500D02*
D03*
X24500Y191000D02*
D03*
Y89000D02*
D03*
X14500D02*
D03*
X24500Y99000D02*
D03*
X14500D02*
D03*
X24500Y109000D02*
D03*
X14500D02*
D03*
X24500Y119000D02*
D03*
X250000Y24685D02*
D03*
Y14685D02*
D03*
X240000Y24685D02*
D03*
Y14685D02*
D03*
X230000Y24685D02*
D03*
Y14685D02*
D03*
X220000Y24685D02*
D03*
D51*
X48000Y197000D02*
D03*
X14500Y191000D02*
D03*
Y119000D02*
D03*
D52*
X150000Y73500D02*
D03*
Y83500D02*
D03*
X140000Y73500D02*
D03*
Y83500D02*
D03*
X130000Y73500D02*
D03*
Y83500D02*
D03*
X120000Y73500D02*
D03*
Y83500D02*
D03*
X110000Y73500D02*
D03*
Y83500D02*
D03*
X220000Y203500D02*
D03*
Y213500D02*
D03*
X210000Y203500D02*
D03*
Y213500D02*
D03*
X200000Y203500D02*
D03*
Y213500D02*
D03*
X190000Y203500D02*
D03*
Y213500D02*
D03*
X180000Y203500D02*
D03*
Y213500D02*
D03*
X170000Y203500D02*
D03*
Y213500D02*
D03*
X160000Y203500D02*
D03*
Y213500D02*
D03*
X150000Y203500D02*
D03*
Y213500D02*
D03*
X230000D02*
D03*
X290000Y173500D02*
D03*
X300000D02*
D03*
X290000Y183500D02*
D03*
X300000D02*
D03*
X290000Y193500D02*
D03*
X300000D02*
D03*
Y203500D02*
D03*
Y213500D02*
D03*
X290000Y203500D02*
D03*
Y213500D02*
D03*
X280000Y203500D02*
D03*
Y213500D02*
D03*
X270000Y203500D02*
D03*
Y213500D02*
D03*
X260000Y203500D02*
D03*
Y213500D02*
D03*
X250000Y203500D02*
D03*
Y213500D02*
D03*
X240000Y203500D02*
D03*
Y213500D02*
D03*
X230000Y203500D02*
D03*
X160000Y73500D02*
D03*
X300000D02*
D03*
Y83500D02*
D03*
X290000Y73500D02*
D03*
Y83500D02*
D03*
X280000Y73500D02*
D03*
Y83500D02*
D03*
X270000Y73500D02*
D03*
Y83500D02*
D03*
X260000Y73500D02*
D03*
Y83500D02*
D03*
X250000Y73500D02*
D03*
Y83500D02*
D03*
X240000Y73500D02*
D03*
Y83500D02*
D03*
X230000Y73500D02*
D03*
Y83500D02*
D03*
X220000Y73500D02*
D03*
Y83500D02*
D03*
X210000Y73500D02*
D03*
Y83500D02*
D03*
X200000Y73500D02*
D03*
Y83500D02*
D03*
X190000Y73500D02*
D03*
Y83500D02*
D03*
X180000Y73500D02*
D03*
Y83500D02*
D03*
X170000Y73500D02*
D03*
Y83500D02*
D03*
X160000D02*
D03*
X100000Y73500D02*
D03*
Y83500D02*
D03*
D53*
X51000Y15748D02*
D03*
X71000D02*
D03*
X81000D02*
D03*
X111000D02*
D03*
X101000D02*
D03*
X91000D02*
D03*
X61000D02*
D03*
X41000D02*
D03*
X291000Y15000D02*
D03*
X311000D02*
D03*
X321000D02*
D03*
X351000D02*
D03*
X341000D02*
D03*
X331000D02*
D03*
X301000D02*
D03*
X281000D02*
D03*
D54*
X15748Y55118D02*
D03*
X374016D02*
D03*
X15748Y224409D02*
D03*
X374016D02*
D03*
D55*
X308600Y224500D02*
D03*
X359100Y189800D02*
D03*
X132800Y244900D02*
D03*
M02*
