G04 Layer_Color=8421504*
%FSLAX25Y25*%
%MOIN*%
G70*
G01*
G75*
%ADD10R,0.04724X0.03150*%
%ADD11O,0.09055X0.02362*%
%ADD12R,0.05512X0.04724*%
%ADD13O,0.02362X0.08661*%
%ADD14R,0.05512X0.04724*%
%ADD15R,0.04409X0.01063*%
%ADD16R,0.03150X0.04724*%
%ADD17R,0.03740X0.03543*%
%ADD18R,0.11811X0.05512*%
%ADD19R,0.08800X0.04800*%
%ADD20R,0.08661X0.14173*%
D10*
X345000Y216457D02*
D03*
Y223543D02*
D03*
X336000D02*
D03*
Y216457D02*
D03*
X343000Y152543D02*
D03*
Y145457D02*
D03*
X312000D02*
D03*
Y152543D02*
D03*
X67000Y198457D02*
D03*
Y205543D02*
D03*
X353000Y119543D02*
D03*
Y112457D02*
D03*
X345000D02*
D03*
Y119543D02*
D03*
X343000Y60543D02*
D03*
Y53457D02*
D03*
X332000Y60543D02*
D03*
Y53457D02*
D03*
X320000Y60543D02*
D03*
Y53457D02*
D03*
X118000Y233457D02*
D03*
Y240543D02*
D03*
X110000Y233457D02*
D03*
Y240543D02*
D03*
X101000D02*
D03*
Y233457D02*
D03*
D11*
X315087Y207000D02*
D03*
Y202000D02*
D03*
Y197000D02*
D03*
Y192000D02*
D03*
Y187000D02*
D03*
Y182000D02*
D03*
Y177000D02*
D03*
Y172000D02*
D03*
Y167000D02*
D03*
X350913Y207000D02*
D03*
Y202000D02*
D03*
Y197000D02*
D03*
Y192000D02*
D03*
Y187000D02*
D03*
Y182000D02*
D03*
Y177000D02*
D03*
Y172000D02*
D03*
Y167000D02*
D03*
D12*
X332331Y152650D02*
D03*
Y146350D02*
D03*
X323669Y152650D02*
D03*
Y146350D02*
D03*
D13*
X318500Y104551D02*
D03*
X323500D02*
D03*
X328500D02*
D03*
X333500D02*
D03*
X318500Y123449D02*
D03*
X323500D02*
D03*
X328500D02*
D03*
X333500D02*
D03*
D14*
X343000Y68094D02*
D03*
Y79906D02*
D03*
X332000Y68094D02*
D03*
Y79906D02*
D03*
X320000Y68094D02*
D03*
Y79906D02*
D03*
D15*
X131469Y237984D02*
D03*
X142532D02*
D03*
X131469Y239953D02*
D03*
Y236016D02*
D03*
Y234047D02*
D03*
X142532Y239953D02*
D03*
Y236016D02*
D03*
Y234047D02*
D03*
D16*
X117543Y147000D02*
D03*
X110457D02*
D03*
X117543Y139000D02*
D03*
X110457D02*
D03*
X117543Y131000D02*
D03*
X110457D02*
D03*
D17*
X50500Y130201D02*
D03*
Y117799D02*
D03*
D18*
X84449Y109000D02*
D03*
X65551D02*
D03*
X84449Y171500D02*
D03*
X65551D02*
D03*
D19*
X62800Y148600D02*
D03*
Y139500D02*
D03*
Y130400D02*
D03*
D20*
X87201Y139500D02*
D03*
M02*
