G04 Layer_Color=8388736*
%FSLAX25Y25*%
%MOIN*%
G70*
G01*
G75*
%ADD34C,0.00787*%
%ADD37C,0.00800*%
D34*
X18257Y275693D02*
X375317D01*
X11954Y269784D02*
X18257Y275693D01*
X5846Y263676D02*
X11954Y269784D01*
X-63Y257372D02*
X5846Y263676D01*
X-63Y18423D02*
X5846Y12120D01*
X11954Y6011D01*
X18257Y102D01*
X375317D02*
X381621Y6011D01*
X387729Y12120D01*
X393638Y18423D01*
X387729Y263676D02*
X393638Y257372D01*
X381621Y269784D02*
X387729Y263676D01*
X375317Y275693D02*
X381621Y269784D01*
X393638Y257264D02*
Y257372D01*
Y18423D02*
Y257264D01*
X375278Y102D02*
X375317D01*
X200014D02*
X375278D01*
X87048D02*
X200014D01*
X45307D02*
X87048D01*
X27076D02*
X45307D01*
X21517D02*
X27076D01*
X19281D02*
X21517D01*
X18629D02*
X19281D01*
X18373D02*
X18629D01*
X18257D02*
X18373D01*
X-63Y18423D02*
Y195422D01*
Y235824D01*
Y249178D01*
Y254753D01*
Y256413D01*
Y257073D01*
Y257264D01*
Y257372D01*
D37*
X68500Y126600D02*
X81500D01*
X68500D02*
Y152400D01*
X81500D01*
Y126600D02*
Y152400D01*
M02*
