  0
SECTION
  2
HEADER
  9
$ACADVER
  1
AC1015
  9
$ACADMAINTVER
 70
     6
  9
$DWGCODEPAGE
  3
ANSI_1252
  9
$INSBASE
 10
0.0
 20
0.0
 30
0.0
  9
$EXTMIN
 10
0.0
 20
0.0
 30
0.0
  9
$EXTMAX
 10
234.749237
 20
400.498474
 30
2.0
  9
$LIMMIN
 10
0.0
 20
0.0
  9
$LIMMAX
 10
420.0
 20
297.0
  9
$ORTHOMODE
 70
     0
  9
$REGENMODE
 70
     1
  9
$FILLMODE
 70
     1
  9
$QTEXTMODE
 70
     0
  9
$MIRRTEXT
 70
     1
  9
$LTSCALE
 40
1.0
  9
$ATTMODE
 70
     1
  9
$TEXTSIZE
 40
2.5
  9
$TRACEWID
 40
1.0
  9
$TEXTSTYLE
  7
Standard
  9
$CLAYER
  8
0
  9
$CELTYPE
  6
ByLayer
  9
$CECOLOR
 62
   256
  9
$CELTSCALE
 40
1.0
  9
$DISPSILH
 70
     0
  9
$DIMSCALE
 40
1.0
  9
$DIMASZ
 40
2.5
  9
$DIMEXO
 40
0.625
  9
$DIMDLI
 40
3.75
  9
$DIMRND
 40
0.0
  9
$DIMDLE
 40
0.0
  9
$DIMEXE
 40
1.25
  9
$DIMTP
 40
0.0
  9
$DIMTM
 40
0.0
  9
$DIMTXT
 40
2.5
  9
$DIMCEN
 40
2.5
  9
$DIMTSZ
 40
0.0
  9
$DIMTOL
 70
     0
  9
$DIMLIM
 70
     0
  9
$DIMTIH
 70
     0
  9
$DIMTOH
 70
     0
  9
$DIMSE1
 70
     0
  9
$DIMSE2
 70
     0
  9
$DIMTAD
 70
     1
  9
$DIMZIN
 70
     8
  9
$DIMBLK
  1

  9
$DIMASO
 70
     1
  9
$DIMSHO
 70
     1
  9
$DIMPOST
  1

  9
$DIMAPOST
  1

  9
$DIMALT
 70
     0
  9
$DIMALTD
 70
     3
  9
$DIMALTF
 40
0.03937
  9
$DIMLFAC
 40
1.0
  9
$DIMTOFL
 70
     1
  9
$DIMTVP
 40
0.0
  9
$DIMTIX
 70
     0
  9
$DIMSOXD
 70
     0
  9
$DIMSAH
 70
     0
  9
$DIMBLK1
  1

  9
$DIMBLK2
  1

  9
$DIMSTYLE
  2

  9
$DIMCLRD
 70
     0
  9
$DIMCLRE
 70
     0
  9
$DIMCLRT
 70
     0
  9
$DIMTFAC
 40
1.0
  9
$DIMGAP
 40
0.625
  9
$DIMJUST
 70
     0
  9
$DIMSD1
 70
     0
  9
$DIMSD2
 70
     0
  9
$DIMTOLJ
 70
     0
  9
$DIMTZIN
 70
     8
  9
$DIMALTZ
 70
     0
  9
$DIMALTTZ
 70
     0
  9
$DIMUPT
 70
     0
  9
$DIMDEC
 70
     2
  9
$DIMTDEC
 70
     2
  9
$DIMALTU
 70
     2
  9
$DIMALTTD
 70
     3
  9
$DIMTXSTY
  7
Standard
  9
$DIMAUNIT
 70
     0
  9
$DIMADEC
 70
     0
  9
$DIMALTRND
 40
0.0
  9
$DIMAZIN
 70
     0
  9
$DIMDSEP
 70
    44
  9
$DIMATFIT
 70
     0
  9
$DIMFRAC
 70
     0
  9
$DIMLDRBLK
  1

  9
$DIMLUNIT
 70
     2
  9
$DIMLWD
 70
    -2
  9
$DIMLWE
 70
    -2
  9
$DIMTMOVE
 70
     0
  9
$LUNITS
 70
     2
  9
$LUPREC
 70
     4
  9
$SKETCHINC
 40
1.0
  9
$FILLETRAD
 40
2.5
  9
$AUNITS
 70
     0
  9
$AUPREC
 70
     0
  9
$MENU
  1
.
  9
$ELEVATION
 40
0.0
  9
$PELEVATION
 40
0.0
  9
$THICKNESS
 40
0.0
  9
$LIMCHECK
 70
     0
  9
$CHAMFERA
 40
2.5
  9
$CHAMFERB
 40
2.5
  9
$CHAMFERC
 40
0.0
  9
$CHAMFERD
 40
0.0
  9
$SKPOLY
 70
     0
  9
$TDCREATE
 40
0.000000000
  9
$TDUCREATE
 40
0.000000000
  9
$TDUPDATE
 40
0.000000000
  9
$TDUUPDATE
 40
0.000000000
  9
$TDINDWG
 40
0.0000000000
  9
$TDUSRTIMER
 40
0.0000000000
  9
$USRTIMER
 70
     1
  9
$ANGBASE
 50
0.0
  9
$ANGDIR
 70
     0
  9
$PDMODE
 70
     0
  9
$PDSIZE
 40
0.0
  9
$PLINEWID
 40
0.0
  9
$SPLFRAME
 70
     0
  9
$SPLINETYPE
 70
     6
  9
$SPLINESEGS
 70
     8
  9
$HANDSEED
  5
101
  9
$SURFTAB1
 70
     6
  9
$SURFTAB2
 70
     6
  9
$SURFTYPE
 70
     6
  9
$SURFU
 70
     6
  9
$SURFV
 70
     6
  9
$UCSBASE
  2

  9
$UCSNAME
  2

  9
$UCSORG
 10
0.0
 20
0.0
 30
0.0
  9
$UCSXDIR
 10
1.0
 20
0.0
 30
0.0
  9
$UCSYDIR
 10
0.0
 20
1.0
 30
0.0
  9
$UCSORTHOREF
  2

  9
$UCSORTHOVIEW
 70
     1
  9
$UCSORGTOP
 10
0.0
 20
0.0
 30
0.0
  9
$UCSORGBOTTOM
 10
0.0
 20
0.0
 30
0.0
  9
$UCSORGLEFT
 10
0.0
 20
0.0
 30
0.0
  9
$UCSORGRIGHT
 10
0.0
 20
0.0
 30
0.0
  9
$UCSORGFRONT
 10
0.0
 20
0.0
 30
0.0
  9
$UCSORGBACK
 10
0.0
 20
0.0
 30
0.0
  9
$PUCSBASE
  2

  9
$PUCSNAME
  2

  9
$PUCSORG
 10
0.0
 20
0.0
 30
0.0
  9
$PUCSXDIR
 10
1.0
 20
0.0
 30
0.0
  9
$PUCSYDIR
 10
0.0
 20
1.0
 30
0.0
  9
$PUCSORTHOREF
  2

  9
$PUCSORTHOVIEW
 70
     0
  9
$PUCSORGTOP
 10
0.0
 20
0.0
 30
0.0
  9
$PUCSORGBOTTOM
 10
0.0
 20
0.0
 30
0.0
  9
$PUCSORGLEFT
 10
0.0
 20
0.0
 30
0.0
  9
$PUCSORGRIGHT
 10
0.0
 20
0.0
 30
0.0
  9
$PUCSORGFRONT
 10
0.0
 20
0.0
 30
0.0
  9
$PUCSORGBACK
 10
0.0
 20
0.0
 30
0.0
  9
$USERI1
 70
     0
  9
$USERI2
 70
     0
  9
$USERI3
 70
     0
  9
$USERI4
 70
     0
  9
$USERI5
 70
     0
  9
$USERR1
 40
0.0
  9
$USERR2
 40
0.0
  9
$USERR3
 40
0.0
  9
$USERR4
 40
0.0
  9
$USERR5
 40
0.0
  9
$WORLDVIEW
 70
     1
  9
$SHADEDGE
 70
     3
  9
$SHADEDIF
 70
    70
  9
$TILEMODE
 70
     1
  9
$MAXACTVP
 70
    48
  9
$PINSBASE
 10
0.0
 20
0.0
 30
0.0
  9
$PLIMCHECK
 70
     0
  9
$PEXTMIN
 10
0.0
 20
0.0
 30
0.0
  9
$PEXTMAX
 10
234.749237
 20
400.498474
 30
2.0
  9
$PLIMMIN
 10
0.0
 20
0.0
  9
$PLIMMAX
 10
420.0
 20
297.0
  9
$UNITMODE
 70
     0
  9
$VISRETAIN
 70
     0
  9
$PLINEGEN
 70
     0
  9
$PSLTSCALE
 70
     1
  9
$TREEDEPTH
 70
  3020
  9
$CMLSTYLE
  2
Standard
  9
$CMLJUST
 70
     0
  9
$CMLSCALE
 40
20.0
  9
$PROXYGRAPHICS
 70
     1
  9
$MEASUREMENT
 70
     1
  9
$CELWEIGHT
370
    -1
  9
$ENDCAPS
280
     0
  9
$JOINSTYLE
280
     0
  9
$LWDISPLAY
290
     0
  9
$INSUNITS
 70
     0
  9
$HYPERLINKBASE
  1

  9
$STYLESHEET
  1

  9
$XEDIT
290
     1
  9
$CEPSNTYPE
380
     0
  9
$PSTYLEMODE
290
     0
  9
$FINGERPRINTGUID
  2

  9
$VERSIONGUID
  2

  9
$EXTNAMES
290
     0
  9
$PSVPSCALE
 40
0.0
  0
ENDSEC
  0
SECTION
  2
CLASSES
  0
CLASS
  1
LWPOLYLINE
  2
AcDbPolyline
  3
AutoCAD 2000
 90
        0
280
     0
281
     1
  0
CLASS
  1
IMAGE
  2
AcDbRasterImage
  3
ISM
 90
      127
280
     0
281
     1
  0
CLASS
  1
OLE2FRAME
  2
AcDbOle2Frame
  3
AutoCAD 2000
 90
        0
280
     0
281
     1
  0
CLASS
  1
HATCH
  2
AcDbHatch
  3
AutoCAD 2000
 90
        0
280
     0
281
     1
  0
CLASS
  1
DICTIONARYVAR
  2
AcDbDictionaryVar
  3
AutoCAD 2000
 90
        0
280
     0
281
     0
  0
CLASS
  1
RASTERVARIABLES
  2
AcDbRasterVariables
  3
ISM
 90
        0
280
     0
281
     0
  0
CLASS
  1
IMAGEDEF
  2
AcDbRasterImageDef
  3
ISM
 90
        0
280
     0
281
     0
  0
CLASS
  1
IMAGEDEF_REACTOR
  2
AcDbRasterImageDefReactor
  3
ISM
 90
        1
280
     0
281
     0
  0
CLASS
  1
IDBUFFER
  2
AcDbIdBuffer
  3
AutoCAD 2000
 90
        0
280
     0
281
     0
  0
CLASS
  1
SPATIAL_FILTER
  2
AcDbSpatialFilter
  3
AutoCAD 2000
 90
        0
280
     0
281
     0
  0
CLASS
  1
XRECORD
  2
AcDbXrecord
  3
AutoCAD 2000
 90
        0
280
     0
281
     0
  0
CLASS
  1
SORTENTSTABLE
  2
AcDbSortentsTable
  3
AutoCAD 2000
 90
        0
280
     0
281
     0
  0
CLASS
  1
LAYER_INDEX
  2
AcDbLayerIndex
  3
AutoCAD 2000
 90
        0
280
     0
281
     0
  0
CLASS
  1
SPATIAL_INDEX
  2
AcDbSpatialIndex
  3
AutoCAD 2000
 90
        0
280
     0
281
     0
  0
CLASS
  1
OBJECT_PTR
  2
CAseDLPNTableRecord
  3
"ASE-LPNTableRecord"
 90
        1
280
     0
281
     0
  0
CLASS
  1
LAYOUT
  2
AcDbLayout
  3
AutoCAD 2000
 90
        0
280
     0
281
     0
  0
CLASS
  1
PLOTSETTINGS
  2
AcDbPlotSettings
  3
AutoCAD 2000
 90
        0
280
     0
281
     0
  0
CLASS
  1
ACDBDICTIONARYWDFLT
  2
AcDbDictionaryWithDefault
  3
AutoCAD 2000
 90
        0
280
     0
281
     0
  0
CLASS
  1
ACDBPLACEHOLDER
  2
AcDbPlaceHolder
  3
AutoCAD 2000
 90
        0
280
     0
281
     0
  0
CLASS
  1
VBA_PROJECT
  2
AcDbVbaProject
  3
acadvba
 90
        0
280
     0
281
     0
  0
CLASS
  1
WIPEOUT
  2
AcDbWipeout
  3
WipeOut|AutoCAD Express Tool|expresstools@autodesk.com
 90
      127
280
     0
281
     1
  0
CLASS
  1
WIPEOUTVARIABLES
  2
AcDbWipeoutVariables
  3
WipeOut|AutoCAD Express Tool|expresstools@autodesk.com
 90
        0
280
     0
281
     0
  0
CLASS
  1
RTEXT
  2
RText
  3
RText|AutoCAD Express Tool|expresstools@autodesk.com
 90
        0
280
     0
281
     1
  0
CLASS
  1
ARCALIGNEDTEXT
  2
AcDbArcAlignedText
  3
ATEXT|AutoCAD Express Tool|expresstools@autodesk.com
 90
        0
280
     0
281
     1
  0
ENDSEC
  0
SECTION
  2
TABLES
  0
TABLE
  2
VPORT
  5
7
100
AcDbSymbolTable
 70
     1
  0
VPORT
  5
15
100
AcDbSymbolTableRecord
100
AcDbViewportTableRecord
  2
*ACTIVE
 70
     0
 10
0.0
 20
0.0
 11
1.0
 21
1.0
 12
6.591288
 22
4.579184
 13
0.0
 23
0.0
 14
1.0
 24
1.0
 15
0.0
 25
0.0
 16
0.0
 26
0.0
 36
1.0
 17
0.0
 27
0.0
 37
0.0
 40
9.158369
 41
0.688564
 42
50.0
 43
0.0
 44
0.0
 50
0.0
 51
0.0
 71
     0
 72
   100
 73
     1
 74
     1
 75
     0
 76
     0
 77
     0
 78
     0
281
     0
 65
     0
110
0.0
120
0.0
130
0.0
111
1.0
121
0.0
131
0.0
112
0.0
122
1.0
132
0.0
345
0
346
0
 79
     0
146
0.0
  0
ENDTAB
  0
TABLE
  2
LTYPE
  5
4
100
AcDbSymbolTable
 70
     3
  0
LTYPE
  5
11
100
AcDbSymbolTableRecord
100
AcDbLinetypeTableRecord
  2
ByBlock
 70
    64
  3

 72
    65
 73
     0
 40
0.0
  0
LTYPE
  5
12
100
AcDbSymbolTableRecord
100
AcDbLinetypeTableRecord
  2
ByLayer
 70
    64
  3

 72
    65
 73
     0
 40
0.0
  0
LTYPE
  5
13
100
AcDbSymbolTableRecord
100
AcDbLinetypeTableRecord
  2
Continuous
 70
    64
  3
Solid line
 72
    65
 73
     0
 40
0.0
  0
ENDTAB
  0
TABLE
  2
LAYER
  5
2
100
AcDbSymbolTable
 70
     1
  0
LAYER
  5
14
100
AcDbSymbolTableRecord
100
AcDbLayerTableRecord
  2
0
 70
     0
 62
     7
  6
Continuous
290
     1
370
    -3
390
1D
  0
ENDTAB
  0
TABLE
  2
STYLE
  5
3
100
AcDbSymbolTable
 70
     1
  0
STYLE
  5
17
100
AcDbSymbolTableRecord
100
AcDbTextStyleTableRecord
  2
Standard
 70
     0
 40
0.0
 41
1.0
 50
0.0
 71
     0
 42
0.0
  3
txt
  4

  0
ENDTAB
  0
TABLE
  2
VIEW
  5
5
100
AcDbSymbolTable
 70
     0
  0
ENDTAB
  0
TABLE
  2
UCS
  5
6
100
AcDbSymbolTable
 70
     0
  0
ENDTAB
  0
TABLE
  2
APPID
  5
8
100
AcDbSymbolTable
 70
     1
  0
APPID
  5
16
100
AcDbSymbolTableRecord
100
AcDbRegAppTableRecord
  2
ACAD
 70
     0
  0
ENDTAB
  0
TABLE
  2
DIMSTYLE
  5
9
100
AcDbSymbolTable
 70
     1
100
AcDbDimStyleTable
 71
     0
  0
DIMSTYLE
105
18
100
AcDbSymbolTableRecord
100
AcDbDimStyleTableRecord
  2
Standard
 70
     0
  3

  4

 40
1.0
 41
0.18
 42
0.0625
 43
0.38
 44
0.18
 45
0.0
 46
0.0
 47
0.0
 48
0.0
 71
     0
 72
     0
 73
     1
 74
     1
 75
     0
 76
     0
 77
     0
 78
     0
 79
     0
140
0.18
141
0.09
142
0.0
143
25.4
144
1.0
145
0.0
146
1.0
147
0.09
148
0.0
170
     0
171
     2
172
     0
173
     0
174
     0
175
     0
176
     0
177
     0
178
     0
179
     0
271
     4
272
     4
273
     2
274
     2
275
     0
276
     0
277
     2
278
    46
279
     0
280
     0
281
     0
282
     0
283
     1
284
     0
285
     0
286
     0
288
     0
289
     3
340
17
341
0
342
0
343
0
344
0
371
    -2
372
    -2
  0
ENDTAB
  0
TABLE
  2
BLOCK_RECORD
  5
1
100
AcDbSymbolTable
 70
     0
  0
BLOCK_RECORD
  5
A
100
AcDbSymbolTableRecord
100
AcDbBlockTableRecord
  2
*MODEL_SPACE
340
20
  0
BLOCK_RECORD
  5
B
100
AcDbSymbolTableRecord
100
AcDbBlockTableRecord
  2
*PAPER_SPACE
340
21
  0
ENDTAB
  0
ENDSEC
  0
SECTION
  2
BLOCKS
  0
BLOCK
  5
D
100
AcDbEntity
  8
0
390
0
100
AcDbBlockBegin
  2
*MODEL_SPACE
 70
     0
 10
0.0
 20
0.0
 30
0.0
  3
*MODEL_SPACE
  1

  0
ENDBLK
  5
E
100
AcDbEntity
  8
0
390
0
100
AcDbBlockEnd
  0
BLOCK
  5
F
100
AcDbEntity
 67
     1
  8
0
390
0
100
AcDbBlockBegin
  2
*PAPER_SPACE
 70
     0
 10
0.0
 20
0.0
 30
0.0
  3
*PAPER_SPACE
  1

  0
ENDBLK
  5
10
100
AcDbEntity
 67
     1
  8
0
390
0
100
AcDbBlockEnd
  0
ENDSEC
  0
SECTION
  2
ENTITIES
  0
VIEWPORT
  5
100
100
AcDbEntity
 67
     1
  8
0
370
     0
390
0
 62
     0
 48
0.0
100
AcDbViewport
 10
0.0
 20
0.0
 30
0.0
 40
1000.0
 41
1000.0
 68
     1
 69
     1
 12
0.0
 22
0.0
 13
0.0
 23
0.0
 14
1.0
 24
1.0
 15
1.0
 25
1.0
 16
0.0
 26
0.0
 36
1.0
 17
0.0
 27
0.0
 37
0.0
 42
50.0
 43
0.0
 44
0.0
 45
1000.0
 50
0.0
 51
0.0
 72
   100
 90
        0
340
0
  1

281
     0
 71
     0
 74
     1
110
0.0
120
0.0
130
0.0
111
1.0
121
0.0
131
0.0
112
0.0
122
1.0
132
0.0
345
0
346
0
 79
     0
146
0.0
  0
ELLIPSE
  5
24
100
AcDbEntity
  8
0
370
    35
390
0
 62
     7
100
AcDbEllipse
 10
-17.249249
 20
-86.5
 30
0.0
 11
9.0
 21
0.0
 31
0.0
210
0.0
220
0.0
230
1.0
 40
0.666667
 41
4.7123889803846888
 42
7.853981633974378
  0
LINE
  5
25
100
AcDbEntity
  8
0
370
    35
390
0
 62
     7
 48
0.225
100
AcDbLine
 10
-17.249249
 20
-71.5
 30
0.0
 11
-17.249249
 21
-80.5
 31
0.0
210
0.0
220
0.0
230
1.0
  0
LINE
  5
26
100
AcDbEntity
  8
0
370
    35
390
0
 62
     7
 48
0.225
100
AcDbLine
 10
-17.249249
 20
-47.5
 30
0.0
 11
-17.249249
 21
-56.5
 31
0.0
210
0.0
220
0.0
230
1.0
  0
ARC
  5
27
100
AcDbEntity
  8
0
370
    35
390
0
 62
     7
100
AcDbCircle
 10
-17.249249
 20
-64.0
 30
0.0
 40
7.5
210
0.0
220
0.0
230
1.0
100
AcDbArc
 50
269.999997
 51
90.000003
  0
LINE
  5
28
100
AcDbEntity
  8
0
370
    35
390
0
 62
     7
 48
0.1625
100
AcDbLine
 10
-17.249249
 20
-92.5
 30
0.0
 11
-17.249249
 21
-99.0
 31
0.0
210
0.0
220
0.0
230
1.0
  0
ARC
  5
29
100
AcDbEntity
  8
0
370
    35
390
0
 62
     7
100
AcDbCircle
 10
-17.249249
 20
148.5
 30
0.0
 40
247.5
210
0.0
220
0.0
230
1.0
100
AcDbArc
 50
269.999997
 51
282.452682
  0
ARC
  5
2A
100
AcDbEntity
  8
0
370
    35
390
0
 62
     7
100
AcDbCircle
 10
-17.249249
 20
148.5
 30
0.0
 40
247.5
210
0.0
220
0.0
230
1.0
100
AcDbArc
 50
287.54732
 51
312.452683
  0
ARC
  5
2B
100
AcDbEntity
  8
0
370
    35
390
0
 62
     7
100
AcDbCircle
 10
-17.249249
 20
148.5
 30
0.0
 40
247.5
210
0.0
220
0.0
230
1.0
100
AcDbArc
 50
317.547318
 51
342.452682
  0
ARC
  5
2C
100
AcDbEntity
  8
0
370
    35
390
0
 62
     7
100
AcDbCircle
 10
-17.249249
 20
148.5
 30
0.0
 40
247.5
210
0.0
220
0.0
230
1.0
100
AcDbArc
 50
347.547318
 51
12.452682
  0
ARC
  5
2D
100
AcDbEntity
  8
0
370
    35
390
0
 62
     7
100
AcDbCircle
 10
-17.249249
 20
148.5
 30
0.0
 40
247.5
210
0.0
220
0.0
230
1.0
100
AcDbArc
 50
17.547318
 51
42.452682
  0
ARC
  5
2E
100
AcDbEntity
  8
0
370
    35
390
0
 62
     7
100
AcDbCircle
 10
-17.249249
 20
148.5
 30
0.0
 40
247.5
210
0.0
220
0.0
230
1.0
100
AcDbArc
 50
47.547317
 51
72.45268
  0
ARC
  5
2F
100
AcDbEntity
  8
0
370
    35
390
0
 62
     7
100
AcDbCircle
 10
-17.249249
 20
148.5
 30
0.0
 40
247.5
210
0.0
220
0.0
230
1.0
100
AcDbArc
 50
77.547318
 51
90.000003
  0
LINE
  5
30
100
AcDbEntity
  8
0
370
    35
390
0
 62
     7
 48
0.1625
100
AcDbLine
 10
-17.249249
 20
396.0
 30
0.0
 11
-17.249249
 21
389.5
 31
0.0
210
0.0
220
0.0
230
1.0
  0
ELLIPSE
  5
31
100
AcDbEntity
  8
0
370
    35
390
0
 62
     7
100
AcDbEllipse
 10
-17.249249
 20
383.5
 30
0.0
 11
9.0
 21
0.0
 31
0.0
210
0.0
220
0.0
230
1.0
 40
0.666667
 41
4.7123889803846897
 42
7.8539816339743993
  0
LINE
  5
32
100
AcDbEntity
  8
0
370
    35
390
0
 62
     7
 48
0.225
100
AcDbLine
 10
-17.249249
 20
377.5
 30
0.0
 11
-17.249249
 21
368.5
 31
0.0
210
0.0
220
0.0
230
1.0
  0
ARC
  5
33
100
AcDbEntity
  8
0
370
    35
390
0
 62
     7
100
AcDbCircle
 10
-17.249249
 20
361.0
 30
0.0
 40
7.5
210
0.0
220
0.0
230
1.0
100
AcDbArc
 50
90.000003
 51
269.999997
  0
LINE
  5
34
100
AcDbEntity
  8
0
370
    35
390
0
 62
     7
 48
0.225
100
AcDbLine
 10
-17.249249
 20
353.5
 30
0.0
 11
-17.249249
 21
344.5
 31
0.0
210
0.0
220
0.0
230
1.0
  0
ELLIPSE
  5
35
100
AcDbEntity
  8
0
370
    35
390
0
 62
     7
100
AcDbEllipse
 10
-17.249249
 20
338.5
 30
0.0
 11
9.0
 21
0.0
 31
0.0
210
0.0
220
0.0
230
1.0
 40
0.666667
 41
4.7123889803846879
 42
7.8539816339747288
  0
LINE
  5
36
100
AcDbEntity
  8
0
370
    35
390
0
 62
     7
 48
0.1625
100
AcDbLine
 10
-17.249249
 20
332.5
 30
0.0
 11
-17.249249
 21
326.0
 31
0.0
210
0.0
220
0.0
230
1.0
  0
ARC
  5
37
100
AcDbEntity
  8
0
370
    35
390
0
 62
     7
100
AcDbCircle
 10
-17.249249
 20
148.5
 30
0.0
 40
177.5
210
0.0
220
0.0
230
1.0
100
AcDbArc
 50
83.583586
 51
90.000003
  0
ARC
  5
38
100
AcDbEntity
  8
0
370
    35
390
0
 62
     7
100
AcDbCircle
 10
13.573303
 20
323.303375
 30
0.0
 40
11.1
210
0.0
220
0.0
230
1.0
100
AcDbArc
 50
79.999998
 51
171.791798
  0
ARC
  5
39
100
AcDbEntity
  8
0
370
    35
390
0
 62
     7
100
AcDbCircle
 10
-17.249249
 20
148.5
 30
0.0
 40
188.6
210
0.0
220
0.0
230
1.0
100
AcDbArc
 50
70.0
 51
79.999998
  0
ARC
  5
3A
100
AcDbEntity
  8
0
370
    35
390
0
 62
     7
100
AcDbCircle
 10
43.459328
 20
315.295441
 30
0.0
 40
11.1
210
0.0
220
0.0
230
1.0
100
AcDbArc
 50
338.208205
 51
70.0
  0
ARC
  5
3B
100
AcDbEntity
  8
0
370
    35
390
0
 62
     7
100
AcDbCircle
 10
-17.249249
 20
148.5
 30
0.0
 40
177.5
210
0.0
220
0.0
230
1.0
100
AcDbArc
 50
53.583589
 51
66.416411
  0
ARC
  5
3C
100
AcDbEntity
  8
0
370
    35
390
0
 62
     7
100
AcDbCircle
 10
96.845551
 20
284.4729
 30
0.0
 40
11.1
210
0.0
220
0.0
230
1.0
100
AcDbArc
 50
50.0
 51
141.79179
  0
ARC
  5
3D
100
AcDbEntity
  8
0
370
    35
390
0
 62
     7
100
AcDbCircle
 10
-17.249249
 20
148.5
 30
0.0
 40
188.6
210
0.0
220
0.0
230
1.0
100
AcDbArc
 50
40.000002
 51
50.0
  0
ARC
  5
3E
100
AcDbEntity
  8
0
370
    35
390
0
 62
     7
100
AcDbCircle
 10
118.723633
 20
262.594788
 30
0.0
 40
11.1
210
0.0
220
0.0
230
1.0
100
AcDbArc
 50
308.208205
 51
40.000002
  0
ARC
  5
3F
100
AcDbEntity
  8
0
370
    35
390
0
 62
     7
100
AcDbCircle
 10
-17.249249
 20
148.5
 30
0.0
 40
177.5
210
0.0
220
0.0
230
1.0
100
AcDbArc
 50
23.583588
 51
36.416414
  0
ARC
  5
40
100
AcDbEntity
  8
0
370
    35
390
0
 62
     7
100
AcDbCircle
 10
149.546188
 20
209.208572
 30
0.0
 40
11.1
210
0.0
220
0.0
230
1.0
100
AcDbArc
 50
20.000001
 51
111.791796
  0
ARC
  5
41
100
AcDbEntity
  8
0
370
    35
390
0
 62
     7
100
AcDbCircle
 10
-17.249249
 20
148.5
 30
0.0
 40
188.6
210
0.0
220
0.0
230
1.0
100
AcDbArc
 50
10.000001
 51
20.000001
  0
ARC
  5
42
100
AcDbEntity
  8
0
370
    35
390
0
 62
     7
100
AcDbCircle
 10
157.554123
 20
179.322556
 30
0.0
 40
11.1
210
0.0
220
0.0
230
1.0
100
AcDbArc
 50
278.208205
 51
10.000001
  0
ARC
  5
43
100
AcDbEntity
  8
0
370
    35
390
0
 62
     7
100
AcDbCircle
 10
-17.249249
 20
148.5
 30
0.0
 40
177.5
210
0.0
220
0.0
230
1.0
100
AcDbArc
 50
353.583588
 51
6.416412
  0
ARC
  5
44
100
AcDbEntity
  8
0
370
    35
390
0
 62
     7
100
AcDbCircle
 10
157.554123
 20
117.677444
 30
0.0
 40
11.1
210
0.0
220
0.0
230
1.0
100
AcDbArc
 50
349.999999
 51
81.791795
  0
ARC
  5
45
100
AcDbEntity
  8
0
370
    35
390
0
 62
     7
100
AcDbCircle
 10
-17.249249
 20
148.5
 30
0.0
 40
188.6
210
0.0
220
0.0
230
1.0
100
AcDbArc
 50
339.999999
 51
349.999999
  0
ARC
  5
46
100
AcDbEntity
  8
0
370
    35
390
0
 62
     7
100
AcDbCircle
 10
149.546188
 20
87.791428
 30
0.0
 40
11.1
210
0.0
220
0.0
230
1.0
100
AcDbArc
 50
248.208204
 51
339.999999
  0
ARC
  5
47
100
AcDbEntity
  8
0
370
    35
390
0
 62
     7
100
AcDbCircle
 10
-17.249249
 20
148.5
 30
0.0
 40
177.5
210
0.0
220
0.0
230
1.0
100
AcDbArc
 50
323.583586
 51
336.416412
  0
ARC
  5
48
100
AcDbEntity
  8
0
370
    35
390
0
 62
     7
100
AcDbCircle
 10
118.723633
 20
34.405197
 30
0.0
 40
11.1
210
0.0
220
0.0
230
1.0
100
AcDbArc
 50
319.999998
 51
51.791795
  0
ARC
  5
49
100
AcDbEntity
  8
0
370
    35
390
0
 62
     7
100
AcDbCircle
 10
-17.249249
 20
148.5
 30
0.0
 40
188.6
210
0.0
220
0.0
230
1.0
100
AcDbArc
 50
310.0
 51
319.999998
  0
ARC
  5
4A
100
AcDbEntity
  8
0
370
    35
390
0
 62
     7
100
AcDbCircle
 10
96.845551
 20
12.527115
 30
0.0
 40
11.1
210
0.0
220
0.0
230
1.0
100
AcDbArc
 50
218.20821
 51
310.0
  0
ARC
  5
4B
100
AcDbEntity
  8
0
370
    35
390
0
 62
     7
100
AcDbCircle
 10
-17.249249
 20
148.5
 30
0.0
 40
177.5
210
0.0
220
0.0
230
1.0
100
AcDbArc
 50
293.583589
 51
306.416411
  0
ARC
  5
4C
100
AcDbEntity
  8
0
370
    35
390
0
 62
     7
100
AcDbCircle
 10
43.459328
 20
-18.295441
 30
0.0
 40
11.1
210
0.0
220
0.0
230
1.0
100
AcDbArc
 50
290.0
 51
21.791795
  0
ARC
  5
4D
100
AcDbEntity
  8
0
370
    35
390
0
 62
     7
100
AcDbCircle
 10
-17.249249
 20
148.5
 30
0.0
 40
188.6
210
0.0
220
0.0
230
1.0
100
AcDbArc
 50
280.000002
 51
290.0
  0
ARC
  5
4E
100
AcDbEntity
  8
0
370
    35
390
0
 62
     7
100
AcDbCircle
 10
13.573303
 20
-26.303375
 30
0.0
 40
11.1
210
0.0
220
0.0
230
1.0
100
AcDbArc
 50
188.208202
 51
280.000002
  0
ARC
  5
4F
100
AcDbEntity
  8
0
370
    35
390
0
 62
     7
100
AcDbCircle
 10
-17.249249
 20
148.5
 30
0.0
 40
177.5
210
0.0
220
0.0
230
1.0
100
AcDbArc
 50
269.999997
 51
276.416414
  0
LINE
  5
50
100
AcDbEntity
  8
0
370
    35
390
0
 62
     7
 48
0.1625
100
AcDbLine
 10
-17.249249
 20
-29.0
 30
0.0
 11
-17.249249
 21
-35.5
 31
0.0
210
0.0
220
0.0
230
1.0
  0
ELLIPSE
  5
51
100
AcDbEntity
  8
0
370
    35
390
0
 62
     7
100
AcDbEllipse
 10
-17.249249
 20
-41.5
 30
0.0
 11
9.0
 21
0.0
 31
0.0
210
0.0
220
0.0
230
1.0
 40
0.666667
 41
4.7123889803846888
 42
7.8539816339742279
  0
CIRCLE
  5
52
100
AcDbEntity
  8
0
370
    35
390
0
 62
     7
100
AcDbCircle
 10
4.985718
 20
359.950134
 30
0.0
 40
2.0
210
0.0
220
0.0
230
1.0
  0
CIRCLE
  5
53
100
AcDbEntity
  8
0
370
    35
390
0
 62
     7
100
AcDbCircle
 10
69.219788
 20
342.738708
 30
0.0
 40
2.0
210
0.0
220
0.0
230
1.0
  0
CIRCLE
  5
54
100
AcDbEntity
  8
0
370
    35
390
0
 62
     7
100
AcDbCircle
 10
37.102753
 20
351.344421
 30
0.0
 40
12.5
210
0.0
220
0.0
230
1.0
  0
CIRCLE
  5
55
100
AcDbEntity
  8
0
370
    35
390
0
 62
     7
100
AcDbCircle
 10
43.832047
 20
376.458496
 30
0.0
 40
2.0
210
0.0
220
0.0
230
1.0
  0
CIRCLE
  5
56
100
AcDbEntity
  8
0
370
    35
390
0
 62
     7
100
AcDbCircle
 10
107.731873
 20
320.503723
 30
0.0
 40
2.0
210
0.0
220
0.0
230
1.0
  0
CIRCLE
  5
57
100
AcDbEntity
  8
0
370
    35
390
0
 62
     7
100
AcDbCircle
 10
154.754471
 20
273.48114
 30
0.0
 40
2.0
210
0.0
220
0.0
230
1.0
  0
CIRCLE
  5
58
100
AcDbEntity
  8
0
370
    35
390
0
 62
     7
100
AcDbCircle
 10
131.243179
 20
296.992432
 30
0.0
 40
12.5
210
0.0
220
0.0
230
1.0
  0
CIRCLE
  5
59
100
AcDbEntity
  8
0
370
    35
390
0
 62
     7
100
AcDbCircle
 10
149.627945
 20
315.377197
 30
0.0
 40
2.0
210
0.0
220
0.0
230
1.0
  0
CIRCLE
  5
5A
100
AcDbEntity
  8
0
370
    35
390
0
 62
     7
100
AcDbCircle
 10
176.989441
 20
234.969025
 30
0.0
 40
2.0
210
0.0
220
0.0
230
1.0
  0
CIRCLE
  5
5B
100
AcDbEntity
  8
0
370
    35
390
0
 62
     7
100
AcDbCircle
 10
194.200897
 20
170.73497
 30
0.0
 40
2.0
210
0.0
220
0.0
230
1.0
  0
CIRCLE
  5
5C
100
AcDbEntity
  8
0
370
    35
390
0
 62
     7
100
AcDbCircle
 10
185.595169
 20
202.852005
 30
0.0
 40
12.5
210
0.0
220
0.0
230
1.0
  0
CIRCLE
  5
5D
100
AcDbEntity
  8
0
370
    35
390
0
 62
     7
100
AcDbCircle
 10
210.709244
 20
209.581299
 30
0.0
 40
2.0
210
0.0
220
0.0
230
1.0
  0
CIRCLE
  5
5E
100
AcDbEntity
  8
0
370
    35
390
0
 62
     7
100
AcDbCircle
 10
194.200897
 20
126.26503
 30
0.0
 40
2.0
210
0.0
220
0.0
230
1.0
  0
CIRCLE
  5
5F
100
AcDbEntity
  8
0
370
    35
390
0
 62
     7
100
AcDbCircle
 10
176.989441
 20
62.030968
 30
0.0
 40
2.0
210
0.0
220
0.0
230
1.0
  0
CIRCLE
  5
60
100
AcDbEntity
  8
0
370
    35
390
0
 62
     7
100
AcDbCircle
 10
185.595169
 20
94.147995
 30
0.0
 40
12.5
210
0.0
220
0.0
230
1.0
  0
CIRCLE
  5
61
100
AcDbEntity
  8
0
370
    35
390
0
 62
     7
100
AcDbCircle
 10
210.709244
 20
87.418701
 30
0.0
 40
2.0
210
0.0
220
0.0
230
1.0
  0
CIRCLE
  5
62
100
AcDbEntity
  8
0
370
    35
390
0
 62
     7
100
AcDbCircle
 10
154.754471
 20
23.518875
 30
0.0
 40
2.0
210
0.0
220
0.0
230
1.0
  0
CIRCLE
  5
63
100
AcDbEntity
  8
0
370
    35
390
0
 62
     7
100
AcDbCircle
 10
107.731873
 20
-23.503723
 30
0.0
 40
2.0
210
0.0
220
0.0
230
1.0
  0
CIRCLE
  5
64
100
AcDbEntity
  8
0
370
    35
390
0
 62
     7
100
AcDbCircle
 10
131.243179
 20
0.007568
 30
0.0
 40
12.5
210
0.0
220
0.0
230
1.0
  0
CIRCLE
  5
65
100
AcDbEntity
  8
0
370
    35
390
0
 62
     7
100
AcDbCircle
 10
149.627945
 20
-18.377197
 30
0.0
 40
2.0
210
0.0
220
0.0
230
1.0
  0
CIRCLE
  5
66
100
AcDbEntity
  8
0
370
    35
390
0
 62
     7
100
AcDbCircle
 10
69.219788
 20
-45.738693
 30
0.0
 40
2.0
210
0.0
220
0.0
230
1.0
  0
CIRCLE
  5
67
100
AcDbEntity
  8
0
370
    35
390
0
 62
     7
100
AcDbCircle
 10
4.985718
 20
-62.95015
 30
0.0
 40
2.0
210
0.0
220
0.0
230
1.0
  0
CIRCLE
  5
68
100
AcDbEntity
  8
0
370
    35
390
0
 62
     7
100
AcDbCircle
 10
37.102753
 20
-54.344421
 30
0.0
 40
12.5
210
0.0
220
0.0
230
1.0
  0
CIRCLE
  5
69
100
AcDbEntity
  8
0
370
    35
390
0
 62
     7
100
AcDbCircle
 10
43.832047
 20
-79.458496
 30
0.0
 40
2.0
210
0.0
220
0.0
230
1.0
  0
ARC
  5
6A
100
AcDbEntity
  8
0
370
    35
390
0
 62
     7
100
AcDbCircle
 10
99.326538
 20
355.465179
 30
0.0
 40
0.5
210
0.0
220
0.0
230
1.0
100
AcDbArc
 50
329.999999
 51
239.999997
  0
LINE
  5
6B
100
AcDbEntity
  8
0
370
    35
390
0
 62
     7
 48
0.10125
100
AcDbLine
 10
99.759552
 20
355.215179
 30
0.0
 11
103.266953
 21
353.190186
 31
0.0
210
0.0
220
0.0
230
1.0
  0
ARC
  5
6C
100
AcDbEntity
  8
0
370
    35
390
0
 62
     7
100
AcDbCircle
 10
103.699966
 20
352.940186
 30
0.0
 40
0.5
210
0.0
220
0.0
230
1.0
100
AcDbArc
 50
239.999997
 51
149.999997
  0
LINE
  5
6D
100
AcDbEntity
  8
0
370
    35
390
0
 62
     7
 48
0.22625
100
AcDbLine
 10
98.924973
 20
344.669647
 30
0.0
 11
103.449966
 21
352.507172
 31
0.0
210
0.0
220
0.0
230
1.0
  0
ARC
  5
6E
100
AcDbEntity
  8
0
370
    35
390
0
 62
     7
100
AcDbCircle
 10
98.674973
 20
344.236633
 30
0.0
 40
0.5
210
0.0
220
0.0
230
1.0
100
AcDbArc
 50
149.999997
 51
60.000002
  0
LINE
  5
6F
100
AcDbEntity
  8
0
370
    35
390
0
 62
     7
 48
0.10125
100
AcDbLine
 10
94.734543
 20
346.511627
 30
0.0
 11
98.241959
 21
344.486633
 31
0.0
210
0.0
220
0.0
230
1.0
  0
ARC
  5
70
100
AcDbEntity
  8
0
370
    35
390
0
 62
     7
100
AcDbCircle
 10
94.301544
 20
346.761627
 30
0.0
 40
0.5
210
0.0
220
0.0
230
1.0
100
AcDbArc
 50
60.000002
 51
329.999999
  0
LINE
  5
71
100
AcDbEntity
  8
0
370
    35
390
0
 62
     7
 48
0.22625
100
AcDbLine
 10
94.551544
 20
347.194641
 30
0.0
 11
99.076538
 21
355.032166
 31
0.0
210
0.0
220
0.0
230
1.0
  0
LINE
  5
72
100
AcDbEntity
  8
0
370
    35
390
0
 62
     7
 48
0.10125
100
AcDbLine
 10
79.759552
 20
320.574158
 30
0.0
 11
83.266953
 21
318.549164
 31
0.0
210
0.0
220
0.0
230
1.0
  0
ARC
  5
73
100
AcDbEntity
  8
0
370
    35
390
0
 62
     7
100
AcDbCircle
 10
83.699966
 20
318.299164
 30
0.0
 40
0.5
210
0.0
220
0.0
230
1.0
100
AcDbArc
 50
239.999997
 51
149.999997
  0
LINE
  5
74
100
AcDbEntity
  8
0
370
    35
390
0
 62
     7
 48
0.22625
100
AcDbLine
 10
83.449966
 20
317.86615
 30
0.0
 11
78.924973
 21
310.028625
 31
0.0
210
0.0
220
0.0
230
1.0
  0
ARC
  5
75
100
AcDbEntity
  8
0
370
    35
390
0
 62
     7
100
AcDbCircle
 10
78.674973
 20
309.595612
 30
0.0
 40
0.5
210
0.0
220
0.0
230
1.0
100
AcDbArc
 50
149.999997
 51
60.000002
  0
LINE
  5
76
100
AcDbEntity
  8
0
370
    35
390
0
 62
     7
 48
0.10125
100
AcDbLine
 10
74.734543
 20
311.870605
 30
0.0
 11
78.241959
 21
309.845612
 31
0.0
210
0.0
220
0.0
230
1.0
  0
ARC
  5
77
100
AcDbEntity
  8
0
370
    35
390
0
 62
     7
100
AcDbCircle
 10
74.301544
 20
312.120605
 30
0.0
 40
0.5
210
0.0
220
0.0
230
1.0
100
AcDbArc
 50
60.000002
 51
329.999999
  0
LINE
  5
78
100
AcDbEntity
  8
0
370
    35
390
0
 62
     7
 48
0.22625
100
AcDbLine
 10
79.076538
 20
320.391174
 30
0.0
 11
74.551544
 21
312.553619
 31
0.0
210
0.0
220
0.0
230
1.0
  0
ARC
  5
79
100
AcDbEntity
  8
0
370
    35
390
0
 62
     7
100
AcDbCircle
 10
79.326538
 20
320.824158
 30
0.0
 40
0.5
210
0.0
220
0.0
230
1.0
100
AcDbArc
 50
329.999999
 51
239.999997
  0
ARC
  5
7A
100
AcDbEntity
  8
0
370
    35
390
0
 62
     7
100
AcDbCircle
 10
187.190933
 20
269.449219
 30
0.0
 40
0.5
210
0.0
220
0.0
230
1.0
100
AcDbArc
 50
299.999998
 51
210.000003
  0
LINE
  5
7B
100
AcDbEntity
  8
0
370
    35
390
0
 62
     7
 48
0.10125
100
AcDbLine
 10
187.440933
 20
269.016205
 30
0.0
 11
189.465927
 21
265.508789
 31
0.0
210
0.0
220
0.0
230
1.0
  0
ARC
  5
7C
100
AcDbEntity
  8
0
370
    35
390
0
 62
     7
100
AcDbCircle
 10
189.715927
 20
265.075775
 30
0.0
 40
0.5
210
0.0
220
0.0
230
1.0
100
AcDbArc
 50
210.000003
 51
120.000003
  0
LINE
  5
7D
100
AcDbEntity
  8
0
370
    35
390
0
 62
     7
 48
0.22625
100
AcDbLine
 10
181.445389
 20
260.300781
 30
0.0
 11
189.282913
 21
264.825775
 31
0.0
210
0.0
220
0.0
230
1.0
  0
ARC
  5
7E
100
AcDbEntity
  8
0
370
    35
390
0
 62
     7
100
AcDbCircle
 10
181.012375
 20
260.050781
 30
0.0
 40
0.5
210
0.0
220
0.0
230
1.0
100
AcDbArc
 50
120.000003
 51
30.000001
  0
LINE
  5
7F
100
AcDbEntity
  8
0
370
    35
390
0
 62
     7
 48
0.10125
100
AcDbLine
 10
178.737381
 20
263.991211
 30
0.0
 11
180.762375
 21
260.483795
 31
0.0
210
0.0
220
0.0
230
1.0
  0
ARC
  5
80
100
AcDbEntity
  8
0
370
    35
390
0
 62
     7
100
AcDbCircle
 10
178.487381
 20
264.424225
 30
0.0
 40
0.5
210
0.0
220
0.0
230
1.0
100
AcDbArc
 50
30.000001
 51
299.999998
  0
LINE
  5
81
100
AcDbEntity
  8
0
370
    35
390
0
 62
     7
 48
0.22625
100
AcDbLine
 10
178.920395
 20
264.674225
 30
0.0
 11
186.757919
 21
269.199219
 31
0.0
210
0.0
220
0.0
230
1.0
  0
LINE
  5
82
100
AcDbEntity
  8
0
370
    35
390
0
 62
     7
 48
0.10125
100
AcDbLine
 10
152.799911
 20
249.016205
 30
0.0
 11
154.824921
 21
245.508789
 31
0.0
210
0.0
220
0.0
230
1.0
  0
ARC
  5
83
100
AcDbEntity
  8
0
370
    35
390
0
 62
     7
100
AcDbCircle
 10
155.074921
 20
245.075775
 30
0.0
 40
0.5
210
0.0
220
0.0
230
1.0
100
AcDbArc
 50
210.000003
 51
120.000003
  0
LINE
  5
84
100
AcDbEntity
  8
0
370
    35
390
0
 62
     7
 48
0.22625
100
AcDbLine
 10
154.641907
 20
244.825775
 30
0.0
 11
146.804367
 21
240.300781
 31
0.0
210
0.0
220
0.0
230
1.0
  0
ARC
  5
85
100
AcDbEntity
  8
0
370
    35
390
0
 62
     7
100
AcDbCircle
 10
146.371353
 20
240.050781
 30
0.0
 40
0.5
210
0.0
220
0.0
230
1.0
100
AcDbArc
 50
120.000003
 51
30.000001
  0
LINE
  5
86
100
AcDbEntity
  8
0
370
    35
390
0
 62
     7
 48
0.10125
100
AcDbLine
 10
144.096359
 20
243.991211
 30
0.0
 11
146.121353
 21
240.483795
 31
0.0
210
0.0
220
0.0
230
1.0
  0
ARC
  5
87
100
AcDbEntity
  8
0
370
    35
390
0
 62
     7
100
AcDbCircle
 10
143.846359
 20
244.424225
 30
0.0
 40
0.5
210
0.0
220
0.0
230
1.0
100
AcDbArc
 50
30.000001
 51
299.999998
  0
LINE
  5
88
100
AcDbEntity
  8
0
370
    35
390
0
 62
     7
 48
0.22625
100
AcDbLine
 10
152.116898
 20
249.199219
 30
0.0
 11
144.279373
 21
244.674225
 31
0.0
210
0.0
220
0.0
230
1.0
  0
ARC
  5
89
100
AcDbEntity
  8
0
370
    35
390
0
 62
     7
100
AcDbCircle
 10
152.549911
 20
249.449219
 30
0.0
 40
0.5
210
0.0
220
0.0
230
1.0
100
AcDbArc
 50
299.999998
 51
210.000003
  0
ARC
  5
8A
100
AcDbEntity
  8
0
370
    35
390
0
 62
     7
100
AcDbCircle
 10
220.275742
 20
151.024994
 30
0.0
 40
0.5
210
0.0
220
0.0
230
1.0
100
AcDbArc
 50
269.999997
 51
180.000005
  0
LINE
  5
8B
100
AcDbEntity
  8
0
370
    35
390
0
 62
     7
 48
0.10125
100
AcDbLine
 10
220.275742
 20
150.524994
 30
0.0
 11
220.275742
 21
146.475006
 31
0.0
210
0.0
220
0.0
230
1.0
  0
ARC
  5
8C
100
AcDbEntity
  8
0
370
    35
390
0
 62
     7
100
AcDbCircle
 10
220.275742
 20
145.975006
 30
0.0
 40
0.5
210
0.0
220
0.0
230
1.0
100
AcDbArc
 50
179.999995
 51
90.000003
  0
LINE
  5
8D
100
AcDbEntity
  8
0
370
    35
390
0
 62
     7
 48
0.22625
100
AcDbLine
 10
210.725754
 20
145.975006
 30
0.0
 11
219.775742
 21
145.975006
 31
0.0
210
0.0
220
0.0
230
1.0
  0
ARC
  5
8E
100
AcDbEntity
  8
0
370
    35
390
0
 62
     7
100
AcDbCircle
 10
210.225754
 20
145.975006
 30
0.0
 40
0.5
210
0.0
220
0.0
230
1.0
100
AcDbArc
 50
90.000003
 51
360.0
  0
LINE
  5
8F
100
AcDbEntity
  8
0
370
    35
390
0
 62
     7
 48
0.10125
100
AcDbLine
 10
210.225754
 20
150.524994
 30
0.0
 11
210.225754
 21
146.475006
 31
0.0
210
0.0
220
0.0
230
1.0
  0
ARC
  5
90
100
AcDbEntity
  8
0
370
    35
390
0
 62
     7
100
AcDbCircle
 10
210.225754
 20
151.024994
 30
0.0
 40
0.5
210
0.0
220
0.0
230
1.0
100
AcDbArc
 50
0.0
 51
269.999997
  0
LINE
  5
91
100
AcDbEntity
  8
0
370
    35
390
0
 62
     7
 48
0.22625
100
AcDbLine
 10
210.725754
 20
151.024994
 30
0.0
 11
219.775742
 21
151.024994
 31
0.0
210
0.0
220
0.0
230
1.0
  0
LINE
  5
92
100
AcDbEntity
  8
0
370
    35
390
0
 62
     7
 48
0.10125
100
AcDbLine
 10
180.275742
 20
150.524994
 30
0.0
 11
180.275742
 21
146.475006
 31
0.0
210
0.0
220
0.0
230
1.0
  0
ARC
  5
93
100
AcDbEntity
  8
0
370
    35
390
0
 62
     7
100
AcDbCircle
 10
180.275742
 20
145.975006
 30
0.0
 40
0.5
210
0.0
220
0.0
230
1.0
100
AcDbArc
 50
179.999995
 51
90.000003
  0
LINE
  5
94
100
AcDbEntity
  8
0
370
    35
390
0
 62
     7
 48
0.22625
100
AcDbLine
 10
179.775742
 20
145.975006
 30
0.0
 11
170.725754
 21
145.975006
 31
0.0
210
0.0
220
0.0
230
1.0
  0
ARC
  5
95
100
AcDbEntity
  8
0
370
    35
390
0
 62
     7
100
AcDbCircle
 10
170.225754
 20
145.975006
 30
0.0
 40
0.5
210
0.0
220
0.0
230
1.0
100
AcDbArc
 50
90.000003
 51
360.0
  0
LINE
  5
96
100
AcDbEntity
  8
0
370
    35
390
0
 62
     7
 48
0.10125
100
AcDbLine
 10
170.225754
 20
150.524994
 30
0.0
 11
170.225754
 21
146.475006
 31
0.0
210
0.0
220
0.0
230
1.0
  0
ARC
  5
97
100
AcDbEntity
  8
0
370
    35
390
0
 62
     7
100
AcDbCircle
 10
170.225754
 20
151.024994
 30
0.0
 40
0.5
210
0.0
220
0.0
230
1.0
100
AcDbArc
 50
0.0
 51
269.999997
  0
LINE
  5
98
100
AcDbEntity
  8
0
370
    35
390
0
 62
     7
 48
0.22625
100
AcDbLine
 10
179.775742
 20
151.024994
 30
0.0
 11
170.725754
 21
151.024994
 31
0.0
210
0.0
220
0.0
230
1.0
  0
ARC
  5
99
100
AcDbEntity
  8
0
370
    35
390
0
 62
     7
100
AcDbCircle
 10
180.275742
 20
151.024994
 30
0.0
 40
0.5
210
0.0
220
0.0
230
1.0
100
AcDbArc
 50
269.999997
 51
180.000005
  0
ARC
  5
9A
100
AcDbEntity
  8
0
370
    35
390
0
 62
     7
100
AcDbCircle
 10
103.699966
 20
-55.940186
 30
0.0
 40
0.5
210
0.0
220
0.0
230
1.0
100
AcDbArc
 50
210.000003
 51
120.000003
  0
LINE
  5
9B
100
AcDbEntity
  8
0
370
    35
390
0
 62
     7
 48
0.10125
100
AcDbLine
 10
103.266953
 20
-56.190186
 30
0.0
 11
99.759552
 21
-58.215179
 31
0.0
210
0.0
220
0.0
230
1.0
  0
ARC
  5
9C
100
AcDbEntity
  8
0
370
    35
390
0
 62
     7
100
AcDbCircle
 10
99.326538
 20
-58.465179
 30
0.0
 40
0.5
210
0.0
220
0.0
230
1.0
100
AcDbArc
 50
120.000003
 51
30.000001
  0
LINE
  5
9D
100
AcDbEntity
  8
0
370
    35
390
0
 62
     7
 48
0.22625
100
AcDbLine
 10
94.551544
 20
-50.194641
 30
0.0
 11
99.076538
 21
-58.032166
 31
0.0
210
0.0
220
0.0
230
1.0
  0
ARC
  5
9E
100
AcDbEntity
  8
0
370
    35
390
0
 62
     7
100
AcDbCircle
 10
94.301544
 20
-49.761627
 30
0.0
 40
0.5
210
0.0
220
0.0
230
1.0
100
AcDbArc
 50
30.000001
 51
299.999998
  0
LINE
  5
9F
100
AcDbEntity
  8
0
370
    35
390
0
 62
     7
 48
0.10125
100
AcDbLine
 10
98.241959
 20
-47.486633
 30
0.0
 11
94.734543
 21
-49.511627
 31
0.0
210
0.0
220
0.0
230
1.0
  0
ARC
  5
A0
100
AcDbEntity
  8
0
370
    35
390
0
 62
     7
100
AcDbCircle
 10
98.674973
 20
-47.236633
 30
0.0
 40
0.5
210
0.0
220
0.0
230
1.0
100
AcDbArc
 50
299.999998
 51
210.000003
  0
LINE
  5
A1
100
AcDbEntity
  8
0
370
    35
390
0
 62
     7
 48
0.22625
100
AcDbLine
 10
98.924973
 20
-47.669647
 30
0.0
 11
103.449966
 21
-55.507172
 31
0.0
210
0.0
220
0.0
230
1.0
  0
LINE
  5
A2
100
AcDbEntity
  8
0
370
    35
390
0
 62
     7
 48
0.10125
100
AcDbLine
 10
83.266953
 20
-21.549164
 30
0.0
 11
79.759552
 21
-23.574173
 31
0.0
210
0.0
220
0.0
230
1.0
  0
ARC
  5
A3
100
AcDbEntity
  8
0
370
    35
390
0
 62
     7
100
AcDbCircle
 10
79.326538
 20
-23.824173
 30
0.0
 40
0.5
210
0.0
220
0.0
230
1.0
100
AcDbArc
 50
120.000003
 51
30.000001
  0
LINE
  5
A4
100
AcDbEntity
  8
0
370
    35
390
0
 62
     7
 48
0.22625
100
AcDbLine
 10
79.076538
 20
-23.391159
 30
0.0
 11
74.551544
 21
-15.553619
 31
0.0
210
0.0
220
0.0
230
1.0
  0
ARC
  5
A5
100
AcDbEntity
  8
0
370
    35
390
0
 62
     7
100
AcDbCircle
 10
74.301544
 20
-15.120605
 30
0.0
 40
0.5
210
0.0
220
0.0
230
1.0
100
AcDbArc
 50
30.000001
 51
299.999998
  0
LINE
  5
A6
100
AcDbEntity
  8
0
370
    35
390
0
 62
     7
 48
0.10125
100
AcDbLine
 10
78.241959
 20
-12.845612
 30
0.0
 11
74.734543
 21
-14.870605
 31
0.0
210
0.0
220
0.0
230
1.0
  0
ARC
  5
A7
100
AcDbEntity
  8
0
370
    35
390
0
 62
     7
100
AcDbCircle
 10
78.674973
 20
-12.595612
 30
0.0
 40
0.5
210
0.0
220
0.0
230
1.0
100
AcDbArc
 50
299.999998
 51
210.000003
  0
LINE
  5
A8
100
AcDbEntity
  8
0
370
    35
390
0
 62
     7
 48
0.22625
100
AcDbLine
 10
83.449966
 20
-20.86615
 30
0.0
 11
78.924973
 21
-13.028625
 31
0.0
210
0.0
220
0.0
230
1.0
  0
ARC
  5
A9
100
AcDbEntity
  8
0
370
    35
390
0
 62
     7
100
AcDbCircle
 10
83.699966
 20
-21.299164
 30
0.0
 40
0.5
210
0.0
220
0.0
230
1.0
100
AcDbArc
 50
210.000003
 51
120.000003
  0
ARC
  5
AA
100
AcDbEntity
  8
0
370
    35
390
0
 62
     7
100
AcDbCircle
 10
189.715927
 20
31.924217
 30
0.0
 40
0.5
210
0.0
220
0.0
230
1.0
100
AcDbArc
 50
239.999997
 51
149.999997
  0
LINE
  5
AB
100
AcDbEntity
  8
0
370
    35
390
0
 62
     7
 48
0.10125
100
AcDbLine
 10
189.465927
 20
31.491203
 30
0.0
 11
187.440933
 21
27.983795
 31
0.0
210
0.0
220
0.0
230
1.0
  0
ARC
  5
AC
100
AcDbEntity
  8
0
370
    35
390
0
 62
     7
100
AcDbCircle
 10
187.190933
 20
27.550789
 30
0.0
 40
0.5
210
0.0
220
0.0
230
1.0
100
AcDbArc
 50
149.999997
 51
60.000002
  0
LINE
  5
AD
100
AcDbEntity
  8
0
370
    35
390
0
 62
     7
 48
0.22625
100
AcDbLine
 10
178.920395
 20
32.325783
 30
0.0
 11
186.757919
 21
27.800789
 31
0.0
210
0.0
220
0.0
230
1.0
  0
ARC
  5
AE
100
AcDbEntity
  8
0
370
    35
390
0
 62
     7
100
AcDbCircle
 10
178.487381
 20
32.575783
 30
0.0
 40
0.5
210
0.0
220
0.0
230
1.0
100
AcDbArc
 50
60.000002
 51
329.999999
  0
LINE
  5
AF
100
AcDbEntity
  8
0
370
    35
390
0
 62
     7
 48
0.10125
100
AcDbLine
 10
180.762375
 20
36.516205
 30
0.0
 11
178.737381
 21
33.008797
 31
0.0
210
0.0
220
0.0
230
1.0
  0
ARC
  5
B0
100
AcDbEntity
  8
0
370
    35
390
0
 62
     7
100
AcDbCircle
 10
181.012375
 20
36.949211
 30
0.0
 40
0.5
210
0.0
220
0.0
230
1.0
100
AcDbArc
 50
329.999999
 51
239.999997
  0
LINE
  5
B1
100
AcDbEntity
  8
0
370
    35
390
0
 62
     7
 48
0.22625
100
AcDbLine
 10
181.445389
 20
36.699211
 30
0.0
 11
189.282913
 21
32.174217
 31
0.0
210
0.0
220
0.0
230
1.0
  0
LINE
  5
B2
100
AcDbEntity
  8
0
370
    35
390
0
 62
     7
 48
0.10125
100
AcDbLine
 10
154.824921
 20
51.491203
 30
0.0
 11
152.799911
 21
47.983795
 31
0.0
210
0.0
220
0.0
230
1.0
  0
ARC
  5
B3
100
AcDbEntity
  8
0
370
    35
390
0
 62
     7
100
AcDbCircle
 10
152.549911
 20
47.550789
 30
0.0
 40
0.5
210
0.0
220
0.0
230
1.0
100
AcDbArc
 50
149.999997
 51
60.000002
  0
LINE
  5
B4
100
AcDbEntity
  8
0
370
    35
390
0
 62
     7
 48
0.22625
100
AcDbLine
 10
152.116898
 20
47.800789
 30
0.0
 11
144.279373
 21
52.325783
 31
0.0
210
0.0
220
0.0
230
1.0
  0
ARC
  5
B5
100
AcDbEntity
  8
0
370
    35
390
0
 62
     7
100
AcDbCircle
 10
143.846359
 20
52.575783
 30
0.0
 40
0.5
210
0.0
220
0.0
230
1.0
100
AcDbArc
 50
60.000002
 51
329.999999
  0
LINE
  5
B6
100
AcDbEntity
  8
0
370
    35
390
0
 62
     7
 48
0.10125
100
AcDbLine
 10
146.121353
 20
56.516205
 30
0.0
 11
144.096359
 21
53.008797
 31
0.0
210
0.0
220
0.0
230
1.0
  0
ARC
  5
B7
100
AcDbEntity
  8
0
370
    35
390
0
 62
     7
100
AcDbCircle
 10
146.371353
 20
56.949211
 30
0.0
 40
0.5
210
0.0
220
0.0
230
1.0
100
AcDbArc
 50
329.999999
 51
239.999997
  0
LINE
  5
B8
100
AcDbEntity
  8
0
370
    35
390
0
 62
     7
 48
0.22625
100
AcDbLine
 10
154.641907
 20
52.174217
 30
0.0
 11
146.804367
 21
56.699211
 31
0.0
210
0.0
220
0.0
230
1.0
  0
ARC
  5
B9
100
AcDbEntity
  8
0
370
    35
390
0
 62
     7
100
AcDbCircle
 10
155.074921
 20
51.924217
 30
0.0
 40
0.5
210
0.0
220
0.0
230
1.0
100
AcDbArc
 50
239.999997
 51
149.999997
  0
ARC
  5
BA
100
AcDbEntity
  8
0
370
    35
390
0
 62
     7
100
AcDbCircle
 10
-3.199191
 20
385.622559
 30
0.0
 40
0.5
210
0.0
220
0.0
230
1.0
100
AcDbArc
 50
356.0
 51
266.0
  0
LINE
  5
BB
100
AcDbEntity
  8
0
370
    35
390
0
 62
     7
 48
0.10125
100
AcDbLine
 10
-2.700409
 20
385.587646
 30
0.0
 11
1.339725
 21
385.305145
 31
0.0
210
0.0
220
0.0
230
1.0
  0
ARC
  5
BC
100
AcDbEntity
  8
0
370
    35
390
0
 62
     7
100
AcDbCircle
 10
1.838507
 20
385.270264
 30
0.0
 40
0.5
210
0.0
220
0.0
230
1.0
100
AcDbArc
 50
266.0
 51
176.0
  0
LINE
  5
BD
100
AcDbEntity
  8
0
370
    35
390
0
 62
     7
 48
0.22625
100
AcDbLine
 10
1.172333
 20
375.74353
 30
0.0
 11
1.803629
 21
384.771484
 31
0.0
210
0.0
220
0.0
230
1.0
  0
ARC
  5
BE
100
AcDbEntity
  8
0
370
    35
390
0
 62
     7
100
AcDbCircle
 10
1.137455
 20
375.244751
 30
0.0
 40
0.5
210
0.0
220
0.0
230
1.0
100
AcDbArc
 50
176.0
 51
85.999998
  0
LINE
  5
BF
100
AcDbEntity
  8
0
370
    35
390
0
 62
     7
 48
0.10125
100
AcDbLine
 10
-3.401462
 20
375.562134
 30
0.0
 11
0.638672
 21
375.279633
 31
0.0
210
0.0
220
0.0
230
1.0
  0
ARC
  5
C0
100
AcDbEntity
  8
0
370
    35
390
0
 62
     7
100
AcDbCircle
 10
-3.900244
 20
375.597015
 30
0.0
 40
0.5
210
0.0
220
0.0
230
1.0
100
AcDbArc
 50
85.999998
 51
356.0
  0
LINE
  5
C1
100
AcDbEntity
  8
0
370
    35
390
0
 62
     7
 48
0.22625
100
AcDbLine
 10
-3.865366
 20
376.095795
 30
0.0
 11
-3.23407
 21
385.123749
 31
0.0
210
0.0
220
0.0
230
1.0
  0
LINE
  5
C2
100
AcDbEntity
  8
0
370
    35
390
0
 62
     7
 48
0.10125
100
AcDbLine
 10
-5.490668
 20
345.685089
 30
0.0
 11
-1.450534
 21
345.402588
 31
0.0
210
0.0
220
0.0
230
1.0
  0
ARC
  5
C3
100
AcDbEntity
  8
0
370
    35
390
0
 62
     7
100
AcDbCircle
 10
-0.951752
 20
345.367706
 30
0.0
 40
0.5
210
0.0
220
0.0
230
1.0
100
AcDbArc
 50
266.0
 51
176.0
  0
LINE
  5
C4
100
AcDbEntity
  8
0
370
    35
390
0
 62
     7
 48
0.22625
100
AcDbLine
 10
-0.986629
 20
344.868927
 30
0.0
 11
-1.617927
 21
335.840973
 31
0.0
210
0.0
220
0.0
230
1.0
  0
ARC
  5
C5
100
AcDbEntity
  8
0
370
    35
390
0
 62
     7
100
AcDbCircle
 10
-1.652804
 20
335.342163
 30
0.0
 40
0.5
210
0.0
220
0.0
230
1.0
100
AcDbArc
 50
176.0
 51
85.999998
  0
LINE
  5
C6
100
AcDbEntity
  8
0
370
    35
390
0
 62
     7
 48
0.10125
100
AcDbLine
 10
-6.191721
 20
335.659576
 30
0.0
 11
-2.151587
 21
335.377075
 31
0.0
210
0.0
220
0.0
230
1.0
  0
ARC
  5
C7
100
AcDbEntity
  8
0
370
    35
390
0
 62
     7
100
AcDbCircle
 10
-6.690503
 20
335.694458
 30
0.0
 40
0.5
210
0.0
220
0.0
230
1.0
100
AcDbArc
 50
85.999998
 51
356.0
  0
LINE
  5
C8
100
AcDbEntity
  8
0
370
    35
390
0
 62
     7
 48
0.22625
100
AcDbLine
 10
-6.024328
 20
345.221191
 30
0.0
 11
-6.655624
 21
336.193237
 31
0.0
210
0.0
220
0.0
230
1.0
  0
ARC
  5
C9
100
AcDbEntity
  8
0
370
    35
390
0
 62
     7
100
AcDbCircle
 10
-5.98945
 20
345.719971
 30
0.0
 40
0.5
210
0.0
220
0.0
230
1.0
100
AcDbArc
 50
356.0
 51
266.0
  0
ARC
  5
CA
100
AcDbEntity
  8
0
370
    35
390
0
 62
     7
100
AcDbCircle
 10
1.838507
 20
-88.270264
 30
0.0
 40
0.5
210
0.0
220
0.0
230
1.0
100
AcDbArc
 50
184.0
 51
94.0
  0
LINE
  5
CB
100
AcDbEntity
  8
0
370
    35
390
0
 62
     7
 48
0.10125
100
AcDbLine
 10
1.339725
 20
-88.305145
 30
0.0
 11
-2.700409
 21
-88.587662
 31
0.0
210
0.0
220
0.0
230
1.0
  0
ARC
  5
CC
100
AcDbEntity
  8
0
370
    35
390
0
 62
     7
100
AcDbCircle
 10
-3.199191
 20
-88.622543
 30
0.0
 40
0.5
210
0.0
220
0.0
230
1.0
100
AcDbArc
 50
94.0
 51
4.0
  0
LINE
  5
CD
100
AcDbEntity
  8
0
370
    35
390
0
 62
     7
 48
0.22625
100
AcDbLine
 10
-3.865366
 20
-79.095795
 30
0.0
 11
-3.23407
 21
-88.123749
 31
0.0
210
0.0
220
0.0
230
1.0
  0
ARC
  5
CE
100
AcDbEntity
  8
0
370
    35
390
0
 62
     7
100
AcDbCircle
 10
-3.900244
 20
-78.597015
 30
0.0
 40
0.5
210
0.0
220
0.0
230
1.0
100
AcDbArc
 50
4.0
 51
274.000002
  0
LINE
  5
CF
100
AcDbEntity
  8
0
370
    35
390
0
 62
     7
 48
0.10125
100
AcDbLine
 10
0.638672
 20
-78.279633
 30
0.0
 11
-3.401462
 21
-78.562134
 31
0.0
210
0.0
220
0.0
230
1.0
  0
ARC
  5
D0
100
AcDbEntity
  8
0
370
    35
390
0
 62
     7
100
AcDbCircle
 10
1.137455
 20
-78.244751
 30
0.0
 40
0.5
210
0.0
220
0.0
230
1.0
100
AcDbArc
 50
274.000002
 51
184.0
  0
LINE
  5
D1
100
AcDbEntity
  8
0
370
    35
390
0
 62
     7
 48
0.22625
100
AcDbLine
 10
1.172333
 20
-78.74353
 30
0.0
 11
1.803629
 21
-87.771484
 31
0.0
210
0.0
220
0.0
230
1.0
  0
LINE
  5
D2
100
AcDbEntity
  8
0
370
    35
390
0
 62
     7
 48
0.10125
100
AcDbLine
 10
-1.450534
 20
-48.402588
 30
0.0
 11
-5.490668
 21
-48.685089
 31
0.0
210
0.0
220
0.0
230
1.0
  0
ARC
  5
D3
100
AcDbEntity
  8
0
370
    35
390
0
 62
     7
100
AcDbCircle
 10
-5.98945
 20
-48.719971
 30
0.0
 40
0.5
210
0.0
220
0.0
230
1.0
100
AcDbArc
 50
94.0
 51
4.0
  0
LINE
  5
D4
100
AcDbEntity
  8
0
370
    35
390
0
 62
     7
 48
0.22625
100
AcDbLine
 10
-6.024328
 20
-48.221191
 30
0.0
 11
-6.655624
 21
-39.193237
 31
0.0
210
0.0
220
0.0
230
1.0
  0
ARC
  5
D5
100
AcDbEntity
  8
0
370
    35
390
0
 62
     7
100
AcDbCircle
 10
-6.690503
 20
-38.694458
 30
0.0
 40
0.5
210
0.0
220
0.0
230
1.0
100
AcDbArc
 50
4.0
 51
274.000002
  0
LINE
  5
D6
100
AcDbEntity
  8
0
370
    35
390
0
 62
     7
 48
0.10125
100
AcDbLine
 10
-2.151587
 20
-38.37706
 30
0.0
 11
-6.191721
 21
-38.659576
 31
0.0
210
0.0
220
0.0
230
1.0
  0
ARC
  5
D7
100
AcDbEntity
  8
0
370
    35
390
0
 62
     7
100
AcDbCircle
 10
-1.652804
 20
-38.342178
 30
0.0
 40
0.5
210
0.0
220
0.0
230
1.0
100
AcDbArc
 50
274.000002
 51
184.0
  0
LINE
  5
D8
100
AcDbEntity
  8
0
370
    35
390
0
 62
     7
 48
0.22625
100
AcDbLine
 10
-0.986629
 20
-47.868927
 30
0.0
 11
-1.617927
 21
-38.840973
 31
0.0
210
0.0
220
0.0
230
1.0
  0
ARC
  5
D9
100
AcDbEntity
  8
0
370
    35
390
0
 62
     7
100
AcDbCircle
 10
-0.951752
 20
-48.367706
 30
0.0
 40
0.5
210
0.0
220
0.0
230
1.0
100
AcDbArc
 50
184.0
 51
94.0
  0
ARC
  5
DA
100
AcDbEntity
  8
0
370
    35
390
0
 62
     7
100
AcDbCircle
 10
47.326107
 20
389.498474
 30
0.0
 40
11.0
210
0.0
220
0.0
230
1.0
100
AcDbArc
 50
345.0
 51
164.999994
  0
LINE
  5
DB
100
AcDbEntity
  8
0
370
    35
390
0
 62
     7
 48
0.056114
100
AcDbLine
 10
36.119984
 20
390.177429
 30
0.0
 11
36.70092
 21
392.34552
 31
0.0
210
0.0
220
0.0
230
1.0
  0
LINE
  5
DC
100
AcDbEntity
  8
0
370
    35
390
0
 62
     7
 48
0.056114
100
AcDbLine
 10
57.37035
 20
384.483398
 30
0.0
 11
57.95129
 21
386.651489
 31
0.0
210
0.0
220
0.0
230
1.0
  0
CIRCLE
  5
DD
100
AcDbEntity
  8
0
370
    35
390
0
 62
     7
100
AcDbCircle
 10
48.879017
 20
395.294067
 30
0.0
 40
2.0
210
0.0
220
0.0
230
1.0
  0
LINE
  5
DE
100
AcDbEntity
  8
0
370
    35
390
0
 62
     7
 48
0.056114
100
AcDbLine
 10
36.119984
 20
-93.177414
 30
0.0
 11
36.70092
 21
-95.345505
 31
0.0
210
0.0
220
0.0
230
1.0
  0
ARC
  5
DF
100
AcDbEntity
  8
0
370
    35
390
0
 62
     7
100
AcDbCircle
 10
47.326107
 20
-92.498489
 30
0.0
 40
11.0
210
0.0
220
0.0
230
1.0
100
AcDbArc
 50
195.000006
 51
15.0
  0
LINE
  5
E0
100
AcDbEntity
  8
0
370
    35
390
0
 62
     7
 48
0.056114
100
AcDbLine
 10
57.37035
 20
-87.483398
 30
0.0
 11
57.95129
 21
-89.651489
 31
0.0
210
0.0
220
0.0
230
1.0
  0
LINE
  5
E1
100
AcDbEntity
  8
0
370
    35
390
0
 62
     7
 48
0.056114
100
AcDbLine
 10
149.808563
 20
-34.114166
 30
0.0
 11
151.395721
 21
-35.701309
 31
0.0
210
0.0
220
0.0
230
1.0
  0
ARC
  5
E2
100
AcDbEntity
  8
0
370
    35
390
0
 62
     7
100
AcDbCircle
 10
159.173889
 20
-27.923141
 30
0.0
 40
11.0
210
0.0
220
0.0
230
1.0
100
AcDbArc
 50
225.0
 51
45.000001
  0
LINE
  5
E3
100
AcDbEntity
  8
0
370
    35
390
0
 62
     7
 48
0.056114
100
AcDbLine
 10
165.364914
 20
-18.557816
 30
0.0
 11
166.952057
 21
-20.144974
 31
0.0
210
0.0
220
0.0
230
1.0
  0
LINE
  5
E4
100
AcDbEntity
  8
0
370
    35
390
0
 62
     7
 48
0.056114
100
AcDbLine
 10
218.734146
 20
73.880402
 30
0.0
 11
220.902237
 21
73.299461
 31
0.0
210
0.0
220
0.0
230
1.0
  0
ARC
  5
E5
100
AcDbEntity
  8
0
370
    35
390
0
 62
     7
100
AcDbCircle
 10
223.749237
 20
83.924644
 30
0.0
 40
11.0
210
0.0
220
0.0
230
1.0
100
AcDbArc
 50
255.0
 51
74.999999
  0
LINE
  5
E6
100
AcDbEntity
  8
0
370
    35
390
0
 62
     7
 48
0.056114
100
AcDbLine
 10
224.428162
 20
95.130768
 30
0.0
 11
226.596252
 21
94.549835
 31
0.0
210
0.0
220
0.0
230
1.0
  0
LINE
  5
E7
100
AcDbEntity
  8
0
370
    35
390
0
 62
     7
 48
0.056114
100
AcDbLine
 10
224.428162
 20
201.869232
 30
0.0
 11
226.596252
 21
202.450165
 31
0.0
210
0.0
220
0.0
230
1.0
  0
ARC
  5
E8
100
AcDbEntity
  8
0
370
    35
390
0
 62
     7
100
AcDbCircle
 10
223.749237
 20
213.075348
 30
0.0
 40
11.0
210
0.0
220
0.0
230
1.0
100
AcDbArc
 50
285.000001
 51
105.0
  0
LINE
  5
E9
100
AcDbEntity
  8
0
370
    35
390
0
 62
     7
 48
0.056114
100
AcDbLine
 10
218.734146
 20
223.119598
 30
0.0
 11
220.902237
 21
223.700531
 31
0.0
210
0.0
220
0.0
230
1.0
  0
LINE
  5
EA
100
AcDbEntity
  8
0
370
    35
390
0
 62
     7
 48
0.056114
100
AcDbLine
 10
165.364914
 20
315.5578
 30
0.0
 11
166.952057
 21
317.144958
 31
0.0
210
0.0
220
0.0
230
1.0
  0
ARC
  5
EB
100
AcDbEntity
  8
0
370
    35
390
0
 62
     7
100
AcDbCircle
 10
159.173889
 20
324.923157
 30
0.0
 40
11.0
210
0.0
220
0.0
230
1.0
100
AcDbArc
 50
314.999999
 51
135.0
  0
LINE
  5
EC
100
AcDbEntity
  8
0
370
    35
390
0
 62
     7
 48
0.056114
100
AcDbLine
 10
149.808563
 20
331.114166
 30
0.0
 11
151.395721
 21
332.701294
 31
0.0
210
0.0
220
0.0
230
1.0
  0
CIRCLE
  5
ED
100
AcDbEntity
  8
0
370
    35
390
0
 62
     7
100
AcDbCircle
 10
163.416534
 20
-32.165787
 30
0.0
 40
2.0
210
0.0
220
0.0
230
1.0
  0
CIRCLE
  5
EE
100
AcDbEntity
  8
0
370
    35
390
0
 62
     7
100
AcDbCircle
 10
92.750748
 20
339.025574
 30
0.0
 40
2.0
210
0.0
220
0.0
230
1.0
  0
CIRCLE
  5
EF
100
AcDbEntity
  8
0
370
    35
390
0
 62
     7
100
AcDbCircle
 10
85.250748
 20
326.035217
 30
0.0
 40
2.0
210
0.0
220
0.0
230
1.0
  0
CIRCLE
  5
F0
100
AcDbEntity
  8
0
370
    35
390
0
 62
     7
100
AcDbCircle
 10
173.276337
 20
258.5
 30
0.0
 40
2.0
210
0.0
220
0.0
230
1.0
  0
CIRCLE
  5
F1
100
AcDbEntity
  8
0
370
    35
390
0
 62
     7
100
AcDbCircle
 10
160.28595
 20
251.0
 30
0.0
 40
2.0
210
0.0
220
0.0
230
1.0
  0
CIRCLE
  5
F2
100
AcDbEntity
  8
0
370
    35
390
0
 62
     7
100
AcDbCircle
 10
202.750748
 20
148.5
 30
0.0
 40
2.0
210
0.0
220
0.0
230
1.0
  0
CIRCLE
  5
F3
100
AcDbEntity
  8
0
370
    35
390
0
 62
     7
100
AcDbCircle
 10
187.750748
 20
148.5
 30
0.0
 40
2.0
210
0.0
220
0.0
230
1.0
  0
CIRCLE
  5
F4
100
AcDbEntity
  8
0
370
    35
390
0
 62
     7
100
AcDbCircle
 10
92.750748
 20
-42.025589
 30
0.0
 40
2.0
210
0.0
220
0.0
230
1.0
  0
CIRCLE
  5
F5
100
AcDbEntity
  8
0
370
    35
390
0
 62
     7
100
AcDbCircle
 10
85.250748
 20
-29.035202
 30
0.0
 40
2.0
210
0.0
220
0.0
230
1.0
  0
CIRCLE
  5
F6
100
AcDbEntity
  8
0
370
    35
390
0
 62
     7
100
AcDbCircle
 10
173.276337
 20
38.5
 30
0.0
 40
2.0
210
0.0
220
0.0
230
1.0
  0
CIRCLE
  5
F7
100
AcDbEntity
  8
0
370
    35
390
0
 62
     7
100
AcDbCircle
 10
160.28595
 20
46.0
 30
0.0
 40
2.0
210
0.0
220
0.0
230
1.0
  0
CIRCLE
  5
F8
100
AcDbEntity
  8
0
370
    35
390
0
 62
     7
100
AcDbCircle
 10
-1.902824
 20
367.964111
 30
0.0
 40
2.0
210
0.0
220
0.0
230
1.0
  0
CIRCLE
  5
F9
100
AcDbEntity
  8
0
370
    35
390
0
 62
     7
100
AcDbCircle
 10
-2.949171
 20
353.00061
 30
0.0
 40
2.0
210
0.0
220
0.0
230
1.0
  0
CIRCLE
  5
FA
100
AcDbEntity
  8
0
370
    35
390
0
 62
     7
100
AcDbCircle
 10
-1.902824
 20
-70.964096
 30
0.0
 40
2.0
210
0.0
220
0.0
230
1.0
  0
CIRCLE
  5
FB
100
AcDbEntity
  8
0
370
    35
390
0
 62
     7
100
AcDbCircle
 10
-2.949171
 20
-56.000626
 30
0.0
 40
2.0
210
0.0
220
0.0
230
1.0
  0
CIRCLE
  5
FC
100
AcDbEntity
  8
0
370
    35
390
0
 62
     7
100
AcDbCircle
 10
48.879017
 20
-98.294052
 30
0.0
 40
2.0
210
0.0
220
0.0
230
1.0
  0
CIRCLE
  5
FD
100
AcDbEntity
  8
0
370
    35
390
0
 62
     7
100
AcDbCircle
 10
229.5448
 20
214.628265
 30
0.0
 40
2.0
210
0.0
220
0.0
230
1.0
  0
CIRCLE
  5
FE
100
AcDbEntity
  8
0
370
    35
390
0
 62
     7
100
AcDbCircle
 10
229.5448
 20
82.371735
 30
0.0
 40
2.0
210
0.0
220
0.0
230
1.0
  0
CIRCLE
  5
FF
100
AcDbEntity
  8
0
370
    35
390
0
 62
     7
100
AcDbCircle
 10
163.416534
 20
329.165771
 30
0.0
 40
2.0
210
0.0
220
0.0
230
1.0
  0
ENDSEC
  0
SECTION
  2
OBJECTS
  0
DICTIONARY
  5
19
100
AcDbDictionary
280
     0
281
     1
  3
ACAD_GROUP
350
1A
  3
ACAD_MLINESTYLE
350
1B
  3
ACAD_LAYOUT
350
1E
  3
ACAD_PLOTSETTINGS
350
22
  3
ACAD_PLOTSTYLENAME
350
1F
  3
ACAD_WIPEOUT_VARS
350
23
  0
DICTIONARY
  5
1A
102
{ACAD_REACTORS
330
19
102
}
100
AcDbDictionary
280
     0
281
     1
  0
DICTIONARY
  5
1B
102
{ACAD_REACTORS
330
19
102
}
100
AcDbDictionary
280
     0
281
     1
  3
Standard
350
1C
  0
MLINESTYLE
  5
1C
102
{ACAD_REACTORS
330
1B
102
}
100
AcDbMlineStyle
  2
Standard
 70
     0
  3

 62
     0
 51
90.0
 52
90.0
 71
     2
 49
0.5
 62
   256
  6
ByLayer
 49
-0.5
 62
   256
  6
ByLayer
  0
ACDBDICTIONARYWDFLT
  5
1F
102
{ACAD_REACTORS
330
19
102
}
100
AcDbDictionary
281
     1
  3
Normal
350
1D
100
AcDbDictionaryWithDefault
340
1D
  0
ACDBPLACEHOLDER
  5
1D
102
{ACAD_REACTORS
330
1F
102
}
  0
LAYOUT
  5
20
102
{ACAD_REACTORS
330
1E
102
}
100
AcDbPlotSettings
  1

  2

  4

  6

 40
0.0
 41
0.0
 42
0.0
 43
0.0
 44
0.0
 45
0.0
 46
0.0
 47
0.0
 48
0.0
 49
0.0
140
0.0
141
0.0
142
1.0
143
1.0
 70
  1024
 72
     0
 73
     0
 74
     0
  7

 75
     0
147
1.0
148
0.0
149
0.0
100
AcDbLayout
  1
Model
 70
     0
 71
     0
 10
0.0
 20
0.0
 11
0.0
 21
0.0
 12
0.0
 22
0.0
 32
0.0
 14
0.0
 24
0.0
 34
0.0
 15
0.0
 25
0.0
 35
0.0
146
0.0
 13
0.0
 23
0.0
 33
0.0
 16
0.0
 26
0.0
 36
0.0
 17
0.0
 27
0.0
 37
0.0
 76
     0
330
A
331
0
345
0
346
0
  0
LAYOUT
  5
21
102
{ACAD_REACTORS
330
1E
102
}
100
AcDbPlotSettings
  1

  2

  4

  6

 40
0.0
 41
0.0
 42
0.0
 43
0.0
 44
0.0
 45
0.0
 46
0.0
 47
0.0
 48
0.0
 49
0.0
140
0.0
141
0.0
142
1.0
143
1.0
 70
     0
 72
     0
 73
     0
 74
     0
  7

 75
     0
147
1.0
148
0.0
149
0.0
100
AcDbLayout
  1
Layout1
 70
     0
 71
     0
 10
0.0
 20
0.0
 11
0.0
 21
0.0
 12
0.0
 22
0.0
 32
0.0
 14
0.0
 24
0.0
 34
0.0
 15
0.0
 25
0.0
 35
0.0
146
0.0
 13
0.0
 23
0.0
 33
0.0
 16
0.0
 26
0.0
 36
0.0
 17
0.0
 27
0.0
 37
0.0
 76
     0
330
B
331
0
345
0
346
0
  0
DICTIONARY
  5
1E
102
{ACAD_REACTORS
330
19
102
}
100
AcDbDictionary
280
     0
281
     1
  3
Layout1
350
21
  3
Model
350
20
  0
DICTIONARY
  5
22
102
{ACAD_REACTORS
330
19
102
}
100
AcDbDictionary
280
     0
281
     1
  0
WIPEOUTVARIABLES
  5
23
100
AcDbWipeoutVariables
 70
     1
  0
ENDSEC
  0
EOF
