<?xml version="1.0" encoding="utf-8"?>
<!-- Generator: Adobe Illustrator 23.0.6, SVG Export Plug-In . SVG Version: 6.00 Build 0)  -->
<svg version="1.1" id="Capa_1" xmlns="http://www.w3.org/2000/svg" xmlns:xlink="http://www.w3.org/1999/xlink" x="0px" y="0px"
	 viewBox="0 0 342.6 180.8" style="enable-background:new 0 0 342.6 180.8;" xml:space="preserve">
<style type="text/css">
	.st0{fill-rule:evenodd;clip-rule:evenodd;fill:#73CBF3;}
	.st1{fill-rule:evenodd;clip-rule:evenodd;fill:#0078BF;}
	.st2{fill-rule:evenodd;clip-rule:evenodd;fill:#00AEE8;}
	.st3{fill-rule:evenodd;clip-rule:evenodd;fill:#FFFFFF;}
</style>
<g>
	<polygon class="st0" points="123.6,54.5 123.6,109.1 100.6,81.8 123.6,54.5 	"/>
	<polygon class="st0" points="215.6,109.1 261.6,109.1 238.6,81.8 215.6,109.1 	"/>
	<polygon class="st0" points="169.6,54.5 215.6,54.5 192.6,27.3 169.6,54.5 	"/>
	<polygon class="st1" points="215.6,109.1 215.6,54.5 192.6,81.8 215.6,109.1 	"/>
	<polygon class="st1" points="169.6,54.5 123.6,54.5 146.6,27.3 169.6,54.5 	"/>
	<polygon class="st1" points="123.6,109.1 123.6,54.5 146.6,81.8 123.6,109.1 	"/>
	<polygon class="st1" points="169.6,54.5 169.6,0 192.6,27.3 169.6,54.5 	"/>
	<polygon class="st2" points="123.6,109.1 77.5,109.1 100.6,81.8 123.6,109.1 	"/>
	<polygon class="st2" points="123.6,54.5 169.6,54.5 146.6,81.8 123.6,54.5 	"/>
	<polygon class="st2" points="215.6,54.5 169.6,54.5 192.6,81.8 215.6,54.5 	"/>
	<polygon class="st2" points="215.6,54.5 215.6,109.1 238.6,81.8 215.6,54.5 	"/>
	<polygon class="st2" points="169.6,0 169.6,54.5 146.6,27.3 169.6,0 	"/>
	<path class="st3" d="M123.8,151.1H88.5c-3.9,0-7.2-1.3-9.8-3.7c-2.6-2.5-3.9-5.7-3.9-9.5c0-3.9,1.3-7.3,3.9-9.8
		c2.6-2.6,5.9-3.9,9.9-3.9h35.2c0.5,0,1,0.2,1.4,0.6c0.4,0.4,0.6,0.8,0.6,1.3c0,0.5-0.2,1-0.6,1.4c-0.4,0.4-0.9,0.6-1.4,0.6H88.6
		c-2.9,0-5.3,0.9-7.1,2.7c-1.8,1.8-2.7,4.2-2.7,7.1c0,2.7,0.9,5,2.7,6.7c1.8,1.7,4.2,2.6,7.1,2.6h35.2c0.5,0,1,0.2,1.4,0.6
		c0.4,0.4,0.6,0.8,0.6,1.4c0,0.5-0.2,1-0.6,1.4C124.8,150.9,124.4,151.1,123.8,151.1L123.8,151.1z"/>
	<path class="st3" d="M218.2,151.5c-0.5,0-1-0.2-1.4-0.6c-0.4-0.4-0.6-0.8-0.6-1.4v-23.4c0-0.5,0.2-1,0.6-1.3
		c0.4-0.4,0.9-0.6,1.4-0.6h41.1c2.2,0,4,0.7,5.5,2.2c1.5,1.4,2.3,3.2,2.3,5.3c0,2.2-0.8,4.1-2.3,5.6c-1.5,1.5-3.4,2.3-5.6,2.3H250
		l16,7.8c0.3,0.2,0.6,0.4,0.8,0.7c0.2,0.3,0.3,0.6,0.3,1c0,0.5-0.2,1-0.6,1.4c-0.4,0.4-0.9,0.6-1.4,0.6c-0.3,0-1.9-0.6-12.1-5.6
		c-7.5-3.7-11.4-5.6-11.9-5.9H227c-0.5,0-1-0.2-1.4-0.6c-0.4-0.4-0.6-0.9-0.6-1.4c0-0.5,0.2-1,0.6-1.4c0.4-0.4,0.9-0.6,1.4-0.6h32.2
		c1.1,0,2-0.4,2.8-1.1c0.8-0.8,1.2-1.7,1.2-2.8c0-1.1-0.4-2-1.1-2.7c-0.7-0.7-1.7-1-2.9-1h-39.1v21.4c0,0.5-0.2,1-0.6,1.4
		C219.2,151.3,218.7,151.5,218.2,151.5L218.2,151.5z"/>
	<path class="st3" d="M193.2,151.1c-0.3,0-0.6-0.1-0.9-0.2c-0.3-0.1-0.5-0.3-0.7-0.5l-19.9-22.3h-4.1l-20,22.3
		c-0.2,0.2-0.4,0.4-0.6,0.5c-0.2,0.1-0.5,0.2-0.8,0.2c-0.5,0-1-0.2-1.4-0.6c-0.4-0.4-0.6-0.8-0.6-1.3c0-0.2,0-0.5,0.1-0.7
		c0.1-0.2,0.2-0.4,0.4-0.6l20.5-23c0.2-0.2,0.4-0.4,0.6-0.5c0.2-0.1,0.5-0.2,0.8-0.2h5.9c0.3,0,0.6,0.1,0.9,0.2
		c0.3,0.1,0.5,0.3,0.7,0.5l20.5,23c0.2,0.2,0.3,0.4,0.4,0.6c0.1,0.2,0.1,0.5,0.1,0.7c0,0.5-0.2,1-0.6,1.3
		C194.2,150.9,193.7,151.1,193.2,151.1L193.2,151.1z"/>
	<path class="st3" d="M4.6,180.8c-1.3,0-2.5-0.5-3.4-1.4C0,178.2,0,177,0,174c0-3.1,0-4.2,1.3-5.5c0.9-0.9,2.1-1.4,3.4-1.4
		c2.4,0,4.1,1.5,4.6,3.9h-1c-0.4-1.9-1.7-3-3.5-3c-1,0-1.9,0.4-2.6,1c-1,1-1,2-1,4.9c0,2.9,0.1,3.9,1,4.9c0.7,0.7,1.6,1,2.6,1
		c1.8,0,3.2-1.2,3.6-3h1C8.8,179.3,7,180.8,4.6,180.8L4.6,180.8z"/>
	<polygon class="st3" points="12.1,167.2 20.3,167.2 20.3,168.1 13.1,168.1 13.1,173.4 19.2,173.4 19.2,174.4 13.1,174.4 
		13.1,179.8 20.3,179.8 20.3,180.7 12.1,180.7 12.1,167.2 	"/>
	<polygon class="st3" points="23.8,169 23.8,180.7 22.8,180.7 22.8,167.2 23.8,167.2 31.6,178.9 31.6,167.2 32.6,167.2 32.6,180.7 
		31.6,180.7 23.8,169 	"/>
	<polygon class="st3" points="39.6,180.7 38.6,180.7 38.6,168.1 34.6,168.1 34.6,167.2 43.7,167.2 43.7,168.1 39.6,168.1 
		39.6,180.7 	"/>
	<path class="st3" d="M50.7,168.1h-4v5.5h4c1.7,0,3-0.9,3-2.7C53.7,169,52.4,168.1,50.7,168.1L50.7,168.1z M50.4,174.5h-3.7v6.2h-1
		v-13.5h5.1c2.2,0,3.9,1.3,3.9,3.6c0,2-1.2,3.3-3.1,3.6l3.3,6.2h-1.2L50.4,174.5L50.4,174.5z"/>
	<polygon class="st3" points="57.5,167.2 65.7,167.2 65.7,168.1 58.5,168.1 58.5,173.4 64.6,173.4 64.6,174.4 58.5,174.4 
		58.5,179.8 65.7,179.8 65.7,180.7 57.5,180.7 57.5,167.2 	"/>
	<polygon class="st3" points="73.3,173.7 79.5,173.7 79.5,174.6 73.3,174.6 73.3,180.7 72.3,180.7 72.3,167.2 80.5,167.2 
		80.5,168.1 73.3,168.1 73.3,173.7 	"/>
	<path class="st3" d="M88.9,169c-0.7-0.7-1.6-1-2.6-1c-1,0-1.9,0.4-2.6,1c-1,1-1,2-1,4.9c0,2.9,0.1,3.9,1,4.9c0.7,0.7,1.6,1,2.6,1
		c1,0,1.9-0.4,2.6-1c1-1,1-2,1-4.9C89.9,171.1,89.8,170,88.9,169L88.9,169z M89.7,179.4c-0.9,0.9-2.1,1.4-3.4,1.4
		c-1.3,0-2.5-0.5-3.4-1.4c-1.2-1.2-1.3-2.4-1.3-5.5c0-3.1,0-4.2,1.3-5.5c0.9-0.9,2.1-1.4,3.4-1.4c1.3,0,2.5,0.5,3.4,1.4
		c1.2,1.2,1.3,2.4,1.3,5.5C90.9,177,90.9,178.2,89.7,179.4L89.7,179.4z"/>
	<path class="st3" d="M98.9,168.1h-4v5.5h4c1.7,0,3-0.9,3-2.7C101.9,169,100.7,168.1,98.9,168.1L98.9,168.1z M98.6,174.5h-3.7v6.2
		h-1v-13.5H99c2.2,0,3.9,1.3,3.9,3.6c0,2-1.2,3.3-3.1,3.6l3.3,6.2h-1.2L98.6,174.5L98.6,174.5z"/>
	<path class="st3" d="M110.7,176.5h5.7l-2.8-7.9L110.7,176.5L110.7,176.5z M116.6,177.4h-6.3l-1.2,3.3h-1.1l5-13.5h0.9l5,13.5h-1.1
		L116.6,177.4L116.6,177.4z"/>
	<path class="st3" d="M125.1,180.8c-2.7,0-4.6-1.9-4.6-4.5v-9.1h1v9c0,2.2,1.4,3.7,3.6,3.7c2.2,0,3.6-1.5,3.6-3.7v-9h1v9.1
		C129.7,179,127.8,180.8,125.1,180.8L125.1,180.8z"/>
	<polygon class="st3" points="136.5,180.7 135.5,180.7 135.5,168.1 131.5,168.1 131.5,167.2 140.6,167.2 140.6,168.1 136.5,168.1 
		136.5,180.7 	"/>
	<path class="st3" d="M148.8,169c-0.7-0.7-1.6-1-2.6-1c-1,0-1.9,0.4-2.6,1c-1,1-1,2-1,4.9c0,2.9,0.1,3.9,1,4.9c0.7,0.7,1.6,1,2.6,1
		c1,0,1.9-0.4,2.6-1c1-1,1-2,1-4.9C149.9,171.1,149.8,170,148.8,169L148.8,169z M149.7,179.4c-0.9,0.9-2.1,1.4-3.4,1.4
		c-1.3,0-2.5-0.5-3.4-1.4c-1.2-1.2-1.3-2.4-1.3-5.5c0-3.1,0-4.2,1.3-5.5c0.9-0.9,2.1-1.4,3.4-1.4s2.5,0.5,3.4,1.4
		c1.2,1.2,1.3,2.4,1.3,5.5C150.9,177,150.9,178.2,149.7,179.4L149.7,179.4z"/>
	<polygon class="st3" points="164.2,169.6 160.1,178.8 159.1,178.8 154.9,169.6 154.9,180.7 153.9,180.7 153.9,167.2 154.9,167.2 
		159.6,177.6 164.2,167.2 165.2,167.2 165.2,180.7 164.2,180.7 164.2,169.6 	"/>
	<path class="st3" d="M169.5,176.5h5.7l-2.8-7.9L169.5,176.5L169.5,176.5z M175.5,177.4h-6.3l-1.2,3.3h-1.1l5-13.5h0.9l5,13.5h-1.1
		L175.5,177.4L175.5,177.4z"/>
	<polygon class="st3" points="181.9,180.7 180.9,180.7 180.9,168.1 176.8,168.1 176.8,167.2 185.9,167.2 185.9,168.1 181.9,168.1 
		181.9,180.7 	"/>
	<polygon class="st3" points="187.9,167.2 188.9,167.2 188.9,180.7 187.9,180.7 187.9,167.2 	"/>
	<path class="st3" d="M199.1,169c-0.7-0.7-1.6-1-2.6-1c-1,0-1.9,0.4-2.6,1c-1,1-1,2-1,4.9c0,2.9,0.1,3.9,1,4.9c0.7,0.7,1.6,1,2.6,1
		c1,0,1.9-0.4,2.6-1c1-1,1-2,1-4.9C200.2,171.1,200.1,170,199.1,169L199.1,169z M199.9,179.4c-0.9,0.9-2.1,1.4-3.4,1.4
		c-1.3,0-2.5-0.5-3.4-1.4c-1.2-1.2-1.3-2.4-1.3-5.5c0-3.1,0-4.2,1.3-5.5c0.9-0.9,2.1-1.4,3.4-1.4c1.3,0,2.5,0.5,3.4,1.4
		c1.2,1.2,1.3,2.4,1.3,5.5C201.2,177,201.2,178.2,199.9,179.4L199.9,179.4z"/>
	<polygon class="st3" points="205.2,169 205.2,180.7 204.2,180.7 204.2,167.2 205.2,167.2 213,178.9 213,167.2 214,167.2 214,180.7 
		213,180.7 205.2,169 	"/>
	<path class="st3" d="M222.5,176.5h5.7l-2.8-7.9L222.5,176.5L222.5,176.5z M228.5,177.4h-6.3l-1.2,3.3h-1.1l5-13.5h0.9l5,13.5h-1.1
		L228.5,177.4L228.5,177.4z"/>
	<polygon class="st3" points="233.5,169 233.5,180.7 232.4,180.7 232.4,167.2 233.5,167.2 241.3,178.9 241.3,167.2 242.3,167.2 
		242.3,180.7 241.3,180.7 233.5,169 	"/>
	<path class="st3" d="M253,169.2c-0.8-0.8-1.8-1-2.9-1h-3.3v11.7h3.3c1.1,0,2.1-0.2,2.9-1c1.1-1.1,1-3.5,1-5
		C254,172.2,254,170.3,253,169.2L253,169.2z M253.7,179.5c-0.8,0.8-2,1.2-3.4,1.2h-4.5v-13.5h4.5c1.4,0,2.6,0.4,3.4,1.2
		c1.4,1.4,1.3,3.5,1.3,5.3C255,175.6,255.1,178.1,253.7,179.5L253.7,179.5z"/>
	<path class="st3" d="M267.2,168.1h-4v5.5h4c1.7,0,3-0.9,3-2.7C270.1,169,268.9,168.1,267.2,168.1L267.2,168.1z M266.9,174.5h-3.7
		v6.2h-1v-13.5h5.1c2.2,0,3.9,1.3,3.9,3.6c0,2-1.2,3.3-3.1,3.6l3.3,6.2h-1.2L266.9,174.5L266.9,174.5z"/>
	<path class="st3" d="M280.6,169c-0.7-0.7-1.6-1-2.6-1c-1,0-1.9,0.4-2.6,1c-1,1-1,2-1,4.9c0,2.9,0.1,3.9,1,4.9c0.7,0.7,1.6,1,2.6,1
		c1,0,1.9-0.4,2.6-1c1-1,1-2,1-4.9C281.7,171.1,281.6,170,280.6,169L280.6,169z M281.4,179.4c-0.9,0.9-2.1,1.4-3.4,1.4
		c-1.3,0-2.5-0.5-3.4-1.4c-1.2-1.2-1.3-2.4-1.3-5.5c0-3.1,0-4.2,1.3-5.5c0.9-0.9,2.1-1.4,3.4-1.4c1.3,0,2.5,0.5,3.4,1.4
		c1.2,1.2,1.3,2.4,1.3,5.5C282.7,177,282.7,178.2,281.4,179.4L281.4,179.4z"/>
	<path class="st3" d="M290.7,174.3h-4v5.5h4c1.8,0,3.1-1,3.1-2.8C293.7,175.3,292.5,174.3,290.7,174.3L290.7,174.3z M290.5,168.1
		h-3.8v5.2h3.8c1.6,0,3-0.8,3-2.6C293.5,168.9,292.1,168.1,290.5,168.1L290.5,168.1z M290.8,180.7h-5.1v-13.5h5
		c2.2,0,3.9,1.3,3.9,3.5c0,1.4-0.8,2.6-2.1,3c1.5,0.5,2.3,1.7,2.3,3.3C294.7,179.4,293.1,180.7,290.8,180.7L290.8,180.7z"/>
	<path class="st3" d="M304.4,169c-0.7-0.7-1.6-1-2.6-1c-1,0-1.9,0.4-2.6,1c-1,1-1,2-1,4.9c0,2.9,0.1,3.9,1,4.9c0.7,0.7,1.6,1,2.6,1
		c1,0,1.9-0.4,2.6-1c1-1,1-2,1-4.9C305.4,171.1,305.3,170,304.4,169L304.4,169z M305.2,179.4c-0.9,0.9-2.1,1.4-3.4,1.4
		c-1.3,0-2.5-0.5-3.4-1.4c-1.2-1.2-1.3-2.4-1.3-5.5c0-3.1,0-4.2,1.3-5.5c0.9-0.9,2.1-1.4,3.4-1.4c1.3,0,2.5,0.5,3.4,1.4
		c1.2,1.2,1.3,2.4,1.3,5.5C306.4,177,306.4,178.2,305.2,179.4L305.2,179.4z"/>
	<polygon class="st3" points="312.6,180.7 311.5,180.7 311.5,168.1 307.5,168.1 307.5,167.2 316.6,167.2 316.6,168.1 312.6,168.1 
		312.6,180.7 	"/>
	<polygon class="st3" points="318.6,167.2 319.6,167.2 319.6,180.7 318.6,180.7 318.6,167.2 	"/>
	<path class="st3" d="M327.2,180.8c-1.3,0-2.5-0.5-3.4-1.4c-1.2-1.2-1.3-2.4-1.3-5.5c0-3.1,0-4.2,1.3-5.5c0.9-0.9,2.1-1.4,3.4-1.4
		c2.4,0,4.1,1.5,4.6,3.9h-1c-0.4-1.9-1.7-3-3.5-3c-1,0-1.9,0.4-2.6,1c-1,1-1,2-1,4.9c0,2.9,0.1,3.9,1,4.9c0.7,0.7,1.6,1,2.6,1
		c1.8,0,3.2-1.2,3.6-3h1C331.4,179.3,329.6,180.8,327.2,180.8L327.2,180.8z"/>
	<path class="st3" d="M338.1,180.8c-2,0-3.3-0.5-4.5-1.8l0.7-0.7c1.2,1.2,2.2,1.6,3.8,1.6c2.1,0,3.5-1,3.5-2.8
		c0-0.8-0.2-1.5-0.7-1.9c-0.5-0.4-0.8-0.6-2-0.7l-1.6-0.2c-1-0.2-1.8-0.5-2.4-1c-0.7-0.6-1.1-1.4-1.1-2.5c0-2.3,1.6-3.7,4.2-3.7
		c1.7,0,2.7,0.5,3.9,1.5l-0.7,0.7c-0.8-0.8-1.7-1.3-3.3-1.3c-2,0-3.1,1.1-3.1,2.8c0,0.8,0.2,1.4,0.7,1.8c0.5,0.4,1.3,0.7,2,0.8
		l1.5,0.2c1.3,0.2,1.9,0.4,2.4,0.9c0.7,0.6,1.2,1.5,1.2,2.6C342.6,179.4,340.9,180.8,338.1,180.8L338.1,180.8z"/>
</g>
</svg>
