<?xml version="1.0" encoding="utf-8"?>
<!-- Generator: Adobe Illustrator 23.0.6, SVG Export Plug-In . SVG Version: 6.00 Build 0)  -->
<svg version="1.1" id="Capa_1" xmlns="http://www.w3.org/2000/svg" xmlns:xlink="http://www.w3.org/1999/xlink" x="0px" y="0px"
	 viewBox="0 0 1920 1080" style="enable-background:new 0 0 1920 1080;" xml:space="preserve">
<style type="text/css">
	.st0{fill:url(#SVGID_1_);}
	.st1{opacity:0.2;}
	.st2{fill-rule:evenodd;clip-rule:evenodd;fill:#73CBF3;}
	.st3{fill-rule:evenodd;clip-rule:evenodd;fill:#0078BF;}
	.st4{fill-rule:evenodd;clip-rule:evenodd;fill:#00AEE8;}
	.st5{fill-rule:evenodd;clip-rule:evenodd;fill:#FFFFFF;}
	.st6{fill:#FFFFFF;}
	.st7{font-family:'Impact';}
	.st8{font-size:130.8838px;}
	.st9{letter-spacing:12.9;}
</style>
<linearGradient id="SVGID_1_" gradientUnits="userSpaceOnUse" x1="0" y1="540" x2="1920" y2="540">
	<stop  offset="0" style="stop-color:#01356E"/>
	<stop  offset="0.3638" style="stop-color:#013770"/>
	<stop  offset="0.5579" style="stop-color:#013D78"/>
	<stop  offset="0.712" style="stop-color:#014886"/>
	<stop  offset="0.8451" style="stop-color:#005799"/>
	<stop  offset="0.9634" style="stop-color:#006AB2"/>
	<stop  offset="1" style="stop-color:#0071BB"/>
</linearGradient>
<rect class="st0" width="1920" height="1080"/>
<g id="Robot.psd" class="st1">
	<image style="overflow:visible;" width="1551" height="1080" id="Robot" xlink:href="A5AE4DA.png" >
	</image>
</g>
<g>
	<polygon class="st2" points="1639.1,898.7 1639.1,953.3 1616.1,926 1639.1,898.7 	"/>
	<polygon class="st2" points="1731.2,953.3 1777.2,953.3 1754.2,926 1731.2,953.3 	"/>
	<polygon class="st2" points="1685.1,898.7 1731.2,898.7 1708.1,871.4 1685.1,898.7 	"/>
	<polygon class="st3" points="1731.2,953.3 1731.2,898.7 1708.1,926 1731.2,953.3 	"/>
	<polygon class="st3" points="1685.1,898.7 1639.1,898.7 1662.1,871.5 1685.1,898.7 	"/>
	<polygon class="st3" points="1639.1,953.3 1639.1,898.7 1662.1,926 1639.1,953.3 	"/>
	<polygon class="st3" points="1685.1,898.7 1685.1,844.2 1708.1,871.4 1685.1,898.7 	"/>
	<polygon class="st4" points="1639.1,953.3 1593.1,953.3 1616.1,926 1639.1,953.3 	"/>
	<polygon class="st4" points="1639.1,898.7 1685.1,898.7 1662.1,926 1639.1,898.7 	"/>
	<polygon class="st4" points="1731.2,898.7 1685.1,898.7 1708.1,926 1731.2,898.7 	"/>
	<polygon class="st4" points="1731.2,898.7 1731.2,953.3 1754.2,926 1731.2,898.7 	"/>
	<polygon class="st4" points="1685.1,844.2 1685.1,898.7 1662.1,871.5 1685.1,844.2 	"/>
	<path class="st5" d="M1639.4,995.3h-35.3c-3.9,0-7.2-1.3-9.8-3.7c-2.6-2.5-3.9-5.7-3.9-9.5c0-3.9,1.3-7.3,3.9-9.8
		c2.6-2.6,5.9-3.9,9.9-3.9h35.2c0.5,0,1,0.2,1.4,0.6c0.4,0.4,0.6,0.8,0.6,1.3c0,0.5-0.2,1-0.6,1.4c-0.4,0.4-0.9,0.6-1.4,0.6h-35.2
		c-2.9,0-5.3,0.9-7.1,2.7c-1.8,1.8-2.7,4.2-2.7,7.1c0,2.7,0.9,5,2.7,6.7c1.8,1.7,4.2,2.6,7.1,2.6h35.2c0.5,0,1,0.2,1.4,0.6
		c0.4,0.4,0.6,0.8,0.6,1.4c0,0.5-0.2,1-0.6,1.4C1640.4,995.1,1639.9,995.3,1639.4,995.3L1639.4,995.3z"/>
	<path class="st5" d="M1733.8,995.7c-0.5,0-1-0.2-1.4-0.6c-0.4-0.4-0.6-0.8-0.6-1.4v-23.4c0-0.5,0.2-1,0.6-1.3
		c0.4-0.4,0.9-0.6,1.4-0.6h41.1c2.2,0,4,0.7,5.5,2.2c1.5,1.4,2.3,3.2,2.3,5.3c0,2.2-0.8,4.1-2.3,5.6c-1.5,1.5-3.4,2.3-5.6,2.3h-9.2
		l16,7.8c0.3,0.2,0.6,0.4,0.8,0.7c0.2,0.3,0.3,0.6,0.3,1c0,0.5-0.2,1-0.6,1.4c-0.4,0.4-0.9,0.6-1.4,0.6c-0.3,0-1.9-0.6-12.1-5.6
		c-7.5-3.7-11.4-5.6-11.9-5.9h-14.2c-0.5,0-1-0.2-1.4-0.6c-0.4-0.4-0.6-0.9-0.6-1.4c0-0.5,0.2-1,0.6-1.4c0.4-0.4,0.9-0.6,1.4-0.6
		h32.2c1.1,0,2-0.4,2.8-1.1c0.8-0.8,1.2-1.7,1.2-2.8c0-1.1-0.4-2-1.1-2.7c-0.7-0.7-1.7-1-2.9-1h-39.1v21.4c0,0.5-0.2,1-0.6,1.4
		C1734.7,995.5,1734.3,995.7,1733.8,995.7L1733.8,995.7z"/>
	<path class="st5" d="M1708.8,995.3c-0.3,0-0.6-0.1-0.9-0.2c-0.3-0.1-0.5-0.3-0.7-0.5l-19.9-22.3h-4.1l-20,22.3
		c-0.2,0.2-0.4,0.4-0.6,0.5c-0.2,0.1-0.5,0.2-0.8,0.2c-0.5,0-1-0.2-1.4-0.6c-0.4-0.4-0.6-0.8-0.6-1.3c0-0.2,0-0.5,0.1-0.7
		c0.1-0.2,0.2-0.4,0.4-0.6l20.5-23c0.2-0.2,0.4-0.4,0.6-0.5c0.2-0.1,0.5-0.2,0.8-0.2h5.9c0.3,0,0.6,0.1,0.9,0.2
		c0.3,0.1,0.5,0.3,0.7,0.5l20.5,23c0.2,0.2,0.3,0.4,0.4,0.6c0.1,0.2,0.1,0.5,0.1,0.7c0,0.5-0.2,1-0.6,1.3
		C1709.8,995.1,1709.3,995.3,1708.8,995.3L1708.8,995.3z"/>
	<path class="st5" d="M1520.2,1025c-1.3,0-2.5-0.5-3.4-1.4c-1.2-1.2-1.3-2.4-1.3-5.5c0-3.1,0-4.2,1.3-5.5c0.9-0.9,2.1-1.4,3.4-1.4
		c2.4,0,4.1,1.5,4.6,3.9h-1c-0.4-1.9-1.7-3-3.5-3c-1,0-1.9,0.4-2.6,1c-1,1-1,2-1,4.9c0,2.9,0.1,3.9,1,4.9c0.7,0.7,1.6,1,2.6,1
		c1.8,0,3.2-1.2,3.6-3h1C1524.3,1023.5,1522.6,1025,1520.2,1025L1520.2,1025z"/>
	<polygon class="st5" points="1527.6,1011.4 1535.8,1011.4 1535.8,1012.3 1528.7,1012.3 1528.7,1017.6 1534.8,1017.6 1534.8,1018.5 
		1528.7,1018.5 1528.7,1024 1535.8,1024 1535.8,1024.9 1527.6,1024.9 1527.6,1011.4 	"/>
	<polygon class="st5" points="1539.3,1013.1 1539.3,1024.9 1538.3,1024.9 1538.3,1011.4 1539.3,1011.4 1547.1,1023.1 1547.1,1011.4 
		1548.2,1011.4 1548.2,1024.9 1547.1,1024.9 1539.3,1013.1 	"/>
	<polygon class="st5" points="1555.2,1024.9 1554.2,1024.9 1554.2,1012.3 1550.2,1012.3 1550.2,1011.4 1559.2,1011.4 1559.2,1012.3 
		1555.2,1012.3 1555.2,1024.9 	"/>
	<path class="st5" d="M1566.2,1012.3h-4v5.5h4c1.7,0,3-0.9,3-2.7C1569.2,1013.1,1568,1012.3,1566.2,1012.3L1566.2,1012.3z
		 M1566,1018.7h-3.7v6.2h-1v-13.5h5.1c2.2,0,3.9,1.3,3.9,3.6c0,2-1.2,3.3-3.1,3.6l3.3,6.2h-1.2L1566,1018.7L1566,1018.7z"/>
	<polygon class="st5" points="1573,1011.4 1581.2,1011.4 1581.2,1012.3 1574.1,1012.3 1574.1,1017.6 1580.2,1017.6 1580.2,1018.5 
		1574.1,1018.5 1574.1,1024 1581.2,1024 1581.2,1024.9 1573,1024.9 1573,1011.4 	"/>
	<polygon class="st5" points="1588.9,1017.9 1595,1017.9 1595,1018.8 1588.9,1018.8 1588.9,1024.9 1587.9,1024.9 1587.9,1011.4 
		1596.1,1011.4 1596.1,1012.3 1588.9,1012.3 1588.9,1017.9 	"/>
	<path class="st5" d="M1604.4,1013.2c-0.7-0.7-1.6-1-2.6-1c-1,0-1.9,0.4-2.6,1c-1,1-1,2-1,4.9c0,2.9,0.1,3.9,1,4.9
		c0.7,0.7,1.6,1,2.6,1c1,0,1.9-0.4,2.6-1c1-1,1-2,1-4.9C1605.5,1015.3,1605.4,1014.2,1604.4,1013.2L1604.4,1013.2z M1605.2,1023.6
		c-0.9,0.9-2.1,1.4-3.4,1.4c-1.3,0-2.5-0.5-3.4-1.4c-1.2-1.2-1.3-2.4-1.3-5.5c0-3.1,0-4.2,1.3-5.5c0.9-0.9,2.1-1.4,3.4-1.4
		c1.3,0,2.5,0.5,3.4,1.4c1.2,1.2,1.3,2.4,1.3,5.5C1606.5,1021.2,1606.5,1022.4,1605.2,1023.6L1605.2,1023.6z"/>
	<path class="st5" d="M1614.5,1012.3h-4v5.5h4c1.7,0,3-0.9,3-2.7C1617.5,1013.1,1616.2,1012.3,1614.5,1012.3L1614.5,1012.3z
		 M1614.2,1018.7h-3.7v6.2h-1v-13.5h5.1c2.2,0,3.9,1.3,3.9,3.6c0,2-1.2,3.3-3.1,3.6l3.3,6.2h-1.2L1614.2,1018.7L1614.2,1018.7z"/>
	<path class="st5" d="M1626.2,1020.7h5.7l-2.8-7.9L1626.2,1020.7L1626.2,1020.7z M1632.2,1021.6h-6.3l-1.2,3.3h-1.1l5-13.5h0.9
		l5,13.5h-1.1L1632.2,1021.6L1632.2,1021.6z"/>
	<path class="st5" d="M1640.6,1025c-2.7,0-4.6-1.9-4.6-4.5v-9.1h1v9c0,2.2,1.4,3.7,3.6,3.7c2.2,0,3.6-1.5,3.6-3.7v-9h1v9.1
		C1645.3,1023.1,1643.3,1025,1640.6,1025L1640.6,1025z"/>
	<polygon class="st5" points="1652.1,1024.9 1651.1,1024.9 1651.1,1012.3 1647.1,1012.3 1647.1,1011.4 1656.1,1011.4 1656.1,1012.3 
		1652.1,1012.3 1652.1,1024.9 	"/>
	<path class="st5" d="M1664.4,1013.2c-0.7-0.7-1.6-1-2.6-1c-1,0-1.9,0.4-2.6,1c-1,1-1,2-1,4.9c0,2.9,0.1,3.9,1,4.9
		c0.7,0.7,1.6,1,2.6,1c1,0,1.9-0.4,2.6-1c1-1,1-2,1-4.9C1665.5,1015.3,1665.4,1014.2,1664.4,1013.2L1664.4,1013.2z M1665.2,1023.6
		c-0.9,0.9-2.1,1.4-3.4,1.4c-1.3,0-2.5-0.5-3.4-1.4c-1.2-1.2-1.3-2.4-1.3-5.5c0-3.1,0-4.2,1.3-5.5c0.9-0.9,2.1-1.4,3.4-1.4
		c1.3,0,2.5,0.5,3.4,1.4c1.2,1.2,1.3,2.4,1.3,5.5C1666.5,1021.2,1666.5,1022.4,1665.2,1023.6L1665.2,1023.6z"/>
	<polygon class="st5" points="1679.8,1013.8 1675.7,1023 1674.7,1023 1670.5,1013.8 1670.5,1024.9 1669.5,1024.9 1669.5,1011.4 
		1670.5,1011.4 1675.2,1021.8 1679.8,1011.4 1680.8,1011.4 1680.8,1024.9 1679.8,1024.9 1679.8,1013.8 	"/>
	<path class="st5" d="M1685.1,1020.7h5.7l-2.8-7.9L1685.1,1020.7L1685.1,1020.7z M1691.1,1021.6h-6.3l-1.2,3.3h-1.1l5-13.5h0.9
		l5,13.5h-1.1L1691.1,1021.6L1691.1,1021.6z"/>
	<polygon class="st5" points="1697.5,1024.9 1696.4,1024.9 1696.4,1012.3 1692.4,1012.3 1692.4,1011.4 1701.5,1011.4 1701.5,1012.3 
		1697.5,1012.3 1697.5,1024.9 	"/>
	<polygon class="st5" points="1703.5,1011.4 1704.5,1011.4 1704.5,1024.9 1703.5,1024.9 1703.5,1011.4 	"/>
	<path class="st5" d="M1714.7,1013.2c-0.7-0.7-1.6-1-2.6-1c-1,0-1.9,0.4-2.6,1c-1,1-1,2-1,4.9c0,2.9,0.1,3.9,1,4.9
		c0.7,0.7,1.6,1,2.6,1c1,0,1.9-0.4,2.6-1c1-1,1-2,1-4.9C1715.7,1015.3,1715.6,1014.2,1714.7,1013.2L1714.7,1013.2z M1715.5,1023.6
		c-0.9,0.9-2.1,1.4-3.4,1.4c-1.3,0-2.5-0.5-3.4-1.4c-1.2-1.2-1.3-2.4-1.3-5.5c0-3.1,0-4.2,1.3-5.5c0.9-0.9,2.1-1.4,3.4-1.4
		c1.3,0,2.5,0.5,3.4,1.4c1.2,1.2,1.3,2.4,1.3,5.5C1716.7,1021.2,1716.7,1022.4,1715.5,1023.6L1715.5,1023.6z"/>
	<polygon class="st5" points="1720.7,1013.1 1720.7,1024.9 1719.7,1024.9 1719.7,1011.4 1720.7,1011.4 1728.5,1023.1 1728.5,1011.4 
		1729.6,1011.4 1729.6,1024.9 1728.5,1024.9 1720.7,1013.1 	"/>
	<path class="st5" d="M1738,1020.7h5.7l-2.8-7.9L1738,1020.7L1738,1020.7z M1744,1021.6h-6.3l-1.2,3.3h-1.1l5-13.5h0.9l5,13.5h-1.1
		L1744,1021.6L1744,1021.6z"/>
	<polygon class="st5" points="1749,1013.1 1749,1024.9 1748,1024.9 1748,1011.4 1749,1011.4 1756.8,1023.1 1756.8,1011.4 
		1757.8,1011.4 1757.8,1024.9 1756.8,1024.9 1749,1013.1 	"/>
	<path class="st5" d="M1768.5,1013.3c-0.8-0.8-1.8-1-2.9-1h-3.3v11.7h3.3c1.1,0,2.1-0.2,2.9-1c1.1-1.1,1-3.5,1-5
		C1769.5,1016.4,1769.6,1014.5,1768.5,1013.3L1768.5,1013.3z M1769.3,1023.7c-0.8,0.8-2,1.2-3.4,1.2h-4.5v-13.5h4.5
		c1.4,0,2.6,0.4,3.4,1.2c1.4,1.4,1.3,3.5,1.3,5.3C1770.6,1019.8,1770.6,1022.3,1769.3,1023.7L1769.3,1023.7z"/>
	<path class="st5" d="M1782.7,1012.3h-4v5.5h4c1.7,0,3-0.9,3-2.7C1785.7,1013.1,1784.5,1012.3,1782.7,1012.3L1782.7,1012.3z
		 M1782.5,1018.7h-3.7v6.2h-1v-13.5h5.1c2.2,0,3.9,1.3,3.9,3.6c0,2-1.2,3.3-3.1,3.6l3.3,6.2h-1.2L1782.5,1018.7L1782.5,1018.7z"/>
	<path class="st5" d="M1796.2,1013.2c-0.7-0.7-1.6-1-2.6-1c-1,0-1.9,0.4-2.6,1c-1,1-1,2-1,4.9c0,2.9,0.1,3.9,1,4.9
		c0.7,0.7,1.6,1,2.6,1c1,0,1.9-0.4,2.6-1c1-1,1-2,1-4.9C1797.2,1015.3,1797.1,1014.2,1796.2,1013.2L1796.2,1013.2z M1797,1023.6
		c-0.9,0.9-2.1,1.4-3.4,1.4c-1.3,0-2.5-0.5-3.4-1.4c-1.2-1.2-1.3-2.4-1.3-5.5c0-3.1,0-4.2,1.3-5.5c0.9-0.9,2.1-1.4,3.4-1.4
		c1.3,0,2.5,0.5,3.4,1.4c1.2,1.2,1.3,2.4,1.3,5.5C1798.2,1021.2,1798.2,1022.4,1797,1023.6L1797,1023.6z"/>
	<path class="st5" d="M1806.2,1018.4h-4v5.5h4c1.8,0,3.1-1,3.1-2.8C1809.3,1019.5,1808.1,1018.4,1806.2,1018.4L1806.2,1018.4z
		 M1806.1,1012.3h-3.8v5.2h3.8c1.6,0,3-0.8,3-2.6C1809.1,1013.1,1807.7,1012.3,1806.1,1012.3L1806.1,1012.3z M1806.3,1024.9h-5.1
		v-13.5h5c2.2,0,3.9,1.3,3.9,3.5c0,1.4-0.8,2.6-2.1,3c1.5,0.5,2.3,1.7,2.3,3.3C1810.3,1023.6,1808.7,1024.9,1806.3,1024.9
		L1806.3,1024.9z"/>
	<path class="st5" d="M1819.9,1013.2c-0.7-0.7-1.6-1-2.6-1c-1,0-1.9,0.4-2.6,1c-1,1-1,2-1,4.9c0,2.9,0.1,3.9,1,4.9
		c0.7,0.7,1.6,1,2.6,1c1,0,1.9-0.4,2.6-1c1-1,1-2,1-4.9C1821,1015.3,1820.9,1014.2,1819.9,1013.2L1819.9,1013.2z M1820.8,1023.6
		c-0.9,0.9-2.1,1.4-3.4,1.4c-1.3,0-2.5-0.5-3.4-1.4c-1.2-1.2-1.3-2.4-1.3-5.5c0-3.1,0-4.2,1.3-5.5c0.9-0.9,2.1-1.4,3.4-1.4
		c1.3,0,2.5,0.5,3.4,1.4c1.2,1.2,1.3,2.4,1.3,5.5C1822,1021.2,1822,1022.4,1820.8,1023.6L1820.8,1023.6z"/>
	<polygon class="st5" points="1828.1,1024.9 1827.1,1024.9 1827.1,1012.3 1823.1,1012.3 1823.1,1011.4 1832.2,1011.4 1832.2,1012.3 
		1828.1,1012.3 1828.1,1024.9 	"/>
	<polygon class="st5" points="1834.2,1011.4 1835.2,1011.4 1835.2,1024.9 1834.2,1024.9 1834.2,1011.4 	"/>
	<path class="st5" d="M1842.8,1025c-1.3,0-2.5-0.5-3.4-1.4c-1.2-1.2-1.3-2.4-1.3-5.5c0-3.1,0-4.2,1.3-5.5c0.9-0.9,2.1-1.4,3.4-1.4
		c2.4,0,4.1,1.5,4.6,3.9h-1c-0.4-1.9-1.7-3-3.5-3c-1,0-1.9,0.4-2.6,1c-1,1-1,2-1,4.9c0,2.9,0.1,3.9,1,4.9c0.7,0.7,1.6,1,2.6,1
		c1.8,0,3.2-1.2,3.6-3h1C1846.9,1023.5,1845.2,1025,1842.8,1025L1842.8,1025z"/>
	<path class="st5" d="M1853.6,1025c-2,0-3.3-0.5-4.5-1.8l0.7-0.7c1.2,1.2,2.2,1.6,3.8,1.6c2.1,0,3.5-1,3.5-2.8
		c0-0.8-0.2-1.5-0.7-1.9c-0.5-0.4-0.8-0.6-2-0.7l-1.6-0.2c-1-0.2-1.8-0.5-2.4-1c-0.7-0.6-1.1-1.4-1.1-2.5c0-2.3,1.6-3.7,4.2-3.7
		c1.7,0,2.7,0.5,3.9,1.5l-0.7,0.7c-0.8-0.8-1.7-1.3-3.3-1.3c-2,0-3.1,1.1-3.1,2.8c0,0.8,0.2,1.4,0.7,1.8c0.5,0.4,1.3,0.7,2,0.8
		l1.5,0.2c1.3,0.2,1.9,0.4,2.4,0.9c0.7,0.6,1.2,1.5,1.2,2.6C1858.2,1023.6,1856.4,1025,1853.6,1025L1853.6,1025z"/>
</g>
<text transform="matrix(1.3211 0 0 1 666.2361 276.7339)" class="st6 st7 st8 st9">MACH I</text>
</svg>
